<svg width="39" height="40" viewBox="0 0 39 40" fill="none" xmlns="http://www.w3.org/2000/svg">
<g clip-path="url(#clip0_1701_289)">
<path d="M38.9287 36.308C38.9136 35.6369 38.6762 35.3545 38.0376 35.2805C37.7489 35.2482 37.6352 35.1211 37.6523 34.8356C37.6584 34.7189 37.6523 34.6022 37.6523 34.4844V5.50719C37.6523 5.37694 37.6574 5.24668 37.6523 5.11643C37.6443 4.858 37.759 4.75692 38.0074 4.72357C38.6964 4.63187 38.9126 4.36824 38.9287 3.64506C38.9408 2.96877 38.9398 2.29039 38.9287 1.61514C38.9156 0.833605 38.633 0.53558 37.8716 0.508486C37.2571 0.486603 36.6405 0.50015 36.025 0.508486C35.2354 0.508486 34.9065 0.821107 34.8492 1.51824C34.8311 1.74644 34.7064 1.83085 34.4992 1.83085C34.3986 1.83085 34.298 1.83085 34.1974 1.83085C30.5162 1.83085 26.8346 1.83085 23.1527 1.83085C23.0401 1.83085 22.9274 1.83085 22.8137 1.83085C22.5945 1.83085 22.4989 1.71623 22.4959 1.49219C22.5021 1.23201 22.4927 0.971698 22.4678 0.712736C22.4205 0.363651 22.2817 0.0937575 21.9216 0.00622559H17.6972C17.3372 0.0937575 17.1943 0.36365 17.1511 0.711693C17.1303 0.91937 17.1215 1.12816 17.1249 1.33692C17.1159 1.79438 17.0867 1.83398 16.6542 1.83502C12.8469 1.83502 9.03998 1.83675 5.23335 1.84023C4.93161 1.84023 4.78878 1.73602 4.74452 1.40673C4.66808 0.828394 4.42468 0.573094 3.89462 0.535581C3.10522 0.473056 2.31236 0.473056 1.52295 0.535581C0.984844 0.581431 0.72635 0.869037 0.702211 1.42236C0.667008 2.22891 0.664996 3.03649 0.702211 3.84304C0.727356 4.37448 0.988868 4.63604 1.4978 4.7194C1.96148 4.79651 1.96147 4.79651 1.9675 5.27481C1.9675 5.36651 1.9675 5.45717 1.9675 5.54887V34.448C1.9675 34.5782 1.96147 34.7095 1.9675 34.8387C1.98159 35.1232 1.87196 35.2555 1.58229 35.2837C0.943603 35.3577 0.707241 35.6401 0.691148 36.3101C0.675056 36.9801 0.68109 37.6647 0.691148 38.341C0.699195 39.159 0.99289 39.4727 1.78647 39.4967C2.38995 39.5144 2.99343 39.5029 3.59691 39.4967C4.38747 39.4967 4.71536 39.1841 4.77269 38.4869C4.79079 38.2598 4.91551 38.1743 5.1227 38.1743C5.22328 38.1743 5.32386 38.1743 5.42444 38.1743C9.10568 38.1743 12.7873 38.1743 16.4692 38.1743C16.5818 38.1743 16.6945 38.1743 16.8081 38.1743C17.0274 38.1743 17.1229 38.2889 17.1259 38.513C17.1197 38.7731 17.1291 39.0335 17.1541 39.2924C17.2014 39.6415 17.3402 39.9114 17.7003 39.9989H21.9246C22.2847 39.9114 22.4275 39.6415 22.4708 39.2924C22.4916 39.0848 22.5004 38.876 22.4969 38.6672C22.506 38.2097 22.5351 38.1701 22.9676 38.1691C26.7749 38.1691 30.5819 38.1674 34.3885 38.1639C34.6963 38.1639 34.8321 38.2681 34.8773 38.5984C34.9588 39.1976 35.2243 39.4477 35.8027 39.479C36.5303 39.5206 37.2596 39.5206 37.9873 39.479C38.63 39.4404 38.9126 39.1194 38.9287 38.4536C38.9448 37.7398 38.9438 37.0228 38.9287 36.308ZM34.7466 3.27513C34.9799 3.27513 35.0011 3.36683 35.0031 3.56795C35.0101 4.44639 35.1409 4.58185 35.9877 4.58914C36.1889 4.58914 36.2674 4.62666 36.2663 4.86007C36.2583 7.5694 36.2664 10.2787 36.2603 12.9818C36.2538 13.0411 36.2437 13.0999 36.2301 13.1579C34.2638 8.53954 31.0603 5.29566 26.6489 3.28034C29.3484 3.28138 32.048 3.2845 34.7466 3.27617V3.27513ZM18.5361 1.55575C18.5361 1.36505 18.5954 1.30982 18.7724 1.31607C19.1235 1.32754 19.4765 1.31607 19.8255 1.31607C20.1514 1.31607 20.4783 1.33275 20.8032 1.31607C21.0456 1.2994 21.0938 1.39318 21.0888 1.62869C21.0734 2.30393 21.0734 2.97919 21.0888 3.65443C21.0888 3.87743 21.0264 3.94099 20.8132 3.93682C20.1494 3.92432 19.4846 3.9264 18.8207 3.93682C18.6196 3.93682 18.5301 3.90556 18.5351 3.66589C18.5502 2.9573 18.5461 2.256 18.5361 1.55575ZM3.72866 4.58914C4.43273 4.60686 4.64194 4.39637 4.6168 3.66902C4.60473 3.33244 4.7033 3.27304 5.00805 3.27513C7.67242 3.28867 10.3388 3.28241 13.0001 3.28241C8.57462 5.28627 5.36711 8.52495 3.36255 13.0954V12.7744C3.36255 10.1693 3.36859 7.56419 3.35451 4.95908C3.3525 4.64229 3.44704 4.57768 3.72866 4.5881V4.58914ZM2.09123 2.60926C2.09123 1.96527 2.09122 1.96528 2.71281 1.96528C3.36256 1.96528 3.36255 1.96527 3.36255 2.62593C3.36255 3.28659 3.36256 3.28346 2.71482 3.28346C2.09122 3.28346 2.09123 3.28346 2.09123 2.64781V2.60926ZM2.75405 38.0388C2.09123 38.0388 2.09123 38.0388 2.09123 37.3605C2.09123 36.7206 2.09122 36.7206 2.7118 36.7206C3.36255 36.7206 3.36255 36.7206 3.36255 37.4126C3.36255 38.0368 3.36256 38.0368 2.75405 38.0368V38.0388ZM12.7336 36.7206C10.1457 36.7206 7.55675 36.7207 4.96883 36.728C4.69424 36.728 4.60975 36.6717 4.6168 36.3716C4.63691 35.589 4.44982 35.4129 3.68944 35.4066C3.52348 35.4066 3.35451 35.465 3.35552 35.1565C3.36658 32.4107 3.36255 29.6639 3.36255 26.9181C5.37415 31.476 8.57864 34.7189 13.0072 36.7206H12.7336ZM17.7013 34.8075C17.4176 34.871 17.2899 35.1326 17.2798 35.4327C17.2647 35.6797 17.2647 35.9276 17.2798 36.1746C17.307 36.4674 17.2044 36.5227 16.9409 36.4706C15.6062 36.2101 14.3017 35.8453 13.0655 35.2555C8.29903 32.9849 5.08147 29.2763 3.85439 23.9754C2.42213 17.7877 4.02437 12.3909 8.41771 7.94557C10.7874 5.54887 13.6791 4.14107 16.9379 3.53668C17.1933 3.48979 17.31 3.52105 17.2798 3.82533C17.2607 4.07225 17.2607 4.32035 17.2798 4.56727C17.307 5.00493 17.5353 5.2373 17.9547 5.23938C19.1858 5.24702 20.4169 5.24702 21.648 5.23938C22.0896 5.23938 22.3179 5.00596 22.343 4.54642C22.3616 4.29948 22.3616 4.05142 22.343 3.80448C22.3139 3.51375 22.4386 3.49186 22.6679 3.52938C24.5457 3.87951 26.3371 4.49327 27.9896 5.4853C32.3015 8.0727 35.0011 11.8866 35.9958 16.9572C37.25 23.3439 34.3573 30.3475 29.0115 33.8384C28.5488 32.5223 28.0952 31.2332 27.6406 29.9411C27.2926 28.9543 26.9607 27.9612 26.5905 26.9827C26.0223 25.4853 26.321 24.1557 27.2644 22.9396C27.7532 22.3081 27.7331 22.0747 27.1136 21.5651C23.663 18.7245 20.2121 15.8842 16.7608 13.0443C16.6855 12.9883 16.6218 12.917 16.5738 12.8348C16.5257 12.7526 16.4942 12.6612 16.4812 12.566C16.2227 10.9123 16.966 9.89942 18.6548 9.61077C19.7963 9.41591 20.9339 9.54199 22.0745 9.64516C23.1346 9.74102 24.1867 9.69726 25.1925 9.2919C26.3652 8.81881 27.0281 7.79657 26.9818 6.58988C26.9717 6.34292 26.9235 6.21578 26.6579 6.32311C26.5519 6.36355 26.4414 6.39016 26.329 6.40231C25.9579 6.45128 25.6813 6.51277 25.6582 7.04421C25.636 7.5569 25.2216 7.86534 24.764 8.05291C23.8588 8.42387 22.9204 8.40721 21.9789 8.31863C20.6382 8.19255 19.2995 8.07375 17.9718 8.43117C15.8264 9.00846 14.8096 10.6987 15.2773 12.9401C15.3919 13.4914 15.2039 13.9936 15.1063 14.5032C14.3017 18.7082 13.4873 22.9111 12.6632 27.1119C12.5274 27.8091 12.6954 28.0581 13.3914 28.1696C14.2423 28.3051 15.0107 28.6198 15.6474 29.2356C16.0311 29.6137 16.3224 30.0809 16.4973 30.5986C16.9479 31.8769 17.4002 33.1558 17.8541 34.4354C17.9145 34.6188 17.9829 34.7418 17.7003 34.8054L17.7013 34.8075ZM18.3108 31.9575C18.1167 31.3822 17.9085 30.8112 17.7073 30.2381C17.135 28.5593 15.9673 27.5444 14.354 27.0567C14.0321 26.9588 13.9949 26.8587 14.0583 26.5357C14.7352 23.0969 15.393 19.6582 16.0568 16.2194C16.0809 16.0985 16.1181 15.9798 16.1493 15.861H16.2368L17.6077 19.7249C17.836 20.3699 18.0553 21.0191 18.2957 21.66C18.3822 21.8913 18.3762 22.034 18.179 22.2247C17.8357 22.5542 17.601 22.987 17.5079 23.4621C17.4147 23.9371 17.468 24.4305 17.66 24.8726C18.0402 25.7677 18.9414 26.3523 19.8507 26.296C20.3244 26.2762 20.7806 26.1043 21.1559 25.8041C21.5313 25.5039 21.8073 25.0902 21.9457 24.6204C22.3913 23.1615 21.3775 21.6308 19.907 21.5672C19.6736 21.5578 19.57 21.4932 19.4876 21.2546C18.8549 19.4237 18.2022 17.5991 17.5544 15.7734C17.5122 15.6536 17.4639 15.5369 17.4176 15.4171C17.5786 15.3233 17.6691 15.4671 17.7697 15.5494C20.4732 17.7724 23.1768 19.9955 25.8804 22.2185C26.0212 22.3342 26.0565 22.4061 25.9458 22.5811C24.9541 24.1442 24.7499 25.7979 25.4429 27.5506C25.633 28.03 25.7839 28.526 25.9609 29.0095C26.0213 29.1741 26.0414 29.2804 25.8342 29.3576C23.4203 30.2607 21.01 31.1728 18.6035 32.094C18.4405 32.1617 18.3691 32.1252 18.3108 31.9554V31.9575ZM18.7433 23.916C18.7423 23.7766 18.7682 23.6384 18.8194 23.5095C18.8705 23.3806 18.946 23.2635 19.0413 23.1652C19.1366 23.0668 19.2499 22.9891 19.3745 22.9366C19.4992 22.8841 19.6327 22.8578 19.7672 22.8593C20.0391 22.8602 20.2996 22.9728 20.4914 23.1725C20.6832 23.3722 20.7906 23.6426 20.7901 23.9243C20.7849 24.2055 20.6745 24.4737 20.4821 24.6722C20.2898 24.8706 20.0306 24.984 19.7591 24.9883C19.487 24.985 19.2273 24.87 19.0369 24.6686C18.8464 24.4672 18.7409 24.1958 18.7433 23.9139V23.916ZM20.8273 38.687C20.4763 38.6745 20.1232 38.687 19.7742 38.687C19.4483 38.687 19.1225 38.6776 18.7966 38.687C18.6105 38.6943 18.5321 38.6495 18.5351 38.4327C18.5485 37.7318 18.5485 37.0305 18.5351 36.3288C18.5351 36.1142 18.6085 36.0704 18.7956 36.0725C19.4728 36.0815 20.1497 36.0815 20.8263 36.0725C21.0134 36.0725 21.0908 36.1152 21.0868 36.3288C21.0747 37.0305 21.0747 37.7318 21.0868 38.4327C21.0918 38.6526 21.0134 38.6912 20.8273 38.6849V38.687ZM22.6196 36.4779C22.4024 36.5175 22.329 36.457 22.343 36.2267C22.3611 35.9537 22.3611 35.6797 22.343 35.4066C22.3119 34.9898 22.0805 34.7731 21.6802 34.7637C21.3161 34.7554 20.951 34.7637 20.5869 34.7637H20.3153C19.1778 34.7637 19.1657 34.7428 18.877 33.5695C18.8127 33.309 18.9967 33.3465 19.0923 33.309C20.3355 32.8296 21.5827 32.3597 22.8298 31.8876C23.9594 31.4614 25.0919 31.0436 26.2154 30.6028C26.4397 30.5153 26.5171 30.5653 26.5885 30.7831C26.9908 31.9564 27.3992 33.1277 27.8237 34.2927C27.9011 34.5011 27.8528 34.5865 27.6788 34.6824C26.0945 35.5535 24.3869 36.1589 22.6196 36.4758V36.4779ZM35.9717 35.415C35.1378 35.4066 35.0121 35.5463 35.0041 36.4476C35.0041 36.6706 34.9447 36.7259 34.7335 36.7259C32.0591 36.7175 29.3836 36.7259 26.7092 36.7196C26.6548 36.714 26.6008 36.7053 26.5473 36.6936C31.001 34.7032 34.2568 31.5115 36.203 26.9223C36.3096 26.9806 36.2623 27.0807 36.2623 27.1557C36.2623 29.7973 36.2623 32.4378 36.2684 35.0753C36.2663 35.3056 36.2432 35.416 35.9717 35.4129V35.415ZM36.8889 38.0388C36.2613 38.0388 36.2613 38.0388 36.2613 37.3949V37.3553C36.2613 36.7207 36.2613 36.7206 36.893 36.7206C37.5246 36.7206 37.5327 36.7207 37.5327 37.3782C37.5327 38.0357 37.5327 38.0368 36.8889 38.0368V38.0388ZM36.9201 3.28346C36.2613 3.28346 36.2613 3.28346 36.2613 2.59988C36.2613 1.96527 36.2613 1.96528 36.8648 1.96528C37.5357 1.96528 37.5357 1.96527 37.5357 2.67386C37.5326 3.28138 37.5326 3.28138 36.9201 3.28138V3.28346Z" fill="#F2F2F2"/>
</g>
<defs>
<clipPath id="clip0_1701_289">
<rect width="38.2617" height="40" fill="white" transform="translate(0.678223)"/>
</clipPath>
</defs>
</svg>
