<svg width="40" height="40" viewBox="0 0 40 40" fill="none" xmlns="http://www.w3.org/2000/svg">
<g clip-path="url(#clip0_586_3505)">
<path d="M33.1982 7.62059C33.3591 7.77685 33.413 7.8792 33.2115 8.04561C32.9724 8.24406 32.7716 8.6261 32.5302 8.64642C32.2763 8.66907 32.0778 8.2675 31.8552 8.05108C31.6723 7.87295 31.5106 7.67216 31.3403 7.48153L31.2489 7.52606V7.89482C31.2489 9.53551 31.2426 11.1762 31.2551 12.8169C31.2551 13.0739 31.1864 13.1372 30.934 13.1357C29.9965 13.1302 29.9965 13.1396 29.9965 12.1887V7.42293C29.5785 7.85263 29.2308 8.20421 28.8949 8.55891C28.7707 8.69173 28.6964 8.69564 28.5542 8.5636C27.8058 7.86904 27.8011 7.87451 28.5261 7.14948C29.1613 6.5143 29.8019 5.88537 30.427 5.24081C30.5832 5.07753 30.67 5.09003 30.8223 5.2455C31.6077 6.04553 32.3997 6.83723 33.1982 7.62059Z" fill="url(#paint0_linear_586_3505)"/>
<path d="M30.6207 2.50562C29.2606 2.50562 27.931 2.90906 26.8002 3.66491C25.6693 4.42075 24.7881 5.49503 24.268 6.75182C23.7479 8.00861 23.6122 9.39144 23.8782 10.7253C24.1442 12.0593 24.7999 13.2843 25.7622 14.2455C26.7246 15.2067 27.9505 15.8608 29.2847 16.1251C30.619 16.3894 32.0016 16.252 33.2578 15.7303C34.5139 15.2086 35.5871 14.3261 36.3415 13.1943C37.0959 12.0626 37.4977 10.7325 37.496 9.37229C37.4956 8.46994 37.3174 7.57651 36.9717 6.74303C36.6259 5.90955 36.1193 5.15236 35.4809 4.5147C34.8424 3.87704 34.0846 3.3714 33.2507 3.02668C32.4168 2.68196 31.5231 2.5049 30.6207 2.50562ZM30.6262 14.9991C29.5122 15 28.423 14.6701 27.4967 14.0512C26.5704 13.4324 25.8487 12.5524 25.4231 11.5229C24.9975 10.4933 24.8872 9.36064 25.1061 8.26834C25.325 7.17604 25.8634 6.17334 26.6529 5.38737C27.4423 4.60139 28.4474 4.06753 29.5407 3.85347C30.634 3.6394 31.7662 3.75477 32.7938 4.18495C33.8214 4.61512 34.6981 5.34074 35.3129 6.2698C35.9276 7.19886 36.2526 8.28953 36.2468 9.40354C36.2367 10.8888 35.6405 12.3099 34.5879 13.3579C33.5353 14.4058 32.1115 14.9956 30.6262 14.9991Z" fill="url(#paint1_linear_586_3505)"/>
<path d="M40.0016 39.8351C39.9891 39.4711 39.9977 39.107 39.9977 38.7414C39.8195 38.5913 39.607 38.6265 39.3992 38.6257C37.7846 38.6257 36.1717 38.6257 34.5607 38.6257C33.8677 38.6257 33.867 38.6257 33.867 37.9484V22.0266C33.867 21.2454 33.9138 21.0993 33.0224 21.1329C32.7193 21.1438 32.6083 21.0078 32.6146 20.7117C32.6255 20.1789 32.6325 19.6445 32.6146 19.1125C32.6021 18.7804 32.7294 18.639 33.0505 18.5468C36.1132 17.6733 38.2544 15.7623 39.4742 12.8138C39.7977 12.0325 39.9235 11.2215 40 10.3918V8.36048C39.9219 7.96984 39.9453 7.56358 39.8438 7.17528C38.9583 3.86057 36.9077 1.60449 33.692 0.407047C32.9786 0.141412 32.2357 0.0726589 31.4895 0.00390625H29.6105C29.2699 0.166413 28.891 0.15235 28.5332 0.23829C23.7674 1.35005 20.5641 5.90804 21.379 10.7856C22.0579 14.8412 24.5158 17.4046 28.4886 18.4937C28.6925 18.5499 28.7629 18.6117 28.7574 18.821C28.7433 19.3679 28.7527 19.9148 28.7527 20.4617C28.7527 21.243 28.7527 21.2704 27.9761 21.2375C27.5902 21.2204 27.4917 21.3157 27.4925 21.7133C27.5081 27.2706 27.5011 32.8278 27.5097 38.3851C27.5097 38.6695 27.455 38.7632 27.1542 38.7484C26.5816 38.7194 26.008 38.7194 25.4354 38.7484C25.0854 38.7664 24.9924 38.6703 24.9932 38.3124C25.0057 31.9091 25.0109 25.5057 25.0088 19.1023C25.0088 18.8179 24.9518 18.7367 24.6533 18.739C22.8564 18.7554 21.0594 18.7476 19.2625 18.7476C18.7515 18.7476 18.7515 18.7476 18.7515 19.2523C18.7515 25.6302 18.7539 32.0075 18.7586 38.3843C18.7586 38.6695 18.7031 38.7624 18.4023 38.7476C17.8179 38.7203 17.2304 38.7195 16.646 38.7476C16.3241 38.764 16.2428 38.6804 16.2436 38.3515C16.2561 33.6013 16.2499 28.8503 16.2592 24.1002C16.2592 23.8142 16.2007 23.7345 15.903 23.7376C14.08 23.7533 12.257 23.7533 10.434 23.7376C10.0848 23.7376 9.99182 23.8158 9.9926 24.1744C10.0067 28.9113 9.99885 33.649 10.009 38.3867C10.009 38.6734 9.95041 38.7617 9.65196 38.7484C9.05428 38.7218 8.45426 38.7234 7.85502 38.7484C7.56516 38.7601 7.4925 38.6851 7.49407 38.3906C7.50657 35.7092 7.49406 33.0279 7.50891 30.3434C7.50891 30.0535 7.44484 29.9801 7.1503 29.9824C5.30231 29.997 3.45328 29.997 1.60321 29.9824C1.31335 29.9824 1.24148 30.048 1.24304 30.341C1.2571 32.7229 1.25866 35.1048 1.24773 37.4866C1.24773 37.8968 1.42586 38.4476 1.1696 38.6781C0.94459 38.8804 0.403163 38.7312 0.0015848 38.7367C0.0015848 39.0359 0.024241 39.3375 -0.00544763 39.6344C-0.0351363 39.9312 0.0601808 39.9937 0.353161 39.9937C13.4464 39.9854 26.5399 39.9828 39.6336 39.9859C39.6983 39.9801 39.7634 39.9801 39.8281 39.9859C39.975 40.0187 40.0016 39.9719 40.0016 39.8351ZM5.94557 38.7484C4.9049 38.7343 3.86345 38.7328 2.82044 38.7484C2.5595 38.7523 2.50793 38.6742 2.50793 38.4257C2.51731 36.134 2.51731 33.8435 2.50793 31.5544C2.50793 31.2942 2.58059 31.2348 2.82982 31.2379C3.87049 31.252 4.91193 31.2536 5.95494 31.2379C6.21589 31.234 6.2737 31.3122 6.27136 31.5606C6.2573 32.6927 6.26511 33.8263 6.26511 34.9576C6.26511 36.1155 6.25652 37.2741 6.27214 38.432C6.26902 38.6921 6.19323 38.7515 5.94322 38.7484H5.94557ZM15.0131 38.4288C15.0131 38.6812 14.9522 38.7523 14.6951 38.7484C13.6534 38.7338 12.6117 38.7338 11.57 38.7484C11.3153 38.7484 11.2497 38.6843 11.2505 38.4296C11.2614 36.242 11.2567 34.0545 11.2567 31.8669C11.2567 29.6933 11.263 27.5206 11.2497 25.3471C11.2497 25.0564 11.3137 24.9807 11.6083 24.9861C12.6357 25.0064 13.6646 25.0033 14.692 24.9861C14.9467 24.9822 15.0115 25.0502 15.0115 25.3049C15.0043 29.6811 15.004 34.0558 15.0108 38.4288H15.0131ZM23.3728 38.7515C22.3978 38.7242 21.4196 38.7273 20.4454 38.7515C20.1071 38.7593 19.9969 38.6906 19.9985 38.321C20.0125 33.2719 20.0156 28.2222 20.0078 23.172C20.0078 22.222 20.0156 21.2719 20.0024 20.3219C20.0024 20.082 20.0422 19.9891 20.3149 19.9937C21.3563 20.0117 22.3978 20.0133 23.44 19.9937C23.733 19.9883 23.7666 20.0922 23.7658 20.3461C23.7575 23.3671 23.7556 26.3864 23.7603 29.4043C23.7603 32.3849 23.7556 35.3654 23.7674 38.3452C23.7603 38.6499 23.7088 38.7617 23.3681 38.7515H23.3728ZM26.0167 16.0506C23.3025 14.1693 21.9673 10.7973 22.6822 7.64249C23.4291 4.34939 26.0417 1.88367 29.3512 1.34927C33.8709 0.618774 38.1648 3.86656 38.675 8.40111C39.1797 12.8849 36.1046 16.8389 31.6489 17.4241C31.3364 17.4647 31.2247 17.5585 31.2348 17.8984C31.2645 18.9 31.2309 19.9023 31.2544 20.9039C31.2614 21.2118 31.163 21.2602 30.8864 21.2555C29.9965 21.2407 29.9957 21.2516 29.9957 20.3813V19.3656C29.9957 18.8843 29.9731 18.4007 30.0035 17.9218C30.0254 17.5827 29.9254 17.4593 29.5777 17.4186C28.2955 17.2656 27.0716 16.7954 26.0167 16.0506ZM32.5013 38.4296C32.5013 38.6835 32.438 38.7523 32.1825 38.7484C31.1408 38.7338 30.0991 38.7338 29.0574 38.7484C28.8011 38.7484 28.7379 38.682 28.7386 38.4288C28.7488 35.8123 28.7449 33.1943 28.7449 30.5809C28.7449 28.0027 28.7504 25.4244 28.7371 22.8462C28.7371 22.5548 28.805 22.4806 29.0972 22.4868C30.1246 22.5063 31.1536 22.5032 32.181 22.4868C32.4372 22.4868 32.4997 22.554 32.4989 22.8071C32.4943 28.0162 32.495 33.2237 32.5013 38.4296Z" fill="url(#paint2_linear_586_3505)"/>
<path d="M39.9953 22.4978C38.8499 22.4978 37.7046 22.4892 36.5577 22.5032C36.303 22.5032 36.2358 22.4392 36.2373 22.1845C36.2428 21.2469 36.2326 21.2469 37.1819 21.2469H39.9945L39.9953 22.4978Z" fill="url(#paint3_linear_586_3505)"/>
<path d="M39.9953 24.9971C38.8499 24.9971 37.7046 24.9885 36.5577 25.0026C36.303 25.0026 36.2358 24.9385 36.2373 24.683C36.2428 23.7455 36.2326 23.7455 37.1819 23.7455H39.9945L39.9953 24.9971Z" fill="url(#paint4_linear_586_3505)"/>
<path d="M39.9953 27.4964C38.8499 27.4964 37.7046 27.4878 36.5577 27.501C36.303 27.501 36.2358 27.4378 36.2373 27.1823C36.2428 26.2448 36.2326 26.2448 37.1819 26.2448H39.9945L39.9953 27.4964Z" fill="url(#paint5_linear_586_3505)"/>
<path d="M39.9953 29.995C38.8499 29.995 37.7046 29.9864 36.5577 30.0004C36.303 30.0004 36.2358 29.9364 36.2373 29.6817C36.2428 28.7441 36.2326 28.7441 37.1819 28.7441H39.9945L39.9953 29.995Z" fill="url(#paint6_linear_586_3505)"/>
<path d="M39.9953 32.4943C38.8499 32.4943 37.7046 32.4857 36.5577 32.4998C36.303 32.4998 36.2358 32.4357 36.2373 32.1802C36.2428 31.2427 36.2326 31.2427 37.1819 31.2427H39.9945L39.9953 32.4943Z" fill="url(#paint7_linear_586_3505)"/>
<path d="M39.9953 34.9936C38.8499 34.9936 37.7046 34.985 36.5577 34.999C36.303 34.999 36.2358 34.935 36.2373 34.6795C36.2428 33.7419 36.2326 33.7419 37.1819 33.7419H39.9945L39.9953 34.9936Z" fill="url(#paint8_linear_586_3505)"/>
<path d="M39.9953 37.492C38.8499 37.492 37.7046 37.4834 36.5577 37.4975C36.303 37.4975 36.2358 37.4334 36.2373 37.1787C36.2428 36.2412 36.2326 36.2412 37.1819 36.2412H39.9945L39.9953 37.492Z" fill="url(#paint9_linear_586_3505)"/>
<path d="M17.8327 15.0005C17.3554 15.0005 16.9397 14.9873 16.5249 15.006C16.2975 15.0162 16.2514 14.9373 16.2491 14.7232C16.2389 13.7513 16.2319 13.7513 17.1975 13.7513C18.0304 13.7513 18.8632 13.7575 19.6976 13.7466C19.9133 13.7466 20.0164 13.7646 20.0102 14.031C19.9922 15.0974 19.9953 16.1654 20.0102 17.2342C20.0102 17.4647 19.932 17.5045 19.7242 17.5069C18.7554 17.5163 18.7554 17.5225 18.7554 16.5561V15.9107C18.6156 16.0404 18.5148 16.1279 18.421 16.2232C16.8178 17.8228 15.217 19.4244 13.6185 21.0281C13.5507 21.1035 13.4669 21.1628 13.3732 21.2018C13.2795 21.2407 13.1784 21.2582 13.0771 21.2531C11.8411 21.243 10.6043 21.257 9.36834 21.2414C9.24738 21.2373 9.12688 21.2584 9.01456 21.3035C8.90223 21.3485 8.80053 21.4165 8.71597 21.5031C6.26275 23.7767 3.80093 26.04 1.35318 28.319C1.1188 28.5347 1.01176 28.5534 0.794565 28.305C0.230481 27.6503 0.215636 27.6604 0.838317 27.0854C3.32279 24.7889 5.807 22.492 8.29095 20.1945C8.35875 20.1273 8.43968 20.0749 8.52868 20.0405C8.61768 20.0061 8.71282 19.9904 8.80816 19.9945C10.0699 20.0031 11.3325 19.9945 12.595 20.0023C12.6775 20.0085 12.7603 19.9965 12.8375 19.9671C12.9148 19.9376 12.9845 19.8915 13.0419 19.832C14.6045 18.2632 16.167 16.6975 17.7296 15.1349C17.7662 15.0919 17.8007 15.047 17.8327 15.0005Z" fill="url(#paint10_linear_586_3505)"/>
<path d="M33.1982 7.62059C33.3591 7.77685 33.413 7.8792 33.2115 8.04561C32.9724 8.24406 32.7716 8.6261 32.5302 8.64642C32.2763 8.66907 32.0778 8.2675 31.8552 8.05108C31.6723 7.87295 31.5106 7.67216 31.3403 7.48153L31.2489 7.52606V7.89482C31.2489 9.53551 31.2426 11.1762 31.2551 12.8169C31.2551 13.0739 31.1864 13.1372 30.934 13.1357C29.9965 13.1302 29.9965 13.1396 29.9965 12.1887V7.42293C29.5785 7.85263 29.2308 8.20421 28.8949 8.55891C28.7707 8.69173 28.6964 8.69564 28.5542 8.5636C27.8058 7.86904 27.8011 7.87451 28.5261 7.14948C29.1613 6.5143 29.8019 5.88537 30.427 5.24081C30.5832 5.07753 30.67 5.09003 30.8223 5.2455C31.6077 6.04553 32.3997 6.83723 33.1982 7.62059Z" fill="#FEFEFE"/>
<path d="M30.6207 2.50562C29.2606 2.50562 27.931 2.90906 26.8002 3.66491C25.6693 4.42075 24.7881 5.49503 24.268 6.75182C23.7479 8.00861 23.6122 9.39144 23.8782 10.7253C24.1442 12.0593 24.7999 13.2843 25.7622 14.2455C26.7246 15.2067 27.9505 15.8608 29.2847 16.1251C30.619 16.3894 32.0016 16.252 33.2578 15.7303C34.5139 15.2086 35.5871 14.3261 36.3415 13.1943C37.0959 12.0626 37.4977 10.7325 37.496 9.37229C37.4956 8.46994 37.3174 7.57651 36.9717 6.74303C36.6259 5.90955 36.1193 5.15236 35.4809 4.5147C34.8424 3.87704 34.0846 3.3714 33.2507 3.02668C32.4168 2.68196 31.5231 2.5049 30.6207 2.50562ZM30.6262 14.9991C29.5122 15 28.423 14.6701 27.4967 14.0512C26.5704 13.4324 25.8487 12.5524 25.4231 11.5229C24.9975 10.4933 24.8872 9.36064 25.1061 8.26834C25.325 7.17604 25.8634 6.17334 26.6529 5.38737C27.4423 4.60139 28.4474 4.06753 29.5407 3.85347C30.634 3.6394 31.7662 3.75477 32.7938 4.18495C33.8214 4.61512 34.6981 5.34074 35.3129 6.2698C35.9276 7.19886 36.2526 8.28953 36.2468 9.40354C36.2367 10.8888 35.6405 12.3099 34.5879 13.3579C33.5353 14.4058 32.1115 14.9956 30.6262 14.9991Z" fill="#FEFEFE"/>
<path d="M33.1982 7.62059C33.3591 7.77685 33.413 7.8792 33.2115 8.04561C32.9724 8.24406 32.7716 8.6261 32.5302 8.64642C32.2763 8.66907 32.0778 8.2675 31.8552 8.05108C31.6723 7.87295 31.5106 7.67216 31.3403 7.48153L31.2489 7.52606V7.89482C31.2489 9.53551 31.2426 11.1762 31.2551 12.8169C31.2551 13.0739 31.1864 13.1372 30.934 13.1357C29.9965 13.1302 29.9965 13.1396 29.9965 12.1887V7.42293C29.5785 7.85263 29.2308 8.20421 28.8949 8.55891C28.7707 8.69173 28.6964 8.69564 28.5542 8.5636C27.8058 7.86904 27.8011 7.87451 28.5261 7.14948C29.1613 6.5143 29.8019 5.88537 30.427 5.24081C30.5832 5.07753 30.67 5.09003 30.8223 5.2455C31.6077 6.04553 32.3997 6.83723 33.1982 7.62059Z" fill="url(#paint11_linear_586_3505)"/>
<path d="M30.6207 2.50562C29.2606 2.50562 27.931 2.90906 26.8002 3.66491C25.6693 4.42075 24.7881 5.49503 24.268 6.75182C23.7479 8.00861 23.6122 9.39144 23.8782 10.7253C24.1442 12.0593 24.7999 13.2843 25.7622 14.2455C26.7246 15.2067 27.9505 15.8608 29.2847 16.1251C30.619 16.3894 32.0016 16.252 33.2578 15.7303C34.5139 15.2086 35.5871 14.3261 36.3415 13.1943C37.0959 12.0626 37.4977 10.7325 37.496 9.37229C37.4956 8.46994 37.3174 7.57651 36.9717 6.74303C36.6259 5.90955 36.1193 5.15236 35.4809 4.5147C34.8424 3.87704 34.0846 3.3714 33.2507 3.02668C32.4168 2.68196 31.5231 2.5049 30.6207 2.50562ZM30.6262 14.9991C29.5122 15 28.423 14.6701 27.4967 14.0512C26.5704 13.4324 25.8487 12.5524 25.4231 11.5229C24.9975 10.4933 24.8872 9.36064 25.1061 8.26834C25.325 7.17604 25.8634 6.17334 26.6529 5.38737C27.4423 4.60139 28.4474 4.06753 29.5407 3.85347C30.634 3.6394 31.7662 3.75477 32.7938 4.18495C33.8214 4.61512 34.6981 5.34074 35.3129 6.2698C35.9276 7.19886 36.2526 8.28953 36.2468 9.40354C36.2367 10.8888 35.6405 12.3099 34.5879 13.3579C33.5353 14.4058 32.1115 14.9956 30.6262 14.9991Z" fill="url(#paint12_linear_586_3505)"/>
<path d="M33.2115 8.04561C32.9724 8.24406 32.7716 8.6261 32.5302 8.64642C32.2763 8.66907 32.0778 8.2675 31.8552 8.05108C31.6723 7.87295 31.5106 7.67216 31.3403 7.48153L31.2489 7.52606V7.89482C31.2489 9.53551 31.2426 11.1762 31.2551 12.8169C31.2551 13.0739 31.1864 13.1372 30.934 13.1357C29.9965 13.1302 29.9965 13.1396 29.9965 12.1887V7.42293C29.5785 7.85263 29.2308 8.20421 28.8949 8.55891C28.7707 8.69173 28.6964 8.69564 28.5542 8.5636C27.8058 7.86904 27.8011 7.87451 28.5261 7.14948C29.1613 6.5143 29.8019 5.88537 30.427 5.24081C30.5832 5.07753 30.67 5.09003 30.8223 5.2455C31.6036 6.04501 32.3948 6.83645 33.1958 7.61981C33.3607 7.77919 33.413 7.8792 33.2115 8.04561Z" fill="#FEFEFE"/>
<path d="M33.2115 8.04561C32.9724 8.24406 32.7716 8.6261 32.5302 8.64642C32.2763 8.66907 32.0778 8.2675 31.8552 8.05108C31.6723 7.87295 31.5106 7.67216 31.3403 7.48153L31.2489 7.52606V7.89482C31.2489 9.53551 31.2426 11.1762 31.2551 12.8169C31.2551 13.0739 31.1864 13.1372 30.934 13.1357C29.9965 13.1302 29.9965 13.1396 29.9965 12.1887V7.42293C29.5785 7.85263 29.2308 8.20421 28.8949 8.55891C28.7707 8.69173 28.6964 8.69564 28.5542 8.5636C27.8058 7.86904 27.8011 7.87451 28.5261 7.14948C29.1613 6.5143 29.8019 5.88537 30.427 5.24081C30.5832 5.07753 30.67 5.09003 30.8223 5.2455C31.6036 6.04501 32.3948 6.83645 33.1958 7.61981C33.3607 7.77919 33.413 7.8792 33.2115 8.04561Z" fill="url(#paint13_linear_586_3505)"/>
</g>
<defs>
<linearGradient id="paint0_linear_586_3505" x1="27.9589" y1="8.35533" x2="34.2012" y2="9.60773" gradientUnits="userSpaceOnUse">
<stop stop-color="#70499B"/>
<stop offset="0.57" stop-color="#A62D82"/>
<stop offset="1" stop-color="#CB1A71"/>
</linearGradient>
<linearGradient id="paint1_linear_586_3505" x1="23.672" y1="8.05205" x2="38.9691" y2="12.6446" gradientUnits="userSpaceOnUse">
<stop stop-color="#70499B"/>
<stop offset="0.57" stop-color="#A62D82"/>
<stop offset="1" stop-color="#CB1A71"/>
</linearGradient>
<linearGradient id="paint2_linear_586_3505" x1="-0.224462" y1="16.1352" x2="44.2844" y2="29.5046" gradientUnits="userSpaceOnUse">
<stop stop-color="#70499B"/>
<stop offset="0.57" stop-color="#A62D82"/>
<stop offset="1" stop-color="#CB1A71"/>
</linearGradient>
<linearGradient id="paint3_linear_586_3505" x1="36.2172" y1="21.7537" x2="38.74" y2="24.0193" gradientUnits="userSpaceOnUse">
<stop stop-color="#70499B"/>
<stop offset="0.57" stop-color="#A62D82"/>
<stop offset="1" stop-color="#CB1A71"/>
</linearGradient>
<linearGradient id="paint4_linear_586_3505" x1="36.2172" y1="24.2525" x2="38.7414" y2="26.518" gradientUnits="userSpaceOnUse">
<stop stop-color="#70499B"/>
<stop offset="0.57" stop-color="#A62D82"/>
<stop offset="1" stop-color="#CB1A71"/>
</linearGradient>
<linearGradient id="paint5_linear_586_3505" x1="36.2172" y1="26.7515" x2="38.74" y2="29.0171" gradientUnits="userSpaceOnUse">
<stop stop-color="#70499B"/>
<stop offset="0.57" stop-color="#A62D82"/>
<stop offset="1" stop-color="#CB1A71"/>
</linearGradient>
<linearGradient id="paint6_linear_586_3505" x1="36.2172" y1="29.2509" x2="38.74" y2="31.5165" gradientUnits="userSpaceOnUse">
<stop stop-color="#70499B"/>
<stop offset="0.57" stop-color="#A62D82"/>
<stop offset="1" stop-color="#CB1A71"/>
</linearGradient>
<linearGradient id="paint7_linear_586_3505" x1="36.2172" y1="31.7497" x2="38.7414" y2="34.0152" gradientUnits="userSpaceOnUse">
<stop stop-color="#70499B"/>
<stop offset="0.57" stop-color="#A62D82"/>
<stop offset="1" stop-color="#CB1A71"/>
</linearGradient>
<linearGradient id="paint8_linear_586_3505" x1="36.2172" y1="34.249" x2="38.7414" y2="36.5145" gradientUnits="userSpaceOnUse">
<stop stop-color="#70499B"/>
<stop offset="0.57" stop-color="#A62D82"/>
<stop offset="1" stop-color="#CB1A71"/>
</linearGradient>
<linearGradient id="paint9_linear_586_3505" x1="36.2172" y1="36.748" x2="38.74" y2="39.0136" gradientUnits="userSpaceOnUse">
<stop stop-color="#70499B"/>
<stop offset="0.57" stop-color="#A62D82"/>
<stop offset="1" stop-color="#CB1A71"/>
</linearGradient>
<linearGradient id="paint10_linear_586_3505" x1="0.266378" y1="19.6919" x2="20.7982" y2="27.9051" gradientUnits="userSpaceOnUse">
<stop stop-color="#70499B"/>
<stop offset="0.57" stop-color="#A62D82"/>
<stop offset="1" stop-color="#CB1A71"/>
</linearGradient>
<linearGradient id="paint11_linear_586_3505" x1="27.9589" y1="8.35533" x2="34.2012" y2="9.60773" gradientUnits="userSpaceOnUse">
<stop stop-color="#70499B"/>
<stop offset="0.57" stop-color="#A62D82"/>
<stop offset="1" stop-color="#CB1A71"/>
</linearGradient>
<linearGradient id="paint12_linear_586_3505" x1="23.672" y1="8.05205" x2="38.9691" y2="12.6446" gradientUnits="userSpaceOnUse">
<stop stop-color="#70499B"/>
<stop offset="0.57" stop-color="#A62D82"/>
<stop offset="1" stop-color="#CB1A71"/>
</linearGradient>
<linearGradient id="paint13_linear_586_3505" x1="27.9589" y1="8.35533" x2="34.2015" y2="9.60787" gradientUnits="userSpaceOnUse">
<stop stop-color="#70499B"/>
<stop offset="0.57" stop-color="#A62D82"/>
<stop offset="1" stop-color="#CB1A71"/>
</linearGradient>
<clipPath id="clip0_586_3505">
<rect width="40.0016" height="40" fill="white"/>
</clipPath>
</defs>
</svg>
