<svg width="33" height="32" viewBox="0 0 33 32" fill="none" xmlns="http://www.w3.org/2000/svg">
<g clip-path="url(#clip0_1740_210)">
<path d="M18.5643 24.9592C18.5643 24.65 18.4541 24.2672 18.5963 24.0513C18.7357 23.839 19.1275 23.7822 19.418 23.6835C19.6276 23.6125 19.7395 23.5006 19.7911 23.2776C19.8941 22.8343 20.078 22.4168 20.3134 22.0277C20.404 21.8776 20.4093 21.7586 20.3409 21.5995C20.2068 21.2886 19.9021 20.9688 19.9909 20.6677C20.0736 20.387 20.4236 20.1836 20.6581 19.9482C21.2612 19.3432 21.2648 19.3352 22.0456 19.6932C22.2961 19.8087 22.4942 19.8194 22.7412 19.663C23.1054 19.4329 23.5167 19.2846 23.936 19.1815C24.0977 19.1416 24.1758 19.0643 24.2309 18.9115C24.3428 18.6015 24.397 18.1937 24.6235 18.0223C24.8687 17.8357 25.2853 17.9708 25.6273 17.9681C26.4935 17.9619 26.5014 17.9628 26.8035 18.7925C26.887 19.0216 26.9971 19.1576 27.2459 19.2153C27.6891 19.3183 28.1058 19.5049 28.494 19.7412C28.6343 19.8265 28.7471 19.8238 28.891 19.7616C29.2028 19.6266 29.5244 19.3254 29.8247 19.4054C30.1045 19.48 30.3115 19.8327 30.5469 20.0663C31.1607 20.6766 31.1669 20.681 30.7983 21.4805C30.6925 21.7097 30.673 21.8936 30.8169 22.1183C31.0505 22.4825 31.2007 22.8912 31.3064 23.3105C31.3526 23.4917 31.4245 23.6143 31.6128 23.6507C31.6235 23.6525 31.6324 23.6613 31.6422 23.6658C31.9335 23.7937 32.3537 23.8008 32.4932 24.0495C32.6318 24.2956 32.5447 24.6749 32.5349 24.9956C32.5252 25.3012 32.6655 25.6761 32.4727 25.8937C32.2969 26.0927 31.9424 26.1389 31.6608 26.2366C31.4698 26.3032 31.3517 26.3983 31.3002 26.6141C31.1927 27.0672 31.0097 27.4971 30.7645 27.8942C30.6712 28.0461 30.6757 28.1687 30.7476 28.3224C30.8871 28.6217 31.1474 28.9566 31.0958 29.2267C31.0443 29.4994 30.6819 29.7188 30.4429 29.948C30.2297 30.1532 30.0627 30.4979 29.79 30.5236C29.5395 30.5467 29.257 30.3433 29.0056 30.2065C28.7871 30.0875 28.613 30.0883 28.3971 30.2243C28.0223 30.4614 27.6021 30.6125 27.1739 30.727C27.0087 30.7706 26.9083 30.8354 26.8497 31.0078C26.744 31.3204 26.6844 31.7255 26.4579 31.8987C26.2136 32.0862 25.797 31.9503 25.455 31.9529C24.5907 31.96 24.5773 31.96 24.2922 31.1579C24.1963 30.8878 24.063 30.7466 23.7787 30.6826C23.3683 30.5902 22.9819 30.4135 22.6239 30.1905C22.4614 30.0892 22.3317 30.091 22.1647 30.1683C21.8662 30.3051 21.5499 30.5885 21.2621 30.5156C20.993 30.4481 20.7913 30.1034 20.5657 29.876C20.356 29.6646 20.0291 29.4701 19.9821 29.224C19.9359 28.9797 20.1526 28.6697 20.2939 28.4103C20.4147 28.1873 20.3996 28.0132 20.2681 27.8027C20.0327 27.426 19.8772 27.0085 19.7671 26.5795C19.7227 26.4054 19.648 26.3023 19.4766 26.265C19.4553 26.2606 19.4366 26.2464 19.4162 26.2384C19.1319 26.1211 18.7349 26.0776 18.5936 25.8653C18.4524 25.6521 18.5634 25.2683 18.5643 24.9592Z" fill="white"/>
<path d="M13.7187 21.5702C13.7187 19.5413 13.7187 17.5115 13.7187 15.4826C13.7187 14.9718 13.7826 14.9087 14.2916 14.9087C15.0565 14.9087 15.8222 14.9069 16.587 14.9096C16.9575 14.9105 17.0641 15.0118 17.0641 15.3822C17.0659 19.496 17.0659 23.6098 17.0641 27.7236C17.0641 28.0754 16.9584 28.1749 16.6048 28.1767C15.8178 28.1802 15.0298 28.1785 14.2428 28.1776C13.7915 28.1767 13.7187 28.1065 13.7187 27.6588C13.7178 25.629 13.7187 23.6001 13.7187 21.5702Z" fill="white"/>
<path d="M21.4745 6.04148C21.1973 6.0548 20.9202 6.07523 20.643 6.07879C20.3108 6.08323 20.094 5.89579 20.0709 5.60265C20.046 5.28551 20.229 5.05633 20.5799 5.03146C21.4647 4.96927 22.3512 4.91775 23.2378 4.88222C23.602 4.868 23.8365 5.15671 23.7859 5.51914C23.666 6.3746 23.5389 7.23005 23.4092 8.08462C23.3559 8.43461 23.0974 8.63271 22.7856 8.57941C22.4925 8.52966 22.313 8.2685 22.3557 7.93271C22.4001 7.58183 22.4578 7.2336 22.5191 6.81787C21.9906 7.26292 21.5144 7.67066 21.0321 8.06951C16.0442 12.1993 10.509 15.4035 4.51641 17.8357C3.44065 18.2728 2.35335 18.6805 1.25805 19.0652C0.898278 19.1913 0.64866 19.1247 0.501198 18.8706C0.312874 18.5473 0.475437 18.2124 0.911603 18.0605C2.2281 17.603 3.5286 17.1037 4.81311 16.5654C10.9265 14.0026 16.5318 10.6154 21.5331 6.24934C21.5828 6.20582 21.6353 6.16407 21.6859 6.12143C21.6708 5.95176 21.5615 6.02549 21.4745 6.04148Z" fill="white"/>
<path d="M10.8573 23.3176C10.8573 24.7593 10.8582 26.2011 10.8564 27.6419C10.8564 28.1118 10.7889 28.1767 10.3146 28.1776C9.53816 28.1785 8.76177 28.1794 7.98537 28.1767C7.60961 28.1758 7.51012 28.0799 7.51012 27.7059C7.50834 24.7673 7.50834 21.8287 7.51012 18.8902C7.51012 18.5189 7.61139 18.4229 7.98804 18.422C8.77509 18.4194 9.56303 18.4203 10.3501 18.422C10.7774 18.4229 10.8547 18.4984 10.8555 18.9266C10.8582 20.3906 10.8573 21.8536 10.8573 23.3176Z" fill="white"/>
<path d="M29.4703 13.5824C29.4703 15.0579 29.4703 16.5343 29.4703 18.0098C29.4703 18.3705 28.9284 18.7222 28.59 18.581C28.3759 18.4913 28.1662 18.3873 27.9459 18.3163C27.7923 18.2665 27.7088 18.1866 27.6572 18.0338C27.5631 17.7513 27.4298 17.4804 27.3428 17.1961C27.2735 16.9731 27.1678 16.863 26.9208 16.8976C26.7574 16.9207 26.5868 16.887 26.4225 16.9056C26.1924 16.9323 26.1222 16.8577 26.1267 16.6196C26.1418 15.765 26.1329 14.9105 26.1329 14.0568C26.1329 12.4143 26.1329 10.7718 26.1329 9.13015C26.1329 8.67355 26.2128 8.59716 26.6801 8.59627C27.4458 8.59538 28.2116 8.5936 28.9773 8.59716C29.3655 8.59893 29.4694 8.70287 29.4694 9.09018C29.4703 10.5861 29.4703 12.0847 29.4703 13.5824Z" fill="white"/>
<path d="M19.9419 19.1869C19.9339 19.0199 19.9286 18.9559 19.9286 18.8928C19.9286 16.6756 19.9277 14.4575 19.9286 12.2402C19.9286 11.8334 19.9961 11.7641 20.387 11.7623C21.1963 11.7596 22.0055 11.7587 22.8157 11.7623C23.1674 11.7641 23.2678 11.8636 23.2687 12.2189C23.2714 14.159 23.2678 16.1 23.274 18.0401C23.2749 18.2133 23.2012 18.2719 23.0617 18.3545C22.5563 18.6521 22.0961 18.6112 21.5871 18.3288C21.0488 18.0303 21.0266 18.0658 20.5806 18.5162C20.3852 18.7134 20.1987 18.9168 19.9419 19.1869Z" fill="white"/>
<path d="M4.64677 24.9645C4.64677 25.8741 4.64855 26.7838 4.64589 27.6943C4.645 28.11 4.57749 28.1767 4.1582 28.1775C3.3596 28.1793 2.56011 28.1802 1.76151 28.1767C1.40884 28.1749 1.30757 28.0745 1.30669 27.7201C1.30402 25.8892 1.30402 24.0584 1.30669 22.2276C1.30757 21.8856 1.42306 21.7719 1.76772 21.771C2.57787 21.7674 3.38802 21.7674 4.19817 21.771C4.54906 21.7728 4.64411 21.8714 4.645 22.2338C4.64855 23.1443 4.64677 24.0548 4.64677 24.9645Z" fill="white"/>
<path d="M25.8112 5.7812C25.9817 5.14605 26.1247 4.56598 26.2971 3.99479C26.3557 3.79936 26.3148 3.6892 26.1629 3.57194C25.717 3.2255 25.2782 2.86928 24.8393 2.51307C24.7585 2.44733 24.6306 2.39048 24.6883 2.25101C24.7336 2.13997 24.8518 2.15152 24.9486 2.14708C25.502 2.11776 26.0555 2.08045 26.6098 2.06979C26.8301 2.06535 26.9447 2.0005 27.0193 1.78287C27.1978 1.26053 27.4066 0.74886 27.6056 0.232745C27.6438 0.133253 27.658 -0.00177163 27.8028 0.000893336C27.9476 0.0035583 27.9574 0.14569 27.9956 0.241628C28.2008 0.766626 28.4051 1.29162 28.5934 1.82195C28.6547 1.99606 28.7426 2.0618 28.9274 2.06713C29.4924 2.08223 30.0573 2.11599 30.6214 2.1453C30.7298 2.15063 30.8622 2.13464 30.9092 2.26167C30.9608 2.39847 30.8293 2.45444 30.7493 2.52017C30.3283 2.86306 29.9108 3.2104 29.4773 3.53641C29.2898 3.67766 29.2356 3.80735 29.3094 4.0392C29.4666 4.534 29.5954 5.03768 29.7207 5.54224C29.75 5.65861 29.8672 5.80252 29.7251 5.9109C29.5839 6.01838 29.4799 5.87625 29.3751 5.80874C28.9372 5.52803 28.4948 5.25354 28.0719 4.95151C27.8641 4.80316 27.7157 4.81826 27.515 4.9595C27.0628 5.27752 26.592 5.56889 26.1283 5.87181C26.0537 5.92067 25.9817 5.97485 25.8849 5.92422C25.7943 5.87625 25.8085 5.79897 25.8112 5.7812Z" fill="white"/>
<path d="M21.4746 6.0415C21.5697 5.99442 21.67 5.93224 21.7589 6.04062C21.782 6.06904 21.7402 6.11879 21.6878 6.12234C21.6514 6.00419 21.5377 6.08858 21.4746 6.0415Z" fill="#646464"/>
<path d="M25.5579 28.2593C23.7449 28.2753 22.2543 26.8015 22.2365 24.9751C22.2187 23.1701 23.704 21.6697 25.5242 21.6519C27.3301 21.6351 28.8261 23.1159 28.8465 24.9414C28.8678 26.7465 27.3843 28.2424 25.5579 28.2593Z" fill="#FDC688"/>
</g>
<defs>
<clipPath id="clip0_1740_210">
<rect width="32.1501" height="32" fill="white" transform="translate(0.424805)"/>
</clipPath>
</defs>
</svg>
