<svg width="26" height="36" viewBox="0 0 26 36" fill="none" xmlns="http://www.w3.org/2000/svg">
<path d="M21.9999 0H3.9999C3.04512 0 2.12945 0.379284 1.45432 1.05442C0.779187 1.72955 0.399902 2.64522 0.399902 3.6V34.2C0.399902 34.6774 0.589545 35.1352 0.92711 35.4728C1.26468 35.8104 1.72251 36 2.1999 36H23.7999C24.2773 36 24.7351 35.8104 25.0727 35.4728C25.4103 35.1352 25.5999 34.6774 25.5999 34.2V3.6C25.5999 2.64522 25.2206 1.72955 24.5455 1.05442C23.8704 0.379284 22.9547 0 21.9999 0ZM11.1999 25.2H5.7999V21.6H11.1999V25.2ZM11.1999 18H5.7999V14.4H11.1999V18ZM11.1999 10.8H5.7999V7.2H11.1999V10.8ZM20.1999 25.2H14.7999V21.6H20.1999V25.2ZM20.1999 18H14.7999V14.4H20.1999V18ZM20.1999 10.8H14.7999V7.2H20.1999V10.8Z" fill="#EC008C"/>
</svg>
