<svg width="40" height="40" viewBox="0 0 40 40" fill="none" xmlns="http://www.w3.org/2000/svg">
<g clip-path="url(#clip0_1701_335)">
<path d="M32.7217 7.62059C32.877 7.77685 32.9291 7.8792 32.7345 8.04561C32.5037 8.24406 32.3099 8.6261 32.0769 8.64642C31.8318 8.66907 31.6403 8.2675 31.4254 8.05108C31.2489 7.87295 31.0928 7.67216 30.9284 7.48153L30.8402 7.52606V7.89482C30.8402 9.53551 30.8341 11.1762 30.8462 12.8169C30.8462 13.0739 30.7799 13.1372 30.5363 13.1357C29.6314 13.1302 29.6314 13.1396 29.6314 12.1887V7.42293C29.2279 7.85263 28.8923 8.20421 28.5681 8.55891C28.4482 8.69173 28.3765 8.69564 28.2393 8.5636C27.5168 7.86904 27.5123 7.87451 28.2121 7.14948C28.8252 6.5143 29.4436 5.88537 30.0469 5.24081C30.1977 5.07753 30.2814 5.09003 30.4284 5.2455C31.1866 6.04553 31.951 6.83723 32.7217 7.62059Z" fill="#F2F2F2"/>
<path d="M30.2339 2.50562C28.921 2.50562 27.6377 2.90906 26.5462 3.66491C25.4547 4.42075 24.6041 5.49503 24.1021 6.75182C23.6001 8.00861 23.4691 9.39144 23.7259 10.7253C23.9826 12.0593 24.6155 13.2843 25.5444 14.2455C26.4733 15.2067 27.6565 15.8608 28.9443 16.1251C30.2322 16.3894 31.5667 16.252 32.7792 15.7303C33.9916 15.2086 35.0275 14.3261 35.7556 13.1943C36.4838 12.0626 36.8716 10.7325 36.87 9.37229C36.8696 8.46994 36.6976 7.57651 36.3639 6.74303C36.0302 5.90955 35.5412 5.15236 34.9249 4.5147C34.3087 3.87704 33.5772 3.3714 32.7723 3.02668C31.9674 2.68196 31.1048 2.5049 30.2339 2.50562ZM30.2392 14.9991C29.1639 15 28.1126 14.6701 27.2185 14.0512C26.3244 13.4324 25.6278 12.5524 25.217 11.5229C24.8062 10.4933 24.6997 9.36064 24.911 8.26834C25.1224 7.17604 25.642 6.17334 26.404 5.38737C27.166 4.60139 28.1361 4.06753 29.1914 3.85347C30.2466 3.6394 31.3394 3.75477 32.3313 4.18495C33.3232 4.61512 34.1694 5.34074 34.7628 6.2698C35.3561 7.19886 35.6699 8.28953 35.6642 9.40354C35.6545 10.8888 35.079 12.3099 34.063 13.3579C33.047 14.4058 31.6728 14.9956 30.2392 14.9991Z" fill="#F2F2F2"/>
<path d="M39.288 39.835C39.276 39.4709 39.2843 39.1069 39.2843 38.7412C39.1123 38.5912 38.9072 38.6264 38.7066 38.6256C37.1481 38.6256 35.5914 38.6256 34.0364 38.6256C33.3676 38.6256 33.3668 38.6256 33.3668 37.9482V22.0265C33.3668 21.2452 33.4121 21.0991 32.5516 21.1327C32.259 21.1437 32.1519 21.0077 32.158 20.7116C32.1685 20.1788 32.1753 19.6444 32.158 19.1123C32.1459 18.7803 32.2688 18.6389 32.5788 18.5467C35.5349 17.6732 37.6016 15.7622 38.779 12.8137C39.0912 12.0324 39.2126 11.2214 39.2865 10.3917V8.36036C39.2111 7.96972 39.2337 7.56345 39.1357 7.17516C38.2811 3.86045 36.3018 1.60437 33.1979 0.406925C32.5094 0.14129 31.7922 0.0725369 31.0721 0.00378418H29.2584C28.9296 0.166291 28.5639 0.152227 28.2185 0.238168C23.6185 1.34993 20.5267 5.90792 21.3132 10.7855C21.9685 14.8411 24.3409 17.4045 28.1755 18.4936C28.3724 18.5498 28.4402 18.6115 28.435 18.8209C28.4214 19.3678 28.4304 19.9147 28.4304 20.4616C28.4304 21.2429 28.4304 21.2702 27.6809 21.2374C27.3083 21.2202 27.2133 21.3156 27.2141 21.7132C27.2291 27.2705 27.2224 32.8277 27.2306 38.385C27.2306 38.6694 27.1779 38.7631 26.8875 38.7483C26.3349 38.7193 25.7812 38.7193 25.2285 38.7483C24.8907 38.7662 24.8009 38.6701 24.8017 38.3123C24.8137 31.9089 24.8188 25.5056 24.8168 19.1022C24.8168 18.8178 24.7617 18.7365 24.4736 18.7389C22.7392 18.7553 21.0048 18.7475 19.2703 18.7475C18.7771 18.7475 18.7771 18.7475 18.7771 19.2522C18.7771 25.63 18.7794 32.0074 18.7839 38.3842C18.7839 38.6694 18.7304 38.7623 18.44 38.7475C17.876 38.7201 17.3089 38.7194 16.7448 38.7475C16.4341 38.7639 16.3557 38.6803 16.3565 38.3514C16.3685 33.6012 16.3625 28.8502 16.3715 24.1C16.3715 23.8141 16.315 23.7344 16.0277 23.7375C14.2681 23.7531 12.5085 23.7531 10.7489 23.7375C10.4118 23.7375 10.3221 23.8157 10.3229 24.1743C10.3364 28.9112 10.3289 33.6488 10.3387 38.3865C10.3387 38.6733 10.2821 38.7615 9.99406 38.7483C9.41717 38.7217 8.83802 38.7233 8.25962 38.7483C7.97985 38.76 7.90972 38.685 7.91122 38.3904C7.92329 35.7091 7.91122 33.0277 7.92555 30.3432C7.92555 30.0534 7.86371 29.98 7.57942 29.9823C5.79571 29.9969 4.01099 29.9969 2.22527 29.9823C1.9455 29.9823 1.87612 30.0479 1.87763 30.3409C1.8912 32.7228 1.89271 35.1046 1.88215 37.4865C1.88215 37.8967 2.05409 38.4475 1.80674 38.6779C1.58956 38.8803 1.06696 38.7311 0.679352 38.7365C0.679352 39.0358 0.701221 39.3373 0.672565 39.6342C0.643909 39.9311 0.73591 39.9936 1.0187 39.9936C13.6565 39.9853 26.2946 39.9827 38.9329 39.9858C38.9953 39.9799 39.0582 39.9799 39.1206 39.9858C39.2624 40.0186 39.288 39.9717 39.288 39.835ZM6.41659 38.7483C5.41212 38.7342 4.4069 38.7326 3.40016 38.7483C3.14829 38.7522 3.09852 38.674 3.09852 38.4256C3.10757 36.1338 3.10757 33.8434 3.09852 31.5542C3.09852 31.2941 3.16865 31.2347 3.40921 31.2378C4.41368 31.2519 5.41891 31.2534 6.42564 31.2378C6.67751 31.2339 6.73331 31.312 6.73105 31.5605C6.71747 32.6926 6.72502 33.8262 6.72502 34.9575C6.72502 36.1153 6.71672 37.274 6.7318 38.4318C6.72879 38.692 6.65564 38.7514 6.41432 38.7483H6.41659ZM15.1687 38.4287C15.1687 38.6811 15.1099 38.7522 14.8618 38.7483C13.8563 38.7337 12.8509 38.7337 11.8454 38.7483C11.5996 38.7483 11.5362 38.6842 11.537 38.4295C11.5475 36.2419 11.543 34.0543 11.543 31.8667C11.543 29.6932 11.549 27.5205 11.5362 25.347C11.5362 25.0563 11.598 24.9805 11.8823 24.986C12.874 25.0063 13.8671 25.0032 14.8588 24.986C15.1046 24.9821 15.1672 25.0501 15.1672 25.3048C15.1602 29.681 15.1599 34.0556 15.1665 38.4287H15.1687ZM23.2377 38.7514C22.2965 38.724 21.3524 38.7272 20.412 38.7514C20.0855 38.7592 19.9792 38.6904 19.9807 38.3209C19.9943 33.2717 19.9973 28.2221 19.9897 23.1719C19.9897 22.2218 19.9973 21.2718 19.9844 20.3218C19.9844 20.0819 20.0229 19.9889 20.2861 19.9936C21.2913 20.0116 22.2965 20.0132 23.3025 19.9936C23.5853 19.9882 23.6177 20.0921 23.617 20.346C23.6089 23.3669 23.6072 26.3863 23.6117 29.4042C23.6117 32.3847 23.6072 35.3653 23.6185 38.3451C23.6117 38.6498 23.5619 38.7615 23.2331 38.7514H23.2377ZM25.7896 16.0505C23.1698 14.1692 21.881 10.7972 22.571 7.64236C23.292 4.34927 25.8137 1.88355 29.0081 1.34915C33.3706 0.618652 37.5151 3.86644 38.0076 8.40099C38.4947 12.8848 35.5266 16.8388 31.2259 17.424C30.9243 17.4646 30.8164 17.5584 30.8262 17.8982C30.8549 18.8998 30.8225 19.9022 30.8451 20.9038C30.8519 21.2116 30.7568 21.2601 30.4899 21.2554C29.631 21.2405 29.6302 21.2515 29.6302 20.3811V19.3655C29.6302 18.8842 29.6083 18.4006 29.6378 17.9217C29.6589 17.5826 29.5623 17.4592 29.2268 17.4185C27.9891 17.2655 26.8078 16.7953 25.7896 16.0505ZM32.0486 38.4295C32.0486 38.6834 31.9875 38.7522 31.741 38.7483C30.7355 38.7337 29.73 38.7337 28.7245 38.7483C28.4772 38.7483 28.4161 38.6819 28.4169 38.4287C28.4267 35.8122 28.4229 33.1941 28.4229 30.5808C28.4229 28.0025 28.4282 25.4243 28.4153 22.8461C28.4153 22.5547 28.481 22.4804 28.763 22.4867C29.7546 22.5062 30.7478 22.5031 31.7394 22.4867C31.9868 22.4867 32.0471 22.5539 32.0464 22.807C32.0418 28.0161 32.0426 33.2236 32.0486 38.4295Z" fill="#F2F2F2"/>
<path d="M39.2824 22.4985C38.1769 22.4985 37.0714 22.4899 35.9643 22.504C35.7185 22.504 35.6536 22.4399 35.6551 22.185C35.6604 21.2469 35.6506 21.2469 36.5669 21.2469H39.2816L39.2824 22.4985Z" fill="#F2F2F2"/>
<path d="M39.2824 24.9978C38.1769 24.9978 37.0714 24.9892 35.9643 25.0033C35.7185 25.0033 35.6536 24.9392 35.6551 24.6836C35.6604 23.7455 35.6506 23.7455 36.5669 23.7455H39.2816L39.2824 24.9978Z" fill="#F2F2F2"/>
<path d="M39.2824 27.4971C38.1769 27.4971 37.0714 27.4885 35.9643 27.5018C35.7185 27.5018 35.6536 27.4385 35.6551 27.1828C35.6604 26.2448 35.6506 26.2448 36.5669 26.2448H39.2816L39.2824 27.4971Z" fill="#F2F2F2"/>
<path d="M39.2824 29.9957C38.1769 29.9957 37.0714 29.9871 35.9643 30.0012C35.7185 30.0012 35.6536 29.9371 35.6551 29.6822C35.6604 28.7441 35.6506 28.7441 36.5669 28.7441H39.2816L39.2824 29.9957Z" fill="#F2F2F2"/>
<path d="M39.2824 32.495C38.1769 32.495 37.0714 32.4864 35.9643 32.5005C35.7185 32.5005 35.6536 32.4364 35.6551 32.1808C35.6604 31.2427 35.6506 31.2427 36.5669 31.2427H39.2816L39.2824 32.495Z" fill="#F2F2F2"/>
<path d="M39.2823 34.9945C38.1768 34.9945 37.0713 34.9859 35.9642 35C35.7184 35 35.6535 34.9359 35.6551 34.6803C35.6603 33.7422 35.6505 33.7422 36.5668 33.7422H39.2815L39.2823 34.9945Z" fill="#F2F2F2"/>
<path d="M39.2824 37.4928C38.1769 37.4928 37.0714 37.4842 35.9643 37.4982C35.7185 37.4982 35.6536 37.4341 35.6551 37.1793C35.6604 36.2412 35.6506 36.2412 36.5669 36.2412H39.2816L39.2824 37.4928Z" fill="#F2F2F2"/>
<path d="M17.8907 15.0005C17.4299 15.0005 17.0287 14.9873 16.6283 15.006C16.4089 15.0162 16.3644 14.9373 16.3621 14.7232C16.3523 13.7513 16.3455 13.7513 17.2776 13.7513C18.0815 13.7513 18.8854 13.7575 19.6907 13.7466C19.8989 13.7466 19.9984 13.7646 19.9924 14.031C19.975 15.0974 19.9781 16.1654 19.9924 17.2342C19.9924 17.4647 19.917 17.5045 19.7164 17.5069C18.7813 17.5163 18.7813 17.5225 18.7813 16.5561V15.9107C18.6463 16.0404 18.549 16.1279 18.4585 16.2232C16.9111 17.8228 15.3659 19.4244 13.823 21.0281C13.7576 21.1035 13.6767 21.1628 13.5863 21.2018C13.4959 21.2407 13.3982 21.2582 13.3005 21.2531C12.1075 21.243 10.9137 21.257 9.72071 21.2414C9.60396 21.2373 9.48766 21.2584 9.37924 21.3035C9.27081 21.3485 9.17266 21.4165 9.09103 21.5031C6.72314 23.7767 4.34696 26.04 1.98434 28.319C1.75811 28.5347 1.6548 28.5534 1.44516 28.305C0.900694 27.6503 0.886365 27.6604 1.48739 27.0854C3.88544 24.7889 6.28325 22.492 8.6808 20.1945C8.74624 20.1273 8.82436 20.0749 8.91026 20.0405C8.99616 20.0061 9.088 19.9904 9.18002 19.9945C10.3979 20.0031 11.6165 19.9945 12.8352 20.0023C12.9147 20.0085 12.9946 19.9965 13.0692 19.9671C13.1438 19.9376 13.2111 19.8915 13.2665 19.832C14.7747 18.2632 16.2829 16.6975 17.7911 15.1349C17.8265 15.0919 17.8597 15.047 17.8907 15.0005Z" fill="#F2F2F2"/>
<path d="M32.7217 7.62059C32.877 7.77685 32.9291 7.8792 32.7345 8.04561C32.5037 8.24406 32.3099 8.6261 32.0769 8.64642C31.8318 8.66907 31.6403 8.2675 31.4254 8.05108C31.2489 7.87295 31.0928 7.67216 30.9284 7.48153L30.8402 7.52606V7.89482C30.8402 9.53551 30.8341 11.1762 30.8462 12.8169C30.8462 13.0739 30.7799 13.1372 30.5363 13.1357C29.6314 13.1302 29.6314 13.1396 29.6314 12.1887V7.42293C29.2279 7.85263 28.8923 8.20421 28.5681 8.55891C28.4482 8.69173 28.3765 8.69564 28.2393 8.5636C27.5168 7.86904 27.5123 7.87451 28.2121 7.14948C28.8252 6.5143 29.4436 5.88537 30.0469 5.24081C30.1977 5.07753 30.2814 5.09003 30.4284 5.2455C31.1866 6.04553 31.951 6.83723 32.7217 7.62059Z" fill="#FEFEFE"/>
<path d="M30.2339 2.50562C28.921 2.50562 27.6377 2.90906 26.5462 3.66491C25.4547 4.42075 24.6041 5.49503 24.1021 6.75182C23.6001 8.00861 23.4691 9.39144 23.7259 10.7253C23.9826 12.0593 24.6155 13.2843 25.5444 14.2455C26.4733 15.2067 27.6565 15.8608 28.9443 16.1251C30.2322 16.3894 31.5667 16.252 32.7792 15.7303C33.9916 15.2086 35.0275 14.3261 35.7556 13.1943C36.4838 12.0626 36.8716 10.7325 36.87 9.37229C36.8696 8.46994 36.6976 7.57651 36.3639 6.74303C36.0302 5.90955 35.5412 5.15236 34.9249 4.5147C34.3087 3.87704 33.5772 3.3714 32.7723 3.02668C31.9674 2.68196 31.1048 2.5049 30.2339 2.50562ZM30.2392 14.9991C29.1639 15 28.1126 14.6701 27.2185 14.0512C26.3244 13.4324 25.6278 12.5524 25.217 11.5229C24.8062 10.4933 24.6997 9.36064 24.911 8.26834C25.1224 7.17604 25.642 6.17334 26.404 5.38737C27.166 4.60139 28.1361 4.06753 29.1914 3.85347C30.2466 3.6394 31.3394 3.75477 32.3313 4.18495C33.3232 4.61512 34.1694 5.34074 34.7628 6.2698C35.3561 7.19886 35.6699 8.28953 35.6642 9.40354C35.6545 10.8888 35.079 12.3099 34.063 13.3579C33.047 14.4058 31.6728 14.9956 30.2392 14.9991Z" fill="#FEFEFE"/>
<path d="M32.7217 7.62059C32.877 7.77685 32.9291 7.8792 32.7345 8.04561C32.5037 8.24406 32.3099 8.6261 32.0769 8.64642C31.8318 8.66907 31.6403 8.2675 31.4254 8.05108C31.2489 7.87295 31.0928 7.67216 30.9284 7.48153L30.8402 7.52606V7.89482C30.8402 9.53551 30.8341 11.1762 30.8462 12.8169C30.8462 13.0739 30.7799 13.1372 30.5363 13.1357C29.6314 13.1302 29.6314 13.1396 29.6314 12.1887V7.42293C29.2279 7.85263 28.8923 8.20421 28.5681 8.55891C28.4482 8.69173 28.3765 8.69564 28.2393 8.5636C27.5168 7.86904 27.5123 7.87451 28.2121 7.14948C28.8252 6.5143 29.4436 5.88537 30.0469 5.24081C30.1977 5.07753 30.2814 5.09003 30.4284 5.2455C31.1866 6.04553 31.951 6.83723 32.7217 7.62059Z" fill="#F2F2F2"/>
<path d="M30.2339 2.50562C28.921 2.50562 27.6377 2.90906 26.5462 3.66491C25.4547 4.42075 24.6041 5.49503 24.1021 6.75182C23.6001 8.00861 23.4691 9.39144 23.7259 10.7253C23.9826 12.0593 24.6155 13.2843 25.5444 14.2455C26.4733 15.2067 27.6565 15.8608 28.9443 16.1251C30.2322 16.3894 31.5667 16.252 32.7792 15.7303C33.9916 15.2086 35.0275 14.3261 35.7556 13.1943C36.4838 12.0626 36.8716 10.7325 36.87 9.37229C36.8696 8.46994 36.6976 7.57651 36.3639 6.74303C36.0302 5.90955 35.5412 5.15236 34.9249 4.5147C34.3087 3.87704 33.5772 3.3714 32.7723 3.02668C31.9674 2.68196 31.1048 2.5049 30.2339 2.50562ZM30.2392 14.9991C29.1639 15 28.1126 14.6701 27.2185 14.0512C26.3244 13.4324 25.6278 12.5524 25.217 11.5229C24.8062 10.4933 24.6997 9.36064 24.911 8.26834C25.1224 7.17604 25.642 6.17334 26.404 5.38737C27.166 4.60139 28.1361 4.06753 29.1914 3.85347C30.2466 3.6394 31.3394 3.75477 32.3313 4.18495C33.3232 4.61512 34.1694 5.34074 34.7628 6.2698C35.3561 7.19886 35.6699 8.28953 35.6642 9.40354C35.6545 10.8888 35.079 12.3099 34.063 13.3579C33.047 14.4058 31.6728 14.9956 30.2392 14.9991Z" fill="#F2F2F2"/>
<path d="M32.7345 8.04561C32.5037 8.24406 32.3099 8.6261 32.0769 8.64642C31.8318 8.66907 31.6403 8.2675 31.4254 8.05108C31.2489 7.87295 31.0928 7.67216 30.9284 7.48153L30.8402 7.52606V7.89482C30.8402 9.53551 30.8341 11.1762 30.8462 12.8169C30.8462 13.0739 30.7799 13.1372 30.5363 13.1357C29.6314 13.1302 29.6314 13.1396 29.6314 12.1887V7.42293C29.2279 7.85263 28.8923 8.20421 28.5681 8.55891C28.4482 8.69173 28.3765 8.69564 28.2393 8.5636C27.5168 7.86904 27.5123 7.87451 28.2121 7.14948C28.8252 6.5143 29.4436 5.88537 30.0469 5.24081C30.1977 5.07753 30.2814 5.09003 30.4284 5.2455C31.1825 6.04501 31.9462 6.83645 32.7194 7.61981C32.8785 7.77919 32.9291 7.8792 32.7345 8.04561Z" fill="#FEFEFE"/>
<path d="M32.7345 8.04561C32.5037 8.24406 32.3099 8.6261 32.0769 8.64642C31.8318 8.66907 31.6403 8.2675 31.4254 8.05108C31.2489 7.87295 31.0928 7.67216 30.9284 7.48153L30.8402 7.52606V7.89482C30.8402 9.53551 30.8341 11.1762 30.8462 12.8169C30.8462 13.0739 30.7799 13.1372 30.5363 13.1357C29.6314 13.1302 29.6314 13.1396 29.6314 12.1887V7.42293C29.2279 7.85263 28.8923 8.20421 28.5681 8.55891C28.4482 8.69173 28.3765 8.69564 28.2393 8.5636C27.5168 7.86904 27.5123 7.87451 28.2121 7.14948C28.8252 6.5143 29.4436 5.88537 30.0469 5.24081C30.1977 5.07753 30.2814 5.09003 30.4284 5.2455C31.1825 6.04501 31.9462 6.83645 32.7194 7.61981C32.8785 7.77919 32.9291 7.8792 32.7345 8.04561Z" fill="#F2F2F2"/>
</g>
<defs>
<clipPath id="clip0_1701_335">
<rect width="38.6102" height="40" fill="white" transform="translate(0.678223)"/>
</clipPath>
</defs>
</svg>
