<svg width="45" height="40" viewBox="0 0 45 40" fill="none" xmlns="http://www.w3.org/2000/svg">
<g clip-path="url(#clip0_586_3455)">
<path d="M18.8219 13.297C18.1087 13.0726 17.3893 12.8683 16.6698 12.664C16.4595 12.6103 16.2778 12.478 16.1622 12.2943C15.7436 11.655 15.3137 11.0208 14.8675 10.4017C14.1982 9.47419 13.0589 9.48547 12.3983 10.4217C11.9659 11.0334 11.541 11.65 11.1299 12.2767C11.0075 12.4751 10.8122 12.6177 10.586 12.674C9.83395 12.8821 9.08193 13.0964 8.34495 13.3333C8.12297 13.3984 7.91997 13.5161 7.75319 13.6764C7.58642 13.8367 7.46078 14.0349 7.38697 14.2541C7.31315 14.4733 7.29333 14.7072 7.32919 14.9357C7.36504 15.1642 7.45552 15.3807 7.59293 15.5668C7.80718 15.8933 8.04602 16.2029 8.30735 16.4931C9.03932 17.2701 9.49931 18.1224 9.18471 19.1251C9.18471 19.5926 9.18471 19.9523 9.18471 20.3121C9.17343 21.514 10.0821 22.1696 11.2327 21.7785C12.0424 21.5028 12.8508 20.9964 13.6592 20.9977C14.4677 20.9989 15.2723 21.5115 16.082 21.7873C17.19 22.1633 18.1237 21.4965 18.1112 20.3321C18.1037 19.6139 18.0749 18.8945 18.0372 18.1776C18.0255 18.0393 18.0416 17.9 18.0846 17.768C18.1277 17.636 18.1968 17.514 18.2879 17.4093C18.7441 16.8553 19.1753 16.2812 19.604 15.7047C20.3146 14.7371 19.9737 13.6592 18.8219 13.297ZM16.8165 16.8565C16.6177 17.0978 16.5155 17.4041 16.5294 17.7163C16.547 18.5874 16.5294 19.4585 16.5294 20.3484C15.8138 20.0977 15.0492 19.8395 14.2972 19.5525C14.0903 19.4653 13.8681 19.4204 13.6436 19.4204C13.4191 19.4204 13.1968 19.4653 12.9899 19.5525C12.3282 19.8295 11.6388 20.0301 10.9708 20.2807C10.7289 20.3722 10.6787 20.3233 10.6875 20.0802C10.7138 19.3006 10.7138 18.5185 10.7439 17.7389C10.7686 17.4117 10.6652 17.0877 10.4556 16.8352C9.91918 16.1672 9.40906 15.4778 8.8488 14.7446C9.63341 14.5127 10.3792 14.2721 11.1362 14.0753C11.3711 14.0256 11.5933 13.9282 11.7891 13.7891C11.9848 13.6501 12.15 13.4723 12.2743 13.2669C12.6879 12.5926 13.1629 11.9546 13.6417 11.2615C14.1581 12.0135 14.6444 12.7229 15.1307 13.4411C15.3058 13.719 15.5815 13.9184 15.9003 13.9976C16.7375 14.2245 17.5647 14.4889 18.4358 14.7496C17.8768 15.4766 17.3517 16.1722 16.8115 16.8565H16.8165ZM18.8219 13.297C18.1087 13.0726 17.3893 12.8683 16.6698 12.664C16.4595 12.6103 16.2778 12.478 16.1622 12.2943C15.7436 11.655 15.3137 11.0208 14.8675 10.4017C14.1982 9.47419 13.0589 9.48547 12.3983 10.4217C11.9659 11.0334 11.541 11.65 11.1299 12.2767C11.0075 12.4751 10.8122 12.6177 10.586 12.674C9.83395 12.8821 9.08193 13.0964 8.34495 13.3333C8.12297 13.3984 7.91997 13.5161 7.75319 13.6764C7.58642 13.8367 7.46078 14.0349 7.38697 14.2541C7.31315 14.4733 7.29333 14.7072 7.32919 14.9357C7.36504 15.1642 7.45552 15.3807 7.59293 15.5668C7.80718 15.8933 8.04602 16.2029 8.30735 16.4931C9.03932 17.2701 9.49931 18.1224 9.18471 19.1251C9.18471 19.5926 9.18471 19.9523 9.18471 20.3121C9.17343 21.514 10.0821 22.1696 11.2327 21.7785C12.0424 21.5028 12.8508 20.9964 13.6592 20.9977C14.4677 20.9989 15.2723 21.5115 16.082 21.7873C17.19 22.1633 18.1237 21.4965 18.1112 20.3321C18.1037 19.6139 18.0749 18.8945 18.0372 18.1776C18.0255 18.0393 18.0416 17.9 18.0846 17.768C18.1277 17.636 18.1968 17.514 18.2879 17.4093C18.7441 16.8553 19.1753 16.2812 19.604 15.7047C20.3146 14.7371 19.9737 13.6592 18.8219 13.297ZM16.8165 16.8565C16.6177 17.0978 16.5155 17.4041 16.5294 17.7163C16.547 18.5874 16.5294 19.4585 16.5294 20.3484C15.8138 20.0977 15.0492 19.8395 14.2972 19.5525C14.0903 19.4653 13.8681 19.4204 13.6436 19.4204C13.4191 19.4204 13.1968 19.4653 12.9899 19.5525C12.3282 19.8295 11.6388 20.0301 10.9708 20.2807C10.7289 20.3722 10.6787 20.3233 10.6875 20.0802C10.7138 19.3006 10.7138 18.5185 10.7439 17.7389C10.7686 17.4117 10.6652 17.0877 10.4556 16.8352C9.91918 16.1672 9.40906 15.4778 8.8488 14.7446C9.63341 14.5127 10.3792 14.2721 11.1362 14.0753C11.3711 14.0256 11.5933 13.9282 11.7891 13.7891C11.9848 13.6501 12.15 13.4723 12.2743 13.2669C12.6879 12.5926 13.1629 11.9546 13.6417 11.2615C14.1581 12.0135 14.6444 12.7229 15.1307 13.4411C15.3058 13.719 15.5815 13.9184 15.9003 13.9976C16.7375 14.2245 17.5647 14.4889 18.4358 14.7496C17.8768 15.4766 17.3517 16.1722 16.8115 16.8565H16.8165ZM18.8219 13.297C18.1087 13.0726 17.3893 12.8683 16.6698 12.664C16.4595 12.6103 16.2778 12.478 16.1622 12.2943C15.7436 11.655 15.3137 11.0208 14.8675 10.4017C14.1982 9.47419 13.0589 9.48547 12.3983 10.4217C11.9659 11.0334 11.541 11.65 11.1299 12.2767C11.0075 12.4751 10.8122 12.6177 10.586 12.674C9.83395 12.8821 9.08193 13.0964 8.34495 13.3333C8.12297 13.3984 7.91997 13.5161 7.75319 13.6764C7.58642 13.8367 7.46078 14.0349 7.38697 14.2541C7.31315 14.4733 7.29333 14.7072 7.32919 14.9357C7.36504 15.1642 7.45552 15.3807 7.59293 15.5668C7.80718 15.8933 8.04602 16.2029 8.30735 16.4931C9.03932 17.2701 9.49931 18.1224 9.18471 19.1251C9.18471 19.5926 9.18471 19.9523 9.18471 20.3121C9.17343 21.514 10.0821 22.1696 11.2327 21.7785C12.0424 21.5028 12.8508 20.9964 13.6592 20.9977C14.4677 20.9989 15.2723 21.5115 16.082 21.7873C17.19 22.1633 18.1237 21.4965 18.1112 20.3321C18.1037 19.6139 18.0749 18.8945 18.0372 18.1776C18.0255 18.0393 18.0416 17.9 18.0846 17.768C18.1277 17.636 18.1968 17.514 18.2879 17.4093C18.7441 16.8553 19.1753 16.2812 19.604 15.7047C20.3146 14.7371 19.9737 13.6592 18.8219 13.297ZM16.8165 16.8565C16.6177 17.0978 16.5155 17.4041 16.5294 17.7163C16.547 18.5874 16.5294 19.4585 16.5294 20.3484C15.8138 20.0977 15.0492 19.8395 14.2972 19.5525C14.0903 19.4653 13.8681 19.4204 13.6436 19.4204C13.4191 19.4204 13.1968 19.4653 12.9899 19.5525C12.3282 19.8295 11.6388 20.0301 10.9708 20.2807C10.7289 20.3722 10.6787 20.3233 10.6875 20.0802C10.7138 19.3006 10.7138 18.5185 10.7439 17.7389C10.7686 17.4117 10.6652 17.0877 10.4556 16.8352C9.91918 16.1672 9.40906 15.4778 8.8488 14.7446C9.63341 14.5127 10.3792 14.2721 11.1362 14.0753C11.3711 14.0256 11.5933 13.9282 11.7891 13.7891C11.9848 13.6501 12.15 13.4723 12.2743 13.2669C12.6879 12.5926 13.1629 11.9546 13.6417 11.2615C14.1581 12.0135 14.6444 12.7229 15.1307 13.4411C15.3058 13.719 15.5815 13.9184 15.9003 13.9976C16.7375 14.2245 17.5647 14.4889 18.4358 14.7496C17.8768 15.4766 17.3517 16.1722 16.8115 16.8565H16.8165ZM18.8219 13.297C18.1087 13.0726 17.3893 12.8683 16.6698 12.664C16.4595 12.6103 16.2778 12.478 16.1622 12.2943C15.7436 11.655 15.3137 11.0208 14.8675 10.4017C14.1982 9.47419 13.0589 9.48547 12.3983 10.4217C11.9659 11.0334 11.541 11.65 11.1299 12.2767C11.0075 12.4751 10.8122 12.6177 10.586 12.674C9.83395 12.8821 9.08193 13.0964 8.34495 13.3333C8.12297 13.3984 7.91997 13.5161 7.75319 13.6764C7.58642 13.8367 7.46078 14.0349 7.38697 14.2541C7.31315 14.4733 7.29333 14.7072 7.32919 14.9357C7.36504 15.1642 7.45552 15.3807 7.59293 15.5668C7.80718 15.8933 8.04602 16.2029 8.30735 16.4931C9.03932 17.2701 9.49931 18.1224 9.18471 19.1251C9.18471 19.5926 9.18471 19.9523 9.18471 20.3121C9.17343 21.514 10.0821 22.1696 11.2327 21.7785C12.0424 21.5028 12.8508 20.9964 13.6592 20.9977C14.4677 20.9989 15.2723 21.5115 16.082 21.7873C17.19 22.1633 18.1237 21.4965 18.1112 20.3321C18.1037 19.6139 18.0749 18.8945 18.0372 18.1776C18.0255 18.0393 18.0416 17.9 18.0846 17.768C18.1277 17.636 18.1968 17.514 18.2879 17.4093C18.7441 16.8553 19.1753 16.2812 19.604 15.7047C20.3146 14.7371 19.9737 13.6592 18.8219 13.297ZM16.8165 16.8565C16.6177 17.0978 16.5155 17.4041 16.5294 17.7163C16.547 18.5874 16.5294 19.4585 16.5294 20.3484C15.8138 20.0977 15.0492 19.8395 14.2972 19.5525C14.0903 19.4653 13.8681 19.4204 13.6436 19.4204C13.4191 19.4204 13.1968 19.4653 12.9899 19.5525C12.3282 19.8295 11.6388 20.0301 10.9708 20.2807C10.7289 20.3722 10.6787 20.3233 10.6875 20.0802C10.7138 19.3006 10.7138 18.5185 10.7439 17.7389C10.7686 17.4117 10.6652 17.0877 10.4556 16.8352C9.91918 16.1672 9.40906 15.4778 8.8488 14.7446C9.63341 14.5127 10.3792 14.2721 11.1362 14.0753C11.3711 14.0256 11.5933 13.9282 11.7891 13.7891C11.9848 13.6501 12.15 13.4723 12.2743 13.2669C12.6879 12.5926 13.1629 11.9546 13.6417 11.2615C14.1581 12.0135 14.6444 12.7229 15.1307 13.4411C15.3058 13.719 15.5815 13.9184 15.9003 13.9976C16.7375 14.2245 17.5647 14.4889 18.4358 14.7496C17.8768 15.4766 17.3517 16.1722 16.8115 16.8565H16.8165ZM44.2652 0.846C43.4668 -0.104053 42.1345 -0.274512 41.0554 0.439908C40.7947 0.612873 40.5377 0.789598 40.2883 0.97635C40.221 1.03921 40.1378 1.08257 40.0477 1.10178C39.9576 1.12099 39.864 1.11532 39.7769 1.08539C39.3979 0.989765 39.0068 0.950904 38.6163 0.970083C32.7556 0.970083 26.8948 0.970083 21.0341 0.970083C15.1746 0.970083 9.31381 1.00267 3.45306 0.952536C1.2747 0.933735 -0.0100014 2.43903 0.00253228 4.41685C0.0564271 12.7154 0.0238398 21.014 0.0263466 29.3125C0.0263466 31.2176 1.28849 32.476 3.19737 32.4798C5.24412 32.4798 7.29212 32.4798 9.33887 32.4798C12.0896 32.4798 14.8403 32.4798 17.5911 32.4798C17.7264 32.4798 17.9533 32.4133 17.9809 32.5312C18.0355 32.8046 18.0494 33.0846 18.0222 33.3621C18.0059 33.6015 17.7715 33.5439 17.6211 33.579C16.4292 33.8585 15.2623 34.2057 14.3223 35.0404C13.2582 35.9879 13.2632 37.2576 14.3223 38.2077C14.8424 38.6597 15.4493 39.0008 16.1058 39.2104C18.8833 40.1579 21.7096 40.1955 24.5585 39.6164C25.6991 39.3846 26.792 39.0148 27.6995 38.249C28.7974 37.3203 28.8175 36.013 27.7509 35.0517C27.5298 34.8543 27.2901 34.6788 27.0352 34.5278C26.2248 34.0521 25.3317 33.734 24.4031 33.5903C23.7576 33.485 24.0797 33.0287 24.0371 32.7242C23.9795 32.3243 24.3254 32.4873 24.4946 32.4873C29.2457 32.4781 33.9968 32.4756 38.7479 32.4798C39.0757 32.4961 39.4041 32.4708 39.7255 32.4046C41.1556 32.0386 42.0317 30.8842 42.0317 29.3338C42.0317 21.8136 42.0317 14.2967 42.0317 6.78321C42.0317 6.35079 42.1195 6.03119 42.4566 5.72411C43.0382 5.20522 43.5784 4.63744 44.1211 4.07468C45.0173 3.14342 45.0699 1.80608 44.2627 0.846H44.2652ZM1.52537 4.18999C1.52537 3.08452 2.12323 2.47412 3.23121 2.47412C14.7497 2.47412 26.2681 2.47412 37.7866 2.47412H38.0222C37.9495 2.68469 37.7866 2.7248 37.6675 2.81379C35.0354 4.66376 32.4121 6.52 29.7713 8.34616C28.8601 8.97284 28.3851 9.76121 28.5906 10.8805C28.6031 10.94 28.5963 11.0019 28.5713 11.0573C28.5463 11.1127 28.5043 11.1588 28.4515 11.1888C28.2425 11.3519 28.0453 11.5295 27.8612 11.7202C27.6543 11.9584 27.4776 12.016 27.1517 11.8995C25.1225 11.1788 22.7963 12.0248 21.771 13.8848C21.2697 14.8023 20.999 15.8212 20.7683 16.8402C20.5017 17.9484 20.3687 19.0845 20.3723 20.2243C20.3771 20.4726 20.2965 20.7151 20.1442 20.9112C18.13 23.6498 14.7697 24.8066 11.4069 23.913C8.12561 23.0356 5.75549 20.3421 5.36444 17.032C4.83176 12.5124 7.85238 8.48653 12.3607 7.82601C15.0404 7.43245 17.3868 8.24213 19.3483 10.1259C19.4498 10.2237 19.5425 10.3302 19.6466 10.4242C19.99 10.7263 20.3986 10.7351 20.7007 10.4531C21.019 10.1523 21.0315 9.73113 20.7007 9.36891C19.8677 8.45392 18.862 7.71274 17.7415 7.18804C16.3695 6.53459 14.864 6.21043 13.3448 6.24135C11.8255 6.27227 10.3344 6.65743 8.99022 7.36616C7.64603 8.07489 6.48584 9.08762 5.60202 10.3237C4.71819 11.5599 4.13514 12.9852 3.89925 14.4864C3.0407 19.8872 6.84843 24.9596 12.278 25.6101C16.1986 26.0801 19.3069 24.6725 21.5918 21.4576C21.6496 21.3605 21.7348 21.2825 21.8367 21.2335C21.9385 21.1844 22.0526 21.1665 22.1646 21.1819C23.7727 21.2471 25.3745 21.2671 26.9688 20.9312C29.5657 20.386 30.611 17.8855 30.4581 16.1033C30.4368 15.8526 30.2714 15.528 30.4494 15.3412C30.7464 15.0291 31.1287 14.7972 31.4871 14.5491C31.5423 14.5115 31.6664 14.5553 31.7516 14.5842C32.7317 14.91 33.5527 14.6556 34.2671 13.9349C36.3264 11.8619 38.392 9.79881 40.5515 7.62672V8.16191C40.5515 14.4446 40.5544 20.7278 40.5603 27.0113C40.5603 27.3936 40.4813 27.4939 40.0853 27.4939C27.3945 27.4813 14.7037 27.4813 2.01294 27.4939C1.63693 27.4939 1.52663 27.4187 1.52788 27.0201C1.53206 19.4113 1.53039 11.8013 1.52287 4.18999H1.52537ZM28.9152 15.909C29.1997 17.9031 28.0128 19.3557 25.8971 19.6089C25.1683 19.6974 24.4333 19.7247 23.7 19.6904C23.1986 19.6904 22.6973 19.6829 22.1959 19.6904C21.939 19.6904 21.8337 19.619 21.8701 19.3394C22.0443 17.9933 22.2009 16.6422 22.7186 15.3713C23.1673 14.2708 23.8203 13.3659 25.11 13.1804C25.7304 13.0877 26.317 13.2381 26.9023 13.4173C27.0665 13.4674 27.1029 13.5652 27.1304 13.7206C27.2833 14.5716 27.7646 15.1707 28.5781 15.4665C28.8187 15.5555 28.8814 15.6884 28.9127 15.909H28.9152ZM24.1299 35.063C24.9684 35.261 25.7881 35.4941 26.5113 35.9767C27.1919 36.4304 27.2006 36.7926 26.5313 37.2513C25.5123 37.9495 24.3342 38.1813 23.1472 38.3593C22.501 38.4517 21.8485 38.4936 21.1957 38.4847C19.5413 38.4922 18.0623 38.333 16.6347 37.8128C16.1288 37.6506 15.6617 37.3861 15.2623 37.0358C14.9916 36.7851 14.9427 36.5006 15.2422 36.2336C16.0532 35.5092 17.0709 35.2648 18.0911 35.0366C18.3155 34.9852 18.303 35.2284 18.3669 35.3462C18.572 35.7468 18.8648 36.0959 19.2235 36.3675C19.5823 36.6392 19.9977 36.8265 20.4388 36.9154C20.8799 37.0043 21.3354 36.9925 21.7714 36.881C22.2073 36.7695 22.6125 36.561 22.9567 36.2712C23.2842 36.0039 23.5461 35.6652 23.7225 35.281C23.8115 35.0793 23.8817 35.0041 24.1299 35.063ZM22.5243 34.0164C22.5243 34.4133 22.3666 34.7939 22.086 35.0746C21.8053 35.3553 21.4247 35.5129 21.0278 35.5129C20.6309 35.5129 20.2502 35.3553 19.9696 35.0746C19.6889 34.7939 19.5313 34.4133 19.5313 34.0164C19.5175 33.5953 19.5313 33.1729 19.5237 32.7517C19.5237 32.5512 19.5839 32.4773 19.7907 32.4835C20.2118 32.4973 20.633 32.4835 21.0541 32.4835C21.4452 32.4835 21.8362 32.4998 22.2248 32.4835C22.4817 32.4697 22.5431 32.57 22.5331 32.8056C22.5168 33.2042 22.5394 33.6116 22.5243 34.0164ZM40.5452 29.4617C40.4951 30.339 39.9186 30.9532 39.0312 30.982C38.9535 30.982 38.8758 30.982 38.7968 30.982H3.25753C2.14705 30.982 1.53289 30.3917 1.51409 29.3601C1.51409 29.0418 1.60935 28.9841 1.90389 28.9841C3.59218 28.9979 5.28047 28.9904 6.9675 28.9904H21.0341C27.3794 28.9904 33.7248 28.987 40.0702 28.9804C40.4638 28.9791 40.5665 29.0731 40.5452 29.4617ZM43.1322 2.92659C42.959 3.12785 42.7744 3.31909 42.5795 3.49938L33.2594 12.8081C33.0476 13.0187 32.8458 13.2418 32.5074 13.233C32.2141 13.233 32.0186 13.0588 31.8431 12.8483C31.3418 12.2491 30.8404 11.6525 30.3391 11.0534C29.8578 10.4769 29.9054 10.0871 30.5183 9.65718C32.4844 8.27597 34.4526 6.89726 36.4229 5.52106C38.2244 4.25767 40.0247 2.99302 41.8237 1.72712C42.1934 1.46642 42.5669 1.39874 42.9517 1.65317C43.0532 1.72015 43.1393 1.80793 43.2043 1.91068C43.2693 2.01344 43.3117 2.12883 43.3288 2.24922C43.3459 2.36961 43.3372 2.49226 43.3033 2.60903C43.2694 2.7258 43.2111 2.83405 43.1322 2.92659ZM18.8168 13.297C18.1037 13.0726 17.3842 12.8683 16.6648 12.664C16.4545 12.6103 16.2728 12.478 16.1572 12.2943C15.7386 11.655 15.3087 11.0208 14.8625 10.4017C14.1932 9.47419 13.0539 9.48547 12.3933 10.4217C11.9609 11.0334 11.536 11.65 11.1249 12.2767C11.0025 12.4751 10.8072 12.6177 10.581 12.674C9.82894 12.8821 9.07692 13.0964 8.33994 13.3333C8.11796 13.3984 7.91496 13.5161 7.74818 13.6764C7.5814 13.8367 7.45577 14.0349 7.38196 14.2541C7.30814 14.4733 7.28832 14.7072 7.32417 14.9357C7.36003 15.1642 7.45051 15.3807 7.58792 15.5668C7.80217 15.8933 8.041 16.2029 8.30234 16.4931C9.03431 17.2701 9.49429 18.1224 9.1797 19.1251C9.1797 19.5926 9.1797 19.9523 9.1797 20.3121C9.16842 21.514 10.0771 22.1696 11.2277 21.7785C12.0374 21.5028 12.8458 20.9964 13.6542 20.9977C14.4626 20.9989 15.2673 21.5115 16.077 21.7873C17.185 22.1633 18.1187 21.4965 18.1062 20.3321C18.0987 19.6139 18.0698 18.8945 18.0322 18.1776C18.0204 18.0393 18.0366 17.9 18.0796 17.768C18.1227 17.636 18.1918 17.514 18.2829 17.4093C18.7391 16.8553 19.1703 16.2812 19.5989 15.7047C20.3146 14.7371 19.9737 13.6592 18.8219 13.297H18.8168ZM16.8115 16.8565C16.6127 17.0978 16.5105 17.4041 16.5244 17.7163C16.542 18.5874 16.5244 19.4585 16.5244 20.3484C15.8088 20.0977 15.0442 19.8395 14.2922 19.5525C14.0853 19.4653 13.8631 19.4204 13.6386 19.4204C13.414 19.4204 13.1918 19.4653 12.9849 19.5525C12.3282 19.8295 11.6388 20.0301 10.9708 20.2807C10.7289 20.3722 10.6787 20.3233 10.6875 20.0802C10.7138 19.3006 10.7138 18.5185 10.7439 17.7389C10.7686 17.4117 10.6652 17.0877 10.4556 16.8352C9.91918 16.1672 9.40906 15.4778 8.8488 14.7446C9.63341 14.5127 10.3792 14.2721 11.1362 14.0753C11.3711 14.0256 11.5933 13.9282 11.7891 13.7891C11.9848 13.6501 12.15 13.4723 12.2743 13.2669C12.6879 12.5926 13.1629 11.9546 13.6417 11.2615C14.1581 12.0135 14.6444 12.7229 15.1307 13.4411C15.3058 13.719 15.5815 13.9184 15.9003 13.9976C16.7375 14.2245 17.5647 14.4889 18.4358 14.7496C17.8768 15.4766 17.3517 16.1722 16.8115 16.8565ZM18.8168 13.297C18.1037 13.0726 17.3842 12.8683 16.6648 12.664C16.4545 12.6103 16.2728 12.478 16.1572 12.2943C15.7386 11.655 15.3087 11.0208 14.8625 10.4017C14.1932 9.47419 13.0539 9.48547 12.3933 10.4217C11.9609 11.0334 11.536 11.65 11.1249 12.2767C11.0025 12.4751 10.8072 12.6177 10.581 12.674C9.82894 12.8821 9.07692 13.0964 8.33994 13.3333C8.11796 13.3984 7.91496 13.5161 7.74818 13.6764C7.5814 13.8367 7.45577 14.0349 7.38196 14.2541C7.30814 14.4733 7.28832 14.7072 7.32417 14.9357C7.36003 15.1642 7.45051 15.3807 7.58792 15.5668C7.80217 15.8933 8.041 16.2029 8.30234 16.4931C9.03431 17.2701 9.49429 18.1224 9.1797 19.1251C9.1797 19.5926 9.1797 19.9523 9.1797 20.3121C9.16842 21.514 10.0771 22.1696 11.2277 21.7785C12.0374 21.5028 12.8458 20.9964 13.6542 20.9977C14.4626 20.9989 15.2673 21.5115 16.077 21.7873C17.185 22.1633 18.1187 21.4965 18.1062 20.3321C18.0987 19.6139 18.0698 18.8945 18.0322 18.1776C18.0204 18.0393 18.0366 17.9 18.0796 17.768C18.1227 17.636 18.1918 17.514 18.2829 17.4093C18.7391 16.8553 19.1703 16.2812 19.5989 15.7047C20.3146 14.7371 19.9737 13.6592 18.8219 13.297H18.8168ZM16.8115 16.8565C16.6127 17.0978 16.5105 17.4041 16.5244 17.7163C16.542 18.5874 16.5244 19.4585 16.5244 20.3484C15.8088 20.0977 15.0442 19.8395 14.2922 19.5525C14.0853 19.4653 13.8631 19.4204 13.6386 19.4204C13.414 19.4204 13.1918 19.4653 12.9849 19.5525C12.3282 19.8295 11.6388 20.0301 10.9708 20.2807C10.7289 20.3722 10.6787 20.3233 10.6875 20.0802C10.7138 19.3006 10.7138 18.5185 10.7439 17.7389C10.7686 17.4117 10.6652 17.0877 10.4556 16.8352C9.91918 16.1672 9.40906 15.4778 8.8488 14.7446C9.63341 14.5127 10.3792 14.2721 11.1362 14.0753C11.3711 14.0256 11.5933 13.9282 11.7891 13.7891C11.9848 13.6501 12.15 13.4723 12.2743 13.2669C12.6879 12.5926 13.1629 11.9546 13.6417 11.2615C14.1581 12.0135 14.6444 12.7229 15.1307 13.4411C15.3058 13.719 15.5815 13.9184 15.9003 13.9976C16.7375 14.2245 17.5647 14.4889 18.4358 14.7496C17.8768 15.4766 17.3517 16.1722 16.8115 16.8565ZM18.8168 13.297C18.1037 13.0726 17.3842 12.8683 16.6648 12.664C16.4545 12.6103 16.2728 12.478 16.1572 12.2943C15.7386 11.655 15.3087 11.0208 14.8625 10.4017C14.1932 9.47419 13.0539 9.48547 12.3933 10.4217C11.9609 11.0334 11.536 11.65 11.1249 12.2767C11.0025 12.4751 10.8072 12.6177 10.581 12.674C9.82894 12.8821 9.07692 13.0964 8.33994 13.3333C8.11796 13.3984 7.91496 13.5161 7.74818 13.6764C7.5814 13.8367 7.45577 14.0349 7.38196 14.2541C7.30814 14.4733 7.28832 14.7072 7.32417 14.9357C7.36003 15.1642 7.45051 15.3807 7.58792 15.5668C7.80217 15.8933 8.041 16.2029 8.30234 16.4931C9.03431 17.2701 9.49429 18.1224 9.1797 19.1251C9.1797 19.5926 9.1797 19.9523 9.1797 20.3121C9.16842 21.514 10.0771 22.1696 11.2277 21.7785C12.0374 21.5028 12.8458 20.9964 13.6542 20.9977C14.4626 20.9989 15.2673 21.5115 16.077 21.7873C17.185 22.1633 18.1187 21.4965 18.1062 20.3321C18.0987 19.6139 18.0698 18.8945 18.0322 18.1776C18.0204 18.0393 18.0366 17.9 18.0796 17.768C18.1227 17.636 18.1918 17.514 18.2829 17.4093C18.7391 16.8553 19.1703 16.2812 19.5989 15.7047C20.3146 14.7371 19.9737 13.6592 18.8219 13.297H18.8168ZM16.8115 16.8565C16.6127 17.0978 16.5105 17.4041 16.5244 17.7163C16.542 18.5874 16.5244 19.4585 16.5244 20.3484C15.8088 20.0977 15.0442 19.8395 14.2922 19.5525C14.0853 19.4653 13.8631 19.4204 13.6386 19.4204C13.414 19.4204 13.1918 19.4653 12.9849 19.5525C12.3282 19.8295 11.6388 20.0301 10.9708 20.2807C10.7289 20.3722 10.6787 20.3233 10.6875 20.0802C10.7138 19.3006 10.7138 18.5185 10.7439 17.7389C10.7686 17.4117 10.6652 17.0877 10.4556 16.8352C9.91918 16.1672 9.40906 15.4778 8.8488 14.7446C9.63341 14.5127 10.3792 14.2721 11.1362 14.0753C11.3711 14.0256 11.5933 13.9282 11.7891 13.7891C11.9848 13.6501 12.15 13.4723 12.2743 13.2669C12.6879 12.5926 13.1629 11.9546 13.6417 11.2615C14.1581 12.0135 14.6444 12.7229 15.1307 13.4411C15.3058 13.719 15.5815 13.9184 15.9003 13.9976C16.7375 14.2245 17.5647 14.4889 18.4358 14.7496C17.8768 15.4766 17.3517 16.1722 16.8115 16.8565Z" fill="url(#paint0_linear_586_3455)"/>
<path d="M18.8218 13.297C18.1086 13.0726 17.3892 12.8683 16.6698 12.664C16.4595 12.6104 16.2778 12.478 16.1622 12.2943C15.7435 11.6551 15.3136 11.0209 14.8674 10.4017C14.1981 9.47421 13.0588 9.48549 12.3983 10.4218C11.9659 11.0334 11.541 11.6501 11.1299 12.2767C11.0074 12.4752 10.8122 12.6178 10.5859 12.6741C9.83391 12.8821 9.08189 13.0964 8.34491 13.3333C8.12293 13.3984 7.91993 13.5161 7.75315 13.6764C7.58637 13.8367 7.46074 14.0349 7.38692 14.2541C7.31311 14.4734 7.29329 14.7072 7.32914 14.9357C7.365 15.1642 7.45548 15.3807 7.59289 15.5668C7.80714 15.8933 8.04597 16.2029 8.30731 16.4931C9.03928 17.2702 9.49926 18.1225 9.18467 19.1251C9.18467 19.5927 9.18467 19.9524 9.18467 20.3121C9.17339 21.5141 10.0821 22.1696 11.2327 21.7785C12.0423 21.5028 12.8508 20.9964 13.6592 20.9977C14.4676 20.9989 15.2723 21.5116 16.082 21.7873C17.1899 22.1633 18.1237 21.4965 18.1112 20.3321C18.1036 19.614 18.0748 18.8945 18.0372 18.1776C18.0254 18.0393 18.0415 17.9 18.0846 17.768C18.1276 17.636 18.1968 17.514 18.2879 17.4093C18.7441 16.8553 19.1753 16.2813 19.6039 15.7047C20.3146 14.7371 19.9737 13.6592 18.8218 13.297ZM16.8164 16.8565C16.6177 17.0978 16.5154 17.4041 16.5294 17.7164C16.5469 18.5875 16.5294 19.4585 16.5294 20.3484C15.8137 20.0978 15.0492 19.8396 14.2972 19.5525C14.0903 19.4654 13.868 19.4205 13.6435 19.4205C13.419 19.4205 13.1968 19.4654 12.9899 19.5525C12.3281 19.8295 11.6388 20.0301 10.9707 20.2808C10.7288 20.3722 10.6787 20.3234 10.6875 20.0802C10.7138 19.3006 10.7138 18.5185 10.7439 17.7389C10.7685 17.4117 10.6652 17.0877 10.4556 16.8352C9.91914 16.1672 9.40902 15.4778 8.84876 14.7446C9.63337 14.5128 10.3791 14.2721 11.1362 14.0753C11.3711 14.0256 11.5933 13.9282 11.789 13.7892C11.9848 13.6501 12.1499 13.4723 12.2742 13.2669C12.6878 12.5926 13.1629 11.9546 13.6416 11.2615C14.158 12.0135 14.6443 12.7229 15.1306 13.4411C15.3057 13.719 15.5815 13.9184 15.9002 13.9976C16.7375 14.2245 17.5647 14.4889 18.4358 14.7496C17.8768 15.4766 17.3516 16.1722 16.8114 16.8565H16.8164Z" fill="#FEFEFE"/>
<path d="M30.4005 13.4687C30.1598 13.6655 29.9781 13.8372 29.7738 13.9701C29.6197 14.0794 29.4293 14.125 29.2424 14.0972C29.0556 14.0694 28.8867 13.9704 28.7711 13.8209C28.6524 13.6839 28.5904 13.5068 28.5976 13.3257C28.6048 13.1446 28.6808 12.973 28.8099 12.8458C29.3339 12.2417 29.3752 12.2429 29.8841 12.8458C30.057 13.0489 30.2225 13.2532 30.4005 13.4687Z" fill="#FDFDFD"/>
<path d="M18.8218 13.297C18.1086 13.0726 17.3892 12.8683 16.6698 12.664C16.4595 12.6104 16.2778 12.478 16.1622 12.2943C15.7435 11.6551 15.3136 11.0209 14.8674 10.4017C14.1981 9.47421 13.0588 9.48549 12.3983 10.4218C11.9659 11.0334 11.541 11.6501 11.1299 12.2767C11.0074 12.4752 10.8122 12.6178 10.5859 12.6741C9.83391 12.8821 9.08189 13.0964 8.34491 13.3333C8.12293 13.3984 7.91993 13.5161 7.75315 13.6764C7.58637 13.8367 7.46074 14.0349 7.38692 14.2541C7.31311 14.4734 7.29329 14.7072 7.32914 14.9357C7.365 15.1642 7.45548 15.3807 7.59289 15.5668C7.80714 15.8933 8.04597 16.2029 8.30731 16.4931C9.03928 17.2702 9.49926 18.1225 9.18467 19.1251C9.18467 19.5927 9.18467 19.9524 9.18467 20.3121C9.17339 21.5141 10.0821 22.1696 11.2327 21.7785C12.0423 21.5028 12.8508 20.9964 13.6592 20.9977C14.4676 20.9989 15.2723 21.5116 16.082 21.7873C17.1899 22.1633 18.1237 21.4965 18.1112 20.3321C18.1036 19.614 18.0748 18.8945 18.0372 18.1776C18.0254 18.0393 18.0415 17.9 18.0846 17.768C18.1276 17.636 18.1968 17.514 18.2879 17.4093C18.7441 16.8553 19.1753 16.2813 19.6039 15.7047C20.3146 14.7371 19.9737 13.6592 18.8218 13.297ZM16.8164 16.8565C16.6177 17.0978 16.5154 17.4041 16.5294 17.7164C16.5469 18.5875 16.5294 19.4585 16.5294 20.3484C15.8137 20.0978 15.0492 19.8396 14.2972 19.5525C14.0903 19.4654 13.868 19.4205 13.6435 19.4205C13.419 19.4205 13.1968 19.4654 12.9899 19.5525C12.3281 19.8295 11.6388 20.0301 10.9707 20.2808C10.7288 20.3722 10.6787 20.3234 10.6875 20.0802C10.7138 19.3006 10.7138 18.5185 10.7439 17.7389C10.7685 17.4117 10.6652 17.0877 10.4556 16.8352C9.91914 16.1672 9.40902 15.4778 8.84876 14.7446C9.63337 14.5128 10.3791 14.2721 11.1362 14.0753C11.3711 14.0256 11.5933 13.9282 11.789 13.7892C11.9848 13.6501 12.1499 13.4723 12.2742 13.2669C12.6878 12.5926 13.1629 11.9546 13.6416 11.2615C14.158 12.0135 14.6443 12.7229 15.1306 13.4411C15.3057 13.719 15.5815 13.9184 15.9002 13.9976C16.7375 14.2245 17.5647 14.4889 18.4358 14.7496C17.8768 15.4766 17.3516 16.1722 16.8114 16.8565H16.8164Z" fill="url(#paint1_linear_586_3455)"/>
</g>
<defs>
<linearGradient id="paint0_linear_586_3455" x1="-4.38571" y1="19.9991" x2="50.6441" y2="19.9991" gradientUnits="userSpaceOnUse">
<stop stop-color="#691FB1"/>
<stop offset="1" stop-color="#6039BC"/>
</linearGradient>
<linearGradient id="paint1_linear_586_3455" x1="6.07234" y1="15.8026" x2="21.6154" y2="15.8026" gradientUnits="userSpaceOnUse">
<stop stop-color="#691FB1"/>
<stop offset="1" stop-color="#6039BC"/>
</linearGradient>
<clipPath id="clip0_586_3455">
<rect width="44.833" height="40" fill="white"/>
</clipPath>
</defs>
</svg>
