<?xml version="1.0" encoding="utf-8"?>
<!-- Generator: Adobe Illustrator 24.2.1, SVG Export Plug-In . SVG Version: 6.00 Build 0)  -->
<svg version="1.1" id="Layer_1" xmlns="http://www.w3.org/2000/svg" xmlns:xlink="http://www.w3.org/1999/xlink" x="0px" y="0px"
	 viewBox="0 0 35 34" style="enable-background:new 0 0 35 34;" xml:space="preserve">
<style type="text/css">
	.st0{fill:#FFFFFF;}
	.st1{fill:none;stroke:#45BDE8;stroke-width:2;stroke-linecap:round;}
	.st2{fill:#45BDE8;}
</style>
<path class="st0" d="M24.6,14c-0.7,0.2-1.1,0.9-0.9,1.6s0.9,1.1,1.6,0.9c0.7-0.2,1.1-0.9,0.9-1.6C26,14.2,25.3,13.8,24.6,14z"/>
<path class="st1" d="M17.5,1c8.8,0,16,7.2,16,16c0,8.8-7.2,16-16,16c-8.8,0-16-7.2-16-16C1.5,8.2,8.7,1,17.5,1z"/>
<path class="st1" d="M17.5,17H7.7"/>
<path class="st2" d="M17.5,24.1c-4.6,0-8.6,2.2-10.8,5.3L17.5,33l10.8-3.6C26.1,26.3,22.1,24.1,17.5,24.1z"/>
<path class="st2" d="M8.5,16.4c0.9,0.3,1.9-0.3,2.2-1.3s-0.3-1.9-1.3-2.2c-0.9-0.3-1.9,0.3-2.2,1.3C6.9,15.2,7.5,16.2,8.5,16.4z"/>
<path class="st2" d="M12.1,9.7c0.4,0.9,1.5,1.3,2.4,0.9c0.9-0.4,1.3-1.5,0.9-2.4c-0.4-0.9-1.5-1.3-2.4-0.9
	C12.1,7.7,11.7,8.8,12.1,9.7z"/>
<path class="st2" d="M19.6,8.2c-0.4,0.9,0,1.9,0.9,2.4c0.9,0.4,1.9,0,2.4-0.9c0.4-0.9,0-1.9-0.9-2.4C21.1,6.9,20.1,7.3,19.6,8.2z"/>
<path class="st2" d="M17.5,20.6c2,0,3.6-1.6,3.6-3.6c0-2-1.6-3.6-3.6-3.6S13.9,15,13.9,17C13.9,19,15.5,20.6,17.5,20.6z"/>
</svg>
