<svg width="35" height="34" viewBox="0 0 35 34" fill="none" xmlns="http://www.w3.org/2000/svg">
<path d="M7.03312 6.22372C8.115 6.22372 8.99203 5.34668 8.99203 4.26481C8.99203 3.18294 8.115 2.30591 7.03312 2.30591C5.95125 2.30591 5.07422 3.18294 5.07422 4.26481C5.07422 5.34668 5.95125 6.22372 7.03312 6.22372Z" fill="white"/>
<path d="M29.8813 12.312C30.9631 12.312 31.8402 11.4349 31.8402 10.3531C31.8402 9.2712 30.9631 8.39417 29.8813 8.39417C28.7994 8.39417 27.9224 9.2712 27.9224 10.3531C27.9224 11.4349 28.7994 12.312 29.8813 12.312Z" fill="white"/>
<path d="M12.9047 25.818C13.9866 25.818 14.8636 24.941 14.8636 23.8591C14.8636 22.7772 13.9866 21.9002 12.9047 21.9002C11.8228 21.9002 10.9458 22.7772 10.9458 23.8591C10.9458 24.941 11.8228 25.818 12.9047 25.818Z" fill="white"/>
<path d="M4.48825 9.90451C5.0861 9.37773 5.84688 9.0725 6.64304 9.03998L6.8311 9.03215C7.38081 9.00954 7.92946 9.09779 8.44436 9.29164C8.95926 9.48548 9.42989 9.78096 9.82822 10.1605C10.2693 10.5801 10.5631 11.1309 10.666 11.7309L10.9539 13.4064L3.06543 13.4018L3.21039 12.3003C3.33278 11.3737 3.78675 10.5228 4.48825 9.90517M27.1175 16.2233L27.5047 15.8818C28.0207 15.4282 28.6766 15.1653 29.3631 15.1367L29.8038 15.1185C30.3272 15.0971 30.8496 15.1812 31.3398 15.3658C31.83 15.5505 32.2781 15.8319 32.6573 16.1932C33.1372 16.6502 33.4571 17.2496 33.5695 17.9027L33.8437 19.496L25.9552 19.4907L26.1452 18.0457C26.2382 17.3408 26.5837 16.6929 27.1175 16.2233ZM10.7469 29.1899C11.1179 28.8628 11.5901 28.6733 12.0842 28.6532L12.3794 28.6414C13.0428 28.6141 13.705 28.7205 14.3265 28.9544C14.9479 29.1883 15.516 29.5449 15.9968 30.0029C16.2684 30.2614 16.4493 30.601 16.5127 30.9706L16.862 33L8.97348 32.9948L9.05772 32.3568C9.21958 31.1317 9.81966 30.0067 10.7469 29.1899Z" fill="white"/>
<path d="M7.03312 6.22372C8.115 6.22372 8.99203 5.34668 8.99203 4.26481C8.99203 3.18294 8.115 2.30591 7.03312 2.30591C5.95125 2.30591 5.07422 3.18294 5.07422 4.26481C5.07422 5.34668 5.95125 6.22372 7.03312 6.22372Z" stroke="white" stroke-width="2" stroke-miterlimit="10"/>
<path d="M3.11523 12.7534C3.11523 12.7534 3.7682 9.93847 5.07414 9.2855C6.38007 8.63253 7.68601 8.63253 8.99195 9.2855C10.2979 9.93847 10.9509 12.7534 10.9509 12.7534" stroke="white" stroke-width="2" stroke-linecap="round" stroke-linejoin="round"/>
<path d="M29.8818 12.312C30.9636 12.312 31.8407 11.4349 31.8407 10.3531C31.8407 9.2712 30.9636 8.39417 29.8818 8.39417C28.7999 8.39417 27.9229 9.2712 27.9229 10.3531C27.9229 11.4349 28.7999 12.312 29.8818 12.312Z" stroke="white" stroke-width="2" stroke-miterlimit="10"/>
<path d="M25.9639 18.8417C25.9639 18.8417 26.6168 16.0267 27.9228 15.3738C29.2287 14.7208 30.5346 14.7208 31.8406 15.3738C33.1465 16.0267 33.7995 18.841 33.7995 18.841" stroke="white" stroke-width="2" stroke-linecap="round" stroke-linejoin="round"/>
<path d="M12.9052 25.818C13.9871 25.818 14.8641 24.941 14.8641 23.8591C14.8641 22.7772 13.9871 21.9002 12.9052 21.9002C11.8233 21.9002 10.9463 22.7772 10.9463 23.8591C10.9463 24.941 11.8233 25.818 12.9052 25.818Z" stroke="white" stroke-width="2" stroke-miterlimit="10"/>
<path d="M8.9873 32.3477C8.9873 32.3477 9.64027 29.5327 10.9462 28.8798C12.2521 28.2268 13.5581 28.2268 14.864 28.8798C16.1699 29.5327 16.8229 32.347 16.8229 32.347M27.6354 6.31255C24.8805 3.06273 20.7681 1 16.1745 1C14.3658 1 12.6328 1.31995 11.0272 1.90567M19.0691 30.7577C24.4319 29.7103 28.7735 25.8102 30.4484 20.7007M1.21306 14.7045C1.17495 15.1414 1.156 15.5797 1.15625 16.0183C1.15625 21.225 3.806 25.8128 7.83089 28.5076" stroke="white" stroke-width="2" stroke-linecap="round" stroke-linejoin="round"/>
</svg>
