<?xml version="1.0" encoding="utf-8"?>
<!-- Generator: Adobe Illustrator 24.2.1, SVG Export Plug-In . SVG Version: 6.00 Build 0)  -->
<svg version="1.1" id="Layer_1" xmlns="http://www.w3.org/2000/svg" xmlns:xlink="http://www.w3.org/1999/xlink" x="0px" y="0px"
	 viewBox="0 0 33 32" style="enable-background:new 0 0 33 32;" xml:space="preserve">
<style type="text/css">
	.st0{fill:#FDC688;}
</style>
<path class="st0" d="M16.5,22.4c1.8,0,3.8-0.4,6-1.1c2.2-0.7,5.5-2,10-3.8v-0.6c0-1.4-0.5-2.5-1.6-3.3c-1.1-0.8-2.3-1.1-3.6-0.7
	c-0.5,0.1-0.9,0.3-1.4,0.5c-0.5,0.2-1.1,0.4-1.9,0.7c-1.6,0.7-3,1.2-4.1,1.4c-1.1,0.3-2.3,0.4-3.4,0.4c-1.2,0-2.4-0.1-3.5-0.4
	s-2.5-0.8-4.2-1.5c-0.6-0.3-1.2-0.5-1.7-0.7c-0.5-0.2-0.9-0.3-1.3-0.5c-1.3-0.4-2.5-0.2-3.6,0.6c-1.1,0.8-1.7,1.9-1.7,3.3v0.5
	C4,19,7.1,20.3,9.7,21.1S14.6,22.4,16.5,22.4z M16.5,32c3.7,0,6.9-1,9.7-3s4.7-4.6,5.7-7.7c-3.5,1.5-6.4,2.6-8.8,3.3
	c-2.4,0.7-4.6,1.1-6.6,1.1c-2,0-4.3-0.4-6.9-1.1c-2.6-0.8-5.4-1.8-8.5-3.3c0.9,3.3,2.7,5.9,5.5,7.9S12.6,32,16.5,32z M16.5,12.8
	c-1.8,0-3.3-0.6-4.5-1.9c-1.3-1.3-1.9-2.8-1.9-4.5s0.6-3.3,1.9-4.5C13.2,0.6,14.7,0,16.5,0s3.3,0.6,4.5,1.9c1.3,1.3,1.9,2.8,1.9,4.5
	s-0.6,3.3-1.9,4.5C19.8,12.2,18.3,12.8,16.5,12.8z"/>
</svg>
