<?xml version="1.0" encoding="utf-8"?>
<!-- Generator: Adobe Illustrator 24.2.1, SVG Export Plug-In . SVG Version: 6.00 Build 0)  -->
<svg version="1.1" id="Layer_1" xmlns="http://www.w3.org/2000/svg" xmlns:xlink="http://www.w3.org/1999/xlink" x="0px" y="0px"
	 viewBox="0 0 33 32" style="enable-background:new 0 0 33 32;" xml:space="preserve">
<style type="text/css">
	.st0{fill:#45BDE8;}
</style>
<path class="st0" d="M16.5,0c0.5,0,1,0.2,1.4,0.6C18.3,1,18.5,1.5,18.5,2v10.5l9.1-5.3C27.9,7.1,28.1,7,28.4,7c0.3,0,0.5,0,0.8,0
	c0.3,0.1,0.5,0.2,0.7,0.3c0.2,0.2,0.4,0.4,0.5,0.6c0.1,0.2,0.2,0.5,0.3,0.7c0,0.3,0,0.5-0.1,0.8c-0.1,0.3-0.2,0.5-0.3,0.7
	c-0.2,0.2-0.4,0.4-0.6,0.5L20.5,16l9.1,5.3c0.2,0.1,0.4,0.3,0.6,0.5c0.2,0.2,0.3,0.4,0.3,0.7c0.1,0.3,0.1,0.5,0.1,0.8
	c0,0.3-0.1,0.5-0.3,0.7c-0.1,0.2-0.3,0.4-0.5,0.6c-0.2,0.2-0.4,0.3-0.7,0.3c-0.3,0.1-0.5,0.1-0.8,0c-0.3,0-0.5-0.1-0.7-0.3l-9.1-5.3
	V30c0,0.5-0.2,1-0.6,1.4C17.5,31.8,17,32,16.5,32c-0.5,0-1-0.2-1.4-0.6c-0.4-0.4-0.6-0.9-0.6-1.4V19.5l-9.1,5.3
	C5.1,24.9,4.9,25,4.6,25c-0.3,0-0.5,0-0.8,0s-0.5-0.2-0.7-0.3c-0.2-0.2-0.4-0.4-0.5-0.6c-0.1-0.2-0.2-0.5-0.3-0.7
	c0-0.3,0-0.5,0.1-0.8c0.1-0.3,0.2-0.5,0.3-0.7c0.2-0.2,0.4-0.4,0.6-0.5l9.1-5.3l-9.1-5.3C2.9,10.5,2.6,10,2.5,9.5
	C2.3,9,2.4,8.5,2.7,8c0.3-0.5,0.7-0.8,1.2-0.9C4.4,6.9,4.9,7,5.4,7.3l9.1,5.3V2c0-0.5,0.2-1,0.6-1.4C15.5,0.2,16,0,16.5,0z"/>
</svg>
