<svg width="44" height="40" viewBox="0 0 44 40" fill="none" xmlns="http://www.w3.org/2000/svg">
<g clip-path="url(#clip0_1701_311)">
<path d="M18.3933 13.297C17.705 13.0726 17.0105 12.8683 16.3161 12.664C16.1131 12.6103 15.9377 12.478 15.8262 12.2943C15.4221 11.655 15.0072 11.0208 14.5765 10.4017C13.9305 9.47419 12.8308 9.48547 12.1932 10.4217C11.7759 11.0334 11.3657 11.65 10.9689 12.2767C10.8507 12.4751 10.6623 12.6177 10.4439 12.674C9.71803 12.8821 8.99217 13.0964 8.28082 13.3333C8.06656 13.3984 7.87062 13.5161 7.70965 13.6764C7.54867 13.8367 7.42741 14.0349 7.35616 14.2541C7.28491 14.4733 7.26578 14.7072 7.30039 14.9357C7.335 15.1642 7.42232 15.3807 7.55496 15.5668C7.76176 15.8933 7.99228 16.2029 8.24453 16.4931C8.95104 17.2701 9.39502 18.1224 9.09137 19.1251C9.09137 19.5926 9.09137 19.9523 9.09137 20.3121C9.08048 21.514 9.95757 22.1696 11.0681 21.7785C11.8497 21.5028 12.63 20.9964 13.4103 20.9977C14.1906 20.9989 14.9672 21.5115 15.7488 21.7873C16.8182 22.1633 17.7195 21.4965 17.7074 20.3321C17.7001 19.6139 17.6723 18.8945 17.636 18.1776C17.6246 18.0393 17.6402 17.9 17.6817 17.768C17.7233 17.636 17.79 17.514 17.8779 17.4093C18.3183 16.8553 18.7345 16.2812 19.1482 15.7047C19.8342 14.7371 19.5051 13.6592 18.3933 13.297ZM16.4577 16.8565C16.2659 17.0978 16.1671 17.4041 16.1806 17.7163C16.1976 18.5874 16.1806 19.4585 16.1806 20.3484C15.4899 20.0977 14.7519 19.8395 14.026 19.5525C13.8263 19.4653 13.6118 19.4204 13.3951 19.4204C13.1784 19.4204 12.9639 19.4653 12.7642 19.5525C12.1255 19.8295 11.4601 20.0301 10.8153 20.2807C10.5818 20.3722 10.5334 20.3233 10.5419 20.0802C10.5673 19.3006 10.5673 18.5185 10.5963 17.7389C10.6201 17.4117 10.5204 17.0877 10.3181 16.8352C9.80029 16.1672 9.30792 15.4778 8.76715 14.7446C9.52447 14.5127 10.2443 14.2721 10.975 14.0753C11.2017 14.0256 11.4162 13.9282 11.6052 13.7891C11.7941 13.6501 11.9535 13.4723 12.0735 13.2669C12.4727 12.5926 12.9312 11.9546 13.3933 11.2615C13.8917 12.0135 14.3611 12.7229 14.8305 13.4411C14.9995 13.719 15.2657 13.9184 15.5733 13.9976C16.3815 14.2245 17.1799 14.4889 18.0207 14.7496C17.4811 15.4766 16.9742 16.1722 16.4528 16.8565H16.4577ZM18.3933 13.297C17.705 13.0726 17.0105 12.8683 16.3161 12.664C16.1131 12.6103 15.9377 12.478 15.8262 12.2943C15.4221 11.655 15.0072 11.0208 14.5765 10.4017C13.9305 9.47419 12.8308 9.48547 12.1932 10.4217C11.7759 11.0334 11.3657 11.65 10.9689 12.2767C10.8507 12.4751 10.6623 12.6177 10.4439 12.674C9.71803 12.8821 8.99217 13.0964 8.28082 13.3333C8.06656 13.3984 7.87062 13.5161 7.70965 13.6764C7.54867 13.8367 7.42741 14.0349 7.35616 14.2541C7.28491 14.4733 7.26578 14.7072 7.30039 14.9357C7.335 15.1642 7.42232 15.3807 7.55496 15.5668C7.76176 15.8933 7.99228 16.2029 8.24453 16.4931C8.95104 17.2701 9.39502 18.1224 9.09137 19.1251C9.09137 19.5926 9.09137 19.9523 9.09137 20.3121C9.08048 21.514 9.95757 22.1696 11.0681 21.7785C11.8497 21.5028 12.63 20.9964 13.4103 20.9977C14.1906 20.9989 14.9672 21.5115 15.7488 21.7873C16.8182 22.1633 17.7195 21.4965 17.7074 20.3321C17.7001 19.6139 17.6723 18.8945 17.636 18.1776C17.6246 18.0393 17.6402 17.9 17.6817 17.768C17.7233 17.636 17.79 17.514 17.8779 17.4093C18.3183 16.8553 18.7345 16.2812 19.1482 15.7047C19.8342 14.7371 19.5051 13.6592 18.3933 13.297ZM16.4577 16.8565C16.2659 17.0978 16.1671 17.4041 16.1806 17.7163C16.1976 18.5874 16.1806 19.4585 16.1806 20.3484C15.4899 20.0977 14.7519 19.8395 14.026 19.5525C13.8263 19.4653 13.6118 19.4204 13.3951 19.4204C13.1784 19.4204 12.9639 19.4653 12.7642 19.5525C12.1255 19.8295 11.4601 20.0301 10.8153 20.2807C10.5818 20.3722 10.5334 20.3233 10.5419 20.0802C10.5673 19.3006 10.5673 18.5185 10.5963 17.7389C10.6201 17.4117 10.5204 17.0877 10.3181 16.8352C9.80029 16.1672 9.30792 15.4778 8.76715 14.7446C9.52447 14.5127 10.2443 14.2721 10.975 14.0753C11.2017 14.0256 11.4162 13.9282 11.6052 13.7891C11.7941 13.6501 11.9535 13.4723 12.0735 13.2669C12.4727 12.5926 12.9312 11.9546 13.3933 11.2615C13.8917 12.0135 14.3611 12.7229 14.8305 13.4411C14.9995 13.719 15.2657 13.9184 15.5733 13.9976C16.3815 14.2245 17.1799 14.4889 18.0207 14.7496C17.4811 15.4766 16.9742 16.1722 16.4528 16.8565H16.4577ZM18.3933 13.297C17.705 13.0726 17.0105 12.8683 16.3161 12.664C16.1131 12.6103 15.9377 12.478 15.8262 12.2943C15.4221 11.655 15.0072 11.0208 14.5765 10.4017C13.9305 9.47419 12.8308 9.48547 12.1932 10.4217C11.7759 11.0334 11.3657 11.65 10.9689 12.2767C10.8507 12.4751 10.6623 12.6177 10.4439 12.674C9.71803 12.8821 8.99217 13.0964 8.28082 13.3333C8.06656 13.3984 7.87062 13.5161 7.70965 13.6764C7.54867 13.8367 7.42741 14.0349 7.35616 14.2541C7.28491 14.4733 7.26578 14.7072 7.30039 14.9357C7.335 15.1642 7.42232 15.3807 7.55496 15.5668C7.76176 15.8933 7.99228 16.2029 8.24453 16.4931C8.95104 17.2701 9.39502 18.1224 9.09137 19.1251C9.09137 19.5926 9.09137 19.9523 9.09137 20.3121C9.08048 21.514 9.95757 22.1696 11.0681 21.7785C11.8497 21.5028 12.63 20.9964 13.4103 20.9977C14.1906 20.9989 14.9672 21.5115 15.7488 21.7873C16.8182 22.1633 17.7195 21.4965 17.7074 20.3321C17.7001 19.6139 17.6723 18.8945 17.636 18.1776C17.6246 18.0393 17.6402 17.9 17.6817 17.768C17.7233 17.636 17.79 17.514 17.8779 17.4093C18.3183 16.8553 18.7345 16.2812 19.1482 15.7047C19.8342 14.7371 19.5051 13.6592 18.3933 13.297ZM16.4577 16.8565C16.2659 17.0978 16.1671 17.4041 16.1806 17.7163C16.1976 18.5874 16.1806 19.4585 16.1806 20.3484C15.4899 20.0977 14.7519 19.8395 14.026 19.5525C13.8263 19.4653 13.6118 19.4204 13.3951 19.4204C13.1784 19.4204 12.9639 19.4653 12.7642 19.5525C12.1255 19.8295 11.4601 20.0301 10.8153 20.2807C10.5818 20.3722 10.5334 20.3233 10.5419 20.0802C10.5673 19.3006 10.5673 18.5185 10.5963 17.7389C10.6201 17.4117 10.5204 17.0877 10.3181 16.8352C9.80029 16.1672 9.30792 15.4778 8.76715 14.7446C9.52447 14.5127 10.2443 14.2721 10.975 14.0753C11.2017 14.0256 11.4162 13.9282 11.6052 13.7891C11.7941 13.6501 11.9535 13.4723 12.0735 13.2669C12.4727 12.5926 12.9312 11.9546 13.3933 11.2615C13.8917 12.0135 14.3611 12.7229 14.8305 13.4411C14.9995 13.719 15.2657 13.9184 15.5733 13.9976C16.3815 14.2245 17.1799 14.4889 18.0207 14.7496C17.4811 15.4766 16.9742 16.1722 16.4528 16.8565H16.4577ZM18.3933 13.297C17.705 13.0726 17.0105 12.8683 16.3161 12.664C16.1131 12.6103 15.9377 12.478 15.8262 12.2943C15.4221 11.655 15.0072 11.0208 14.5765 10.4017C13.9305 9.47419 12.8308 9.48547 12.1932 10.4217C11.7759 11.0334 11.3657 11.65 10.9689 12.2767C10.8507 12.4751 10.6623 12.6177 10.4439 12.674C9.71803 12.8821 8.99217 13.0964 8.28082 13.3333C8.06656 13.3984 7.87062 13.5161 7.70965 13.6764C7.54867 13.8367 7.42741 14.0349 7.35616 14.2541C7.28491 14.4733 7.26578 14.7072 7.30039 14.9357C7.335 15.1642 7.42232 15.3807 7.55496 15.5668C7.76176 15.8933 7.99228 16.2029 8.24453 16.4931C8.95104 17.2701 9.39502 18.1224 9.09137 19.1251C9.09137 19.5926 9.09137 19.9523 9.09137 20.3121C9.08048 21.514 9.95757 22.1696 11.0681 21.7785C11.8497 21.5028 12.63 20.9964 13.4103 20.9977C14.1906 20.9989 14.9672 21.5115 15.7488 21.7873C16.8182 22.1633 17.7195 21.4965 17.7074 20.3321C17.7001 19.6139 17.6723 18.8945 17.636 18.1776C17.6246 18.0393 17.6402 17.9 17.6817 17.768C17.7233 17.636 17.79 17.514 17.8779 17.4093C18.3183 16.8553 18.7345 16.2812 19.1482 15.7047C19.8342 14.7371 19.5051 13.6592 18.3933 13.297ZM16.4577 16.8565C16.2659 17.0978 16.1671 17.4041 16.1806 17.7163C16.1976 18.5874 16.1806 19.4585 16.1806 20.3484C15.4899 20.0977 14.7519 19.8395 14.026 19.5525C13.8263 19.4653 13.6118 19.4204 13.3951 19.4204C13.1784 19.4204 12.9639 19.4653 12.7642 19.5525C12.1255 19.8295 11.4601 20.0301 10.8153 20.2807C10.5818 20.3722 10.5334 20.3233 10.5419 20.0802C10.5673 19.3006 10.5673 18.5185 10.5963 17.7389C10.6201 17.4117 10.5204 17.0877 10.3181 16.8352C9.80029 16.1672 9.30792 15.4778 8.76715 14.7446C9.52447 14.5127 10.2443 14.2721 10.975 14.0753C11.2017 14.0256 11.4162 13.9282 11.6052 13.7891C11.7941 13.6501 11.9535 13.4723 12.0735 13.2669C12.4727 12.5926 12.9312 11.9546 13.3933 11.2615C13.8917 12.0135 14.3611 12.7229 14.8305 13.4411C14.9995 13.719 15.2657 13.9184 15.5733 13.9976C16.3815 14.2245 17.1799 14.4889 18.0207 14.7496C17.4811 15.4766 16.9742 16.1722 16.4528 16.8565H16.4577ZM42.9517 0.846C42.1811 -0.104053 40.8951 -0.274512 39.8535 0.439908C39.6018 0.612873 39.3538 0.789598 39.1131 0.97635C39.0481 1.03921 38.9678 1.08257 38.8809 1.10178C38.7939 1.12099 38.7036 1.11532 38.6195 1.08539C38.2536 0.989765 37.8761 0.950904 37.4993 0.970083C31.8424 0.970083 26.1855 0.970083 20.5286 0.970083C14.8729 0.970083 9.21597 1.00267 3.55908 0.952536C1.45649 0.933735 0.216475 2.43903 0.228573 4.41685C0.280593 12.7154 0.249139 21.014 0.251559 29.3125C0.251559 31.2176 1.4698 32.476 3.31228 32.4798C5.28784 32.4798 7.26461 32.4798 9.24017 32.4798C11.8952 32.4798 14.5503 32.4798 17.2053 32.4798C17.336 32.4798 17.5549 32.4133 17.5816 32.5312C17.6343 32.8046 17.6477 33.0846 17.6215 33.3621C17.6057 33.6015 17.3795 33.5439 17.2344 33.579C16.0839 33.8585 14.9576 34.2057 14.0502 35.0404C13.0231 35.9879 13.028 37.2576 14.0502 38.2077C14.5523 38.6597 15.1381 39.0008 15.7717 39.2104C18.4526 40.1579 21.1806 40.1955 23.9304 39.6164C25.0313 39.3846 26.0863 39.0148 26.9621 38.249C28.0219 37.3203 28.0412 36.013 27.0117 35.0517C26.7984 34.8543 26.567 34.6788 26.321 34.5278C25.5387 34.0521 24.6768 33.734 23.7804 33.5903C23.1574 33.485 23.4683 33.0287 23.4272 32.7242C23.3715 32.3243 23.7054 32.4873 23.8687 32.4873C28.4546 32.4781 33.0404 32.4756 37.6263 32.4798C37.9426 32.4961 38.2597 32.4708 38.5699 32.4046C39.9503 32.0386 40.7959 30.8842 40.7959 29.3338C40.7959 21.8136 40.7959 14.2967 40.7959 6.78321C40.7959 6.35079 40.8806 6.03119 41.206 5.72411C41.7673 5.20522 42.2887 4.63744 42.8126 4.07468C43.6776 3.14342 43.7284 1.80608 42.9493 0.846H42.9517ZM1.69845 4.18999C1.69845 3.08452 2.27551 2.47412 3.34495 2.47412C14.4628 2.47412 25.5806 2.47412 36.6984 2.47412H36.9258C36.8557 2.68469 36.6984 2.7248 36.5835 2.81379C34.0429 4.66376 31.5109 6.52 28.9619 8.34616C28.0824 8.97284 27.6239 9.76121 27.8223 10.8805C27.8343 10.94 27.8278 11.0019 27.8036 11.0573C27.7795 11.1127 27.739 11.1588 27.688 11.1888C27.4863 11.3519 27.2959 11.5295 27.1182 11.7202C26.9186 11.9584 26.748 12.016 26.4335 11.8995C24.4748 11.1788 22.2295 12.0248 21.2399 13.8848C20.756 14.8023 20.4947 15.8212 20.2721 16.8402C20.0147 17.9484 19.8864 19.0845 19.8898 20.2243C19.8944 20.4726 19.8167 20.7151 19.6696 20.9112C17.7255 23.6498 14.4821 24.8066 11.2363 23.913C8.06911 23.0356 5.78143 20.3421 5.40398 17.032C4.88983 12.5124 7.80538 8.48653 12.1569 7.82601C14.7434 7.43245 17.0081 8.24213 18.9014 10.1259C18.9994 10.2237 19.0889 10.3302 19.1893 10.4242C19.5208 10.7263 19.9152 10.7351 20.2068 10.4531C20.514 10.1523 20.5261 9.73113 20.2068 9.36891C19.4028 8.45392 18.4321 7.71274 17.3505 7.18804C16.0263 6.53459 14.5731 6.21043 13.1067 6.24135C11.6403 6.27227 10.2011 6.65743 8.90364 7.36616C7.60621 8.07489 6.48638 9.08762 5.63329 10.3237C4.78021 11.5599 4.21743 12.9852 3.98976 14.4864C3.16106 19.8872 6.83635 24.9596 12.0771 25.6101C15.8613 26.0801 18.8615 24.6725 21.0669 21.4576C21.1227 21.3605 21.2049 21.2825 21.3032 21.2335C21.4016 21.1844 21.5117 21.1665 21.6198 21.1819C23.1719 21.2471 24.718 21.2671 26.2568 20.9312C28.7635 20.386 29.7724 17.8855 29.6248 16.1033C29.6043 15.8526 29.4446 15.528 29.6164 15.3412C29.9031 15.0291 30.2721 14.7972 30.6181 14.5491C30.6713 14.5115 30.7911 14.5553 30.8733 14.5842C31.8194 14.91 32.6118 14.6556 33.3013 13.9349C35.289 11.8619 37.2827 9.79881 39.3671 7.62672V8.16191C39.3671 14.4446 39.37 20.7278 39.3756 27.0113C39.3756 27.3936 39.2994 27.4939 38.9171 27.4939C26.6678 27.4813 14.4184 27.4813 2.16905 27.4939C1.80612 27.4939 1.69966 27.4187 1.70087 27.0201C1.7049 19.4113 1.70328 11.8013 1.69603 4.18999H1.69845ZM28.1356 15.909C28.4102 17.9031 27.2646 19.3557 25.2225 19.6089C24.519 19.6974 23.8096 19.7247 23.1017 19.6904C22.6178 19.6904 22.1339 19.6829 21.65 19.6904C21.402 19.6904 21.3004 19.619 21.3355 19.3394C21.5036 17.9933 21.6549 16.6422 22.1545 15.3713C22.5876 14.2708 23.2179 13.3659 24.4627 13.1804C25.0616 13.0877 25.6278 13.2381 26.1927 13.4173C26.3512 13.4674 26.3863 13.5652 26.4129 13.7206C26.5605 14.5716 27.025 15.1707 27.8102 15.4665C28.0425 15.5555 28.1029 15.6884 28.1332 15.909H28.1356ZM23.5167 35.063C24.326 35.261 25.1172 35.4941 25.8153 35.9767C26.4722 36.4304 26.4806 36.7926 25.8346 37.2513C24.8511 37.9495 23.7139 38.1813 22.5682 38.3593C21.9445 38.4517 21.3147 38.4936 20.6846 38.4847C19.0877 38.4922 17.6602 38.333 16.2823 37.8128C15.794 37.6506 15.3431 37.3861 14.9576 37.0358C14.6962 36.7851 14.6491 36.5006 14.9382 36.2336C15.7209 35.5092 16.7033 35.2648 17.688 35.0366C17.9046 34.9852 17.8925 35.2284 17.9542 35.3462C18.1521 35.7468 18.4348 36.0959 18.781 36.3675C19.1273 36.6392 19.5282 36.8265 19.954 36.9154C20.3798 37.0043 20.8194 36.9925 21.2402 36.881C21.661 36.7695 22.0521 36.561 22.3844 36.2712C22.7004 36.0039 22.9533 35.6652 23.1235 35.281C23.2094 35.0793 23.2772 35.0041 23.5167 35.063ZM21.967 34.0164C21.967 34.4133 21.8148 34.7939 21.5439 35.0746C21.273 35.3553 20.9056 35.5129 20.5225 35.5129C20.1394 35.5129 19.772 35.3553 19.5011 35.0746C19.2302 34.7939 19.078 34.4133 19.078 34.0164C19.0647 33.5953 19.078 33.1729 19.0708 32.7517C19.0708 32.5512 19.1289 32.4773 19.3285 32.4835C19.735 32.4973 20.1414 32.4835 20.5479 32.4835C20.9254 32.4835 21.3028 32.4998 21.6778 32.4835C21.9258 32.4697 21.9851 32.57 21.9755 32.8056C21.9597 33.2042 21.9815 33.6116 21.967 34.0164ZM39.3611 29.4617C39.3127 30.339 38.7562 30.9532 37.8997 30.982C37.8247 30.982 37.7497 30.982 37.6735 30.982H3.37035C2.29849 30.982 1.70571 30.3917 1.68756 29.3601C1.68756 29.0418 1.7795 28.9841 2.0638 28.9841C3.69336 28.9979 5.32293 28.9904 6.95128 28.9904H20.5286C26.6532 28.9904 32.7779 28.987 38.9026 28.9804C39.2825 28.9791 39.3817 29.0731 39.3611 29.4617ZM41.8581 2.92659C41.6909 3.12785 41.5127 3.31909 41.3246 3.49938L32.3287 12.8081C32.1242 13.0187 31.9295 13.2418 31.6028 13.233C31.3197 13.233 31.131 13.0588 30.9616 12.8483C30.4777 12.2491 29.9938 11.6525 29.5099 11.0534C29.0454 10.4769 29.0913 10.0871 29.6829 9.65718C31.5806 8.27597 33.4804 6.89726 35.3822 5.52106C37.121 4.25767 38.8586 2.99302 40.5951 1.72712C40.952 1.46642 41.3125 1.39874 41.6839 1.65317C41.7818 1.72015 41.8649 1.80793 41.9277 1.91068C41.9904 2.01344 42.0314 2.12883 42.0478 2.24922C42.0643 2.36961 42.0559 2.49226 42.0232 2.60903C41.9905 2.7258 41.9342 2.83405 41.8581 2.92659ZM18.3885 13.297C17.7001 13.0726 17.0057 12.8683 16.3113 12.664C16.1083 12.6103 15.9329 12.478 15.8213 12.2943C15.4173 11.655 15.0023 11.0208 14.5716 10.4017C13.9256 9.47419 12.8259 9.48547 12.1884 10.4217C11.771 11.0334 11.3609 11.65 10.9641 12.2767C10.8459 12.4751 10.6574 12.6177 10.4391 12.674C9.71319 12.8821 8.98733 13.0964 8.27598 13.3333C8.06172 13.3984 7.86578 13.5161 7.7048 13.6764C7.54383 13.8367 7.42257 14.0349 7.35132 14.2541C7.28007 14.4733 7.26094 14.7072 7.29555 14.9357C7.33016 15.1642 7.41748 15.3807 7.55012 15.5668C7.75692 15.8933 7.98744 16.2029 8.23969 16.4931C8.9462 17.2701 9.39018 18.1224 9.08653 19.1251C9.08653 19.5926 9.08653 19.9523 9.08653 20.3121C9.07564 21.514 9.95273 22.1696 11.0633 21.7785C11.8448 21.5028 12.6251 20.9964 13.4054 20.9977C14.1857 20.9989 14.9624 21.5115 15.7439 21.7873C16.8133 22.1633 17.7146 21.4965 17.7025 20.3321C17.6953 19.6139 17.6674 18.8945 17.6312 18.1776C17.6198 18.0393 17.6353 17.9 17.6769 17.768C17.7184 17.636 17.7852 17.514 17.8731 17.4093C18.3135 16.8553 18.7296 16.2812 19.1434 15.7047C19.8342 14.7371 19.5051 13.6592 18.3933 13.297H18.3885ZM16.4528 16.8565C16.261 17.0978 16.1623 17.4041 16.1758 17.7163C16.1927 18.5874 16.1758 19.4585 16.1758 20.3484C15.485 20.0977 14.7471 19.8395 14.0212 19.5525C13.8215 19.4653 13.607 19.4204 13.3903 19.4204C13.1736 19.4204 12.9591 19.4653 12.7594 19.5525C12.1255 19.8295 11.4601 20.0301 10.8153 20.2807C10.5818 20.3722 10.5334 20.3233 10.5419 20.0802C10.5673 19.3006 10.5673 18.5185 10.5963 17.7389C10.6201 17.4117 10.5204 17.0877 10.3181 16.8352C9.80029 16.1672 9.30792 15.4778 8.76715 14.7446C9.52447 14.5127 10.2443 14.2721 10.975 14.0753C11.2017 14.0256 11.4162 13.9282 11.6052 13.7891C11.7941 13.6501 11.9535 13.4723 12.0735 13.2669C12.4727 12.5926 12.9312 11.9546 13.3933 11.2615C13.8917 12.0135 14.3611 12.7229 14.8305 13.4411C14.9995 13.719 15.2657 13.9184 15.5733 13.9976C16.3815 14.2245 17.1799 14.4889 18.0207 14.7496C17.4811 15.4766 16.9742 16.1722 16.4528 16.8565ZM18.3885 13.297C17.7001 13.0726 17.0057 12.8683 16.3113 12.664C16.1083 12.6103 15.9329 12.478 15.8213 12.2943C15.4173 11.655 15.0023 11.0208 14.5716 10.4017C13.9256 9.47419 12.8259 9.48547 12.1884 10.4217C11.771 11.0334 11.3609 11.65 10.9641 12.2767C10.8459 12.4751 10.6574 12.6177 10.4391 12.674C9.71319 12.8821 8.98733 13.0964 8.27598 13.3333C8.06172 13.3984 7.86578 13.5161 7.7048 13.6764C7.54383 13.8367 7.42257 14.0349 7.35132 14.2541C7.28007 14.4733 7.26094 14.7072 7.29555 14.9357C7.33016 15.1642 7.41748 15.3807 7.55012 15.5668C7.75692 15.8933 7.98744 16.2029 8.23969 16.4931C8.9462 17.2701 9.39018 18.1224 9.08653 19.1251C9.08653 19.5926 9.08653 19.9523 9.08653 20.3121C9.07564 21.514 9.95273 22.1696 11.0633 21.7785C11.8448 21.5028 12.6251 20.9964 13.4054 20.9977C14.1857 20.9989 14.9624 21.5115 15.7439 21.7873C16.8133 22.1633 17.7146 21.4965 17.7025 20.3321C17.6953 19.6139 17.6674 18.8945 17.6312 18.1776C17.6198 18.0393 17.6353 17.9 17.6769 17.768C17.7184 17.636 17.7852 17.514 17.8731 17.4093C18.3135 16.8553 18.7296 16.2812 19.1434 15.7047C19.8342 14.7371 19.5051 13.6592 18.3933 13.297H18.3885ZM16.4528 16.8565C16.261 17.0978 16.1623 17.4041 16.1758 17.7163C16.1927 18.5874 16.1758 19.4585 16.1758 20.3484C15.485 20.0977 14.7471 19.8395 14.0212 19.5525C13.8215 19.4653 13.607 19.4204 13.3903 19.4204C13.1736 19.4204 12.9591 19.4653 12.7594 19.5525C12.1255 19.8295 11.4601 20.0301 10.8153 20.2807C10.5818 20.3722 10.5334 20.3233 10.5419 20.0802C10.5673 19.3006 10.5673 18.5185 10.5963 17.7389C10.6201 17.4117 10.5204 17.0877 10.3181 16.8352C9.80029 16.1672 9.30792 15.4778 8.76715 14.7446C9.52447 14.5127 10.2443 14.2721 10.975 14.0753C11.2017 14.0256 11.4162 13.9282 11.6052 13.7891C11.7941 13.6501 11.9535 13.4723 12.0735 13.2669C12.4727 12.5926 12.9312 11.9546 13.3933 11.2615C13.8917 12.0135 14.3611 12.7229 14.8305 13.4411C14.9995 13.719 15.2657 13.9184 15.5733 13.9976C16.3815 14.2245 17.1799 14.4889 18.0207 14.7496C17.4811 15.4766 16.9742 16.1722 16.4528 16.8565ZM18.3885 13.297C17.7001 13.0726 17.0057 12.8683 16.3113 12.664C16.1083 12.6103 15.9329 12.478 15.8213 12.2943C15.4173 11.655 15.0023 11.0208 14.5716 10.4017C13.9256 9.47419 12.8259 9.48547 12.1884 10.4217C11.771 11.0334 11.3609 11.65 10.9641 12.2767C10.8459 12.4751 10.6574 12.6177 10.4391 12.674C9.71319 12.8821 8.98733 13.0964 8.27598 13.3333C8.06172 13.3984 7.86578 13.5161 7.7048 13.6764C7.54383 13.8367 7.42257 14.0349 7.35132 14.2541C7.28007 14.4733 7.26094 14.7072 7.29555 14.9357C7.33016 15.1642 7.41748 15.3807 7.55012 15.5668C7.75692 15.8933 7.98744 16.2029 8.23969 16.4931C8.9462 17.2701 9.39018 18.1224 9.08653 19.1251C9.08653 19.5926 9.08653 19.9523 9.08653 20.3121C9.07564 21.514 9.95273 22.1696 11.0633 21.7785C11.8448 21.5028 12.6251 20.9964 13.4054 20.9977C14.1857 20.9989 14.9624 21.5115 15.7439 21.7873C16.8133 22.1633 17.7146 21.4965 17.7025 20.3321C17.6953 19.6139 17.6674 18.8945 17.6312 18.1776C17.6198 18.0393 17.6353 17.9 17.6769 17.768C17.7184 17.636 17.7852 17.514 17.8731 17.4093C18.3135 16.8553 18.7296 16.2812 19.1434 15.7047C19.8342 14.7371 19.5051 13.6592 18.3933 13.297H18.3885ZM16.4528 16.8565C16.261 17.0978 16.1623 17.4041 16.1758 17.7163C16.1927 18.5874 16.1758 19.4585 16.1758 20.3484C15.485 20.0977 14.7471 19.8395 14.0212 19.5525C13.8215 19.4653 13.607 19.4204 13.3903 19.4204C13.1736 19.4204 12.9591 19.4653 12.7594 19.5525C12.1255 19.8295 11.4601 20.0301 10.8153 20.2807C10.5818 20.3722 10.5334 20.3233 10.5419 20.0802C10.5673 19.3006 10.5673 18.5185 10.5963 17.7389C10.6201 17.4117 10.5204 17.0877 10.3181 16.8352C9.80029 16.1672 9.30792 15.4778 8.76715 14.7446C9.52447 14.5127 10.2443 14.2721 10.975 14.0753C11.2017 14.0256 11.4162 13.9282 11.6052 13.7891C11.7941 13.6501 11.9535 13.4723 12.0735 13.2669C12.4727 12.5926 12.9312 11.9546 13.3933 11.2615C13.8917 12.0135 14.3611 12.7229 14.8305 13.4411C14.9995 13.719 15.2657 13.9184 15.5733 13.9976C16.3815 14.2245 17.1799 14.4889 18.0207 14.7496C17.4811 15.4766 16.9742 16.1722 16.4528 16.8565Z" fill="#F2F2F2"/>
<path d="M18.3932 13.297C17.7049 13.0726 17.0105 12.8683 16.3161 12.664C16.1131 12.6104 15.9377 12.478 15.8261 12.2943C15.422 11.6551 15.0071 11.0209 14.5764 10.4017C13.9304 9.47421 12.8307 9.48549 12.1931 10.4218C11.7758 11.0334 11.3657 11.6501 10.9689 12.2767C10.8507 12.4752 10.6622 12.6178 10.4438 12.6741C9.71795 12.8821 8.99209 13.0964 8.28074 13.3333C8.06648 13.3984 7.87054 13.5161 7.70957 13.6764C7.54859 13.8367 7.42733 14.0349 7.35608 14.2541C7.28483 14.4734 7.2657 14.7072 7.30031 14.9357C7.33492 15.1642 7.42225 15.3807 7.55488 15.5668C7.76168 15.8933 7.99221 16.2029 8.24445 16.4931C8.95096 17.2702 9.39495 18.1225 9.09129 19.1251C9.09129 19.5927 9.09129 19.9524 9.09129 20.3121C9.0804 21.5141 9.95749 22.1696 11.0681 21.7785C11.8496 21.5028 12.6299 20.9964 13.4102 20.9977C14.1905 20.9989 14.9672 21.5116 15.7487 21.7873C16.8181 22.1633 17.7194 21.4965 17.7073 20.3321C17.7 19.614 17.6722 18.8945 17.6359 18.1776C17.6245 18.0393 17.6401 17.9 17.6816 17.768C17.7232 17.636 17.7899 17.514 17.8779 17.4093C18.3182 16.8553 18.7344 16.2813 19.1481 15.7047C19.8341 14.7371 19.505 13.6592 18.3932 13.297ZM16.4576 16.8565C16.2658 17.0978 16.1671 17.4041 16.1806 17.7164C16.1975 18.5875 16.1806 19.4585 16.1806 20.3484C15.4898 20.0978 14.7518 19.8396 14.026 19.5525C13.8263 19.4654 13.6118 19.4205 13.3951 19.4205C13.1784 19.4205 12.9639 19.4654 12.7642 19.5525C12.1254 19.8295 11.46 20.0301 10.8152 20.2808C10.5817 20.3722 10.5333 20.3234 10.5418 20.0802C10.5672 19.3006 10.5672 18.5185 10.5962 17.7389C10.62 17.4117 10.5203 17.0877 10.318 16.8352C9.80022 16.1672 9.30784 15.4778 8.76707 14.7446C9.52439 14.5128 10.2442 14.2721 10.9749 14.0753C11.2016 14.0256 11.4161 13.9282 11.6051 13.7892C11.794 13.6501 11.9534 13.4723 12.0734 13.2669C12.4726 12.5926 12.9311 11.9546 13.3932 11.2615C13.8917 12.0135 14.3611 12.7229 14.8305 13.4411C14.9994 13.719 15.2656 13.9184 15.5733 13.9976C16.3814 14.2245 17.1798 14.4889 18.0206 14.7496C17.4811 15.4766 16.9742 16.1722 16.4528 16.8565H16.4576Z" fill="#FEFEFE"/>
<path d="M29.5691 13.4687C29.3368 13.6655 29.1614 13.8372 28.9642 13.9701C28.8155 14.0794 28.6318 14.125 28.4514 14.0972C28.271 14.0694 28.108 13.9704 27.9964 13.8209C27.8819 13.6839 27.822 13.5068 27.829 13.3257C27.8359 13.1446 27.9092 12.973 28.0339 12.8458C28.5396 12.2417 28.5795 12.2429 29.0707 12.8458C29.2376 13.0489 29.3973 13.2532 29.5691 13.4687Z" fill="#FDFDFD"/>
<path d="M18.3932 13.297C17.7049 13.0726 17.0105 12.8683 16.3161 12.664C16.1131 12.6104 15.9377 12.478 15.8261 12.2943C15.422 11.6551 15.0071 11.0209 14.5764 10.4017C13.9304 9.47421 12.8307 9.48549 12.1931 10.4218C11.7758 11.0334 11.3657 11.6501 10.9689 12.2767C10.8507 12.4752 10.6622 12.6178 10.4438 12.6741C9.71795 12.8821 8.99209 13.0964 8.28074 13.3333C8.06648 13.3984 7.87054 13.5161 7.70957 13.6764C7.54859 13.8367 7.42733 14.0349 7.35608 14.2541C7.28483 14.4734 7.2657 14.7072 7.30031 14.9357C7.33492 15.1642 7.42225 15.3807 7.55488 15.5668C7.76168 15.8933 7.99221 16.2029 8.24445 16.4931C8.95096 17.2702 9.39495 18.1225 9.09129 19.1251C9.09129 19.5927 9.09129 19.9524 9.09129 20.3121C9.0804 21.5141 9.95749 22.1696 11.0681 21.7785C11.8496 21.5028 12.6299 20.9964 13.4102 20.9977C14.1905 20.9989 14.9672 21.5116 15.7487 21.7873C16.8181 22.1633 17.7194 21.4965 17.7073 20.3321C17.7 19.614 17.6722 18.8945 17.6359 18.1776C17.6245 18.0393 17.6401 17.9 17.6816 17.768C17.7232 17.636 17.7899 17.514 17.8779 17.4093C18.3182 16.8553 18.7344 16.2813 19.1481 15.7047C19.8341 14.7371 19.505 13.6592 18.3932 13.297ZM16.4576 16.8565C16.2658 17.0978 16.1671 17.4041 16.1806 17.7164C16.1975 18.5875 16.1806 19.4585 16.1806 20.3484C15.4898 20.0978 14.7518 19.8396 14.026 19.5525C13.8263 19.4654 13.6118 19.4205 13.3951 19.4205C13.1784 19.4205 12.9639 19.4654 12.7642 19.5525C12.1254 19.8295 11.46 20.0301 10.8152 20.2808C10.5817 20.3722 10.5333 20.3234 10.5418 20.0802C10.5672 19.3006 10.5672 18.5185 10.5962 17.7389C10.62 17.4117 10.5203 17.0877 10.318 16.8352C9.80022 16.1672 9.30784 15.4778 8.76707 14.7446C9.52439 14.5128 10.2442 14.2721 10.9749 14.0753C11.2016 14.0256 11.4161 13.9282 11.6051 13.7892C11.794 13.6501 11.9534 13.4723 12.0734 13.2669C12.4726 12.5926 12.9311 11.9546 13.3932 11.2615C13.8917 12.0135 14.3611 12.7229 14.8305 13.4411C14.9994 13.719 15.2656 13.9184 15.5733 13.9976C16.3814 14.2245 17.1798 14.4889 18.0206 14.7496C17.4811 15.4766 16.9742 16.1722 16.4528 16.8565H16.4576Z" fill="#F2F2F2"/>
</g>
<defs>
<clipPath id="clip0_1701_311">
<rect width="43.2736" height="40" fill="white" transform="translate(0.226074)"/>
</clipPath>
</defs>
</svg>
