<svg width="40" height="40" viewBox="0 0 40 40" fill="none" xmlns="http://www.w3.org/2000/svg">
<g clip-path="url(#clip0_586_3528)">
<path d="M39.629 36.308C39.6134 35.6369 39.3675 35.3545 38.7058 35.2805C38.4067 35.2482 38.2889 35.1211 38.3067 34.8356C38.3129 34.7189 38.3067 34.6022 38.3067 34.4844V5.50719C38.3067 5.37694 38.3119 5.24668 38.3067 5.11643C38.2983 4.858 38.4171 4.75692 38.6745 4.72357C39.3883 4.63187 39.6124 4.36824 39.629 3.64506C39.6415 2.96877 39.6405 2.29039 39.629 1.61514C39.6155 0.833604 39.3227 0.53558 38.5338 0.508486C37.8971 0.486603 37.2584 0.50015 36.6206 0.508486C35.8026 0.508486 35.4619 0.821107 35.4025 1.51824C35.3837 1.74644 35.2545 1.83085 35.0398 1.83085C34.9356 1.83085 34.8314 1.83085 34.7272 1.83085C30.9133 1.83085 27.0991 1.83085 23.2845 1.83085C23.1678 1.83085 23.0511 1.83085 22.9333 1.83085C22.7062 1.83085 22.6072 1.71623 22.6041 1.49219C22.6105 1.23201 22.6008 0.971698 22.5749 0.712736C22.5259 0.363651 22.3821 0.0937575 22.0091 0.00622559H17.6325C17.2594 0.0937575 17.1114 0.36365 17.0666 0.711693C17.0451 0.91937 17.036 1.12816 17.0395 1.33692C17.0302 1.79438 16.9999 1.83398 16.5519 1.83502C12.6074 1.83502 8.66322 1.83675 4.71942 1.84023C4.40681 1.84023 4.25883 1.73602 4.21298 1.40673C4.13378 0.828394 3.88161 0.573094 3.33245 0.535581C2.5146 0.473056 1.69317 0.473056 0.875311 0.535581C0.317816 0.581431 0.0500065 0.869037 0.0249974 1.42236C-0.0114743 2.22891 -0.0135584 3.03649 0.0249974 3.84304C0.0510485 4.37448 0.321984 4.63604 0.84926 4.7194C1.32964 4.79651 1.32964 4.79651 1.33589 5.27481C1.33589 5.36651 1.33589 5.45717 1.33589 5.54887V34.448C1.33589 34.5782 1.32964 34.7095 1.33589 34.8387C1.35048 35.1232 1.2369 35.2555 0.936788 35.2837C0.275089 35.3577 0.0302091 35.6401 0.0135364 36.3101C-0.00313636 36.9801 0.00311592 37.6647 0.0135364 38.341C0.0218728 39.159 0.326152 39.4727 1.14833 39.4967C1.77355 39.5144 2.39878 39.5029 3.02401 39.4967C3.84306 39.4967 4.18276 39.1841 4.24216 38.4869C4.26091 38.2598 4.39013 38.1743 4.60479 38.1743C4.70899 38.1743 4.8132 38.1743 4.9174 38.1743C8.73129 38.1743 12.5455 38.1743 16.3601 38.1743C16.4768 38.1743 16.5935 38.1743 16.7113 38.1743C16.9385 38.1743 17.0375 38.2889 17.0406 38.513C17.0341 38.7731 17.0439 39.0335 17.0697 39.2924C17.1187 39.6415 17.2625 39.9114 17.6356 39.9989H22.0122C22.3852 39.9114 22.5332 39.6415 22.578 39.2924C22.5996 39.0848 22.6087 38.876 22.6051 38.6672C22.6145 38.2097 22.6447 38.1701 23.0928 38.1691C27.0373 38.1691 30.9814 38.1674 34.9252 38.1639C35.2441 38.1639 35.3848 38.2681 35.4317 38.5984C35.5161 39.1976 35.7912 39.4477 36.3903 39.479C37.1442 39.5206 37.8998 39.5206 38.6537 39.479C39.3195 39.4404 39.6124 39.1194 39.629 38.4536C39.6457 37.7398 39.6447 37.0228 39.629 36.308ZM35.2962 3.27513C35.5379 3.27513 35.5598 3.36683 35.5619 3.56795C35.5692 4.44639 35.7047 4.58185 36.5821 4.58914C36.7905 4.58914 36.8718 4.62666 36.8707 4.86007C36.8624 7.5694 36.8707 10.2787 36.8645 12.9818C36.8578 13.0411 36.8473 13.0999 36.8332 13.1579C34.796 8.53954 31.4771 5.29566 26.9067 3.28034C29.7035 3.28138 32.5004 3.2845 35.2962 3.27617V3.27513ZM18.5015 1.55575C18.5015 1.36505 18.563 1.30982 18.7464 1.31607C19.1101 1.32754 19.4758 1.31607 19.8374 1.31607C20.1751 1.31607 20.5137 1.33275 20.8503 1.31607C21.1014 1.2994 21.1514 1.39318 21.1462 1.62869C21.1303 2.30393 21.1303 2.97919 21.1462 3.65443C21.1462 3.87743 21.0816 3.94099 20.8607 3.93682C20.173 3.92432 19.4842 3.9264 18.7964 3.93682C18.588 3.93682 18.4953 3.90556 18.5005 3.66589C18.5161 2.9573 18.512 2.256 18.5015 1.55575ZM3.16051 4.58914C3.88994 4.60686 4.1067 4.39637 4.08065 3.66902C4.06814 3.33244 4.17027 3.27304 4.48601 3.27513C7.24639 3.28867 10.0088 3.28241 12.7661 3.28241C8.1811 5.28627 4.858 8.52496 2.78121 13.0954V12.7744C2.78121 10.1693 2.78746 7.56419 2.77287 4.95908C2.77079 4.64229 2.86874 4.57768 3.16051 4.5881V4.58914ZM1.46407 2.60926C1.46407 1.96527 1.46406 1.96528 2.10805 1.96528C2.78121 1.96528 2.78121 1.96527 2.78121 2.62593C2.78121 3.28659 2.78121 3.28346 2.11013 3.28346C1.46406 3.28346 1.46407 3.28346 1.46407 2.64781V2.60926ZM2.15078 38.0388C1.46407 38.0388 1.46407 38.0388 1.46407 37.3605C1.46407 36.7207 1.46406 36.7206 2.107 36.7206C2.78121 36.7206 2.78121 36.7207 2.78121 37.4126C2.78121 38.0368 2.78121 38.0368 2.15078 38.0368V38.0388ZM12.49 36.7206C9.80877 36.7206 7.12655 36.7207 4.44536 36.728C4.16089 36.728 4.07335 36.6717 4.08065 36.3716C4.10149 35.589 3.90766 35.4129 3.11987 35.4066C2.94793 35.4066 2.77287 35.465 2.77392 35.1565C2.78538 32.4107 2.78121 29.6639 2.78121 26.9181C4.8653 31.476 8.18526 34.7189 12.7734 36.7206H12.49ZM17.6366 34.8075C17.3428 34.871 17.2104 35.1326 17.2 35.4327C17.1844 35.6797 17.1844 35.9276 17.2 36.1746C17.2281 36.4674 17.1219 36.5227 16.8488 36.4706C15.466 36.2101 14.1145 35.8453 12.8338 35.2555C7.89558 32.9849 4.56206 29.2763 3.29077 23.9754C1.80689 17.7877 3.46687 12.3909 8.01853 7.94557C10.4736 5.54887 13.4695 4.14107 16.8457 3.53668C17.1104 3.48979 17.2313 3.52105 17.2 3.82533C17.1802 4.07225 17.1802 4.32035 17.2 4.56727C17.2281 5.00493 17.4647 5.2373 17.8992 5.23938C19.1747 5.24702 20.4502 5.24702 21.7256 5.23938C22.1831 5.23938 22.4196 5.00596 22.4457 4.54642C22.465 4.29948 22.465 4.05142 22.4457 3.80448C22.4155 3.51375 22.5447 3.49186 22.7823 3.52938C24.7278 3.87951 26.5836 4.49327 28.2957 5.4853C32.763 8.0727 35.5598 11.8866 36.5904 16.9572C37.8898 23.3439 34.8929 30.3475 29.3544 33.8384C28.8751 32.5223 28.4051 31.2332 27.9341 29.9411C27.5736 28.9543 27.2297 27.9612 26.8462 26.9827C26.2575 25.4853 26.567 24.1557 27.5444 22.9396C28.0508 22.3081 28.03 22.0747 27.3881 21.5651C23.8132 18.7245 20.2379 15.8842 16.6623 13.0443C16.5842 12.9883 16.5183 12.917 16.4685 12.8348C16.4187 12.7526 16.3861 12.6612 16.3726 12.566C16.1048 10.9123 16.8749 9.89942 18.6245 9.61077C19.8072 9.41591 20.9858 9.54199 22.1674 9.64516C23.2658 9.74103 24.3557 9.69726 25.3978 9.2919C26.6128 8.81881 27.2995 7.79657 27.2516 6.58988C27.2412 6.34292 27.1912 6.21578 26.9161 6.32311C26.8062 6.36355 26.6917 6.39016 26.5753 6.40231C26.1908 6.45128 25.9042 6.51277 25.8803 7.04421C25.8573 7.5569 25.428 7.86534 24.9539 8.05291C24.016 8.42388 23.0438 8.40721 22.0685 8.31863C20.6794 8.19255 19.2924 8.07375 17.9169 8.43117C15.6942 9.00846 14.6407 10.6987 15.1253 12.9401C15.2441 13.4914 15.0492 13.9936 14.9481 14.5032C14.1145 18.7082 13.2708 22.9111 12.417 27.1119C12.2763 27.8091 12.4504 28.0581 13.1715 28.1696C14.053 28.3051 14.8491 28.6198 15.5088 29.2356C15.9063 29.6137 16.2081 30.0809 16.3893 30.5986C16.8561 31.8769 17.3247 33.1558 17.795 34.4354C17.8575 34.6188 17.9284 34.7418 17.6356 34.8054L17.6366 34.8075ZM18.2681 31.9575C18.067 31.3822 17.8513 30.8112 17.6429 30.2381C17.0499 28.5593 15.8401 27.5444 14.1687 27.0567C13.8352 26.9588 13.7967 26.8587 13.8623 26.5357C14.5636 23.0969 15.2451 19.6582 15.9329 16.2194C15.9579 16.0985 15.9964 15.9798 16.0287 15.861H16.1194L17.5397 19.7249C17.7763 20.3699 18.0034 21.0191 18.2525 21.66C18.3421 21.8913 18.3358 22.034 18.1316 22.2247C17.776 22.5542 17.5327 22.987 17.4363 23.4621C17.3398 23.9371 17.3949 24.4305 17.5939 24.8726C17.9878 25.7677 18.9215 26.3523 19.8635 26.296C20.3543 26.2762 20.8269 26.1043 21.2158 25.8041C21.6046 25.5039 21.8906 25.0902 22.0341 24.6204C22.4957 23.1615 21.4453 21.6308 19.9218 21.5672C19.6801 21.5578 19.5728 21.4932 19.4873 21.2546C18.8319 19.4237 18.1556 17.5991 17.4845 15.7734C17.4407 15.6536 17.3907 15.5369 17.3428 15.4171C17.5095 15.3233 17.6033 15.4671 17.7075 15.5494C20.5085 17.7724 23.3095 19.9955 26.1105 22.2185C26.2564 22.3342 26.2929 22.4061 26.1783 22.5811C25.1508 24.1442 24.9393 25.7979 25.6573 27.5506C25.8542 28.03 26.0105 28.526 26.1939 29.0095C26.2564 29.1741 26.2773 29.2804 26.0626 29.3576C23.5617 30.2607 21.0646 31.1728 18.5713 32.094C18.4025 32.1617 18.3285 32.1252 18.2681 31.9554V31.9575ZM18.7162 23.916C18.7152 23.7766 18.742 23.6384 18.795 23.5095C18.848 23.3806 18.9262 23.2635 19.025 23.1652C19.1237 23.0668 19.2411 22.9891 19.3702 22.9366C19.4993 22.8841 19.6376 22.8578 19.777 22.8593C20.0587 22.8602 20.3286 22.9728 20.5273 23.1725C20.726 23.3722 20.8373 23.6426 20.8367 23.9243C20.8314 24.2055 20.717 24.4737 20.5177 24.6722C20.3185 24.8706 20.0499 24.984 19.7687 24.9883C19.4867 24.985 19.2176 24.87 19.0204 24.6686C18.8231 24.4672 18.7137 24.1958 18.7162 23.9139V23.916ZM20.8753 38.687C20.5116 38.6745 20.1459 38.687 19.7843 38.687C19.4467 38.687 19.109 38.6776 18.7714 38.687C18.5786 38.6943 18.4974 38.6495 18.5005 38.4327C18.5144 37.7318 18.5144 37.0305 18.5005 36.3288C18.5005 36.1142 18.5766 36.0704 18.7704 36.0725C19.472 36.0815 20.1733 36.0815 20.8743 36.0725C21.0681 36.0725 21.1483 36.1152 21.1442 36.3288C21.1317 37.0305 21.1317 37.7318 21.1442 38.4327C21.1494 38.6526 21.0681 38.6912 20.8753 38.6849V38.687ZM22.7322 36.4779C22.5072 36.5175 22.4311 36.457 22.4457 36.2267C22.4644 35.9537 22.4644 35.6797 22.4457 35.4066C22.4134 34.9898 22.1737 34.7731 21.759 34.7637C21.3817 34.7554 21.0035 34.7637 20.6263 34.7637H20.3449C19.1664 34.7637 19.1538 34.7428 18.8548 33.5695C18.7881 33.309 18.9788 33.3465 19.0778 33.309C20.3657 32.8296 21.6579 32.3597 22.95 31.8876C24.1202 31.4614 25.2936 31.0436 26.4576 30.6028C26.6899 30.5153 26.7702 30.5653 26.8442 30.7831C27.261 31.9564 27.684 33.1277 28.1238 34.2927C28.204 34.5011 28.154 34.5865 27.9737 34.6824C26.3324 35.5535 24.5632 36.1589 22.7322 36.4758V36.4779ZM36.5654 35.415C35.7016 35.4066 35.5713 35.5463 35.563 36.4476C35.563 36.6706 35.5015 36.7259 35.2826 36.7259C32.5118 36.7175 29.74 36.7259 26.9692 36.7196C26.9128 36.714 26.8568 36.7053 26.8014 36.6936C31.4156 34.7032 34.7887 31.5115 36.8051 26.9223C36.9155 26.9806 36.8666 27.0807 36.8666 27.1557C36.8666 29.7973 36.8666 32.4378 36.8728 35.0753C36.8707 35.3056 36.8468 35.416 36.5654 35.4129V35.415ZM37.5158 38.0388C36.8655 38.0388 36.8655 38.0388 36.8655 37.3949V37.3553C36.8655 36.7207 36.8655 36.7206 37.5199 36.7206C38.1743 36.7206 38.1827 36.7207 38.1827 37.3782C38.1827 38.0357 38.1827 38.0368 37.5158 38.0368V38.0388ZM37.5481 3.28346C36.8655 3.28346 36.8655 3.28346 36.8655 2.59988C36.8655 1.96527 36.8655 1.96528 37.4907 1.96528C38.1858 1.96528 38.1858 1.96527 38.1858 2.67386C38.1827 3.28138 38.1827 3.28138 37.5481 3.28138V3.28346Z" fill="url(#paint0_linear_586_3528)"/>
</g>
<defs>
<linearGradient id="paint0_linear_586_3528" x1="-0.215019" y1="16.1377" x2="43.9516" y2="29.2821" gradientUnits="userSpaceOnUse">
<stop stop-color="#70499B"/>
<stop offset="0.57" stop-color="#A62D82"/>
<stop offset="1" stop-color="#CB1A71"/>
</linearGradient>
<clipPath id="clip0_586_3528">
<rect width="39.6405" height="40" fill="white"/>
</clipPath>
</defs>
</svg>
