<svg width="35" height="34" viewBox="0 0 35 34" fill="none" xmlns="http://www.w3.org/2000/svg">
<path d="M24.5942 13.9866C23.8829 14.1772 23.4608 14.9083 23.6514 15.6196C23.842 16.3309 24.5731 16.753 25.2844 16.5624C25.9957 16.3718 26.4178 15.6407 26.2272 14.9294C26.0366 14.2182 25.3055 13.796 24.5942 13.9866Z" fill="white"/>
<path d="M17.5 1C26.3366 1 33.5 8.16345 33.5 17C33.5 25.8366 26.3366 33 17.5 33C8.66345 33 1.5 25.8366 1.5 17C1.5 8.16345 8.66345 1 17.5 1Z" stroke="white" stroke-width="2" stroke-linecap="round"/>
<path d="M17.4995 17H7.72168" stroke="white" stroke-width="2" stroke-linecap="round"/>
<path d="M17.4999 24.1111C12.8955 24.1111 8.87767 26.2622 6.72656 29.4444L17.4999 33L28.2732 29.4444C26.1221 26.2622 22.1043 24.1111 17.4999 24.1111Z" fill="white"/>
<path d="M8.45418 16.4166C9.40257 16.6707 10.3774 16.1079 10.6315 15.1595C10.8856 14.2111 10.3228 13.2363 9.37443 12.9822C8.42604 12.728 7.45122 13.2909 7.1971 14.2392C6.94299 15.1876 7.5058 16.1624 8.45418 16.4166Z" fill="white"/>
<path d="M12.1314 9.69522C12.5464 10.5851 13.6041 10.9701 14.494 10.5551C15.3838 10.1402 15.7688 9.08242 15.3539 8.19257C14.9389 7.30272 13.8812 6.91774 12.9913 7.33268C12.1015 7.74762 11.7165 8.80537 12.1314 9.69522Z" fill="white"/>
<path d="M19.6454 8.19256C19.2304 9.0824 19.6154 10.1401 20.5053 10.5551C21.3951 10.97 22.4529 10.585 22.8678 9.6952C23.2828 8.80535 22.8978 7.74761 22.0079 7.33266C21.1181 6.91772 20.0603 7.30271 19.6454 8.19256Z" fill="white"/>
<path d="M17.4999 20.5555C19.4636 20.5555 21.0554 18.9636 21.0554 17C21.0554 15.0363 19.4636 13.4444 17.4999 13.4444C15.5362 13.4444 13.9443 15.0363 13.9443 17C13.9443 18.9636 15.5362 20.5555 17.4999 20.5555Z" fill="white"/>
</svg>
