<svg width="16" height="15" viewBox="0 0 16 15" fill="none" xmlns="http://www.w3.org/2000/svg">
<g clip-path="url(#clip0_1205_1060)">
<path d="M7.48346 14.9988C5.70933 14.9988 3.93558 14.9988 2.16219 14.9988C1.15396 14.9988 0.382579 14.4566 0.0969431 13.5619C0.0271368 13.3253 -0.00523551 13.0793 0.0010001 12.8327C0.0010001 9.75086 0.0010001 6.66917 0.0010001 3.58766C0.0010001 2.29216 0.87326 1.42099 2.16109 1.4188C2.43521 1.4188 2.43521 1.4188 2.43521 1.15235C2.43521 0.981302 2.4248 0.809153 2.49004 0.645228C2.63642 0.276807 2.90067 0.05532 3.29925 0.0125569C3.43554 -0.000603528 3.57263 -0.00335406 3.70933 0.00433183C4.26471 0.0300994 4.64848 0.427027 4.66657 0.981851C4.67096 1.1233 4.60078 1.31518 4.69727 1.39139C4.79377 1.4676 4.9714 1.41825 5.11394 1.41825C6.78499 1.41825 8.45824 1.41826 10.1266 1.42264C10.291 1.42264 10.3354 1.37768 10.3272 1.21924C10.3146 1.05428 10.3239 0.888375 10.3546 0.725818C10.4005 0.534834 10.5051 0.363038 10.6537 0.234599C10.8023 0.10616 10.9874 0.0275444 11.183 0.00981295C11.3194 -0.00197274 11.4564 -0.00472131 11.5931 0.00158793C12.1501 0.0251625 12.5344 0.417705 12.5558 0.973626C12.5613 1.11562 12.4939 1.29874 12.5832 1.3881C12.6726 1.47747 12.8574 1.41223 12.9983 1.41606C14.1364 1.44731 15.0032 2.32396 15.0081 3.50598C15.0198 6.64267 15.0198 9.77919 15.0081 12.9155C15.0026 14.1507 14.1156 14.9923 12.87 14.9956C11.0717 15.0021 9.27732 14.9988 7.48346 14.9988Z" fill="black"/>
<path d="M7.5054 5.97747C9.77148 5.97747 12.0376 5.97619 14.3036 5.97363C14.4681 5.97363 14.5229 6.00378 14.5229 6.18196C14.5158 8.40071 14.5191 10.6195 14.518 12.8388C14.518 13.6732 14.0695 14.2741 13.3174 14.4627C13.1633 14.4961 13.0056 14.5103 12.8481 14.5049C9.28701 14.5049 5.72598 14.5049 2.16494 14.5049C1.14301 14.5049 0.494983 13.859 0.494434 12.8399C0.494434 10.614 0.494436 8.3881 0.489502 6.16277C0.489502 6.00324 0.535002 5.97418 0.684125 5.97418C2.95752 5.97893 5.23128 5.98003 7.5054 5.97747Z" fill="#EDEDED"/>
<path d="M7.49016 5.48466C5.22975 5.48466 2.96934 5.48466 0.709467 5.48959C0.521419 5.48959 0.485235 5.43751 0.490169 5.26262C0.501682 4.68751 0.490167 4.1113 0.49565 3.53674C0.506067 2.5033 1.30212 1.80319 2.33118 1.90846C2.4326 1.91887 2.43589 1.96328 2.43534 2.03949C2.43534 2.21109 2.42986 2.38269 2.43918 2.55319C2.44749 2.80245 2.55341 3.03846 2.73411 3.21035C2.91482 3.38223 3.15583 3.47622 3.40519 3.47205C3.56233 3.48171 3.72005 3.4762 3.87613 3.4556C4.08998 3.41546 4.28401 3.30429 4.4268 3.14011C4.56959 2.97593 4.65277 2.76835 4.66287 2.551C4.66287 2.51701 4.66287 2.48247 4.66287 2.44848C4.67602 2.27359 4.58556 2.04058 4.70124 1.94025C4.79992 1.85418 5.02635 1.91229 5.19466 1.91174C6.8394 1.91174 8.48414 1.91175 10.1261 1.90846C10.2714 1.90846 10.3356 1.93039 10.3213 2.09486C10.3081 2.26559 10.3104 2.43717 10.3284 2.60747C10.3495 2.84121 10.4565 3.05884 10.6286 3.2184C10.8007 3.37795 11.0258 3.46812 11.2605 3.4715C11.425 3.48263 11.5903 3.47767 11.7539 3.4567C12.2117 3.37721 12.5285 2.99508 12.5488 2.51701C12.5554 2.35253 12.5521 2.18806 12.5488 2.02359C12.5488 1.95396 12.5549 1.91394 12.6453 1.90846C13.0993 1.89201 13.5335 1.9419 13.9063 2.2374C14.0972 2.38366 14.2512 2.57261 14.3559 2.78912C14.4607 3.00562 14.5132 3.24364 14.5094 3.48411C14.5154 4.09321 14.5028 4.70341 14.5165 5.31251C14.5203 5.49672 14.4299 5.48466 14.306 5.48466C12.0359 5.48393 9.76392 5.48393 7.49016 5.48466Z" fill="#EDEDED"/>
<path d="M10.8147 1.72483C10.8147 1.48525 10.8098 1.24621 10.8147 1.00717C10.824 0.678226 10.9951 0.508272 11.3257 0.495114C11.4074 0.495114 11.4901 0.491825 11.5713 0.495114C11.8635 0.511562 12.0499 0.68152 12.0554 0.970446C12.066 1.48214 12.066 1.99384 12.0554 2.50553C12.0488 2.79172 11.8503 2.9677 11.5658 2.97593C11.477 2.97593 11.3882 2.97593 11.2993 2.97593C11.0203 2.9677 10.8344 2.79994 10.8207 2.52034C10.8076 2.25444 10.8174 1.98799 10.8174 1.72154L10.8147 1.72483Z" fill="#EDEDED"/>
<path d="M4.17101 1.7182C4.17101 1.96436 4.1743 2.21162 4.17101 2.45614C4.16553 2.79002 3.97858 2.97533 3.64963 2.97972C3.56081 2.97972 3.47145 2.98355 3.38318 2.97972C3.13757 2.96601 2.94458 2.80098 2.938 2.55756C2.92594 2.01151 2.92594 1.46509 2.938 0.918306C2.94294 0.688591 3.11509 0.530154 3.3448 0.505483C3.45408 0.494337 3.56407 0.49177 3.67375 0.497806C3.98515 0.510964 4.16717 0.690237 4.1721 1.00164C4.17539 1.23958 4.17101 1.47917 4.17101 1.7182Z" fill="#EDEDED"/>
<path d="M7.50546 12.8844C7.20502 12.8844 6.9024 12.8844 6.60305 12.8844C6.36347 12.8844 6.27411 12.801 6.27411 12.5686C6.27191 11.96 6.27191 11.3515 6.27411 10.7429C6.27411 10.5121 6.36402 10.4249 6.60305 10.4244C7.20466 10.4222 7.80645 10.4222 8.40842 10.4244C8.65184 10.4244 8.73737 10.5132 8.73737 10.7626C8.73737 11.358 8.73737 11.9531 8.73737 12.5477C8.73737 12.8054 8.65513 12.8833 8.38978 12.8844C8.09373 12.8854 7.79987 12.8844 7.50546 12.8844Z" fill="black"/>
<path d="M11.0203 7.21106C11.3212 7.21106 11.6233 7.21106 11.9227 7.21106C12.1326 7.21106 12.2215 7.29878 12.2231 7.5115C12.2264 8.12663 12.2264 8.74176 12.2231 9.35689C12.2231 9.58003 12.1337 9.66556 11.9084 9.66665C11.2999 9.66958 10.6913 9.66958 10.0828 9.66665C9.84701 9.66665 9.76642 9.58167 9.76587 9.34264C9.76587 8.73408 9.76587 8.12571 9.76587 7.51753C9.76587 7.29274 9.8492 7.2127 10.0767 7.21106C10.3914 7.20886 10.7061 7.21106 11.0203 7.21106Z" fill="black"/>
<path d="M2.77416 8.44077C2.77416 8.13924 2.77416 7.83771 2.77416 7.53672C2.77416 7.29001 2.84873 7.21215 3.08667 7.21161C3.69631 7.20941 4.30596 7.20941 4.91561 7.21161C5.14094 7.21161 5.22646 7.29384 5.22811 7.52082C5.2314 8.13047 5.2314 8.74011 5.22811 9.34976C5.22811 9.58715 5.14258 9.66665 4.89916 9.66775C4.29682 9.66775 3.69375 9.66775 3.08995 9.66775C2.85092 9.66775 2.77307 9.58606 2.77197 9.34538C2.77252 9.0433 2.77416 8.74176 2.77416 8.44077Z" fill="black"/>
<path d="M2.77417 11.6469C2.77417 11.3454 2.77417 11.0439 2.77417 10.7423C2.77417 10.5132 2.85531 10.426 3.07735 10.4249C3.69358 10.4209 4.30999 10.4209 4.92658 10.4249C5.13711 10.4249 5.22647 10.5154 5.22757 10.7286C5.23195 11.3456 5.23195 11.9622 5.22757 12.5784C5.22757 12.801 5.13656 12.8832 4.90959 12.8838C4.29994 12.886 3.69029 12.886 3.08064 12.8838C2.85586 12.8838 2.77581 12.7999 2.77417 12.5713C2.77252 12.2632 2.77417 11.955 2.77417 11.6469Z" fill="black"/>
<path d="M7.5225 7.2111C7.82294 7.2111 8.12557 7.2111 8.42491 7.2111C8.64805 7.2111 8.73412 7.29663 8.73467 7.52086C8.73723 8.13599 8.73723 8.75131 8.73467 9.36681C8.73467 9.57514 8.64311 9.6656 8.43204 9.6667C7.81691 9.66998 7.20159 9.66998 6.58609 9.6667C6.36351 9.6667 6.27688 9.57733 6.27633 9.35365C6.27377 8.7451 6.27377 8.13654 6.27633 7.52799C6.27633 7.29334 6.36186 7.2122 6.5998 7.21055C6.90682 7.20946 7.21439 7.21055 7.5225 7.2111Z" fill="black"/>
<path d="M10.8087 12.642C10.7696 12.6448 10.7304 12.6385 10.6941 12.6235C10.6579 12.6086 10.6256 12.5854 10.5998 12.5559C10.3575 12.3238 10.1146 12.0926 9.87121 11.8624C9.74895 11.7461 9.71441 11.614 9.83832 11.4863C9.96222 11.3585 10.0971 11.3953 10.2166 11.5099C10.3602 11.6469 10.5094 11.7785 10.6448 11.9232C10.7479 12.0329 10.8164 12.0482 10.9337 11.9282C11.3065 11.5444 11.6952 11.1809 12.0752 10.8059C12.176 10.7061 12.284 10.6469 12.4222 10.7165C12.4565 10.7334 12.4861 10.7584 12.5086 10.7893C12.531 10.8202 12.5456 10.8561 12.551 10.8939C12.5564 10.9318 12.5525 10.9703 12.5396 11.0063C12.5267 11.0423 12.5052 11.0745 12.477 11.1003C11.9776 11.5976 11.4704 12.0872 10.9655 12.5778C10.946 12.5998 10.9218 12.6171 10.8946 12.6282C10.8674 12.6393 10.838 12.644 10.8087 12.642Z" fill="black"/>
<path d="M8.24225 11.6666C8.24225 11.8574 8.23293 12.0504 8.24554 12.2401C8.25486 12.3749 8.20278 12.3958 8.08106 12.3936C7.69181 12.387 7.30237 12.387 6.91275 12.3936C6.8031 12.3936 6.76034 12.3695 6.76253 12.2488C6.77021 11.853 6.77021 11.457 6.76253 11.0608C6.76253 10.9407 6.80036 10.9122 6.91385 10.9144C7.30968 10.9206 7.7057 10.9206 8.1019 10.9144C8.21155 10.9144 8.24554 10.9424 8.2417 11.052C8.23677 11.2565 8.24225 11.4616 8.24225 11.6666Z" fill="#EDEDED"/>
<path d="M10.9792 9.17494C10.7813 9.17494 10.5828 9.17001 10.3844 9.17494C10.2857 9.17823 10.2555 9.14588 10.2566 9.0472C10.2614 8.63711 10.2614 8.22684 10.2566 7.81639C10.2566 7.72922 10.2785 7.69852 10.3707 7.69961C10.7807 7.70455 11.193 7.70619 11.6009 7.69961C11.7171 7.69961 11.7341 7.74402 11.733 7.84435C11.7283 8.24092 11.7283 8.63748 11.733 9.03404C11.733 9.1393 11.7045 9.17933 11.5949 9.17549C11.3898 9.16946 11.1842 9.17494 10.9792 9.17494Z" fill="#EDEDED"/>
<path d="M3.99939 7.70391C4.1984 7.70391 4.39687 7.70884 4.59533 7.70391C4.69731 7.70062 4.74117 7.72365 4.73897 7.83768C4.73239 8.23461 4.73459 8.63209 4.73897 9.02957C4.73897 9.12551 4.72636 9.18088 4.60739 9.17924C4.20334 9.17266 3.79928 9.17376 3.39467 9.17924C3.29544 9.17924 3.26529 9.14909 3.26639 9.0504C3.27077 8.63995 3.27077 8.22913 3.26639 7.81795C3.26639 7.7242 3.29708 7.70226 3.38425 7.70446C3.58875 7.70775 3.79435 7.70391 3.99939 7.70391Z" fill="#EDEDED"/>
<path d="M3.97103 12.3914C3.79998 12.3914 3.62838 12.3821 3.45843 12.3914C3.31533 12.4013 3.25612 12.3739 3.2627 12.2089C3.2775 11.8251 3.27147 11.4413 3.2627 11.0576C3.2627 10.9413 3.29449 10.9073 3.41127 10.909C3.80107 10.9161 4.19088 10.915 4.58068 10.909C4.69033 10.909 4.73912 10.9293 4.73693 11.0532C4.72999 11.4501 4.72999 11.8469 4.73693 12.2434C4.73693 12.3657 4.69526 12.3925 4.58397 12.3882C4.38057 12.3854 4.17608 12.3914 3.97103 12.3914Z" fill="#EDEDED"/>
<path d="M8.24235 8.46492C8.24235 8.65625 8.23687 8.84869 8.24235 9.03948C8.24728 9.14913 8.20836 9.17873 8.102 9.17709C7.70507 9.17161 7.30815 9.17051 6.91176 9.17709C6.79279 9.17709 6.76209 9.13926 6.76373 9.02522C6.77031 8.62829 6.76867 8.23137 6.76373 7.83498C6.76373 7.74507 6.77525 7.69957 6.88325 7.70121C7.29334 7.70725 7.70562 7.70615 8.11461 7.70121C8.2122 7.70121 8.24455 7.72753 8.24126 7.82731C8.23742 8.04057 8.24235 8.25275 8.24235 8.46492Z" fill="#EDEDED"/>
</g>
<defs>
<clipPath id="clip0_1205_1060">
<rect width="15.0164" height="15" fill="white"/>
</clipPath>
</defs>
</svg>
