<svg width="32" height="32" viewBox="0 0 32 32" fill="none" xmlns="http://www.w3.org/2000/svg">
<circle opacity="0.18" cx="16" cy="16" r="16" fill="#EAEAEA"/>
<path d="M21.4909 18.5527C22.4043 18.5578 23.2912 18.4064 24.1531 18.1043C24.4031 18.0166 24.6361 18.0371 24.828 18.2321C25.0244 18.4315 25.0485 18.666 24.9463 18.9235C23.6585 22.178 21.308 24.1913 17.8692 24.8432C13.9678 25.5822 10.0199 23.6571 8.13237 20.1647C7.20088 18.441 6.81255 16.5951 7.08563 14.6529C7.60224 10.9821 9.61654 8.4627 13.0484 7.07023C13.3079 6.965 13.5504 6.964 13.7609 7.16443C13.9773 7.37037 13.9793 7.61539 13.8877 7.88797C12.7392 11.3083 13.9072 14.943 16.8299 17.0611C18.1472 18.0161 19.8719 18.5678 21.4909 18.5527Z" fill="#767676"/>
</svg>
