<?xml version="1.0" encoding="utf-8"?>
<!-- Generator: Adobe Illustrator 24.2.1, SVG Export Plug-In . SVG Version: 6.00 Build 0)  -->
<svg version="1.1" id="Layer_1" xmlns="http://www.w3.org/2000/svg" xmlns:xlink="http://www.w3.org/1999/xlink" x="0px" y="0px"
	 viewBox="0 0 33 32" style="enable-background:new 0 0 33 32;" xml:space="preserve">
<style type="text/css">
	.st0{clip-path:url(#SVGID_2_);}
	.st1{fill:#FDC688;}
	.st2{fill:#646464;}
	.st3{fill:#FFFFFF;}
</style>
<g>
	<defs>
		<rect id="SVGID_1_" x="0.4" width="32.2" height="32"/>
	</defs>
	<clipPath id="SVGID_2_">
		<use xlink:href="#SVGID_1_"  style="overflow:visible;"/>
	</clipPath>
	<g class="st0">
		<path class="st1" d="M18.6,25c0-0.3-0.1-0.7,0-0.9c0.1-0.2,0.5-0.3,0.8-0.4c0.2-0.1,0.3-0.2,0.4-0.4c0.1-0.4,0.3-0.9,0.5-1.2
			c0.1-0.2,0.1-0.3,0-0.4c-0.1-0.3-0.4-0.6-0.4-0.9c0.1-0.3,0.4-0.5,0.7-0.7c0.6-0.6,0.6-0.6,1.4-0.3c0.3,0.1,0.4,0.1,0.7,0
			c0.4-0.2,0.8-0.4,1.2-0.5c0.2,0,0.2-0.1,0.3-0.3c0.1-0.3,0.2-0.7,0.4-0.9c0.2-0.2,0.7-0.1,1-0.1c0.9,0,0.9,0,1.2,0.8
			c0.1,0.2,0.2,0.4,0.4,0.4c0.4,0.1,0.9,0.3,1.2,0.5c0.1,0.1,0.3,0.1,0.4,0c0.3-0.1,0.6-0.4,0.9-0.4c0.3,0.1,0.5,0.4,0.7,0.7
			c0.6,0.6,0.6,0.6,0.3,1.4c-0.1,0.2-0.1,0.4,0,0.6c0.2,0.4,0.4,0.8,0.5,1.2c0,0.2,0.1,0.3,0.3,0.3c0,0,0,0,0,0
			c0.3,0.1,0.7,0.1,0.9,0.4c0.1,0.2,0.1,0.6,0,0.9c0,0.3,0.1,0.7-0.1,0.9c-0.2,0.2-0.5,0.2-0.8,0.3c-0.2,0.1-0.3,0.2-0.4,0.4
			c-0.1,0.5-0.3,0.9-0.5,1.3c-0.1,0.2-0.1,0.3,0,0.4c0.1,0.3,0.4,0.6,0.3,0.9c-0.1,0.3-0.4,0.5-0.7,0.7c-0.2,0.2-0.4,0.5-0.7,0.6
			c-0.3,0-0.5-0.2-0.8-0.3c-0.2-0.1-0.4-0.1-0.6,0c-0.4,0.2-0.8,0.4-1.2,0.5c-0.2,0-0.3,0.1-0.3,0.3c-0.1,0.3-0.2,0.7-0.4,0.9
			c-0.2,0.2-0.7,0.1-1,0.1c-0.9,0-0.9,0-1.2-0.8c-0.1-0.3-0.2-0.4-0.5-0.5c-0.4-0.1-0.8-0.3-1.2-0.5c-0.2-0.1-0.3-0.1-0.5,0
			c-0.3,0.1-0.6,0.4-0.9,0.3c-0.3-0.1-0.5-0.4-0.7-0.6c-0.2-0.2-0.5-0.4-0.6-0.7c0-0.2,0.2-0.6,0.3-0.8c0.1-0.2,0.1-0.4,0-0.6
			c-0.2-0.4-0.4-0.8-0.5-1.2c0-0.2-0.1-0.3-0.3-0.3c0,0,0,0-0.1,0c-0.3-0.1-0.7-0.2-0.8-0.4C18.5,25.7,18.6,25.3,18.6,25z"/>
		<path class="st1" d="M13.7,21.6c0-2,0-4.1,0-6.1c0-0.5,0.1-0.6,0.6-0.6c0.8,0,1.5,0,2.3,0c0.4,0,0.5,0.1,0.5,0.5
			c0,4.1,0,8.2,0,12.3c0,0.4-0.1,0.5-0.5,0.5c-0.8,0-1.6,0-2.4,0c-0.5,0-0.5-0.1-0.5-0.5C13.7,25.6,13.7,23.6,13.7,21.6z"/>
		<path class="st1" d="M21.5,6c-0.3,0-0.6,0-0.8,0c-0.3,0-0.5-0.2-0.6-0.5c0-0.3,0.2-0.5,0.5-0.6c0.9-0.1,1.8-0.1,2.7-0.1
			c0.4,0,0.6,0.3,0.5,0.6c-0.1,0.9-0.2,1.7-0.4,2.6c-0.1,0.3-0.3,0.5-0.6,0.5c-0.3,0-0.5-0.3-0.4-0.6c0-0.4,0.1-0.7,0.2-1.1
			c-0.5,0.4-1,0.9-1.5,1.3c-5,4.1-10.5,7.3-16.5,9.8c-1.1,0.4-2.2,0.8-3.3,1.2c-0.4,0.1-0.6,0.1-0.8-0.2c-0.2-0.3,0-0.7,0.4-0.8
			c1.3-0.5,2.6-1,3.9-1.5c6.1-2.6,11.7-5.9,16.7-10.3c0,0,0.1-0.1,0.2-0.1C21.7,6,21.6,6,21.5,6z"/>
		<path class="st1" d="M10.9,23.3c0,1.4,0,2.9,0,4.3c0,0.5-0.1,0.5-0.5,0.5c-0.8,0-1.6,0-2.3,0c-0.4,0-0.5-0.1-0.5-0.5
			c0-2.9,0-5.9,0-8.8c0-0.4,0.1-0.5,0.5-0.5c0.8,0,1.6,0,2.4,0c0.4,0,0.5,0.1,0.5,0.5C10.9,20.4,10.9,21.9,10.9,23.3z"/>
		<path class="st1" d="M29.5,13.6c0,1.5,0,3,0,4.4c0,0.4-0.5,0.7-0.9,0.6c-0.2-0.1-0.4-0.2-0.6-0.3c-0.2,0-0.2-0.1-0.3-0.3
			c-0.1-0.3-0.2-0.6-0.3-0.8c-0.1-0.2-0.2-0.3-0.4-0.3c-0.2,0-0.3,0-0.5,0c-0.2,0-0.3,0-0.3-0.3c0-0.9,0-1.7,0-2.6
			c0-1.6,0-3.3,0-4.9c0-0.5,0.1-0.5,0.5-0.5c0.8,0,1.5,0,2.3,0c0.4,0,0.5,0.1,0.5,0.5C29.5,10.6,29.5,12.1,29.5,13.6z"/>
		<path class="st1" d="M19.9,19.2c0-0.2,0-0.2,0-0.3c0-2.2,0-4.4,0-6.7c0-0.4,0.1-0.5,0.5-0.5c0.8,0,1.6,0,2.4,0
			c0.4,0,0.5,0.1,0.5,0.5c0,1.9,0,3.9,0,5.8c0,0.2-0.1,0.2-0.2,0.3c-0.5,0.3-1,0.3-1.5,0c-0.5-0.3-0.6-0.3-1,0.2
			C20.4,18.7,20.2,18.9,19.9,19.2z"/>
		<path class="st1" d="M4.6,25c0,0.9,0,1.8,0,2.7c0,0.4-0.1,0.5-0.5,0.5c-0.8,0-1.6,0-2.4,0c-0.4,0-0.5-0.1-0.5-0.5
			c0-1.8,0-3.7,0-5.5c0-0.3,0.1-0.5,0.5-0.5c0.8,0,1.6,0,2.4,0c0.4,0,0.4,0.1,0.4,0.5C4.6,23.1,4.6,24.1,4.6,25z"/>
		<path class="st1" d="M25.8,5.8C26,5.1,26.1,4.6,26.3,4c0.1-0.2,0-0.3-0.1-0.4c-0.4-0.3-0.9-0.7-1.3-1.1c-0.1-0.1-0.2-0.1-0.2-0.3
			c0-0.1,0.2-0.1,0.3-0.1c0.6,0,1.1-0.1,1.7-0.1c0.2,0,0.3-0.1,0.4-0.3c0.2-0.5,0.4-1,0.6-1.6c0-0.1,0.1-0.2,0.2-0.2
			C27.9,0,28,0.1,28,0.2c0.2,0.5,0.4,1,0.6,1.6c0.1,0.2,0.1,0.2,0.3,0.2c0.6,0,1.1,0,1.7,0.1c0.1,0,0.2,0,0.3,0.1
			c0.1,0.1-0.1,0.2-0.2,0.3c-0.4,0.3-0.8,0.7-1.3,1c-0.2,0.1-0.2,0.3-0.2,0.5c0.2,0.5,0.3,1,0.4,1.5c0,0.1,0.1,0.3,0,0.4
			c-0.1,0.1-0.2,0-0.4-0.1c-0.4-0.3-0.9-0.6-1.3-0.9c-0.2-0.1-0.4-0.1-0.6,0c-0.5,0.3-0.9,0.6-1.4,0.9c-0.1,0-0.1,0.1-0.2,0.1
			C25.8,5.9,25.8,5.8,25.8,5.8z"/>
		<path class="st2" d="M21.5,6c0.1,0,0.2-0.1,0.3,0c0,0,0,0.1-0.1,0.1C21.7,6,21.5,6.1,21.5,6z"/>
		<path class="st3" d="M25.6,28.3c-1.8,0-3.3-1.5-3.3-3.3c0-1.8,1.5-3.3,3.3-3.3c1.8,0,3.3,1.5,3.3,3.3
			C28.9,26.7,27.4,28.2,25.6,28.3z"/>
	</g>
</g>
</svg>
