<svg width="33" height="32" viewBox="0 0 33 32" fill="none" xmlns="http://www.w3.org/2000/svg">
<path d="M16.5 22.4C18.3133 22.4 20.3267 22.04 22.54 21.32C24.7533 20.6 28.0733 19.3333 32.5 17.52V16.92C32.5 15.56 31.9533 14.4667 30.86 13.64C29.7667 12.8133 28.5667 12.5867 27.26 12.96C26.8067 13.0933 26.3469 13.2533 25.8808 13.44C25.4147 13.6267 24.7944 13.8667 24.02 14.16C22.3933 14.8533 21.02 15.3333 19.9 15.6C18.78 15.8667 17.6467 16 16.5 16C15.3 16 14.14 15.8603 13.02 15.5808C11.9 15.3013 10.4867 14.8144 8.78 14.12C8.14 13.8533 7.58693 13.6336 7.1208 13.4608C6.65467 13.288 6.20773 13.1344 5.78 13C4.47333 12.5733 3.26693 12.7733 2.1608 13.6C1.05467 14.4267 0.501067 15.5333 0.5 16.92V17.44C3.99333 19.04 7.06 20.2667 9.7 21.12C12.34 21.9733 14.6067 22.4 16.5 22.4ZM16.5 32C20.18 32 23.4136 30.9931 26.2008 28.9792C28.988 26.9653 30.8744 24.3856 31.86 21.24C28.3667 22.7333 25.4333 23.8336 23.06 24.5408C20.6867 25.248 18.5 25.6011 16.5 25.6C14.4733 25.6 12.1603 25.2203 9.5608 24.4608C6.96133 23.7013 4.12773 22.6144 1.06 21.2C1.96667 24.48 3.79333 27.1003 6.54 29.0608C9.28667 31.0213 12.6067 32.0011 16.5 32ZM16.5 12.8C14.74 12.8 13.2333 12.1733 11.98 10.92C10.7267 9.66667 10.1 8.16 10.1 6.4C10.1 4.64 10.7267 3.13333 11.98 1.88C13.2333 0.626667 14.74 0 16.5 0C18.26 0 19.7667 0.626667 21.02 1.88C22.2733 3.13333 22.9 4.64 22.9 6.4C22.9 8.16 22.2733 9.66667 21.02 10.92C19.7667 12.1733 18.26 12.8 16.5 12.8Z" fill="white"/>
</svg>
