<svg width="34" height="32" viewBox="0 0 34 32" fill="none" xmlns="http://www.w3.org/2000/svg">
<path d="M23.1682 28.4486L19.9065 25.1869L18.1309 26.9626L23.1682 32L33.243 21.9252L31.4673 20.1495L23.1682 28.4486Z" fill="#E8E8E8"/>
<path d="M15.612 17.6308C17.003 17.6308 18.1306 16.5032 18.1306 15.1121C18.1306 13.7211 17.003 12.5934 15.612 12.5934C14.2209 12.5934 13.0933 13.7211 13.0933 15.1121C13.0933 16.5032 14.2209 17.6308 15.612 17.6308Z" fill="#E8E8E8"/>
<path d="M15.6122 22.6683C14.1178 22.6683 12.6569 22.2251 11.4143 21.3948C10.1717 20.5646 9.20323 19.3845 8.63133 18.0038C8.05943 16.6231 7.90979 15.1038 8.20134 13.6381C8.4929 12.1723 9.21254 10.826 10.2693 9.76922C11.326 8.71248 12.6724 7.99284 14.1381 7.70128C15.6039 7.40973 17.1231 7.55937 18.5038 8.13127C19.8845 8.70317 21.0646 9.67165 21.8949 10.9142C22.7252 12.1568 23.1683 13.6177 23.1683 15.1122C23.166 17.1155 22.3691 19.036 20.9526 20.4526C19.5361 21.8691 17.6155 22.6659 15.6122 22.6683ZM15.6122 10.0748C14.6159 10.0748 13.642 10.3702 12.8136 10.9237C11.9852 11.4773 11.3396 12.264 10.9583 13.1844C10.577 14.1049 10.4773 15.1178 10.6716 16.0949C10.866 17.0721 11.3458 17.9697 12.0503 18.6741C12.7548 19.3786 13.6523 19.8584 14.6295 20.0528C15.6066 20.2471 16.6195 20.1474 17.54 19.7661C18.4604 19.3848 19.2472 18.7392 19.8007 17.9108C20.3542 17.0824 20.6496 16.1085 20.6496 15.1122C20.648 13.7767 20.1167 12.4964 19.1724 11.552C18.228 10.6077 16.9477 10.0765 15.6122 10.0748Z" fill="#E8E8E8"/>
<path d="M30.7243 15.1122C30.7243 12.1233 29.838 9.20148 28.1775 6.7163C26.5169 4.23112 24.1567 2.29416 21.3953 1.15035C18.634 0.00654789 15.5954 -0.292723 12.6639 0.290383C9.73246 0.873489 7.03973 2.31278 4.92626 4.42626C2.81278 6.53973 1.37349 9.23246 0.790383 12.1639C0.207277 15.0954 0.506548 18.134 1.65035 20.8953C2.79416 23.6567 4.73112 26.0169 7.2163 27.6775C9.70148 29.338 12.6233 30.2243 15.6122 30.2243V27.7056C13.1214 27.7056 10.6866 26.967 8.61561 25.5833C6.54463 24.1995 4.93049 22.2326 3.97732 19.9315C3.02415 17.6303 2.77476 15.0982 3.26068 12.6553C3.7466 10.2124 4.94601 7.96847 6.70724 6.20724C8.46847 4.44601 10.7124 3.2466 13.1553 2.76068C15.5982 2.27476 18.1303 2.52415 20.4315 3.47732C22.7326 4.43049 24.6995 6.04463 26.0833 8.11561C27.467 10.1866 28.2056 12.6214 28.2056 15.1122H30.7243Z" fill="#E8E8E8"/>
</svg>
