<svg width="33" height="32" viewBox="0 0 33 32" fill="none" xmlns="http://www.w3.org/2000/svg">
<g clip-path="url(#clip0_1740_175)">
<path d="M24.6857 9.7988C24.6367 9.91459 24.5832 10.0473 24.5253 10.1782C24.3552 10.5613 24.0862 10.9318 24.0399 11.3291C23.9945 11.7201 24.3721 12.0452 24.5209 12.4202C24.6883 12.8406 24.8665 13.2584 24.9654 13.6993C25.0134 13.913 25.1221 14.0092 25.3181 14.0769C25.7242 14.2177 26.1179 14.3922 26.5241 14.5312C26.6916 14.5891 26.7361 14.6737 26.7343 14.8421C26.7263 15.6161 26.7254 16.391 26.7343 17.165C26.7361 17.3361 26.6835 17.4153 26.5188 17.4715C26.1019 17.6149 25.6957 17.7886 25.2816 17.9391C25.1123 18.0005 25.0224 18.0869 24.9734 18.2767C24.7836 19.0169 24.4959 19.7214 24.1005 20.377C24.0016 20.54 23.9998 20.6683 24.0791 20.8348C24.2644 21.2232 24.422 21.6231 24.6091 22.0106C24.6928 22.1843 24.6901 22.2965 24.5405 22.4399C23.9989 22.9619 23.4672 23.4945 22.9443 24.0352C22.8045 24.1795 22.694 24.1964 22.5159 24.11C22.0794 23.8998 21.6439 23.5996 21.1842 23.5479C20.7309 23.4963 20.3559 23.9416 19.9114 24.0931C19.6086 24.1964 19.3173 24.3514 19.0064 24.4048C18.6261 24.4707 18.4471 24.6694 18.3464 25.0221C18.2529 25.349 18.0872 25.6554 17.9875 25.9814C17.9224 26.1961 17.8093 26.237 17.6053 26.2344C16.8749 26.2219 16.1446 26.2165 15.4151 26.237C15.1683 26.2442 15.0703 26.1533 14.9964 25.9369C14.8584 25.5298 14.6882 25.1343 14.5404 24.7308C14.4905 24.5937 14.4183 24.5242 14.2678 24.4859C13.4955 24.2864 12.7607 23.9871 12.0766 23.5747C11.9466 23.4963 11.8424 23.5025 11.7097 23.564C11.2999 23.7537 10.8795 23.9221 10.4716 24.1171C10.3059 24.1964 10.2026 24.1857 10.0707 24.0494C9.53897 23.5016 8.9992 22.9619 8.4514 22.4301C8.31601 22.2983 8.30265 22.1958 8.38282 22.0302C8.57521 21.6338 8.73911 21.2232 8.92705 20.8241C8.9992 20.67 9.00454 20.5489 8.91191 20.3966C8.50752 19.733 8.21982 19.0169 8.02297 18.2669C7.97754 18.0923 7.89738 18.0059 7.73883 17.948C7.32464 17.7966 6.91758 17.6256 6.50162 17.4795C6.33327 17.4207 6.26023 17.3485 6.2638 17.1544C6.27716 16.391 6.27805 15.6277 6.2638 14.8643C6.26023 14.6586 6.33416 14.5802 6.51765 14.5169C6.93451 14.3735 7.34068 14.2007 7.75397 14.0484C7.90094 13.9941 7.97576 13.9157 8.01851 13.7527C8.21625 12.9911 8.5093 12.2661 8.91903 11.5918C9.00454 11.4511 9.00276 11.3389 8.93506 11.1946C8.74801 10.7955 8.58323 10.3849 8.39262 9.98852C8.30889 9.81483 8.31334 9.7026 8.46209 9.56008C9.01167 9.031 9.54966 8.48944 10.0832 7.94254C10.2043 7.81783 10.2996 7.80358 10.4555 7.87751C10.9134 8.09396 11.3721 8.42531 11.8477 8.45826C12.3118 8.49122 12.7126 8.03072 13.1838 7.87662C13.4768 7.78132 13.7592 7.63078 14.0594 7.58268C14.4005 7.52835 14.5341 7.3315 14.6321 7.04291C14.7524 6.6884 14.91 6.34637 15.0285 5.99097C15.0882 5.81104 15.1781 5.76294 15.3616 5.76562C16.125 5.77631 16.8883 5.77809 17.6516 5.76473C17.8423 5.76116 17.9198 5.82618 17.9794 5.99898C18.1237 6.41584 18.2947 6.8229 18.4471 7.23619C18.5041 7.39118 18.5833 7.47936 18.7615 7.52479C19.5124 7.71718 20.2276 8.00578 20.893 8.40838C21.0399 8.49745 21.1611 8.50814 21.3205 8.43154C21.7276 8.23558 22.148 8.06724 22.5568 7.87395C22.6967 7.80804 22.7893 7.80626 22.9042 7.92383C23.4538 8.48498 24.0132 9.03634 24.5672 9.59304C24.618 9.64559 24.6928 9.68746 24.6857 9.7988Z" fill="white"/>
<path d="M16.5112 0.000887871C19.8033 0.0311723 22.8228 0.943269 25.5377 2.81734C25.8156 3.00885 25.9394 3.00796 26.0837 2.69353C26.2307 2.37377 26.4285 2.07805 26.6066 1.77342C26.6502 1.6986 26.693 1.60686 26.7963 1.60775C26.9166 1.60953 26.954 1.7084 26.9923 1.80281C27.5267 3.14424 28.0594 4.48655 28.6009 5.8262C28.6962 6.06313 28.6196 6.14507 28.388 6.17803C26.9762 6.37577 25.5662 6.58064 24.1553 6.78283C24.0484 6.79797 23.9335 6.84696 23.8543 6.72671C23.7741 6.60468 23.8756 6.52007 23.9246 6.42832C24.0137 6.26354 24.1099 6.10232 24.2034 5.93932C24.4724 5.47258 24.4724 5.47347 24.0395 5.17597C18.7032 1.51957 11.7351 2.1306 7.15595 6.69643C5.02178 8.82436 3.78279 11.4164 3.40869 14.4163C3.18156 16.2423 3.33921 18.0344 3.87988 19.7909C3.95648 20.0394 3.9066 20.1472 3.67769 20.2701C3.02657 20.6202 2.38792 20.9943 1.75819 21.3808C1.5364 21.5171 1.46336 21.4859 1.3823 21.2446C0.607376 18.9242 0.319673 16.5549 0.618065 14.1206C1.05452 10.5586 2.51263 7.47492 4.99595 4.89272C7.44009 2.35061 10.4338 0.819459 13.9014 0.217333C14.7618 0.0676919 15.6338 -0.00801933 16.5112 0.000887871Z" fill="white"/>
<path d="M16.4249 32C13.1577 31.9679 10.1159 31.022 7.37516 29.1301C7.1596 28.9814 7.08033 28.9938 6.96632 29.221C6.79352 29.5657 6.58865 29.8944 6.39358 30.2275C6.34459 30.3121 6.2956 30.4163 6.17358 30.3967C6.07649 30.3807 6.04086 30.2934 6.00701 30.2079C5.46813 28.8567 4.93013 27.5046 4.38679 26.1551C4.30663 25.9565 4.37254 25.8603 4.57117 25.8318C6.00434 25.6269 7.43662 25.422 8.86978 25.219C8.96598 25.2056 9.07109 25.1726 9.14234 25.276C9.21449 25.382 9.13789 25.4639 9.09068 25.5476C8.94995 25.797 8.8199 26.0553 8.65868 26.2914C8.53309 26.474 8.5901 26.5622 8.74776 26.6753C10.4072 27.8644 12.2376 28.6563 14.248 28.9992C16.9121 29.4534 19.5041 29.1551 21.95 28.0025C26.1524 26.0215 28.6714 22.7054 29.5104 18.1377C29.8801 16.1256 29.7153 14.1304 29.1158 12.1744C29.0562 11.9784 29.066 11.8706 29.2673 11.7602C29.9451 11.3905 30.614 11.004 31.2758 10.6067C31.4691 10.4909 31.5306 10.5052 31.6054 10.7278C32.391 13.0446 32.6814 15.4139 32.3848 17.8483C31.9189 21.665 30.3032 24.9161 27.5304 27.574C25.1076 29.8961 22.2137 31.2883 18.8993 31.8085C18.0994 31.9341 17.2951 31.992 16.4249 32Z" fill="white"/>
<path d="M23.0743 16.0009C23.0743 19.6332 20.126 22.5771 16.491 22.5735C12.8604 22.5708 9.92102 19.6199 9.92726 15.9822C9.9326 12.365 12.8729 9.42916 16.4928 9.42648C20.1287 9.42381 23.0752 12.3668 23.0743 16.0009Z" fill="#6A4A94"/>
<path d="M12.2748 14.8982C12.2748 14.3228 12.2838 13.7482 12.2713 13.1728C12.265 12.894 12.3604 12.7239 12.6276 12.6126C13.8274 12.1111 15.0218 11.5972 16.2145 11.0797C16.4113 10.9941 16.5833 10.9897 16.7828 11.077C17.9755 11.5954 19.1708 12.1067 20.3679 12.6135C20.579 12.7025 20.7287 12.8166 20.7251 13.0704C20.7073 14.2533 20.783 15.4388 20.6895 16.619C20.514 18.8254 18.8038 20.6807 16.6135 21.0138C16.0604 21.0976 15.5286 20.8375 15.0405 20.5819C13.2208 19.6297 12.314 18.1056 12.2757 16.0597C12.2686 15.6722 12.2748 15.2847 12.2748 14.8982Z" fill="#6A4A94"/>
<path d="M18.5173 15.0068C18.5147 15.2242 18.4354 15.3622 18.3062 15.4789C17.6266 16.0926 16.9515 16.7126 16.2674 17.3218C16.0073 17.5534 15.7249 17.5445 15.4711 17.3031C15.1914 17.0368 14.9171 16.7642 14.6525 16.4828C14.4218 16.2378 14.4227 15.9225 14.6347 15.7132C14.8529 15.4958 15.1388 15.511 15.4061 15.7292C15.586 15.8771 15.7009 16.1977 15.9369 16.1532C16.132 16.1158 16.287 15.8682 16.4589 15.7132C16.8437 15.3649 17.2276 15.0166 17.6115 14.6675C17.7941 14.5018 18.0052 14.4679 18.2243 14.5677C18.4229 14.6577 18.5156 14.8287 18.5173 15.0068Z" fill="#FEFEFE"/>
</g>
<defs>
<clipPath id="clip0_1740_175">
<rect width="31.9955" height="32" fill="white" transform="translate(0.502441)"/>
</clipPath>
</defs>
</svg>
