<?xml version="1.0" encoding="utf-8"?>
<!-- Generator: Adobe Illustrator 24.2.1, SVG Export Plug-In . SVG Version: 6.00 Build 0)  -->
<svg version="1.1" id="Layer_1" xmlns="http://www.w3.org/2000/svg" xmlns:xlink="http://www.w3.org/1999/xlink" x="0px" y="0px"
	 viewBox="0 0 33 32" style="enable-background:new 0 0 33 32;" xml:space="preserve">
<style type="text/css">
	.st0{fill:#EC008C;}
</style>
<path class="st0" d="M29.8,26.3c-1.7-3-4.4-5.4-7.6-6.7c1.6-1.2,2.8-2.9,3.4-4.8c0.6-1.9,0.6-3.9-0.1-5.8c-0.6-1.9-1.8-3.5-3.5-4.7
	c-1.6-1.2-3.6-1.8-5.6-1.8s-3.9,0.6-5.6,1.8C9.3,5.5,8.1,7.1,7.5,9c-0.6,1.9-0.6,3.9-0.1,5.8s1.8,3.6,3.4,4.8
	c-3.2,1.3-5.9,3.6-7.6,6.7C3.1,26.4,3,26.6,3,26.8c0,0.2,0,0.4,0,0.6c0,0.2,0.1,0.4,0.3,0.5c0.1,0.2,0.3,0.3,0.4,0.4
	c0.2,0.1,0.4,0.2,0.6,0.2c0.2,0,0.4,0,0.6,0c0.2-0.1,0.4-0.1,0.5-0.3s0.3-0.3,0.4-0.5c2.3-3.9,6.3-6.3,10.7-6.3
	c4.4,0,8.4,2.3,10.7,6.3c0.2,0.3,0.5,0.6,0.9,0.7c0.4,0.1,0.8,0,1.1-0.2c0.3-0.2,0.6-0.5,0.7-0.9C30,27,30,26.6,29.8,26.3z M10,12
	c0-1.3,0.4-2.5,1.1-3.6C11.8,7.3,12.8,6.5,14,6c1.2-0.5,2.5-0.6,3.8-0.4c1.3,0.3,2.4,0.9,3.3,1.8c0.9,0.9,1.5,2.1,1.8,3.3
	c0.3,1.3,0.1,2.6-0.4,3.8c-0.5,1.2-1.3,2.2-2.4,2.9c-1.1,0.7-2.3,1.1-3.6,1.1c-1.7,0-3.4-0.7-4.6-1.9C10.7,15.4,10,13.7,10,12z"/>
</svg>
