<?xml version="1.0" encoding="utf-8"?>
<!-- Generator: Adobe Illustrator 24.2.1, SVG Export Plug-In . SVG Version: 6.00 Build 0)  -->
<svg version="1.1" id="Layer_1" xmlns="http://www.w3.org/2000/svg" xmlns:xlink="http://www.w3.org/1999/xlink" x="0px" y="0px"
	 viewBox="0 0 35 34" style="enable-background:new 0 0 35 34;" xml:space="preserve">
<style type="text/css">
	.st0{fill:#97C253;}
	.st1{fill:#97C253;stroke:#FDC688;stroke-miterlimit:10;}
	.st2{fill:none;stroke:#97C253;stroke-width:2;stroke-miterlimit:10;}
	.st3{fill:none;stroke:#97C253;stroke-width:2;stroke-linecap:round;stroke-linejoin:round;}
	.st4{fill:none;stroke:#97C253;stroke-miterlimit:10;}
	.st5{fill:#97C253;stroke:#97C253;stroke-miterlimit:10;}
</style>
<path class="st0" d="M7,6.2c1.1,0,2-0.9,2-2s-0.9-2-2-2s-2,0.9-2,2S6,6.2,7,6.2z"/>
<path class="st1" d="M29.9,12.3c1.1,0,2-0.9,2-2s-0.9-2-2-2s-2,0.9-2,2S28.8,12.3,29.9,12.3z"/>
<path class="st0" d="M4.5,9.9C5.1,9.4,5.8,9.1,6.6,9h0.2c0.5,0,1.1,0.1,1.6,0.3s1,0.5,1.4,0.9s0.7,1,0.8,1.6l0.3,1.7H3l0.1-1.1
	C3.3,11.4,3.8,10.5,4.5,9.9 M27.1,16.2l0.4-0.3c0.5-0.5,1.2-0.7,1.9-0.7h0.4c0.5,0,1,0.1,1.5,0.2c0.5,0.2,0.9,0.5,1.3,0.8
	c0.5,0.5,0.8,1.1,0.9,1.7l0.3,1.6h-7.9l0.2-1.4C26.2,17.3,26.6,16.7,27.1,16.2z M10.7,29.2c0.4-0.3,0.8-0.5,1.3-0.5h0.3
	c0.7,0,1.3,0.1,1.9,0.3c0.6,0.2,1.2,0.6,1.7,1c0.3,0.3,0.5,0.6,0.5,1l0.3,2H9l0.1-0.6C9.2,31.1,9.8,30,10.7,29.2z"/>
<path class="st2" d="M7,6.2c1.1,0,2-0.9,2-2s-0.9-2-2-2s-2,0.9-2,2S6,6.2,7,6.2z"/>
<path class="st3" d="M3.1,12.8c0,0,0.7-2.8,2-3.5s2.6-0.7,3.9,0s2,3.5,2,3.5"/>
<path class="st2" d="M29.9,12.3c1.1,0,2-0.9,2-2s-0.9-2-2-2s-2,0.9-2,2S28.8,12.3,29.9,12.3z"/>
<path class="st4" d="M12.9,25.8c1.1,0,2-0.9,2-2s-0.9-2-2-2s-2,0.9-2,2S11.8,25.8,12.9,25.8z"/>
<path class="st3" d="M26,18.8c0,0,0.7-2.8,2-3.5s2.6-0.7,3.9,0c1.3,0.7,2,3.5,2,3.5"/>
<path class="st3" d="M9,32.3c0,0,0.7-2.8,2-3.5s2.6-0.7,3.9,0s2,3.5,2,3.5 M27.6,6.3C24.9,3.1,20.8,1,16.2,1c-1.8,0-3.5,0.3-5.1,0.9
	 M19.1,30.8c5.4-1,9.7-4.9,11.4-10.1 M1.2,14.7c0,0.4-0.1,0.9-0.1,1.3c0,5.2,2.6,9.8,6.7,12.5"/>
<path class="st5" d="M12.9,25.8c1.1,0,2-0.9,2-2s-0.9-2-2-2s-2,0.9-2,2S11.8,25.8,12.9,25.8z"/>
</svg>
