<svg width="33" height="32" viewBox="0 0 33 32" fill="none" xmlns="http://www.w3.org/2000/svg">
<path d="M16.5002 0C17.0307 0 17.5394 0.210714 17.9144 0.585786C18.2895 0.960859 18.5002 1.46957 18.5002 2V12.536L27.6242 7.268C27.8518 7.1346 28.1035 7.04753 28.3648 7.0118C28.6261 6.97607 28.8919 6.99238 29.1469 7.0598C29.4019 7.12722 29.6411 7.24441 29.8506 7.40463C30.0601 7.56485 30.2359 7.76492 30.3678 7.99334C30.4996 8.22177 30.585 8.47402 30.619 8.73558C30.653 8.99714 30.635 9.26284 30.5659 9.51738C30.4967 9.77193 30.378 10.0103 30.2164 10.2187C30.0548 10.4272 29.8535 10.6016 29.6242 10.732L20.5002 16L29.6242 21.268C29.8535 21.3984 30.0548 21.5728 30.2164 21.7813C30.378 21.9897 30.4967 22.2281 30.5659 22.4826C30.635 22.7372 30.653 23.0029 30.619 23.2644C30.585 23.526 30.4996 23.7782 30.3678 24.0067C30.2359 24.2351 30.0601 24.4352 29.8506 24.5954C29.6411 24.7556 29.4019 24.8728 29.1469 24.9402C28.8919 25.0076 28.6261 25.0239 28.3648 24.9882C28.1035 24.9525 27.8518 24.8654 27.6242 24.732L18.5002 19.464V30C18.5002 30.5304 18.2895 31.0391 17.9144 31.4142C17.5394 31.7893 17.0307 32 16.5002 32C15.9698 32 15.4611 31.7893 15.086 31.4142C14.7109 31.0391 14.5002 30.5304 14.5002 30V19.464L5.37624 24.732C5.14869 24.8654 4.89701 24.9525 4.63569 24.9882C4.37436 25.0239 4.10854 25.0076 3.85354 24.9402C3.59854 24.8728 3.3594 24.7556 3.14988 24.5954C2.94035 24.4352 2.76459 24.2351 2.63271 24.0067C2.50083 23.7782 2.41543 23.526 2.38143 23.2644C2.34743 23.0029 2.36551 22.7372 2.43462 22.4826C2.50372 22.2281 2.6225 21.9897 2.7841 21.7813C2.9457 21.5728 3.14694 21.3984 3.37624 21.268L12.5002 16L3.37624 10.732C2.92062 10.4649 2.58915 10.0284 2.45416 9.51784C2.31917 9.00725 2.39161 8.46399 2.65569 8.00661C2.91976 7.54924 3.35402 7.21488 3.86371 7.0765C4.37339 6.93813 4.91712 7.00697 5.37624 7.268L14.5002 12.536V2C14.5002 1.46957 14.7109 0.960859 15.086 0.585786C15.4611 0.210714 15.9698 0 16.5002 0Z" fill="white"/>
</svg>
