<svg width="33" height="32" viewBox="0 0 33 32" fill="none" xmlns="http://www.w3.org/2000/svg">
<path d="M29.7973 26.25C28.0835 23.2421 25.4074 20.8984 22.1998 19.5962C23.7949 18.3999 24.9732 16.732 25.5677 14.8288C26.1622 12.9256 26.1428 10.8836 25.5123 8.99208C24.8818 7.10052 23.6721 5.45529 22.0546 4.28945C20.437 3.1236 18.4937 2.49625 16.4998 2.49625C14.5059 2.49625 12.5626 3.1236 10.9451 4.28945C9.32754 5.45529 8.11784 7.10052 7.48732 8.99208C6.8568 10.8836 6.83742 12.9256 7.43193 14.8288C8.02644 16.732 9.2047 18.3999 10.7998 19.5962C7.59221 20.8984 4.91612 23.2421 3.20231 26.25C3.09612 26.4207 3.02534 26.6111 2.99419 26.8098C2.96303 27.0084 2.97214 27.2113 3.02096 27.4064C3.06979 27.6014 3.15733 27.7847 3.2784 27.9452C3.39946 28.1058 3.55157 28.2404 3.72568 28.341C3.89979 28.4416 4.09235 28.5061 4.29191 28.5308C4.49147 28.5555 4.69396 28.5398 4.88733 28.4847C5.08071 28.4296 5.26103 28.3361 5.41757 28.2099C5.57411 28.0837 5.70367 27.9273 5.79856 27.75C8.06356 23.835 12.0636 21.5 16.4998 21.5C20.9361 21.5 24.9361 23.8362 27.2011 27.75C27.4067 28.0807 27.7329 28.3184 28.1106 28.4129C28.4884 28.5075 28.8881 28.4514 29.2252 28.2566C29.5624 28.0618 29.8106 27.7436 29.9173 27.3691C30.0241 26.9946 29.9811 26.5933 29.7973 26.25ZM9.99981 12C9.99981 10.7144 10.381 9.45771 11.0953 8.38879C11.8095 7.31987 12.8246 6.48675 14.0124 5.99478C15.2001 5.50281 16.507 5.37409 17.7679 5.62489C19.0288 5.8757 20.187 6.49476 21.096 7.4038C22.005 8.31284 22.6241 9.47103 22.8749 10.7319C23.1257 11.9928 22.997 13.2997 22.505 14.4874C22.0131 15.6752 21.1799 16.6903 20.111 17.4045C19.0421 18.1188 17.7854 18.5 16.4998 18.5C14.7765 18.498 13.1244 17.8126 11.9058 16.594C10.6873 15.3754 10.0018 13.7233 9.99981 12Z" fill="white"/>
</svg>
