<svg width="39" height="38" viewBox="0 0 39 38" fill="none" xmlns="http://www.w3.org/2000/svg">
<rect opacity="0.15" x="0.457031" width="37.8646" height="37.8646" rx="18.9323" fill="#EC008C"/>
<path fill-rule="evenodd" clip-rule="evenodd" d="M15.9913 25.2431H13.0786V16.5051H15.9913V25.2431V25.2431Z" fill="#EC008C"/>
<path fill-rule="evenodd" clip-rule="evenodd" d="M14.5263 14.5634H14.5097C13.6405 14.5634 13.0786 13.9158 13.0786 13.1065C13.0786 12.2801 13.6576 11.6506 14.5433 11.6506C15.429 11.6506 15.9745 12.2801 15.9913 13.1065C15.9913 13.9158 15.429 14.5634 14.5263 14.5634V14.5634Z" fill="#EC008C"/>
<path fill-rule="evenodd" clip-rule="evenodd" d="M26.671 25.2429H23.8089V20.6754C23.8089 19.5282 23.3947 18.7453 22.3585 18.7453C21.5678 18.7453 21.0968 19.2731 20.8899 19.7828C20.8143 19.9655 20.7957 20.22 20.7957 20.4752V25.2431H17.9331C17.9331 25.2431 17.9708 17.5069 17.9331 16.7058H20.7957V17.9151C21.1756 17.3338 21.8559 16.5051 23.3756 16.5051C25.2591 16.5051 26.6711 17.7256 26.6711 20.3479L26.671 25.2429V25.2429Z" fill="#EC008C"/>
</svg>
