<svg width="39" height="38" viewBox="0 0 39 38" fill="none" xmlns="http://www.w3.org/2000/svg">
<rect opacity="0.15" x="0.914062" width="37.8647" height="37.8646" rx="18.9323" fill="#EC008C"/>
<path fill-rule="evenodd" clip-rule="evenodd" d="M19.6641 16.4334L19.6915 16.8953L19.2355 16.8387C17.5757 16.6219 16.1257 15.8866 14.8945 14.6516L14.2926 14.0388L14.1376 14.4913C13.8092 15.5001 14.019 16.5653 14.703 17.2818C15.0678 17.6778 14.9857 17.7343 14.3564 17.4986C14.1376 17.4232 13.946 17.3667 13.9278 17.3949C13.864 17.4609 14.0828 18.3188 14.2561 18.6582C14.4932 19.1295 14.9766 19.5915 15.5055 19.8649L15.9524 20.0817L15.4234 20.0911C14.9127 20.0911 14.8945 20.1006 14.9492 20.2985C15.1316 20.9113 15.8521 21.5618 16.6546 21.8446L17.22 22.0426L16.7276 22.3442C15.998 22.7779 15.1407 23.023 14.2835 23.0419C13.8731 23.0513 13.5356 23.089 13.5356 23.1173C13.5356 23.2115 14.6483 23.7395 15.2958 23.9469C17.2383 24.5596 19.5456 24.2957 21.2783 23.2493C22.5095 22.5045 23.7407 21.0244 24.3152 19.5915C24.6253 18.8279 24.9354 17.4326 24.9354 16.7633C24.9354 16.3297 24.9627 16.2731 25.4734 15.7546C25.7744 15.4529 26.0571 15.123 26.1118 15.0287C26.203 14.8496 26.1939 14.8496 25.7288 15.0098C24.9536 15.2927 24.8442 15.255 25.2272 14.8307C25.5099 14.5291 25.8474 13.9823 25.8474 13.822C25.8474 13.7937 25.7106 13.8409 25.5555 13.9257C25.3914 14.02 25.0266 14.1614 24.753 14.2462L24.2605 14.4065L23.8136 14.0954C23.5674 13.9257 23.2209 13.7372 23.0385 13.6806C22.5734 13.5486 21.862 13.5675 21.4425 13.7183C20.3025 14.1425 19.5821 15.2361 19.6641 16.4334Z" fill="#EC008C"/>
</svg>
