<svg width="48" height="44" viewBox="0 0 48 44" fill="none" xmlns="http://www.w3.org/2000/svg">
<path d="M11.6523 27.2716C11.647 20.4607 17.1826 14.9063 23.9833 14.8997C30.82 14.893 36.3729 20.4514 36.3503 27.2809C36.3276 34.1198 30.816 39.6275 23.998 39.6248C17.1853 39.6222 11.6577 34.0905 11.6523 27.2716Z" fill="#97C253"/>
<path d="M45.0652 18.2799C45.0665 18.9268 44.5312 19.2483 43.9799 18.9629C43.0957 18.5053 42.2181 18.0345 41.3512 17.5436C41.0862 17.3929 40.8852 17.4022 40.6242 17.5489C39.7852 18.0198 38.9276 18.4573 38.0834 18.9202C37.7838 19.0842 37.4935 19.1589 37.1992 18.9428C36.9089 18.7281 36.8782 18.4413 36.9475 18.0958C37.1339 17.1661 37.2831 16.2297 37.4615 15.2986C37.5228 14.9812 37.4762 14.7477 37.2125 14.5116C36.5067 13.878 35.8369 13.2044 35.1471 12.5521C34.9008 12.3187 34.7423 12.0693 34.8621 11.7158C34.9807 11.3636 35.263 11.2542 35.5932 11.2089C36.5653 11.0782 37.5347 10.9301 38.5082 10.8221C38.7838 10.7914 38.9063 10.67 39.0129 10.4406C39.427 9.55219 39.8611 8.67449 40.2793 7.78878C40.4244 7.48065 40.6188 7.24988 40.9864 7.25522C41.3472 7.26055 41.5443 7.48065 41.6908 7.79278C42.1063 8.67982 42.5457 9.55619 42.9598 10.4432C43.069 10.678 43.1982 10.786 43.4725 10.8167C44.446 10.9261 45.4154 11.0782 46.3875 11.2062C46.7231 11.2502 47.0054 11.3676 47.1186 11.7131C47.2318 12.0586 47.0746 12.3214 46.8283 12.5548C46.1278 13.2191 45.442 13.8994 44.7323 14.5543C44.5125 14.7571 44.442 14.9385 44.5046 15.2439C44.7203 16.2724 44.8907 17.3061 45.0652 18.2799Z" fill="#97C253"/>
<path d="M30.1727 4.67944C30.1461 4.95689 30.0156 5.13964 29.8411 5.30637C29.1287 5.98133 28.4283 6.66962 27.7065 7.33523C27.5081 7.51798 27.4615 7.69805 27.5094 7.94883C27.6892 8.8959 27.845 9.8483 28.0368 10.794C28.11 11.1542 28.0967 11.4623 27.7851 11.6877C27.4708 11.9158 27.1659 11.8145 26.8556 11.6424C26.0127 11.1782 25.1577 10.7367 24.3188 10.2645C24.0884 10.1351 23.922 10.1351 23.6889 10.2645C22.8487 10.734 21.9911 11.1689 21.1468 11.6304C20.8366 11.7998 20.5343 11.9105 20.2187 11.6811C19.9084 11.4543 19.8938 11.1489 19.967 10.7887C20.1588 9.84297 20.3119 8.89056 20.4917 7.94349C20.5396 7.69405 20.4943 7.51264 20.2959 7.3299C19.5995 6.68696 18.923 6.02001 18.2345 5.36773C17.9869 5.13297 17.7472 4.89687 17.851 4.51137C17.9669 4.08319 18.3144 3.98848 18.694 3.93913C19.5995 3.82174 20.505 3.69102 21.4118 3.58298C21.7354 3.54429 21.9325 3.41224 22.0723 3.1001C22.4598 2.23707 22.89 1.39405 23.2934 0.537683C23.4386 0.229553 23.6317 0.00012207 23.9979 0.00012207C24.3654 0.00012207 24.5572 0.232221 24.7023 0.537683C25.1071 1.39271 25.5373 2.23707 25.9221 3.1001C26.0713 3.43491 26.2856 3.55496 26.6305 3.59631C27.5867 3.70836 28.5388 3.85776 29.4949 3.98181C29.9317 4.03917 30.1248 4.30061 30.1727 4.67944Z" fill="#97C253"/>
<path d="M2.93767 18.3132C3.11344 17.3368 3.28656 16.3043 3.49296 15.2772C3.55555 14.9637 3.50095 14.7583 3.25859 14.5382C2.58212 13.9233 1.93494 13.275 1.27045 12.6454C1.00945 12.3987 0.751114 12.1546 0.876288 11.7491C1.00546 11.3289 1.35035 11.2448 1.7352 11.1968C2.69131 11.0768 3.64211 10.926 4.59822 10.814C4.84058 10.786 4.93646 10.6646 5.02701 10.4738C5.44781 9.58947 5.88459 8.7131 6.2974 7.82605C6.4492 7.50058 6.63563 7.24981 7.02714 7.25648C7.39467 7.26315 7.57844 7.50325 7.72225 7.80871C8.1324 8.67975 8.55985 9.54145 8.966 10.4138C9.07919 10.6566 9.2017 10.7913 9.50532 10.822C10.4787 10.9234 11.4482 11.0768 12.4189 11.2102C12.7319 11.2528 13.0035 11.3582 13.1194 11.6837C13.2419 12.0238 13.1221 12.2946 12.8704 12.5334C12.1939 13.1737 11.5401 13.8406 10.8449 14.4582C10.544 14.725 10.4681 14.9878 10.5453 15.3653C10.7291 16.2776 10.8716 17.198 11.054 18.1104C11.1193 18.4372 11.078 18.7093 10.821 18.9201C10.5387 19.1509 10.2484 19.0975 9.94343 18.9294C9.13113 18.4799 8.29619 18.0704 7.49587 17.5995C7.14698 17.3941 6.88066 17.4141 6.54508 17.6049C5.70881 18.0797 4.86056 18.5346 4.00564 18.9734C3.48098 19.2429 2.94965 18.9254 2.93767 18.3132Z" fill="#97C253"/>
<path d="M10.4775 41.8578C11.5069 40.0677 12.4857 38.375 13.4524 36.6769C13.5829 36.4488 13.6681 36.5049 13.8066 36.6569C15.0757 38.0495 16.5658 39.1393 18.2876 39.9036C18.5433 40.017 18.542 40.1251 18.4141 40.3452C17.7629 41.463 17.1198 42.5861 16.4899 43.7159C16.3408 43.984 16.2555 43.9534 16.0851 43.7359C15.5817 43.0957 15.0397 42.4861 14.5524 41.8351C14.2541 41.4376 13.9132 41.3082 13.4351 41.3909C12.4883 41.5577 11.5375 41.6937 10.4775 41.8578Z" fill="#97C253"/>
<path d="M31.6957 44.0013C30.954 42.7128 30.2522 41.4936 29.5491 40.2744C29.4772 40.1504 29.4159 40.053 29.6077 39.9676C31.448 39.1446 33.042 37.9761 34.4096 36.4408C35.4509 38.2429 36.4603 39.9916 37.5283 41.8404C36.6374 41.7057 35.8211 41.6363 35.0341 41.4469C34.2378 41.2562 33.6758 41.4189 33.2058 42.1219C32.7743 42.7661 32.2337 43.3397 31.6957 44.0013Z" fill="#97C253"/>
<path d="M23.9846 18.7813C28.688 18.7759 32.4818 22.5642 32.4831 27.2675C32.4845 31.9588 28.6693 35.7805 23.9873 35.7751C19.3279 35.7711 15.522 31.9628 15.5127 27.2982C15.506 22.5922 19.2892 18.7879 23.9846 18.7813Z" fill="#FEFEFE"/>
<path d="M23.9801 34.2198C20.145 34.2118 17.0343 31.0879 17.0449 27.2542C17.0556 23.3979 20.1943 20.2833 24.052 20.3006C27.8699 20.3179 30.9925 23.482 30.9633 27.3009C30.9353 31.1479 27.8259 34.2279 23.9801 34.2198Z" fill="#97C253"/>
<path d="M20.7067 26.6954C21.0436 26.6954 21.2553 26.8808 21.4151 27.1609C21.7347 27.7238 22.0823 28.2734 22.3805 28.847C22.5403 29.1551 22.6375 29.1351 22.8626 28.9057C24.1117 27.6358 25.3767 26.3832 26.6311 25.1187C26.9148 24.8333 27.2224 24.6839 27.6112 24.8533C28.1013 25.068 28.2011 25.6723 27.8043 26.1018C27.4088 26.5286 26.9854 26.9301 26.5739 27.3437C25.446 28.4748 24.3181 29.6073 23.1875 30.7358C22.5137 31.4094 22.0796 31.3467 21.5949 30.509C21.0875 29.6313 20.5695 28.7616 20.0808 27.8732C19.7599 27.2916 20.0901 26.6967 20.7067 26.6954Z" fill="#FEFEFE"/>
</svg>
