<svg width="60" height="60" viewBox="0 0 60 60" fill="none" xmlns="http://www.w3.org/2000/svg">
<path d="M56 60H4C1.79086 60 0 58.2091 0 56V4C0 1.79086 1.79086 3.8147e-06 4 3.8147e-06H56C58.2091 3.8147e-06 60 1.79086 60 4V56C60 58.2091 58.2091 60 56 60Z" fill="#6A4A94"/>
<g clip-path="url(#clip0_4933_5019)">
<path d="M18.3479 44.6778C18.3335 44.6338 18.2951 44.6282 18.2568 44.6154C17.3218 44.3043 16.8555 43.6556 16.8555 42.667C16.8555 37.6799 16.8555 32.6943 16.8555 27.7104C16.8555 23.8408 16.8555 19.9713 16.8555 16.1018C16.8555 14.8085 17.6241 14.0406 18.9174 14.0406C24.0363 14.0406 29.1525 14.0406 34.266 14.0406C34.5646 14.0323 34.8617 14.0868 35.138 14.2006C35.4142 14.3144 35.6635 14.485 35.8696 14.7013C37.3002 16.1463 38.7383 17.586 40.1839 19.0203C40.3868 19.2125 40.5477 19.4446 40.6566 19.702C40.7655 19.9594 40.8199 20.2365 40.8165 20.516C40.8165 21.1558 40.8165 21.7957 40.8165 22.4307C40.8165 22.8147 40.6606 23.017 40.3758 23.021C40.0911 23.025 39.9215 22.8155 39.9199 22.414C39.9199 21.8053 39.9071 21.1966 39.9255 20.5888C39.9327 20.3312 39.8455 20.2768 39.6056 20.28C38.4994 20.2928 37.3917 20.288 36.2847 20.2848C35.2234 20.2848 34.5763 19.6322 34.5747 18.5684C34.5747 17.4487 34.5675 16.3345 34.5803 15.218C34.5803 14.9908 34.5203 14.9396 34.2996 14.9396C29.1439 14.946 23.988 14.9479 18.8318 14.9452C18.1496 14.9452 17.7577 15.3387 17.7577 16.0234C17.7577 24.9201 17.7577 33.8159 17.7577 42.711C17.7577 43.3949 18.1512 43.7892 18.8326 43.7892H38.845C39.5168 43.7892 39.9023 43.4085 39.9183 42.7398C39.9159 42.6402 39.9199 42.5406 39.9303 42.4415C39.9711 42.1903 40.1231 42.048 40.3798 42.0544C40.6366 42.0608 40.7757 42.2143 40.8093 42.4639C40.9501 43.5164 40.3294 44.4138 39.3041 44.6442C39.2783 44.6544 39.2545 44.669 39.2337 44.6874L18.3479 44.6778Z" fill="white"/>
<path d="M44.1374 32.5238C44.1374 34.71 44.1374 36.8943 44.1374 39.0768C44.1374 40.2093 43.5103 40.8428 42.3873 40.8428C38.4874 40.8428 34.5875 40.8292 30.6884 40.8524C29.6486 40.8588 28.9128 40.1221 28.924 39.084C28.9575 35.9223 28.936 32.7606 28.936 29.5989C28.9319 29.519 28.9319 29.4389 28.936 29.3589C28.9639 29.1046 29.1119 28.959 29.3631 28.9438C29.6142 28.9286 29.7582 29.0702 29.815 29.299C29.8329 29.407 29.838 29.5168 29.8302 29.6261C29.8302 32.7774 29.8302 35.9292 29.8302 39.0816C29.8302 39.7214 30.0501 39.9446 30.69 39.9446H42.3642C43.0144 39.9446 43.244 39.7166 43.244 39.0648V25.9869C43.244 25.339 43.0168 25.1159 42.3578 25.1159H30.714C30.0485 25.1159 29.8342 25.3286 29.8342 25.9877C29.8342 26.3964 29.8382 26.8051 29.8342 27.2146C29.8302 27.5345 29.6502 27.7385 29.3839 27.7385C29.1175 27.7385 28.9416 27.5353 28.9392 27.2146C28.9349 26.7555 28.9349 26.2967 28.9392 25.8381C28.9455 24.8847 29.6054 24.2209 30.5588 24.2201C33.2121 24.2164 35.8651 24.2164 38.5178 24.2201C39.8343 24.2201 41.1508 24.2201 42.4673 24.2201C43.4759 24.2201 44.1382 24.8775 44.139 25.8821C44.14 28.0955 44.1395 30.3094 44.1374 32.5238Z" fill="white"/>
<path d="M41.8037 27.2906C41.8037 26.7307 41.4998 26.4035 40.9455 26.4027C38.0048 26.3963 35.0636 26.3963 32.1219 26.4027C31.5772 26.4027 31.2773 26.7227 31.2733 27.265C31.2693 27.9336 31.2733 28.6015 31.2733 29.2693C31.2733 30.0091 31.542 30.2811 32.277 30.2811C33.6927 30.2811 35.1084 30.2811 36.5241 30.2811C37.9798 30.2811 39.4354 30.2811 40.8911 30.2811C41.5046 30.2811 41.8029 29.9692 41.8053 29.3557C41.8042 28.6668 41.8037 27.9784 41.8037 27.2906ZM40.604 29.3909C39.2379 29.3765 37.8718 29.3837 36.5065 29.3837C35.1412 29.3837 33.7743 29.3837 32.409 29.3885C32.2179 29.3885 32.1547 29.3453 32.1603 29.1485C32.1755 28.6103 32.1723 28.072 32.1603 27.5337C32.1603 27.3617 32.1859 27.2938 32.3826 27.2938C35.1447 27.3012 37.9062 27.3012 40.6672 27.2938C40.8807 27.2938 40.9071 27.3737 40.9071 27.5521C40.8975 28.0608 40.8895 28.5695 40.9071 29.0774C40.9239 29.3197 40.8623 29.3933 40.604 29.3909Z" fill="white"/>
<path d="M22.8368 23.7626C22.8368 23.3035 22.8312 22.8452 22.8368 22.3869C22.8439 22.3294 22.8308 22.2712 22.7998 22.2223C22.7687 22.1734 22.7215 22.1369 22.6665 22.1189C22.4593 22.0246 22.2577 21.915 22.061 21.799C21.3659 21.3927 21.0692 20.7744 21.1724 19.989C21.2812 19.162 21.7323 18.5629 22.5321 18.3022C22.7816 18.2222 22.8672 18.1206 22.8312 17.8799C22.8244 17.8105 22.8244 17.7406 22.8312 17.6711C22.8456 17.3752 23.0272 17.1912 23.2943 17.1984C23.5615 17.2056 23.7126 17.3832 23.7278 17.6703C23.7526 18.1398 23.7534 18.1366 24.2173 18.2918C24.5027 18.3818 24.7688 18.5242 25.0019 18.7117C25.2163 18.8893 25.2547 19.146 25.1067 19.3468C24.9587 19.5475 24.714 19.5867 24.4749 19.4307C24.2589 19.2884 23.995 19.0404 23.7934 19.146C23.6126 19.2396 23.7382 19.5963 23.7318 19.8355C23.719 20.3433 23.7318 20.852 23.7246 21.3599C23.7246 21.5327 23.7542 21.6447 23.9398 21.6798C24.0266 21.7017 24.1114 21.7309 24.1933 21.767C25.2123 22.1533 25.7354 22.898 25.7058 23.9201C25.6762 24.9159 24.9859 25.8461 24.0262 26.1205C23.7718 26.1932 23.695 26.3012 23.7262 26.5428C23.7452 26.663 23.746 26.7854 23.7286 26.9059C23.6862 27.1546 23.5271 27.2962 23.2743 27.2906C23.0344 27.2858 22.8936 27.1418 22.8432 26.9091C22.8432 26.8995 22.8432 26.8899 22.8432 26.8795C22.8232 26.6731 22.932 26.3996 22.7984 26.2756C22.6649 26.1516 22.4033 26.2004 22.2002 26.1548C21.8326 26.0631 21.4855 25.9031 21.1772 25.683C20.9444 25.523 20.8877 25.2742 21.0172 25.0607C21.1468 24.8471 21.4003 24.7863 21.6451 24.9263C21.9298 25.0863 22.2114 25.2462 22.5409 25.3174C22.7672 25.3646 22.8608 25.3486 22.8456 25.0775C22.82 24.64 22.8368 24.2009 22.8368 23.7626Z" fill="white"/>
<path d="M23.656 33.3043C24.6317 33.3043 25.6075 33.3043 26.5833 33.3043C26.928 33.3043 27.1376 33.4795 27.1344 33.7538C27.1312 34.0282 26.9192 34.2001 26.5745 34.2001C24.6325 34.2001 22.6906 34.2001 20.7486 34.2001C20.4935 34.2001 20.2919 34.1201 20.2191 33.8594C20.1583 33.6435 20.2471 33.4723 20.4391 33.3539C20.5495 33.2859 20.6702 33.3019 20.7886 33.3019C21.7436 33.3035 22.6994 33.3043 23.656 33.3043Z" fill="white"/>
<path d="M23.6742 38.1032C22.708 38.1032 21.7421 38.1032 20.7765 38.1032C20.4022 38.1032 20.1982 37.9432 20.2022 37.6521C20.2062 37.361 20.4134 37.2066 20.7893 37.2058C22.7088 37.2058 24.6308 37.2058 26.5552 37.2058C26.7767 37.2058 26.9711 37.2506 27.0823 37.4666C27.1204 37.5372 27.1372 37.6174 27.1308 37.6974C27.1245 37.7774 27.0951 37.8539 27.0463 37.9177C26.9319 38.0872 26.7583 38.1072 26.572 38.1064C25.6058 38.1032 24.6396 38.1032 23.6742 38.1032Z" fill="white"/>
<path d="M23.6712 29.3852C24.607 29.3852 25.5428 29.3852 26.4786 29.3852C26.5779 29.3811 26.6773 29.3876 26.7753 29.4044C26.8808 29.419 26.9766 29.474 27.0422 29.5579C27.1079 29.6418 27.1384 29.748 27.1272 29.8539C27.1292 29.955 27.0935 30.0531 27.0269 30.1292C26.9603 30.2052 26.8677 30.2537 26.7673 30.265C26.6687 30.2786 26.5692 30.2842 26.4698 30.2818C24.5982 30.2818 22.7266 30.2818 20.855 30.2818C20.7459 30.2873 20.6365 30.279 20.5295 30.257C20.4384 30.2322 20.3578 30.1786 20.2997 30.1041C20.2416 30.0297 20.2091 29.9385 20.2071 29.8441C20.2051 29.7497 20.2338 29.6572 20.2887 29.5804C20.3436 29.5036 20.4219 29.4466 20.5119 29.418C20.6181 29.392 20.7274 29.3813 20.8366 29.386C21.7804 29.3855 22.7253 29.3852 23.6712 29.3852Z" fill="white"/>
<path d="M32.1795 32.7269C32.0012 32.7377 31.8224 32.7361 31.6444 32.7221C31.3924 32.6869 31.2621 32.5158 31.2765 32.263C31.2893 32.0231 31.4308 31.8679 31.6708 31.8567C32.0179 31.8399 32.3666 31.8383 32.7105 31.8567C32.9665 31.8695 33.1105 32.0447 33.1105 32.291C33.1144 32.3464 33.107 32.4019 33.0888 32.4543C33.0706 32.5068 33.0419 32.5549 33.0045 32.5959C32.9671 32.6369 32.9217 32.6699 32.8712 32.6928C32.8207 32.7157 32.766 32.7282 32.7105 32.7293C32.5321 32.7399 32.3532 32.7412 32.1747 32.7333L32.1795 32.7269Z" fill="white"/>
<path d="M32.2065 34.1843C32.3753 34.1843 32.5457 34.1707 32.7128 34.1843C32.7682 34.1854 32.8228 34.1978 32.8733 34.2207C32.9238 34.2436 32.9691 34.2765 33.0064 34.3174C33.0438 34.3583 33.0725 34.4064 33.0908 34.4587C33.1091 34.511 33.1165 34.5665 33.1127 34.6218C33.117 34.6746 33.1107 34.7278 33.0942 34.7782C33.0777 34.8286 33.0513 34.8752 33.0166 34.9154C32.9819 34.9555 32.9396 34.9883 32.8921 35.0119C32.8446 35.0355 32.7929 35.0494 32.74 35.0529C32.3746 35.0949 32.0056 35.0949 31.6403 35.0529C31.4003 35.0241 31.2715 34.8601 31.2739 34.6202C31.2692 34.5648 31.276 34.5091 31.2939 34.4565C31.3119 34.404 31.3406 34.3557 31.3782 34.3149C31.4158 34.274 31.4615 34.2415 31.5124 34.2192C31.5633 34.197 31.6183 34.1857 31.6739 34.1859C31.8506 34.1723 32.0306 34.1843 32.2065 34.1843Z" fill="white"/>
<path d="M32.1837 37.3953C32.0055 37.4069 31.8268 37.4069 31.6486 37.3953C31.3966 37.3609 31.2639 37.193 31.2751 36.9394C31.2863 36.6995 31.4254 36.5395 31.6654 36.5291C32.0117 36.5115 32.3612 36.5107 32.7051 36.5291C32.9611 36.5411 33.1051 36.7131 33.1107 36.9594C33.1152 37.0146 33.1086 37.0701 33.091 37.1226C33.0735 37.1752 33.0455 37.2236 33.0087 37.2649C32.9719 37.3063 32.9271 37.3397 32.877 37.3633C32.8269 37.3868 32.7725 37.3999 32.7171 37.4017C32.5387 37.4131 32.3598 37.4144 32.1813 37.4057L32.1837 37.3953Z" fill="white"/>
<path d="M35.0918 31.855C35.2701 31.8463 35.4488 31.8477 35.6269 31.859C35.8669 31.8862 35.998 32.0414 36.0036 32.2813C36.0092 32.5213 35.8845 32.6908 35.6461 32.7196C35.2715 32.7684 34.8922 32.7684 34.5176 32.7196C34.2776 32.6868 34.1553 32.5029 34.1657 32.2725C34.1628 32.1658 34.2023 32.0624 34.2754 31.9846C34.3485 31.9069 34.4493 31.8612 34.556 31.8574C34.7327 31.8422 34.9127 31.8574 35.0918 31.8574V31.855Z" fill="white"/>
<path d="M40.8924 31.8517C41.0611 31.8517 41.2315 31.8381 41.3987 31.8517C41.4542 31.8528 41.509 31.8652 41.5597 31.8881C41.6103 31.911 41.6557 31.9441 41.6932 31.9852C41.7306 32.0263 41.7593 32.0746 41.7774 32.1271C41.7955 32.1797 41.8027 32.2354 41.7986 32.2908C41.8026 32.3436 41.7961 32.3967 41.7794 32.447C41.7628 32.4973 41.7363 32.5437 41.7016 32.5837C41.6668 32.6236 41.6245 32.6563 41.577 32.6797C41.5296 32.7032 41.4779 32.717 41.4251 32.7204C41.0596 32.7619 40.6907 32.7619 40.3253 32.7204C40.0854 32.6916 39.9558 32.5244 39.959 32.2868C39.9552 32.2318 39.9626 32.1765 39.9809 32.1244C39.9993 32.0723 40.028 32.0245 40.0655 31.9839C40.1029 31.9433 40.1482 31.9108 40.1987 31.8883C40.2492 31.8659 40.3037 31.854 40.3589 31.8533C40.5332 31.8381 40.7132 31.8517 40.8924 31.8517Z" fill="white"/>
<path d="M35.1012 34.1841C35.27 34.1841 35.4395 34.1721 35.6075 34.1841C35.6602 34.1847 35.7122 34.1957 35.7606 34.2165C35.8089 34.2373 35.8527 34.2674 35.8895 34.3051C35.9262 34.3429 35.9551 34.3875 35.9745 34.4365C35.9939 34.4854 36.0035 34.5377 36.0026 34.5904C36.017 34.8439 35.889 35.0199 35.6363 35.0511C35.271 35.0939 34.9019 35.0939 34.5365 35.0511C34.4837 35.0474 34.4321 35.0333 34.3847 35.0096C34.3374 34.9858 34.2952 34.9529 34.2607 34.9127C34.2261 34.8725 34.1999 34.8259 34.1836 34.7755C34.1672 34.7251 34.1611 34.672 34.1654 34.6192C34.1617 34.5639 34.1693 34.5085 34.1876 34.4563C34.2059 34.4041 34.2346 34.3561 34.272 34.3153C34.3094 34.2745 34.3547 34.2417 34.4051 34.2188C34.4555 34.196 34.51 34.1836 34.5653 34.1825C34.7421 34.1721 34.9253 34.1841 35.1012 34.1841Z" fill="white"/>
<path d="M40.883 34.184C41.0525 34.184 41.2221 34.172 41.3901 34.184C41.4453 34.1846 41.4999 34.1964 41.5506 34.2186C41.6012 34.2407 41.6468 34.2729 41.6847 34.3132C41.7225 34.3535 41.7519 34.401 41.771 34.4529C41.79 34.5047 41.7984 34.5599 41.7956 34.6151C41.7996 34.8647 41.654 35.0415 41.4021 35.0566C41.0454 35.0789 40.6876 35.0776 40.3311 35.0526C40.0784 35.0335 39.9448 34.8503 39.9568 34.5983C39.9553 34.5457 39.9642 34.4933 39.9831 34.4441C40.0019 34.3949 40.0303 34.3499 40.0665 34.3117C40.1028 34.2735 40.1463 34.2428 40.1944 34.2215C40.2426 34.2001 40.2945 34.1885 40.3471 34.1872C40.5247 34.1704 40.7046 34.1872 40.883 34.1872V34.184Z" fill="white"/>
<path d="M35.062 37.4185C34.8836 37.4179 34.7052 37.408 34.5278 37.3889C34.475 37.3841 34.4237 37.3689 34.3769 37.3441C34.3301 37.3193 34.2886 37.2855 34.255 37.2446C34.2214 37.2036 34.1962 37.1564 34.181 37.1057C34.1657 37.055 34.1607 37.0017 34.1662 36.949C34.1718 36.7187 34.303 36.5403 34.547 36.5275C34.9037 36.5087 35.2612 36.5087 35.6179 36.5275C35.8579 36.5403 35.9946 36.7003 36.0034 36.941C36.013 37.1954 35.8787 37.3617 35.6267 37.3937C35.4387 37.4067 35.2502 37.408 35.062 37.3977V37.4185Z" fill="white"/>
<path d="M40.8875 36.5164C41.0475 36.5164 41.2074 36.506 41.3674 36.5164C41.6257 36.5364 41.8121 36.7228 41.8009 36.9555C41.7889 37.2051 41.6529 37.3778 41.401 37.393C41.0547 37.4133 40.7075 37.4133 40.3612 37.393C40.1101 37.3786 39.9701 37.2123 39.9613 36.9579C39.9517 36.718 40.1213 36.5372 40.3884 36.5164C40.5492 36.5036 40.7188 36.5164 40.8875 36.5164Z" fill="white"/>
<path d="M38.0029 31.8494C38.1629 31.8494 38.3229 31.8406 38.4788 31.8494C38.7348 31.867 38.8787 32.0157 38.8979 32.2677C38.9044 32.3251 38.8988 32.3833 38.8814 32.4384C38.864 32.4935 38.8352 32.5443 38.7969 32.5876C38.7586 32.6309 38.7116 32.6656 38.659 32.6896C38.6065 32.7136 38.5494 32.7262 38.4916 32.7268C38.1454 32.748 37.7981 32.748 37.4519 32.7268C37.1991 32.71 37.0608 32.5404 37.0656 32.2845C37.0703 32.0285 37.2135 31.8774 37.4655 31.855C37.6422 31.8406 37.8222 31.855 38.0005 31.855L38.0029 31.8494Z" fill="white"/>
<path d="M37.9722 35.0641C37.7942 35.0737 37.6157 35.0721 37.4379 35.0593C37.1844 35.0265 37.0556 34.8577 37.066 34.6042C37.0756 34.3642 37.2124 34.2042 37.4531 34.1931C37.8096 34.1743 38.1668 34.1743 38.5233 34.1931C38.7632 34.2074 38.8928 34.381 38.8968 34.617C38.9008 34.8529 38.776 35.0169 38.5361 35.0553C38.3513 35.0825 38.161 35.0753 37.9762 35.0841L37.9722 35.0641Z" fill="white"/>
<path d="M37.9766 36.5173C38.1454 36.5173 38.315 36.5077 38.4821 36.5173C38.7381 36.5357 38.882 36.6861 38.8956 36.9388C38.9092 37.1916 38.7733 37.3715 38.5181 37.3891C38.162 37.4119 37.8048 37.4119 37.4488 37.3891C37.196 37.3731 37.0592 37.2004 37.0656 36.9444C37.072 36.6885 37.2168 36.5397 37.4712 36.5181C37.6383 36.5037 37.8079 36.5181 37.9766 36.5181V36.5173Z" fill="white"/>
<path d="M35.4682 15.6282C36.7256 16.8863 37.9621 18.122 39.2274 19.3825H38.9699C38.0621 19.3825 37.1551 19.3825 36.2505 19.3825C35.7394 19.3825 35.4778 19.1194 35.4754 18.6099C35.465 17.6181 35.4682 16.6319 35.4682 15.6282Z" fill="#F8F8F8"/>
<path d="M23.7334 25.2701C23.7334 24.4111 23.7334 23.5681 23.7334 22.7259C23.7334 22.5579 23.8062 22.5803 23.9158 22.6203C24.3637 22.7843 24.7004 23.0626 24.7908 23.5489C24.8955 24.1088 24.7108 24.5887 24.2925 24.9718C24.1387 25.123 23.9446 25.2266 23.7334 25.2701Z" fill="#F8F8F8"/>
<path d="M22.8181 21.1846C22.3686 20.9758 22.0183 20.7327 22.0543 20.1816C22.0622 19.9547 22.1398 19.7358 22.2764 19.5545C22.4131 19.3732 22.6022 19.2383 22.8181 19.1682V21.1846Z" fill="#F8F8F8"/>
</g>
<defs>
<clipPath id="clip0_4933_5019">
<rect x="16.8545" y="14.0334" width="27.2835" height="30.6444" rx="4" fill="white"/>
</clipPath>
</defs>
</svg>
