<svg width="60" height="60" viewBox="0 0 60 60" fill="none" xmlns="http://www.w3.org/2000/svg">
<path d="M56 60H4C1.79086 60 0 58.2091 0 56V4C0 1.79086 1.79086 3.8147e-06 4 3.8147e-06H56C58.2092 3.8147e-06 60 1.79086 60 4V56C60 58.2091 58.2092 60 56 60Z" fill="#27AAE1"/>
<g clip-path="url(#clip0_4933_4979)">
<path d="M46.7985 40.2743C46.7978 40.354 46.7814 40.4328 46.7502 40.5062C46.719 40.5795 46.6737 40.646 46.6168 40.7018C46.5599 40.7577 46.4926 40.8017 46.4186 40.8315C46.3447 40.8613 46.2656 40.8762 46.1859 40.8754C46.0249 40.8679 45.873 40.7988 45.7617 40.6823C45.6503 40.5658 45.5881 40.411 45.5879 40.2498C45.5897 40.1701 45.6072 40.0915 45.6395 40.0186C45.6717 39.9457 45.7181 39.8799 45.7758 39.825C45.8336 39.77 45.9017 39.7271 45.9761 39.6985C46.0506 39.67 46.13 39.6564 46.2096 39.6587C46.2893 39.6587 46.368 39.6749 46.4412 39.7061C46.5144 39.7374 46.5805 39.7832 46.6355 39.8408C46.6906 39.8983 46.7334 39.9663 46.7614 40.0409C46.7894 40.1154 46.802 40.1948 46.7985 40.2743Z" fill="white"/>
<path d="M26.1675 13.4889C26.0886 13.4881 26.0103 13.503 25.9372 13.5329C25.8641 13.5628 25.7977 13.6071 25.742 13.663C25.6863 13.719 25.6423 13.7855 25.6127 13.8587C25.5831 13.9319 25.5684 14.0102 25.5695 14.0892C25.5676 14.2489 25.6282 14.4031 25.7383 14.5188C25.8485 14.6346 25.9995 14.7027 26.1591 14.7087C26.3251 14.7057 26.4834 14.6383 26.6006 14.5207C26.7178 14.4031 26.7846 14.2445 26.787 14.0785C26.781 13.9188 26.7129 13.7678 26.5972 13.6577C26.4815 13.5475 26.3273 13.487 26.1675 13.4889ZM26.1675 13.4889C26.0886 13.4881 26.0103 13.503 25.9372 13.5329C25.8641 13.5628 25.7977 13.6071 25.742 13.663C25.6863 13.719 25.6423 13.7855 25.6127 13.8587C25.5831 13.9319 25.5684 14.0102 25.5695 14.0892C25.5676 14.2489 25.6282 14.4031 25.7383 14.5188C25.8485 14.6346 25.9995 14.7027 26.1591 14.7087C26.3251 14.7057 26.4834 14.6383 26.6006 14.5207C26.7178 14.4031 26.7846 14.2445 26.787 14.0785C26.781 13.9188 26.7129 13.7678 26.5972 13.6577C26.4815 13.5475 26.3273 13.487 26.1675 13.4889ZM49.5684 39.5943C48.6641 38.6945 47.7705 37.7841 46.8609 36.8905C46.4083 36.4464 45.7935 36.3997 45.2958 36.7818C45.1005 36.9311 45.0186 36.8936 44.8716 36.7389C44.2406 36.075 44.1824 35.268 44.259 34.415C44.2988 34.415 44.3356 34.415 44.3731 34.4211C44.769 34.454 45.0492 34.2465 45.076 33.9004C45.1028 33.5543 44.834 33.2802 44.4443 33.307C44.2322 33.3216 44.2146 33.235 44.197 33.0827C44.1074 32.2886 43.7375 31.6416 43.1732 31.0857C42.3585 30.2771 41.5545 29.4578 40.7382 28.6507C39.6349 27.5596 38.2619 27.3613 36.8929 28.1055C36.5827 28.274 36.5184 28.0611 36.4334 27.8689C36.4005 27.7924 36.4265 27.6928 36.4265 27.604C36.4265 25.5886 36.4265 23.5741 36.4265 21.5587C36.4265 20.6858 36.1899 19.9002 35.6149 19.2325C35.1738 18.721 35.0138 18.1268 35.0352 17.4629C35.0406 17.2883 35.0942 17.2294 35.2649 17.1888C35.9709 17.0219 36.2941 16.6061 36.2941 15.8802C36.2941 14.6944 36.2941 13.5083 36.2941 12.3219C36.2941 11.4575 35.8078 10.9712 34.9449 10.9705C31.4629 10.9705 27.9813 10.9705 24.4998 10.9705C23.6415 10.9705 23.1422 11.4636 23.1392 12.3158C23.1356 13.4899 23.1356 14.664 23.1392 15.8381C23.1392 16.6214 23.4692 17.0372 24.2395 17.2041C24.398 17.2386 24.4447 17.2891 24.4439 17.4468C24.4493 17.7469 24.395 18.0451 24.2842 18.324C24.1733 18.6029 24.0082 18.8571 23.7984 19.0717C23.4363 19.4492 23.0633 19.8167 22.692 20.1843C22.0074 20.8642 21.6544 21.6766 21.6629 22.6498C21.6728 23.8229 21.6682 24.996 21.6629 26.1721C21.6629 26.6109 21.7065 27.0412 21.8972 27.4378C22.0036 27.6591 21.9033 27.6875 21.7264 27.7104C21.0638 27.7966 20.4494 28.1033 19.9821 28.581C19.1046 29.4529 18.2307 30.3284 17.3603 31.2074C16.8328 31.7434 16.4943 32.3813 16.4415 33.1324C16.394 33.8307 16.4116 34.5337 16.3978 35.2343C16.3856 35.8515 16.1329 36.363 15.7125 36.8048C15.6053 36.9166 15.5425 36.9265 15.4062 36.8277C14.7937 36.389 14.2347 36.4449 13.6964 36.9809C12.9368 37.7366 12.1857 38.5008 11.423 39.2527C11.152 39.5192 10.8993 39.7949 10.7285 40.1387V40.7512C10.9988 41.3638 11.5425 41.7467 11.9889 42.2099C12.2454 42.4756 12.5693 42.4695 12.8059 42.2428C13.0425 42.0162 13.041 41.6693 12.7814 41.3929C12.5448 41.1425 12.3066 40.8921 12.0494 40.6647C11.8687 40.5055 11.8824 40.409 12.0494 40.2451C12.8472 39.4549 13.6395 38.658 14.4261 37.8546C14.5946 37.6815 14.6819 37.6961 14.845 37.8599C17.2554 40.2842 19.6715 42.7028 22.0932 45.1158C22.2984 45.3202 22.2509 45.4175 22.0733 45.5913C21.3076 46.3402 20.5457 47.0944 19.8037 47.8678C19.5847 48.0975 19.4699 48.0975 19.2448 47.8678C17.6873 46.2881 16.1153 44.7222 14.5479 43.1525C14.2255 42.8309 13.9039 42.7965 13.6451 43.0438C13.3863 43.2911 13.4077 43.6303 13.7217 43.945C15.3598 45.5898 17.0002 47.2325 18.6429 48.8731C19.1789 49.4038 19.8734 49.3999 20.4117 48.8731C21.2923 48.0053 22.1667 47.1299 23.035 46.2467C23.5167 45.759 23.5672 45.1924 23.182 44.6204C23.0978 44.4948 23.0756 44.4381 23.1897 44.3141C23.6491 43.8156 24.1974 43.4933 24.8796 43.4427C25.7625 43.3776 26.483 42.9971 27.0956 42.3707C27.8 41.651 28.5167 40.9419 29.2296 40.2267C29.3276 40.1295 29.4142 40.0231 29.5573 39.9733C30.1699 39.7574 30.5956 39.3439 30.7963 38.719C30.8453 38.5659 30.8981 38.5452 31.0612 38.5904C32.4732 38.984 33.6309 38.1164 33.66 36.6501C33.6684 36.2443 33.66 35.8384 33.66 35.425C35.3859 35.9456 36.5475 34.7251 36.4449 33.1845C36.3737 32.1048 36.4296 31.0168 36.4342 29.9325C36.4342 29.8429 36.3798 29.7311 36.4924 29.6561C37.0177 30.1788 37.5414 30.7 38.0636 31.2197C38.3998 31.5535 38.7428 31.5979 38.9978 31.346C39.2528 31.0941 39.2275 30.7587 38.8814 30.4141C38.4403 29.9739 37.9916 29.5412 37.5383 29.0971C38.2834 28.6331 39.193 28.7495 39.85 29.3912C40.7344 30.2564 41.602 31.1385 42.4741 32.016C42.6729 32.2152 42.8299 32.452 42.936 32.7126C43.0421 32.9732 43.0952 33.2523 43.092 33.5337C43.0997 34.0441 43.0997 34.5546 43.092 35.0651C43.0798 36.0299 43.3983 36.8676 44.0775 37.5513C44.2666 37.7412 44.2238 37.8324 44.0599 37.9962C42.2426 39.8048 40.4304 41.6193 38.6234 43.4397C38.4472 43.6173 38.3554 43.6227 38.1884 43.4397C37.5851 42.7675 36.7428 42.358 35.8415 42.2987C35.2649 42.2513 34.8002 42.0039 34.3997 41.5981C33.8269 41.0162 33.2481 40.4406 32.6631 39.8714C32.3698 39.5858 32.0229 39.5782 31.7856 39.8301C31.5482 40.082 31.5635 40.3898 31.8483 40.6762C32.4862 41.3194 33.1263 41.9595 33.781 42.5859C34.2982 43.0868 34.9767 43.3876 35.6953 43.4343C36.4059 43.4887 36.984 43.7965 37.4564 44.321C37.546 44.4198 37.5598 44.4741 37.4779 44.5951C37.0575 45.2345 37.121 45.759 37.6647 46.3057C38.4656 47.1107 39.2676 47.9142 40.0706 48.7162C40.8186 49.4658 41.4159 49.4666 42.1678 48.7162C44.5293 46.3517 46.891 43.9871 49.253 41.6226C49.5148 41.3607 49.7576 41.0912 49.9122 40.7512V40.2152C49.8165 39.9955 49.7438 39.7688 49.5684 39.5943ZM27.836 39.997C27.2357 40.5866 26.6492 41.1915 26.0427 41.775C25.7374 42.0709 25.3374 42.2496 24.9133 42.2796C23.9309 42.3562 23.0879 42.7268 22.4247 43.4642C22.277 43.628 22.195 43.6135 22.0457 43.4642C20.2218 41.6265 18.392 39.7941 16.5563 37.9671C16.4101 37.8209 16.3825 37.7374 16.5426 37.5797C17.2539 36.8653 17.5763 35.9931 17.5525 34.9862C17.541 34.5015 17.5449 34.0168 17.5525 33.5314C17.5497 33.25 17.603 32.971 17.7094 32.7105C17.8158 32.45 17.973 32.2134 18.172 32.0145C19.0457 31.1385 19.9132 30.2533 20.7968 29.3904C21.4515 28.7495 22.3283 28.6369 23.1078 29.0841C22.6575 29.5298 22.2126 29.9662 21.7724 30.4073C21.4224 30.7572 21.3811 31.0711 21.6399 31.3376C21.8987 31.6041 22.241 31.5581 22.5733 31.2281C23.097 30.7066 23.617 30.1814 24.2096 29.5864V31.078C24.2096 32.9157 24.2096 34.7534 24.2096 36.5911C24.2096 38.1004 25.3819 38.9955 26.8268 38.582C26.9999 38.533 27.042 38.5751 27.0841 38.716C27.2059 39.123 27.4655 39.4749 27.8184 39.7114C27.9708 39.8217 27.9547 39.8837 27.836 39.997ZM35.2818 27.4256C35.2818 29.4277 35.2818 31.43 35.2818 33.4326C35.2818 34.0161 34.997 34.3713 34.5245 34.4004C34.4229 34.4105 34.3203 34.4004 34.2225 34.3707C34.1248 34.341 34.0339 34.2923 33.955 34.2275C33.8762 34.1626 33.8108 34.0828 33.7628 33.9926C33.7149 33.9025 33.6851 33.8038 33.6753 33.7021C33.6614 33.5627 33.6563 33.4226 33.66 33.2825C33.66 31.356 33.66 29.43 33.66 27.5044C33.6659 27.3518 33.6544 27.1989 33.6256 27.0489C33.5566 26.7625 33.3507 26.6239 33.0628 26.6346C32.7749 26.6453 32.5827 26.7977 32.5337 27.094C32.5158 27.2331 32.5094 27.3735 32.5145 27.5136C32.5145 30.4856 32.5145 33.4573 32.5145 36.4288C32.5194 36.6069 32.5053 36.7851 32.4724 36.9602C32.3866 37.3431 32.0474 37.5728 31.6477 37.5506C31.4617 37.5426 31.2848 37.4675 31.1497 37.3393C31.0146 37.2111 30.9304 37.0384 30.9126 36.853C30.9051 36.7383 30.9033 36.6233 30.9073 36.5084C30.9073 33.5114 30.9073 30.5142 30.9073 27.5167C30.9115 27.3629 30.9013 27.2091 30.8767 27.0573C30.8581 26.9353 30.7958 26.8242 30.7014 26.7448C30.607 26.6653 30.487 26.6229 30.3636 26.6254C30.0857 26.6139 29.8613 26.7418 29.7863 27.0274C29.7507 27.189 29.7358 27.3544 29.7419 27.5198C29.7455 30.9752 29.7521 34.4313 29.7618 37.8883C29.7618 38.2765 29.7051 38.6295 29.3215 38.8331C29.2173 38.891 29.1013 38.9245 28.9823 38.9312C28.8633 38.9379 28.7443 38.9175 28.6343 38.8717C28.5243 38.8259 28.426 38.7558 28.3469 38.6666C28.2678 38.5775 28.2099 38.4716 28.1775 38.3569C28.1373 38.1832 28.1201 38.0051 28.1262 37.827C28.1262 34.3966 28.1262 30.9657 28.1262 27.5343C28.1262 27.4072 28.1262 27.2793 28.1201 27.1515C28.0971 26.8168 27.8942 26.6308 27.5841 26.6155C27.274 26.6001 27.0558 26.7839 26.9991 27.1047C26.9809 27.2436 26.975 27.3837 26.9815 27.5236C26.9815 30.5354 26.9815 33.5454 26.9815 36.5536C26.9815 37.1662 26.7311 37.5023 26.2602 37.5429C25.8444 37.5797 25.506 37.3523 25.4049 36.9449C25.3715 36.783 25.3576 36.6177 25.3635 36.4525C25.3635 33.1243 25.3635 29.7955 25.3635 26.4661C25.3635 26.3643 25.3635 26.2617 25.3635 26.1599C25.3536 25.7357 25.1468 25.4998 24.7893 25.5029C24.4317 25.5059 24.2234 25.7494 24.2173 26.1706C24.2104 26.7066 24.2173 27.2426 24.2173 27.7786C24.2173 28.1331 24.1568 28.1699 23.8474 27.9937C23.2157 27.6323 22.8382 27.091 22.8275 26.3559C22.8084 25.068 22.8191 23.7793 22.8237 22.4913C22.8237 21.927 23.0595 21.4561 23.4493 21.0587C23.8069 20.695 24.169 20.3359 24.5297 19.9745C25.2081 19.2953 25.5894 18.4844 25.5879 17.5173C25.5879 17.2876 25.6461 17.1965 25.8865 17.2164C26.1416 17.2302 26.3972 17.2302 26.6522 17.2164C27.065 17.2041 27.3276 16.979 27.3322 16.6451C27.3368 16.3113 27.0741 16.0762 26.6637 16.0716C25.9746 16.0647 25.2854 16.0624 24.5963 16.0716C24.3666 16.0716 24.2847 16.0127 24.29 15.7707C24.3023 14.6477 24.3023 13.5246 24.29 12.4016C24.29 12.1588 24.3666 12.1052 24.5963 12.106C28.0165 12.1121 31.4349 12.1121 34.8515 12.106C35.0712 12.106 35.1646 12.1412 35.1578 12.3931C35.144 13.5157 35.1417 14.6382 35.1578 15.7623C35.1616 16.0387 35.0498 16.0686 34.8216 16.0686C33.1248 16.0617 31.4287 16.0686 29.7319 16.0686C29.6041 16.0638 29.4761 16.0692 29.3491 16.0846C29.2231 16.1044 29.1076 16.1667 29.0219 16.2612C28.9362 16.3556 28.8853 16.4766 28.8778 16.6039C28.8703 16.7313 28.9066 16.8573 28.9806 16.9612C29.0546 17.0651 29.1619 17.1405 29.2847 17.175C29.4211 17.206 29.5608 17.2194 29.7005 17.2148C30.9892 17.2148 32.2771 17.2233 33.5651 17.2102C33.8292 17.2102 33.9188 17.2753 33.9073 17.5479C33.8606 18.4367 34.1647 19.3084 34.7542 19.9752C35.1371 20.4224 35.2902 20.9461 35.2902 21.5281C35.2821 23.496 35.2792 25.4618 35.2818 27.4256ZM48.5454 40.6992C46.5035 42.7482 44.4599 44.7957 42.4144 46.8417C42.0537 47.2024 41.687 47.5569 41.3378 47.9282C41.1847 48.0906 41.0935 48.1227 40.9174 47.942C40.1356 47.138 39.3408 46.3463 38.5437 45.5599C38.3868 45.4068 38.3515 45.3187 38.5292 45.1411C40.9667 42.7127 43.3986 40.2785 45.8249 37.8385C45.9566 37.706 46.037 37.6708 46.187 37.8239C46.9995 38.6517 47.8226 39.4687 48.6419 40.2895C48.6856 40.3339 48.7246 40.3829 48.7621 40.4251C48.7292 40.5621 48.622 40.6211 48.5454 40.6992ZM26.1675 13.4889C26.0886 13.4881 26.0103 13.503 25.9372 13.5329C25.8641 13.5628 25.7977 13.6071 25.742 13.663C25.6863 13.719 25.6423 13.7855 25.6127 13.8587C25.5831 13.9319 25.5684 14.0102 25.5695 14.0892C25.5676 14.2489 25.6282 14.4031 25.7383 14.5188C25.8485 14.6346 25.9995 14.7027 26.1591 14.7087C26.3251 14.7057 26.4834 14.6383 26.6006 14.5207C26.7178 14.4031 26.7846 14.2445 26.787 14.0785C26.781 13.9188 26.7129 13.7678 26.5972 13.6577C26.4815 13.5475 26.3273 13.487 26.1675 13.4889Z" fill="white"/>
<path d="M42.1447 21.8275C42.2981 21.8289 42.4446 21.891 42.5522 22.0002C42.6599 22.1094 42.7198 22.2569 42.719 22.4102C42.7182 22.5625 42.6569 22.7082 42.5486 22.8154C42.4404 22.9225 42.294 22.9822 42.1417 22.9814C41.9894 22.9806 41.8436 22.9193 41.7365 22.811C41.6294 22.7028 41.5696 22.5564 41.5704 22.4041C41.5688 22.3281 41.5825 22.2526 41.6107 22.182C41.639 22.1114 41.6812 22.0473 41.7348 21.9935C41.7884 21.9396 41.8524 21.8972 41.9228 21.8687C41.9933 21.8401 42.0687 21.8261 42.1447 21.8275Z" fill="white"/>
<path d="M16.709 24.0335C16.7119 24.1094 16.6993 24.1852 16.6719 24.2561C16.6445 24.327 16.6028 24.3915 16.5495 24.4458C16.4962 24.5 16.4324 24.5427 16.362 24.5714C16.2916 24.6 16.2161 24.614 16.1401 24.6123C15.9939 24.6127 15.8531 24.5576 15.7461 24.4581C15.639 24.3585 15.5738 24.2221 15.5635 24.0763C15.5641 23.9234 15.6218 23.7762 15.7254 23.6637C15.829 23.5512 15.9709 23.4816 16.1232 23.4684C16.1988 23.4669 16.2739 23.4804 16.3443 23.5081C16.4146 23.5357 16.4789 23.577 16.5333 23.6295C16.5877 23.6819 16.6312 23.7446 16.6613 23.814C16.6915 23.8833 16.7077 23.9579 16.709 24.0335Z" fill="white"/>
<path d="M21.1403 18.8174C21.1386 18.9311 21.1033 19.0417 21.0387 19.1353C20.9742 19.2289 20.8834 19.3013 20.7777 19.3433C20.672 19.3853 20.5563 19.395 20.4451 19.3713C20.3339 19.3475 20.2323 19.2913 20.153 19.2098C20.0738 19.1283 20.0204 19.0251 19.9998 18.9133C19.9791 18.8015 19.9921 18.6861 20.037 18.5817C20.082 18.4772 20.1569 18.3885 20.2522 18.3266C20.3476 18.2647 20.4592 18.2324 20.5729 18.2339C20.6489 18.2334 20.7243 18.2482 20.7944 18.2775C20.8646 18.3069 20.9281 18.3501 20.9811 18.4046C21.0341 18.4591 21.0755 18.5238 21.1029 18.5947C21.1302 18.6657 21.143 18.7414 21.1403 18.8174Z" fill="white"/>
<path d="M15.2414 25.5894C15.3193 25.5854 15.3972 25.5972 15.4704 25.6243C15.5436 25.6513 15.6105 25.693 15.667 25.7467C15.7236 25.8004 15.7687 25.8651 15.7994 25.9368C15.8302 26.0085 15.8461 26.0857 15.8461 26.1637C15.8461 26.2417 15.8302 26.3189 15.7994 26.3906C15.7687 26.4623 15.7236 26.5269 15.667 26.5806C15.6105 26.6344 15.5436 26.676 15.4704 26.7031C15.3972 26.7301 15.3193 26.742 15.2414 26.738C15.0945 26.7376 14.9537 26.6795 14.8493 26.5762C14.7448 26.4729 14.6852 26.3327 14.6832 26.1859C14.6798 26.1098 14.6916 26.0339 14.718 25.9625C14.7444 25.8911 14.7848 25.8257 14.8368 25.7702C14.8888 25.7146 14.9513 25.67 15.0208 25.6389C15.0903 25.6079 15.1653 25.591 15.2414 25.5894Z" fill="white"/>
<path d="M43.3054 25.0526C43.2294 25.0479 43.155 25.028 43.0867 24.9942C43.0184 24.9604 42.9575 24.9133 42.9076 24.8557C42.8577 24.7981 42.8198 24.7312 42.7961 24.6587C42.7723 24.5863 42.7633 24.5099 42.7694 24.4339C42.7743 24.3581 42.7944 24.284 42.8285 24.2161C42.8627 24.1482 42.9101 24.0878 42.9681 24.0387C43.026 23.9895 43.0933 23.9525 43.1659 23.9299C43.2384 23.9073 43.3148 23.8995 43.3904 23.9071C43.5364 23.9243 43.6706 23.9953 43.7668 24.1064C43.863 24.2175 43.9142 24.3605 43.9104 24.5074C43.9069 24.5831 43.8885 24.6574 43.8562 24.7259C43.8238 24.7944 43.7782 24.8558 43.7219 24.9065C43.6656 24.9572 43.5998 24.9962 43.5283 25.0213C43.4568 25.0464 43.3811 25.057 43.3054 25.0526Z" fill="white"/>
<path d="M17.9167 22.0771C17.913 22.2306 17.8501 22.3767 17.7413 22.485C17.6324 22.5933 17.4859 22.6554 17.3324 22.6583C17.1792 22.6523 17.0345 22.5865 16.9292 22.475C16.824 22.3634 16.7667 22.2151 16.7696 22.0618C16.7757 21.9153 16.8373 21.7767 16.942 21.6741C17.0467 21.5715 17.1866 21.5127 17.3332 21.5097C17.409 21.5077 17.4845 21.5208 17.5552 21.5484C17.6258 21.576 17.6902 21.6175 17.7446 21.6704C17.799 21.7232 17.8422 21.7865 17.8718 21.8563C17.9013 21.9262 17.9166 22.0013 17.9167 22.0771Z" fill="white"/>
<path d="M38.8643 19.4883C38.7884 19.4905 38.7129 19.4774 38.6422 19.4499C38.5714 19.4225 38.5069 19.3811 38.4524 19.3283C38.3979 19.2755 38.3545 19.2123 38.3248 19.1425C38.295 19.0727 38.2796 18.9976 38.2793 18.9217C38.279 18.8457 38.2937 18.7704 38.3225 18.7001C38.3513 18.6298 38.3937 18.5659 38.4473 18.512C38.5008 18.4581 38.5645 18.4153 38.6346 18.386C38.7047 18.3567 38.7799 18.3415 38.8559 18.3413C39.0027 18.3485 39.1418 18.4091 39.2471 18.5116C39.3524 18.614 39.4167 18.7515 39.4279 18.898C39.4302 18.9739 39.4174 19.0495 39.3903 19.1205C39.3631 19.1914 39.3221 19.2562 39.2697 19.3111C39.2172 19.3661 39.1544 19.41 39.0848 19.4405C39.0152 19.4709 38.9402 19.4872 38.8643 19.4883Z" fill="white"/>
<path d="M44.0987 29.0728C44.099 28.9968 44.1143 28.9216 44.1439 28.8516C44.1735 28.7816 44.2166 28.7181 44.2709 28.6649C44.3252 28.6117 44.3895 28.5698 44.4601 28.5416C44.5307 28.5135 44.6061 28.4996 44.6821 28.5008C44.8293 28.5092 44.9676 28.5739 45.0685 28.6814C45.1694 28.7888 45.2251 28.931 45.2243 29.0784C45.2234 29.2258 45.1659 29.3672 45.0637 29.4735C44.9616 29.5797 44.8225 29.6427 44.6752 29.6494C44.5993 29.6501 44.524 29.6357 44.4537 29.6069C44.3835 29.5782 44.3196 29.5358 44.2659 29.4821C44.2123 29.4284 44.1698 29.3646 44.1411 29.2943C44.1124 29.224 44.0979 29.1487 44.0987 29.0728Z" fill="white"/>
<path d="M15.1829 33.0085C15.1833 33.0845 15.168 33.1597 15.138 33.2294C15.108 33.2992 15.0639 33.362 15.0084 33.4139C14.953 33.4658 14.8875 33.5057 14.8159 33.531C14.7443 33.5564 14.6683 33.5668 14.5925 33.5614C14.4456 33.5559 14.3065 33.494 14.204 33.3887C14.1015 33.2833 14.0435 33.1425 14.042 32.9955C14.0459 32.8424 14.1084 32.6966 14.2167 32.5883C14.325 32.48 14.4708 32.4175 14.6239 32.4136C14.6997 32.4159 14.7743 32.4331 14.8435 32.4642C14.9126 32.4954 14.9749 32.5398 15.0268 32.5951C15.0788 32.6504 15.1193 32.7153 15.146 32.7863C15.1728 32.8572 15.1854 32.9327 15.1829 33.0085Z" fill="white"/>
<path d="M15.1051 35.8254C14.9518 35.823 14.8058 35.7599 14.699 35.6499C14.5922 35.54 14.5334 35.3922 14.5354 35.2389C14.5331 35.1629 14.5467 35.0873 14.5753 35.0169C14.604 34.9465 14.647 34.8828 14.7016 34.83C14.7562 34.7772 14.8213 34.7363 14.8926 34.7101C14.9639 34.6838 15.04 34.6728 15.1158 34.6776C15.2627 34.6803 15.4029 34.7395 15.5073 34.8429C15.6117 34.9463 15.6722 35.0859 15.6763 35.2328C15.6749 35.3858 15.6149 35.5326 15.5087 35.6428C15.4024 35.753 15.258 35.8184 15.1051 35.8254Z" fill="white"/>
<path d="M43.6233 26.7349C43.6211 26.659 43.6339 26.5835 43.6611 26.5126C43.6883 26.4418 43.7293 26.377 43.7818 26.3222C43.8342 26.2673 43.897 26.2234 43.9666 26.1931C44.0361 26.1627 44.111 26.1464 44.1869 26.1453C44.3401 26.1503 44.4855 26.214 44.5932 26.3231C44.7009 26.4322 44.7627 26.5785 44.7657 26.7318C44.7627 26.8787 44.7034 27.0189 44.6002 27.1234C44.4969 27.228 44.3575 27.289 44.2106 27.2938C44.1347 27.2985 44.0586 27.2874 43.9871 27.2613C43.9156 27.2352 43.8503 27.1947 43.7952 27.1423C43.7401 27.0898 43.6964 27.0266 43.6668 26.9565C43.6372 26.8864 43.6224 26.8109 43.6233 26.7349Z" fill="white"/>
<path d="M41.2017 20.522C41.2052 20.5979 41.1928 20.6738 41.1655 20.7447C41.1381 20.8156 41.0964 20.8801 41.0428 20.9341C40.9893 20.988 40.9251 21.0303 40.8544 21.0582C40.7837 21.0862 40.708 21.0991 40.632 21.0963C40.4789 21.0937 40.3329 21.0314 40.225 20.9227C40.1172 20.814 40.0561 20.6675 40.0547 20.5143C40.0632 20.3678 40.125 20.2294 40.2286 20.1252C40.3321 20.0211 40.4702 19.9585 40.6167 19.9492C40.7702 19.9478 40.918 20.0073 41.0276 20.1147C41.1373 20.222 41.1999 20.3685 41.2017 20.522Z" fill="white"/>
<path d="M14.6784 28.9694C14.6024 28.9681 14.5274 28.9517 14.4578 28.921C14.3883 28.8903 14.3256 28.846 14.2734 28.7907C14.2213 28.7354 14.1807 28.6702 14.1541 28.599C14.1275 28.5278 14.1155 28.4519 14.1187 28.376C14.1292 28.2294 14.1932 28.0918 14.2985 27.9894C14.4038 27.8869 14.5431 27.8266 14.6899 27.8201C14.7658 27.821 14.8407 27.8368 14.9104 27.8668C14.9802 27.8968 15.0433 27.9402 15.0961 27.9947C15.149 28.0491 15.1906 28.1134 15.2185 28.184C15.2464 28.2546 15.2601 28.33 15.2588 28.4058C15.2605 28.4817 15.2465 28.5572 15.2177 28.6274C15.1889 28.6977 15.1459 28.7612 15.0915 28.8141C15.037 28.867 14.9722 28.9081 14.9011 28.9348C14.83 28.9615 14.7542 28.9733 14.6784 28.9694Z" fill="white"/>
<path d="M15.0586 30.6844C15.0598 30.7604 15.0458 30.8359 15.0174 30.9064C14.989 30.9769 14.9467 31.041 14.8931 31.0949C14.8395 31.1488 14.7756 31.1914 14.7053 31.2202C14.6349 31.249 14.5595 31.2634 14.4835 31.2625C14.4108 31.2648 14.3384 31.2525 14.2706 31.2264C14.2027 31.2003 14.1407 31.161 14.0882 31.1106C14.0357 31.0603 13.9938 31 13.9649 30.9332C13.936 30.8665 13.9208 30.7947 13.92 30.722C13.9154 30.6462 13.926 30.5703 13.951 30.4986C13.976 30.4269 14.015 30.3609 14.0657 30.3045C14.1164 30.248 14.1779 30.2021 14.2464 30.1696C14.315 30.137 14.3893 30.1184 14.4652 30.1147C14.6186 30.1144 14.7661 30.1736 14.8768 30.2799C14.9875 30.3861 15.0526 30.5311 15.0586 30.6844Z" fill="white"/>
<path d="M36.8427 18.1782C36.766 18.181 36.6895 18.1679 36.618 18.1397C36.5466 18.1115 36.4818 18.0689 36.4276 18.0144C36.3735 17.96 36.3312 17.8949 36.3034 17.8234C36.2756 17.7518 36.2629 17.6752 36.2661 17.5985C36.2696 17.4505 36.3297 17.3094 36.4342 17.2044C36.5386 17.0994 36.6793 17.0385 36.8274 17.0342C36.9819 17.0385 37.1289 17.1023 37.2376 17.2123C37.3463 17.3223 37.4083 17.4699 37.4109 17.6245C37.4074 17.7728 37.346 17.9138 37.2398 18.0174C37.1336 18.1209 36.991 18.1786 36.8427 18.1782Z" fill="white"/>
<path d="M19.4 20.3C19.4046 20.4532 19.3482 20.6019 19.2433 20.7136C19.1384 20.8252 18.9935 20.8907 18.8403 20.8957C18.6872 20.894 18.5407 20.8328 18.4318 20.7251C18.3229 20.6173 18.2602 20.4715 18.2568 20.3184C18.259 20.1717 18.317 20.0314 18.419 19.926C18.521 19.8206 18.6593 19.758 18.8058 19.751C18.8816 19.745 18.9578 19.7547 19.0296 19.7796C19.1014 19.8044 19.1673 19.8439 19.2231 19.8954C19.2789 19.947 19.3235 20.0096 19.3539 20.0792C19.3844 20.1488 19.4001 20.224 19.4 20.3Z" fill="white"/>
<path d="M45.3384 31.4663C45.3423 31.5422 45.3305 31.618 45.3038 31.6891C45.2771 31.7602 45.236 31.8251 45.1832 31.8796C45.1303 31.9341 45.0667 31.9772 44.9965 32.0061C44.9262 32.035 44.8508 32.0491 44.7748 32.0475C44.6218 32.0467 44.4752 31.9854 44.3672 31.8769C44.2592 31.7684 44.1984 31.6217 44.1982 31.4686C44.204 31.3219 44.2641 31.1825 44.3668 31.0775C44.4695 30.9725 44.6076 30.9094 44.7541 30.9004C44.83 30.898 44.9056 30.9108 44.9763 30.9381C45.0471 30.9655 45.1117 31.0067 45.1662 31.0595C45.2207 31.1123 45.264 31.1756 45.2936 31.2454C45.3232 31.3153 45.3384 31.3904 45.3384 31.4663Z" fill="white"/>
<path d="M21.9445 17.5251C21.95 17.4487 21.9711 17.3742 22.0065 17.3062C22.0419 17.2383 22.0908 17.1783 22.1503 17.13C22.2098 17.0817 22.2786 17.0461 22.3523 17.0254C22.4261 17.0048 22.5034 16.9994 22.5793 17.0098C22.6523 17.0159 22.7234 17.0365 22.7883 17.0705C22.8532 17.1045 22.9107 17.1511 22.9573 17.2076C23.004 17.2641 23.0389 17.3293 23.06 17.3995C23.081 17.4697 23.0879 17.5434 23.0801 17.6162C23.0676 17.7634 22.9992 17.9003 22.889 17.9987C22.7788 18.0971 22.6351 18.1496 22.4874 18.1453C22.3334 18.1345 22.1899 18.0632 22.0882 17.9471C21.9865 17.8309 21.9348 17.6792 21.9445 17.5251Z" fill="white"/>
<path d="M20.2905 45.5133C20.2955 45.5981 20.2828 45.6831 20.2532 45.7628C20.2236 45.8425 20.1778 45.9152 20.1185 45.9762C20.0593 46.0372 19.988 46.0853 19.9093 46.1172C19.8305 46.1492 19.7459 46.1644 19.6609 46.1619C19.5759 46.1594 19.4924 46.1392 19.4156 46.1027C19.3389 46.0661 19.2705 46.014 19.215 45.9496C19.1595 45.8852 19.118 45.8099 19.0932 45.7286C19.0683 45.6473 19.0607 45.5617 19.0707 45.4773C19.0888 45.3253 19.1631 45.1856 19.279 45.0856C19.3949 44.9857 19.544 44.9328 19.697 44.9373C19.85 44.9418 19.9958 45.0034 20.1056 45.11C20.2154 45.2166 20.2814 45.3605 20.2905 45.5133Z" fill="white"/>
<path d="M29.5609 46.0677C29.564 46.1435 29.5516 46.2191 29.5245 46.2899C29.4973 46.3608 29.456 46.4253 29.403 46.4796C29.35 46.5339 29.2865 46.5767 29.2163 46.6056C29.1462 46.6344 29.0708 46.6486 28.995 46.6473C28.8483 46.6485 28.7067 46.5937 28.5991 46.4941C28.4914 46.3945 28.4257 46.2576 28.4154 46.1113C28.4103 45.958 28.4654 45.8088 28.5688 45.6955C28.6722 45.5822 28.8158 45.5138 28.969 45.5049C29.0448 45.5027 29.1204 45.5156 29.1913 45.5428C29.2621 45.5699 29.327 45.6109 29.382 45.6632C29.437 45.7155 29.4811 45.7781 29.5118 45.8476C29.5425 45.917 29.5592 45.9918 29.5609 46.0677Z" fill="white"/>
<path d="M31.853 45.9965C31.8579 46.1488 31.8022 46.2969 31.698 46.4081C31.5939 46.5193 31.4498 46.5846 31.2975 46.5895C31.1451 46.5945 30.9971 46.5388 30.8859 46.4346C30.7747 46.3304 30.7094 46.1863 30.7044 46.034C30.7019 45.9586 30.7144 45.8834 30.7409 45.8128C30.7675 45.7422 30.8078 45.6775 30.8593 45.6224C30.9109 45.5674 30.9729 45.523 31.0416 45.4919C31.1103 45.4607 31.1845 45.4434 31.2599 45.441C31.3353 45.4385 31.4105 45.4509 31.4811 45.4775C31.5517 45.5041 31.6164 45.5443 31.6715 45.5959C31.7266 45.6475 31.7709 45.7094 31.8021 45.7782C31.8332 45.8469 31.8505 45.9211 31.853 45.9965Z" fill="white"/>
<path d="M36.2692 44.8393C36.2633 44.9925 36.1984 45.1375 36.0881 45.2439C35.9778 45.3504 35.8306 45.4101 35.6773 45.4105C35.525 45.4096 35.3793 45.3482 35.2722 45.2399C35.1652 45.1316 35.1055 44.9851 35.1065 44.8328C35.1074 44.6805 35.1688 44.5348 35.2771 44.4277C35.3854 44.3207 35.5319 44.2611 35.6842 44.262C35.8381 44.2616 35.986 44.322 36.0956 44.4302C36.2052 44.5383 36.2676 44.6854 36.2692 44.8393Z" fill="white"/>
<path d="M34.0963 45.5997C34.093 45.753 34.0293 45.8988 33.919 46.0052C33.8087 46.1116 33.6607 46.1701 33.5074 46.1679C33.3612 46.1576 33.2238 46.0943 33.121 45.9898C33.0182 45.8853 32.9571 45.7469 32.9492 45.6005C32.9488 45.5245 32.9635 45.4492 32.9924 45.3789C33.0213 45.3086 33.0639 45.2448 33.1177 45.1911C33.1715 45.1374 33.2354 45.0949 33.3057 45.066C33.376 45.0372 33.4513 45.0226 33.5273 45.0231C33.6032 45.0212 33.6787 45.0348 33.7491 45.0632C33.8195 45.0916 33.8834 45.1341 33.9367 45.1882C33.99 45.2422 34.0317 45.3066 34.0591 45.3774C34.0866 45.4482 34.0992 45.5239 34.0963 45.5997Z" fill="white"/>
<path d="M25.0861 45.2262C25.0772 45.3789 25.0096 45.5223 24.8974 45.6263C24.7852 45.7304 24.6372 45.787 24.4842 45.7844C24.3324 45.7728 24.1913 45.7021 24.0911 45.5876C23.9908 45.473 23.9395 45.3237 23.9482 45.1718C23.9508 45.0992 23.9677 45.0279 23.998 44.9619C24.0283 44.8959 24.0715 44.8365 24.1249 44.7873C24.1783 44.7381 24.2409 44.7 24.3092 44.6752C24.3774 44.6503 24.4499 44.6393 24.5225 44.6427C24.5979 44.6436 24.6724 44.6594 24.7417 44.6893C24.811 44.7192 24.8736 44.7625 24.9261 44.8168C24.9785 44.8711 25.0196 44.9352 25.0471 45.0054C25.0745 45.0757 25.0878 45.1507 25.0861 45.2262Z" fill="white"/>
<path d="M26.7022 46.3923C26.5492 46.3835 26.4053 46.3162 26.3004 46.2043C26.1955 46.0924 26.1376 45.9446 26.1387 45.7912C26.142 45.715 26.1607 45.6403 26.1936 45.5715C26.2265 45.5027 26.2729 45.4412 26.3301 45.3908C26.3873 45.3403 26.454 45.3019 26.5264 45.2778C26.5988 45.2537 26.6752 45.2445 26.7513 45.2506C26.8274 45.2523 26.9023 45.2698 26.9714 45.3019C27.0404 45.334 27.1021 45.3801 27.1524 45.4372C27.2028 45.4943 27.2408 45.5613 27.264 45.6338C27.2872 45.7063 27.2951 45.7829 27.2873 45.8586C27.2763 46.0054 27.2096 46.1425 27.1009 46.2418C26.9921 46.341 26.8495 46.3949 26.7022 46.3923Z" fill="white"/>
<path d="M26.7869 14.0794C26.7845 14.2454 26.7177 14.404 26.6005 14.5216C26.4833 14.6392 26.325 14.7066 26.159 14.7096C25.9993 14.7036 25.8484 14.6355 25.7382 14.5198C25.6281 14.404 25.5675 14.2499 25.5694 14.0901C25.5683 14.0112 25.583 13.9328 25.6126 13.8596C25.6422 13.7864 25.6862 13.7199 25.7419 13.6639C25.7976 13.608 25.864 13.5638 25.9371 13.5339C26.0101 13.5039 26.0885 13.489 26.1674 13.4898C26.3272 13.4879 26.4813 13.5485 26.5971 13.6586C26.7128 13.7687 26.7809 13.9197 26.7869 14.0794Z" fill="#F8F8F8"/>
<path d="M48.6398 40.2896C47.8205 39.4688 46.9974 38.6518 46.185 37.824C46.0318 37.6709 45.9553 37.7061 45.8228 37.8386C43.3945 40.2766 40.9626 42.7108 38.5271 45.1412C38.3495 45.3188 38.3847 45.4053 38.5416 45.56C39.341 46.3464 40.1359 47.1381 40.9154 47.9421C41.0915 48.1228 41.1834 48.0907 41.3357 47.9283C41.6849 47.557 42.0517 47.2024 42.4123 46.8418C44.4542 44.7948 46.4979 42.7473 48.5434 40.6993C48.6199 40.6227 48.7271 40.5622 48.7578 40.4251C48.7225 40.383 48.6835 40.334 48.6398 40.2896ZM46.185 40.8792C46.024 40.8717 45.8721 40.8026 45.7608 40.6861C45.6494 40.5696 45.5872 40.4148 45.587 40.2536C45.5887 40.1739 45.6063 40.0953 45.6385 40.0224C45.6708 39.9495 45.7171 39.8837 45.7749 39.8288C45.8327 39.7738 45.9008 39.7309 45.9752 39.7023C46.0497 39.6738 46.129 39.6603 46.2087 39.6625C46.2881 39.6624 46.3667 39.6784 46.4398 39.7095C46.5128 39.7405 46.5789 39.786 46.634 39.8432C46.689 39.9004 46.732 39.9682 46.7602 40.0424C46.7884 40.1166 46.8014 40.1957 46.7983 40.2751C46.798 40.3551 46.7819 40.4343 46.7508 40.508C46.7198 40.5818 46.6745 40.6487 46.6174 40.7048C46.5604 40.761 46.4929 40.8053 46.4186 40.8353C46.3444 40.8652 46.265 40.8801 46.185 40.8792Z" fill="#F8F8F8"/>
<path d="M46.7985 40.2743C46.7978 40.354 46.7814 40.4328 46.7502 40.5062C46.719 40.5795 46.6737 40.646 46.6168 40.7018C46.5599 40.7577 46.4926 40.8017 46.4186 40.8315C46.3447 40.8613 46.2656 40.8762 46.1859 40.8754C46.0249 40.8679 45.873 40.7988 45.7617 40.6823C45.6503 40.5658 45.5881 40.411 45.5879 40.2498C45.5897 40.1701 45.6072 40.0915 45.6395 40.0186C45.6717 39.9457 45.7181 39.8799 45.7758 39.825C45.8336 39.77 45.9017 39.7271 45.9761 39.6985C46.0506 39.67 46.13 39.6564 46.2096 39.6587C46.2893 39.6587 46.368 39.6749 46.4412 39.7061C46.5144 39.7374 46.5805 39.7832 46.6355 39.8408C46.6906 39.8983 46.7334 39.9663 46.7614 40.0409C46.7894 40.1154 46.802 40.1948 46.7985 40.2743Z" fill="#F8F8F8"/>
<path d="M26.7869 14.0794C26.7845 14.2454 26.7177 14.404 26.6005 14.5216C26.4833 14.6392 26.325 14.7066 26.159 14.7096C25.9993 14.7036 25.8484 14.6355 25.7382 14.5198C25.6281 14.404 25.5675 14.2499 25.5694 14.0901C25.5683 14.0112 25.583 13.9328 25.6126 13.8596C25.6422 13.7864 25.6862 13.7199 25.7419 13.6639C25.7976 13.608 25.864 13.5638 25.9371 13.5339C26.0101 13.5039 26.0885 13.489 26.1674 13.4898C26.3272 13.4879 26.4813 13.5485 26.5971 13.6586C26.7128 13.7687 26.7809 13.9197 26.7869 14.0794Z" fill="white"/>
<path d="M46.7985 40.2743C46.7978 40.354 46.7814 40.4328 46.7502 40.5062C46.719 40.5795 46.6737 40.646 46.6168 40.7018C46.5599 40.7577 46.4926 40.8017 46.4186 40.8315C46.3447 40.8613 46.2656 40.8762 46.1859 40.8754C46.0249 40.8679 45.873 40.7988 45.7617 40.6823C45.6503 40.5658 45.5881 40.411 45.5879 40.2498C45.5897 40.1701 45.6072 40.0915 45.6395 40.0186C45.6717 39.9457 45.7181 39.8799 45.7758 39.825C45.8336 39.77 45.9017 39.7271 45.9761 39.6985C46.0506 39.67 46.13 39.6564 46.2096 39.6587C46.2893 39.6587 46.368 39.6749 46.4412 39.7061C46.5144 39.7374 46.5805 39.7832 46.6355 39.8408C46.6906 39.8983 46.7334 39.9663 46.7614 40.0409C46.7894 40.1154 46.802 40.1948 46.7985 40.2743Z" fill="white"/>
</g>
<defs>
<clipPath id="clip0_4933_4979">
<rect width="39.1921" height="38.3054" fill="white" transform="translate(10.7256 10.969)"/>
</clipPath>
</defs>
</svg>
