<svg width="60" height="60" viewBox="0 0 60 60" fill="none" xmlns="http://www.w3.org/2000/svg">
<path d="M56 60H4C1.79086 60 0 58.2091 0 56V4C0 1.79086 1.79086 3.8147e-06 4 3.8147e-06H56C58.2091 3.8147e-06 60 1.79086 60 4V56C60 58.2091 58.2091 60 56 60Z" fill="#8DC63F"/>
<g clip-path="url(#clip0_4933_4966)">
<path d="M3.06445 22.4816C3.56933 21.7919 3.96522 21.7602 4.56941 22.3602C5.77504 23.5622 6.97974 24.7659 8.18352 25.9716C8.6815 26.4682 8.92842 26.4668 9.43191 25.9716C9.77539 25.6336 10.1065 25.2819 10.4582 24.9536C10.81 24.6252 11.2528 24.6156 11.5618 24.9204C11.8707 25.2253 11.879 25.6557 11.5618 26.024C11.5052 26.0888 11.4417 26.1468 11.3824 26.2088C10.6486 26.9496 10.6486 26.9496 11.3686 27.6697C12.1715 28.4725 12.9674 29.2822 13.7813 30.074C13.9213 30.2001 14.0313 30.356 14.1029 30.5304C14.1745 30.7047 14.206 30.8929 14.1951 31.081C14.1758 31.6134 14.2047 32.1487 14.1868 32.6811C14.1667 33.0206 14.2305 33.3598 14.3727 33.6688C14.5149 33.9777 14.7311 34.2468 15.0021 34.4523C15.4835 33.9543 16.0118 33.5309 16.7277 33.4067C17.9899 33.1874 19.1583 33.7654 19.699 34.9241C19.8232 35.2 19.8949 35.3007 20.2508 35.2C22.3034 34.5958 24.127 36.3035 23.6925 38.4072C23.6304 38.7092 23.6856 38.7934 23.9587 38.9051C24.3724 39.0572 24.7397 39.3137 25.0249 39.6496C25.3101 39.9856 25.5036 40.3897 25.5864 40.8225C25.6458 41.0984 25.7244 41.2295 26.0679 41.246C26.5127 41.2615 26.9469 41.3857 27.3327 41.6076C27.7185 41.8296 28.0441 42.1426 28.2811 42.5193C28.5182 42.896 28.6594 43.3251 28.6924 43.7689C28.7255 44.2128 28.6494 44.658 28.4708 45.0657C28.3646 45.3236 28.3632 45.4795 28.5812 45.6809C29.1233 46.1844 29.6309 46.7237 30.1579 47.2424C30.7538 47.8287 31.4766 47.8797 31.9856 47.3804C32.5208 46.8575 32.4726 46.1499 31.8477 45.5209C30.9152 44.5737 29.9785 43.6352 29.0378 42.7055C28.784 42.453 28.6708 42.1633 28.7743 41.8185C28.8144 41.6852 28.8916 41.566 28.9969 41.4749C29.1021 41.3838 29.2311 41.3245 29.3688 41.304C29.7123 41.2309 29.9565 41.4212 30.1827 41.6474C31.1483 42.613 32.0905 43.5786 33.0699 44.5249C33.8051 45.2312 34.9128 44.9112 35.1293 43.9538C35.2383 43.4683 35.0369 43.0834 34.7017 42.7482C33.7757 41.8286 32.8514 40.9044 31.9291 39.9756C31.7828 39.8293 31.6173 39.6914 31.569 39.4831C31.4807 39.1107 31.5828 38.7934 31.9235 38.5948C32.2891 38.3809 32.6202 38.4789 32.9043 38.7603C33.8561 39.7066 34.8052 40.6556 35.7515 41.6074C35.986 41.8419 36.2343 42.0475 36.5791 42.0916C36.8277 42.1268 37.0811 42.0844 37.3047 41.9704C37.5283 41.8564 37.7114 41.6762 37.8289 41.4543C37.9506 41.2236 37.993 40.9592 37.9497 40.7019C37.9063 40.4447 37.7795 40.2088 37.5889 40.0307C36.7102 39.1341 35.8149 38.2527 34.9279 37.3643C34.8176 37.2553 34.7031 37.1505 34.5996 37.036C34.2672 36.6649 34.252 36.2497 34.5555 35.9325C34.859 35.6152 35.3266 35.5903 35.6963 35.9518C36.604 36.8429 37.4992 37.745 38.3986 38.6486C38.509 38.7575 38.6138 38.872 38.7324 38.9713C39.2635 39.4238 39.9436 39.4155 40.4084 38.9548C40.5219 38.8426 40.6119 38.7089 40.673 38.5615C40.7342 38.4141 40.7653 38.256 40.7645 38.0964C40.7637 37.9368 40.7311 37.779 40.6685 37.6322C40.606 37.4854 40.5147 37.3526 40.4002 37.2415C39.4346 36.2442 38.4345 35.2662 37.4496 34.2813C36.6591 33.4909 35.866 32.7018 35.0797 31.9086C34.6534 31.4796 34.6038 31.0272 34.9293 30.6865C35.2811 30.3195 35.7225 30.3595 36.1832 30.8175C37.913 32.5432 39.6484 34.2661 41.3561 36.0083C41.6582 36.3173 41.7934 36.2566 42.0541 35.9904C43.3066 34.7144 44.5771 33.4536 45.8462 32.1928C46.2476 31.7942 46.6876 31.7721 47.0228 32.1059C47.358 32.4397 47.3249 32.8743 46.9373 33.2853C46.8545 33.3736 46.7676 33.4577 46.6821 33.5419C45.3201 34.9048 43.9573 36.2667 42.5935 37.6278C42.5042 37.7041 42.4316 37.798 42.3804 37.9036C42.3291 38.0092 42.3002 38.1243 42.2955 38.2416C42.2763 38.8917 42.0211 39.5125 41.5777 39.9882C41.1342 40.4639 40.5327 40.762 39.8856 40.8267C39.5684 40.8667 39.5187 40.9646 39.487 41.2515C39.4167 41.8628 39.1397 42.4318 38.702 42.8643C38.2643 43.2967 37.692 43.5668 37.0799 43.6297C36.804 43.6586 36.7281 43.729 36.6881 44.0076C36.495 45.3871 35.608 46.252 34.2189 46.4354C33.9748 46.4672 33.9196 46.5568 33.8892 46.7789C33.7278 47.9583 33.1016 48.7874 31.9511 49.1391C30.8007 49.4909 29.8282 49.1391 29.0088 48.2797C28.5232 47.768 28.0046 47.2879 27.5204 46.7775C27.3356 46.583 27.2238 46.5817 27.0417 46.7775C26.6665 47.1803 26.2693 47.5624 25.8775 47.9487C25.0719 48.7446 24.1132 49.0191 23.0414 48.6549C21.9696 48.2908 21.3157 47.4921 21.1557 46.3554C21.1171 46.0796 21.0371 46.012 20.7722 45.9692C19.4218 45.7512 18.6217 44.9429 18.3913 43.5676C18.3513 43.3262 18.2975 43.2434 18.034 43.2117C16.7319 43.0558 15.8339 42.1495 15.6421 40.8281C15.609 40.5977 15.5676 40.4735 15.2876 40.4446C14.1744 40.3301 13.3978 39.7162 13.0212 38.6803C12.6446 37.6443 12.8653 36.6842 13.6143 35.8593C13.6944 35.7711 13.7716 35.68 13.8502 35.5835C13.8624 35.5627 13.8731 35.541 13.882 35.5186C12.8557 34.6399 12.5356 33.4784 12.657 32.1818C12.726 31.4355 12.5025 30.892 11.9301 30.3885C11.13 29.6878 10.403 28.9015 9.6609 28.1359C9.57633 28.0314 9.46584 27.951 9.34045 27.9026C9.21507 27.8542 9.07918 27.8395 8.94635 27.86C8.65488 27.899 8.35833 27.8694 8.08031 27.7736C7.80228 27.6778 7.55044 27.5185 7.34483 27.3082C5.9985 25.9798 4.66459 24.6377 3.32792 23.2982C3.23412 23.2044 3.1555 23.0968 3.06859 22.9961L3.06445 22.4816Z" fill="white"/>
<path d="M20.306 26.2628C20.308 25.8289 20.3967 25.3998 20.5667 25.0007C20.7368 24.6015 20.9849 24.2404 21.2964 23.9384C22.211 23.0294 23.1104 22.1038 24.0401 21.2085C24.2939 20.9644 24.2401 20.8512 23.9987 20.6664C23.3297 20.1533 22.5338 19.9132 21.7599 19.6498C20.986 19.3863 20.346 19.0359 19.8535 18.4083C19.6204 18.1103 19.4618 18.1089 19.1831 18.3931C17.5692 20.0388 15.9318 21.661 14.3027 23.2915C14.1813 23.4129 14.0641 23.5398 13.9344 23.6529C13.5578 23.9867 13.1509 23.9936 12.8308 23.6805C12.5108 23.3673 12.5108 22.9383 12.8308 22.5769C13.0129 22.3728 13.2157 22.1852 13.4102 21.9907C15.2494 20.1514 17.0864 18.3149 18.921 16.4812C19.4411 15.9612 19.4438 15.7087 18.9321 15.1956C18.0092 14.27 17.0823 13.3471 16.1608 12.4202C15.7318 11.987 15.689 11.5442 16.0325 11.2021C16.376 10.86 16.8215 10.9 17.2519 11.3276C18.2286 12.2969 19.202 13.2694 20.1722 14.2451C20.8619 14.9349 21.0233 15.7542 20.6881 16.6578C20.6108 16.8647 20.6095 16.9833 20.7681 17.1489C21.2137 17.6082 21.6716 18.0041 22.3131 18.2041C23.6497 18.6179 24.9202 19.1835 25.8527 20.2981C26.0155 20.4912 26.2279 20.436 26.4279 20.436C28.664 20.436 30.9 20.4457 33.1361 20.436C33.7391 20.4222 34.3341 20.5759 34.8549 20.8802C35.5363 21.2789 36.2343 21.643 36.9157 22.0445C37.1516 22.1824 37.2923 22.1562 37.4813 21.9644C38.2303 21.2044 38.9987 20.4622 39.7587 19.7187C39.916 19.5656 39.9974 19.4622 39.8677 19.2083C39.5091 18.5186 39.6332 17.8289 40.1836 17.2771C42.1727 15.277 44.1669 13.2818 46.1662 11.2918C46.5621 10.8973 47.0214 10.878 47.3497 11.2132C47.6781 11.5484 47.6408 12.0036 47.2477 12.3981C45.3551 14.2989 43.4625 16.2012 41.5506 18.0855C41.2527 18.3793 41.2223 18.5297 41.5506 18.8359C44.8088 21.924 48.0546 25.0254 51.288 28.1402C51.5639 28.4023 51.7019 28.3609 51.9377 28.1167C52.7502 27.2753 53.5834 26.4545 54.4124 25.6337C54.8704 25.1771 55.3242 25.1151 55.6719 25.4517C56.0195 25.7882 55.9864 26.2531 55.5339 26.7083C54.6483 27.5994 53.7604 28.4873 52.8702 29.372C52.2826 29.9569 51.6053 30.121 50.8521 29.7417C50.6231 29.6272 50.5197 29.7072 50.379 29.852C50.07 30.1748 49.7541 30.4935 49.4313 30.8011C49.0547 31.1597 48.6037 31.1832 48.285 30.8756C47.9664 30.568 47.9788 30.0934 48.354 29.692L48.3898 29.6562C48.7264 29.2699 49.4092 28.9527 49.3651 28.5402C49.3209 28.1278 48.703 27.8077 48.3305 27.4518C46.0315 25.253 43.7324 23.0528 41.4334 20.8512C41.1989 20.6264 41.072 20.5933 40.8264 20.843C39.985 21.7037 39.1159 22.5383 38.2552 23.3797C37.6717 23.9494 37.2592 24.0032 36.546 23.6129C36.3444 23.5174 36.1499 23.4077 35.9639 23.2846C34.4617 22.1521 32.7747 21.8541 30.9235 21.9755C29.2957 22.0817 27.657 22.0072 26.0223 21.992C25.8429 21.9807 25.6633 22.0093 25.4963 22.0759C25.3293 22.1424 25.1792 22.2453 25.0567 22.3769C24.1587 23.3025 23.229 24.1991 22.331 25.1233C21.8096 25.6599 21.7227 26.3097 22.0358 26.9166C22.1765 27.1943 22.3979 27.4228 22.671 27.5723C22.944 27.7217 23.2559 27.785 23.5656 27.7539C23.9265 27.7067 24.2639 27.5486 24.5312 27.3015C25.2485 26.7111 25.9699 26.129 26.6803 25.5303C26.8976 25.3332 27.1815 25.2257 27.4749 25.2296C28.6446 25.2365 29.8199 25.2296 30.9828 25.2296C31.6518 25.2296 31.9484 25.5592 31.8463 26.1952C31.8049 26.4366 31.9029 26.54 32.0353 26.6724C32.5471 27.1828 33.0616 27.6905 33.5665 28.2064C33.9955 28.645 34.0313 29.0796 33.6851 29.4244C33.3389 29.7693 32.8892 29.7182 32.4629 29.2961C31.7056 28.5457 30.9455 27.7939 30.2034 27.0311C30.033 26.8679 29.8088 26.7727 29.573 26.7635C28.2267 26.5828 27.0818 26.9097 26.1589 27.9526C25.8722 28.2507 25.5502 28.5129 25.2002 28.7333C24.1781 29.4341 23.0828 29.5251 21.9848 28.9554C20.8867 28.3857 20.3598 27.4215 20.306 26.2628Z" fill="white"/>
<path d="M18.3435 41.6835C18.1274 41.6893 17.9142 41.6328 17.7293 41.5208C17.5444 41.4088 17.3956 41.246 17.3007 41.0517C17.08 40.6186 17.08 40.1523 17.4179 39.7992C18.367 38.806 19.3339 37.828 20.3299 36.8817C20.7672 36.4679 21.45 36.5437 21.8721 36.9631C22.0888 37.1652 22.2167 37.4449 22.2281 37.741C22.2395 38.0371 22.1333 38.3257 21.9328 38.5439C21.0072 39.5095 20.0471 40.4489 19.0939 41.3911C18.9949 41.4877 18.8774 41.5634 18.7485 41.6136C18.6195 41.6639 18.4818 41.6876 18.3435 41.6835Z" fill="#F8F8F8"/>
<path d="M25.9309 42.7828C26.1653 42.7763 26.3962 42.841 26.5932 42.9683C26.7902 43.0956 26.944 43.2795 27.0345 43.4959C27.2427 43.9373 27.2083 44.3898 26.8731 44.7374C26.153 45.4961 25.4178 46.2438 24.6508 46.9555C24.168 47.4052 23.4907 47.3321 23.0341 46.859C22.5775 46.3858 22.5403 45.7237 22.9996 45.2368C23.6893 44.5015 24.4246 43.798 25.1433 43.0849C25.2473 42.9838 25.3707 42.905 25.5061 42.8531C25.6415 42.8011 25.786 42.7772 25.9309 42.7828Z" fill="#F8F8F8"/>
<path d="M24.1188 41.3786C24.1239 41.691 24.0066 41.993 23.7919 42.22C23.1684 42.8573 22.5504 43.5002 21.8993 44.1099C21.6778 44.317 21.3842 44.4297 21.0809 44.4239C20.7777 44.4182 20.4886 44.2944 20.2751 44.0789C20.0616 43.8635 19.9405 43.5733 19.9376 43.27C19.9346 42.9667 20.0499 42.6742 20.2592 42.4545C20.8702 41.8062 21.5006 41.1799 22.1504 40.5647C22.3138 40.3962 22.5277 40.2855 22.7597 40.2494C22.9916 40.2133 23.2291 40.2538 23.436 40.3647C23.6325 40.4539 23.8004 40.5959 23.921 40.775C24.0415 40.954 24.11 41.1629 24.1188 41.3786Z" fill="#F8F8F8"/>
<path d="M15.6238 38.9122C15.402 38.9307 15.1797 38.8818 14.9862 38.7717C14.7927 38.6617 14.637 38.4957 14.5396 38.2956C14.3133 37.8652 14.3216 37.4031 14.6541 37.0444C15.2596 36.3906 15.8955 35.7547 16.5494 35.1574C16.762 34.9776 17.0346 34.8849 17.3126 34.8977C17.5907 34.9104 17.8537 35.0278 18.0488 35.2263C18.4709 35.625 18.5827 36.2692 18.2116 36.7203C17.6026 37.4409 16.935 38.1099 16.2156 38.7204C16.0491 38.8559 15.8381 38.9243 15.6238 38.9122Z" fill="#F8F8F8"/>
</g>
<defs>
<clipPath id="clip0_4933_4966">
<rect width="52.8447" height="38.3054" fill="white" transform="translate(3.06445 10.969)"/>
</clipPath>
</defs>
</svg>
