<svg width="60" height="60" viewBox="0 0 60 60" fill="none" xmlns="http://www.w3.org/2000/svg">
<path d="M56 60H4C1.79086 60 0 58.2091 0 56V4C0 1.79086 1.79086 3.8147e-06 4 3.8147e-06H56C58.2091 3.8147e-06 60 1.79086 60 4V56C60 58.2091 58.2091 60 56 60Z" fill="#EC008C"/>
<g clip-path="url(#clip0_4933_4947)">
<path d="M40.825 26.2463C39.8103 19.7777 33.6194 15.4082 27.2022 16.6308C22.3139 17.5632 18.6734 21.3032 17.8575 26.3777C17.1296 30.9141 19.2756 35.6813 23.5857 38.1472C23.6858 38.1924 23.7691 38.2681 23.8235 38.3636C23.8779 38.459 23.9006 38.5693 23.8885 38.6785C23.8778 40.8115 23.8778 42.9482 23.8885 45.0888C23.8885 45.9607 24.4598 46.5297 25.3317 46.54C25.6448 46.54 25.959 46.5571 26.2709 46.54C26.5337 46.5229 26.6572 46.5788 26.6297 46.8828C26.6107 47.21 26.6088 47.538 26.624 47.8655C26.6377 48.7088 27.2068 49.2732 28.0569 49.2847C28.4843 49.2847 28.9116 49.2847 29.339 49.2847C29.8086 49.2847 30.2794 49.295 30.749 49.2847C31.1018 49.2797 31.4389 49.1381 31.6893 48.8896C31.9398 48.6411 32.084 48.3051 32.0917 47.9523C32.1122 47.6396 32.1122 47.3258 32.0917 47.0131C32.0585 46.6611 32.1351 46.484 32.5373 46.5457C32.7927 46.5674 33.0494 46.5697 33.3052 46.5526C34.289 46.5526 34.8318 46.0041 34.8329 45.0134C34.8329 42.92 34.8386 40.8255 34.8272 38.7288C34.814 38.6059 34.8401 38.482 34.9016 38.3748C34.9632 38.2677 35.0572 38.1828 35.17 38.1323C37.2085 36.9602 38.8416 35.195 39.8519 33.0716C40.8621 30.9482 41.2016 28.5674 40.825 26.2463ZM34.2776 37.0342C33.664 37.3587 33.3634 37.7312 33.4526 38.4271C33.4948 38.7493 33.4526 39.0818 33.464 39.4098C33.4731 39.62 33.4274 39.7057 33.1886 39.7012C32.2345 39.6863 31.2804 39.6897 30.3262 39.7012C30.1171 39.7012 30.0291 39.6669 30.0337 39.4269C30.0486 38.5448 30.0451 37.6615 30.0337 36.7782C30.033 36.7014 30.0496 36.6253 30.0822 36.5557C30.1148 36.4861 30.1627 36.4247 30.2223 36.376C30.7387 35.8656 31.2526 35.3526 31.7637 34.8369C32.1476 34.4484 32.1853 34.061 31.878 33.7536C31.5706 33.4462 31.1844 33.4851 30.7959 33.8679C30.3914 34.269 29.98 34.6677 29.5915 35.0802C29.4155 35.2688 29.3104 35.2905 29.1253 35.0871C28.7608 34.6883 28.3654 34.3169 27.9826 33.9342C27.5359 33.4897 27.1668 33.4291 26.84 33.7456C26.5132 34.0621 26.5646 34.4529 27.0308 34.9191C27.513 35.4025 27.9941 35.8881 28.4831 36.3669C28.5465 36.4214 28.5969 36.4894 28.6305 36.5659C28.6641 36.6424 28.6801 36.7255 28.6774 36.8091C28.666 37.6775 28.666 38.5463 28.6774 39.4155C28.6774 39.6338 28.6294 39.7126 28.3974 39.7035C27.9141 39.6852 27.4296 39.6977 26.9451 39.6977C26.4606 39.6977 26.0047 39.6875 25.5351 39.6977C25.318 39.7046 25.238 39.6509 25.2471 39.4189C25.2665 38.9619 25.238 38.5048 25.2574 38.0477C25.2757 37.617 25.0677 37.3816 24.7009 37.1862C21.6991 35.5864 19.8606 33.1217 19.2481 29.7692C18.286 24.5129 21.7997 19.2258 27.0182 18.0649C32.9429 16.7474 38.5705 20.5787 39.5075 26.5663C40.16 30.737 38.0221 35.0528 34.2776 37.0342Z" fill="white"/>
<path d="M20.3717 18.4134C20.3683 18.5345 20.3329 18.6526 20.269 18.7556C20.2052 18.8585 20.1152 18.9427 20.0083 18.9996C19.7569 19.1367 19.4884 19.1345 19.2907 18.9448C18.5754 18.2592 17.8669 17.5564 17.1859 16.832C16.9437 16.5738 17.0019 16.2378 17.2499 15.983C17.4979 15.7282 17.8567 15.6528 18.1298 15.9099C18.8542 16.5955 19.5455 17.3062 20.2414 18.0158C20.2898 18.0692 20.3264 18.1323 20.3488 18.2008C20.3712 18.2693 20.379 18.3417 20.3717 18.4134Z" fill="white"/>
<path d="M39.0147 19.0866C38.8941 19.0845 38.7762 19.0507 38.6729 18.9885C38.5695 18.9263 38.4844 18.8379 38.4262 18.7323C38.2868 18.4832 38.2845 18.2124 38.4742 18.0148C39.1598 17.2983 39.8625 16.5899 40.5869 15.9088C40.844 15.6666 41.18 15.7191 41.436 15.966C41.6919 16.2128 41.7719 16.5716 41.5159 16.8458C40.8361 17.5703 40.1207 18.2616 39.4112 18.9586C39.3572 19.0057 39.2942 19.0413 39.226 19.0633C39.1579 19.0853 39.086 19.0932 39.0147 19.0866Z" fill="white"/>
<path d="M20.3634 37.7381C20.3504 37.9398 20.2638 38.1297 20.12 38.2717C19.5075 38.8842 18.8996 39.5024 18.2803 40.108C17.9375 40.4439 17.5547 40.4508 17.2622 40.1674C16.9697 39.884 16.9788 39.4898 17.3102 39.1504C17.917 38.5311 18.5317 37.9209 19.1476 37.3107C19.3636 37.0959 19.6138 36.9942 19.92 37.1188C20.2023 37.2319 20.3257 37.4536 20.3634 37.7381Z" fill="white"/>
<path d="M30.0404 13.0109C30.0404 13.452 30.0484 13.8919 30.0404 14.3319C30.0324 14.7718 29.7616 15.0574 29.3765 15.0677C28.9914 15.078 28.6818 14.7821 28.6772 14.325C28.6688 13.4581 28.6688 12.5916 28.6772 11.7254C28.6772 11.2615 28.9594 10.9667 29.3628 10.969C29.7661 10.9713 30.0324 11.2661 30.0415 11.7334C30.0461 12.1597 30.0404 12.5859 30.0404 13.0109Z" fill="white"/>
<path d="M14.2712 28.7511C13.8462 28.7511 13.4188 28.7579 12.9937 28.7511C12.5687 28.7442 12.2681 28.4734 12.259 28.0872C12.2499 27.7009 12.5435 27.3936 13.0017 27.389C13.8679 27.3799 14.734 27.381 15.6001 27.389C16.0641 27.389 16.36 27.6724 16.3577 28.0746C16.3554 28.4768 16.0595 28.7453 15.5921 28.7533C15.1522 28.7568 14.7123 28.7511 14.2712 28.7511Z" fill="white"/>
<path d="M44.3953 28.7498C43.9554 28.7498 43.5143 28.759 43.0744 28.7498C42.6344 28.7407 42.3556 28.4585 42.3545 28.07C42.3534 27.6815 42.639 27.3935 43.0709 27.3844C43.9657 27.3741 44.8604 27.3729 45.7551 27.3844C45.8466 27.3806 45.938 27.3954 46.0237 27.4278C46.1094 27.4603 46.1876 27.5097 46.2537 27.5732C46.3198 27.6366 46.3724 27.7128 46.4084 27.7971C46.4443 27.8814 46.4628 27.9721 46.4628 28.0637C46.4628 28.1553 46.4443 28.246 46.4084 28.3303C46.3724 28.4146 46.3198 28.4907 46.2537 28.5542C46.1876 28.6176 46.1094 28.6671 46.0237 28.6995C45.938 28.732 45.8466 28.7467 45.7551 28.743C45.3048 28.7613 44.8501 28.7498 44.3953 28.7498Z" fill="white"/>
<path d="M39.0105 37.0583C39.2327 37.0719 39.4412 37.1701 39.5933 37.3326C40.184 37.9268 40.7817 38.513 41.3678 39.1106C41.7106 39.4659 41.7278 39.8739 41.4204 40.1618C41.113 40.4498 40.7417 40.4143 40.4 40.0784C39.7933 39.4808 39.1945 38.8763 38.5946 38.2707C38.3798 38.0536 38.2827 37.8034 38.4083 37.4983C38.4579 37.3762 38.5405 37.2704 38.6469 37.1927C38.7532 37.115 38.8792 37.0684 39.0105 37.0583Z" fill="white"/>
<path d="M29.3818 41.0632C30.6388 41.0632 31.8888 41.0723 33.1423 41.0552C33.4143 41.0552 33.4669 41.1306 33.4669 41.3877C33.4669 42.4309 33.4771 42.4309 32.451 42.4309C30.1714 42.4309 27.8918 42.4241 25.6122 42.4389C25.3082 42.4389 25.2408 42.3578 25.2443 42.063C25.258 41.0632 25.2443 41.0632 26.2612 41.0632H29.3818Z" fill="#FBECF2"/>
<path d="M29.3566 45.1665C28.0997 45.1665 26.8484 45.1585 25.5949 45.1734C25.3173 45.1734 25.243 45.1048 25.2442 44.8306C25.251 43.8022 25.2442 43.8022 26.2783 43.8022C28.5442 43.8022 30.8089 43.809 33.0748 43.7942C33.3925 43.7942 33.4759 43.8662 33.469 44.1873C33.4496 45.17 33.469 45.17 32.4761 45.17L29.3566 45.1665Z" fill="#FBECF2"/>
<path d="M29.3986 47.9032C29.0135 47.9032 28.6284 47.8918 28.2445 47.9032C28.0354 47.9123 27.9919 47.8392 27.9839 47.6392C27.944 46.5297 27.9382 46.5309 29.0192 46.5309C29.5037 46.5309 29.9882 46.5411 30.4715 46.5251C30.6818 46.5251 30.7241 46.5903 30.7321 46.7902C30.772 47.8986 30.7789 47.8986 29.7037 47.8986L29.3986 47.9032Z" fill="#FBECF2"/>
</g>
<defs>
<clipPath id="clip0_4933_4947">
<rect width="34.1953" height="38.3054" fill="white" transform="translate(12.2578 10.969)"/>
</clipPath>
</defs>
</svg>
