<svg width="100" height="100" viewBox="0 0 100 100" fill="none" xmlns="http://www.w3.org/2000/svg">
<rect x="0.5" y="0.5" width="99" height="99" rx="49.5" fill="white"/>
<rect x="0.5" y="0.5" width="99" height="99" rx="49.5" stroke="#E8E8E8"/>
<rect x="8.5" y="8.5" width="83" height="83" rx="41.5" stroke="#886EA9"/>
<path d="M70.0312 31.9688C70.0312 30.8642 69.1358 29.9688 68.0312 29.9688L50.0312 29.9688C48.9266 29.9688 48.0312 30.8642 48.0312 31.9688C48.0312 33.0733 48.9266 33.9688 50.0312 33.9688L66.0312 33.9688L66.0312 49.9688C66.0312 51.0733 66.9266 51.9688 68.0312 51.9688C69.1358 51.9688 70.0312 51.0733 70.0312 49.9688L70.0312 31.9688ZM33.383 69.4454L69.4454 33.383L66.617 30.5546L30.5545 66.617L33.383 69.4454Z" fill="#6A4A94"/>
</svg>
