<svg width="100" height="100" viewBox="0 0 100 100" fill="none" xmlns="http://www.w3.org/2000/svg">
<rect x="0.5" y="0.5" width="99" height="99" rx="49.5" fill="white"/>
<rect x="0.5" y="0.5" width="99" height="99" rx="49.5" stroke="#E8E8E8"/>
<rect x="8.5" y="8.5" width="83" height="83" rx="41.5" stroke="#E16795"/>
<path d="M65.4355 36.565C65.4355 35.4604 64.5401 34.565 63.4355 34.565L45.4355 34.565C44.3309 34.565 43.4355 35.4604 43.4355 36.565C43.4355 37.6696 44.3309 38.565 45.4355 38.565L61.4355 38.565L61.4355 54.565C61.4355 55.6696 62.3309 56.565 63.4355 56.565C64.5401 56.565 65.4355 55.6696 65.4355 54.565L65.4355 36.565ZM37.9796 64.8493L64.8497 37.9792L62.0213 35.1508L35.1512 62.0208L37.9796 64.8493Z" fill="#EC008C"/>
</svg>
