<svg width="27" height="44" viewBox="0 0 27 44" fill="none" xmlns="http://www.w3.org/2000/svg">
<path d="M0 0V30.6663H3.19506C1.11914 28.188 -0.00559984 25.0512 0.0226648 21.8187C-0.0437884 20.0267 0.258836 18.2403 0.911761 16.5702C1.56469 14.9001 2.55398 13.382 3.81821 12.1102C4.90782 11.0102 6.19561 10.1261 7.61375 9.50459V0H0Z" fill="#27AAE1"/>
<path d="M7.61371 9.50439V30.666H3.19503C1.1191 28.1878 -0.00563574 25.051 0.0226289 21.8185C-0.0438243 20.0265 0.2588 18.2401 0.911725 16.57C1.56465 14.8999 2.55395 13.3818 3.81818 12.11C4.90778 11.01 6.19557 10.1259 7.61371 9.50439Z" fill="url(#paint0_linear_582_1964)"/>
<path d="M23.8495 13.3224C25.7963 15.9731 26.7613 19.218 26.5795 22.5017C26.3976 25.7853 25.0801 28.9038 22.8524 31.3234C21.7712 32.4455 20.4872 33.3527 19.0682 33.9969V44H26.6933V13.3224H23.8495Z" fill="#8DC63F"/>
<path d="M22.8526 12.1783C21.6569 10.9297 20.2144 9.94339 18.6169 9.28224C17.0194 8.62109 15.3018 8.2995 13.5733 8.33795C11.5293 8.29331 9.49875 8.67929 7.61372 9.4708V21.4903C7.58753 19.868 8.20229 18.3008 9.32456 17.1289C9.83086 16.5487 10.4563 16.0845 11.1582 15.7678C11.8601 15.4511 12.622 15.2894 13.392 15.2937C14.1577 15.3042 14.9116 15.4844 15.5993 15.8213C16.287 16.1583 16.8913 16.6435 17.3688 17.2422C18.4825 18.4868 19.0889 20.1037 19.0683 21.7736V13.2772H23.8496C23.5406 12.8904 23.2076 12.5234 22.8526 12.1783Z" fill="#EC008C"/>
<path d="M26.6027 21.7281C26.6601 23.5032 26.3575 25.2715 25.713 26.9264C25.0684 28.5814 24.0954 30.0886 22.8524 31.3574C21.7712 32.4795 20.4872 33.3867 19.0682 34.0309V13.3224H23.8495C25.7085 15.7234 26.6811 18.6927 26.6027 21.7281Z" fill="url(#paint1_linear_582_1964)"/>
<path d="M19.057 21.8185V33.9967C17.2742 34.784 15.3405 35.1707 13.392 35.1295C9.14703 35.1295 5.85002 33.7815 3.50093 31.0853C3.3763 30.938 3.25167 30.802 3.13837 30.6434H7.55707V21.5013C7.51124 23.2333 8.11781 24.9194 9.25656 26.2253C9.74311 26.8243 10.3571 27.3071 11.0539 27.6388C11.7507 27.9704 12.5127 28.1426 13.2844 28.1426C14.0561 28.1426 14.8181 27.9704 15.5148 27.6388C16.2116 27.3071 16.8256 26.8243 17.3122 26.2253C18.4285 25.0288 19.0517 23.4549 19.057 21.8185Z" fill="#EE2A7B"/>
<path opacity="0.11" d="M19.057 21.8185V33.9967C17.2742 34.784 15.3405 35.1707 13.392 35.1295C9.14703 35.1295 5.85002 33.7815 3.50093 31.0853C3.3763 30.938 3.25167 30.802 3.13837 30.6434H7.55707V21.5013C7.51124 23.2333 8.11781 24.9194 9.25656 26.2253C9.74311 26.8243 10.3571 27.3071 11.0539 27.6388C11.7507 27.9704 12.5127 28.1426 13.2844 28.1426C14.0561 28.1426 14.8181 27.9704 15.5148 27.6388C16.2116 27.3071 16.8256 26.8243 17.3122 26.2253C18.4285 25.0288 19.0517 23.4549 19.057 21.8185Z" fill="#EC008C"/>
<defs>
<linearGradient id="paint0_linear_582_1964" x1="0.0226288" y1="20.0852" x2="7.61371" y2="20.0852" gradientUnits="userSpaceOnUse">
<stop stop-color="#70499B"/>
<stop offset="0.57" stop-color="#A62D82"/>
<stop offset="1" stop-color="#CB1A71"/>
</linearGradient>
<linearGradient id="paint1_linear_582_1964" x1="19.0682" y1="23.654" x2="26.6027" y2="23.654" gradientUnits="userSpaceOnUse">
<stop stop-color="#70499B"/>
<stop offset="0.57" stop-color="#A62D82"/>
<stop offset="1" stop-color="#CB1A71"/>
</linearGradient>
</defs>
</svg>
