<svg width="60" height="60" viewBox="0 0 60 60" fill="none" xmlns="http://www.w3.org/2000/svg">
<rect width="60" height="60" rx="30" fill="#FDC688"/>
<g clip-path="url(#clip0_4798_1205)">
<path d="M32.0648 38.9592C32.0648 38.65 31.9546 38.2672 32.0968 38.0513C32.2362 37.839 32.628 37.7822 32.9185 37.6835C33.1281 37.6125 33.24 37.5006 33.2916 37.2776C33.3946 36.8343 33.5785 36.4168 33.8139 36.0277C33.9045 35.8776 33.9098 35.7586 33.8414 35.5995C33.7073 35.2886 33.4026 34.9688 33.4914 34.6677C33.574 34.387 33.924 34.1836 34.1586 33.9482C34.7617 33.3432 34.7653 33.3352 35.5461 33.6932C35.7966 33.8087 35.9947 33.8194 36.2417 33.663C36.6059 33.4329 37.0172 33.2846 37.4365 33.1815C37.5981 33.1416 37.6763 33.0643 37.7314 32.9115C37.8433 32.6015 37.8975 32.1937 38.124 32.0223C38.3692 31.8357 38.7858 31.9708 39.1278 31.9681C39.9939 31.9619 40.0019 31.9628 40.304 32.7925C40.3875 33.0216 40.4976 33.1576 40.7463 33.2153C41.1896 33.3183 41.6062 33.5049 41.9944 33.7412C42.1348 33.8265 42.2476 33.8238 42.3915 33.7616C42.7033 33.6266 43.0249 33.3254 43.3251 33.4054C43.605 33.48 43.8119 33.8327 44.0474 34.0663C44.6612 34.6766 44.6674 34.681 44.2987 35.4805C44.193 35.7097 44.1735 35.8936 44.3174 36.1183C44.551 36.4825 44.7012 36.8912 44.8069 37.3105C44.8531 37.4917 44.925 37.6143 45.1133 37.6507C45.124 37.6525 45.1329 37.6613 45.1427 37.6658C45.434 37.7937 45.8542 37.8008 45.9937 38.0495C46.1322 38.2956 46.0452 38.6749 46.0354 38.9956C46.0256 39.3012 46.166 39.6761 45.9732 39.8937C45.7973 40.0927 45.4429 40.1389 45.1613 40.2366C44.9703 40.3032 44.8522 40.3983 44.8006 40.6141C44.6932 41.0672 44.5102 41.4971 44.265 41.8942C44.1717 42.0461 44.1762 42.1687 44.2481 42.3224C44.3876 42.6217 44.6479 42.9566 44.5963 43.2267C44.5448 43.4994 44.1824 43.7188 43.9434 43.948C43.7302 44.1532 43.5632 44.4979 43.2905 44.5236C43.04 44.5467 42.7575 44.3433 42.5061 44.2065C42.2876 44.0875 42.1135 44.0883 41.8976 44.2243C41.5227 44.4614 41.1026 44.6125 40.6744 44.727C40.5092 44.7706 40.4088 44.8354 40.3502 45.0078C40.2444 45.3204 40.1849 45.7255 39.9584 45.8987C39.7141 46.0862 39.2975 45.9503 38.9555 45.9529C38.0912 45.96 38.0778 45.96 37.7927 45.1579C37.6967 44.8878 37.5635 44.7466 37.2792 44.6826C36.8688 44.5902 36.4824 44.4135 36.1244 44.1905C35.9618 44.0892 35.8322 44.091 35.6652 44.1683C35.3667 44.3051 35.0504 44.5885 34.7626 44.5156C34.4935 44.4481 34.2918 44.1034 34.0662 43.876C33.8565 43.6646 33.5296 43.4701 33.4825 43.224C33.4364 42.9797 33.6531 42.6697 33.7943 42.4103C33.9152 42.1873 33.9001 42.0132 33.7686 41.8027C33.5332 41.426 33.3777 41.0085 33.2676 40.5795C33.2232 40.4054 33.1485 40.3023 32.9771 40.265C32.9558 40.2606 32.9371 40.2464 32.9167 40.2384C32.6324 40.1211 32.2353 40.0776 32.0941 39.8653C31.9529 39.6521 32.0639 39.2683 32.0648 38.9592Z" fill="white"/>
<path d="M27.2182 35.5702C27.2182 33.5413 27.2182 31.5114 27.2182 29.4825C27.2182 28.9717 27.2821 28.9087 27.7911 28.9087C28.556 28.9087 29.3217 28.9069 30.0866 28.9095C30.457 28.9104 30.5636 29.0117 30.5636 29.3821C30.5654 33.496 30.5654 37.6098 30.5636 41.7236C30.5636 42.0754 30.4579 42.1749 30.1043 42.1766C29.3173 42.1802 28.5293 42.1784 27.7423 42.1775C27.291 42.1766 27.2182 42.1065 27.2182 41.6587C27.2173 39.6289 27.2182 37.6 27.2182 35.5702Z" fill="white"/>
<path d="M34.9745 20.0415C34.6973 20.0548 34.4202 20.0752 34.143 20.0788C33.8108 20.0832 33.594 19.8958 33.5709 19.6026C33.546 19.2855 33.729 19.0563 34.0799 19.0315C34.9647 18.9693 35.8512 18.9177 36.7378 18.8822C37.102 18.868 37.3365 19.1567 37.2859 19.5191C37.166 20.3746 37.0389 21.2301 36.9092 22.0846C36.8559 22.4346 36.5974 22.6327 36.2856 22.5794C35.9925 22.5297 35.813 22.2685 35.8557 21.9327C35.9001 21.5818 35.9578 21.2336 36.0191 20.8179C35.4906 21.2629 35.0144 21.6707 34.5321 22.0695C29.5442 26.1993 24.009 29.4035 18.0164 31.8357C16.9407 32.2728 15.8533 32.6805 14.758 33.0652C14.3983 33.1913 14.1487 33.1247 14.0012 32.8706C13.8129 32.5473 13.9754 32.2124 14.4116 32.0605C15.7281 31.603 17.0286 31.1037 18.3131 30.5654C24.4265 28.0026 30.0318 24.6154 35.0331 20.2493C35.0828 20.2058 35.1353 20.1641 35.1859 20.1214C35.1708 19.9518 35.0615 20.0255 34.9745 20.0415Z" fill="white"/>
<path d="M24.3573 37.3175C24.3573 38.7593 24.3582 40.201 24.3564 41.6419C24.3564 42.1118 24.2889 42.1766 23.8146 42.1775C23.0382 42.1784 22.2618 42.1793 21.4854 42.1766C21.1096 42.1757 21.0101 42.0798 21.0101 41.7058C21.0083 38.7673 21.0083 35.8287 21.0101 32.8901C21.0101 32.5188 21.1114 32.4229 21.488 32.422C22.2751 32.4193 23.063 32.4202 23.8501 32.422C24.2774 32.4229 24.3547 32.4984 24.3555 32.9265C24.3582 34.3905 24.3573 35.8536 24.3573 37.3175Z" fill="white"/>
<path d="M42.9698 27.5825C42.9698 29.058 42.9698 30.5344 42.9698 32.0099C42.9698 32.3705 42.4279 32.7223 42.0895 32.5811C41.8754 32.4913 41.6658 32.3874 41.4455 32.3163C41.2918 32.2666 41.2083 32.1866 41.1568 32.0339C41.0626 31.7514 40.9293 31.4804 40.8423 31.1962C40.773 30.9732 40.6673 30.863 40.4203 30.8977C40.2569 30.9208 40.0863 30.887 39.922 30.9057C39.6919 30.9323 39.6217 30.8577 39.6262 30.6196C39.6413 29.7651 39.6324 28.9105 39.6324 28.0568C39.6324 26.4143 39.6324 24.7718 39.6324 23.1302C39.6324 22.6736 39.7123 22.5972 40.1796 22.5963C40.9453 22.5954 41.7111 22.5937 42.4768 22.5972C42.865 22.599 42.9689 22.7029 42.9689 23.0902C42.9698 24.5862 42.9698 26.0848 42.9698 27.5825Z" fill="white"/>
<path d="M33.4424 33.1868C33.4344 33.0198 33.4291 32.9559 33.4291 32.8928C33.4291 30.6755 33.4282 28.4574 33.4291 26.2401C33.4291 25.8333 33.4966 25.764 33.8875 25.7622C34.6967 25.7596 35.506 25.7587 36.3161 25.7622C36.6679 25.764 36.7683 25.8635 36.7692 26.2188C36.7719 28.1589 36.7683 30.0999 36.7745 32.04C36.7754 32.2132 36.7017 32.2718 36.5622 32.3545C36.0568 32.6521 35.5966 32.6112 35.0876 32.3287C34.5493 32.0302 34.5271 32.0658 34.0811 32.5161C33.8857 32.7133 33.6992 32.9168 33.4424 33.1868Z" fill="white"/>
<path d="M18.1468 38.9645C18.1468 39.8741 18.1486 40.7838 18.1459 41.6943C18.145 42.11 18.0775 42.1767 17.6582 42.1775C16.8596 42.1793 16.0601 42.1802 15.2615 42.1767C14.9088 42.1749 14.8076 42.0745 14.8067 41.7201C14.804 39.8892 14.804 38.0584 14.8067 36.2276C14.8076 35.8856 14.9231 35.7719 15.2677 35.771C16.0779 35.7674 16.888 35.7674 17.6982 35.771C18.0491 35.7728 18.1441 35.8714 18.145 36.2338C18.1486 37.1443 18.1468 38.0548 18.1468 38.9645Z" fill="white"/>
<path d="M39.3112 19.7812C39.4817 19.1461 39.6247 18.566 39.7971 17.9948C39.8557 17.7994 39.8148 17.6892 39.6629 17.5719C39.217 17.2255 38.7782 16.8693 38.3393 16.5131C38.2585 16.4473 38.1306 16.3905 38.1883 16.251C38.2336 16.14 38.3518 16.1515 38.4486 16.1471C39.002 16.1178 39.5555 16.0805 40.1098 16.0698C40.3301 16.0654 40.4447 16.0005 40.5193 15.7829C40.6978 15.2605 40.9066 14.7489 41.1056 14.2327C41.1438 14.1333 41.158 13.9982 41.3028 14.0009C41.4476 14.0036 41.4574 14.1457 41.4956 14.2416C41.7008 14.7666 41.9051 15.2916 42.0934 15.822C42.1547 15.9961 42.2426 16.0618 42.4274 16.0671C42.9924 16.0822 43.5573 16.116 44.1214 16.1453C44.2298 16.1506 44.3622 16.1346 44.4092 16.2617C44.4608 16.3985 44.3293 16.4544 44.2493 16.5202C43.8283 16.8631 43.4108 17.2104 42.9773 17.5364C42.7898 17.6777 42.7356 17.8074 42.8094 18.0392C42.9666 18.534 43.0954 19.0377 43.2207 19.5422C43.25 19.6586 43.3672 19.8025 43.2251 19.9109C43.0839 20.0184 42.9799 19.8763 42.8751 19.8087C42.4372 19.528 41.9948 19.2535 41.5719 18.9515C41.3641 18.8032 41.2157 18.8183 41.015 18.9595C40.5628 19.2775 40.092 19.5689 39.6283 19.8718C39.5537 19.9207 39.4817 19.9749 39.3849 19.9242C39.2943 19.8763 39.3085 19.799 39.3112 19.7812Z" fill="white"/>
<path d="M34.9746 20.0414C35.0697 19.9944 35.17 19.9322 35.2589 20.0406C35.282 20.069 35.2402 20.1187 35.1878 20.1223C35.1514 20.0041 35.0377 20.0885 34.9746 20.0414Z" fill="#646464"/>
<path d="M39.0579 42.2593C37.2449 42.2753 35.7543 40.8016 35.7365 38.9752C35.7187 37.1701 37.204 35.6698 39.0242 35.652C40.8301 35.6351 42.3261 37.116 42.3465 38.9415C42.3678 40.7465 40.8843 42.2425 39.0579 42.2593Z" fill="#FDC688"/>
</g>
<defs>
<clipPath id="clip0_4798_1205">
<rect width="32.1501" height="32" fill="white" transform="translate(13.9248 14)"/>
</clipPath>
</defs>
</svg>
