<svg width="60" height="60" viewBox="0 0 60 60" fill="none" xmlns="http://www.w3.org/2000/svg">
<rect width="60" height="60" rx="30" fill="#FDC688"/>
<path d="M30 36.4C31.8133 36.4 33.8267 36.04 36.04 35.32C38.2533 34.6 41.5733 33.3333 46 31.52V30.92C46 29.56 45.4533 28.4667 44.36 27.64C43.2667 26.8133 42.0667 26.5867 40.76 26.96C40.3067 27.0933 39.8469 27.2533 39.3808 27.44C38.9147 27.6267 38.2944 27.8667 37.52 28.16C35.8933 28.8533 34.52 29.3333 33.4 29.6C32.28 29.8667 31.1467 30 30 30C28.8 30 27.64 29.8603 26.52 29.5808C25.4 29.3013 23.9867 28.8144 22.28 28.12C21.64 27.8533 21.0869 27.6336 20.6208 27.4608C20.1547 27.288 19.7077 27.1344 19.28 27C17.9733 26.5733 16.7669 26.7733 15.6608 27.6C14.5547 28.4267 14.0011 29.5333 14 30.92V31.44C17.4933 33.04 20.56 34.2667 23.2 35.12C25.84 35.9733 28.1067 36.4 30 36.4ZM30 46C33.68 46 36.9136 44.9931 39.7008 42.9792C42.488 40.9653 44.3744 38.3856 45.36 35.24C41.8667 36.7333 38.9333 37.8336 36.56 38.5408C34.1867 39.248 32 39.6011 30 39.6C27.9733 39.6 25.6603 39.2203 23.0608 38.4608C20.4613 37.7013 17.6277 36.6144 14.56 35.2C15.4667 38.48 17.2933 41.1003 20.04 43.0608C22.7867 45.0213 26.1067 46.0011 30 46ZM30 26.8C28.24 26.8 26.7333 26.1733 25.48 24.92C24.2267 23.6667 23.6 22.16 23.6 20.4C23.6 18.64 24.2267 17.1333 25.48 15.88C26.7333 14.6267 28.24 14 30 14C31.76 14 33.2667 14.6267 34.52 15.88C35.7733 17.1333 36.4 18.64 36.4 20.4C36.4 22.16 35.7733 23.6667 34.52 24.92C33.2667 26.1733 31.76 26.8 30 26.8Z" fill="white"/>
</svg>
