<svg width="60" height="60" viewBox="0 0 60 60" fill="none" xmlns="http://www.w3.org/2000/svg">
<rect width="60" height="60" rx="30" fill="#45BDE8"/>
<path d="M29.9997 14C30.5302 14 31.0389 14.2107 31.414 14.5858C31.789 14.9609 31.9997 15.4696 31.9997 16V26.536L41.1237 21.268C41.3513 21.1346 41.603 21.0475 41.8643 21.0118C42.1256 20.9761 42.3914 20.9924 42.6464 21.0598C42.9014 21.1272 43.1406 21.2444 43.3501 21.4046C43.5596 21.5648 43.7354 21.7649 43.8673 21.9933C43.9992 22.2218 44.0846 22.474 44.1186 22.7356C44.1525 22.9971 44.1345 23.2628 44.0654 23.5174C43.9963 23.7719 43.8775 24.0103 43.7159 24.2187C43.5543 24.4272 43.353 24.6016 43.1237 24.732L33.9997 30L43.1237 35.268C43.353 35.3984 43.5543 35.5728 43.7159 35.7813C43.8775 35.9897 43.9963 36.2281 44.0654 36.4826C44.1345 36.7372 44.1525 37.0029 44.1186 37.2644C44.0846 37.526 43.9992 37.7782 43.8673 38.0067C43.7354 38.2351 43.5596 38.4352 43.3501 38.5954C43.1406 38.7556 42.9014 38.8728 42.6464 38.9402C42.3914 39.0076 42.1256 39.0239 41.8643 38.9882C41.603 38.9525 41.3513 38.8654 41.1237 38.732L31.9997 33.464V44C31.9997 44.5304 31.789 45.0391 31.414 45.4142C31.0389 45.7893 30.5302 46 29.9997 46C29.4693 46 28.9606 45.7893 28.5855 45.4142C28.2105 45.0391 27.9997 44.5304 27.9997 44V33.464L18.8757 38.732C18.6482 38.8654 18.3965 38.9525 18.1352 38.9882C17.8739 39.0239 17.6081 39.0076 17.3531 38.9402C17.0981 38.8728 16.8589 38.7556 16.6494 38.5954C16.4399 38.4352 16.2641 38.2351 16.1322 38.0067C16.0003 37.7782 15.9149 37.526 15.8809 37.2644C15.8469 37.0029 15.865 36.7372 15.9341 36.4826C16.0032 36.2281 16.122 35.9897 16.2836 35.7813C16.4452 35.5728 16.6465 35.3984 16.8757 35.268L25.9997 30L16.8757 24.732C16.4201 24.4649 16.0887 24.0284 15.9537 23.5178C15.8187 23.0072 15.8911 22.464 16.1552 22.0066C16.4193 21.5492 16.8535 21.2149 17.3632 21.0765C17.8729 20.9381 18.4166 21.007 18.8757 21.268L27.9997 26.536V16C27.9997 15.4696 28.2105 14.9609 28.5855 14.5858C28.9606 14.2107 29.4693 14 29.9997 14Z" fill="white"/>
</svg>
