<svg width="60" height="60" viewBox="0 0 60 60" fill="none" xmlns="http://www.w3.org/2000/svg">
<rect width="60" height="60" rx="30" fill="#EC008C"/>
<path d="M43.2978 40.25C41.584 37.2422 38.9079 34.8985 35.7003 33.5963C37.2954 32.3999 38.4737 30.7321 39.0682 28.8289C39.6627 26.9257 39.6433 24.8837 39.0128 22.9921C38.3823 21.1005 37.1726 19.4553 35.555 18.2895C33.9375 17.1236 31.9942 16.4963 30.0003 16.4963C28.0064 16.4963 26.0631 17.1236 24.4456 18.2895C22.828 19.4553 21.6183 21.1005 20.9878 22.9921C20.3573 24.8837 20.3379 26.9257 20.9324 28.8289C21.5269 30.7321 22.7052 32.3999 24.3003 33.5963C21.0927 34.8985 18.4166 37.2422 16.7028 40.25C16.5966 40.4208 16.5258 40.6111 16.4947 40.8098C16.4635 41.0085 16.4726 41.2113 16.5215 41.4064C16.5703 41.6015 16.6578 41.7847 16.7789 41.9453C16.8999 42.1058 17.0521 42.2404 17.2262 42.341C17.4003 42.4416 17.5928 42.5062 17.7924 42.5308C17.992 42.5555 18.1944 42.5398 18.3878 42.4847C18.5812 42.4296 18.7615 42.3361 18.9181 42.2099C19.0746 42.0837 19.2042 41.9273 19.299 41.75C21.564 37.835 25.564 35.5 30.0003 35.5C34.4366 35.5 38.4366 37.8363 40.7015 41.75C40.9072 42.0807 41.2334 42.3184 41.6111 42.413C41.9888 42.5075 42.3885 42.4515 42.7257 42.2567C43.0629 42.0619 43.3111 41.7436 43.4178 41.3691C43.5246 40.9946 43.4816 40.5933 43.2978 40.25ZM23.5003 26C23.5003 24.7144 23.8815 23.4577 24.5957 22.3888C25.31 21.3199 26.3251 20.4868 27.5129 19.9948C28.7006 19.5028 30.0075 19.3741 31.2684 19.6249C32.5293 19.8757 33.6875 20.4948 34.5965 21.4038C35.5055 22.3129 36.1246 23.4711 36.3754 24.7319C36.6262 25.9928 36.4975 27.2997 36.0055 28.4875C35.5135 29.6752 34.6804 30.6903 33.6115 31.4046C32.5426 32.1188 31.2859 32.5 30.0003 32.5C28.277 32.498 26.6249 31.8126 25.4063 30.594C24.1877 29.3755 23.5023 27.7233 23.5003 26Z" fill="white"/>
</svg>
