<svg width="60" height="60" viewBox="0 0 60 60" fill="none" xmlns="http://www.w3.org/2000/svg">
<rect width="60" height="60" rx="30" fill="#EC008C"/>
<path d="M36.6682 42.4486L33.4065 39.1869L31.6309 40.9626L36.6682 46L46.743 35.9252L44.9673 34.1495L36.6682 42.4486Z" fill="#E8E8E8"/>
<path d="M29.1124 31.6309C30.5035 31.6309 31.6311 30.5032 31.6311 29.1122C31.6311 27.7212 30.5035 26.5935 29.1124 26.5935C27.7214 26.5935 26.5938 27.7212 26.5938 29.1122C26.5938 30.5032 27.7214 31.6309 29.1124 31.6309Z" fill="#E8E8E8"/>
<path d="M29.1117 36.6682C27.6173 36.6682 26.1564 36.225 24.9138 35.3948C23.6712 34.5645 22.7027 33.3844 22.1308 32.0037C21.5589 30.623 21.4093 29.1037 21.7009 27.638C21.9924 26.1723 22.7121 24.8259 23.7688 23.7692C24.8255 22.7124 26.1719 21.9928 27.6376 21.7012C29.1034 21.4097 30.6226 21.5593 32.0033 22.1312C33.384 22.7031 34.5641 23.6716 35.3944 24.9142C36.2247 26.1568 36.6678 27.6177 36.6678 29.1121C36.6655 31.1154 35.8687 33.036 34.4521 34.4525C33.0356 35.869 31.115 36.6659 29.1117 36.6682ZM29.1117 24.0747C28.1154 24.0747 27.1415 24.3702 26.3131 24.9237C25.4847 25.4772 24.8391 26.2639 24.4578 27.1844C24.0765 28.1049 23.9768 29.1177 24.1712 30.0949C24.3655 31.072 24.8453 31.9696 25.5498 32.6741C26.2543 33.3786 27.1518 33.8583 28.129 34.0527C29.1062 34.2471 30.119 34.1473 31.0395 33.7661C31.9599 33.3848 32.7467 32.7391 33.3002 31.9107C33.8537 31.0823 34.1491 30.1084 34.1491 29.1121C34.1475 27.7766 33.6162 26.4963 32.6719 25.552C31.7275 24.6077 30.4472 24.0764 29.1117 24.0747Z" fill="#E8E8E8"/>
<path d="M44.2243 29.1122C44.2243 26.1233 43.338 23.2015 41.6775 20.7163C40.0169 18.2311 37.6567 16.2942 34.8953 15.1504C32.134 14.0065 29.0954 13.7073 26.1639 14.2904C23.2325 14.8735 20.5397 16.3128 18.4263 18.4263C16.3128 20.5397 14.8735 23.2325 14.2904 26.1639C13.7073 29.0954 14.0065 32.134 15.1504 34.8953C16.2942 37.6567 18.2311 40.0169 20.7163 41.6775C23.2015 43.338 26.1233 44.2243 29.1122 44.2243V41.7056C26.6214 41.7056 24.1866 40.967 22.1156 39.5833C20.0446 38.1995 18.4305 36.2326 17.4773 33.9315C16.5242 31.6303 16.2748 29.0982 16.7607 26.6553C17.2466 24.2124 18.446 21.9685 20.2072 20.2072C21.9685 18.446 24.2124 17.2466 26.6553 16.7607C29.0982 16.2748 31.6303 16.5242 33.9315 17.4773C36.2326 18.4305 38.1995 20.0446 39.5833 22.1156C40.967 24.1866 41.7056 26.6214 41.7056 29.1122H44.2243Z" fill="#E8E8E8"/>
</svg>
