<svg width="60" height="60" viewBox="0 0 60 60" fill="none" xmlns="http://www.w3.org/2000/svg">
<rect width="60" height="60" rx="30" fill="#97C253"/>
<path d="M19.5331 19.2237C20.615 19.2237 21.492 18.3467 21.492 17.2648C21.492 16.1829 20.615 15.3059 19.5331 15.3059C18.4512 15.3059 17.5742 16.1829 17.5742 17.2648C17.5742 18.3467 18.4512 19.2237 19.5331 19.2237Z" fill="white"/>
<path d="M42.3818 25.312C43.4636 25.312 44.3407 24.4349 44.3407 23.3531C44.3407 22.2712 43.4636 21.3942 42.3818 21.3942C41.2999 21.3942 40.4229 22.2712 40.4229 23.3531C40.4229 24.4349 41.2999 25.312 42.3818 25.312Z" fill="white"/>
<path d="M25.4052 38.818C26.4871 38.818 27.3641 37.9409 27.3641 36.8591C27.3641 35.7772 26.4871 34.9001 25.4052 34.9001C24.3233 34.9001 23.4463 35.7772 23.4463 36.8591C23.4463 37.9409 24.3233 38.818 25.4052 38.818Z" fill="white"/>
<path d="M16.9882 22.9045C17.5861 22.3777 18.3469 22.0725 19.143 22.04L19.3311 22.0321C19.8808 22.0095 20.4295 22.0978 20.9444 22.2916C21.4593 22.4855 21.9299 22.781 22.3282 23.1605C22.7693 23.5801 23.0631 24.1309 23.166 24.7309L23.4539 26.4064L15.5654 26.4018L15.7104 25.3003C15.8328 24.3737 16.2868 23.5228 16.9882 22.9052M39.6175 29.2233L40.0047 28.8818C40.5207 28.4282 41.1766 28.1653 41.8631 28.1367L42.3038 28.1185C42.8272 28.0971 43.3496 28.1812 43.8398 28.3658C44.33 28.5505 44.7781 28.8319 45.1573 29.1932C45.6372 29.6502 45.9571 30.2496 46.0695 30.9027L46.3437 32.496L38.4552 32.4907L38.6452 31.0457C38.7382 30.3408 39.0837 29.6929 39.6175 29.2233ZM23.2469 42.1899C23.6179 41.8628 24.0901 41.6733 24.5842 41.6532L24.8794 41.6414C25.5428 41.6141 26.205 41.7205 26.8265 41.9544C27.4479 42.1883 28.016 42.5449 28.4968 43.0029C28.7684 43.2614 28.9493 43.601 29.0127 43.9706L29.362 46L21.4735 45.9948L21.5577 45.3568C21.7196 44.1317 22.3197 43.0067 23.2469 42.1899Z" fill="white"/>
<path d="M19.5331 19.2237C20.615 19.2237 21.492 18.3467 21.492 17.2648C21.492 16.1829 20.615 15.3059 19.5331 15.3059C18.4512 15.3059 17.5742 16.1829 17.5742 17.2648C17.5742 18.3467 18.4512 19.2237 19.5331 19.2237Z" stroke="white" stroke-width="2" stroke-miterlimit="10"/>
<path d="M15.6152 25.7534C15.6152 25.7534 16.2682 22.9385 17.5741 22.2855C18.8801 21.6325 20.186 21.6325 21.4919 22.2855C22.7979 22.9385 23.4509 25.7534 23.4509 25.7534" stroke="white" stroke-width="2" stroke-linecap="round" stroke-linejoin="round"/>
<path d="M42.3818 25.312C43.4636 25.312 44.3407 24.4349 44.3407 23.3531C44.3407 22.2712 43.4636 21.3942 42.3818 21.3942C41.2999 21.3942 40.4229 22.2712 40.4229 23.3531C40.4229 24.4349 41.2999 25.312 42.3818 25.312Z" stroke="white" stroke-width="2" stroke-miterlimit="10"/>
<path d="M38.4639 31.8417C38.4639 31.8417 39.1168 29.0267 40.4228 28.3738C41.7287 27.7208 43.0346 27.7208 44.3406 28.3738C45.6465 29.0267 46.2995 31.841 46.2995 31.841" stroke="white" stroke-width="2" stroke-linecap="round" stroke-linejoin="round"/>
<path d="M25.4052 38.818C26.4871 38.818 27.3641 37.9409 27.3641 36.8591C27.3641 35.7772 26.4871 34.9001 25.4052 34.9001C24.3233 34.9001 23.4463 35.7772 23.4463 36.8591C23.4463 37.9409 24.3233 38.818 25.4052 38.818Z" stroke="white" stroke-width="2" stroke-miterlimit="10"/>
<path d="M21.4873 45.3477C21.4873 45.3477 22.1403 42.5327 23.4462 41.8798C24.7521 41.2268 26.0581 41.2268 27.364 41.8798C28.6699 42.5327 29.3229 45.347 29.3229 45.347M40.1354 19.3125C37.3805 16.0627 33.2681 14 28.6745 14C26.8658 14 25.1328 14.32 23.5272 14.9057M31.5691 43.7577C36.9319 42.7103 41.2735 38.8102 42.9484 33.7007M13.7131 27.7045C13.675 28.1414 13.656 28.5797 13.6563 29.0183C13.6563 34.225 16.306 38.8128 20.3309 41.5076" stroke="white" stroke-width="2" stroke-linecap="round" stroke-linejoin="round"/>
</svg>
