<svg width="60" height="60" viewBox="0 0 60 60" fill="none" xmlns="http://www.w3.org/2000/svg">
<rect width="60" height="60" rx="30" fill="#6A4A94"/>
<g clip-path="url(#clip0_4798_3023)">
<path d="M38.1847 23.7988C38.1357 23.9146 38.0823 24.0473 38.0244 24.1782C37.8542 24.5613 37.5852 24.9318 37.5389 25.3291C37.4935 25.7201 37.8712 26.0452 38.0199 26.4202C38.1874 26.8406 38.3655 27.2584 38.4644 27.6993C38.5125 27.913 38.6211 28.0092 38.8171 28.0769C39.2233 28.2177 39.617 28.3922 40.0231 28.5312C40.1906 28.5891 40.2351 28.6737 40.2333 28.8421C40.2253 29.6161 40.2244 30.391 40.2333 31.165C40.2351 31.3361 40.1826 31.4153 40.0178 31.4715C39.6009 31.6149 39.1948 31.7886 38.7806 31.9391C38.6113 32.0005 38.5214 32.0869 38.4724 32.2767C38.2827 33.0169 37.995 33.7214 37.5995 34.377C37.5006 34.54 37.4988 34.6683 37.5781 34.8348C37.7634 35.2232 37.921 35.6231 38.1081 36.0106C38.1918 36.1843 38.1891 36.2965 38.0395 36.4399C37.4979 36.9619 36.9662 37.4945 36.4433 38.0352C36.3035 38.1795 36.193 38.1964 36.0149 38.11C35.5784 37.8998 35.1429 37.5996 34.6833 37.5479C34.2299 37.4963 33.8549 37.9416 33.4104 38.0931C33.1076 38.1964 32.8163 38.3514 32.5055 38.4048C32.1251 38.4707 31.9461 38.6694 31.8454 39.0221C31.7519 39.349 31.5862 39.6554 31.4865 39.9814C31.4215 40.1961 31.3083 40.237 31.1044 40.2344C30.374 40.2219 29.6436 40.2165 28.9141 40.237C28.6673 40.2442 28.5694 40.1533 28.4954 39.9369C28.3574 39.5298 28.1872 39.1343 28.0394 38.7308C27.9895 38.5937 27.9174 38.5242 27.7668 38.4859C26.9946 38.2864 26.2597 37.9871 25.5757 37.5747C25.4456 37.4963 25.3414 37.5025 25.2087 37.564C24.7989 37.7537 24.3785 37.9221 23.9706 38.1171C23.8049 38.1964 23.7016 38.1857 23.5698 38.0494C23.038 37.5016 22.4982 36.9619 21.9504 36.4301C21.815 36.2983 21.8017 36.1958 21.8818 36.0302C22.0742 35.6338 22.2381 35.2232 22.4261 34.8241C22.4982 34.67 22.5036 34.5489 22.4109 34.3966C22.0065 33.733 21.7188 33.0169 21.522 32.2669C21.4766 32.0923 21.3964 32.0059 21.2379 31.948C20.8237 31.7966 20.4166 31.6256 20.0006 31.4795C19.8323 31.4207 19.7593 31.3485 19.7628 31.1544C19.7762 30.391 19.7771 29.6277 19.7628 28.8643C19.7593 28.6586 19.8332 28.5802 20.0167 28.5169C20.4335 28.3735 20.8397 28.2007 21.253 28.0484C21.4 27.9941 21.4748 27.9157 21.5175 27.7527C21.7153 26.9911 22.0083 26.2661 22.4181 25.5918C22.5036 25.4511 22.5018 25.3389 22.4341 25.1946C22.247 24.7955 22.0823 24.3849 21.8916 23.9885C21.8079 23.8148 21.8124 23.7026 21.9611 23.5601C22.5107 23.031 23.0487 22.4894 23.5822 21.9425C23.7034 21.8178 23.7987 21.8036 23.9545 21.8775C24.4124 22.094 24.8711 22.4253 25.3467 22.4583C25.8108 22.4912 26.2116 22.0307 26.6828 21.8766C26.9759 21.7813 27.2582 21.6308 27.5584 21.5827C27.8995 21.5284 28.0332 21.3315 28.1311 21.0429C28.2514 20.6884 28.409 20.3464 28.5275 19.991C28.5872 19.811 28.6771 19.7629 28.8606 19.7656C29.624 19.7763 30.3873 19.7781 31.1507 19.7647C31.3413 19.7612 31.4188 19.8262 31.4785 19.999C31.6228 20.4158 31.7938 20.8229 31.9461 21.2362C32.0031 21.3912 32.0824 21.4794 32.2605 21.5248C33.0114 21.7172 33.7266 22.0058 34.392 22.4084C34.539 22.4975 34.6601 22.5081 34.8195 22.4315C35.2266 22.2356 35.647 22.0672 36.0559 21.874C36.1957 21.808 36.2883 21.8063 36.4032 21.9238C36.9528 22.485 37.5122 23.0363 38.0662 23.593C38.117 23.6456 38.1918 23.6875 38.1847 23.7988Z" fill="white"/>
<path d="M30.0107 14.0009C33.3028 14.0312 36.3223 14.9433 39.0372 16.8173C39.3151 17.0088 39.439 17.008 39.5833 16.6935C39.7302 16.3738 39.928 16.078 40.1061 15.7734C40.1498 15.6986 40.1925 15.6069 40.2958 15.6077C40.4161 15.6095 40.4535 15.7084 40.4918 15.8028C41.0262 17.1442 41.5589 18.4866 42.1004 19.8262C42.1957 20.0631 42.1191 20.1451 41.8875 20.178C40.4758 20.3758 39.0657 20.5806 37.6548 20.7828C37.548 20.798 37.4331 20.847 37.3538 20.7267C37.2736 20.6047 37.3752 20.5201 37.4241 20.4283C37.5132 20.2635 37.6094 20.1023 37.7029 19.9393C37.9719 19.4726 37.9719 19.4735 37.5391 19.176C32.2028 15.5196 25.2346 16.1306 20.6555 20.6964C18.5213 22.8244 17.2823 25.4164 16.9082 28.4163C16.6811 30.2423 16.8387 32.0344 17.3794 33.7909C17.456 34.0394 17.4061 34.1472 17.1772 34.2701C16.5261 34.6202 15.8874 34.9943 15.2577 35.3808C15.0359 35.5171 14.9629 35.4859 14.8818 35.2446C14.1069 32.9242 13.8192 30.5549 14.1176 28.1206C14.554 24.5586 16.0121 21.4749 18.4955 18.8927C20.9396 16.3506 23.9333 14.8195 27.4009 14.2173C28.2613 14.0677 29.1333 13.992 30.0107 14.0009Z" fill="white"/>
<path d="M29.9249 46C26.6577 45.9679 23.6159 45.022 20.8752 43.1301C20.6596 42.9813 20.5803 42.9938 20.4663 43.2209C20.2935 43.5656 20.0887 43.8943 19.8936 44.2274C19.8446 44.3121 19.7956 44.4163 19.6736 44.3967C19.5765 44.3807 19.5409 44.2934 19.507 44.2079C18.9681 42.8566 18.4301 41.5045 17.8868 40.1551C17.8066 39.9564 17.8725 39.8603 18.0712 39.8317C19.5043 39.6269 20.9366 39.422 22.3698 39.2189C22.466 39.2056 22.5711 39.1726 22.6423 39.2759C22.7145 39.3819 22.6379 39.4639 22.5907 39.5476C22.4499 39.797 22.3199 40.0553 22.1587 40.2914C22.0331 40.474 22.0901 40.5621 22.2478 40.6753C23.9072 41.8644 25.7376 42.6562 27.748 42.9991C30.4121 43.4534 33.0041 43.155 35.45 42.0024C39.6524 40.0215 42.1714 36.7053 43.0104 32.1377C43.3801 30.1256 43.2153 28.1304 42.6158 26.1743C42.5562 25.9784 42.566 25.8706 42.7673 25.7602C43.4451 25.3905 44.114 25.0039 44.7758 24.6067C44.9691 24.4909 45.0306 24.5051 45.1054 24.7278C45.891 27.0446 46.1814 29.4139 45.8848 31.8482C45.4189 35.665 43.8032 38.9161 41.0304 41.574C38.6076 43.8961 35.7137 45.2883 32.3993 45.8085C31.5994 45.9341 30.7951 45.992 29.9249 46Z" fill="white"/>
<path d="M36.5738 30.0009C36.5738 33.6333 33.6255 36.5771 29.9905 36.5735C26.3599 36.5709 23.4205 33.6199 23.4268 29.9822C23.4321 26.365 26.3724 23.4292 29.9923 23.4265C33.6282 23.4238 36.5747 26.3668 36.5738 30.0009Z" fill="#6A4A94"/>
<path d="M25.7744 28.8982C25.7744 28.3228 25.7833 27.7482 25.7708 27.1728C25.7646 26.894 25.8599 26.7239 26.1271 26.6126C27.3269 26.1111 28.5213 25.5972 29.714 25.0797C29.9109 24.9941 30.0828 24.9897 30.2823 25.077C31.475 25.5954 32.6703 26.1067 33.8674 26.6135C34.0785 26.7025 34.2282 26.8166 34.2246 27.0704C34.2068 28.2533 34.2825 29.4388 34.189 30.619C34.0135 32.8254 32.3033 34.6807 30.1131 35.0138C29.5599 35.0976 29.0282 34.8375 28.54 34.5819C26.7203 33.6297 25.8135 32.1056 25.7752 30.0597C25.7681 29.6722 25.7744 29.2847 25.7744 28.8982Z" fill="#6A4A94"/>
<path d="M32.0164 29.0069C32.0137 29.2242 31.9344 29.3623 31.8053 29.4789C31.1257 30.0927 30.4505 30.7126 29.7664 31.3218C29.5063 31.5534 29.224 31.5445 28.9701 31.3031C28.6904 31.0368 28.4161 30.7643 28.1515 30.4828C27.9208 30.2378 27.9217 29.9225 28.1337 29.7132C28.352 29.4959 28.6379 29.511 28.9051 29.7292C29.085 29.8771 29.1999 30.1978 29.436 30.1532C29.631 30.1158 29.786 29.8682 29.9579 29.7132C30.3427 29.3649 30.7266 29.0167 31.1105 28.6675C31.2931 28.5018 31.5042 28.468 31.7233 28.5677C31.922 28.6577 32.0146 28.8287 32.0164 29.0069Z" fill="#FEFEFE"/>
</g>
<defs>
<clipPath id="clip0_4798_3023">
<rect width="31.9955" height="32" fill="white" transform="translate(14.002 14)"/>
</clipPath>
</defs>
</svg>
