<svg width="60" height="60" viewBox="0 0 60 60" fill="none" xmlns="http://www.w3.org/2000/svg">
<rect width="60" height="60" rx="30" fill="#45BDE8"/>
<path d="M37.0942 26.9866C36.3829 27.1772 35.9608 27.9083 36.1514 28.6196C36.342 29.3309 37.0731 29.753 37.7844 29.5624C38.4957 29.3718 38.9178 28.6407 38.7272 27.9294C38.5366 27.2181 37.8055 26.796 37.0942 26.9866Z" fill="white"/>
<path d="M30 14C38.8366 14 46 21.1634 46 30C46 38.8366 38.8366 46 30 46C21.1634 46 14 38.8366 14 30C14 21.1634 21.1634 14 30 14Z" stroke="white" stroke-width="2" stroke-linecap="round"/>
<path d="M29.9995 30H20.2217" stroke="white" stroke-width="2" stroke-linecap="round"/>
<path d="M29.9999 37.1111C25.3955 37.1111 21.3777 39.2622 19.2266 42.4444L29.9999 46L40.7732 42.4444C38.6221 39.2622 34.6043 37.1111 29.9999 37.1111Z" fill="white"/>
<path d="M20.9542 29.4166C21.9026 29.6707 22.8774 29.1079 23.1315 28.1595C23.3856 27.2112 22.8228 26.2363 21.8744 25.9822C20.926 25.7281 19.9512 26.2909 19.6971 27.2393C19.443 28.1877 20.0058 29.1625 20.9542 29.4166Z" fill="white"/>
<path d="M24.6314 22.6953C25.0464 23.5851 26.1041 23.9701 26.994 23.5552C27.8838 23.1402 28.2688 22.0825 27.8539 21.1926C27.4389 20.3028 26.3812 19.9178 25.4913 20.3327C24.6015 20.7477 24.2165 21.8054 24.6314 22.6953Z" fill="white"/>
<path d="M32.1454 21.1926C31.7304 22.0824 32.1154 23.1401 33.0053 23.5551C33.8951 23.97 34.9529 23.585 35.3678 22.6952C35.7828 21.8053 35.3978 20.7476 34.5079 20.3327C33.6181 19.9177 32.5603 20.3027 32.1454 21.1926Z" fill="white"/>
<path d="M29.9999 33.5556C31.9636 33.5556 33.5554 31.9637 33.5554 30C33.5554 28.0363 31.9636 26.4445 29.9999 26.4445C28.0362 26.4445 26.4443 28.0363 26.4443 30C26.4443 31.9637 28.0362 33.5556 29.9999 33.5556Z" fill="white"/>
</svg>
