<svg width="100" height="101" viewBox="0 0 100 101" fill="none" xmlns="http://www.w3.org/2000/svg">
<g filter="url(#filter0_d_4933_4927)">
<circle cx="50" cy="46.5" r="46" fill="#97C253"/>
</g>
<g clip-path="url(#clip0_4933_4927)">
<path d="M50.3104 38.3199V33.5499C50.3104 32.0899 49.1204 30.8999 47.6604 30.8999H34.7604C33.3004 30.8999 32.1104 32.0899 32.1104 33.5499V38.3199C32.1104 39.7799 33.3004 40.9699 34.7604 40.9699H47.6604C49.1204 40.9699 50.3104 39.7799 50.3104 38.3199ZM33.7504 38.3199V33.5499C33.7504 32.9899 34.2004 32.5399 34.7604 32.5399H47.6604C48.2204 32.5399 48.6704 32.9899 48.6704 33.5499V38.3199C48.6704 38.8799 48.2204 39.3299 47.6604 39.3299H34.7604C34.2004 39.3299 33.7504 38.8799 33.7504 38.3199Z" fill="white"/>
<path d="M43.2396 53.1399H38.6696C38.2196 53.1399 37.8496 53.5099 37.8496 53.9599C37.8496 54.4099 38.2196 54.7799 38.6696 54.7799H43.2396C43.6896 54.7799 44.0596 54.4099 44.0596 53.9599C44.0596 53.5099 43.6896 53.1399 43.2396 53.1399Z" fill="white"/>
<path d="M43.2396 56.6399H38.6696C38.2196 56.6399 37.8496 57.0099 37.8496 57.4599C37.8496 57.9099 38.2196 58.2799 38.6696 58.2799H43.2396C43.6896 58.2799 44.0596 57.9099 44.0596 57.4599C44.0596 57.0099 43.6896 56.6399 43.2396 56.6399Z" fill="white"/>
<path d="M73.05 32.35H59.41C59.05 32.35 58.71 32.42 58.4 32.55V31.72C58.4 31.27 58.03 30.9 57.58 30.9C57.13 30.9 56.76 31.27 56.76 31.72V35V41.93V51.15C56.6 51.21 56.45 51.28 56.3 51.37C56.17 51.45 55.98 51.49 55.75 51.49C54.73 51.49 53.19 50.72 51.63 49.44C51.14 49.04 50.53 48.82 49.9 48.82C49.52 48.82 49.15 48.9 48.81 49.05C48.31 48.56 47.73 48.19 47.09 47.97C51.54 45.79 54.62 41.2 54.62 35.92C54.63 28.52 48.61 22.5 41.21 22.5C33.82 22.5 27.8 28.52 27.8 35.91C27.8 41.2 30.88 45.78 35.33 47.96C34.91 48.11 34.5 48.32 34.14 48.59C33.86 48.49 33.56 48.44 33.25 48.44C32.98 48.44 32.7 48.48 32.44 48.56C27.16 50.22 24 53.35 24 56.95C24 58.45 25.22 59.67 26.72 59.67C28.22 59.67 29.44 58.45 29.44 56.95C29.44 56.3 30.45 55.32 32.21 54.49V62.91V66.87C32.21 68.33 33.4 69.52 34.86 69.52H36.18C37.64 69.52 38.83 68.33 38.83 66.87V63.73H43.61V66.87C43.61 68.33 44.8 69.52 46.26 69.52H47.58C49.04 69.52 50.23 68.33 50.23 66.87V62.91V55.12C52.15 56.32 54.04 56.94 55.79 56.94C56.13 56.94 56.46 56.92 56.78 56.87V68.7C56.78 69.15 57.15 69.52 57.6 69.52C58.05 69.52 58.42 69.15 58.42 68.7V56.4C58.67 56.29 58.92 56.16 59.15 56.02C60.43 55.24 60.84 53.56 60.06 52.28C59.68 51.66 59.09 51.23 58.41 51.06V44.37C58.72 44.5 59.06 44.57 59.42 44.57H62.16C62.61 44.57 62.98 44.2 62.98 43.75C62.98 43.3 62.61 42.93 62.16 42.93H59.42C58.86 42.93 58.41 42.48 58.41 41.92V34.99C58.41 34.43 58.86 33.98 59.42 33.98H73.06C73.62 33.98 74.07 34.43 74.07 34.99V41.92C74.07 42.48 73.62 42.93 73.06 42.93H64.83C64.38 42.93 64.01 43.3 64.01 43.75C64.01 44.2 64.38 44.57 64.83 44.57H73.06C74.52 44.57 75.71 43.38 75.71 41.92V34.99C75.69 33.54 74.5 32.35 73.05 32.35ZM29.43 35.91C29.43 29.41 34.71 24.13 41.21 24.13C47.71 24.13 52.99 29.41 52.99 35.91C52.99 42.41 47.71 47.69 41.21 47.69C34.72 47.69 29.43 42.41 29.43 35.91ZM33.57 52.22C33.43 52.26 33.3 52.31 33.17 52.35C33.16 52.35 33.15 52.36 33.14 52.36C29.84 53.47 27.81 55.21 27.81 56.95C27.81 57.55 27.32 58.04 26.72 58.04C26.12 58.04 25.63 57.55 25.63 56.95C25.63 54.11 28.36 51.56 32.92 50.14C33.03 50.11 33.13 50.09 33.24 50.09C33.44 50.09 33.63 50.14 33.79 50.24C33.8 50.25 33.81 50.25 33.82 50.26C33.92 50.32 34.04 50.42 34.13 50.55C34.15 50.57 34.16 50.6 34.18 50.63C34.19 50.64 34.19 50.65 34.2 50.66C34.21 50.68 34.22 50.7 34.23 50.72C34.23 50.73 34.24 50.74 34.24 50.75C34.25 50.78 34.27 50.81 34.28 50.85C34.31 50.96 34.33 51.07 34.33 51.17C34.33 51.21 34.33 51.25 34.32 51.29C34.28 51.64 34.08 51.95 33.76 52.12C33.71 52.16 33.64 52.19 33.57 52.22ZM37.19 66.87C37.19 67.43 36.74 67.88 36.18 67.88H34.86C34.3 67.88 33.85 67.43 33.85 66.87V63.73H37.19V66.87ZM48.58 66.87C48.58 67.43 48.13 67.88 47.57 67.88H46.25C45.69 67.88 45.24 67.43 45.24 66.87V63.73H48.58V66.87ZM48.58 62.09H44.42H38.01H33.85V53.84C33.92 53.82 33.99 53.79 34.06 53.77C34.51 53.63 34.89 53.39 35.2 53.07C35.69 52.57 35.97 51.88 35.97 51.17C35.97 50.9 35.93 50.63 35.85 50.36C35.83 50.3 35.81 50.23 35.78 50.17C35.77 50.13 35.75 50.1 35.73 50.07C35.72 50.04 35.71 50.02 35.7 49.99C35.68 49.94 35.65 49.9 35.63 49.85C35.62 49.84 35.62 49.83 35.61 49.82C35.58 49.77 35.55 49.71 35.51 49.66C35.94 49.44 36.41 49.32 36.9 49.32H45.51C46.28 49.32 47 49.6 47.57 50.12C47.57 50.12 47.57 50.12 47.57 50.13C47.54 50.18 47.51 50.24 47.48 50.3C47.47 50.31 47.47 50.32 47.46 50.34C47.43 50.4 47.41 50.45 47.38 50.51C47.38 50.52 47.37 50.53 47.37 50.54C47.35 50.59 47.33 50.65 47.31 50.71C47.31 50.72 47.3 50.73 47.3 50.74C47.28 50.8 47.27 50.86 47.25 50.92C47.25 50.93 47.24 50.95 47.24 50.96C47.23 51.02 47.21 51.09 47.2 51.15C47.2 51.16 47.2 51.16 47.2 51.17C47.19 51.23 47.19 51.29 47.18 51.35C47.18 51.36 47.18 51.37 47.18 51.39C47.18 51.45 47.17 51.52 47.18 51.58C47.18 51.59 47.18 51.61 47.18 51.62C47.18 51.69 47.18 51.75 47.19 51.82C47.26 52.54 47.61 53.2 48.17 53.66C48.29 53.76 48.41 53.86 48.53 53.95C48.54 53.96 48.56 53.97 48.57 53.98V62.09H48.58ZM58.65 53.13C58.96 53.64 58.8 54.31 58.28 54.62C57.54 55.07 56.7 55.3 55.77 55.3C53.95 55.3 51.87 54.44 49.74 52.8C49.69 52.76 49.65 52.73 49.6 52.69C49.47 52.59 49.34 52.49 49.21 52.38C48.99 52.2 48.85 51.93 48.82 51.64C48.82 51.6 48.81 51.57 48.81 51.53C48.81 51.28 48.9 51.04 49.06 50.84C49.08 50.82 49.1 50.8 49.12 50.78C49.14 50.76 49.16 50.74 49.18 50.72C49.18 50.72 49.18 50.72 49.19 50.71C49.39 50.54 49.64 50.44 49.9 50.44C50.15 50.44 50.39 50.53 50.59 50.69C52.48 52.25 54.31 53.11 55.75 53.11C56.28 53.11 56.75 52.99 57.15 52.75C57.27 52.68 57.41 52.63 57.55 52.61C57.56 52.61 57.57 52.61 57.58 52.61C57.63 52.61 57.68 52.6 57.73 52.6C58.11 52.61 58.45 52.81 58.65 53.13Z" fill="white"/>
</g>
<defs>
<filter id="filter0_d_4933_4927" x="0" y="0.5" width="100" height="100" filterUnits="userSpaceOnUse" color-interpolation-filters="sRGB">
<feFlood flood-opacity="0" result="BackgroundImageFix"/>
<feColorMatrix in="SourceAlpha" type="matrix" values="0 0 0 0 0 0 0 0 0 0 0 0 0 0 0 0 0 0 127 0" result="hardAlpha"/>
<feOffset dy="4"/>
<feGaussianBlur stdDeviation="2"/>
<feComposite in2="hardAlpha" operator="out"/>
<feColorMatrix type="matrix" values="0 0 0 0 0 0 0 0 0 0 0 0 0 0 0 0 0 0 0.16 0"/>
<feBlend mode="normal" in2="BackgroundImageFix" result="effect1_dropShadow_4933_4927"/>
<feBlend mode="normal" in="SourceGraphic" in2="effect1_dropShadow_4933_4927" result="shape"/>
</filter>
<clipPath id="clip0_4933_4927">
<rect width="51.69" height="47.01" fill="white" transform="translate(24 22.5)"/>
</clipPath>
</defs>
</svg>
