<svg width="100" height="100" viewBox="0 0 100 100" fill="none" xmlns="http://www.w3.org/2000/svg">
<g filter="url(#filter0_d_4933_4913)">
<circle cx="50" cy="46" r="46" fill="#EC008C"/>
</g>
<g clip-path="url(#clip0_4933_4913)">
<path d="M50.0899 33.71C47.7699 33.71 45.8799 35.6 45.8799 37.92C45.8799 40.24 47.7699 42.13 50.0899 42.13C52.4099 42.13 54.2999 40.24 54.2999 37.92C54.2999 35.6 52.4099 33.71 50.0899 33.71ZM50.0899 40.5C48.6699 40.5 47.5099 39.34 47.5099 37.92C47.5099 36.5 48.6699 35.34 50.0899 35.34C51.5099 35.34 52.6699 36.5 52.6699 37.92C52.6599 39.34 51.5099 40.5 50.0899 40.5Z" fill="#E8E8E8"/>
<path d="M66.8296 57.5401V45.4601C66.8296 45.2401 66.7396 45.0301 66.5896 44.8801L58.7296 37.0701V35.3401C58.7296 32.5301 57.9296 29.7901 56.4296 27.4301C54.9596 25.1301 52.8996 23.2801 50.4496 22.0901C50.2196 21.9801 49.9596 21.9801 49.7296 22.0901C47.2796 23.2901 45.2196 25.1301 43.7496 27.4301C42.2396 29.7901 41.4496 32.5301 41.4496 35.3401V37.0701L33.5896 44.8801C33.4396 45.0301 33.3496 45.2401 33.3496 45.4601V57.5401C33.3496 57.9901 33.7196 58.3601 34.1696 58.3601H41.4596V58.3901C41.4596 59.9801 42.7596 61.2801 44.3496 61.2801H45.5596C45.0796 62.2901 44.8296 63.3901 44.8296 64.5301C44.8296 67.7101 46.8396 70.5701 49.8196 71.6501C49.9096 71.6801 49.9996 71.7001 50.0996 71.7001C50.1896 71.7001 50.2896 71.6801 50.3796 71.6501C53.3596 70.5601 55.3696 67.7001 55.3696 64.5301C55.3696 63.3901 55.1196 62.2901 54.6396 61.2801H55.8496C57.4396 61.2801 58.7396 59.9801 58.7396 58.3901V58.3601H66.0296C66.4596 58.3601 66.8296 57.9901 66.8296 57.5401ZM41.4496 55.2401V56.7201H34.9796V45.8001L41.4496 39.3701V55.2401ZM44.3396 59.6401C43.6496 59.6401 43.0896 59.0801 43.0896 58.3901V57.5401V56.0601H49.2696V59.6501H44.3396V59.6401ZM50.0896 70.0101C47.9096 69.0901 46.4596 66.9201 46.4596 64.5301C46.4596 63.3801 46.7896 62.2801 47.4096 61.3201H49.2796V62.8301C49.2796 63.2801 49.6496 63.6501 50.0996 63.6501C50.5496 63.6501 50.9196 63.2801 50.9196 62.8301V61.3201H52.7896C53.4096 62.2801 53.7396 63.3801 53.7396 64.5301C53.7196 66.9201 52.2696 69.0901 50.0896 70.0101ZM57.0896 58.3901C57.0896 59.0801 56.5296 59.6401 55.8396 59.6401H50.9096V56.0501H57.0896V58.3901ZM65.1896 56.7201H58.7196V55.2401V50.2001C58.7196 49.7501 58.3496 49.3801 57.8996 49.3801C57.4496 49.3801 57.0796 49.7501 57.0796 50.2001V54.4301H50.8996V52.2601C50.8996 51.8101 50.5296 51.4401 50.0796 51.4401C49.6296 51.4401 49.2596 51.8101 49.2596 52.2601V54.4301H43.0796V37.4001V35.3301C43.0796 30.4201 45.7496 26.0101 50.0796 23.7301C54.4096 26.0101 57.0796 30.4201 57.0796 35.3301V47.4001C57.0796 47.8501 57.4496 48.2201 57.8996 48.2201C58.3496 48.2201 58.7196 47.8501 58.7196 47.4001V39.3601L65.1896 45.7901V56.7201Z" fill="#E8E8E8"/>
<path d="M68.7798 62.6101C67.8598 62.6101 66.9498 62.7901 66.1098 63.1401C65.6498 61.6801 64.2898 60.6301 62.6798 60.6301C60.6998 60.6301 59.0898 62.2401 59.0898 64.2201C59.0898 64.6701 59.4598 65.0401 59.9098 65.0401C60.3598 65.0401 60.7298 64.6701 60.7298 64.2201C60.7298 63.1401 61.6098 62.2601 62.6898 62.2601C63.7698 62.2601 64.6498 63.1401 64.6498 64.2201C64.6498 64.6801 64.4898 65.1301 64.1898 65.4801C63.8998 65.8301 63.9398 66.3401 64.2898 66.6301C64.4398 66.7601 64.6298 66.8201 64.8198 66.8201C65.0498 66.8201 65.2798 66.7201 65.4498 66.5301C65.8498 66.0601 66.1098 65.5001 66.2298 64.9101C67.0098 64.4701 67.8998 64.2401 68.7998 64.2401C71.7098 64.2401 74.0698 66.6101 74.0698 69.5101C74.0698 69.9601 74.4398 70.3301 74.8898 70.3301C75.3398 70.3301 75.7098 69.9601 75.7098 69.5101C75.6898 65.7201 72.5898 62.6101 68.7798 62.6101Z" fill="#E8E8E8"/>
<path d="M39.67 66.08C39.34 66.08 39.02 66.12 38.72 66.19C38.84 65.99 38.87 65.74 38.79 65.51C38.16 63.7 36.44 62.48 34.51 62.48C33.09 62.48 31.76 63.15 30.9 64.27C30.45 64.15 29.97 64.09 29.49 64.09C26.46 64.09 24 66.55 24 69.58C24 70.03 24.37 70.4 24.82 70.4C25.27 70.4 25.64 70.03 25.64 69.58C25.64 67.46 27.37 65.73 29.49 65.73C30.82 65.73 32.04 66.4 32.75 67.53C32.99 67.91 33.5 68.03 33.88 67.79C34.26 67.55 34.38 67.04 34.14 66.66C33.7 65.96 33.13 65.39 32.47 64.96C33.01 64.42 33.74 64.11 34.52 64.11C35.75 64.11 36.85 64.89 37.25 66.04C37.34 66.29 37.53 66.47 37.76 66.54C36.44 67.23 35.54 68.61 35.54 70.2C35.54 70.65 35.91 71.02 36.36 71.02C36.81 71.02 37.18 70.65 37.18 70.2C37.18 68.82 38.3 67.7 39.68 67.7C41.06 67.7 42.18 68.82 42.18 70.2C42.18 70.65 42.55 71.02 43 71.02C43.45 71.02 43.82 70.65 43.82 70.2C43.81 67.93 41.95 66.08 39.67 66.08Z" fill="#E8E8E8"/>
</g>
<defs>
<filter id="filter0_d_4933_4913" x="0" y="0" width="100" height="100" filterUnits="userSpaceOnUse" color-interpolation-filters="sRGB">
<feFlood flood-opacity="0" result="BackgroundImageFix"/>
<feColorMatrix in="SourceAlpha" type="matrix" values="0 0 0 0 0 0 0 0 0 0 0 0 0 0 0 0 0 0 127 0" result="hardAlpha"/>
<feOffset dy="4"/>
<feGaussianBlur stdDeviation="2"/>
<feComposite in2="hardAlpha" operator="out"/>
<feColorMatrix type="matrix" values="0 0 0 0 0 0 0 0 0 0 0 0 0 0 0 0 0 0 0.16 0"/>
<feBlend mode="normal" in2="BackgroundImageFix" result="effect1_dropShadow_4933_4913"/>
<feBlend mode="normal" in="SourceGraphic" in2="effect1_dropShadow_4933_4913" result="shape"/>
</filter>
<clipPath id="clip0_4933_4913">
<rect width="51.69" height="49.71" fill="white" transform="translate(24 22)"/>
</clipPath>
</defs>
</svg>
