<svg width="37" height="36" viewBox="0 0 37 36" fill="none" xmlns="http://www.w3.org/2000/svg">
<path d="M0.800781 30.0967C1.078 29.3149 1.40502 28.5603 1.91811 27.8968C2.66523 26.925 3.67089 26.1831 4.81998 25.7562C3.88026 24.9151 3.39254 23.8974 3.51283 22.641C3.55165 22.1905 3.67965 21.7522 3.88937 21.3516C4.09909 20.9511 4.38636 20.5962 4.73447 20.3076C6.11586 19.1226 8.18796 19.2175 9.48948 20.4956C10.6303 21.6157 11.1688 23.9632 9.2179 25.758C9.96353 26.0359 10.6509 26.4502 11.2449 26.9797C11.4507 27.1676 11.6471 27.3725 11.8341 27.5811C11.9375 27.6948 11.9985 27.754 12.116 27.5914C13.177 26.1725 14.5649 25.2045 16.2884 24.6275C14.8685 23.5666 14.1684 22.1843 14.315 20.4354C14.4174 19.2006 14.9916 18.1886 15.9341 17.386C17.7976 15.7988 20.6863 16.0761 22.281 18.0034C23.841 19.8829 23.6981 22.8815 21.3526 24.5956C21.393 24.7225 21.5236 24.7018 21.61 24.7328C23.1198 25.2665 24.4413 26.2285 25.4131 27.5012C25.5559 27.6892 25.6255 27.7512 25.8097 27.5332C26.4432 26.7894 27.25 26.213 28.159 25.8548C28.2304 25.8257 28.2999 25.789 28.4052 25.7392C27.441 24.8982 26.9834 23.8645 27.1056 22.6128C27.1871 21.727 27.6137 20.9088 28.2934 20.3349C28.9796 19.7355 29.8722 19.4268 30.7822 19.4744C31.6921 19.5219 32.5477 19.9219 33.1677 20.5895C34.3724 21.877 34.5923 24.1455 32.8219 25.7223C32.851 25.836 32.9666 25.8257 33.0418 25.8586C34.8564 26.6386 36.0724 27.973 36.6954 29.8393C37.1183 31.1069 36.2058 32.3333 34.847 32.337C32.4106 32.3433 29.9739 32.3411 27.5369 32.3305C27.2108 32.3305 27.0858 32.3859 27.1103 32.7411C27.1394 33.1584 27.1591 33.5869 27.0379 33.9985C26.7231 35.0707 26.0427 35.7445 24.9226 35.9418C24.8953 35.9418 24.8737 35.9804 24.8493 36.0001H12.6131C11.4103 35.7971 10.7262 35.0529 10.4414 33.9026C10.3597 33.57 10.4085 33.2251 10.401 32.8858C10.3926 32.4761 10.3719 32.4489 9.9584 32.4479C7.62788 32.4479 5.29705 32.4479 2.96591 32.4479C2.3861 32.4479 1.85515 32.3352 1.40033 31.9424C1.05645 31.6548 0.840811 31.2424 0.800781 30.7959V30.0967Z" fill="white"/>
<path d="M0.800781 8.436C1.04887 8.01125 1.42852 7.87874 1.90496 7.87217C2.67741 7.86183 3.44986 7.79793 4.22232 7.77819C4.47416 7.77162 4.58411 7.67107 4.66681 7.43989C4.94872 6.64865 5.25602 5.86492 5.55767 5.08025C5.72306 4.64985 5.98336 4.44875 6.34985 4.45345C6.71635 4.45815 6.96819 4.66207 7.13358 5.09434C7.43524 5.87901 7.74534 6.66086 8.02632 7.45211C8.1109 7.6908 8.23494 7.77068 8.47457 7.77819C9.32032 7.80639 10.1595 7.84586 11.0024 7.89096C11.4723 7.91539 11.7495 8.11743 11.8482 8.4905C11.9469 8.86357 11.8162 9.13234 11.5362 9.35787C10.853 9.90949 10.1745 10.4677 9.48008 11.0052C9.29871 11.1462 9.27428 11.2711 9.33348 11.4751C9.57217 12.3208 9.79019 13.1666 10.027 14.0123C10.1313 14.3882 10.043 14.6908 9.73756 14.9135C9.43215 15.1362 9.10419 15.1156 8.7875 14.9088C8.05451 14.4286 7.31495 13.955 6.58948 13.4635C6.40154 13.3385 6.27938 13.3432 6.09613 13.4635C5.39885 13.9334 4.68654 14.3892 3.98363 14.8477C3.57203 15.1146 3.24594 15.1297 2.94523 14.9107C2.64452 14.6917 2.55713 14.391 2.68775 13.9043C2.90764 13.0801 3.12002 12.2541 3.35777 11.4347C3.41322 11.242 3.37845 11.1405 3.22809 11.0221C2.57498 10.5081 1.93409 9.97715 1.28004 9.465C1.08982 9.3144 0.927591 9.1315 0.800781 8.92466V8.436Z" fill="white"/>
<path d="M15.9026 15.061C15.3228 15.061 14.9629 14.578 15.1142 14.0179C15.3397 13.159 15.569 12.302 15.8124 11.4487C15.8707 11.2476 15.8331 11.1367 15.6677 11.008C14.9939 10.4827 14.3333 9.94048 13.6689 9.40389C13.293 9.09848 13.1859 8.82972 13.3005 8.46417C13.4199 8.08828 13.6764 7.90785 14.1622 7.88342C15.008 7.84019 15.8453 7.79885 16.6882 7.77159C16.9194 7.76408 17.034 7.68608 17.1149 7.46149C17.4015 6.6599 17.7116 5.86395 18.017 5.07177C18.1805 4.64513 18.4455 4.43275 18.8101 4.44967C19.2048 4.46846 19.4472 4.68742 19.5826 5.05673C19.8739 5.84422 20.1971 6.62137 20.4697 7.41544C20.5636 7.68984 20.7046 7.7669 20.9687 7.77535C21.7994 7.80104 22.6298 7.83769 23.4599 7.8853C24.1384 7.92383 24.5246 8.48109 24.2652 9.02989C24.1806 9.18447 24.0612 9.31731 23.9166 9.41799C23.2494 9.95082 22.5897 10.493 21.9168 11.0155C21.8481 11.0566 21.7966 11.1213 21.772 11.1976C21.7475 11.2738 21.7515 11.3564 21.7834 11.4299C22.0221 12.2757 22.2467 13.1214 22.4722 13.9672C22.584 14.3882 22.4938 14.6889 22.2016 14.9069C21.9093 15.1249 21.5729 15.1165 21.2214 14.8881C20.496 14.4183 19.7705 13.9484 19.0535 13.4616C18.875 13.3413 18.7481 13.3291 18.5592 13.4569C17.8544 13.9371 17.1336 14.3966 16.4204 14.8665C16.2522 14.9783 16.0802 15.0751 15.9026 15.061Z" fill="white"/>
<path d="M34.1694 15.061C33.9768 15.075 33.7982 14.967 33.6197 14.8505C32.9168 14.3881 32.2101 13.9342 31.5109 13.4625C31.3305 13.3403 31.2018 13.3328 31.0176 13.4625C30.3109 13.9408 29.5892 14.3966 28.8797 14.8721C28.5471 15.0938 28.2135 15.154 27.8686 14.9228C27.5632 14.717 27.472 14.3966 27.5867 13.9558C27.8097 13.1207 28.0377 12.2872 28.2708 11.4552C28.3036 11.3763 28.307 11.2883 28.2805 11.2071C28.2539 11.1259 28.1991 11.0569 28.1261 11.0126C27.4429 10.4817 26.771 9.93475 26.0981 9.38877C25.7429 9.10028 25.6348 8.79393 25.7627 8.43777C25.8999 8.06188 26.1996 7.91059 26.5821 7.89273C27.4354 7.85326 28.2886 7.80815 29.1428 7.77996C29.3721 7.77151 29.4858 7.69821 29.5667 7.4708C29.8486 6.66827 30.1643 5.87326 30.4697 5.08014C30.6304 4.66008 30.9029 4.44018 31.2647 4.45804C31.6575 4.47777 31.9009 4.69391 32.0372 5.06416C32.3304 5.85165 32.649 6.62786 32.9309 7.42099C33.0248 7.68881 33.1639 7.77433 33.4327 7.78184C34.2634 7.80534 35.0941 7.84669 35.9239 7.89085C36.3994 7.91529 36.702 8.13894 36.7837 8.52423C36.8599 8.88414 36.7133 9.15854 36.4332 9.38125C35.7557 9.92066 35.0875 10.4723 34.4053 11.0042C34.2314 11.1404 34.192 11.2551 34.2559 11.474C34.503 12.3141 34.7257 13.1608 34.9494 14.0113C35.0922 14.5732 34.7455 15.061 34.1694 15.061Z" fill="white"/>
<path d="M13.2352 2.94905C13.3894 2.95673 13.5347 3.02413 13.6402 3.13699C14.3797 3.80044 15.1202 4.46107 15.8532 5.13015C16.1295 5.382 16.1492 5.72875 15.9256 5.96651C15.7019 6.20426 15.3777 6.20707 15.1118 5.96651C14.36 5.2993 13.6186 4.62364 12.8715 3.95268C12.774 3.87562 12.7051 3.76815 12.6758 3.6474C12.6465 3.52665 12.6585 3.39957 12.7099 3.28641C12.7508 3.18207 12.8236 3.09331 12.9179 3.03274C13.0122 2.97217 13.1232 2.94288 13.2352 2.94905Z" fill="white"/>
<path d="M22.0906 6.13359C21.9825 6.14112 21.8747 6.11452 21.7825 6.05753C21.6903 6.00055 21.6182 5.91605 21.5766 5.81596C21.4826 5.59889 21.4939 5.36677 21.6762 5.20044C22.4599 4.48343 23.2474 3.77018 24.0481 3.07103C24.1012 3.02444 24.1633 2.98918 24.2306 2.96741C24.2978 2.94564 24.3688 2.93781 24.4391 2.94441C24.5095 2.951 24.5778 2.97189 24.6398 3.00578C24.7018 3.03967 24.7563 3.08585 24.7999 3.14151C24.8959 3.24629 24.9469 3.38467 24.9418 3.52674C24.9367 3.66881 24.8759 3.80318 24.7726 3.9008C24.002 4.61405 23.2174 5.31039 22.4355 6.01612C22.3402 6.09862 22.2165 6.14075 22.0906 6.13359Z" fill="white"/>
<path d="M18.2384 1.58353C18.2384 1.26779 18.2384 0.952038 18.2384 0.63629C18.2449 0.249124 18.4592 0.00573462 18.789 9.62716e-05C19.1189 -0.00554207 19.3529 0.236907 19.3604 0.616555C19.367 1.27436 19.3679 1.92653 19.3604 2.58152C19.3604 2.94519 19.1349 3.17167 18.8106 3.17731C18.4695 3.17731 18.2468 2.95083 18.2402 2.56648C18.2327 2.23852 18.2384 1.9115 18.2384 1.58353Z" fill="white"/>
<path d="M18.7959 34.8751H13.2788C12.231 34.8751 11.6502 34.2652 11.6004 33.2278C11.5224 31.6199 11.7997 30.1145 12.6727 28.735C14.2326 26.271 17.235 24.9385 20.0627 25.4769C23.0867 26.052 25.3712 28.3168 25.9134 31.275C26.0534 32.0428 26.0177 32.8181 25.9651 33.5867C25.9143 34.331 25.2302 34.8723 24.4183 34.8742C22.5435 34.8779 20.6697 34.8751 18.7959 34.8751Z" fill="#27AAE1"/>
<path d="M18.7984 17.4836C19.4686 17.4824 20.1242 17.6802 20.6818 18.0521C21.2394 18.4239 21.674 18.953 21.9305 19.5723C22.1869 20.1915 22.2536 20.873 22.1222 21.5303C21.9907 22.1875 21.667 22.7908 21.192 23.2638C20.7171 23.7367 20.1124 24.058 19.4546 24.1867C18.7968 24.3154 18.1156 24.2458 17.4975 23.9868C16.8793 23.7278 16.352 23.291 15.9825 22.7318C15.6129 22.1726 15.4178 21.5162 15.4219 20.846C15.4244 19.9526 15.7814 19.0966 16.4145 18.4662C17.0475 17.8358 17.9049 17.4824 18.7984 17.4836Z" fill="#27AAE1"/>
<path d="M6.50779 31.2131C5.28991 31.2131 4.07234 31.2131 2.85508 31.2131C2.09766 31.2131 1.76124 30.7432 2.02812 30.0318C2.73668 28.1383 4.08048 26.942 6.06894 26.5925C8.12694 26.2316 9.84287 26.9138 11.1763 28.5367C11.3201 28.7125 11.337 28.8478 11.229 29.0602C10.928 29.6553 10.7171 30.2919 10.6031 30.949C10.5627 31.1821 10.4697 31.2187 10.2639 31.2178C9.0131 31.2093 7.76045 31.2131 6.50779 31.2131Z" fill="#27AAE1"/>
<path d="M31.073 31.2131C29.8204 31.2131 28.5677 31.2131 27.3141 31.2131C27.1168 31.2131 27.0388 31.1698 26.9993 30.9594C26.8733 30.2688 26.6476 29.6003 26.3293 28.9747C26.2921 28.9165 26.2762 28.8473 26.2843 28.7788C26.2923 28.7103 26.3238 28.6467 26.3734 28.5988C27.7069 26.9167 29.4501 26.2119 31.5494 26.5906C33.5933 26.9589 34.9522 28.2041 35.6185 30.1784C35.8064 30.7423 35.4455 31.2009 34.83 31.2037C33.5783 31.2178 32.3257 31.2131 31.073 31.2131Z" fill="#27AAE1"/>
<path d="M9.38889 22.9819C9.38944 23.4548 9.24963 23.9172 8.98715 24.3106C8.72467 24.704 8.35135 25.0106 7.91446 25.1916C7.47758 25.3726 6.99681 25.4199 6.53304 25.3274C6.06927 25.2349 5.64338 25.0069 5.30932 24.6722C4.97527 24.3375 4.74807 23.9111 4.65652 23.4472C4.56497 22.9832 4.61319 22.5025 4.79506 22.066C4.97693 21.6295 5.28427 21.2568 5.67816 20.9951C6.07204 20.7334 6.53473 20.5945 7.00763 20.596C7.63915 20.5987 8.24396 20.8511 8.69008 21.2981C9.13619 21.7451 9.3874 22.3504 9.38889 22.9819Z" fill="#27AAE1"/>
<path d="M28.213 22.9639C28.2137 22.6505 28.2765 22.3404 28.3977 22.0514C28.5189 21.7624 28.6961 21.5002 28.9192 21.2801C29.1422 21.0599 29.4067 20.8861 29.6972 20.7687C29.9878 20.6512 30.2987 20.5925 30.6121 20.5958C31.0853 20.5977 31.5472 20.74 31.9394 21.0047C32.3316 21.2694 32.6364 21.6445 32.8152 22.0826C32.994 22.5207 33.0387 23.002 32.9436 23.4655C32.8486 23.929 32.6181 24.3539 32.2814 24.6863C31.9446 25.0187 31.5168 25.2436 31.0521 25.3326C30.5874 25.4216 30.1067 25.3706 29.671 25.1862C29.2353 25.0017 28.8641 24.6921 28.6045 24.2965C28.345 23.9008 28.2087 23.4371 28.213 22.9639Z" fill="#27AAE1"/>
<path d="M3.95595 13.5265C4.16363 12.7512 4.34781 12.0407 4.54609 11.3341C4.65604 10.9469 4.54609 10.6471 4.24068 10.4028L2.4834 8.98758C3.27371 8.9453 3.97944 8.89361 4.68517 8.87294C5.1306 8.85978 5.40406 8.65398 5.55536 8.24708C5.80251 7.58082 6.05623 6.91737 6.33627 6.17969C6.50824 6.62888 6.65671 7.01604 6.80613 7.40133C6.92266 7.7058 7.03448 8.01309 7.15477 8.31662C7.20948 8.47921 7.3144 8.62023 7.4544 8.71937C7.59441 8.8185 7.76227 8.87063 7.9338 8.86824C8.65739 8.89925 9.38192 8.94248 10.1469 8.98289C10.0012 9.19245 9.81137 9.29769 9.64974 9.43019C9.27385 9.74312 8.89138 10.0551 8.49952 10.3521C8.13772 10.6274 8.02965 10.9638 8.15276 11.3999C8.32473 11.9947 8.47978 12.5933 8.63953 13.191C8.66303 13.2784 8.67524 13.3686 8.70156 13.5058C8.07382 13.0951 7.47991 12.7202 6.90574 12.3274C6.51764 12.0652 6.16054 12.0671 5.77243 12.3349C5.19544 12.7324 4.60154 13.1045 3.95595 13.5265Z" fill="#27AAE1"/>
<path d="M18.8005 6.17969C19.0777 6.90515 19.337 7.53947 19.5626 8.18506C19.7223 8.64176 20.0043 8.86542 20.4948 8.87576C21.1855 8.89173 21.8743 8.94436 22.6562 8.98664C22.424 9.17459 22.253 9.32025 22.0792 9.45651C21.6864 9.77225 21.2945 10.088 20.8998 10.4009C20.7553 10.5033 20.6476 10.6496 20.5929 10.8181C20.5382 10.9866 20.5394 11.1682 20.5963 11.336C20.7607 11.9327 20.9205 12.5313 21.0831 13.1289C21.1075 13.2182 21.1507 13.3047 21.1094 13.4109C20.9628 13.4409 20.881 13.3169 20.7814 13.2568C20.3172 12.9626 19.8501 12.6713 19.4019 12.3537C18.9941 12.0661 18.62 12.0595 18.2094 12.3537C17.7395 12.6845 17.2537 12.9861 16.7716 13.2934C16.6776 13.3545 16.5959 13.4588 16.4418 13.4184C16.6297 12.7343 16.8073 12.0445 17.0056 11.3585C17.0664 11.1861 17.069 10.9986 17.013 10.8246C16.957 10.6506 16.8454 10.4998 16.6955 10.3953C16.1382 9.9508 15.5847 9.50161 14.9561 8.99604C15.1994 8.97725 15.3742 8.95939 15.549 8.95C16.0753 8.9218 16.6015 8.88233 17.1287 8.87576C17.6051 8.87012 17.8805 8.64459 18.0383 8.2048C18.2639 7.55451 18.5195 6.91549 18.8005 6.17969Z" fill="#27AAE1"/>
<path d="M35.1182 8.98664C34.5065 9.48 33.9802 9.92637 33.4342 10.3389C33.0471 10.634 32.9362 10.9807 33.0753 11.445C33.2754 12.114 33.4512 12.7916 33.6476 13.5236C33.0133 13.1102 32.4212 12.7408 31.848 12.3452C31.4364 12.0633 31.0652 12.0689 30.6555 12.3556C30.0917 12.7484 29.5109 13.1073 28.87 13.5236C29.0674 12.7897 29.228 12.1216 29.4282 11.4656C29.5795 10.9695 29.4498 10.6114 29.042 10.3032C28.5045 9.89724 27.9876 9.46215 27.3975 8.98758C28.185 8.9453 28.8916 8.89361 29.5992 8.87294C30.0437 8.85978 30.3181 8.65774 30.4694 8.24708C30.7156 7.58176 30.9722 6.92113 31.255 6.17969C31.5294 6.90234 31.7841 7.54229 32.0153 8.1907C32.175 8.64177 32.4579 8.86918 32.9503 8.87858C33.6438 8.88985 34.3326 8.94436 35.1182 8.98664Z" fill="#27AAE1"/>
</svg>
