<svg width="35" height="36" viewBox="0 0 35 36" fill="none" xmlns="http://www.w3.org/2000/svg">
<path d="M34.6433 18.0382C34.6433 23.1574 34.6433 28.2771 34.6433 33.397C34.6433 34.7578 33.8706 35.7245 32.6078 35.9494C32.3912 35.9799 32.1723 35.9913 31.9537 35.9835C22.2032 35.9835 12.4547 35.9701 2.701 36C1.20711 36 -0.00616659 34.9487 2.3582e-05 33.3176C0.0340696 25.0981 0.0154984 16.8785 0.0154984 8.66006C0.0154984 6.66682 0.0577984 4.67358 0.00311854 2.68241C-0.0433078 1.03685 1.22361 0 2.66696 0C12.4433 0.0278558 22.2207 0.0144437 31.997 0.0144437C33.6478 0.0144437 34.6433 0.996617 34.6433 2.64424C34.6447 7.77314 34.6447 12.9045 34.6433 18.0382Z" fill="#F8F8F8"/>
<path d="M17.3677 8.54756C22.5777 8.54756 27.7874 8.54481 32.9968 8.53931C33.3362 8.53931 33.4157 8.61875 33.4157 8.95817C33.404 17.0742 33.4009 25.1902 33.4064 33.3062C33.4064 34.3245 32.9762 34.7506 31.9517 34.7506H2.70209C1.67968 34.7506 1.2505 34.3235 1.2505 33.3062C1.2505 25.1902 1.2474 17.0742 1.24121 8.95817C1.24121 8.61256 1.33097 8.5455 1.66317 8.5455C6.89938 8.55375 12.1342 8.55444 17.3677 8.54756Z" fill="#EC008C"/>
<path d="M17.3069 7.31262C12.0976 7.31262 6.88818 7.31572 1.6788 7.32191C1.3177 7.32191 1.23723 7.21874 1.24136 6.87622C1.26199 5.44938 1.24755 4.02151 1.25064 2.59365C1.25064 1.70536 1.71697 1.25244 2.61145 1.25244H32.053C32.9423 1.25244 33.4055 1.71258 33.4076 2.60396C33.4076 4.04834 33.3983 5.48446 33.4158 6.92471C33.4158 7.2466 33.3302 7.32501 33.0124 7.32397C27.7769 7.3109 22.5418 7.30712 17.3069 7.31262Z" fill="#EC008C"/>
<path d="M12.6435 22.1814C13.9042 22.1814 15.1649 22.1731 16.4257 22.1876C16.7022 22.1876 16.7713 22.1071 16.763 21.8419C16.7434 21.2508 16.7445 20.6586 16.763 20.0674C16.7703 19.8043 16.7053 19.7084 16.4246 19.7166C15.7024 19.7362 14.9803 19.728 14.2632 19.7166C13.1665 19.7063 12.5238 19.0584 12.5207 17.9555C12.5193 15.9032 12.5186 13.8453 12.5186 11.7819C12.5186 10.6604 13.1645 10.0156 14.2931 10.0125C16.3393 10.0049 18.3849 10.0049 20.4297 10.0125C21.58 10.0125 22.2217 10.6573 22.2248 11.8056C22.2296 13.8518 22.2296 15.8973 22.2248 17.9421C22.2248 19.0667 21.5749 19.7105 20.4544 19.7187C19.7323 19.7239 19.0101 19.728 18.293 19.7187C18.0609 19.7187 17.9784 19.7775 17.9835 20.02C18 20.6235 18.0073 21.2301 17.9835 21.8337C17.9711 22.1277 18.0588 22.1907 18.3436 22.1896C20.8145 22.1772 23.2844 22.1824 25.7553 22.1824C26.4888 22.1824 26.6663 22.3598 26.6663 23.0913C26.6663 24.4934 26.6756 25.8955 26.658 27.2975C26.658 27.5957 26.7395 27.6772 27.0212 27.6483C27.2654 27.6313 27.5105 27.6313 27.7547 27.6483C28.3325 27.67 28.8236 28.0724 28.8401 28.6439C28.8751 29.8524 28.8751 31.0608 28.8401 32.2693C28.8272 32.5441 28.708 32.8032 28.5075 32.9917C28.3071 33.1802 28.0412 33.2834 27.7661 33.2793C26.6209 33.2958 25.4757 33.2958 24.3305 33.2793C24.1847 33.2791 24.0403 33.25 23.9057 33.1938C23.7711 33.1376 23.6489 33.0554 23.5462 32.9519C23.4434 32.8483 23.3621 32.7256 23.3069 32.5905C23.2517 32.4555 23.2237 32.3109 23.2245 32.1651C23.1998 31.0344 23.1998 29.9026 23.2245 28.7698C23.239 28.0981 23.7301 27.6638 24.3996 27.6432C24.7308 27.6328 25.1714 27.7866 25.3643 27.5854C25.5706 27.3667 25.4241 26.9261 25.4272 26.5826C25.4355 25.6437 25.4221 24.7049 25.4355 23.7661C25.4355 23.5164 25.4014 23.4101 25.1105 23.4111C22.8456 23.4242 20.581 23.4242 18.3168 23.4111C18.031 23.4111 17.9825 23.5143 17.9846 23.764C17.9969 24.9473 17.999 26.1307 17.9846 27.3141C17.9846 27.5916 18.0661 27.6741 18.3302 27.6473C18.5363 27.6353 18.743 27.6353 18.9492 27.6473C19.6322 27.6586 20.1274 28.0765 20.1449 28.7481C20.1738 29.8926 20.1738 31.0371 20.1449 32.1816C20.1274 32.8522 19.6291 33.2824 18.9513 33.2865C17.87 33.2927 16.7892 33.2927 15.7086 33.2865C15.0143 33.2865 14.5253 32.8347 14.5108 32.1434C14.4881 31.0251 14.4881 29.906 14.5108 28.7863C14.5242 28.095 15.0122 27.6597 15.7097 27.6514C16.0439 27.6452 16.4876 27.7649 16.6805 27.5978C16.9075 27.4007 16.7506 26.9437 16.7548 26.6012C16.7651 25.6489 16.7548 24.6966 16.763 23.7444C16.763 23.4978 16.7032 23.4184 16.4422 23.4194C14.1642 23.4311 11.8869 23.4311 9.61028 23.4194C9.37815 23.4194 9.30077 23.473 9.30077 23.7176C9.31384 24.9267 9.31384 26.1359 9.30077 27.345C9.30077 27.6132 9.39156 27.6751 9.63091 27.6545C9.83711 27.6436 10.0437 27.6436 10.2499 27.6545C10.9236 27.6669 11.4157 28.1002 11.4312 28.7729C11.458 29.9077 11.457 31.0374 11.4312 32.1682C11.4157 32.8388 10.9216 33.2865 10.253 33.2917C9.15943 33.3 8.06583 33.3 6.97223 33.2917C6.29854 33.2917 5.81261 32.8408 5.79919 32.1692C5.77787 31.0371 5.77787 29.905 5.79919 28.7729C5.81157 28.0971 6.29235 27.6659 6.97326 27.6545C7.24305 27.6406 7.51337 27.6406 7.78315 27.6545C8.02972 27.6762 8.08027 27.5844 8.07924 27.3533C8.06893 25.9254 8.07305 24.4975 8.07408 23.0697C8.07408 22.3836 8.26392 22.1896 8.93761 22.1886L12.6435 22.1814Z" fill="#F8F8F8"/>
<path d="M26.1296 4.89014C24.4324 4.89014 22.7343 4.89014 21.0361 4.89014C20.6327 4.89014 20.3717 4.65182 20.3552 4.30517C20.3387 3.95852 20.6214 3.68615 21.0268 3.6583C21.1166 3.65314 21.2063 3.6583 21.2961 3.6583H25.1557C27.0987 3.6583 29.041 3.6583 30.9827 3.6583C31.1235 3.65154 31.2646 3.66263 31.4026 3.69131C31.4762 3.70434 31.5464 3.73185 31.6093 3.77225C31.6722 3.81265 31.7264 3.86513 31.7688 3.92665C31.8112 3.98818 31.841 4.05751 31.8564 4.13064C31.8718 4.20376 31.8726 4.27922 31.8586 4.35263C31.8535 4.49667 31.7922 4.633 31.6879 4.73248C31.5836 4.83196 31.4446 4.88669 31.3004 4.88498C31.0188 4.90252 30.7351 4.89221 30.4524 4.89221L26.1296 4.89014Z" fill="#F8F8F8"/>
<path d="M2.78711 4.27323C2.78752 3.81239 2.92467 3.36202 3.1812 2.97917C3.43772 2.59632 3.80208 2.29819 4.22814 2.12254C4.6542 1.9469 5.12281 1.90162 5.57461 1.99246C6.02642 2.08329 6.44111 2.30615 6.76619 2.63281C7.09126 2.95948 7.31209 3.37525 7.40072 3.8275C7.48935 4.27975 7.44179 4.74812 7.26406 5.17332C7.08634 5.59852 6.78644 5.96142 6.40234 6.21607C6.01823 6.47072 5.56721 6.60567 5.10636 6.60383C4.49005 6.60138 3.89985 6.35468 3.46511 5.91782C3.03037 5.48095 2.78656 4.88955 2.78711 4.27323Z" fill="#F8F8F8"/>
<path d="M10.5152 6.60393C10.2054 6.61111 9.89732 6.55637 9.60894 6.44293C9.32056 6.32948 9.05773 6.15962 8.83584 5.94329C8.61395 5.72696 8.43748 5.46852 8.31676 5.18311C8.19604 4.8977 8.1335 4.59107 8.13282 4.28118C8.13213 3.97129 8.19331 3.66438 8.31276 3.37844C8.43221 3.0925 8.60754 2.83328 8.82847 2.61597C9.04939 2.39866 9.31147 2.22763 9.59935 2.11291C9.88722 1.99819 10.1951 1.94209 10.5049 1.94789C10.8147 1.94072 11.1229 1.99546 11.4112 2.1089C11.6996 2.22234 11.9625 2.3922 12.1843 2.60853C12.4062 2.82486 12.5827 3.0833 12.7034 3.36871C12.8241 3.65412 12.8867 3.96076 12.8874 4.27064C12.888 4.58053 12.8269 4.88744 12.7074 5.17338C12.588 5.45933 12.4126 5.71855 12.1917 5.93586C11.9708 6.15317 11.7087 6.32419 11.4208 6.43891C11.133 6.55363 10.8251 6.60973 10.5152 6.60393Z" fill="#F8F8F8"/>
<path d="M15.9134 6.60385C15.453 6.60365 15.003 6.46696 14.6203 6.21107C14.2375 5.95517 13.9392 5.59155 13.7631 5.16617C13.5869 4.74079 13.5409 4.27274 13.6307 3.82117C13.7205 3.3696 13.9421 2.95479 14.2676 2.62916C14.5931 2.30353 15.0078 2.08169 15.4593 1.9917C15.9108 1.9017 16.3789 1.94758 16.8044 2.12354C17.2298 2.29949 17.5936 2.59763 17.8497 2.98026C18.1057 3.36289 18.2426 3.81284 18.243 4.27325C18.2427 4.8911 17.9973 5.48359 17.5605 5.92057C17.1237 6.35755 16.5313 6.60331 15.9134 6.60385Z" fill="#F8F8F8"/>
<path d="M17.3544 18.488C16.3516 18.488 15.3498 18.488 14.347 18.488C13.8374 18.488 13.7569 18.4096 13.7559 17.9093C13.7559 15.8789 13.7559 13.8499 13.7559 11.8223C13.7559 11.3497 13.8487 11.2569 14.3243 11.2559C16.3547 11.2559 18.3837 11.2559 20.4113 11.2559C20.8869 11.2559 20.987 11.3528 20.988 11.8192C20.988 13.8619 20.988 15.905 20.988 17.9485C20.988 18.3931 20.8849 18.4901 20.4351 18.4922C19.4096 18.488 18.382 18.488 17.3544 18.488Z" fill="#EC008C"/>
<path d="M18.9207 30.4803C18.9207 30.9291 18.9145 31.3789 18.9207 31.8277C18.9207 31.9907 18.8764 32.0526 18.7051 32.0516C17.7807 32.044 16.8567 32.044 15.9329 32.0516C15.7844 32.0516 15.7266 32.0041 15.7318 31.8525C15.7369 30.9291 15.739 30.0047 15.7318 29.0813C15.7318 28.8967 15.8174 28.875 15.968 28.875C16.8656 28.875 17.7642 28.8822 18.6628 28.875C18.864 28.875 18.93 28.9317 18.9238 29.135C18.9145 29.5817 18.9207 30.0315 18.9207 30.4803Z" fill="#EC008C"/>
<path d="M8.5887 32.0475C8.13888 32.0475 7.68906 32.0475 7.24027 32.0475C7.07623 32.0475 7.01949 32.0032 7.02052 31.8329C7.02878 30.9209 7.02878 30.0092 7.02052 29.0979C7.02052 28.9008 7.0948 28.8689 7.2671 28.8699C8.16605 28.8775 9.06465 28.8775 9.96292 28.8699C10.1414 28.8699 10.2105 28.9132 10.2085 29.1051C10.1992 30.0037 10.1971 30.9034 10.2085 31.802C10.2085 32.0228 10.1197 32.0506 9.93506 32.0475C9.48731 32.0413 9.03749 32.0475 8.5887 32.0475Z" fill="#EC008C"/>
<path d="M26.0525 32.0474C25.6027 32.0474 25.1529 32.0381 24.7041 32.0525C24.4978 32.0587 24.4472 31.9855 24.4493 31.7884C24.4589 30.9026 24.4589 30.0167 24.4493 29.1308C24.4493 28.9244 24.5163 28.8708 24.7134 28.8729C25.5986 28.8825 26.4845 28.8825 27.371 28.8729C27.5557 28.8729 27.6424 28.9007 27.6393 29.1184C27.6269 30.017 27.629 30.9156 27.6393 31.8142C27.6393 32.001 27.5898 32.0567 27.402 32.0515C26.9511 32.0391 26.5013 32.0474 26.0525 32.0474Z" fill="#EC008C"/>
<path d="M5.12443 5.36484C4.97954 5.36878 4.83536 5.34327 4.70063 5.28985C4.56589 5.23643 4.4434 5.15622 4.34057 5.05407C4.23775 4.95192 4.15673 4.82996 4.10242 4.69558C4.04812 4.56119 4.02166 4.41719 4.02464 4.27228C4.02542 3.98616 4.13851 3.71178 4.33957 3.50821C4.54063 3.30465 4.81358 3.18816 5.09967 3.18384C5.39221 3.18438 5.67269 3.30047 5.88003 3.50685C6.08737 3.71322 6.20478 3.99315 6.20668 4.28569C6.20371 4.57151 6.08864 4.84475 5.88623 5.04658C5.68382 5.24841 5.41026 5.36269 5.12443 5.36484Z" fill="#EC008C"/>
<path d="M10.5288 5.36484C10.3842 5.36859 10.2403 5.34316 10.1057 5.29006C9.97107 5.23697 9.84855 5.15729 9.74542 5.0558C9.64229 4.95431 9.56067 4.83308 9.50542 4.69935C9.45018 4.56561 9.42245 4.42212 9.42388 4.27744C9.42488 3.99143 9.53746 3.71711 9.73766 3.51286C9.93787 3.3086 10.2099 3.19056 10.4958 3.18384C10.7884 3.18354 11.0693 3.29843 11.2778 3.50367C11.4864 3.70891 11.6057 3.98798 11.61 4.28053C11.6074 4.56675 11.4927 4.84053 11.2906 5.04321C11.0885 5.24589 10.815 5.36135 10.5288 5.36484Z" fill="#EC008C"/>
<path d="M15.9054 5.36476C15.6193 5.36562 15.3443 5.2539 15.1399 5.05372C14.9355 4.85353 14.818 4.58097 14.8128 4.2949C14.8075 4.07675 14.8674 3.86197 14.9848 3.67804C15.1022 3.4941 15.2718 3.34937 15.4719 3.26236C15.672 3.17534 15.8935 3.15 16.1081 3.18957C16.3227 3.22915 16.5206 3.33183 16.6765 3.4845C16.8324 3.63717 16.9392 3.83288 16.9833 4.04659C17.0274 4.26031 17.0067 4.48231 16.9239 4.6842C16.8411 4.88609 16.6999 5.05869 16.5185 5.17993C16.3371 5.30117 16.1236 5.36552 15.9054 5.36476Z" fill="#EC008C"/>
</svg>
