<svg width="37" height="36" viewBox="0 0 37 36" fill="none" xmlns="http://www.w3.org/2000/svg">
<path d="M18.6682 35.9932C16.0817 35.9932 13.4942 35.9884 10.9077 36C10.6363 36 10.5684 35.937 10.5732 35.6665C10.5907 34.8328 10.5732 34.8328 11.4167 34.8328C11.8393 34.8328 12.263 34.824 12.6857 34.8328C12.8631 34.8386 12.9087 34.7814 12.9058 34.6088C12.8961 34.0049 12.8902 33.3999 12.9058 32.7959C12.9135 32.5545 12.8389 32.5051 12.6062 32.5051C10.8418 32.5148 9.07639 32.5109 7.31198 32.5051C5.40699 32.5051 4.19517 31.2894 4.19517 29.3776C4.19517 27.842 4.1816 26.3064 4.20486 24.7717C4.20486 24.4237 4.09725 24.3617 3.78606 24.3733C3.37792 24.3878 2.9659 24.4169 2.55872 24.3267C1.49232 24.0912 0.716754 23.1935 0.716754 22.1106C0.708999 16.8522 0.708999 11.5939 0.716754 6.33554C0.723608 5.73564 0.965822 5.16243 1.39122 4.73939C1.81662 4.31634 2.39117 4.07732 2.9911 4.0738C4.07883 4.05925 5.16754 4.07961 6.25527 4.06313C6.50345 4.06313 6.51896 4.16008 6.51799 4.35397C6.51024 5.50181 6.51799 6.65062 6.50733 7.79846C6.50733 8.06215 6.55677 8.14067 6.83694 8.13777C8.3716 8.12129 9.90722 8.11741 11.4419 8.13777C11.7899 8.13777 11.8423 8.04082 11.8064 7.72478C11.6285 6.20129 11.9626 4.66191 12.7562 3.34931C13.5498 2.03671 14.7576 1.02553 16.1893 0.475169C20.8747 -1.34644 25.9295 2.31132 25.6561 7.32536C25.6561 7.38644 25.6493 7.44654 25.6425 7.50665C25.5727 8.12807 25.5717 8.12807 26.1776 8.12807H34.1921C35.7181 8.12807 36.6895 9.09753 36.6904 10.6109C36.6904 15.5312 36.6904 20.4512 36.6904 25.3709C36.6904 26.8871 35.7161 27.8527 34.197 27.8624C33.8751 27.8624 33.434 27.7199 33.2644 27.9234C33.0947 28.127 33.2188 28.5429 33.2081 28.8667C33.1955 29.2884 33.2363 29.7111 33.1548 30.1319C33.0346 30.7917 32.6881 31.3889 32.1749 31.8207C31.6617 32.2524 31.014 32.4917 30.3434 32.4973C28.506 32.5122 26.6688 32.5122 24.832 32.4973C24.5616 32.4973 24.4859 32.5574 24.4966 32.8318C24.5208 33.4135 24.5131 33.9952 24.4966 34.5768C24.4917 34.7824 24.5509 34.8405 24.7554 34.8357C25.3594 34.8221 25.9644 34.8357 26.5683 34.826C26.7748 34.826 26.8252 34.8832 26.8281 35.0858C26.8378 35.9913 26.8446 35.9913 25.9498 35.9913L18.6682 35.9932Z" fill="white"/>
<path d="M20.8037 23.2266C21.2332 22.3715 21.6278 21.5727 22.034 20.7806C22.1428 20.5668 22.1968 20.3293 22.191 20.0894C22.1842 18.2407 22.1959 16.3919 22.1833 14.5431C22.1774 13.6658 22.4848 12.9358 23.1343 12.3609C24.0446 11.5543 24.7688 10.6159 25.1915 9.47288C25.27 9.25863 25.4154 9.29935 25.5647 9.29935H31.8003C32.6583 9.29935 33.5162 9.29159 34.3742 9.29935C34.526 9.29688 34.6768 9.32482 34.8177 9.38153C34.9585 9.43823 35.0866 9.52254 35.1944 9.62951C35.3022 9.73647 35.3874 9.86392 35.4452 10.0043C35.503 10.1448 35.5321 10.2953 35.5308 10.4472C35.5372 14.7742 35.5372 19.1006 35.5308 23.4263C35.5248 23.4635 35.5157 23.5001 35.5036 23.5358C34.8764 23.1481 34.1822 23.2256 33.4988 23.2256C29.4148 23.2256 25.3301 23.2256 21.2448 23.2256L20.8037 23.2266Z" fill="#8DC63F"/>
<path d="M18.6661 31.3506H7.35349C6.03018 31.3506 5.35835 30.672 5.35835 29.338C5.35835 27.7917 5.36417 26.2445 5.35156 24.6972C5.35156 24.4452 5.40779 24.3763 5.6647 24.3802C6.51879 24.3928 6.51879 24.3802 6.51879 25.2382C6.51879 25.6735 6.51879 26.1107 6.51879 26.544C6.51879 27.4117 6.97056 27.8683 7.83144 27.8683C9.81301 27.8683 11.7949 27.8683 13.7771 27.8683H29.5124C30.4537 27.8683 30.891 27.434 30.8919 26.5004C30.8919 25.8848 30.8987 25.2682 30.8919 24.6517C30.8919 24.4578 30.9171 24.3821 31.1392 24.3792C32.0572 24.3676 32.0572 24.3579 32.0572 25.2828C32.0572 26.6846 32.0572 28.0864 32.0572 29.4883C32.0572 30.6196 31.3292 31.3487 30.2007 31.3496C26.3546 31.3542 22.5097 31.3545 18.6661 31.3506Z" fill="#8DC63F"/>
<path d="M16.6092 23.2264H16.1817C11.9519 23.2264 7.72314 23.2051 3.49436 23.241C2.38918 23.2497 1.7823 22.8066 1.87439 21.5851C1.89863 21.273 1.95001 20.986 2.15263 20.7456C2.26904 20.606 2.41616 20.4952 2.58248 20.4219C2.74881 20.3485 2.92984 20.3147 3.11142 20.3229C4.12645 20.3277 5.14147 20.3122 6.15649 20.3326C6.44733 20.3384 6.53361 20.2754 6.53167 19.9661C6.51907 16.5469 6.53167 13.1266 6.51325 9.70733C6.51325 9.34281 6.61601 9.28659 6.94951 9.29046C8.5685 9.30888 10.1875 9.30404 11.8075 9.29046C12.0537 9.29046 12.1768 9.34766 12.2738 9.59584C12.6723 10.6261 13.3269 11.5376 14.1758 12.2444C14.9068 12.8542 15.2277 13.6327 15.2287 14.5643C15.2287 16.4386 15.2287 18.3129 15.2287 20.1872C15.2263 20.3671 15.2683 20.5449 15.3508 20.7049C15.7619 21.527 16.171 22.3559 16.6092 23.2264Z" fill="#8DC63F"/>
<path d="M18.6651 1.17415C19.8407 1.16797 20.9906 1.51816 21.9632 2.17857C22.9359 2.83898 23.6855 3.77861 24.1134 4.8736C24.5371 5.94897 24.6267 7.12708 24.3706 8.25416C24.1144 9.38123 23.5245 10.4049 22.6777 11.1916C21.8914 11.9119 21.2526 12.6962 21.0829 13.7839C21.0755 13.8309 21.0569 13.8755 21.0286 13.9138C20.9947 13.9565 20.001 13.9603 19.9564 13.9254C19.8837 13.8682 19.9244 13.7917 19.9283 13.7257C20.0252 12.1222 20.1358 10.5188 20.2327 8.91528C20.2434 8.75047 20.3122 8.72138 20.4566 8.72138C20.7698 8.72138 21.0839 8.75628 21.3951 8.68164C21.8181 8.5887 22.1916 8.34218 22.4434 7.98976C22.6952 7.63733 22.8073 7.20406 22.7581 6.77374C22.6437 5.87506 21.8769 5.2294 20.9423 5.24297C20.5098 5.24814 20.0944 5.4129 19.7759 5.70563C19.4574 5.99836 19.2583 6.39842 19.2167 6.829C19.2109 6.90074 19.2109 6.97345 19.207 7.04616C19.1808 7.56191 19.1808 7.56191 18.667 7.56094C18.2414 7.56094 18.2414 7.56094 18.1978 6.8959C18.1733 6.47659 17.9995 6.0799 17.7079 5.77761C17.4162 5.47532 17.0261 5.28739 16.6079 5.24782C15.6666 5.16929 14.8823 5.73255 14.6796 6.63608C14.4964 7.45237 14.9705 8.30452 15.7761 8.61378C16.1503 8.75726 16.5371 8.72623 16.922 8.72042C17.1033 8.72042 17.1692 8.76501 17.1808 8.9589C17.2778 10.5265 17.3747 12.0941 17.4872 13.6598C17.5046 13.9099 17.431 13.9691 17.2012 13.9506C16.9365 13.9303 16.6292 14.0214 16.4159 13.9138C16.2027 13.8062 16.2715 13.462 16.1949 13.2265C15.9678 12.5218 15.5456 11.8959 14.9773 11.4213C13.9599 10.568 13.265 9.39216 13.0083 8.0893C12.3423 4.9279 14.6564 1.66179 17.8556 1.24395C18.1233 1.20023 18.3939 1.17689 18.6651 1.17415Z" fill="#8DC63F"/>
<path d="M18.6699 26.7087C15.1285 26.7087 11.587 26.7039 8.04463 26.7155C7.74798 26.7155 7.65685 26.6554 7.67139 26.3471C7.70048 25.8052 7.69563 25.2594 7.67139 24.7165C7.65976 24.448 7.72762 24.3782 8.00295 24.3801C10.699 24.3917 13.3941 24.3869 16.0902 24.3869C16.2348 24.3942 16.3798 24.3942 16.5245 24.3869C16.9433 24.3442 17.2167 24.4363 17.4668 24.8639C18.0485 25.8605 19.492 25.7635 20.0446 24.7175C20.19 24.4421 20.349 24.383 20.6263 24.384C23.5508 24.3917 26.476 24.3917 29.4018 24.384C29.6732 24.384 29.7479 24.446 29.7363 24.7184C29.712 25.273 29.712 25.8304 29.7363 26.3859C29.7479 26.6593 29.6703 26.7194 29.4008 26.7184C25.8255 26.7081 22.2485 26.7049 18.6699 26.7087Z" fill="#8DC63F"/>
<path d="M1.87305 19.4767V11.6241C1.87305 9.93204 1.87305 8.24033 1.87305 6.54895C1.87305 5.6968 2.33742 5.24018 3.1983 5.23824C3.83911 5.23824 4.47992 5.246 5.11976 5.2334C5.31366 5.2334 5.35922 5.28866 5.35922 5.47576C5.3534 9.95854 5.3534 14.4416 5.35922 18.9251C5.35922 19.1519 5.27294 19.1732 5.08583 19.1694C4.53033 19.1597 3.97483 19.1752 3.41836 19.1635C2.8997 19.1509 2.3888 19.1907 1.87305 19.4767Z" fill="#8DC63F"/>
<path d="M21.0265 17.4232C21.0265 18.1115 21.0187 18.8008 21.0313 19.4901C21.0313 19.6946 20.9771 19.7499 20.7725 19.7489C19.3939 19.7405 18.016 19.7405 16.6387 19.7489C16.4332 19.7489 16.3779 19.6946 16.3789 19.4901C16.3886 18.1122 16.3886 16.7342 16.3789 15.3563C16.3789 15.1508 16.4332 15.0955 16.6387 15.0975C18.0167 15.1059 19.3946 15.1059 20.7725 15.0975C20.9771 15.0975 21.0352 15.1508 21.0313 15.3563C21.0187 16.0446 21.0265 16.7339 21.0265 17.4232Z" fill="#8DC63F"/>
<path d="M18.7232 32.5119C20.1618 32.5119 21.6005 32.5187 23.0382 32.5051C23.2922 32.5051 23.364 32.5633 23.3543 32.8202C23.3339 33.4116 23.3407 34.0049 23.3543 34.5962C23.3543 34.7901 23.3039 34.8376 23.1138 34.8367C20.1764 34.8309 17.2389 34.8309 14.3015 34.8367C14.1124 34.8367 14.0562 34.7892 14.0601 34.5972C14.0727 33.9932 14.0756 33.3883 14.0601 32.7843C14.0533 32.5594 14.1134 32.5042 14.3383 32.5061C15.7973 32.5197 17.2603 32.5119 18.7232 32.5119Z" fill="#8DC63F"/>
<path d="M16.7471 20.9094H20.6094C20.652 21.0209 20.5706 21.0897 20.5309 21.1702C20.0597 22.1183 19.5879 23.0668 19.1155 24.0156C19.0272 24.192 18.9371 24.3704 18.7054 24.3714C18.4737 24.3723 18.3835 24.193 18.2953 24.0156C17.7873 22.9938 17.2774 21.9729 16.7471 20.9094Z" fill="#8DC63F"/>
<path d="M33.9133 26.7077C33.2143 26.7077 33.2143 26.7077 33.2143 25.9952C33.2143 25.5366 33.224 25.0781 33.2143 24.6205C33.2076 24.4266 33.2725 24.3743 33.4577 24.383C33.7708 24.3975 34.0849 24.383 34.3981 24.3898C34.6869 24.4174 34.955 24.552 35.1498 24.7672C35.3445 24.9823 35.4518 25.2625 35.4506 25.5527C35.4494 25.8429 35.3397 26.1222 35.1432 26.3357C34.9467 26.5492 34.6775 26.6816 34.3884 26.7068C34.2265 26.7126 34.0694 26.7077 33.9133 26.7077Z" fill="#8DC63F"/>
<path d="M18.6631 13.8886C18.5545 12.2405 18.4488 10.5925 18.3364 8.94438C18.3247 8.7786 18.3499 8.68941 18.54 8.71559C18.6365 8.72827 18.7343 8.72827 18.8308 8.71559C19.0402 8.68747 19.0926 8.76891 19.077 8.97443C19.0101 9.877 18.9578 10.7796 18.8987 11.6821C18.8586 12.2955 18.8175 12.9095 18.7755 13.5241C18.7668 13.6492 18.7523 13.7733 18.7406 13.8973L18.6631 13.8886Z" fill="#8DC63F"/>
<path d="M16.717 7.55699C16.5793 7.55699 16.495 7.55699 16.4106 7.55699C16.0471 7.5376 15.8047 7.30299 15.8067 6.97532C15.8158 6.82225 15.8816 6.67808 15.9913 6.57085C16.1009 6.46363 16.2465 6.40102 16.3997 6.39522C16.5529 6.38941 16.7028 6.44082 16.8203 6.53945C16.9377 6.63807 17.0142 6.77685 17.035 6.92878C17.0456 6.99955 17.035 7.07517 17.0495 7.144C17.1232 7.47362 17.0476 7.65685 16.717 7.55699Z" fill="#8DC63F"/>
<path d="M20.7204 7.55799C20.6321 7.46104 20.3326 7.75188 20.3461 7.3641C20.3714 6.66512 20.54 6.39464 20.9938 6.40142C21.0721 6.39805 21.1502 6.4104 21.2237 6.43775C21.2972 6.4651 21.3644 6.5069 21.4214 6.56067C21.4784 6.61445 21.5241 6.6791 21.5557 6.75083C21.5873 6.82255 21.6043 6.89988 21.6055 6.97825C21.6074 7.36991 21.3331 7.55799 20.7204 7.55799Z" fill="#8DC63F"/>
<path d="M29.7306 16.2629C28.2764 16.2629 26.83 16.2571 25.3797 16.2678C25.1441 16.2678 25.0801 16.2106 25.0821 15.9721C25.0879 15.0996 25.0821 15.0996 25.9546 15.0996C28.6497 15.0996 31.3457 15.1044 34.0408 15.0928C34.3103 15.0928 34.3821 15.1529 34.3763 15.4263C34.3588 16.26 34.3763 16.261 33.5338 16.261L29.7306 16.2629Z" fill="white"/>
<path d="M29.7677 12.7805C31.2064 12.7805 32.6451 12.7863 34.0828 12.7747C34.3194 12.7747 34.3814 12.8348 34.3795 13.0713C34.3746 13.9438 34.3843 13.9438 33.5021 13.9438C30.806 13.9438 28.1109 13.939 25.4149 13.9506C25.1444 13.9506 25.0756 13.8886 25.0814 13.6171C25.0979 12.7834 25.0814 12.7834 25.9238 12.7834L29.7677 12.7805Z" fill="white"/>
<path d="M30.8934 18.5837C29.827 18.5837 28.7654 18.576 27.7019 18.5895C27.4664 18.5895 27.4033 18.5314 27.4043 18.2939C27.4101 17.4213 27.4043 17.4213 28.2768 17.4213C30.1983 17.4213 32.1207 17.4272 34.0422 17.4146C34.3117 17.4146 34.3834 17.4747 34.3776 17.7471C34.3602 18.5818 34.3776 18.5818 33.5352 18.5818L30.8934 18.5837Z" fill="white"/>
<path d="M31.4515 11.6201C30.579 11.6201 29.7065 11.6104 28.8408 11.6259C28.61 11.6259 28.5654 11.5629 28.5654 11.3448C28.5654 10.4587 28.5577 10.4587 29.4273 10.4587C30.9784 10.4587 32.5218 10.4655 34.069 10.4529C34.3279 10.4529 34.3841 10.5207 34.3812 10.7709C34.3696 11.6201 34.3812 11.6201 33.5184 11.6201H31.4515Z" fill="white"/>
<path d="M28.0234 20.9045C27.1412 20.9045 26.258 20.8948 25.3758 20.9113C25.1305 20.9162 25.085 20.8376 25.085 20.6098C25.085 19.7441 25.085 19.7441 25.9294 19.7441C27.4805 19.7441 29.0239 19.7528 30.5711 19.7363C30.8513 19.7363 30.9046 19.8139 30.8998 20.0756C30.8852 20.9045 30.8998 20.9045 30.0534 20.9045H28.0234Z" fill="white"/>
<path d="M26.2835 10.4587H26.5375C27.4206 10.4587 27.41 10.4587 27.4168 11.3264C27.4168 11.5581 27.3654 11.6337 27.1259 11.626C26.5219 11.6075 25.917 11.6143 25.313 11.626C25.1434 11.626 25.0939 11.5853 25.0872 11.4078C25.0493 10.4616 25.0435 10.4616 25.9965 10.4616L26.2835 10.4587Z" fill="white"/>
<path d="M33.247 19.7441H33.501C34.3842 19.7441 34.3735 19.7441 34.3803 20.6118C34.3803 20.8425 34.3289 20.9191 34.0894 20.9114C33.4855 20.892 32.8815 20.8988 32.2775 20.9114C32.1069 20.9114 32.0575 20.8707 32.0507 20.6932C32.0138 19.747 32.0071 19.747 32.96 19.747L33.247 19.7441Z" fill="white"/>
<path d="M25.6482 18.5838C25.0889 18.5838 25.0889 18.5838 25.0889 18.0186C25.0889 17.4233 25.0889 17.4233 25.6909 17.4233C26.2503 17.4233 26.2503 17.4233 26.2503 17.9885C26.2503 18.5838 26.2503 18.5838 25.6482 18.5838Z" fill="white"/>
<path d="M16.3816 29.0295C16.4971 29.0296 16.61 29.064 16.7059 29.1284C16.8018 29.1929 16.8764 29.2844 16.92 29.3914C16.9637 29.4984 16.9745 29.6159 16.9511 29.729C16.9277 29.8422 16.8711 29.9458 16.7886 30.0267C16.7061 30.1075 16.6014 30.162 16.4878 30.1831C16.3742 30.2042 16.2569 30.191 16.1508 30.1452C16.0448 30.0994 15.9547 30.023 15.8922 29.9259C15.8298 29.8287 15.7976 29.7151 15.7999 29.5996C15.803 29.4473 15.8656 29.3024 15.9743 29.1958C16.0831 29.0892 16.2293 29.0295 16.3816 29.0295Z" fill="white"/>
<path d="M19.2834 29.6181C19.282 29.7337 19.2462 29.8463 19.1805 29.9414C19.1148 30.0365 19.0223 30.11 18.9147 30.1523C18.8071 30.1946 18.6894 30.2039 18.5765 30.179C18.4636 30.1541 18.3607 30.0961 18.2809 30.0125C18.2011 29.9288 18.148 29.8233 18.1285 29.7093C18.1089 29.5954 18.1238 29.4782 18.1711 29.3727C18.2185 29.2673 18.2962 29.1783 18.3943 29.1172C18.4925 29.0561 18.6066 29.0256 18.7221 29.0297C18.874 29.035 19.0178 29.0995 19.1227 29.2095C19.2276 29.3195 19.2853 29.4661 19.2834 29.6181Z" fill="white"/>
<path d="M21.6046 29.6239C21.6024 29.7396 21.5657 29.8519 21.4993 29.9467C21.4329 30.0414 21.3398 30.1141 21.2318 30.1556C21.1238 30.1971 21.0059 30.2055 20.8932 30.1797C20.7804 30.1538 20.6779 30.095 20.5988 30.0106C20.5197 29.9262 20.4675 29.8201 20.4489 29.706C20.4304 29.5918 20.4463 29.4747 20.4946 29.3696C20.543 29.2645 20.6216 29.1762 20.7203 29.116C20.8191 29.0558 20.9336 29.0264 21.0491 29.0316C21.2007 29.0384 21.3436 29.1041 21.4474 29.2148C21.5511 29.3254 21.6076 29.4723 21.6046 29.6239Z" fill="white"/>
<path d="M10.5813 22.0661C9.69905 22.0661 8.81684 22.0593 7.93463 22.0709C7.72911 22.0709 7.67385 22.0166 7.67482 21.8111C7.68451 20.4332 7.68451 19.0552 7.67482 17.6773C7.67482 17.4728 7.72911 17.4175 7.93366 17.4185C9.69937 17.4262 11.4644 17.4262 13.2288 17.4185C13.4334 17.4185 13.4887 17.4718 13.4877 17.6773C13.4786 19.0552 13.4786 20.4332 13.4877 21.8111C13.4877 22.0156 13.4334 22.0728 13.2288 22.0709C12.3437 22.0593 11.4635 22.0661 10.5813 22.0661Z" fill="white"/>
<path d="M10.5803 15.1015C11.4625 15.1015 12.3447 15.1083 13.2269 15.0967C13.4315 15.0967 13.4848 15.15 13.4877 15.3555C13.4984 16.2629 13.5052 16.2629 12.6152 16.2629C11.0641 16.2629 9.52071 16.2571 7.97345 16.2678C7.73885 16.2678 7.67486 16.2106 7.6768 15.9721C7.6768 15.0996 7.67195 15.0996 8.54931 15.0996L10.5803 15.1015Z" fill="white"/>
<path d="M9.98869 11.6201C9.29941 11.6201 8.61012 11.6143 7.92181 11.6201C7.74246 11.6201 7.67847 11.5871 7.67363 11.3865C7.6523 10.4558 7.64454 10.4558 8.56262 10.4558C9.72597 10.4558 10.8835 10.4616 12.0439 10.4509C12.2563 10.4509 12.329 10.4878 12.329 10.7224C12.329 11.6172 12.3396 11.6172 11.439 11.6172L9.98869 11.6201Z" fill="white"/>
<path d="M9.39124 13.9409C8.90651 13.9409 8.42178 13.9322 7.93705 13.9409C7.74316 13.9467 7.67045 13.907 7.66851 13.6908C7.65688 12.7766 7.64815 12.7766 8.57398 12.7766C9.34955 12.7766 10.1251 12.7824 10.8939 12.7766C11.0878 12.7766 11.1595 12.8105 11.1624 13.0267C11.1741 13.9409 11.1828 13.9409 10.257 13.9409H9.39124Z" fill="white"/>
<path d="M12.9249 12.7805C13.4862 12.7805 13.4862 12.7805 13.4862 13.3438C13.4862 13.941 13.4862 13.941 12.8871 13.941C12.3257 13.941 12.3257 13.941 12.3257 13.3777C12.3219 12.7805 12.3219 12.7805 12.9249 12.7805Z" fill="white"/>
<path d="M10.5707 20.9045C10.0859 20.9045 9.60119 20.8948 9.11647 20.9094C8.90706 20.9162 8.82563 20.8793 8.83047 20.6399C8.84986 20.0485 8.84599 19.4552 8.83047 18.8638C8.82563 18.6535 8.86247 18.573 9.10095 18.573C10.0791 18.5885 11.0583 18.5856 12.0374 18.573C12.2468 18.573 12.3283 18.604 12.3283 18.8425C12.3079 19.4339 12.306 20.0272 12.3283 20.6186C12.338 20.8774 12.2372 20.9094 12.02 20.9036C11.5382 20.8958 11.0544 20.9045 10.5707 20.9045Z" fill="#8DC63F"/>
</svg>
