<svg width="30" height="36" viewBox="0 0 30 36" fill="none" xmlns="http://www.w3.org/2000/svg">
<path d="M24.1819 21.432C23.5907 21.432 22.9976 21.4398 22.4064 21.432C22.2223 21.432 22.167 21.4882 22.1302 21.6636C21.8763 22.877 21.1698 23.4924 19.9312 23.5728C19.8551 23.5737 19.7807 23.5958 19.7164 23.6365C19.652 23.6772 19.6002 23.735 19.5668 23.8035C19.2606 24.2958 18.9408 24.7784 18.6375 25.2707C18.4762 25.555 18.24 25.7896 17.9546 25.9489C17.6692 26.1081 17.3456 26.186 17.019 26.174C15.8832 26.174 14.747 26.174 13.6106 26.174C13.289 26.1862 12.9702 26.1107 12.6883 25.9555C12.4065 25.8003 12.1722 25.5713 12.0105 25.293C11.7033 24.8027 11.3835 24.3191 11.0811 23.8258C11.0419 23.7472 10.9815 23.6812 10.9066 23.6352C10.8317 23.5893 10.7455 23.5653 10.6576 23.566C9.47625 23.4992 8.69901 22.8169 8.49549 21.6578C8.45576 21.432 8.36078 21.4291 8.19118 21.4301C7.10253 21.4346 6.01484 21.4346 4.92812 21.4301C3.78842 21.4301 3.15848 20.7982 3.16333 19.6566C3.16333 18.9782 3.10421 18.2998 3.26024 17.634C3.49574 16.6048 4.05202 15.7849 4.88257 15.1385C6.00676 14.2663 7.11932 13.3727 8.24546 12.4995C8.32303 12.446 8.38529 12.3731 8.42608 12.2881C8.46688 12.2031 8.48479 12.109 8.47805 12.015C8.48871 11.0129 8.41796 10.0089 8.53135 9.01066C8.80852 6.5733 9.86972 4.52843 11.6384 2.84505C12.4786 2.04552 13.3353 1.2644 14.192 0.482307C14.8859 -0.151505 15.7601 -0.167011 16.4395 0.473585C17.6024 1.5658 18.871 2.54849 19.8857 3.78607C21.3394 5.55765 22.1147 7.60154 22.1709 9.9042C22.1864 10.5807 22.1864 11.2571 22.1709 11.9336C22.1588 12.0502 22.1785 12.168 22.228 12.2743C22.2775 12.3806 22.3549 12.4715 22.452 12.5373C23.5626 13.3892 24.6567 14.2643 25.7577 15.1307C26.9041 16.032 27.4914 17.2056 27.4798 18.67C27.4798 19.045 27.4798 19.4201 27.4798 19.7942C27.4682 20.7381 26.8092 21.4059 25.8594 21.4252C25.3041 21.4359 24.7478 21.4252 24.1915 21.4252L24.1819 21.432Z" fill="white"/>
<path d="M14.8462 36.0001H0.599973C0.327647 36.0001 0.151265 35.8731 0.135759 35.6028C0.119284 35.3062 0.309233 35.1579 0.589312 35.1531C1.15625 35.1424 1.72513 35.1376 2.29208 35.1531C2.54405 35.1599 2.65356 35.1066 2.71849 34.8274C3.04703 33.3941 4.18673 32.3785 5.6162 32.2311C5.89046 32.203 5.87592 32.0373 5.91275 31.8784C6.23256 30.4693 7.07571 29.5108 8.43249 29.0446C9.31737 28.7441 10.2831 28.7888 11.1364 29.1697C11.9898 29.5507 12.6678 30.2398 13.0349 31.0992C13.1619 31.3899 13.2675 31.3987 13.5466 31.3066C14.4238 31.0027 15.3838 31.0446 16.2311 31.4239C16.4365 31.514 16.4995 31.4869 16.5839 31.2766C17.2361 29.6348 18.7276 28.7345 20.5146 28.8847C22.0924 29.0175 23.4405 30.258 23.7855 31.9123C23.831 32.1313 23.9066 32.2089 24.144 32.2379C25.5473 32.4085 26.6551 33.4319 26.9884 34.8546C27.0427 35.0852 27.1164 35.1666 27.3596 35.157C27.9023 35.1356 28.447 35.157 28.9907 35.1492C29.2872 35.1492 29.5295 35.22 29.5586 35.563C29.5828 35.8392 29.3648 35.9943 28.9771 35.9943L14.8462 36.0001Z" fill="white"/>
<path d="M15.9085 28.1297C15.9085 28.4204 15.9182 28.7112 15.9085 28.9951C15.8988 29.2587 15.7525 29.4429 15.486 29.4419C15.204 29.4419 15.0567 29.2626 15.0586 28.9709C15.0586 28.3894 15.0586 27.8167 15.0586 27.2391C15.0586 26.9638 15.2088 26.802 15.4734 26.7933C15.738 26.7845 15.8921 26.9667 15.9047 27.2274C15.9202 27.5269 15.9085 27.8283 15.9085 28.1297Z" fill="white"/>
<path d="M17.73 28.1065C17.7405 28.2863 17.7389 28.4666 17.7251 28.6463C17.6922 28.8866 17.5478 29.0446 17.2881 29.0339C17.2333 29.0369 17.1785 29.0283 17.1273 29.0085C17.0761 28.9888 17.0297 28.9584 16.9911 28.9193C16.9526 28.8803 16.9227 28.8335 16.9036 28.7821C16.8844 28.7307 16.8764 28.6758 16.8801 28.6211C16.8694 28.2848 16.8694 27.9427 16.8801 27.6122C16.8774 27.5606 16.8853 27.509 16.9032 27.4606C16.9211 27.4121 16.9486 27.3678 16.9841 27.3303C17.0197 27.2928 17.0624 27.2629 17.1098 27.2424C17.1572 27.2219 17.2083 27.2112 17.26 27.211C17.314 27.2009 17.3696 27.2023 17.423 27.2153C17.4765 27.2283 17.5265 27.2525 17.5699 27.2864C17.6132 27.3202 17.6489 27.3628 17.6745 27.4115C17.7001 27.4602 17.715 27.5137 17.7184 27.5686C17.734 27.7478 17.7357 27.928 17.7232 28.1074L17.73 28.1065Z" fill="white"/>
<path d="M13.2439 28.094C13.2361 27.5688 13.3563 27.3623 13.6606 27.3643C13.9649 27.3662 14.0831 27.5678 14.0822 28.0998C14.0852 28.2321 14.081 28.3644 14.0696 28.4962C14.0589 28.5985 14.0106 28.6932 13.9339 28.7618C13.8573 28.8304 13.7579 28.8679 13.655 28.8672C13.5522 28.8665 13.4533 28.8275 13.3777 28.7578C13.302 28.6882 13.255 28.5928 13.2458 28.4904C13.239 28.3596 13.2439 28.2268 13.2439 28.094Z" fill="white"/>
<path d="M15.3168 19.7827H9.62512C9.4594 19.7827 9.29561 19.8254 9.29852 19.5453C9.32662 16.1262 9.25103 12.7061 9.34407 9.28703C9.36248 8.59798 9.54468 7.93025 9.75789 7.27221C9.81216 7.10261 9.88678 7.04834 10.0612 7.04834C13.5501 7.05222 17.0422 7.05222 20.5375 7.04834C20.7401 7.04834 20.806 7.13459 20.8573 7.29741C21.119 8.11923 21.3002 8.95559 21.3022 9.81715C21.309 13.0434 21.3022 16.2706 21.3138 19.4968C21.3138 19.7459 21.2334 19.7876 21.0085 19.7876C19.1119 19.7798 17.2105 19.7827 15.3168 19.7827Z" fill="url(#paint0_linear_4933_4862)"/>
<path d="M10.2168 6.17122C10.6964 5.15546 11.3673 4.24169 12.1929 3.47994C13.0244 2.70463 13.8578 1.93385 14.6932 1.16759C15.1303 0.764432 15.4811 0.758617 15.9259 1.16759C16.8331 2.00104 17.7392 2.83547 18.6327 3.68733C19.3703 4.40124 19.971 5.24404 20.4053 6.17412L10.2168 6.17122Z" fill="url(#paint1_linear_4933_4862)"/>
<path d="M15.3068 20.6265H20.7737C21.3115 20.6265 21.3144 20.6265 21.3096 21.1827C21.3157 21.3512 21.3037 21.5198 21.2737 21.6857C21.2077 21.9772 21.0449 22.2378 20.8119 22.425C20.5789 22.6122 20.2895 22.7151 19.9906 22.7169C16.8765 22.7246 13.7623 22.7246 10.6482 22.7169C9.88838 22.7169 9.35051 22.1499 9.31659 21.3795C9.28267 20.6265 9.28267 20.6265 10.0202 20.6265H15.3068Z" fill="url(#paint2_linear_4933_4862)"/>
<path d="M8.45996 13.4299C8.45996 15.7558 8.45511 18.0275 8.46577 20.2982C8.46577 20.553 8.37855 20.5947 8.15565 20.5889C7.06828 20.5802 5.97995 20.5889 4.89259 20.5831C4.26943 20.5831 3.98839 20.2924 3.98935 19.6663C3.98935 18.9879 3.93605 18.3095 4.12503 17.6486C4.29707 16.9916 4.67137 16.4054 5.19495 15.9729C6.21933 15.1472 7.25823 14.339 8.29617 13.5239C8.34906 13.4897 8.40373 13.4583 8.45996 13.4299Z" fill="url(#paint3_linear_4933_4862)"/>
<path d="M22.1666 13.4048C22.5436 13.7004 22.8721 13.9572 23.1987 14.215C23.9198 14.7829 24.6524 15.3411 25.357 15.9226C25.7483 16.2292 26.065 16.6206 26.2832 17.0673C26.5015 17.5139 26.6155 18.0043 26.6169 18.5014C26.6256 18.9356 26.6285 19.3737 26.6169 19.8059C26.6033 20.274 26.3455 20.5696 25.8803 20.5812C24.7096 20.6025 23.5379 20.587 22.3663 20.5967C22.0871 20.5967 22.1724 20.4029 22.1724 20.272C22.1686 18.0754 22.1686 15.8787 22.1724 13.682L22.1666 13.4048Z" fill="url(#paint4_linear_4933_4862)"/>
<path d="M11.9248 23.5962H18.701C18.3443 24.1127 18.0827 24.6487 17.6882 25.0964C17.5322 25.2738 17.3006 25.329 17.0602 25.329C15.8895 25.329 14.7182 25.329 13.5462 25.329C13.268 25.329 13.0064 25.2418 12.8464 25.0121C12.5315 24.5614 12.2446 24.0904 11.9248 23.5962Z" fill="url(#paint5_linear_4933_4862)"/>
<path d="M14.8335 35.1481H3.88912C3.47336 35.1481 3.47336 35.1481 3.60904 34.7536C4.1566 33.1623 6.15786 32.5547 7.51367 33.5674C7.57182 33.611 7.62318 33.6643 7.6823 33.705C7.90133 33.8649 8.11744 33.8611 8.28995 33.6469C8.46245 33.4327 8.40721 33.2117 8.20854 33.0392C7.85938 32.7208 7.43847 32.4914 6.98162 32.3705C6.72868 32.3085 6.70251 32.1912 6.75872 31.9635C7.15606 30.347 8.75901 29.3779 10.3445 29.8081C10.725 29.9081 11.0812 30.0842 11.3916 30.3258C11.702 30.5675 11.9601 30.8696 12.1504 31.2138C12.3407 31.5581 12.4591 31.9375 12.4985 32.3288C12.5379 32.7202 12.4975 33.1155 12.3797 33.4908C12.3235 33.6789 12.2508 33.8591 12.3845 34.0423C12.4266 34.1018 12.4841 34.1486 12.551 34.1776C12.6178 34.2067 12.6913 34.2169 12.7635 34.207C12.8482 34.2009 12.929 34.1688 12.9947 34.115C13.0605 34.0612 13.108 33.9884 13.1308 33.9066C13.2959 33.4769 13.3683 33.0172 13.343 32.5576C13.3284 32.4827 13.3432 32.405 13.3843 32.3408C13.4255 32.2765 13.4898 32.2306 13.564 32.2126C13.9658 32.0446 14.3994 31.9663 14.8345 31.9831C15.2697 31.9998 15.696 32.1112 16.0837 32.3095C16.262 32.3948 16.3124 32.5101 16.3144 32.7039C16.3215 32.969 16.354 33.2329 16.4113 33.4918C16.4878 33.863 16.702 34.0423 16.9627 33.9589C17.2874 33.8543 17.3029 33.611 17.2418 33.3164C16.9918 32.1079 17.3252 31.0874 18.302 30.3208C20.0019 28.9902 22.4955 29.9341 22.9296 32.0371C22.9665 32.2155 22.9481 32.292 22.7591 32.3366C22.3367 32.4451 21.9426 32.6434 21.6039 32.9181C21.2908 33.1604 21.224 33.393 21.3965 33.6197C21.569 33.8465 21.8103 33.8329 22.1224 33.5974C23.5509 32.5207 25.5608 33.141 26.1045 34.8166C26.2014 35.1074 26.1307 35.1548 25.8477 35.1548C22.1773 35.1439 18.5059 35.1416 14.8335 35.1481Z" fill="url(#paint6_linear_4933_4862)"/>
<path d="M15.4942 16.0738C14.7899 16.0717 14.102 15.8608 13.5174 15.4679C12.9329 15.0749 12.4779 14.5175 12.2101 13.8661C11.9422 13.2146 11.8734 12.4984 12.0125 11.8079C12.1516 11.1174 12.4922 10.4837 12.9913 9.9867C13.4904 9.48973 14.1257 9.15187 14.8168 9.01582C15.5079 8.87977 16.2238 8.95163 16.874 9.22232C17.5243 9.49302 18.0797 9.95039 18.4701 10.5366C18.8605 11.1229 19.0684 11.8117 19.0674 12.5161C19.0681 12.9848 18.976 13.449 18.7965 13.8819C18.6169 14.3148 18.3535 14.708 18.0214 15.0387C17.6892 15.3694 17.2949 15.6311 16.8612 15.8087C16.4275 15.9864 15.9629 16.0765 15.4942 16.0738Z" fill="white"/>
<path d="M15.5221 9.81032C16.059 9.81244 16.5832 9.97378 17.0284 10.2739C17.4735 10.5741 17.8197 10.9995 18.023 11.4964C18.2262 11.9934 18.2775 12.5394 18.1704 13.0655C18.0632 13.5916 17.8024 14.0741 17.4209 14.4519C17.0394 14.8297 16.5545 15.0858 16.0274 15.1879C15.5003 15.29 14.9547 15.2334 14.4598 15.0254C13.9649 14.8173 13.5428 14.4671 13.2469 14.019C12.9511 13.571 12.7948 13.0453 12.7979 12.5084C12.802 11.7895 13.0912 11.1017 13.6019 10.5959C14.1127 10.09 14.8033 9.80749 15.5221 9.81032Z" fill="url(#paint7_linear_4933_4862)"/>
<defs>
<linearGradient id="paint0_linear_4933_4862" x1="8.11954" y1="13.418" x2="22.8717" y2="13.418" gradientUnits="userSpaceOnUse">
<stop stop-color="#691FB1"/>
<stop offset="1" stop-color="#6039BC"/>
</linearGradient>
<linearGradient id="paint1_linear_4933_4862" x1="9.21951" y1="3.51858" x2="21.726" y2="3.51858" gradientUnits="userSpaceOnUse">
<stop stop-color="#691FB1"/>
<stop offset="1" stop-color="#6039BC"/>
</linearGradient>
<linearGradient id="paint2_linear_4933_4862" x1="8.13053" y1="21.6746" x2="22.8674" y2="21.6746" gradientUnits="userSpaceOnUse">
<stop stop-color="#691FB1"/>
<stop offset="1" stop-color="#6039BC"/>
</linearGradient>
<linearGradient id="paint3_linear_4933_4862" x1="3.54358" y1="17.0097" x2="9.04695" y2="17.0097" gradientUnits="userSpaceOnUse">
<stop stop-color="#691FB1"/>
<stop offset="1" stop-color="#6039BC"/>
</linearGradient>
<linearGradient id="paint4_linear_4933_4862" x1="21.7232" y1="17.0007" x2="27.2032" y2="17.0007" gradientUnits="userSpaceOnUse">
<stop stop-color="#691FB1"/>
<stop offset="1" stop-color="#6039BC"/>
</linearGradient>
<linearGradient id="paint5_linear_4933_4862" x1="11.2615" y1="24.4626" x2="19.5794" y2="24.4626" gradientUnits="userSpaceOnUse">
<stop stop-color="#691FB1"/>
<stop offset="1" stop-color="#6039BC"/>
</linearGradient>
<linearGradient id="paint6_linear_4933_4862" x1="1.31447" y1="32.4302" x2="29.0774" y2="32.4302" gradientUnits="userSpaceOnUse">
<stop stop-color="#691FB1"/>
<stop offset="1" stop-color="#6039BC"/>
</linearGradient>
<linearGradient id="paint7_linear_4933_4862" x1="12.2666" y1="12.5239" x2="18.9285" y2="12.5239" gradientUnits="userSpaceOnUse">
<stop stop-color="#691FB1"/>
<stop offset="1" stop-color="#6039BC"/>
</linearGradient>
</defs>
</svg>
