<svg width="106" height="103" viewBox="0 0 106 103" fill="none" xmlns="http://www.w3.org/2000/svg">
<rect x="53.2744" y="1.38118" width="73" height="73" rx="36.5" transform="rotate(45 53.2744 1.38118)" stroke="#ACCE75"/>
<path d="M69.7707 38.5042C69.7707 37.3997 68.8752 36.5042 67.7707 36.5042L49.7707 36.5042C48.6661 36.5042 47.7707 37.3997 47.7707 38.5042C47.7707 39.6088 48.6661 40.5042 49.7707 40.5042L65.7707 40.5042L65.7707 56.5042C65.7707 57.6088 66.6661 58.5042 67.7707 58.5042C68.8752 58.5042 69.7707 57.6088 69.7707 56.5042L69.7707 38.5042ZM40.1935 68.9098L69.1849 39.9184L66.3565 37.09L37.3651 66.0814L40.1935 68.9098Z" fill="#97C253"/>
</svg>
