<svg width="100" height="100" viewBox="0 0 100 100" fill="none" xmlns="http://www.w3.org/2000/svg">
<rect width="100" height="100" rx="50" fill="white"/>
<rect x="13.5" y="13.5" width="73" height="73" rx="36.5" stroke="#E16795"/>
<path d="M66.4953 35.5042C66.4953 34.3997 65.5999 33.5042 64.4953 33.5042L46.4953 33.5042C45.3907 33.5042 44.4953 34.3997 44.4953 35.5042C44.4953 36.6088 45.3907 37.5042 46.4953 37.5042L62.4953 37.5042L62.4953 53.5042C62.4953 54.6088 63.3907 55.5042 64.4953 55.5042C65.5999 55.5042 66.4953 54.6088 66.4953 53.5042L66.4953 35.5042ZM36.9181 65.9098L65.9095 36.9184L63.0811 34.09L34.0897 63.0814L36.9181 65.9098Z" fill="#EC008C"/>
</svg>
