<svg width="103" height="100" viewBox="0 0 103 100" fill="none" xmlns="http://www.w3.org/2000/svg">
<rect x="0.198242" width="102.548" height="100" rx="50" fill="white"/>
<rect x="14.9717" y="13.5" width="73" height="73" rx="36.5" stroke="#886EA9"/>
<path d="M67.967 35.5042C67.967 34.3997 67.0715 33.5042 65.967 33.5042L47.967 33.5042C46.8624 33.5042 45.967 34.3997 45.967 35.5042C45.967 36.6088 46.8624 37.5042 47.967 37.5042L63.967 37.5042L63.967 53.5042C63.967 54.6088 64.8624 55.5042 65.967 55.5042C67.0715 55.5042 67.967 54.6088 67.967 53.5042L67.967 35.5042ZM38.3898 65.9098L67.3812 36.9184L64.5527 34.09L35.5614 63.0814L38.3898 65.9098Z" fill="#6A4A94"/>
</svg>
