<svg width="387" height="493" viewBox="0 0 387 493" fill="none" xmlns="http://www.w3.org/2000/svg">
<g opacity="0.06">
<path d="M311.539 492.504L94.4096 280.973L116.449 258.351C119.676 290.144 134.128 319.745 157.21 341.842C169.44 354.673 184.176 364.853 200.505 371.75C216.833 378.647 234.406 382.114 252.132 381.935C267.436 381.808 282.578 378.788 296.761 373.034L364.057 438.595L311.539 492.504Z" fill="#27AAE1"/>
<path d="M296.762 373.035L146.929 227.066L116.449 258.352C119.677 290.145 134.129 319.746 157.211 341.843C169.441 354.674 184.177 364.854 200.506 371.751C216.834 378.648 234.407 382.115 252.132 381.937C267.437 381.809 282.579 378.789 296.762 373.035Z" fill="url(#paint0_linear_1678_1666)"/>
<path d="M381.719 231.744C376.379 199.675 360.061 170.46 335.557 149.098C311.052 127.735 279.885 115.553 247.387 114.636C231.984 114.551 216.703 117.385 202.354 122.988L131.529 53.9886L184.125 -0.00010707L401.335 211.609L381.719 231.744Z" fill="#8DC63F"/>
<path d="M382.945 246.694C383.539 263.773 380.572 280.789 374.234 296.66C367.896 312.532 358.325 326.911 346.13 338.885C332.347 353.665 315.608 365.38 297.001 373.267L211.898 290.358C223.204 301.734 238.541 308.191 254.58 308.329C262.18 308.746 269.781 307.52 276.864 304.735C283.948 301.95 290.349 297.671 295.63 292.189C300.838 286.695 304.762 280.114 307.12 272.921C309.477 265.728 310.21 258.101 309.266 250.591C308.135 234.121 300.87 218.674 288.904 207.301L349.062 265.908L382.042 232.054C382.65 236.91 382.951 241.8 382.945 246.694Z" fill="#EC008C"/>
<path d="M341.193 154.269C329.022 141.618 314.414 131.563 298.25 124.711C282.087 117.86 264.703 114.352 247.146 114.401C231.743 114.317 216.463 117.151 202.114 122.754L348.738 265.597L381.719 231.744C377.542 202.02 363.227 174.651 341.193 154.269Z" fill="url(#paint1_linear_1678_1666)"/>
<path d="M288.505 207.071L202.279 123.068C184.408 130.26 168.331 141.284 155.182 155.364C125.901 185.42 112.704 218.063 115.59 253.293C115.773 255.192 115.876 257.012 116.217 258.908L146.697 227.622L211.427 290.683C198.847 279.06 191.093 263.135 189.702 246.064C188.817 238.488 189.634 230.81 192.092 223.589C194.55 216.368 198.587 209.785 203.91 204.321C209.233 198.857 215.708 194.649 222.862 192.004C230.017 189.358 237.671 188.341 245.268 189.027C261.44 189.377 276.883 195.821 288.505 207.071Z" fill="#EE2A7B"/>
<path opacity="0.11" d="M288.505 207.071L202.279 123.068C184.408 130.26 168.331 141.284 155.182 155.364C125.901 185.42 112.704 218.063 115.59 253.293C115.773 255.192 115.876 257.012 116.217 258.908L146.697 227.622L211.427 290.683C198.847 279.06 191.093 263.135 189.702 246.064C188.817 238.488 189.634 230.81 192.092 223.589C194.55 216.368 198.587 209.785 203.91 204.321C209.233 198.857 215.708 194.649 222.862 192.004C230.017 189.358 237.671 188.341 245.268 189.027C261.44 189.377 276.883 195.821 288.505 207.071Z" fill="#EC008C"/>
</g>
<defs>
<linearGradient id="paint0_linear_1678_1666" x1="169.483" y1="353.799" x2="221.845" y2="300.051" gradientUnits="userSpaceOnUse">
<stop stop-color="#70499B"/>
<stop offset="0.57" stop-color="#A62D82"/>
<stop offset="1" stop-color="#CB1A71"/>
</linearGradient>
<linearGradient id="paint1_linear_1678_1666" x1="275.586" y1="194.332" x2="327.558" y2="140.985" gradientUnits="userSpaceOnUse">
<stop stop-color="#70499B"/>
<stop offset="0.57" stop-color="#A62D82"/>
<stop offset="1" stop-color="#CB1A71"/>
</linearGradient>
</defs>
</svg>
