<svg width="381" height="494" viewBox="0 0 381 494" fill="none" xmlns="http://www.w3.org/2000/svg">
<g opacity="0.06">
<path d="M196.7 0.823975L-20.429 212.355L1.61 234.977C4.83756 203.184 19.2893 173.583 42.3718 151.486C54.6011 138.655 69.3373 128.475 85.6661 121.578C101.995 114.681 119.567 111.214 137.293 111.392C152.597 111.52 167.74 114.54 181.922 120.293L249.219 54.7324L196.7 0.823975Z" fill="#27AAE1"/>
<path d="M181.924 120.292L32.0909 266.262L1.6116 234.976C4.83915 203.183 19.2909 173.582 42.3734 151.485C54.6026 138.654 69.3389 128.474 85.6677 121.577C101.996 114.68 119.569 111.213 137.295 111.391C152.599 111.519 167.741 114.538 181.924 120.292Z" fill="url(#paint0_linear_1248_1179)"/>
<path d="M266.881 261.584C261.541 293.652 245.223 322.868 220.719 344.23C196.214 365.593 165.047 377.775 132.549 378.692C117.146 378.777 101.866 375.942 87.5165 370.34L16.6907 439.339L69.2872 493.328L286.497 281.719L266.881 261.584Z" fill="#8DC63F"/>
<path d="M268.107 246.634C268.7 229.555 265.734 212.539 259.396 196.667C253.058 180.796 243.487 166.416 231.292 154.443C217.509 139.663 200.769 127.948 182.163 120.061L97.0593 202.97C108.365 191.594 123.702 185.136 139.741 184.998C147.341 184.582 154.942 185.807 162.026 188.593C169.11 191.378 175.511 195.657 180.792 201.139C185.999 206.633 189.923 213.214 192.281 220.407C194.639 227.6 195.372 235.226 194.427 242.737C193.297 259.207 186.032 274.654 174.066 286.027L234.224 227.42L267.204 261.273C267.811 256.417 268.113 251.528 268.107 246.634Z" fill="#EC008C"/>
<path d="M226.356 339.059C214.184 351.71 199.576 361.764 183.413 368.616C167.249 375.468 149.865 378.975 132.308 378.926C116.905 379.011 101.625 376.177 87.2759 370.574L233.9 227.73L266.881 261.584C262.704 291.308 248.389 318.676 226.356 339.059Z" fill="url(#paint1_linear_1248_1179)"/>
<path d="M173.667 286.257L87.4413 370.26C69.5697 363.068 53.4928 352.043 40.3442 337.963C11.0631 307.907 -2.1343 275.264 0.752197 240.034C0.935257 238.136 1.03817 236.316 1.37959 234.419L31.859 265.706L96.5888 202.645C84.0094 214.268 76.2556 230.192 74.8638 247.263C73.9794 254.84 74.7959 262.518 77.2538 269.739C79.7118 276.96 83.7492 283.542 89.0722 289.006C94.3953 294.47 100.87 298.678 108.025 301.324C115.179 303.97 122.833 304.987 130.43 304.3C146.602 303.951 162.045 297.506 173.667 286.257Z" fill="#EE2A7B"/>
<path opacity="0.11" d="M173.667 286.257L87.4413 370.26C69.5697 363.068 53.4928 352.043 40.3442 337.963C11.0631 307.907 -2.1343 275.264 0.752197 240.034C0.935257 238.136 1.03817 236.316 1.37959 234.419L31.859 265.706L96.5888 202.645C84.0094 214.268 76.2556 230.192 74.8638 247.263C73.9794 254.84 74.7959 262.518 77.2538 269.739C79.7118 276.96 83.7492 283.542 89.0722 289.006C94.3953 294.47 100.87 298.678 108.025 301.324C115.179 303.97 122.833 304.987 130.43 304.3C146.602 303.951 162.045 297.506 173.667 286.257Z" fill="#EC008C"/>
</g>
<defs>
<linearGradient id="paint0_linear_1248_1179" x1="54.6455" y1="139.529" x2="107.007" y2="193.277" gradientUnits="userSpaceOnUse">
<stop stop-color="#70499B"/>
<stop offset="0.57" stop-color="#A62D82"/>
<stop offset="1" stop-color="#CB1A71"/>
</linearGradient>
<linearGradient id="paint1_linear_1248_1179" x1="160.749" y1="298.996" x2="212.72" y2="352.343" gradientUnits="userSpaceOnUse">
<stop stop-color="#70499B"/>
<stop offset="0.57" stop-color="#A62D82"/>
<stop offset="1" stop-color="#CB1A71"/>
</linearGradient>
</defs>
</svg>
