<svg width="671" height="369" viewBox="0 0 671 369" fill="none" xmlns="http://www.w3.org/2000/svg">
<g clip-path="url(#clip0_2538_2335)">
<path d="M524.096 20.1485C520.543 18.7646 516.869 17.4466 513.216 16.2275L514.713 13.1797C518.427 14.4153 522.16 15.7662 525.793 17.1666L524.096 20.132V20.1485Z" fill="#808080"/>
<path d="M647.437 155.538C640.329 118.074 619.487 83.988 587.184 56.953C573.628 45.602 558.296 35.7666 541.605 27.727L543.602 24.8933C560.592 33.0812 576.204 43.0814 590.019 54.6466C622.9 82.1758 644.123 116.888 651.37 155.027L647.437 155.538Z" fill="#808080"/>
<path d="M258.59 292.706C230.939 261.947 216.166 225.489 215.826 187.251H219.799C220.119 224.764 234.633 260.564 261.764 290.745L258.57 292.706H258.59Z" fill="#808080"/>
<path d="M257.811 85.9484L254.557 84.0703C256.853 81.352 259.269 78.6501 261.744 76.0471L264.879 78.0735C262.443 80.6271 260.087 83.2795 257.831 85.9484H257.811Z" fill="#808080"/>
<path d="M295.005 52.2576L292.45 49.7535C315.269 33.8719 341.343 22.2737 369.932 15.272L371.069 18.4186C343 25.2886 317.405 36.6726 295.005 52.2576Z" fill="#808080"/>
<path d="M453.263 12.2573C446.375 11.6477 439.368 11.3182 432.44 11.2688C430.164 11.2688 427.888 11.2688 425.632 11.3182L425.532 8.03973C427.848 7.99031 430.164 7.97383 432.48 7.99031C439.547 8.03973 446.694 8.36923 453.702 8.99526L453.283 12.2573H453.263Z" fill="#808080"/>
<path d="M521.421 28.2212C517.868 26.8209 514.214 25.47 510.581 24.2508L512.098 21.2195C515.791 22.4716 519.525 23.839 523.138 25.2723L521.421 28.2377V28.2212Z" fill="#808080"/>
<path d="M639.032 166.131C634.28 127.316 613.377 90.6109 580.137 62.7687C564.045 49.2924 545.479 38.139 524.975 29.6381L526.752 26.7056C547.655 35.3548 566.561 46.7223 582.972 60.4622C616.831 88.8316 638.153 126.246 642.985 165.801L639.032 166.131Z" fill="#808080"/>
<path d="M263.002 283.661C241.341 258.01 228.624 227.977 226.208 196.807L230.181 196.593C232.537 227.153 245.014 256.61 266.257 281.783L263.002 283.661Z" fill="#808080"/>
<path d="M629.668 172.572C626.534 133.494 606.43 96.5581 573.069 68.6006C553.185 51.9282 529.667 39.1603 503.194 30.6759L504.631 27.6116C531.623 36.2608 555.6 49.2758 575.904 66.2941C609.923 94.8283 630.427 132.489 633.641 172.358L629.668 172.572Z" fill="#808080"/>
<path d="M633.182 198.948L629.229 198.635C629.588 195.406 629.848 192.111 629.988 188.866L633.961 188.981C633.821 192.292 633.561 195.637 633.182 198.932V198.948Z" fill="#808080"/>
<path d="M270.489 278.109C250.565 254.188 238.746 226.28 236.27 197.383L240.243 197.153C242.659 225.473 254.258 252.821 273.763 276.248L270.489 278.109Z" fill="#808080"/>
<path d="M348.61 43.1473L346.893 40.1818C351.724 38.2708 356.715 36.508 361.726 34.9429L363.144 38.0072C358.232 39.5393 353.361 41.2692 348.61 43.1473Z" fill="#808080"/>
<path d="M366.857 36.8867L365.52 33.7895C366.777 33.4106 368.055 33.0481 369.333 32.7021L370.591 35.8159C369.333 36.1618 368.095 36.5078 366.857 36.8867Z" fill="#808080"/>
<path d="M623.859 191.271L619.886 191.106C620.026 188.948 620.085 186.774 620.105 184.665C620.525 143.198 601.319 104.054 566.002 74.4328C532.701 46.4917 488.181 29.984 440.646 27.9577L440.845 24.6792C489.379 26.7385 534.818 43.5921 568.837 72.1263C604.893 102.374 624.498 142.358 624.078 184.681C624.058 186.84 623.979 189.064 623.839 191.271H623.859Z" fill="#808080"/>
<path d="M278.635 273.365C265.218 257.219 255.735 239.377 250.445 220.3L254.318 219.575C259.489 238.241 268.772 255.704 281.909 271.503L278.635 273.365Z" fill="#808080"/>
<path d="M250.465 220.299C249.726 217.614 249.047 214.863 248.488 212.128L252.401 211.568C252.96 214.237 253.619 216.922 254.338 219.558L250.465 220.283V220.299Z" fill="#808080"/>
<path d="M609.923 176.081C607.767 140.051 589.659 106.014 558.954 80.2316C525.374 52.0269 480.434 36.3101 432.42 35.9641H430.643V32.6692H432.46C481.532 33.0316 527.47 49.0944 561.789 77.9251C593.173 104.285 611.68 139.079 613.896 175.9L609.923 176.065V176.081Z" fill="#808080"/>
<path d="M283.006 263.842C271.447 248.702 263.441 232.128 259.189 214.599L263.082 213.957C267.235 231.09 275.061 247.285 286.361 262.096L282.987 263.842H283.006Z" fill="#808080"/>
<path d="M447.094 44.8441C442.243 44.4652 437.311 44.251 432.42 44.2016C428.128 44.1687 423.775 44.2675 419.483 44.5146L419.224 41.2362C423.616 40.989 428.068 40.8902 432.46 40.9231C437.451 40.9561 442.502 41.1867 447.473 41.5657L447.094 44.8276V44.8441Z" fill="#808080"/>
<path d="M597.086 157.037C590.778 130.167 575.145 105.636 551.887 86.0803C525.015 63.477 489.179 48.9628 451.007 45.2066L451.486 41.9446C490.556 45.7997 527.231 60.6433 554.742 83.7738C578.559 103.791 594.551 128.914 600.999 156.411L597.086 157.037Z" fill="#808080"/>
<path d="M284.344 249.196C278.794 240.3 274.402 230.909 271.308 221.239L275.161 220.398C278.195 229.822 282.468 238.998 287.898 247.681L284.364 249.18L284.344 249.196Z" fill="#808080"/>
<path d="M384.206 58.1722L383.048 55.0255C386.882 54.07 390.834 53.1968 394.767 52.4719L395.646 55.668C391.813 56.3764 387.96 57.2166 384.206 58.1557V58.1722Z" fill="#808080"/>
<path d="M450.528 53.4438C444.539 52.8342 438.45 52.5048 432.42 52.4553C426.651 52.4059 420.821 52.6201 415.091 53.0814L414.692 49.8194C420.561 49.3416 426.531 49.1274 432.44 49.1769C438.629 49.2263 444.858 49.5723 450.987 50.1983L450.508 53.4603L450.528 53.4438Z" fill="#808080"/>
<path d="M582.752 143.873C575.265 124.45 562.149 106.476 544.84 91.8957C520.703 71.5824 488.6 58.0896 454.421 53.8886L455 50.6431C490.017 54.943 522.919 68.7817 547.655 89.6057C565.403 104.548 578.839 122.967 586.525 142.885L582.732 143.873H582.752Z" fill="#808080"/>
<path d="M290.593 241.008C287.738 235.983 285.262 230.761 283.206 225.489L286.999 224.484C288.996 229.624 291.411 234.715 294.206 239.608L290.613 241.008H290.593Z" fill="#808080"/>
<path d="M375.382 69.4243L373.924 66.3765C381.431 63.9217 389.217 61.9448 397.083 60.4785L397.961 63.6746C390.295 65.0914 382.709 67.019 375.382 69.4078V69.4243Z" fill="#808080"/>
<path d="M444.958 61.2364C440.805 60.9069 436.592 60.7257 432.42 60.6928C428.726 60.6598 425.013 60.7422 421.34 60.9399L421.08 57.6614C424.853 57.4637 428.667 57.3813 432.44 57.4143C436.712 57.4472 441.044 57.6449 445.317 57.9744L444.938 61.2364H444.958Z" fill="#808080"/>
<path d="M527.291 89.6881C506.069 74.9433 480.295 65.3715 452.784 62.0107L453.363 58.7651C481.612 62.2083 508.045 72.0273 529.846 87.1675L527.291 89.6716V89.6881Z" fill="#808080"/>
<path d="M531.723 92.9007C531.244 92.5383 530.745 92.1758 530.266 91.8134L532.901 89.3586C533.4 89.7211 533.899 90.1 534.398 90.4789L531.723 92.9007Z" fill="#808080"/>
<path d="M572.93 145.587C565.882 127.712 553.724 111.171 537.772 97.7277C535.816 96.0803 533.779 94.4658 531.723 92.9171L534.398 90.4954C536.515 92.0934 538.611 93.7573 540.607 95.4378C556.978 109.244 569.456 126.229 576.703 144.582L572.93 145.603V145.587Z" fill="#808080"/>
<path d="M521.96 284.238L519.625 281.585C524.915 278.422 529.986 274.929 534.738 271.19L537.473 273.562C532.601 277.401 527.371 280.992 521.94 284.254L521.96 284.238Z" fill="#808080"/>
<path d="M447.074 307.352L446.734 304.09C458.493 303.233 470.133 301.19 481.333 298.027L482.63 301.124C471.131 304.386 459.172 306.479 447.094 307.352H447.074Z" fill="#808080"/>
<path d="M387.78 74.4984L386.562 71.3682C392.971 69.6713 399.579 68.3204 406.207 67.3813L406.886 70.6104C400.437 71.533 394.029 72.8345 387.78 74.4984Z" fill="#808080"/>
<path d="M535.077 107.398C533.659 106.08 532.182 104.779 530.725 103.543C504.691 81.5661 469.773 69.276 432.42 68.9301C425.213 68.8642 417.906 69.2596 410.759 70.1162L410.18 66.8707C417.527 65.9976 425.013 65.5857 432.46 65.6516C470.871 66.014 506.787 78.6501 533.56 101.253C535.077 102.522 536.574 103.856 538.052 105.224L535.077 107.415V107.398Z" fill="#808080"/>
<path d="M562.728 146.378C557.597 134.038 549.99 122.588 540.148 112.357L543.262 110.314C553.384 120.842 561.21 132.605 566.501 145.307L562.748 146.378H562.728Z" fill="#808080"/>
<path d="M566.082 155.719C565.443 153.626 564.724 151.518 563.945 149.458L567.739 148.486C568.537 150.595 569.276 152.753 569.935 154.911L566.082 155.702V155.719Z" fill="#808080"/>
<path d="M520.703 274.699L518.247 272.129C521.98 269.691 525.594 267.071 529.008 264.32C534.019 260.284 538.691 255.885 542.903 251.239L546.097 253.2C541.765 257.961 536.954 262.491 531.803 266.659C528.309 269.476 524.576 272.178 520.723 274.699H520.703Z" fill="#808080"/>
<path d="M442.462 299.361L442.223 296.083C459.352 295.226 475.923 291.75 491.515 285.737L493.192 288.702C477.16 294.897 460.091 298.472 442.462 299.361Z" fill="#808080"/>
<path d="M490.936 89.2928C472.968 81.5497 452.724 77.3652 432.42 77.1675C417.267 77.0027 402.294 79.0291 387.939 83.1478L386.622 80.0506C401.415 75.8001 416.788 73.7078 432.46 73.889C453.382 74.1032 474.245 78.4196 492.772 86.3933L490.936 89.3093V89.2928Z" fill="#808080"/>
<path d="M550.669 143.297C544.38 130.611 535.297 119.194 523.657 109.375C515.013 102.077 505.17 95.8496 494.39 90.8578L496.326 87.9912C507.446 93.1313 517.588 99.5564 526.492 107.085C538.471 117.217 547.834 128.98 554.323 142.061L550.649 143.297H550.669Z" fill="#808080"/>
<path d="M558.295 165.076C556.938 158.701 554.842 152.391 552.106 146.328L555.84 145.175C558.675 151.435 560.831 157.943 562.228 164.516L558.315 165.093L558.295 165.076Z" fill="#808080"/>
<path d="M526.053 259.74L523.238 257.417C524.157 256.643 525.075 255.868 525.973 255.078L528.888 257.318C527.97 258.125 527.031 258.933 526.073 259.723L526.053 259.74Z" fill="#808080"/>
<path d="M439.008 291.256L438.849 287.977C459.811 287.302 480.454 282.244 498.502 273.348L500.539 276.165C481.912 285.341 460.63 290.564 438.988 291.256H439.008Z" fill="#808080"/>
<path d="M376.3 96.1627L374.503 93.2302C375.701 92.7194 376.919 92.2417 378.157 91.7639L379.834 94.7458C378.656 95.2071 377.478 95.6684 376.3 96.1627Z" fill="#808080"/>
<path d="M475.284 92.423C461.588 87.9254 447.174 85.553 432.42 85.4048C419.543 85.2565 406.766 86.8216 394.468 90.0342L393.27 86.904C405.967 83.5761 419.144 81.978 432.48 82.1098C447.733 82.2746 462.626 84.7128 476.781 89.3752L475.304 92.423H475.284Z" fill="#808080"/>
<path d="M533.859 133.84C529.048 127.086 523.238 120.809 516.59 115.191C508.584 108.42 499.461 102.637 489.458 98.008L491.395 95.1414C501.737 99.919 511.18 105.899 519.445 112.901C526.293 118.717 532.302 125.191 537.293 132.176L533.859 133.84Z" fill="#808080"/>
<path d="M549.192 170.332C547.435 159.59 543.542 149.228 537.632 139.524L541.186 138.042C547.295 148.075 551.328 158.783 553.145 169.887L549.212 170.332H549.192Z" fill="#808080"/>
<path d="M436.732 283.084L436.652 279.806C465.8 279.262 493.451 269.724 514.513 252.969L517.269 255.325C495.487 272.656 466.898 282.524 436.752 283.084H436.732Z" fill="#808080"/>
<path d="M539.748 174.665C537.353 154.582 526.632 135.521 509.542 121.006C489.159 103.692 461.768 93.9715 432.42 93.6255C410.798 93.3455 389.716 98.3208 371.429 107.909L369.292 105.141C388.239 95.1906 410.12 90.067 432.48 90.3471C462.886 90.7095 491.275 100.776 512.397 118.716C530.126 133.774 541.246 153.527 543.721 174.335L539.768 174.665H539.748Z" fill="#808080"/>
<path d="M542.863 197.762L538.93 197.252C539.729 193.1 540.168 188.866 540.248 184.648C540.268 183.479 540.248 182.309 540.228 181.139L544.201 181.057C544.241 182.276 544.241 183.479 544.221 184.698C544.141 189.064 543.682 193.462 542.863 197.762Z" fill="#808080"/>
<path d="M435.654 274.864L435.594 271.585C462.666 271.256 488.32 262.458 507.805 246.84C510.201 244.929 512.517 242.886 514.673 240.794L517.708 242.919C515.452 245.094 513.056 247.219 510.58 249.196C490.357 265.407 463.744 274.518 435.654 274.864Z" fill="#808080"/>
<path d="M375.801 115.389L373.625 112.637C381.591 108.354 390.235 104.977 399.299 102.604L400.497 105.734C391.773 108.008 383.467 111.253 375.801 115.389Z" fill="#808080"/>
<path d="M419.603 102.39L419.164 99.1283C421.839 98.8812 424.574 98.7164 427.289 98.634L427.429 101.912C424.833 101.978 422.198 102.143 419.623 102.39H419.603Z" fill="#808080"/>
<path d="M446.934 102.934C442.162 102.291 437.271 101.929 432.42 101.879H431.342L431.362 98.5845H432.48C437.531 98.6504 442.602 99.0293 447.573 99.6883L446.934 102.934Z" fill="#808080"/>
<path d="M486.663 115.899C475.763 109.837 463.684 105.669 450.787 103.51L451.586 100.298C465.002 102.538 477.559 106.888 488.899 113.181L486.683 115.899H486.663Z" fill="#808080"/>
<path d="M530.066 178.058C528.549 158.882 518.746 140.694 502.475 126.838C499.501 124.318 496.306 121.913 492.972 119.721L495.448 117.151C498.922 119.425 502.256 121.913 505.33 124.548C522.26 138.964 532.442 157.893 534.039 177.844L530.066 178.058Z" fill="#808080"/>
<path d="M528.609 210.925L524.855 209.838C528.289 201.716 530.106 193.248 530.266 184.632C530.286 183.511 530.266 182.391 530.266 181.271L534.239 181.188C534.279 182.358 534.279 183.511 534.239 184.681C534.059 193.643 532.162 202.457 528.609 210.909V210.925Z" fill="#808080"/>
<path d="M434.077 266.626C433.518 266.626 432.959 266.626 432.42 266.626C430.823 266.61 429.226 266.544 427.628 266.461L427.888 263.183C429.425 263.265 430.943 263.315 432.48 263.331C458.054 263.71 482.311 255.753 500.758 240.992C505.01 237.581 508.923 233.842 512.357 229.855L515.592 231.749C512.018 235.901 507.965 239.805 503.533 243.348C484.707 258.389 460.111 266.61 434.077 266.61V266.626Z" fill="#808080"/>
<path d="M348.989 152.424L345.415 150.974C346.613 148.964 347.911 146.971 349.308 145.06L352.722 146.74C351.384 148.569 350.127 150.48 348.989 152.407V152.424Z" fill="#808080"/>
<path d="M354.798 144.022L351.484 142.209C352.223 141.27 353.002 140.348 353.8 139.442L357.034 141.369C356.276 142.242 355.537 143.132 354.818 144.022H354.798Z" fill="#808080"/>
<path d="M370.051 129.392L367.396 126.954C373.465 122.44 380.213 118.601 387.48 115.521L389.297 118.437C382.349 121.385 375.881 125.076 370.051 129.392Z" fill="#808080"/>
<path d="M442.342 110.71C441.045 110.578 439.767 110.463 438.449 110.364L438.789 107.085C440.146 107.184 441.504 107.3 442.841 107.448L442.342 110.71Z" fill="#808080"/>
<path d="M461.308 114.466C458.853 113.741 456.357 113.099 453.842 112.555L454.86 109.375C457.475 109.952 460.091 110.611 462.646 111.369L461.308 114.466Z" fill="#808080"/>
<path d="M434.077 258.405C433.518 258.405 432.959 258.405 432.4 258.405C431.222 258.389 430.064 258.356 428.906 258.29L429.126 255.012C430.244 255.061 431.342 255.094 432.46 255.11C455.359 255.44 477.12 248.372 493.691 235.192C510.421 221.864 519.864 203.924 520.283 184.648C520.703 165.192 511.858 146.723 495.408 132.671C493.172 130.759 490.776 128.914 488.28 127.217L490.816 124.697C493.411 126.476 495.907 128.387 498.263 130.397C515.452 145.092 524.695 164.384 524.256 184.714C523.817 204.863 513.955 223.627 496.446 237.565C479.516 251.041 457.415 258.422 434.057 258.422L434.077 258.405Z" fill="#808080"/>
<path d="M349.747 181.551L345.774 181.337C347.172 163.561 356.475 147.004 371.948 134.697C387.32 122.473 407.484 115.504 428.726 115.076L428.826 118.354C408.582 118.766 389.357 125.422 374.703 137.069C359.929 148.799 351.065 164.599 349.747 181.551Z" fill="#808080"/>
<path d="M497.983 148.585C495.188 144.977 491.954 141.583 488.34 138.486C483.848 134.631 478.777 131.237 473.287 128.387L475.403 125.603C481.173 128.585 486.504 132.16 491.215 136.213C495.008 139.458 498.402 143.033 501.337 146.822L497.983 148.585Z" fill="#808080"/>
<path d="M503.533 157.053C502.495 155.109 501.297 153.182 500.019 151.32L503.473 149.689C504.83 151.649 506.068 153.676 507.166 155.702L503.533 157.037V157.053Z" fill="#808080"/>
<path d="M435.514 250.152L435.435 246.873C454.58 246.577 472.768 240.349 486.643 229.361C501.497 217.598 509.882 201.716 510.301 184.648C510.481 177.301 509.143 170.052 506.328 163.066L510.101 162.029C513.056 169.36 514.454 177.004 514.274 184.714C513.835 202.655 505.01 219.36 489.398 231.733C474.784 243.315 455.658 249.855 435.514 250.168V250.152Z" fill="#808080"/>
<path d="M356.156 193.775C355.697 190.76 355.517 187.68 355.597 184.632C356.036 167.778 364.341 152.127 379.015 140.529C393.529 129.063 412.535 122.951 432.5 123.313C435.654 123.363 438.849 123.593 441.983 123.989L441.384 127.234C438.409 126.855 435.395 126.641 432.4 126.592C413.494 126.262 395.506 132.045 381.77 142.901C367.875 153.89 359.989 168.734 359.57 184.714C359.49 187.597 359.67 190.513 360.109 193.38L356.156 193.775Z" fill="#808080"/>
<path d="M435.155 241.914L435.095 238.636C451.706 238.422 467.517 233.051 479.596 223.529C492.553 213.314 499.92 199.508 500.319 184.632C500.738 169.574 493.97 155.257 481.293 144.302C473.427 137.514 463.544 132.374 452.684 129.442L453.922 126.328C465.381 129.425 475.843 134.862 484.148 142.028C497.564 153.61 504.711 168.767 504.272 184.698C503.833 200.447 496.046 215.077 482.311 225.884C469.494 235.983 452.744 241.667 435.115 241.898L435.155 241.914Z" fill="#808080"/>
<path d="M434.077 233.694C433.518 233.694 432.959 233.694 432.4 233.677H431.881L432.021 230.382H432.5C447.433 230.761 461.648 226.23 472.548 217.697C483.629 209.047 489.937 197.301 490.357 184.632C490.776 171.782 485.046 159.524 474.245 150.134C463.285 140.612 448.431 135.175 432.4 134.829C416.149 134.499 400.676 139.425 388.818 148.734C376.799 158.174 369.951 170.941 369.552 184.714C369.372 190.793 370.47 196.823 372.826 202.606L369.053 203.644C366.537 197.499 365.379 191.09 365.559 184.632C365.998 169.986 373.265 156.394 386.063 146.345C398.68 136.443 415.171 131.155 432.48 131.55C449.569 131.913 465.401 137.712 477.1 147.877C488.64 157.91 494.749 170.991 494.309 184.731C493.87 198.273 487.102 210.843 475.263 220.102C464.004 228.916 449.41 233.71 434.057 233.71L434.077 233.694Z" fill="#808080"/>
<path d="M434.077 225.456C433.518 225.456 432.939 225.456 432.38 225.44C430.144 225.374 427.888 225.193 425.692 224.88L426.371 221.651C428.407 221.931 430.483 222.112 432.52 222.178C444.778 222.524 456.477 218.866 465.501 211.881C474.685 204.78 479.975 195.093 480.374 184.632C480.794 173.973 476.102 163.791 467.178 155.95C458.094 147.976 445.736 143.412 432.4 143.066C418.804 142.72 405.847 146.806 395.885 154.566C385.763 162.441 379.953 173.149 379.554 184.731C379.375 190.019 380.333 195.242 382.429 200.266L378.676 201.337C376.42 195.95 375.382 190.332 375.581 184.632C376.021 172.194 382.269 160.661 393.17 152.177C403.911 143.824 417.906 139.425 432.54 139.788C446.954 140.15 460.29 145.093 470.093 153.692C479.736 162.16 484.806 173.182 484.367 184.714C483.928 196.065 478.198 206.56 468.236 214.253C458.853 221.502 446.794 225.456 434.097 225.456H434.077Z" fill="#808080"/>
<path d="M433.997 217.219C433.458 217.219 432.899 217.219 432.36 217.186C428.407 217.054 424.514 216.428 420.801 215.324L422.138 212.227C425.472 213.215 428.986 213.775 432.54 213.907C441.943 214.253 451.426 211.37 458.453 206.016C465.641 200.546 469.993 192.737 470.392 184.582C470.791 176.246 467.038 167.926 460.111 161.732C453.023 155.406 442.921 151.6 432.38 151.27C421.619 150.941 410.878 154.252 402.933 160.364C394.687 166.691 389.936 175.34 389.536 184.698C389.297 190.513 390.794 196.378 393.909 201.634L390.335 203.083C386.941 197.334 385.284 190.941 385.544 184.582C385.983 174.335 391.193 164.879 400.217 157.959C408.942 151.27 420.701 147.63 432.52 147.992C444.099 148.354 455.219 152.539 463.025 159.491C470.672 166.312 474.804 175.505 474.365 184.698C473.926 193.709 469.114 202.358 461.149 208.405C453.762 214.023 443.939 217.186 433.997 217.186V217.219Z" fill="#808080"/>
<path d="M433.997 208.998C433.438 208.998 432.879 208.998 432.32 208.965C424.674 208.603 417.427 205.72 412.416 201.057C407.565 196.527 405.029 190.53 405.488 184.582C405.927 178.816 409.162 173.363 414.352 169.623C419.383 165.999 426.012 164.137 432.56 164.516C438.889 164.879 444.858 167.333 448.931 171.238C452.864 175.011 454.84 179.953 454.361 184.813C453.902 189.492 451.207 193.891 446.934 196.856C442.842 199.706 437.471 201.123 432.241 200.728C427.229 200.349 422.538 198.322 419.423 195.176C416.429 192.177 414.991 188.273 415.47 184.5C415.93 180.892 418.126 177.581 421.48 175.373C424.654 173.281 428.747 172.325 432.68 172.737C436.393 173.133 439.767 174.731 441.963 177.119C444.02 179.376 444.898 182.227 444.379 184.912C443.9 187.433 442.203 189.69 439.747 191.09C437.451 192.391 434.636 192.886 432.021 192.424C429.605 191.996 427.509 190.793 426.311 189.113C425.193 187.564 424.914 185.752 425.552 184.138C426.131 182.655 427.409 181.485 429.046 180.925C430.564 180.414 432.221 180.513 433.498 181.189C434.756 181.848 435.455 182.984 435.295 184.105C435.115 185.34 433.878 186.279 432.44 186.279V183.001C431.821 183.001 431.402 183.363 431.342 183.726C431.322 183.874 431.362 183.973 431.402 183.989C431.222 183.891 430.903 183.858 430.544 183.989C430.005 184.171 429.565 184.599 429.346 185.143C429.066 185.868 429.206 186.708 429.745 187.449C430.384 188.339 431.522 188.981 432.859 189.212C434.417 189.492 436.094 189.179 437.491 188.388C439.068 187.499 440.146 186.032 440.466 184.385C440.825 182.556 440.206 180.629 438.809 179.08C437.272 177.383 434.856 176.263 432.201 175.983C429.326 175.686 426.331 176.395 423.975 177.927C421.46 179.574 419.803 182.095 419.443 184.83C419.064 187.746 420.182 190.744 422.498 193.083C424.954 195.555 428.647 197.153 432.62 197.449C436.812 197.779 441.105 196.625 444.399 194.335C447.873 191.93 450.069 188.355 450.428 184.533C450.807 180.53 449.17 176.46 445.936 173.363C442.542 170.118 437.591 168.075 432.3 167.778C426.79 167.449 421.22 169.03 416.988 172.078C412.596 175.258 409.84 179.887 409.481 184.78C409.082 189.854 411.258 194.994 415.411 198.883C419.723 202.902 425.972 205.374 432.56 205.687C439.368 206 446.236 204.006 451.406 200.2C456.737 196.263 460.011 190.579 460.39 184.582C460.79 178.421 458.094 172.21 453.003 167.564C447.773 162.786 440.226 159.854 432.32 159.541C424.175 159.195 416.029 161.65 409.94 166.23C403.671 170.925 399.858 177.68 399.479 184.747C399.219 189.327 400.397 193.957 402.873 198.108L399.299 199.558C396.544 194.912 395.227 189.739 395.506 184.599C395.945 176.675 400.238 169.08 407.265 163.808C414.133 158.651 423.316 155.9 432.52 156.262C441.464 156.625 450.009 159.936 455.958 165.373C461.748 170.661 464.802 177.729 464.363 184.764C463.924 191.617 460.171 198.125 454.042 202.639C448.512 206.724 441.284 208.998 433.977 208.998H433.997Z" fill="#808080"/>
<path d="M253.399 300.679C222.375 267.615 205.505 226.412 205.864 184.648V183.1L209.857 183.149V184.665C209.478 225.687 226.068 266.181 256.554 298.67L253.399 300.679Z" fill="#808080"/>
<path d="M242.539 90.199L239.145 88.4856C239.844 87.5466 240.562 86.6075 241.281 85.6685L244.635 87.4312C243.936 88.3538 243.218 89.2764 242.539 90.199Z" fill="#808080"/>
<path d="M246.791 84.6798L243.477 82.8675C244.954 81.0224 246.492 79.1772 248.049 77.3979L251.283 79.309C249.766 81.0718 248.249 82.884 246.791 84.6798Z" fill="#808080"/>
<path d="M253.599 76.6733L250.405 74.7128C253.599 71.1707 256.973 67.6781 260.467 64.3337L263.481 66.4754C260.048 69.7704 256.733 73.1971 253.599 76.6733Z" fill="#808080"/>
<path d="M285.781 47.9413L283.166 45.4701C309.459 26.5406 341.222 12.7348 375.002 5.56836L376 8.74797C342.82 15.7827 311.615 29.3413 285.781 47.9413Z" fill="#808080"/>
<path d="M515.612 8.15509C511.958 6.95244 508.205 5.81568 504.472 4.77778L505.749 1.66406C509.543 2.71844 513.376 3.88814 517.089 5.10727L515.632 8.15509H515.612Z" fill="#808080"/>
<path d="M537.193 16.3099C534.857 15.305 532.482 14.3165 530.106 13.3939L531.823 10.4285C534.239 11.384 536.654 12.389 539.03 13.4104L537.193 16.3264V16.3099Z" fill="#808080"/>
<path d="M657.918 157.679C651.23 117.728 628.63 79.8857 594.251 51.1209C579.398 38.699 562.548 28.0399 544.141 19.4236L546.097 16.5735C564.824 25.338 581.973 36.1784 597.066 48.8144C632.044 78.0735 655.043 116.575 661.831 157.234L657.898 157.679H657.918Z" fill="#808080"/>
<path d="M248.568 308.917C214.209 273.826 195.503 229.69 195.862 184.648C195.862 183.989 195.862 183.347 195.882 182.688L199.855 182.754C199.855 183.396 199.835 184.039 199.835 184.681C199.476 228.965 217.863 272.359 251.643 306.857L248.548 308.917H248.568Z" fill="#808080"/>
<path d="M201.053 166.46L197.1 166.131C197.359 163.956 197.699 161.732 198.058 159.524L201.991 159.969C201.632 162.144 201.312 164.319 201.053 166.46Z" fill="#808080"/>
<path d="M227.606 95.092L224.112 93.5269C231.738 81.8299 240.862 70.7589 251.223 60.594L254.258 62.7028C244.076 72.6864 235.112 83.5762 227.606 95.0755V95.092Z" fill="#808080"/>
<path d="M285.243 37.5457L282.727 35.0086C306.345 19.1435 333.057 7.36407 362.165 0.0163574L363.323 3.14655C334.714 10.3789 308.441 21.9606 285.243 37.5457Z" fill="#808080"/>
<path d="M669.457 169.887C665.544 123.033 641.348 78.782 601.299 45.3055C589.939 35.7996 577.342 27.2163 563.886 19.8027L566.102 17.0679C579.797 24.6133 592.595 33.3284 604.134 42.9826C644.841 77.0193 669.457 122.012 673.43 169.656L669.457 169.887Z" fill="#808080"/>
<path d="M240.842 314.139C205.046 277.582 185.521 231.601 185.9 184.665C185.9 182.589 185.98 180.497 186.06 178.421L190.033 178.536C189.933 180.579 189.893 182.622 189.873 184.665C189.514 230.843 208.699 276.099 243.936 312.064L240.842 314.123V314.139Z" fill="#808080"/>
<path d="M191.13 165.505L187.177 165.175C187.457 162.984 187.776 160.777 188.136 158.585L192.069 159.03C191.709 161.188 191.41 163.347 191.13 165.521V165.505Z" fill="#808080"/>
<path d="M211.853 102.72L208.24 101.352C208.799 100.347 209.358 99.3424 209.937 98.3374L213.53 99.7542C212.951 100.743 212.412 101.731 211.853 102.72Z" fill="#808080"/>
<path d="M215.268 96.8216L211.714 95.3554C222.515 77.4639 236.43 61.0386 253.06 46.5244L255.955 48.7814C239.584 63.065 225.909 79.2267 215.287 96.8216H215.268Z" fill="#808080"/>
<path d="M267.195 39.5721L264.5 37.1668C265.478 36.409 266.476 35.6676 267.474 34.9263L270.129 37.3645C269.151 38.0894 268.173 38.8308 267.195 39.5721Z" fill="#808080"/>
<path d="M288.577 25.0251L286.221 22.3726C300.815 13.5422 316.646 6.02975 333.237 0.065918L334.834 3.08079C318.503 8.94577 302.951 16.3264 288.577 25.0251Z" fill="#808080"/>
<path d="M683.951 186.658L679.978 186.609C679.978 185.966 679.998 185.307 679.998 184.665C680.418 130.002 654.983 78.4359 608.366 39.4733C598.005 30.8076 586.625 22.8668 574.586 15.8651L576.882 13.1797C589.12 20.2968 600.68 28.3693 611.221 37.1668C658.577 76.7555 684.431 129.145 684.011 184.681C684.011 185.34 684.011 185.999 683.991 186.658H683.951Z" fill="#808080"/>
<path d="M234.713 320.976C196.421 282.673 175.518 234.253 175.898 184.665V182.902L179.891 182.951V184.698C179.491 233.529 200.055 281.19 237.767 318.9L234.693 320.993L234.713 320.976Z" fill="#808080"/>
<path d="M181.827 160.117L177.874 159.706C178.034 158.602 178.213 157.514 178.413 156.411L182.346 156.872C182.166 157.943 181.987 159.03 181.827 160.117Z" fill="#808080"/>
<path d="M198.956 106.542L195.283 105.29C206.083 83.6915 221.037 63.8725 239.743 46.3599L242.738 48.5345C224.331 65.7835 209.617 85.2895 198.976 106.558L198.956 106.542Z" fill="#808080"/>
<path d="M245.354 46.0961L242.419 43.8885C245.493 41.1042 248.688 38.353 251.942 35.7005C254.398 33.6906 256.933 31.7137 259.488 29.7861L262.164 32.2079C259.648 34.086 257.153 36.0465 254.737 38.0235C251.543 40.6265 248.388 43.3283 245.374 46.0796L245.354 46.0961Z" fill="#808080"/>
<path d="M286.879 15.8816L284.604 13.1962C292.27 8.76456 300.296 4.62941 308.501 0.922607L310.417 3.80568C302.352 7.46306 294.426 11.5323 286.879 15.8981V15.8816Z" fill="#808080"/>
<path d="M689.961 180.167C688.963 124.993 662.49 72.9664 615.434 33.6413C602.257 22.6362 587.604 12.8008 571.872 4.39873L574.028 1.64746C589.999 10.1813 604.873 20.165 618.249 31.3348C666.044 71.253 692.916 124.087 693.934 180.118L689.961 180.167Z" fill="#808080"/>
<path d="M229.502 328.654C214.728 314.304 202.23 298.422 192.328 281.47L195.902 280.053C205.644 296.759 217.962 312.41 232.516 326.545L229.482 328.67L229.502 328.654Z" fill="#808080"/>
<path d="M181.468 260.036C171.486 237.005 166.275 212.919 165.936 188.487L169.908 188.454C170.248 212.54 175.399 236.247 185.221 258.949L181.468 260.053V260.036Z" fill="#808080"/>
<path d="M171.925 159.08L167.972 158.668C168.311 156.477 168.67 154.285 169.09 152.094L173.023 152.605C172.623 154.763 172.244 156.921 171.925 159.08Z" fill="#808080"/>
<path d="M182.067 120.809L178.273 119.82C189.294 91.0392 207.002 64.9103 230.94 42.1423L233.934 44.3005C210.356 66.7226 192.907 92.4725 182.047 120.809H182.067Z" fill="#808080"/>
<path d="M236.569 41.8291L233.615 39.638C237.228 36.3101 241.022 33.0152 244.875 29.8685C248.608 26.8207 252.521 23.8223 256.474 20.9722L259.089 23.4434C255.196 26.2605 251.363 29.2095 247.67 32.2079C243.856 35.3051 240.123 38.5507 236.569 41.8291Z" fill="#808080"/>
<path d="M271.307 15.1238L268.872 12.5208C275.2 8.46805 281.848 4.61298 288.596 1.05444L290.733 3.82219C284.084 7.3313 277.536 11.1205 271.307 15.1073V15.1238Z" fill="#808080"/>
<path d="M703.756 191.848L699.783 191.716C699.883 189.343 699.963 186.971 699.963 184.648C700.382 125.586 672.871 69.8855 622.481 27.8092C613.497 20.3132 603.775 13.2785 593.593 6.91928L595.989 4.2998C606.33 10.7579 616.192 17.8914 625.296 25.5027C676.425 68.2051 704.355 124.73 703.936 184.665C703.936 187.021 703.856 189.426 703.736 191.848H703.756Z" fill="#808080"/>
<path d="M225.928 337.83C214.369 327.088 203.988 315.408 195.083 303.085L198.497 301.404C207.282 313.546 217.504 325.078 228.903 335.655L225.928 337.83Z" fill="#808080"/>
<path d="M165.396 245.193C165.057 244.122 164.717 243.051 164.378 241.98L168.231 241.173C168.55 242.227 168.89 243.282 169.229 244.336L165.396 245.193Z" fill="#808080"/>
<path d="M163.42 238.751C161.264 231.239 159.547 223.561 158.309 215.917L162.242 215.489C163.46 223.018 165.137 230.596 167.273 237.993L163.4 238.751H163.42Z" fill="#808080"/>
<path d="M156.053 192.77C155.973 190.563 155.933 188.355 155.933 186.131H159.906C159.906 188.306 159.946 190.497 160.026 192.672L156.053 192.77Z" fill="#808080"/>
<path d="M162.761 153.528L158.828 153.05C159.028 151.963 159.227 150.859 159.447 149.771L163.38 150.299C163.18 151.37 162.961 152.457 162.781 153.528H162.761Z" fill="#808080"/>
<path d="M164.737 143.857L160.824 143.247C167.412 114.779 180.309 87.9583 199.176 63.5264L202.53 65.2892C183.943 89.3587 171.206 115.801 164.717 143.857H164.737Z" fill="#808080"/>
<path d="M221.117 44.0862L218.042 42.0104C218.881 41.1537 219.739 40.297 220.598 39.4568L223.652 41.5655C222.794 42.4058 221.956 43.246 221.117 44.0862Z" fill="#808080"/>
<path d="M234.194 31.8127L231.299 29.5557C233.415 27.7105 235.611 25.8488 237.827 24.0531C241.321 21.203 244.974 18.3858 248.628 15.7004L251.263 18.1552C247.65 20.8076 244.056 23.5753 240.622 26.3925C238.446 28.1718 236.29 29.984 234.194 31.8127Z" fill="#808080"/>
<path d="M254.238 15.997L251.643 13.5093C258.211 8.8305 265.139 4.36586 272.226 0.230713L274.522 2.91609C267.534 7.00181 260.706 11.4005 254.238 16.0135V15.997Z" fill="#808080"/>
<path d="M707.869 155.34C700.382 105.273 672.572 57.9251 629.548 22.0103C625.935 18.9954 622.201 16.0464 618.428 13.2293L621.103 10.791C624.937 13.6576 628.73 16.656 632.383 19.7038C676.025 56.1294 704.255 104.153 711.822 154.945L707.869 155.34Z" fill="#808080"/>
<path d="M244.775 364.782C243.757 364.058 242.758 363.333 241.76 362.591L244.416 360.153C245.394 360.878 246.392 361.603 247.39 362.311L244.775 364.782Z" fill="#808080"/>
<path d="M227.266 351.109C214.209 340.021 202.41 327.83 192.208 314.864L195.543 313.085C205.605 325.869 217.224 337.896 230.101 348.835L227.246 351.125L227.266 351.109Z" fill="#808080"/>
<path d="M145.951 186.23V184.665C145.991 179.673 146.211 174.632 146.63 169.656L150.603 169.887C150.184 174.796 149.964 179.772 149.924 184.681V186.23H145.951Z" fill="#808080"/>
<path d="M156.951 134.302L153.078 133.577C160.245 107.563 172.603 82.917 189.793 60.3467L193.167 62.093C176.217 84.3503 164.019 108.65 156.951 134.302Z" fill="#808080"/>
<path d="M209.078 43.3449L205.944 41.335C210.037 36.9857 214.369 32.6858 218.821 28.6001L221.776 30.7912C217.383 34.8275 213.131 39.0615 209.078 43.3449Z" fill="#808080"/>
<path d="M224.431 28.3529L221.496 26.1289C224.491 23.4435 227.605 20.7911 230.74 18.221C238.047 12.2572 245.833 6.57341 253.858 1.30151L256.334 3.87156C248.408 9.06109 240.742 14.679 233.535 20.5604C230.44 23.081 227.366 25.717 224.411 28.3529H224.431Z" fill="#808080"/>
<path d="M717.951 155.554C710.664 104.548 682.894 56.0139 639.771 18.88L642.645 16.6064C686.367 54.2511 714.497 103.461 721.904 155.175L717.951 155.554Z" fill="#808080"/>
<path d="M235.471 369C230.84 365.59 226.288 362.031 221.916 358.39C213.71 351.553 205.924 344.239 198.757 336.644L201.891 334.634C208.959 342.113 216.645 349.329 224.731 356.084C229.043 359.675 233.535 363.201 238.107 366.562L235.451 369.016L235.471 369Z" fill="#808080"/>
<path d="M140.061 179.162L136.088 179.063C136.348 171.353 137.067 163.561 138.205 155.917L142.158 156.328C141.02 163.874 140.321 171.551 140.061 179.162Z" fill="#808080"/>
<path d="M146.87 133.758L142.977 133.05C150.264 105.916 163.001 80.2153 180.809 56.6565L184.183 58.3863C166.614 81.6321 154.037 106.987 146.85 133.758H146.87Z" fill="#808080"/>
<path d="M192.967 47.4801L189.713 45.602C195.842 38.386 202.53 31.3678 209.597 24.7615L212.592 26.9361C205.644 33.4601 199.036 40.3795 192.987 47.4965L192.967 47.4801Z" fill="#808080"/>
<path d="M217.883 22.0596L214.968 19.819C215.886 19.0117 216.804 18.2045 217.723 17.3972L220.598 19.6707C219.679 20.4615 218.781 21.2523 217.883 22.0596Z" fill="#808080"/>
<path d="M223.373 17.3313L220.538 15.0413C221.576 14.1517 222.634 13.2785 223.712 12.4218C228.344 8.64913 233.196 4.94233 238.107 1.41675L240.702 3.90443C235.851 7.38058 231.059 11.0215 226.487 14.7612C225.429 15.6179 224.391 16.4746 223.353 17.3478L223.373 17.3313Z" fill="#808080"/>
<path d="M727.654 153.033C720.047 102.604 694.173 56.0139 652.787 18.3033L655.742 16.0957C697.667 54.317 723.9 101.533 731.607 152.638L727.654 153.05V153.033Z" fill="#808080"/>
<path d="M130.259 174.928L126.286 174.78C126.526 170.398 126.905 165.933 127.424 161.551L131.377 161.864C130.878 166.197 130.499 170.595 130.259 174.928Z" fill="#808080"/>
<path d="M136.927 132.786L133.034 132.094C143.316 93.1973 164.957 56.3764 195.563 25.6511L198.637 27.7434C168.411 58.0733 147.069 94.4 136.927 132.786Z" fill="#808080"/>
<path d="M201.172 25.2228L198.138 23.0976C203.987 17.3974 210.196 11.8289 216.645 6.57349L217.643 5.74976L220.418 8.08916L219.42 8.89642C213.071 14.0859 206.922 19.572 201.152 25.2064L201.172 25.2228Z" fill="#808080"/>
<path d="M728.751 115.652C717.352 81.6815 697.926 50.5773 670.994 23.1964L674.089 21.1206C701.36 48.8475 721.045 80.3636 732.584 114.779L728.751 115.652Z" fill="#808080"/>
<path d="M120.556 170.348L116.583 170.15C116.903 165.752 117.362 161.304 117.961 156.938L121.914 157.3C121.335 161.617 120.876 165.999 120.556 170.348Z" fill="#808080"/>
<path d="M125.468 137.877L121.555 137.267C132.375 90.2484 158.649 46.6399 197.499 11.1699L200.454 13.3775C162.082 48.4027 136.149 91.4511 125.468 137.877Z" fill="#808080"/>
<path d="M110.674 168.767L106.701 168.553C110.994 113.824 135.031 62.1919 176.217 19.2095L179.332 21.2523C138.664 63.7076 114.927 114.713 110.674 168.783V168.767Z" fill="#808080"/>
<path d="M181.827 18.6824L178.732 16.623C180.409 14.9097 182.126 13.2128 183.863 11.5159L186.898 13.6411C185.181 15.305 183.484 16.9855 181.827 18.6824Z" fill="#808080"/>
<path d="M100.811 166.954L96.8384 166.724C101.43 112.127 125.208 60.3632 165.596 17.0183L168.75 19.0117C128.841 61.8459 105.343 113 100.791 166.938L100.811 166.954Z" fill="#808080"/>
<path d="M171.206 16.4418L168.091 14.4154C169.748 12.6855 171.425 10.9557 173.142 9.25879L176.217 11.3511C174.52 13.0315 172.863 14.7284 171.226 16.4418H171.206Z" fill="#808080"/>
<path d="M92.0872 155.175L88.1343 154.813C94.1236 109.771 113.309 65.9977 143.635 28.2542L146.949 30.0664C116.983 67.3815 97.9967 110.644 92.0872 155.175Z" fill="#808080"/>
<path d="M149.145 27.348L145.851 25.5029C148.087 22.7846 150.423 20.0498 152.799 17.3809L156.013 19.3249C153.677 21.9773 151.361 24.6791 149.145 27.348Z" fill="#808080"/>
<path d="M82.3245 153.05L78.3716 152.671C78.671 150.48 79.0104 148.289 79.3698 146.097L83.3028 146.542C82.9434 148.7 82.624 150.875 82.3245 153.05Z" fill="#808080"/>
<path d="M84.4808 140.068L80.5479 139.557C88.4538 98.7822 106.262 60.5774 133.513 25.9641L136.847 27.7434C109.915 61.9613 92.2869 99.7542 84.4609 140.068H84.4808Z" fill="#808080"/>
<path d="M74.1791 141.056L70.2461 140.562C77.7527 99.7872 94.962 61.3682 121.375 26.376L124.749 28.1058C98.6355 62.7191 81.6058 100.726 74.1791 141.056Z" fill="#808080"/>
<path d="M65.1552 135.455L61.2422 134.911C61.4618 133.824 61.6814 132.736 61.921 131.649L65.834 132.226C65.5944 133.297 65.3748 134.384 65.1552 135.455Z" fill="#808080"/>
<path d="M68.1098 122.572L64.2168 121.896C72.8215 88.2549 88.0343 56.2281 109.416 26.7219L112.83 28.4023C91.6678 57.5955 76.6147 89.2763 68.1098 122.572Z" fill="#808080"/>
<path d="M62.1803 107.366L58.3271 106.542C58.6665 105.471 59.0059 104.4 59.3453 103.346L63.1785 104.202C62.8391 105.257 62.4997 106.311 62.1603 107.366H62.1803Z" fill="#808080"/>
<path d="M78.3717 66.9532L74.6982 65.7176C81.7457 51.4505 90.1307 37.48 99.6138 24.2014L103.048 25.8654C93.6644 38.9957 85.3592 52.8179 78.3717 66.9532Z" fill="#808080"/>
<path d="M73.5002 55.3715L69.8667 54.0535C75.2571 43.9875 81.3263 34.0368 87.8945 24.4814L91.3484 26.1124C84.84 35.5689 78.8307 45.4208 73.5002 55.388V55.3715Z" fill="#808080"/>
<path d="M63.9773 52.7683L60.3438 51.4503C65.6942 41.3843 71.7235 31.4171 78.2518 21.8289L81.7256 23.4434C75.2572 32.9328 69.2878 42.8011 63.9972 52.7683H63.9773Z" fill="#808080"/>
<path d="M52.9172 53.1309L49.2637 51.8459C53.9553 42.7354 59.166 33.6908 64.796 24.9592L68.3097 26.4914C62.7396 35.1406 57.5689 44.1028 52.9172 53.1145V53.1309Z" fill="#808080"/>
<path d="M38.9619 59.5559L35.2485 58.3697C40.0799 48.1225 45.5701 37.9576 51.5594 28.1387L55.1131 29.6049C49.1837 39.3415 43.7534 49.4075 38.9619 59.5559Z" fill="#808080"/>
<path d="M26.7236 62.9663L22.9902 61.8295C27.1229 52.5543 31.7945 43.2955 36.8455 34.3333L40.4591 35.7171C35.448 44.597 30.8362 53.7734 26.7435 62.9663H26.7236Z" fill="#808080"/>
<path d="M15.9828 63.2793L12.2295 62.1755C12.6887 61.1376 13.1279 60.0997 13.5871 59.0618L17.3204 60.1985C16.8612 61.22 16.4021 62.2579 15.9628 63.2793H15.9828Z" fill="#808080"/>
<path d="M18.7178 57.1177L15.0044 55.9644C16.881 51.8622 18.8775 47.7271 20.9338 43.6743L24.6073 44.9429C22.5709 48.9627 20.5745 53.0649 18.7178 57.1341V57.1177Z" fill="#808080"/>
<path d="M27.7419 38.9132L24.1084 37.5952C24.6474 36.5902 25.1865 35.5853 25.7455 34.5803L29.379 35.9312C28.84 36.9362 28.3009 37.9247 27.7619 38.9296L27.7419 38.9132Z" fill="#808080"/>
<path d="M3.98421 66.6731L0.210938 65.6187C0.63019 64.5808 1.06941 63.5264 1.50862 62.4885L5.26193 63.5594C4.82271 64.5973 4.40346 65.6352 3.98421 66.6566V66.6731Z" fill="#808080"/>
</g>
<defs>
<clipPath id="clip0_2538_2335">
<rect width="670.789" height="369" fill="white" transform="translate(0.210938)"/>
</clipPath>
</defs>
</svg>
