<svg width="358" height="200" viewBox="0 0 358 200" fill="none" xmlns="http://www.w3.org/2000/svg">
<g clip-path="url(#clip0_3265_2114)">
<path d="M304.126 10.8232C302.823 10.0844 301.475 9.3808 300.135 8.72994L300.685 7.10278C302.046 7.76244 303.416 8.48367 304.748 9.23128L304.126 10.8145V10.8232Z" fill="#868686"/>
<path d="M349.359 83.1039C346.752 63.1031 339.108 44.9054 327.262 30.4721C322.291 24.4121 316.668 19.1612 310.547 14.869L311.279 13.3562C317.51 17.7275 323.235 23.0664 328.302 29.2407C340.36 43.9379 348.143 62.4699 350.801 82.8313L349.359 83.1039Z" fill="#868686"/>
<path d="M220.111 27.9655L219.173 26.6286C227.542 18.1498 237.104 11.9578 247.588 8.21973L248.006 9.89965C237.712 13.5673 228.325 19.645 220.111 27.9655Z" fill="#868686"/>
<path d="M278.149 6.61017C275.623 6.28474 273.053 6.10883 270.512 6.08245C269.678 6.08245 268.843 6.08245 268.016 6.10883L267.979 4.35854C268.828 4.33216 269.678 4.32336 270.527 4.33216C273.119 4.35854 275.74 4.53445 278.31 4.86868L278.156 6.61017H278.149Z" fill="#868686"/>
<path d="M303.145 15.1331C301.841 14.3855 300.501 13.6642 299.169 13.0134L299.725 11.395C301.08 12.0635 302.449 12.7935 303.774 13.5587L303.145 15.1419V15.1331Z" fill="#868686"/>
<path d="M346.276 88.7594C344.534 68.0374 336.868 48.4412 324.678 33.5769C318.776 26.3823 311.967 20.4278 304.448 15.8893L305.1 14.3237C312.765 18.9413 319.699 25.0102 325.717 32.3456C338.135 47.4913 345.954 67.4657 347.726 88.5835L346.276 88.7594Z" fill="#868686"/>
<path d="M342.842 92.1986C341.693 71.3358 334.32 51.6165 322.086 36.6906C314.793 27.7897 306.168 20.9732 296.46 16.4436L296.987 14.8076C306.886 19.4252 315.679 26.3736 323.125 35.4593C335.601 50.693 343.12 70.7993 344.299 92.0843L342.842 92.1986Z" fill="#868686"/>
<path d="M344.131 106.28L342.681 106.113C342.813 104.389 342.908 102.63 342.959 100.897L344.416 100.959C344.365 102.727 344.27 104.512 344.131 106.271V106.28Z" fill="#868686"/>
<path d="M239.769 23.1016L239.139 21.5184C240.911 20.4981 242.742 19.557 244.579 18.7214L245.099 20.3574C243.298 21.1754 241.512 22.0989 239.769 23.1016Z" fill="#868686"/>
<path d="M246.461 19.7594L245.97 18.1059C246.432 17.9036 246.9 17.7101 247.369 17.5254L247.83 19.1877C247.369 19.3724 246.915 19.5571 246.461 19.7594Z" fill="#868686"/>
<path d="M340.712 102.181L339.255 102.093C339.306 100.941 339.328 99.7802 339.335 98.6543C339.489 76.5163 332.446 55.6183 319.494 39.8041C307.281 24.8871 290.954 16.0741 273.521 14.9922L273.595 13.2419C291.393 14.3414 308.057 23.3391 320.533 38.5728C333.756 54.7212 340.946 76.0677 340.792 98.6631C340.785 99.8153 340.756 101.003 340.704 102.181H340.712Z" fill="#868686"/>
<path d="M335.634 94.3904C334.843 75.1548 328.202 56.9834 316.942 43.2186C304.627 28.1608 288.146 19.77 270.538 19.5853H269.886V17.8262H270.552C288.549 18.0197 305.396 26.5952 317.981 41.9872C329.491 56.0599 336.278 74.6358 337.091 94.2936L335.634 94.3816V94.3904Z" fill="#868686"/>
<path d="M275.886 24.0075C274.107 23.8052 272.299 23.6908 270.505 23.6645C268.931 23.6469 267.335 23.6996 265.761 23.8316L265.666 22.0813C267.276 21.9494 268.909 21.8966 270.52 21.9142C272.35 21.9318 274.202 22.0549 276.026 22.2572L275.886 23.9987V24.0075Z" fill="#868686"/>
<path d="M330.893 83.9043C328.58 69.559 322.847 56.4626 314.317 46.0224C304.462 33.9551 291.32 26.2063 277.321 24.201L277.497 22.4595C291.825 24.5176 305.275 32.4423 315.364 44.7911C324.099 55.4775 329.963 68.8905 332.328 83.5701L330.893 83.9043V83.9043Z" fill="#868686"/>
<path d="M252.823 31.1231L252.399 29.4431C253.804 28.933 255.254 28.4668 256.696 28.0798L257.019 29.7861C255.613 30.1644 254.2 30.6129 252.823 31.1143V31.1231Z" fill="#868686"/>
<path d="M277.146 28.5989C274.949 28.2734 272.716 28.0975 270.505 28.0711C268.389 28.0448 266.251 28.1591 264.15 28.4054L264.003 26.6639C266.156 26.4088 268.345 26.2945 270.512 26.3208C272.782 26.3472 275.066 26.5319 277.314 26.8662L277.138 28.6077L277.146 28.5989Z" fill="#868686"/>
<path d="M325.637 76.8768C322.891 66.507 318.081 56.9112 311.733 49.1273C302.881 38.2825 291.108 31.079 278.573 28.8362L278.786 27.1035C291.628 29.3991 303.694 36.7873 312.765 47.9047C319.274 55.8822 324.202 65.7154 327.02 76.3491L325.629 76.8768H325.637Z" fill="#868686"/>
<path d="M249.587 37.1304L249.053 35.5033C251.806 34.1927 254.661 33.1373 257.546 32.3545L257.868 34.0608C255.056 34.8172 252.274 35.8463 249.587 37.1216V37.1304Z" fill="#868686"/>
<path d="M275.103 32.7589C273.58 32.583 272.035 32.4863 270.505 32.4687C269.15 32.4511 267.789 32.495 266.441 32.6006L266.346 30.8503C267.73 30.7448 269.128 30.7008 270.512 30.7184C272.079 30.736 273.668 30.8415 275.235 31.0174L275.095 32.7589H275.103Z" fill="#868686"/>
<path d="M305.297 47.9487C297.514 40.0768 288.062 34.9667 277.973 33.1724L278.185 31.4397C288.546 33.2779 298.239 38.52 306.234 46.603L305.297 47.9399V47.9487Z" fill="#868686"/>
<path d="M306.923 49.6637C306.747 49.4702 306.564 49.2767 306.388 49.0832L307.355 47.7727C307.538 47.9662 307.721 48.1685 307.904 48.3708L306.923 49.6637Z" fill="#868686"/>
<path d="M322.034 77.7916C319.45 68.2485 314.991 59.4179 309.141 52.2408C308.424 51.3613 307.677 50.4993 306.923 49.6726L307.904 48.3796C308.68 49.2328 309.449 50.1211 310.181 51.0183C316.184 58.3888 320.76 67.4569 323.418 77.255L322.034 77.8003V77.7916Z" fill="#868686"/>
<path d="M303.342 151.814L302.486 150.398C304.426 148.709 306.286 146.844 308.028 144.848L309.031 146.114C307.245 148.164 305.327 150.081 303.335 151.823L303.342 151.814Z" fill="#868686"/>
<path d="M275.879 164.154L275.755 162.413C280.067 161.955 284.336 160.865 288.443 159.176L288.919 160.829C284.702 162.571 280.316 163.688 275.886 164.154H275.879Z" fill="#868686"/>
<path d="M254.134 39.8394L253.687 38.1683C256.037 37.2624 258.461 36.5411 260.892 36.0398L261.141 37.7637C258.776 38.2562 256.426 38.9511 254.134 39.8394Z" fill="#868686"/>
<path d="M308.153 57.4038C307.633 56.7002 307.091 56.0053 306.557 55.3457C297.009 43.6126 284.204 37.0512 270.505 36.8665C267.862 36.8313 265.182 37.0424 262.561 37.4998L262.349 35.7671C265.043 35.3009 267.789 35.081 270.52 35.1162C284.606 35.3097 297.778 42.0558 307.596 54.1231C308.153 54.8004 308.702 55.5128 309.244 56.2428L308.153 57.4126V57.4038Z" fill="#868686"/>
<path d="M318.293 78.2139C316.411 71.6261 313.622 65.5133 310.012 60.0513L311.154 58.9607C314.866 64.581 317.736 70.8609 319.677 77.6422L318.3 78.2139H318.293Z" fill="#868686"/>
<path d="M319.523 83.2008C319.289 82.0838 319.025 80.958 318.74 79.8585L320.131 79.3396C320.424 80.4654 320.695 81.6176 320.936 82.7698L319.523 83.192V83.2008Z" fill="#868686"/>
<path d="M302.881 146.721L301.98 145.349C303.35 144.048 304.675 142.649 305.927 141.18C307.765 139.025 309.478 136.677 311.023 134.197L312.194 135.243C310.605 137.785 308.841 140.204 306.952 142.429C305.671 143.933 304.301 145.376 302.888 146.721H302.881Z" fill="#868686"/>
<path d="M274.188 159.888L274.1 158.138C280.382 157.68 286.459 155.825 292.177 152.614L292.792 154.197C286.913 157.505 280.653 159.413 274.188 159.888Z" fill="#868686"/>
<path d="M291.965 47.7376C285.375 43.6037 277.951 41.3697 270.505 41.2641C264.948 41.1762 259.457 42.258 254.192 44.4569L253.709 42.8033C259.135 40.5341 264.772 39.4171 270.52 39.5138C278.193 39.6282 285.844 41.9326 292.638 46.1896L291.965 47.7464V47.7376Z" fill="#868686"/>
<path d="M313.871 76.569C311.564 69.7965 308.233 63.7013 303.965 58.4592C300.794 54.5628 297.185 51.2381 293.231 48.5731L293.941 47.0427C298.02 49.7869 301.739 53.2171 305.004 57.2366C309.397 62.6458 312.831 68.9258 315.211 75.9093L313.863 76.569H313.871Z" fill="#868686"/>
<path d="M316.668 88.1966C316.17 84.7928 315.401 81.4242 314.398 78.1875L315.767 77.5718C316.807 80.914 317.597 84.3882 318.11 87.8976L316.675 88.2054L316.668 88.1966Z" fill="#868686"/>
<path d="M304.843 138.735L303.811 137.495C304.148 137.082 304.484 136.668 304.814 136.246L305.883 137.442C305.546 137.873 305.202 138.304 304.85 138.726L304.843 138.735Z" fill="#868686"/>
<path d="M272.921 155.561L272.863 153.811C280.55 153.45 288.121 150.75 294.739 146L295.486 147.504C288.655 152.403 280.85 155.191 272.914 155.561H272.921Z" fill="#868686"/>
<path d="M249.924 51.4053L249.265 49.8397C249.704 49.567 250.151 49.312 250.605 49.0569L251.22 50.6489C250.788 50.8951 250.356 51.1414 249.924 51.4053Z" fill="#868686"/>
<path d="M286.225 49.4089C281.202 47.0077 275.916 45.7412 270.505 45.662C265.783 45.5829 261.097 46.4184 256.587 48.1335L256.147 46.4624C260.804 44.6857 265.636 43.8326 270.527 43.9029C276.121 43.9909 281.583 45.2926 286.774 47.7817L286.232 49.4089H286.225Z" fill="#868686"/>
<path d="M307.706 71.5206C305.942 67.9144 303.811 64.5634 301.373 61.5641C298.437 57.9492 295.091 54.862 291.423 52.3905L292.133 50.8601C295.926 53.4108 299.389 56.6035 302.42 60.3416C304.931 63.4464 307.135 66.903 308.965 70.6322L307.706 71.5206Z" fill="#868686"/>
<path d="M313.329 91.0022C312.685 85.2676 311.257 79.7353 309.09 74.5548L310.393 73.7632C312.633 79.1196 314.112 84.8366 314.779 90.7647L313.336 91.0022H313.329Z" fill="#868686"/>
<path d="M272.086 151.198L272.057 149.448C282.747 149.158 292.887 144.065 300.611 135.12L301.622 136.378C293.634 145.631 283.149 150.899 272.094 151.198H272.086Z" fill="#868686"/>
<path d="M309.866 93.3155C308.987 82.5939 305.056 72.4176 298.788 64.6688C291.313 55.4248 281.268 50.2355 270.505 50.0508C262.576 49.9013 254.844 52.5575 248.138 57.6764L247.354 56.1988C254.302 50.8864 262.327 48.151 270.527 48.3005C281.678 48.494 292.089 53.868 299.835 63.4462C306.337 71.4852 310.415 82.031 311.323 93.1396L309.873 93.3155H309.866Z" fill="#868686"/>
<path d="M311.008 105.647L309.566 105.374C309.859 103.158 310.02 100.897 310.049 98.6457C310.056 98.0212 310.049 97.3967 310.042 96.7722L311.499 96.7283C311.513 97.3791 311.513 98.0212 311.506 98.6721C311.477 101.003 311.308 103.351 311.008 105.647V105.647Z" fill="#868686"/>
<path d="M271.691 146.809L271.669 145.059C281.597 144.883 291.005 140.186 298.151 131.848C299.03 130.828 299.879 129.737 300.67 128.62L301.783 129.755C300.956 130.916 300.077 132.051 299.169 133.106C291.752 141.761 281.993 146.625 271.691 146.809V146.809Z" fill="#868686"/>
<path d="M249.741 61.6695L248.943 60.2007C251.864 57.9138 255.034 56.1108 258.358 54.8442L258.798 56.5154C255.598 57.7291 252.552 59.4618 249.741 61.6695V61.6695Z" fill="#868686"/>
<path d="M265.805 54.73L265.644 52.9885C266.625 52.8565 267.628 52.7686 268.623 52.7246L268.675 54.4749C267.723 54.5101 266.756 54.598 265.812 54.73H265.805Z" fill="#868686"/>
<path d="M275.828 55.0202C274.078 54.6772 272.284 54.4837 270.505 54.4573H270.11L270.117 52.6982H270.527C272.379 52.7334 274.239 52.9357 276.062 53.2875L275.828 55.0202Z" fill="#868686"/>
<path d="M290.398 61.9423C286.4 58.7056 281.971 56.4803 277.241 55.3281L277.534 53.613C282.454 54.8092 287.059 57.1312 291.218 60.4911L290.405 61.9423H290.398Z" fill="#868686"/>
<path d="M306.315 95.1273C305.758 84.8894 302.164 75.1793 296.196 67.7823C295.106 66.4366 293.934 65.1525 292.711 63.9827L293.619 62.6106C294.893 63.8244 296.116 65.1525 297.243 66.5597C303.452 74.2557 307.186 84.3617 307.772 95.013L306.315 95.1273V95.1273Z" fill="#868686"/>
<path d="M305.781 112.674L304.404 112.094C305.663 107.757 306.33 103.237 306.388 98.6366C306.396 98.0385 306.388 97.4404 306.388 96.8423L307.845 96.7983C307.86 97.4228 307.86 98.0385 307.845 98.663C307.779 103.448 307.084 108.153 305.781 112.665V112.674Z" fill="#868686"/>
<path d="M271.113 142.412C270.908 142.412 270.703 142.412 270.505 142.412C269.919 142.403 269.334 142.368 268.748 142.324L268.843 140.573C269.407 140.617 269.963 140.644 270.527 140.653C279.906 140.855 288.802 136.607 295.567 128.726C297.126 126.905 298.561 124.909 299.821 122.78L301.007 123.792C299.696 126.008 298.21 128.093 296.584 129.984C289.68 138.014 280.66 142.403 271.113 142.403V142.412Z" fill="#868686"/>
<path d="M239.908 81.4418L238.597 80.6678C239.037 79.5948 239.513 78.5305 240.025 77.5103L241.277 78.4074C240.787 79.3837 240.325 80.4039 239.908 81.433V81.4418Z" fill="#868686"/>
<path d="M242.039 76.9561L240.823 75.9886C241.094 75.4873 241.38 74.9947 241.673 74.511L242.859 75.54C242.58 76.0062 242.31 76.4812 242.046 76.9561H242.039Z" fill="#868686"/>
<path d="M247.632 69.1457L246.659 67.844C248.884 65.4341 251.359 63.3847 254.024 61.74L254.69 63.2968C252.143 64.8712 249.77 66.8413 247.632 69.1457Z" fill="#868686"/>
<path d="M274.144 59.1716C273.668 59.1012 273.199 59.0396 272.716 58.9869L272.841 57.2366C273.338 57.2893 273.836 57.3509 274.327 57.4301L274.144 59.1716V59.1716Z" fill="#868686"/>
<path d="M281.099 61.177C280.199 60.79 279.284 60.447 278.361 60.1567L278.734 58.4592C279.694 58.7671 280.653 59.1189 281.59 59.5235L281.099 61.177V61.177Z" fill="#868686"/>
<path d="M271.113 138.023C270.908 138.023 270.703 138.023 270.498 138.023C270.066 138.014 269.641 137.996 269.216 137.961L269.297 136.211C269.707 136.237 270.11 136.255 270.52 136.264C278.917 136.439 286.898 132.666 292.975 125.63C299.11 118.514 302.573 108.936 302.727 98.6455C302.881 88.2581 299.637 78.3984 293.605 70.8959C292.784 69.8756 291.906 68.8905 290.991 67.9846L291.921 66.6389C292.872 67.5888 293.788 68.6091 294.652 69.6821C300.955 77.5277 304.345 87.8271 304.184 98.6807C304.023 109.437 300.406 119.455 293.985 126.896C287.777 134.091 279.672 138.031 271.105 138.031L271.113 138.023Z" fill="#868686"/>
<path d="M240.186 96.992L238.729 96.8777C239.242 87.3874 242.654 78.548 248.328 71.9778C253.965 65.4516 261.36 61.7311 269.15 61.5024L269.187 63.2527C261.763 63.4726 254.712 67.026 249.338 73.2443C243.92 79.5067 240.669 87.9415 240.186 96.992V96.992Z" fill="#868686"/>
<path d="M294.549 79.3924C293.524 77.4662 292.338 75.6544 291.013 74.0008C289.365 71.9427 287.506 70.1308 285.492 68.6092L286.268 67.1228C288.384 68.7148 290.339 70.6234 292.067 72.7871C293.458 74.5198 294.703 76.4284 295.779 78.4513L294.549 79.3924V79.3924Z" fill="#868686"/>
<path d="M296.584 83.9132C296.204 82.8754 295.764 81.8463 295.296 80.8524L296.563 79.9817C297.06 81.0283 297.514 82.1102 297.917 83.192L296.584 83.9044V83.9132Z" fill="#868686"/>
<path d="M271.64 133.616L271.611 131.866C278.632 131.707 285.302 128.383 290.39 122.516C295.838 116.236 298.913 107.758 299.067 98.6455C299.132 94.7227 298.642 90.8527 297.61 87.1235L298.993 86.5693C300.077 90.4833 300.589 94.5644 300.524 98.6806C300.362 108.259 297.126 117.177 291.401 123.783C286.041 129.966 279.027 133.458 271.64 133.625V133.616Z" fill="#868686"/>
<path d="M242.536 103.518C242.368 101.909 242.302 100.264 242.331 98.6368C242.493 89.6391 245.538 81.2834 250.92 75.0915C256.242 68.9698 263.213 65.7067 270.534 65.9002C271.691 65.9266 272.862 66.0498 274.012 66.2608L273.792 67.9935C272.701 67.7912 271.596 67.6769 270.498 67.6505C263.564 67.4746 256.967 70.5618 251.93 76.358C246.834 82.2245 243.942 90.1492 243.788 98.6808C243.759 100.22 243.825 101.777 243.986 103.307L242.536 103.518V103.518Z" fill="#868686"/>
<path d="M271.508 129.218L271.486 127.468C277.578 127.354 283.376 124.487 287.806 119.403C292.558 113.95 295.259 106.579 295.406 98.6368C295.559 90.5978 293.077 82.9545 288.428 77.1056C285.544 73.4819 281.919 70.7377 277.936 69.1721L278.39 67.5098C282.593 69.1633 286.429 72.0658 289.475 75.8918C294.395 82.075 297.016 90.1668 296.855 98.672C296.694 107.08 293.839 114.891 288.802 120.661C284.101 126.052 277.958 129.087 271.493 129.21L271.508 129.218Z" fill="#868686"/>
<path d="M271.113 124.83C270.908 124.83 270.703 124.83 270.498 124.821H270.307L270.359 123.062H270.534C276.011 123.264 281.224 120.845 285.222 116.289C289.285 111.672 291.599 105.4 291.752 98.6368C291.906 91.7763 289.805 85.2325 285.844 80.2191C281.824 75.1354 276.377 72.2329 270.498 72.0482C264.538 71.8723 258.864 74.5021 254.515 79.4715C250.107 84.5113 247.596 91.3278 247.449 98.6808C247.384 101.926 247.786 105.145 248.65 108.233L247.266 108.787C246.344 105.506 245.919 102.085 245.985 98.6368C246.146 90.8176 248.811 83.5614 253.504 78.1962C258.132 72.9101 264.179 70.0868 270.527 70.2979C276.794 70.4914 282.6 73.5874 286.891 79.0142C291.123 84.3706 293.363 91.3542 293.202 98.6895C293.041 105.919 290.559 112.63 286.217 117.573C282.088 122.279 276.736 124.838 271.106 124.838L271.113 124.83Z" fill="#868686"/>
<path d="M271.113 120.432C270.908 120.432 270.695 120.432 270.49 120.423C269.67 120.388 268.843 120.291 268.038 120.124L268.287 118.4C269.033 118.55 269.795 118.646 270.542 118.682C275.037 118.866 279.328 116.914 282.637 113.184C286.005 109.394 287.945 104.222 288.091 98.6368C288.245 92.9462 286.525 87.5106 283.252 83.324C279.921 79.067 275.389 76.6306 270.498 76.4459C265.512 76.2612 260.76 78.4425 257.107 82.5851C253.394 86.7894 251.264 92.5064 251.117 98.6896C251.052 101.513 251.403 104.301 252.172 106.984L250.795 107.555C249.968 104.679 249.587 101.68 249.66 98.6368C249.822 91.9963 252.113 85.8395 256.111 81.3098C260.05 76.8505 265.182 74.5021 270.549 74.6956C275.835 74.8891 280.726 77.5278 284.321 82.119C287.857 86.6398 289.717 92.524 289.556 98.6808C289.395 104.741 287.293 110.344 283.64 114.451C280.199 118.321 275.777 120.432 271.12 120.432H271.113Z" fill="#868686"/>
<path d="M271.083 116.034C270.886 116.034 270.681 116.034 270.483 116.016C269.033 115.946 267.606 115.612 266.244 115.023L266.734 113.369C267.957 113.897 269.246 114.196 270.549 114.266C273.997 114.451 277.475 112.912 280.052 110.053C282.688 107.133 284.284 102.964 284.431 98.6103C284.577 94.1598 283.201 89.7182 280.66 86.4111C278.061 83.0336 274.356 81.0019 270.49 80.826C266.544 80.6501 262.605 82.4179 259.691 85.681C256.667 89.0585 254.925 93.6761 254.778 98.6719C254.69 101.777 255.239 104.908 256.382 107.714L255.071 108.488C253.826 105.418 253.219 102.005 253.314 98.6103C253.475 93.1396 255.386 88.091 258.695 84.3969C261.895 80.826 266.207 78.8822 270.542 79.0757C274.788 79.2692 278.866 81.5032 281.729 85.2149C284.533 88.8562 286.049 93.7641 285.888 98.6719C285.727 103.483 283.962 108.101 281.041 111.329C278.332 114.328 274.73 116.016 271.083 116.016V116.034Z" fill="#868686"/>
<path d="M271.083 111.645C270.878 111.645 270.673 111.645 270.468 111.628C267.664 111.434 265.006 109.895 263.169 107.406C261.39 104.987 260.46 101.786 260.628 98.6104C260.789 95.532 261.975 92.6207 263.879 90.6242C265.724 88.6892 268.155 87.6953 270.556 87.8976C272.877 88.0911 275.066 89.4016 276.56 91.4861C278.002 93.5003 278.727 96.1389 278.551 98.7336C278.383 101.231 277.395 103.58 275.828 105.163C274.327 106.685 272.357 107.441 270.439 107.23C268.601 107.028 266.881 105.946 265.739 104.266C264.64 102.665 264.113 100.581 264.289 98.5665C264.457 96.6403 265.263 94.8724 266.493 93.6938C267.657 92.5768 269.158 92.0666 270.6 92.2865C271.962 92.4976 273.199 93.3508 274.005 94.6261C274.759 95.8311 275.081 97.3527 274.891 98.7863C274.715 100.132 274.093 101.337 273.192 102.085C272.35 102.779 271.318 103.043 270.359 102.797C269.473 102.568 268.704 101.926 268.265 101.029C267.855 100.202 267.752 99.2349 267.986 98.373C268.199 97.5814 268.667 96.9569 269.268 96.6578C269.824 96.3852 270.432 96.438 270.9 96.7986C271.362 97.1504 271.618 97.7573 271.559 98.3554C271.493 99.015 271.039 99.5164 270.512 99.5164V97.7661C270.285 97.7661 270.132 97.9596 270.11 98.1531C270.102 98.2322 270.117 98.285 270.132 98.2938C270.066 98.241 269.949 98.2234 269.817 98.2938C269.619 98.3905 269.458 98.6192 269.377 98.9095C269.275 99.2965 269.326 99.745 269.524 100.141C269.758 100.616 270.175 100.959 270.666 101.082C271.237 101.231 271.852 101.064 272.365 100.642C272.943 100.167 273.338 99.3844 273.456 98.5049C273.587 97.5286 273.36 96.4995 272.848 95.6728C272.284 94.7668 271.398 94.1687 270.424 94.0192C269.37 93.8609 268.272 94.2391 267.408 95.0571C266.485 95.9366 265.878 97.2823 265.746 98.7424C265.607 100.299 266.017 101.9 266.866 103.149C267.767 104.468 269.121 105.321 270.578 105.48C272.116 105.656 273.69 105.04 274.898 103.817C276.172 102.533 276.977 100.625 277.109 98.584C277.248 96.4468 276.648 94.2743 275.462 92.6207C274.217 90.888 272.401 89.7974 270.461 89.6391C268.44 89.4632 266.398 90.3075 264.845 91.9347C263.235 93.6322 262.224 96.1037 262.092 98.716C261.946 101.425 262.744 104.169 264.267 106.245C265.848 108.391 268.14 109.71 270.556 109.877C273.053 110.044 275.572 108.98 277.468 106.948C279.423 104.846 280.623 101.812 280.763 98.6104C280.909 95.3209 279.921 92.0051 278.054 89.5248C276.135 86.9741 273.368 85.4085 270.468 85.2414C267.481 85.0567 264.494 86.3672 262.261 88.8123C259.962 91.319 258.563 94.9251 258.424 98.6984C258.329 101.144 258.761 103.615 259.669 105.831L258.358 106.605C257.348 104.125 256.865 101.363 256.967 98.6192C257.128 94.3886 258.703 90.3339 261.28 87.5194C263.798 84.7664 267.166 83.2976 270.542 83.4911C273.822 83.6846 276.955 85.4525 279.137 88.355C281.26 91.1783 282.381 94.9515 282.22 98.7072C282.058 102.366 280.682 105.84 278.434 108.25C276.406 110.431 273.756 111.645 271.076 111.645H271.083Z" fill="#868686"/>
<path d="M216.728 25.6611L215.769 24.3418C225.411 14.2359 237.06 6.86532 249.448 3.03931L249.814 4.73682C237.646 8.49247 226.202 15.7311 216.728 25.6611Z" fill="#868686"/>
<path d="M301.014 4.42023C299.674 3.77817 298.298 3.17128 296.929 2.61717L297.397 0.954834C298.788 1.51774 300.194 2.14222 301.556 2.79308L301.021 4.42023H301.014Z" fill="#868686"/>
<path d="M308.929 8.774C308.072 8.23748 307.201 7.70975 306.33 7.21721L306.959 5.63403C307.845 6.14417 308.731 6.68069 309.602 7.22601L308.929 8.7828V8.774Z" fill="#868686"/>
<path d="M353.202 84.2474C350.75 62.9185 342.461 42.7154 329.854 27.3586C324.406 20.7268 318.227 15.0362 311.477 10.4362L312.194 8.91455C319.062 13.5937 325.351 19.3811 330.886 26.1272C343.713 41.7479 352.148 62.3028 354.637 84.0099L353.195 84.2474H353.202Z" fill="#868686"/>
<path d="M216.53 20.1117L215.608 18.7572C224.269 10.2872 234.065 3.99844 244.74 0.0756836L245.165 1.74681C234.673 5.60801 225.038 11.7912 216.53 20.1117V20.1117Z" fill="#868686"/>
<path d="M357.434 90.7649C355.999 65.7507 347.126 42.1261 332.438 24.2538C328.272 19.1789 323.653 14.5965 318.718 10.6385L319.53 9.17847C324.553 13.2068 329.246 17.8596 333.478 23.0137C348.407 41.185 357.434 65.2053 358.891 90.6417L357.434 90.7649Z" fill="#868686"/>
<path d="M217.753 13.4266L216.889 12.0106C222.241 7.29622 228.047 3.28551 234.131 0.101562L234.717 1.71113C228.728 4.8423 223.024 8.78265 217.753 13.4266V13.4266Z" fill="#868686"/>
<path d="M362.75 99.7186L361.293 99.6923C361.293 99.3492 361.3 98.9974 361.3 98.6544C361.454 69.4712 352.126 41.9415 335.03 21.1403C331.23 16.5139 327.057 12.2745 322.642 8.53644L323.484 7.10278C327.972 10.9024 332.211 15.2122 336.077 19.9089C353.444 41.0443 362.925 69.0138 362.772 98.6632C362.772 99.015 362.772 99.3668 362.764 99.7186H362.75Z" fill="#868686"/>
<path d="M364.953 96.2533C364.587 66.7974 354.879 39.0215 337.622 18.0268C332.79 12.1514 327.416 6.90055 321.646 2.41488L322.437 0.946045C328.294 5.50208 333.749 10.8321 338.654 16.7954C356.182 38.1067 366.037 66.3137 366.41 96.2269L364.953 96.2533V96.2533Z" fill="#868686"/>
<path d="M370.013 102.489L368.556 102.419C368.592 101.152 368.622 99.8858 368.622 98.6456C368.775 67.114 358.686 37.3767 340.207 14.9131C336.912 10.9112 333.346 7.15557 329.612 3.76053L330.491 2.36206C334.283 5.80987 337.9 9.61829 341.239 13.6818C359.99 36.4795 370.232 66.6566 370.079 98.6544C370.079 99.9121 370.049 101.196 370.006 102.489H370.013Z" fill="#868686"/>
<path d="M371.521 82.9985C368.775 56.2692 358.576 30.9911 342.798 11.8171C341.473 10.2075 340.104 8.63313 338.72 7.12912L339.701 5.82739C341.107 7.3578 342.498 8.95857 343.838 10.5857C359.843 30.0324 370.196 55.6711 372.971 82.7874L371.521 82.9985V82.9985Z" fill="#868686"/>
<path d="M375.218 83.1128C372.546 55.8821 362.362 29.9708 346.547 10.1459L347.601 8.93213C363.636 29.0297 373.952 55.3016 376.668 82.9105L375.218 83.1128V83.1128Z" fill="#868686"/>
<path d="M378.777 81.767C375.987 54.8442 366.498 29.9707 351.321 9.83801L352.404 8.65942C367.78 29.0648 377.4 54.2725 380.226 81.5559L378.777 81.7758V81.767Z" fill="#868686"/>
<path d="M379.179 61.8104C374.999 43.6743 367.875 27.0685 357.998 12.4505L359.133 11.3423C369.134 26.145 376.353 42.9706 380.585 61.3443L379.179 61.8104Z" fill="#868686"/>
</g>
<defs>
<clipPath id="clip0_3265_2114">
<rect x="232" y="0.0664062" width="126" height="197" rx="24" fill="white"/>
</clipPath>
</defs>
</svg>
