<svg width="358" height="201" viewBox="0 0 358 201" fill="none" xmlns="http://www.w3.org/2000/svg">
<rect y="0.933594" width="358" height="200" rx="24" fill="url(#paint0_linear_2320_1569)"/>
<g clip-path="url(#clip0_2320_1569)">
<path d="M318.869 27.827C317.923 27.1758 316.944 26.5556 315.971 25.9819L316.37 24.5476C317.359 25.1291 318.354 25.7648 319.321 26.4238L318.869 27.8193V27.827Z" fill="#231F20"/>
<path d="M351.723 91.5395C349.83 73.9096 344.278 57.8691 335.674 45.1467C332.063 39.8051 327.979 35.1767 323.533 31.3933L324.065 30.0598C328.591 33.913 332.749 38.6189 336.429 44.0614C345.188 57.0163 350.841 73.3514 352.771 91.2991L351.723 91.5395Z" fill="#231F20"/>
<path d="M248.147 156.089C240.782 141.615 236.846 124.458 236.756 106.464H237.814C237.899 124.117 241.765 140.964 248.992 155.167L248.141 156.089H248.147Z" fill="#231F20"/>
<path d="M247.939 58.7918L247.073 57.9079C247.684 56.6287 248.328 55.3573 248.987 54.1323L249.822 55.0859C249.173 56.2876 248.546 57.5358 247.945 58.7918H247.939Z" fill="#231F20"/>
<path d="M257.846 42.9372L257.166 41.7588C263.244 34.2851 270.189 28.8272 277.805 25.5322L278.108 27.013C270.631 30.2459 263.813 35.6031 257.846 42.9372Z" fill="#231F20"/>
<path d="M300.002 24.1134C298.167 23.8266 296.3 23.6715 294.455 23.6483C293.849 23.6483 293.243 23.6483 292.642 23.6715L292.615 22.1287C293.232 22.1054 293.849 22.0977 294.466 22.1054C296.348 22.1287 298.252 22.2838 300.119 22.5784L300.007 24.1134H300.002Z" fill="#231F20"/>
<path d="M318.157 31.626C317.21 30.967 316.237 30.3313 315.269 29.7576L315.673 28.3311C316.657 28.9203 317.652 29.5637 318.614 30.2382L318.157 31.6337V31.626Z" fill="#231F20"/>
<path d="M349.485 96.5247C348.219 78.2592 342.651 60.9859 333.797 47.8837C329.511 41.5419 324.565 36.2933 319.104 32.2928L319.577 30.9128C325.145 34.9831 330.181 40.3325 334.552 46.7983C343.571 60.1486 349.251 77.7552 350.538 96.3697L349.485 96.5247Z" fill="#231F20"/>
<path d="M249.322 151.833C243.552 139.762 240.164 125.629 239.521 110.96L240.579 110.86C241.207 125.241 244.53 139.103 250.189 150.949L249.322 151.833Z" fill="#231F20"/>
<path d="M346.99 99.5559C346.155 81.1663 340.8 63.7845 331.914 50.6281C326.618 42.7822 320.353 36.7738 313.302 32.7811L313.684 31.3391C320.874 35.4093 327.261 41.534 332.669 49.5427C341.731 62.9705 347.192 80.6934 348.049 99.4552L346.99 99.5559Z" fill="#231F20"/>
<path d="M347.926 111.968L346.874 111.821C346.969 110.301 347.038 108.751 347.076 107.223L348.134 107.278C348.097 108.836 348.028 110.41 347.926 111.96V111.968Z" fill="#231F20"/>
<path d="M251.316 149.22C246.009 137.963 242.861 124.83 242.201 111.232L243.26 111.123C243.903 124.45 246.993 137.32 252.188 148.344L251.316 149.22Z" fill="#231F20"/>
<path d="M272.125 38.65L271.668 37.2545C272.955 36.3551 274.284 35.5256 275.619 34.7891L275.996 36.2311C274.688 36.9521 273.391 37.7661 272.125 38.65Z" fill="#231F20"/>
<path d="M276.986 35.7041L276.629 34.2465C276.964 34.0682 277.305 33.8977 277.645 33.7349L277.98 35.2001C277.645 35.3629 277.315 35.5258 276.986 35.7041Z" fill="#231F20"/>
<path d="M345.443 108.355L344.385 108.278C344.422 107.262 344.438 106.239 344.443 105.247C344.555 85.7328 339.439 67.3122 330.032 53.3727C321.161 40.2239 309.303 32.4556 296.641 31.502L296.694 29.9592C309.622 30.9283 321.725 38.8594 330.787 52.2873C340.391 66.5214 345.613 85.3374 345.501 105.254C345.496 106.27 345.475 107.317 345.438 108.355H345.443Z" fill="#231F20"/>
<path d="M253.486 146.988C249.912 139.39 247.386 130.994 245.977 122.016L247.009 121.675C248.386 130.459 250.859 138.677 254.358 146.112L253.486 146.988Z" fill="#231F20"/>
<path d="M245.982 122.016C245.786 120.752 245.605 119.457 245.456 118.17L246.498 117.907C246.647 119.163 246.823 120.426 247.014 121.667L245.982 122.008V122.016Z" fill="#231F20"/>
<path d="M341.731 101.207C341.157 84.2519 336.333 68.2347 328.154 56.1016C319.21 42.8288 307.239 35.4326 294.45 35.2698H293.976V33.7192H294.46C307.532 33.8898 319.768 41.4488 328.91 55.0162C337.269 67.4206 342.199 83.7945 342.789 101.122L341.731 101.2V101.207Z" fill="#231F20"/>
<path d="M254.65 142.506C251.571 135.382 249.439 127.582 248.306 119.333L249.343 119.031C250.449 127.094 252.534 134.715 255.544 141.685L254.645 142.506H254.65Z" fill="#231F20"/>
<path d="M298.358 39.4486C297.066 39.2703 295.753 39.1695 294.45 39.1463C293.306 39.1308 292.147 39.1773 291.004 39.2936L290.935 37.7508C292.105 37.6345 293.29 37.588 294.46 37.6035C295.79 37.619 297.135 37.7275 298.459 37.9058L298.358 39.4409V39.4486Z" fill="#231F20"/>
<path d="M338.312 92.245C336.631 79.6002 332.467 68.0563 326.272 58.8537C319.114 48.2169 309.568 41.3867 299.401 39.619L299.528 38.084C309.935 39.8981 319.704 46.8834 327.032 57.7683C333.377 67.188 337.636 79.011 339.354 91.9504L338.312 92.245Z" fill="#231F20"/>
<path d="M255.007 135.614C253.528 131.428 252.358 127.009 251.534 122.458L252.561 122.062C253.369 126.497 254.507 130.815 255.953 134.901L255.012 135.606L255.007 135.614Z" fill="#231F20"/>
<path d="M281.607 45.7206L281.299 44.2398C282.32 43.7901 283.373 43.3792 284.42 43.0381L284.654 44.5421C283.633 44.8755 282.607 45.2709 281.607 45.7128V45.7206Z" fill="#231F20"/>
<path d="M299.273 43.4956C297.678 43.2088 296.056 43.0537 294.45 43.0305C292.913 43.0072 291.36 43.108 289.834 43.3251L289.727 41.79C291.291 41.5652 292.881 41.4644 294.455 41.4876C296.103 41.5109 297.763 41.6737 299.395 41.9683L299.268 43.5034L299.273 43.4956Z" fill="#231F20"/>
<path d="M334.493 86.0505C332.499 76.91 329.005 68.4517 324.395 61.5905C317.965 52.0313 309.414 45.6818 300.31 43.7048L300.464 42.1775C309.792 44.201 318.556 50.7133 325.145 60.5128C329.872 67.5446 333.451 76.2123 335.499 85.5854L334.488 86.0505H334.493Z" fill="#231F20"/>
<path d="M256.671 131.761C255.911 129.397 255.251 126.939 254.704 124.458L255.714 123.985C256.246 126.404 256.889 128.8 257.634 131.102L256.677 131.761H256.671Z" fill="#231F20"/>
<path d="M279.256 51.0157L278.868 49.5814C280.868 48.4262 282.942 47.4959 285.037 46.8059L285.271 48.31C283.229 48.9767 281.208 49.8838 279.256 51.0079V51.0157Z" fill="#231F20"/>
<path d="M297.789 47.1626C296.683 47.0075 295.561 46.9222 294.45 46.9067C293.466 46.8912 292.477 46.93 291.498 47.023L291.429 45.4802C292.434 45.3872 293.45 45.3484 294.455 45.3639C295.593 45.3794 296.747 45.4725 297.885 45.6275L297.784 47.1626H297.789Z" fill="#231F20"/>
<path d="M319.72 60.5517C314.067 53.613 307.202 49.1086 299.874 47.5271L300.028 45.9998C307.553 47.6201 314.594 52.2408 320.401 59.3656L319.72 60.544V60.5517Z" fill="#231F20"/>
<path d="M320.901 62.0633C320.773 61.8928 320.64 61.7222 320.513 61.5516L321.215 60.3965C321.348 60.567 321.481 60.7454 321.614 60.9237L320.901 62.0633Z" fill="#231F20"/>
<path d="M331.877 86.857C330 78.4452 326.761 70.6614 322.512 64.3351C321.991 63.5598 321.449 62.8001 320.901 62.0713L321.613 60.9316C322.177 61.6837 322.736 62.4667 323.267 63.2575C327.628 69.7543 330.952 77.7474 332.882 86.3841L331.877 86.8647V86.857Z" fill="#231F20"/>
<path d="M318.3 152.104L317.678 150.856C319.087 149.368 320.438 147.724 321.704 145.964L322.432 147.081C321.135 148.887 319.742 150.577 318.295 152.112L318.3 152.104Z" fill="#231F20"/>
<path d="M298.353 162.982L298.263 161.447C301.395 161.043 304.495 160.082 307.479 158.594L307.824 160.051C304.761 161.586 301.576 162.571 298.358 162.982H298.353Z" fill="#231F20"/>
<path d="M282.559 53.4037L282.234 51.9306C283.941 51.1321 285.702 50.4964 287.467 50.0544L287.648 51.574C285.93 52.0081 284.223 52.6206 282.559 53.4037Z" fill="#231F20"/>
<path d="M321.794 68.8859C321.417 68.2656 321.023 67.6532 320.635 67.0717C313.7 56.7295 304.399 50.9459 294.45 50.7831C292.53 50.7521 290.583 50.9381 288.68 51.3413L288.525 49.814C290.482 49.4031 292.477 49.2093 294.46 49.2403C304.692 49.4108 314.259 55.3572 321.39 65.9941C321.794 66.591 322.193 67.219 322.587 67.8625L321.794 68.8936V68.8859Z" fill="#231F20"/>
<path d="M329.16 87.2289C327.793 81.4221 325.767 76.0339 323.145 71.2194L323.975 70.2581C326.671 75.2121 328.755 80.7476 330.165 86.725L329.165 87.2289H329.16Z" fill="#231F20"/>
<path d="M330.053 91.6249C329.883 90.6403 329.691 89.648 329.484 88.6789L330.494 88.2214C330.707 89.2138 330.904 90.2294 331.079 91.245L330.053 91.6172V91.6249Z" fill="#231F20"/>
<path d="M317.965 147.615L317.311 146.406C318.306 145.259 319.268 144.026 320.178 142.731C321.512 140.832 322.757 138.762 323.879 136.575L324.73 137.498C323.576 139.739 322.294 141.871 320.922 143.832C319.991 145.158 318.997 146.429 317.971 147.615H317.965Z" fill="#231F20"/>
<path d="M297.125 159.221L297.061 157.679C301.624 157.275 306.037 155.64 310.191 152.81L310.637 154.205C306.367 157.12 301.82 158.803 297.125 159.221Z" fill="#231F20"/>
<path d="M310.036 60.3655C305.25 56.7217 299.858 54.7525 294.45 54.6595C290.413 54.582 286.425 55.5355 282.601 57.4737L282.25 56.0162C286.191 54.016 290.286 53.0314 294.46 53.1167C300.034 53.2175 305.591 55.2487 310.526 59.001L310.036 60.3733V60.3655Z" fill="#231F20"/>
<path d="M325.947 85.7793C324.272 79.8097 321.853 74.437 318.752 69.8163C316.45 66.3818 313.828 63.4513 310.956 61.1022L311.472 59.7532C314.434 62.172 317.136 65.1956 319.507 68.7387C322.698 73.5066 325.192 79.0421 326.921 85.1978L325.942 85.7793H325.947Z" fill="#231F20"/>
<path d="M327.979 96.0285C327.618 93.0281 327.059 90.0588 326.331 87.2058L327.325 86.6631C328.08 89.6091 328.654 92.6715 329.027 95.7649L327.984 96.0362L327.979 96.0285Z" fill="#231F20"/>
<path d="M319.39 140.576L318.641 139.483C318.885 139.119 319.13 138.754 319.369 138.382L320.146 139.436C319.901 139.816 319.651 140.196 319.396 140.568L319.39 140.576Z" fill="#231F20"/>
<path d="M296.205 155.407L296.162 153.864C301.746 153.546 307.245 151.166 312.052 146.98L312.594 148.305C307.633 152.624 301.964 155.081 296.199 155.407H296.205Z" fill="#231F20"/>
<path d="M279.501 63.5986L279.022 62.2186C279.342 61.9782 279.666 61.7534 279.996 61.5286L280.442 62.9318C280.129 63.1489 279.815 63.366 279.501 63.5986Z" fill="#231F20"/>
<path d="M305.867 61.8387C302.219 59.7222 298.38 58.6058 294.45 58.536C291.02 58.4663 287.616 59.2028 284.34 60.7146L284.021 59.2415C287.403 57.6755 290.913 56.9235 294.466 56.9855C298.528 57.063 302.496 58.2104 306.266 60.4045L305.872 61.8387H305.867Z" fill="#231F20"/>
<path d="M321.47 81.3292C320.188 78.1506 318.641 75.1968 316.87 72.5531C314.737 69.3667 312.307 66.6454 309.643 64.4669L310.159 63.1179C312.913 65.3662 315.429 68.1805 317.63 71.4754C319.454 74.2122 321.055 77.259 322.384 80.5462L321.47 81.3292Z" fill="#231F20"/>
<path d="M325.554 98.5016C325.086 93.4468 324.049 88.5703 322.475 84.0039L323.422 83.3062C325.049 88.0276 326.123 93.0669 326.607 98.2923L325.559 98.5016H325.554Z" fill="#231F20"/>
<path d="M295.598 151.562L295.577 150.019C303.341 149.763 310.707 145.274 316.317 137.39L317.051 138.498C311.249 146.654 303.634 151.298 295.604 151.562H295.598Z" fill="#231F20"/>
<path d="M323.039 100.541C322.401 91.09 319.545 82.12 314.993 75.2898C309.563 67.1416 302.267 62.5674 294.45 62.4046C288.69 62.2728 283.075 64.6142 278.204 69.1263L277.635 67.8238C282.681 63.1411 288.51 60.73 294.466 60.8618C302.565 61.0324 310.127 65.7693 315.753 74.2121C320.475 81.2982 323.438 90.5938 324.097 100.386L323.044 100.541H323.039Z" fill="#231F20"/>
<path d="M323.868 111.41L322.821 111.17C323.033 109.216 323.15 107.223 323.172 105.239C323.177 104.688 323.172 104.138 323.166 103.587L324.224 103.549C324.235 104.122 324.235 104.688 324.23 105.262C324.209 107.316 324.086 109.386 323.868 111.41Z" fill="#231F20"/>
<path d="M295.311 147.693L295.295 146.15C302.506 145.995 309.34 141.855 314.53 134.506C315.168 133.606 315.785 132.645 316.359 131.66L317.168 132.661C316.567 133.684 315.929 134.684 315.269 135.614C309.882 143.243 302.793 147.53 295.311 147.693Z" fill="#231F20"/>
<path d="M279.368 72.6461L278.788 71.3513C280.91 69.3356 283.213 67.7463 285.627 66.6299L285.946 68.1029C283.622 69.1728 281.41 70.7001 279.368 72.6461Z" fill="#231F20"/>
<path d="M291.035 66.5291L290.918 64.9941C291.631 64.8778 292.36 64.8002 293.083 64.7615L293.12 66.3043C292.429 66.3353 291.727 66.4128 291.041 66.5291H291.035Z" fill="#231F20"/>
<path d="M298.316 66.785C297.045 66.4827 295.742 66.3121 294.45 66.2888H294.163L294.168 64.7383H294.466C295.811 64.7693 297.162 64.9476 298.486 65.2577L298.316 66.785Z" fill="#231F20"/>
<path d="M308.898 72.8863C305.995 70.0333 302.777 68.0718 299.342 67.0562L299.555 65.5444C303.128 66.5988 306.473 68.6455 309.494 71.6071L308.904 72.8863H308.898Z" fill="#231F20"/>
<path d="M320.46 102.138C320.055 93.1134 317.444 84.5543 313.11 78.0342C312.318 76.848 311.467 75.7161 310.579 74.685L311.238 73.4756C312.164 74.5455 313.052 75.7161 313.871 76.9566C318.38 83.7403 321.092 92.6482 321.518 102.037L320.46 102.138Z" fill="#231F20"/>
<path d="M320.071 117.604L319.072 117.093C319.986 113.271 320.47 109.286 320.513 105.231C320.518 104.704 320.513 104.177 320.513 103.649L321.571 103.611C321.582 104.161 321.582 104.704 321.571 105.254C321.523 109.472 321.018 113.619 320.071 117.597V117.604Z" fill="#231F20"/>
<path d="M294.891 143.817C294.742 143.817 294.593 143.817 294.45 143.817C294.024 143.809 293.599 143.778 293.173 143.739L293.242 142.196C293.652 142.235 294.056 142.258 294.466 142.266C301.278 142.444 307.739 138.7 312.653 131.753C313.786 130.149 314.828 128.389 315.742 126.512L316.604 127.404C315.652 129.358 314.573 131.195 313.392 132.862C308.377 139.94 301.826 143.809 294.891 143.809V143.817Z" fill="#231F20"/>
<path d="M272.226 90.0744L271.274 89.3921C271.593 88.4463 271.939 87.5082 272.311 86.6089L273.221 87.3997C272.864 88.2602 272.529 89.1596 272.226 90.0666V90.0744Z" fill="#231F20"/>
<path d="M273.774 86.1204L272.891 85.2676C273.088 84.8256 273.295 84.3915 273.508 83.9651L274.369 84.8722C274.167 85.2831 273.97 85.7017 273.779 86.1204H273.774Z" fill="#231F20"/>
<path d="M277.836 79.2359L277.129 78.0884C278.746 75.9642 280.543 74.1578 282.479 72.708L282.963 74.0802C281.112 75.468 279.389 77.2046 277.836 79.2359Z" fill="#231F20"/>
<path d="M297.093 70.4441C296.747 70.3821 296.407 70.3278 296.056 70.2813L296.146 68.7385C296.508 68.785 296.869 68.8393 297.226 68.9091L297.093 70.4441Z" fill="#231F20"/>
<path d="M302.145 72.2118C301.491 71.8707 300.826 71.5683 300.156 71.3125L300.427 69.8162C301.124 70.0875 301.82 70.3976 302.501 70.7542L302.145 72.2118Z" fill="#231F20"/>
<path d="M294.891 139.948C294.742 139.948 294.593 139.948 294.444 139.948C294.131 139.94 293.822 139.925 293.514 139.894L293.572 138.351C293.87 138.374 294.162 138.39 294.46 138.397C300.56 138.553 306.356 135.227 310.77 129.024C315.227 122.752 317.742 114.31 317.854 105.239C317.965 96.0827 315.61 87.3918 311.228 80.7787C310.632 79.8794 309.994 79.0111 309.329 78.2125L310.004 77.0264C310.696 77.8637 311.361 78.763 311.988 79.7088C316.567 86.6243 319.029 95.7028 318.912 105.27C318.795 114.751 316.168 123.582 311.504 130.141C306.995 136.483 301.108 139.956 294.886 139.956L294.891 139.948Z" fill="#231F20"/>
<path d="M272.428 103.781L271.37 103.681C271.742 95.3153 274.22 87.5237 278.342 81.7324C282.436 75.9798 287.807 72.7004 293.466 72.4988L293.492 74.0416C288.1 74.2354 282.979 77.3675 279.076 82.8488C275.14 88.3687 272.779 95.8037 272.428 103.781Z" fill="#231F20"/>
<path d="M311.914 88.2678C311.169 86.5699 310.308 84.9728 309.345 83.5153C308.149 81.7012 306.798 80.1041 305.335 78.7629L305.899 77.4526C307.436 78.8559 308.856 80.5383 310.111 82.4454C311.121 83.9727 312.025 85.6551 312.807 87.4382L311.914 88.2678Z" fill="#231F20"/>
<path d="M313.392 92.2529C313.115 91.338 312.796 90.4309 312.456 89.5549L313.376 88.7874C313.738 89.7099 314.067 90.6635 314.36 91.6171L313.392 92.2451V92.2529Z" fill="#231F20"/>
<path d="M295.274 136.064L295.253 134.521C300.353 134.382 305.197 131.451 308.893 126.28C312.85 120.744 315.083 113.271 315.195 105.239C315.243 101.781 314.886 98.3699 314.137 95.0827L315.142 94.5942C315.929 98.0442 316.301 101.642 316.253 105.27C316.136 113.713 313.786 121.574 309.627 127.396C305.734 132.847 300.64 135.924 295.274 136.072V136.064Z" fill="#231F20"/>
<path d="M274.135 109.534C274.013 108.115 273.965 106.665 273.986 105.231C274.103 97.2999 276.316 89.9347 280.224 84.4768C284.09 79.0808 289.153 76.2045 294.471 76.3751C295.311 76.3984 296.162 76.5069 296.997 76.693L296.837 78.2203C296.045 78.0419 295.242 77.9412 294.444 77.9179C289.408 77.7628 284.617 80.4841 280.958 85.5932C277.257 90.7643 275.156 97.7495 275.045 105.27C275.023 106.626 275.071 107.999 275.188 109.348L274.135 109.534Z" fill="#231F20"/>
<path d="M295.178 132.188L295.162 130.645C299.587 130.544 303.799 128.017 307.016 123.535C310.467 118.729 312.43 112.232 312.536 105.231C312.648 98.145 310.845 91.4078 307.468 86.2522C305.373 83.0581 302.74 80.6392 299.847 79.2592L300.177 77.7939C303.23 79.2515 306.016 81.8099 308.228 85.1824C311.802 90.6326 313.706 97.7651 313.589 105.262C313.472 112.674 311.398 119.558 307.739 124.644C304.325 129.397 299.863 132.071 295.168 132.18L295.178 132.188Z" fill="#231F20"/>
<path d="M294.891 128.319C294.742 128.319 294.593 128.319 294.444 128.311H294.306L294.343 126.76H294.471C298.449 126.939 302.235 124.807 305.139 120.791C308.09 116.721 309.771 111.193 309.882 105.231C309.994 99.1838 308.468 93.4157 305.591 88.9966C302.671 84.5155 298.715 81.957 294.444 81.7942C290.116 81.6392 285.994 83.9573 282.835 88.3376C279.634 92.7799 277.81 98.7884 277.704 105.27C277.656 108.13 277.948 110.968 278.576 113.689L277.571 114.178C276.901 111.286 276.592 108.27 276.64 105.231C276.757 98.3387 278.693 91.9426 282.102 87.2134C285.462 82.554 289.855 80.0654 294.466 80.2514C299.018 80.422 303.235 83.151 306.351 87.9345C309.425 92.6559 311.052 98.8116 310.935 105.277C310.818 111.65 309.015 117.566 305.862 121.923C302.863 126.07 298.975 128.327 294.886 128.327L294.891 128.319Z" fill="#231F20"/>
<path d="M294.891 124.442C294.742 124.442 294.588 124.442 294.439 124.435C293.843 124.404 293.243 124.318 292.658 124.171L292.838 122.652C293.381 122.783 293.934 122.869 294.476 122.9C297.741 123.062 300.858 121.341 303.261 118.054C305.708 114.713 307.117 110.154 307.223 105.231C307.335 100.215 306.085 95.4237 303.708 91.7334C301.289 87.9811 297.997 85.8335 294.444 85.6707C290.823 85.5079 287.372 87.4306 284.718 91.0822C282.022 94.788 280.474 99.8273 280.368 105.278C280.32 107.766 280.575 110.224 281.134 112.588L280.134 113.092C279.533 110.557 279.256 107.913 279.31 105.231C279.427 99.3777 281.091 93.9507 283.995 89.958C286.856 86.0274 290.584 83.9574 294.482 84.1279C298.321 84.2985 301.873 86.6243 304.485 90.6713C307.053 94.6562 308.404 99.8428 308.287 105.27C308.17 110.611 306.644 115.55 303.99 119.171C301.491 122.582 298.279 124.442 294.896 124.442H294.891Z" fill="#231F20"/>
<path d="M294.87 120.566C294.726 120.566 294.577 120.566 294.434 120.551C293.381 120.489 292.344 120.194 291.355 119.675L291.711 118.217C292.599 118.682 293.535 118.946 294.482 119.008C296.986 119.171 299.512 117.814 301.384 115.294C303.299 112.72 304.458 109.046 304.564 105.208C304.671 101.285 303.671 97.3698 301.826 94.4547C299.938 91.4777 297.247 89.6868 294.439 89.5317C291.573 89.3767 288.712 90.935 286.595 93.8113C284.399 96.7883 283.133 100.859 283.027 105.262C282.963 107.999 283.362 110.759 284.192 113.232L283.24 113.914C282.336 111.209 281.894 108.2 281.963 105.208C282.08 100.386 283.468 95.9355 285.872 92.6794C288.196 89.5317 291.328 87.8184 294.476 87.9889C297.561 88.1595 300.523 90.1287 302.602 93.4004C304.639 96.61 305.74 100.936 305.623 105.262C305.506 109.503 304.224 113.573 302.102 116.418C300.135 119.062 297.518 120.551 294.87 120.551V120.566Z" fill="#231F20"/>
<path d="M294.87 116.697C294.721 116.697 294.572 116.697 294.423 116.682C292.386 116.511 290.456 115.155 289.121 112.961C287.829 110.829 287.154 108.006 287.276 105.208C287.393 102.494 288.254 99.9281 289.637 98.1682C290.977 96.4626 292.743 95.5865 294.487 95.7648C296.173 95.9354 297.763 97.0906 298.848 98.928C299.895 100.703 300.422 103.029 300.294 105.316C300.172 107.518 299.454 109.588 298.316 110.984C297.226 112.325 295.795 112.992 294.402 112.805C293.067 112.627 291.817 111.674 290.988 110.193C290.19 108.782 289.807 106.944 289.935 105.169C290.057 103.471 290.642 101.913 291.536 100.874C292.381 99.8893 293.471 99.4397 294.519 99.6335C295.508 99.8195 296.407 100.572 296.992 101.696C297.539 102.758 297.773 104.099 297.635 105.363C297.508 106.549 297.056 107.611 296.401 108.27C295.79 108.883 295.04 109.115 294.343 108.898C293.7 108.696 293.142 108.131 292.822 107.34C292.525 106.611 292.45 105.758 292.62 104.998C292.775 104.301 293.115 103.75 293.551 103.487C293.955 103.246 294.397 103.293 294.737 103.611C295.072 103.921 295.258 104.456 295.216 104.983C295.168 105.564 294.838 106.006 294.455 106.006V104.463C294.29 104.463 294.179 104.634 294.163 104.805C294.157 104.874 294.168 104.921 294.179 104.929C294.131 104.882 294.046 104.867 293.95 104.929C293.806 105.014 293.689 105.215 293.631 105.471C293.556 105.812 293.594 106.208 293.737 106.557C293.907 106.975 294.21 107.278 294.567 107.386C294.982 107.518 295.428 107.371 295.801 106.999C296.221 106.58 296.508 105.89 296.593 105.115C296.689 104.254 296.524 103.347 296.151 102.618C295.742 101.82 295.099 101.293 294.391 101.161C293.625 101.021 292.828 101.355 292.2 102.076C291.53 102.851 291.089 104.037 290.993 105.324C290.892 106.696 291.19 108.107 291.807 109.208C292.461 110.371 293.445 111.123 294.503 111.263C295.62 111.418 296.763 110.875 297.641 109.797C298.566 108.665 299.151 106.983 299.247 105.184C299.348 103.301 298.911 101.386 298.05 99.9281C297.146 98.4008 295.827 97.4394 294.418 97.2999C292.95 97.1448 291.466 97.8891 290.339 99.3234C289.169 100.82 288.435 102.998 288.34 105.301C288.233 107.689 288.813 110.107 289.919 111.937C291.068 113.829 292.732 114.992 294.487 115.139C296.3 115.286 298.13 114.348 299.507 112.557C300.927 110.704 301.799 108.03 301.9 105.208C302.007 102.308 301.289 99.3854 299.933 97.1991C298.539 94.9508 296.529 93.5708 294.423 93.4235C292.253 93.2607 290.084 94.4158 288.462 96.5711C286.792 98.7807 285.776 101.959 285.675 105.285C285.606 107.441 285.92 109.619 286.579 111.573L285.627 112.255C284.894 110.069 284.543 107.634 284.617 105.215C284.734 101.486 285.877 97.9124 287.749 95.4315C289.579 93.0048 292.025 91.7101 294.476 91.8807C296.859 92.0512 299.135 93.6096 300.72 96.168C302.262 98.6566 303.075 101.983 302.958 105.293C302.841 108.518 301.842 111.581 300.209 113.705C298.736 115.627 296.811 116.697 294.865 116.697H294.87Z" fill="#231F20"/>
<path d="M246.764 159.842C238.5 144.282 234.006 124.892 234.102 105.239V104.51L235.166 104.533V105.247C235.065 124.551 239.484 143.607 247.604 158.896L246.764 159.842Z" fill="#231F20"/>
<path d="M243.871 60.7919L242.967 59.9856C243.153 59.5437 243.345 59.1018 243.536 58.6599L244.429 59.4895C244.243 59.9236 244.052 60.3578 243.871 60.7919Z" fill="#231F20"/>
<path d="M245.004 58.1948L244.121 57.342C244.515 56.4737 244.924 55.6054 245.339 54.7681L246.2 55.6674C245.796 56.4969 245.392 57.3497 245.004 58.1948Z" fill="#231F20"/>
<path d="M246.817 54.427L245.966 53.5044C246.817 51.8375 247.716 50.1939 248.647 48.6201L249.45 49.628C248.535 51.1785 247.652 52.7911 246.817 54.427Z" fill="#231F20"/>
<path d="M255.39 40.906L254.693 39.7431C261.697 30.8351 270.157 24.3383 279.155 20.9658L279.421 22.4621C270.583 25.7726 262.271 32.1531 255.39 40.906Z" fill="#231F20"/>
<path d="M316.609 22.183C315.636 21.6171 314.636 21.0821 313.642 20.5937L313.982 19.1284C314.993 19.6246 316.014 20.175 317.003 20.7488L316.615 22.183H316.609Z" fill="#231F20"/>
<path d="M322.358 26.0207C321.736 25.5478 321.103 25.0826 320.47 24.6484L320.928 23.2529C321.571 23.7026 322.214 24.1755 322.847 24.6562L322.358 26.0284V26.0207Z" fill="#231F20"/>
<path d="M354.515 92.5475C352.734 73.7469 346.714 55.9388 337.556 42.4024C333.6 36.5568 329.112 31.5407 324.208 27.486L324.73 26.1448C329.718 30.2693 334.286 35.3706 338.306 41.317C347.623 55.086 353.749 73.2042 355.557 92.3381L354.51 92.5475H354.515Z" fill="#231F20"/>
<path d="M245.477 163.718C236.325 147.205 231.342 126.435 231.438 105.239C231.438 104.929 231.438 104.626 231.443 104.316L232.501 104.347C232.501 104.65 232.496 104.952 232.496 105.254C232.4 126.094 237.298 146.515 246.296 162.749L245.472 163.718H245.477Z" fill="#231F20"/>
<path d="M232.821 96.6797L231.768 96.5246C231.837 95.5013 231.927 94.4546 232.023 93.4158L233.07 93.6251C232.975 94.6485 232.89 95.6718 232.821 96.6797Z" fill="#231F20"/>
<path d="M239.893 63.0947L238.963 62.3582C240.994 56.8537 243.424 51.6438 246.184 46.8604L246.993 47.8527C244.281 52.5509 241.893 57.6755 239.893 63.087V63.0947Z" fill="#231F20"/>
<path d="M255.246 36.0141L254.576 34.8202C260.867 27.3543 267.983 21.811 275.736 18.3533L276.045 19.8263C268.424 23.2298 261.426 28.68 255.246 36.0141Z" fill="#231F20"/>
<path d="M357.589 98.2924C356.547 76.2434 350.101 55.4194 339.434 39.6657C336.408 35.1924 333.052 31.1532 329.468 27.6644L330.058 26.3774C333.706 29.9282 337.115 34.0294 340.189 38.5726C351.032 54.5899 357.589 75.7627 358.647 98.1838L357.589 98.2924Z" fill="#231F20"/>
<path d="M243.419 166.176C233.884 148.972 228.683 127.334 228.784 105.246C228.784 104.27 228.805 103.285 228.827 102.308L229.885 102.362C229.858 103.324 229.848 104.285 229.842 105.246C229.747 126.977 234.857 148.274 244.243 165.199L243.419 166.168V166.176Z" fill="#231F20"/>
<path d="M230.177 96.23L229.125 96.075C229.199 95.0439 229.284 94.005 229.38 92.9739L230.427 93.1832C230.332 94.1988 230.252 95.2144 230.177 96.2378V96.23Z" fill="#231F20"/>
<path d="M235.698 66.6841L234.735 66.0406C234.884 65.5677 235.033 65.0947 235.187 64.6218L236.144 65.2886C235.99 65.7537 235.847 66.2189 235.698 66.6841Z" fill="#231F20"/>
<path d="M236.607 63.9085L235.66 63.2185C238.537 54.799 242.244 47.0695 246.674 40.2393L247.445 41.3014C243.084 48.0231 239.441 55.6286 236.612 63.9085H236.607Z" fill="#231F20"/>
<path d="M250.439 36.9678L249.721 35.8359C249.981 35.4792 250.247 35.1304 250.513 34.7815L251.22 35.9289C250.96 36.27 250.699 36.6189 250.439 36.9678Z" fill="#231F20"/>
<path d="M256.134 30.1219L255.507 28.8737C259.394 24.7183 263.611 21.183 268.03 18.3765L268.456 19.7952C264.106 22.5552 259.963 26.0285 256.134 30.1219Z" fill="#231F20"/>
<path d="M361.45 106.185L360.392 106.161C360.392 105.859 360.397 105.549 360.397 105.246C360.509 79.5227 353.734 55.2564 341.316 36.9211C338.556 32.8431 335.525 29.1063 332.318 25.8113L332.93 24.5476C336.19 27.8968 339.269 31.6957 342.077 35.8357C354.691 54.4656 361.577 79.1195 361.466 105.254C361.466 105.564 361.466 105.874 361.46 106.185H361.45Z" fill="#231F20"/>
<path d="M241.787 169.393C231.587 151.368 226.019 128.582 226.12 105.247V104.417L227.184 104.44V105.262C227.077 128.241 232.555 150.67 242.6 168.416L241.781 169.401L241.787 169.393Z" fill="#231F20"/>
<path d="M227.699 93.6948L226.646 93.501C226.689 92.9816 226.737 92.4699 226.79 91.9504L227.838 92.1675C227.79 92.6714 227.742 93.1831 227.699 93.6948Z" fill="#231F20"/>
<path d="M232.262 68.4828L231.284 67.8936C234.161 57.7297 238.144 48.4031 243.127 40.1619L243.924 41.1852C239.021 49.3024 235.102 58.4817 232.268 68.4906L232.262 68.4828Z" fill="#231F20"/>
<path d="M244.621 40.0378L243.839 38.9989C244.658 37.6887 245.509 36.394 246.376 35.1458C247.03 34.2 247.705 33.2696 248.386 32.3625L249.099 33.5022C248.428 34.386 247.764 35.3086 247.12 36.2389C246.269 37.4639 245.429 38.7353 244.626 40.0301L244.621 40.0378Z" fill="#231F20"/>
<path d="M255.682 25.8191L255.076 24.5554C257.118 22.4699 259.256 20.5239 261.441 18.7795L261.952 20.1363C259.804 21.8574 257.692 23.7723 255.682 25.8268V25.8191Z" fill="#231F20"/>
<path d="M363.051 103.13C362.785 77.166 355.733 52.6827 343.199 34.1768C339.689 28.9979 335.786 24.3695 331.595 20.4156L332.17 19.1208C336.424 23.1368 340.386 27.835 343.949 33.0914C356.68 51.8764 363.838 76.7396 364.109 103.107L363.051 103.13Z" fill="#231F20"/>
<path d="M240.399 173.006C236.463 166.253 233.134 158.78 230.497 150.802L231.448 150.135C234.044 157.997 237.325 165.362 241.202 172.014L240.393 173.014L240.399 173.006Z" fill="#231F20"/>
<path d="M227.604 140.715C224.945 129.877 223.557 118.542 223.466 107.045L224.525 107.03C224.615 118.364 225.987 129.52 228.603 140.204L227.604 140.723V140.715Z" fill="#231F20"/>
<path d="M225.062 93.2064L224.009 93.0126C224.099 91.9814 224.195 90.9503 224.307 89.9192L225.354 90.1595C225.248 91.1751 225.147 92.1908 225.062 93.2064Z" fill="#231F20"/>
<path d="M227.763 75.1966L226.753 74.7314C229.688 61.1873 234.405 48.8914 240.782 38.177L241.579 39.1926C235.299 49.7442 230.651 61.8618 227.758 75.1966H227.763Z" fill="#231F20"/>
<path d="M242.281 38.0299L241.494 36.9988C242.457 35.4327 243.467 33.8821 244.493 32.4014C245.488 30.9671 246.53 29.5561 247.583 28.2148L248.28 29.3778C247.243 30.7035 246.222 32.0912 245.238 33.5022C244.222 34.9598 243.228 36.4871 242.281 38.0299Z" fill="#231F20"/>
<path d="M251.534 25.4624L250.885 24.2375C252.571 22.3303 254.342 20.5162 256.14 18.8416L256.709 20.144C254.938 21.7954 253.193 23.5785 251.534 25.4547V25.4624Z" fill="#231F20"/>
<path d="M366.725 108.627L365.667 108.565C365.694 107.448 365.715 106.332 365.715 105.239C365.827 77.445 358.498 51.2328 345.076 31.4321C342.683 27.9046 340.093 24.5942 337.381 21.6016L338.019 20.3689C340.774 23.408 343.401 26.765 345.826 30.3467C359.445 50.442 366.885 77.0418 366.773 105.246C366.773 106.355 366.752 107.487 366.72 108.627H366.725Z" fill="#231F20"/>
<path d="M239.447 177.324C236.368 172.269 233.602 166.773 231.23 160.974L232.14 160.183C234.48 165.897 237.202 171.324 240.239 176.301L239.447 177.324Z" fill="#231F20"/>
<path d="M223.323 133.73C223.232 133.226 223.142 132.722 223.052 132.219L224.078 131.839C224.163 132.335 224.253 132.831 224.344 133.327L223.323 133.73Z" fill="#231F20"/>
<path d="M222.796 130.699C222.222 127.164 221.765 123.551 221.435 119.954L222.482 119.752C222.807 123.295 223.254 126.861 223.823 130.342L222.791 130.699H222.796Z" fill="#231F20"/>
<path d="M220.834 109.061C220.813 108.022 220.802 106.983 220.802 105.937H221.86C221.86 106.96 221.871 107.991 221.892 109.014L220.834 109.061Z" fill="#231F20"/>
<path d="M222.621 90.5938L221.573 90.369C221.626 89.8573 221.68 89.3379 221.738 88.8262L222.786 89.0743C222.733 89.5782 222.674 90.0899 222.626 90.5938H222.621Z" fill="#231F20"/>
<path d="M223.147 86.0429L222.105 85.756C223.86 72.3592 227.295 59.7376 232.321 48.2402L233.214 49.0698C228.263 60.3966 224.87 72.8398 223.142 86.0429H223.147Z" fill="#231F20"/>
<path d="M238.165 39.0919L237.346 38.115C237.57 37.7119 237.798 37.3087 238.027 36.9133L238.841 37.9057C238.612 38.3011 238.388 38.6965 238.165 39.0919Z" fill="#231F20"/>
<path d="M241.648 33.3161L240.877 32.254C241.441 31.3857 242.026 30.5096 242.616 29.6646C243.547 28.3233 244.52 26.9976 245.493 25.7339L246.195 26.8891C245.233 28.1373 244.275 29.4397 243.361 30.7655C242.781 31.6028 242.207 32.4556 241.648 33.3161Z" fill="#231F20"/>
<path d="M246.987 25.8735L246.296 24.7029C248.046 22.5011 249.891 20.4001 251.779 18.4541L252.39 19.7178C250.529 21.6405 248.71 23.7105 246.987 25.8813V25.8735Z" fill="#231F20"/>
<path d="M367.821 91.4466C365.827 67.8859 358.419 45.6043 346.959 28.7032C345.996 27.2845 345.002 25.8967 343.997 24.571L344.709 23.4236C345.73 24.7726 346.741 26.1836 347.714 27.6178C359.339 44.7593 366.858 67.3587 368.874 91.2605L367.821 91.4466Z" fill="#231F20"/>
<path d="M244.467 190.008C244.196 189.667 243.93 189.326 243.664 188.977L244.371 187.829C244.632 188.17 244.898 188.512 245.163 188.845L244.467 190.008Z" fill="#231F20"/>
<path d="M239.803 183.573C236.325 178.355 233.182 172.618 230.465 166.517L231.353 165.679C234.033 171.696 237.128 177.355 240.558 182.503L239.798 183.581L239.803 183.573Z" fill="#231F20"/>
<path d="M218.143 105.983V105.247C218.154 102.898 218.212 100.525 218.324 98.1838L219.382 98.2924C219.27 100.603 219.212 102.944 219.201 105.254V105.983H218.143Z" fill="#231F20"/>
<path d="M221.073 81.5462L220.042 81.2051C221.951 68.9634 225.243 57.3652 229.821 46.7439L230.72 47.5657C226.205 58.0397 222.956 69.4751 221.073 81.5462Z" fill="#231F20"/>
<path d="M234.958 38.7429L234.124 37.7971C235.214 35.7504 236.368 33.7269 237.554 31.8042L238.341 32.8353C237.171 34.7348 236.038 36.7272 234.958 38.7429Z" fill="#231F20"/>
<path d="M239.048 31.6881L238.266 30.6415C239.064 29.3778 239.893 28.1296 240.728 26.9201C242.675 24.1136 244.749 21.4389 246.886 18.958L247.546 20.1674C245.435 22.6096 243.393 25.2533 241.473 28.021C240.649 29.2072 239.83 30.4476 239.043 31.6881H239.048Z" fill="#231F20"/>
<path d="M370.506 91.5472C368.565 67.5446 361.168 44.7048 349.681 27.23L350.447 26.1602C362.093 43.8753 369.586 67.0329 371.559 91.3689L370.506 91.5472Z" fill="#231F20"/>
<path d="M241.989 191.993C240.755 190.388 239.542 188.713 238.378 187C236.192 183.782 234.118 180.34 232.209 176.766L233.044 175.82C234.926 179.34 236.974 182.736 239.128 185.914C240.276 187.605 241.473 189.264 242.691 190.845L241.983 192L241.989 191.993Z" fill="#231F20"/>
<path d="M216.574 102.657L215.516 102.611C215.585 98.9824 215.777 95.3153 216.08 91.718L217.133 91.9118C216.83 95.4626 216.644 99.0754 216.574 102.657Z" fill="#231F20"/>
<path d="M218.388 81.2904L217.351 80.957C219.292 68.1882 222.685 56.0938 227.428 45.0073L228.327 45.8214C223.647 56.7606 220.297 68.6921 218.382 81.2904H218.388Z" fill="#231F20"/>
<path d="M230.667 40.6889L229.8 39.8051C231.433 36.4094 233.214 33.1067 235.097 29.9978L235.894 31.0212C234.044 34.0913 232.284 37.3475 230.672 40.6967L230.667 40.6889Z" fill="#231F20"/>
<path d="M237.304 28.7265L236.527 27.6721C236.772 27.2922 237.016 26.9124 237.261 26.5325L238.027 27.6024C237.782 27.9745 237.543 28.3466 237.304 28.7265Z" fill="#231F20"/>
<path d="M238.766 26.5014L238.011 25.4238C238.287 25.0051 238.569 24.5942 238.856 24.1911C240.09 22.4157 241.382 20.6713 242.69 19.0122L243.382 20.1829C242.09 21.8187 240.813 23.5321 239.595 25.292C239.314 25.6951 239.037 26.0983 238.761 26.5092L238.766 26.5014Z" fill="#231F20"/>
<path d="M373.091 90.3611C371.065 66.6298 364.173 44.7049 353.149 26.9588L353.936 25.9199C365.103 43.9064 372.091 66.1259 374.144 90.1751L373.091 90.3689V90.3611Z" fill="#231F20"/>
<path d="M213.963 100.665L212.905 100.595C212.969 98.5326 213.07 96.4316 213.208 94.3694L214.261 94.5167C214.128 96.5557 214.027 98.6257 213.963 100.665Z" fill="#231F20"/>
<path d="M215.739 80.8329L214.702 80.5073C217.441 62.203 223.206 44.8755 231.358 30.4165L232.177 31.4011C224.126 45.674 218.441 62.7689 215.739 80.8329Z" fill="#231F20"/>
<path d="M232.853 30.2151L232.044 29.215C233.602 26.5325 235.256 23.9121 236.974 21.4389L237.24 21.0513L237.979 22.1522L237.713 22.5321C236.022 24.9742 234.384 27.5559 232.847 30.2073L232.853 30.2151Z" fill="#231F20"/>
<path d="M373.383 72.7702C370.347 56.7839 365.172 42.1467 357.999 29.2615L358.823 28.2847C366.087 41.3326 371.331 56.1637 374.404 72.3593L373.383 72.7702Z" fill="#231F20"/>
<path d="M211.379 98.5093L210.321 98.4162C210.406 96.3462 210.528 94.253 210.687 92.1985L211.74 92.369C211.586 94.4003 211.464 96.4625 211.379 98.5093Z" fill="#231F20"/>
<path d="M212.687 83.2285L211.645 82.9417C214.527 60.8152 221.525 40.2936 231.874 23.6018L232.661 24.6407C222.44 41.1231 215.532 61.3812 212.687 83.2285Z" fill="#231F20"/>
<path d="M208.746 97.7651L207.688 97.6643C208.832 71.9095 215.234 47.6123 226.205 27.3853L227.035 28.3466C216.202 48.3256 209.879 72.3282 208.746 97.7729V97.7651Z" fill="#231F20"/>
<path d="M227.7 27.1371L226.875 26.168C227.322 25.3617 227.779 24.5632 228.242 23.7646L229.05 24.7648C228.593 25.5478 228.141 26.3386 227.7 27.1371Z" fill="#231F20"/>
<path d="M206.119 96.9122L205.061 96.8036C206.284 71.1109 212.618 46.7516 223.376 26.354L224.216 27.2921C213.586 47.4494 207.326 71.5218 206.114 96.9044L206.119 96.9122Z" fill="#231F20"/>
<path d="M224.87 26.0829L224.041 25.1293C224.482 24.3152 224.929 23.5012 225.386 22.7026L226.205 23.6872C225.753 24.478 225.312 25.2766 224.876 26.0829H224.87Z" fill="#231F20"/>
<path d="M203.795 91.3691L202.742 91.1986C204.338 70.0024 209.448 49.4033 217.526 31.6416L218.409 32.4944C210.427 50.0545 205.369 70.4133 203.795 91.3691Z" fill="#231F20"/>
<path d="M218.994 31.2151L218.116 30.3468C218.712 29.0676 219.334 27.7806 219.967 26.5247L220.823 27.4395C220.201 28.6877 219.584 29.9591 218.994 31.2151Z" fill="#231F20"/>
<path d="M201.195 90.3688L200.142 90.1905C200.222 89.1594 200.312 88.1283 200.408 87.0972L201.456 87.3065C201.36 88.3221 201.275 89.3455 201.195 90.3688Z" fill="#231F20"/>
<path d="M201.769 84.2598L200.722 84.0195C202.828 64.8313 207.571 46.8526 214.83 30.564L215.718 31.4013C208.544 47.5038 203.849 65.2887 201.764 84.2598H201.769Z" fill="#231F20"/>
<path d="M199.025 84.7248L197.978 84.4922C199.977 65.304 204.561 47.2245 211.597 30.7576L212.496 31.5716C205.54 47.8602 201.004 65.7459 199.025 84.7248Z" fill="#231F20"/>
<path d="M196.622 82.089L195.579 81.8331C195.638 81.3215 195.696 80.8098 195.76 80.2981L196.802 80.5694C196.739 81.0734 196.68 81.5851 196.622 82.089Z" fill="#231F20"/>
<path d="M197.409 76.0262L196.372 75.7083C198.664 59.8771 202.716 44.8057 208.411 30.9204L209.321 31.7112C203.684 45.4491 199.674 60.3578 197.409 76.0262Z" fill="#231F20"/>
<path d="M195.829 68.8704L194.803 68.4828C194.893 67.9789 194.984 67.4749 195.074 66.9788L196.095 67.3819C196.005 67.8781 195.914 68.3743 195.824 68.8704H195.829Z" fill="#231F20"/>
<path d="M200.142 49.8529L199.164 49.2714C201.041 42.5575 203.274 35.9831 205.8 29.7344L206.715 30.5174C204.216 36.6964 202.003 43.201 200.142 49.8529Z" fill="#231F20"/>
<path d="M198.845 44.4027L197.877 43.7825C199.313 39.0455 200.929 34.3628 202.679 29.8662L203.599 30.6337C201.865 35.0838 200.264 39.72 198.845 44.4104V44.4027Z" fill="#231F20"/>
<path d="M196.308 43.1777L195.34 42.5574C196.765 37.8205 198.371 33.13 200.11 28.6179L201.036 29.3777C199.313 33.8433 197.723 38.4872 196.313 43.1777H196.308Z" fill="#231F20"/>
<path d="M193.362 43.3481L192.389 42.7434C193.638 38.4561 195.026 34.1998 196.526 30.0908L197.462 30.8118C195.978 34.882 194.601 39.0996 193.362 43.3403V43.3481Z" fill="#231F20"/>
<path d="M189.645 46.3717L188.656 45.8135C189.942 40.9913 191.405 36.2078 193 31.5872L193.947 32.2772C192.367 36.8591 190.921 41.596 189.645 46.3717Z" fill="#231F20"/>
<path d="M186.385 47.9766L185.39 47.4416C186.491 43.0768 187.735 38.7197 189.081 34.5022L190.043 35.1534C188.709 39.3322 187.48 43.6505 186.39 47.9766H186.385Z" fill="#231F20"/>
<path d="M183.524 48.1239L182.524 47.6044C182.646 47.116 182.763 46.6276 182.886 46.1392L183.88 46.6741C183.758 47.1548 183.635 47.6432 183.518 48.1239H183.524Z" fill="#231F20"/>
<path d="M184.252 45.2245L183.263 44.6818C183.763 42.7513 184.295 40.8054 184.843 38.8982L185.821 39.4952C185.279 41.3868 184.747 43.3173 184.252 45.2322V45.2245Z" fill="#231F20"/>
<path d="M186.656 36.6576L185.688 36.0374C185.832 35.5645 185.975 35.0916 186.124 34.6187L187.092 35.2544C186.948 35.7273 186.805 36.1925 186.661 36.6654L186.656 36.6576Z" fill="#231F20"/>
<path d="M180.328 49.7209L179.323 49.2247C179.434 48.7363 179.551 48.2401 179.668 47.7517L180.668 48.2556C180.551 48.7441 180.439 49.2325 180.328 49.7132V49.7209Z" fill="#231F20"/>
</g>
<defs>
<linearGradient id="paint0_linear_2320_1569" x1="-1.9133" y1="81.6059" x2="334.961" y2="262.643" gradientUnits="userSpaceOnUse">
<stop stop-color="#70499B"/>
<stop offset="0.57" stop-color="#A62D82"/>
<stop offset="1" stop-color="#CB1A71"/>
</linearGradient>
<clipPath id="clip0_2320_1569">
<rect x="179.323" y="18.3455" width="178.677" height="173.647" rx="24" fill="white"/>
</clipPath>
</defs>
</svg>
