<svg width="30" height="32" viewBox="0 0 30 32" fill="none" xmlns="http://www.w3.org/2000/svg">
<path d="M14.6873 5.33125C7.3248 5.33125 1.35605 11.3 1.35605 18.6625C1.35605 26.0312 7.3248 32 14.6873 32C22.0498 32 28.0186 26.0312 28.0186 18.6688C28.0186 11.3063 22.0498 5.33125 14.6873 5.33125ZM21.3561 20H13.3561V9.33125H16.0248V17.3312H21.3561V20ZM27.6061 9.25625C28.6748 8.28125 29.3498 6.89375 29.3498 5.33125C29.3498 2.3875 26.9623 0 24.0186 0C21.7936 0 19.8936 1.3625 19.0936 3.29375C22.5623 4.2875 25.5373 6.41875 27.6061 9.25625ZM10.2811 3.29375C9.4748 1.3625 7.5748 0 5.35605 0C2.40605 0 0.0185547 2.3875 0.0185547 5.33125C0.0185547 6.8875 0.699805 8.28125 1.7623 9.25625C3.8373 6.41875 6.8123 4.2875 10.2811 3.29375Z" fill="white"/>
</svg>
