<svg width="27" height="30" viewBox="0 0 27 30" fill="none" xmlns="http://www.w3.org/2000/svg">
<g clip-path="url(#clip0_904_1320)">
<path d="M1.99516 30C1.93095 29.906 1.81976 29.9303 1.73206 29.9029C0.703949 29.5826 0.0195863 28.69 0.00940695 27.6133C-0.00077236 26.6369 0.00940695 25.6605 0.00940695 24.684C0.00940695 17.3027 0.00940695 9.92091 0.00940695 2.53855C0.00940695 1.20741 0.808091 0.238812 2.07581 0.0289618C2.23151 0.00827091 2.3886 -0.000107899 2.54562 0.00390444C6.88149 0.00390444 11.2171 0.00390444 15.5524 0.00390444C15.8434 -0.00189425 16.1325 0.0526515 16.4013 0.164103C16.6702 0.275555 16.913 0.441496 17.1146 0.651466C18.5736 2.1199 20.0371 3.58363 21.505 5.04266C21.7139 5.24145 21.8789 5.48188 21.989 5.7484C22.0992 6.01493 22.1523 6.30161 22.1447 6.58992C22.1384 7.23435 22.1447 7.87878 22.1447 8.52321C22.1447 8.86617 21.9811 9.07132 21.714 9.07837C21.447 9.08542 21.2677 8.87478 21.2669 8.51538C21.2669 7.87095 21.2591 7.22652 21.2709 6.58209C21.2756 6.36754 21.2176 6.29707 20.9937 6.30098C20.1245 6.31351 19.2554 6.31116 18.3862 6.3049C16.8468 6.29316 15.8437 5.28697 15.8398 3.74911C15.8398 2.87995 15.8335 2.0108 15.8437 1.14164C15.8437 0.938835 15.7905 0.878542 15.5845 0.878542C11.1912 0.884284 6.79718 0.886634 2.40233 0.88559C1.55588 0.88559 0.908319 1.54255 0.884828 2.38821C0.884828 2.46651 0.884828 2.54482 0.884828 2.62312V27.3737C0.884828 28.5287 1.47679 29.1214 2.63019 29.1214H19.5294C20.6624 29.1214 21.2646 28.5216 21.2646 27.391V17.7833C21.2646 17.6956 21.2591 17.6071 21.2646 17.5202C21.2881 17.2719 21.4251 17.1239 21.6757 17.1091C21.9262 17.0942 22.0758 17.2398 22.1306 17.4755C22.1436 17.5626 22.1468 17.6508 22.14 17.7386C22.14 20.9699 22.14 24.202 22.14 27.4348C22.14 28.7785 21.4353 29.6609 20.1308 29.9608C20.1159 29.9608 20.1057 29.9867 20.094 30H1.99516Z" fill="#9D4F91"/>
<path d="M12.1743 25.0818C12.1851 25.0025 12.2013 24.924 12.2229 24.8469C12.7232 23.3435 13.37 21.9223 14.3065 20.6233C17.1254 16.7082 19.9161 12.7664 22.713 8.8333C22.9182 8.54515 23.1414 8.30085 23.5141 8.25387C23.6151 8.24134 23.6589 8.16382 23.709 8.09256C23.8907 7.83808 24.0669 7.58125 24.2532 7.33068C24.5508 6.93056 25.0237 6.83894 25.4427 7.1083C25.6776 7.26491 25.9125 7.42151 26.1325 7.60004C26.5178 7.9062 26.5835 8.35644 26.3142 8.77458C26.2186 8.92179 26.1121 9.06195 26.0119 9.20602C25.8326 9.46364 25.6157 9.69307 25.6799 10.0627C25.7159 10.2733 25.5946 10.4831 25.4489 10.6468C25.3229 10.7893 25.3706 10.8606 25.5053 10.96C26.4888 11.6827 26.5428 12.0296 25.8397 13.0209C25.3093 13.769 24.7779 14.516 24.2454 15.2619C24.0974 15.4694 23.9009 15.5532 23.6621 15.4358C23.4232 15.3183 23.3786 15.1226 23.4506 14.8916C23.4897 14.802 23.5426 14.719 23.6073 14.6457C24.1608 13.8666 24.7074 13.0796 25.2743 12.3131C25.438 12.0907 25.4434 11.9646 25.196 11.8064C24.8092 11.5559 24.8178 11.5418 24.5453 11.9247C21.9081 15.6253 19.2719 19.3261 16.6368 23.0272C15.8216 24.172 14.7575 25.0576 13.6613 25.9079C13.3582 26.1428 13.009 26.1585 12.67 25.9721C12.345 25.7866 12.1743 25.5055 12.1743 25.0818Z" fill="#9D4F91"/>
<path d="M6.65014 25.8281C6.7723 25.8484 6.83729 25.7443 6.92734 25.6988C7.1873 25.5673 7.44022 25.4201 7.70331 25.2948C8.41508 24.9573 9.10806 24.998 9.75092 25.4577C10.4361 25.9471 11.1737 26.2524 12.0295 26.2493C12.0862 26.2479 12.1426 26.2583 12.195 26.2799C12.2474 26.3015 12.2947 26.3339 12.3339 26.3749C12.373 26.4159 12.4032 26.4646 12.4224 26.518C12.4415 26.5713 12.4494 26.6281 12.4453 26.6847C12.4453 26.9384 12.2495 27.1216 11.9583 27.1193C11.2029 27.1269 10.4603 26.9249 9.81278 26.5359C9.62172 26.4192 9.42988 26.301 9.24665 26.1741C8.89507 25.9267 8.53097 25.9064 8.13789 26.0653C7.60857 26.2783 7.14345 26.5978 6.68303 26.9266C6.51609 27.0623 6.33175 27.175 6.13491 27.2618C6.0429 27.3033 5.94096 27.3177 5.84103 27.3034C5.74111 27.289 5.64735 27.2465 5.57075 27.1807C5.49416 27.115 5.43789 27.0287 5.40856 26.9321C5.37922 26.8355 5.37804 26.7326 5.40514 26.6353C5.49205 26.2438 5.68311 25.8883 5.83737 25.5211C6.00258 25.1296 6.18503 24.7381 6.2876 24.3199C6.3338 24.1289 6.25159 24.1124 6.11142 24.1524C5.86062 24.2341 5.62854 24.3648 5.42863 24.5368C4.61037 25.1867 3.9675 25.9972 3.34187 26.8225C3.29789 26.887 3.25031 26.9489 3.19936 27.0081C3.02396 27.1858 2.81802 27.2101 2.61835 27.0668C2.41868 26.9235 2.36622 26.6925 2.50716 26.4975C3.30428 25.4013 4.12881 24.3176 5.29003 23.5643C5.58792 23.3559 5.94448 23.2478 6.30796 23.2558C6.87879 23.2809 7.24759 23.7053 7.17947 24.2698C7.11213 24.825 6.89836 25.3293 6.65014 25.8281Z" fill="#9D4F91"/>
<path d="M5.32673 3.66925C4.68308 3.66925 4.03943 3.66925 3.39579 3.66925C3.28885 3.67177 3.1819 3.66444 3.07631 3.64732C2.97851 3.62712 2.89079 3.57349 2.82822 3.49565C2.76565 3.41781 2.73214 3.32061 2.73343 3.22075C2.73473 3.12089 2.77076 3.02459 2.83533 2.9484C2.8999 2.87221 2.98898 2.82088 3.08728 2.80322C3.19294 2.78689 3.29988 2.78033 3.40675 2.78365H7.26862C7.34697 2.7815 7.42537 2.78333 7.50353 2.78913C7.77681 2.81575 7.95768 2.99584 7.95455 3.23232C7.95142 3.46879 7.76898 3.64106 7.49257 3.6669C7.41427 3.67316 7.33597 3.67081 7.25766 3.67081L5.32673 3.66925Z" fill="#9D4F91"/>
<path d="M5.3332 5.43262C6.04497 5.43262 6.75674 5.42714 7.46851 5.43262C7.84671 5.43732 8.05969 5.75836 7.90152 6.05904C7.865 6.13452 7.80724 6.19769 7.73533 6.24081C7.66342 6.28393 7.58048 6.30512 7.4967 6.30178C6.06298 6.30178 4.63005 6.30804 3.19711 6.30178C2.89957 6.30178 2.7273 6.10994 2.73356 5.84841C2.73983 5.58688 2.91523 5.43106 3.22687 5.42871C3.92924 5.42792 4.63083 5.43262 5.3332 5.43262Z" fill="#9D4F91"/>
<path d="M16.7232 1.60599L20.5467 5.42793C19.7112 5.4107 18.8546 5.47726 18.0027 5.39426C17.3152 5.32848 16.7655 4.73965 16.7318 4.00282C16.695 3.19631 16.7232 2.38823 16.7232 1.60599Z" fill="#FEFEFE"/>
<path d="M17.8905 19.7166C17.8208 19.6696 17.7723 19.6383 17.7245 19.6046C17.4465 19.4073 17.1764 19.1974 16.8882 19.015C16.7003 18.8967 16.6776 18.8122 16.8154 18.6235C18.6717 16.0332 20.5223 13.4391 22.3671 10.841C22.7343 10.325 23.1086 9.81365 23.4633 9.29059C23.5956 9.0964 23.717 9.08701 23.8924 9.22247C24.1085 9.38847 24.334 9.54273 24.5564 9.7009C24.8759 9.92876 24.8782 9.93581 24.6598 10.2443L20.8958 15.5289C19.9462 16.8632 18.9964 18.197 18.0463 19.5302C17.9994 19.5944 17.9414 19.6539 17.8905 19.7166Z" fill="#FEFEFE"/>
<path d="M13.0356 25.1601C13.2291 24.6363 13.4138 24.1077 13.6198 23.5886C13.8959 22.8917 14.2539 22.2301 14.6863 21.6177C15.1302 20.9913 15.5836 20.3649 16.0174 19.733C16.1239 19.5764 16.1897 19.5819 16.3267 19.6868C16.6203 19.9123 16.9241 20.1245 17.2319 20.3304C17.3603 20.4158 17.3697 20.48 17.2773 20.6045C16.6556 21.4408 16.0965 22.3224 15.4262 23.1227C14.7559 23.9229 13.9267 24.5588 13.1179 25.2094L13.0356 25.1601Z" fill="#FEFEFE"/>
</g>
<defs>
<clipPath id="clip0_904_1320">
<rect width="26.4795" height="30" fill="white"/>
</clipPath>
</defs>
</svg>
