<svg width="33" height="33" viewBox="0 0 33 33" fill="none" xmlns="http://www.w3.org/2000/svg">
<path fill-rule="evenodd" clip-rule="evenodd" d="M16.625 32.5C25.4616 32.5 32.625 25.3366 32.625 16.5C32.625 7.66344 25.4616 0.5 16.625 0.5C7.78844 0.5 0.625 7.66344 0.625 16.5C0.625 25.3366 7.78844 32.5 16.625 32.5ZM10.7862 9.24742C10.3957 8.8569 9.76252 8.8569 9.37199 9.24742C8.98147 9.63795 8.98147 10.2711 9.37199 10.6616L15.2103 16.5L9.37199 22.3383C8.98147 22.7289 8.98147 23.362 9.37199 23.7525C9.76252 24.1431 10.3957 24.1431 10.7862 23.7525L16.6246 17.9142L22.4629 23.7525C22.8534 24.1431 23.4866 24.1431 23.8771 23.7525C24.2676 23.362 24.2676 22.7289 23.8771 22.3383L18.0388 16.5L23.8771 10.6616C24.2676 10.2711 24.2676 9.63795 23.8771 9.24742C23.4866 8.8569 22.8534 8.8569 22.4629 9.24742L16.6246 15.0858L10.7862 9.24742Z" fill="#EB5353"/>
</svg>
