<svg width="34" height="30" viewBox="0 0 34 30" fill="none" xmlns="http://www.w3.org/2000/svg">
<path d="M0.00518626 6.59811C0.111482 6.46848 0.101976 6.2991 0.15642 6.15132C0.553948 5.05121 1.55468 4.35121 2.76455 4.34344C4.72627 4.33652 6.68798 4.34344 8.6497 4.34344H16.2477C16.3658 4.33526 16.4844 4.34106 16.6011 4.36072C16.8604 4.4238 17.0211 4.58973 17.0116 4.86541C17.0021 5.14109 16.8336 5.31911 16.5579 5.3701C16.4509 5.38222 16.343 5.38482 16.2356 5.37787H2.88467C1.66962 5.37787 1.03962 6.01133 1.03962 7.23156C1.03962 7.97563 1.05172 8.71971 1.03271 9.46205C1.0258 9.7213 1.10098 9.77488 1.349 9.77402C5.72412 9.76595 10.0995 9.76423 14.4752 9.76883C14.5729 9.76883 14.6697 9.76365 14.7665 9.76883C14.8965 9.77201 15.0204 9.82449 15.1131 9.91563C15.2059 10.0068 15.2605 10.1298 15.266 10.2597C15.2743 10.4002 15.2308 10.5389 15.1436 10.6494C15.0565 10.76 14.9318 10.8347 14.7932 10.8594C14.6857 10.8681 14.5778 10.8698 14.47 10.8646C10.1059 10.8646 5.74112 10.862 1.37579 10.8569C1.08456 10.8569 1.03012 10.9338 1.03012 11.2086C1.03934 16.4997 1.04164 21.7915 1.03703 27.0838C1.03703 28.234 1.66184 28.8632 2.81208 28.8632C10.7868 28.8632 18.7622 28.8632 26.7381 28.8632C27.8659 28.8632 28.5114 28.2081 28.5123 27.0708V17.2095C28.5123 17.1127 28.5123 17.0151 28.5123 16.9183C28.5253 16.6305 28.6748 16.456 28.9591 16.4153C29.0893 16.4004 29.2203 16.4353 29.3258 16.5131C29.4313 16.5908 29.5035 16.7057 29.5277 16.8345C29.5449 16.9407 29.5504 17.0485 29.5441 17.156C29.5441 20.4647 29.5441 23.7734 29.5441 27.0821C29.5441 28.8104 28.4017 29.9495 26.6664 29.9495C18.7884 29.9495 10.9101 29.948 3.03159 29.9451C2.77233 29.9451 2.52863 30.0316 2.26678 29.9875C1.11049 29.7922 0.419997 29.0948 0.0795055 28.005C0.0587649 27.9376 0.0890118 27.8477 0 27.808L0.00518626 6.59811Z" fill="#9D4F91"/>
<path d="M31.3777 3.80244C31.3841 4.12208 31.2817 4.43439 31.0873 4.68824C30.9568 4.88634 30.8125 5.07492 30.6552 5.25256C30.3588 5.55848 30.2949 5.85231 30.517 6.24811C30.6587 6.49959 30.7935 6.64304 31.0899 6.6707C31.4651 6.7092 31.8375 6.77154 32.2047 6.85736C32.7855 6.98699 33.1139 7.4165 33.1139 8.00847V9.20797C33.1139 9.80685 32.8313 10.2027 32.2428 10.3522C31.8262 10.4576 31.3967 10.5077 30.9741 10.5881C30.5515 10.6685 30.2603 11.4108 30.5196 11.7668C30.7287 12.0546 30.9517 12.3329 31.1573 12.6215C31.2715 12.7714 31.3543 12.9428 31.4007 13.1254C31.4472 13.308 31.4564 13.4982 31.4278 13.6844C31.3991 13.8706 31.3333 14.0492 31.2341 14.2094C31.1349 14.3696 31.0045 14.5082 30.8506 14.6169C30.642 14.7696 30.4357 14.9252 30.2318 15.0836C29.7133 15.4837 29.0885 15.4958 28.5604 15.1018C28.2675 14.8823 27.9797 14.655 27.6963 14.4199C27.5476 14.2946 27.4258 14.2929 27.2356 14.3551C26.7422 14.5141 26.5002 14.8088 26.5045 15.336C26.5045 15.59 26.4319 15.8458 26.3853 16.0999C26.3312 16.3991 26.1783 16.6715 25.9512 16.8736C25.724 17.0757 25.4356 17.1958 25.1322 17.2147C24.7986 17.232 24.4642 17.232 24.1306 17.2147C23.8378 17.2011 23.5577 17.0909 23.334 16.9015C23.1103 16.712 22.9556 16.4539 22.8939 16.1673C22.8075 15.7793 22.7583 15.3835 22.6978 14.9903C22.6252 14.521 21.9114 14.2125 21.5328 14.4934C21.2554 14.6973 20.9849 14.9125 20.7049 15.113C20.4376 15.3192 20.1041 15.4205 19.7672 15.3977C19.4304 15.3749 19.1135 15.2297 18.8763 14.9894C18.6819 14.8036 18.4909 14.6126 18.3034 14.419C17.7736 13.8703 17.7243 13.1625 18.1729 12.5412C18.369 12.2707 18.5652 11.9993 18.7778 11.7409C18.9161 11.5681 18.9066 11.4298 18.8417 11.2164C18.6948 10.7315 18.4036 10.531 17.911 10.5172C17.61 10.4972 17.3122 10.443 17.0235 10.3556C16.7497 10.2858 16.5063 10.1285 16.3301 9.90762C16.154 9.68673 16.0549 9.41434 16.0478 9.13192C16.0348 8.78624 16.0348 8.44057 16.0478 8.09489C16.0564 7.79735 16.1664 7.51167 16.3595 7.28519C16.5527 7.0587 16.8174 6.90502 17.1099 6.84959C17.4457 6.77404 17.7852 6.71635 18.1271 6.67675C18.4252 6.6465 18.5747 6.51601 18.7277 6.24465C18.948 5.8549 18.9083 5.57923 18.6171 5.27503C18.4553 5.08719 18.3049 4.88979 18.1668 4.68392C17.7131 4.07899 17.7451 3.36171 18.2593 2.80257C18.4494 2.5969 18.649 2.399 18.8547 2.20887C19.0827 1.99079 19.3811 1.86136 19.6961 1.84393C20.0112 1.8265 20.3221 1.92221 20.5727 2.11381C20.8916 2.35147 21.2019 2.60295 21.5112 2.85443C21.6236 2.94603 21.716 2.94085 21.8569 2.90023C22.4134 2.72739 22.7211 2.40073 22.7116 1.78888C22.7219 1.56276 22.7596 1.33873 22.8239 1.12172C22.9025 0.812121 23.0789 0.536169 23.327 0.334974C23.575 0.133778 23.8815 0.0181051 24.2006 0.00518515C24.4817 -0.00172838 24.762 -0.00172838 25.0415 0.00518515C25.3672 0.0104172 25.6806 0.130499 25.9265 0.344257C26.1723 0.558015 26.3348 0.851719 26.3853 1.17357C26.4501 1.55555 26.5184 1.93665 26.5702 2.32036C26.5944 2.50097 26.6808 2.58912 26.8416 2.67813C27.2737 2.91406 27.6375 2.91146 27.9944 2.53986C28.1672 2.36702 28.385 2.23653 28.5846 2.09048C29.0755 1.7327 29.6571 1.70851 30.1471 2.05937C30.5302 2.34038 30.8702 2.67576 31.1565 3.05492C31.3181 3.26917 31.3967 3.53472 31.3777 3.80244Z" fill="#9D4F91"/>
<path d="M8.96362 12.5248C10.1735 12.5248 11.3756 12.5248 12.582 12.5248C13.6769 12.5248 14.3354 13.1781 14.338 14.267C14.3432 15.667 14.3432 17.067 14.338 18.467C14.338 19.568 13.6657 20.2317 12.563 20.2325C10.1502 20.2325 7.73762 20.2325 5.32538 20.2325C4.246 20.2325 3.57106 19.5584 3.56934 18.4817C3.56934 17.0702 3.56934 15.6586 3.56934 14.2471C3.56934 13.1997 4.23563 12.5282 5.27957 12.5239C6.50845 12.5205 7.73561 12.5248 8.96362 12.5248Z" fill="#9D4F91"/>
<path d="M14.8355 22.8199H25.4651C25.5619 22.8199 25.6587 22.8199 25.7555 22.8199C26.0571 22.8354 26.2558 23.0178 26.274 23.2891C26.2793 23.4194 26.237 23.5471 26.1552 23.6485C26.0733 23.7499 25.9574 23.8182 25.8289 23.8405C25.7223 23.8538 25.6147 23.8575 25.5075 23.8517H4.08412C3.57512 23.8517 3.30635 23.665 3.31413 23.3237C3.3245 22.9996 3.59758 22.8173 4.07462 22.8173L14.8355 22.8199Z" fill="#9D4F91"/>
<path d="M14.828 26.2343H25.4264C25.5241 26.2343 25.6209 26.2343 25.7177 26.2343C26.0633 26.249 26.2716 26.4348 26.2768 26.7295C26.282 27.0242 26.059 27.2368 25.741 27.2653C25.6667 27.2722 25.5906 27.2653 25.5154 27.2653H4.09211C3.99524 27.2689 3.89823 27.266 3.80174 27.2566C3.67177 27.2461 3.5502 27.1882 3.46017 27.0938C3.37014 26.9995 3.31793 26.8754 3.31348 26.745C3.32276 26.6153 3.37781 26.4931 3.46882 26.4002C3.55983 26.3073 3.68088 26.2497 3.81039 26.2378C3.91764 26.2298 4.02524 26.2275 4.13273 26.2308L14.828 26.2343Z" fill="#9D4F91"/>
<path d="M21.7008 19.4011H25.613C26.0451 19.4011 26.2853 19.5921 26.2758 19.9257C26.2663 20.2403 26.0166 20.4347 25.6199 20.4356H17.7307C17.3202 20.4356 17.08 20.2454 17.0791 19.9274C17.0782 19.6094 17.3427 19.402 17.7566 19.4011H21.7008Z" fill="#9D4F91"/>
<path d="M4.12115 7.10195C4.32423 7.10195 4.52905 7.0864 4.73127 7.10195C5.00435 7.12874 5.15386 7.31109 5.17114 7.57294C5.18843 7.83479 5.05448 8.04738 4.7883 8.09145C4.33218 8.15712 3.86912 8.15887 3.41251 8.09664C3.14029 8.0638 3.00029 7.85294 3.01412 7.59281C3.01309 7.46698 3.06086 7.34564 3.14739 7.25427C3.23392 7.16291 3.35248 7.10862 3.47819 7.10282C3.6923 7.09057 3.90689 7.08913 4.12115 7.0985V7.10195Z" fill="#9D4F91"/>
<path d="M6.61194 8.12167C6.41749 8.12167 6.22219 8.13636 6.03034 8.12167C5.89922 8.11782 5.77496 8.0622 5.68475 7.96697C5.59454 7.87174 5.54573 7.74466 5.54898 7.61352C5.54968 7.48295 5.60029 7.35759 5.69042 7.26312C5.78055 7.16865 5.9034 7.11221 6.03379 7.10538C6.43219 7.08896 6.83144 7.08982 7.22897 7.10538C7.51761 7.11661 7.67921 7.29463 7.70341 7.57982C7.71043 7.6445 7.70434 7.70994 7.68549 7.77221C7.66664 7.83448 7.63543 7.89232 7.59372 7.94225C7.55202 7.99219 7.50067 8.0332 7.44275 8.06284C7.38483 8.09248 7.32152 8.11014 7.25662 8.11475C7.04198 8.1283 6.82674 8.12974 6.61194 8.11907V8.12167Z" fill="#9D4F91"/>
<path d="M9.18282 7.10194C9.38677 7.10194 9.59331 7.08552 9.79553 7.10194C10.0686 7.12873 10.2207 7.30243 10.2354 7.57292C10.2501 7.84342 10.1239 8.05082 9.85257 8.09144C9.39413 8.15884 8.9283 8.15884 8.46986 8.09144C8.20282 8.05169 8.06628 7.84514 8.08702 7.57292C8.08917 7.45221 8.13669 7.33673 8.22012 7.24946C8.30354 7.16219 8.41677 7.10952 8.53726 7.10194C8.75227 7.08939 8.96782 7.08939 9.18282 7.10194Z" fill="#9D4F91"/>
<path d="M17.8722 17.016C17.7858 17.016 17.6994 17.016 17.6129 17.016C17.301 17.0013 17.0867 16.8051 17.0771 16.5277C17.0799 16.3922 17.1325 16.2625 17.2248 16.1632C17.317 16.0639 17.4426 16.002 17.5775 15.9893C17.7705 15.9738 17.9644 15.9738 18.1574 15.9893C18.2935 15.991 18.4238 16.045 18.5213 16.14C18.6188 16.2351 18.676 16.364 18.6811 16.5001C18.6811 16.7706 18.4357 17.003 18.1289 17.0186C18.0442 17.0194 17.9578 17.016 17.8722 17.016Z" fill="#9D4F91"/>
<path d="M31.9742 8.72225C31.9742 9.39027 31.9742 9.39027 31.3139 9.50003L30.486 9.63657C30.4328 9.64419 30.3803 9.65574 30.3288 9.67114C29.4222 9.95891 28.8821 11.4756 29.4162 12.2637C29.6573 12.6198 29.9226 12.9603 30.1853 13.3007C30.3218 13.4736 30.3201 13.6257 30.1559 13.7812C29.9917 13.9368 29.8146 14.1105 29.653 14.2833C29.4914 14.4562 29.341 14.476 29.1491 14.3222C28.8467 14.0802 28.5347 13.8495 28.2184 13.6257C27.7396 13.2835 27.2332 13.2161 26.7026 13.5116C26.5671 13.5763 26.4284 13.634 26.2869 13.6844C25.8384 13.872 25.5455 14.1883 25.4668 14.6809C25.4046 15.0741 25.3363 15.4664 25.2801 15.8605C25.2473 16.0886 25.1462 16.1992 24.8999 16.1958C23.7626 16.1776 23.989 16.3228 23.8015 15.2633C23.76 15.0309 23.7341 14.7932 23.6727 14.5659C23.5552 14.126 23.2623 13.8547 22.8673 13.6153C21.9487 13.0631 21.1847 13.2446 20.4018 13.9048C19.6767 14.5158 19.8418 14.4968 19.1582 13.8227C18.7927 13.4632 18.7944 13.4433 19.1098 13.0216C19.3094 12.7546 19.516 12.4919 19.7096 12.2196C20.044 11.7487 20.0915 11.2517 19.8236 10.7298C19.7658 10.615 19.7153 10.4966 19.6724 10.3755C19.4814 9.8362 19.1029 9.532 18.5394 9.4499C18.2197 9.40324 17.9025 9.33929 17.5819 9.30299C17.2985 9.27102 17.1783 9.15176 17.1792 8.8467C17.1835 7.90646 17.1714 7.90732 18.1056 7.7509C18.3078 7.71633 18.5092 7.68004 18.7106 7.63856C18.8055 7.62042 18.898 7.59142 18.9862 7.55214C19.8444 7.15029 20.2384 5.60338 19.6776 4.84203C19.4667 4.55598 19.2567 4.26907 19.0338 3.99253C18.8817 3.80327 18.8972 3.65117 19.0709 3.48957C19.2602 3.31673 19.4399 3.12661 19.6205 2.94167C19.7484 2.81032 19.8677 2.80599 20.0146 2.9218C20.3361 3.17414 20.6619 3.42389 20.9955 3.65895C21.4751 3.99685 21.9798 4.06339 22.5113 3.77043C22.6273 3.71414 22.7468 3.66536 22.869 3.62438C23.3824 3.42389 23.7013 3.07044 23.7609 2.50526C23.7972 2.15958 23.8473 1.82254 23.8862 1.47946C23.9095 1.24699 24.0141 1.1381 24.2595 1.14156C25.402 1.15798 25.1713 1.01366 25.3596 2.07057C25.3977 2.28229 25.4253 2.49661 25.4729 2.70661C25.5158 2.93524 25.6171 3.14892 25.7668 3.32696C25.9165 3.505 26.1097 3.64138 26.3275 3.7229C26.6447 3.8508 26.9446 4.03228 27.298 4.05389C27.6349 4.07885 27.9684 3.97264 28.2288 3.75747C28.514 3.52846 28.8104 3.31241 29.093 3.07562C29.2805 2.91575 29.4317 2.93303 29.5959 3.09982C30.442 3.95451 30.3979 3.7229 29.7428 4.60524C29.4464 5.00623 29.0852 5.39684 29.1811 5.93091C29.3453 6.8435 29.7091 7.83214 30.8136 7.86498C31.059 7.87275 31.3018 7.95658 31.5473 7.97387C31.8929 7.9972 32.0295 8.15967 31.9794 8.49238C31.9718 8.56877 31.9701 8.64561 31.9742 8.72225Z" fill="#F3EAF2"/>
<path d="M8.95493 19.1428H5.33656C4.8336 19.1428 4.66162 18.9699 4.66162 18.4626C4.66162 17.0511 4.66162 15.6396 4.66162 14.2281C4.66162 13.7346 4.82755 13.5601 5.31149 13.5592C7.73469 13.5592 10.1579 13.5592 12.5811 13.5592C13.0426 13.5592 13.2508 13.7649 13.2526 14.2281C13.256 15.65 13.256 17.0716 13.2526 18.4929C13.2526 18.9544 13.0642 19.1402 12.6061 19.141C11.3888 19.1433 10.1717 19.1439 8.95493 19.1428Z" fill="#F3EAF2"/>
<path d="M28.0854 8.59173C28.082 9.51058 27.7138 10.3905 27.0618 11.0379C26.4097 11.6852 25.5271 12.0471 24.6083 12.0437C23.6894 12.0404 22.8095 11.6722 22.1622 11.0201C21.5148 10.3681 21.1529 9.48552 21.1563 8.56666C21.1596 7.64781 21.5278 6.76791 22.1799 6.12053C22.832 5.47315 23.7145 5.11132 24.6333 5.11465C25.5522 5.11797 26.4321 5.48617 27.0795 6.13825C27.7269 6.79033 28.0887 7.67287 28.0854 8.59173Z" fill="#9D4F91"/>
<path d="M22.251 8.59526C22.2497 8.2823 22.3103 7.97217 22.4292 7.68269C22.5482 7.3932 22.7231 7.13005 22.944 6.90835C23.1649 6.68665 23.4274 6.51076 23.7165 6.39079C24.0055 6.27081 24.3154 6.20911 24.6284 6.20923C25.9247 6.20923 27.0231 7.30935 27.0144 8.59786C27.0023 9.22305 26.7485 9.81926 26.3065 10.2615C25.8644 10.7037 25.2683 10.9577 24.6431 10.9701C24.011 10.9721 23.404 10.7231 22.9554 10.2778C22.5069 9.83252 22.2535 9.22732 22.251 8.59526Z" fill="#F3EAF2"/>
</svg>
