<svg width="30" height="30" viewBox="0 0 30 30" fill="none" xmlns="http://www.w3.org/2000/svg">
<g clip-path="url(#clip0_904_1144)">
<path d="M15.0312 18.9997C19.5828 18.9997 24.1342 19.0016 28.6852 19.0055C28.9358 19.0055 29.011 18.9613 29.0101 18.6923C29.0007 14.0265 28.9984 9.36051 29.0035 4.6942C29.0035 4.13959 28.8615 4.00094 28.2985 4.0001C28.0279 4.0001 27.7573 4.00762 27.4866 4.0001C27.1818 3.98757 27.0005 3.7963 26.9997 3.50563C26.9943 3.44001 27.0029 3.374 27.025 3.31199C27.0471 3.24997 27.0821 3.19337 27.1278 3.14596C27.1735 3.09854 27.2287 3.0614 27.2899 3.03701C27.351 3.01261 27.4167 3.00152 27.4825 3.00447C27.8675 2.99361 28.2542 2.98275 28.6376 3.00948C28.9984 3.04267 29.3351 3.20503 29.5857 3.46669C29.8363 3.72835 29.984 4.07171 30.0016 4.4336C30.0058 4.52715 30.0016 4.62153 30.0016 4.71508V22.2739C30.0016 23.4165 29.4169 23.9995 28.2701 23.9995H1.74227C0.578479 23.999 -0.00341797 23.4165 -0.00341797 22.2522V4.72427C-0.00341797 3.58163 0.581263 3.0003 1.72807 3.0003C1.97865 3.0003 2.22923 2.99528 2.47981 3.0003C2.81391 3.00948 2.99934 3.19157 3.00184 3.49226C3.00435 3.79295 2.81725 3.98673 2.4915 3.99342C2.21085 4.00177 1.92937 3.99342 1.64789 3.99342C1.15509 3.99342 0.998893 4.15212 0.998893 4.64993C0.998893 9.10799 0.998893 13.5655 0.998893 18.0224C0.998893 18.283 1.00641 18.5436 0.998893 18.8034C0.992211 18.9512 1.03481 19.0014 1.1885 18.9963C1.55267 18.9855 1.91684 18.9963 2.28185 18.9963L15.0312 18.9997Z" fill="#9D4F91"/>
<path d="M14.9814 4.99986C11.7517 4.99986 8.52202 4.99791 5.29235 4.99401C5.04177 4.99401 4.99166 5.06084 4.99249 5.29972C5.00029 9.26776 5.00196 13.2358 4.9975 17.2038C4.9975 17.2874 4.9975 17.3709 4.9975 17.4544C4.98665 17.801 4.79704 18.0032 4.4905 17.9982C4.18396 17.9932 4.01273 17.7977 3.99854 17.4694C3.99854 17.3968 3.99854 17.3241 3.99854 17.2506V1.7223C3.99854 0.578834 4.58322 0 5.73086 0H24.2903C25.4121 0 25.9976 0.584683 25.9976 1.71646V17.3358C25.9976 17.761 25.8748 17.9539 25.58 17.9973C25.5107 18.0126 25.4388 18.0124 25.3696 17.9967C25.3004 17.981 25.2355 17.9501 25.1797 17.9064C25.1238 17.8626 25.0783 17.807 25.0464 17.7436C25.0145 17.6802 24.9971 17.6106 24.9953 17.5396C24.9861 17.436 24.9953 17.3316 24.9953 17.2272C24.9953 13.2589 24.9953 9.29226 25.0028 5.32311C25.0028 5.04246 24.9293 4.989 24.6628 4.989C21.4387 5.0032 18.2105 4.99986 14.9814 4.99986Z" fill="#9D4F91"/>
<path d="M11.7529 26.9847H18.2378C17.9221 26.5872 17.6297 26.2138 17.4226 25.7828C17.2556 25.4403 17.324 25.1413 17.6013 25.0102C17.8787 24.879 18.1401 24.996 18.3071 25.3267C18.6078 25.9215 19.0355 26.4126 19.5224 26.8569C19.5744 26.9061 19.6357 26.9445 19.7027 26.9697C19.7697 26.9949 19.841 27.0066 19.9125 27.0039C20.2332 27.0039 20.5565 26.963 20.8756 27.0507C21.1944 27.135 21.4769 27.3215 21.6798 27.5815C21.8827 27.8416 21.9948 28.1609 21.999 28.4907C22.0048 28.7931 22.0032 29.0946 21.999 29.397C21.9948 29.8196 21.8161 29.9984 21.3859 29.9992C19.3356 29.9992 17.2851 29.9992 15.2342 29.9992H8.70918C8.15373 29.9992 8.00171 29.8488 8.00088 29.3017C8.00088 29.0311 7.9967 28.7605 8.00088 28.4899C8.02009 27.6588 8.67326 26.9488 9.49182 27.0181C10.2143 27.08 10.667 26.7759 11.0679 26.2564C11.311 25.9584 11.5241 25.6372 11.7044 25.2975C11.8589 24.9893 12.1321 24.8841 12.3968 25.0085C12.6616 25.133 12.7477 25.437 12.5923 25.7544C12.3655 26.1983 12.0834 26.6116 11.7529 26.9847Z" fill="#9D4F91"/>
<path d="M17.0024 7.53239C16.9815 7.6084 16.9589 7.71031 16.9264 7.80803C15.9619 10.7008 14.9961 13.5933 14.0289 16.4855C13.9863 16.6133 13.9562 16.7503 13.8618 16.8489C13.7881 16.9316 13.6874 16.9854 13.5777 17.0007C13.468 17.016 13.3564 16.9918 13.2629 16.9324C13.0123 16.7988 12.9464 16.5841 13.0324 16.3235C13.2788 15.5718 13.5294 14.8267 13.7791 14.0783C14.503 11.9133 15.2249 9.74806 15.9449 7.58251C15.9769 7.46224 16.0217 7.34575 16.0786 7.23504C16.1303 7.13654 16.2157 7.05996 16.3192 7.01931C16.4228 6.97866 16.5375 6.97667 16.6424 7.0137C16.8754 7.08386 16.9932 7.2601 17.0024 7.53239Z" fill="#9D4F91"/>
<path d="M11.5231 14.5043C11.5254 14.6042 11.4977 14.7026 11.4437 14.7866C11.3896 14.8707 11.3117 14.9368 11.2199 14.9762C11.0227 15.0689 10.8382 15.0163 10.6711 14.876C10.0174 14.3269 9.36197 13.7801 8.7049 13.2355C8.38416 12.9691 8.06175 12.706 7.74435 12.4362C7.42695 12.1664 7.41025 11.8423 7.74435 11.5684C8.70156 10.7654 9.66072 9.96494 10.6218 9.16699C10.9025 8.93395 11.2065 8.94398 11.3928 9.17952C11.579 9.41506 11.5373 9.70323 11.2549 9.93961C10.5132 10.5627 9.77654 11.1925 9.01979 11.7956C8.79093 11.9785 8.83353 12.052 9.03232 12.2132C9.78406 12.8213 10.5233 13.4485 11.2683 14.0666C11.4045 14.1819 11.5272 14.3047 11.5231 14.5043Z" fill="#9D4F91"/>
<path d="M19.0238 15.0121C18.7456 15.0071 18.5886 14.8751 18.5134 14.6654C18.4299 14.4341 18.5185 14.2478 18.7081 14.0891C19.3504 13.5604 19.9885 13.0267 20.6292 12.4946C20.7653 12.381 20.8931 12.2574 21.0384 12.1605C21.2055 12.0461 21.2055 11.9759 21.0384 11.8456C20.265 11.215 19.5007 10.5727 18.7356 9.93202C18.3923 9.64469 18.4249 9.21621 18.7949 9.04665C18.8848 9.00379 18.9858 8.98954 19.084 9.00582C19.1823 9.0221 19.2732 9.06812 19.3445 9.13769C20.3268 9.95624 21.3116 10.7731 22.288 11.5984C22.5753 11.8414 22.5778 12.1613 22.288 12.4027C21.3032 13.238 20.3101 14.0565 19.3195 14.8818C19.2396 14.9591 19.1347 15.0054 19.0238 15.0121Z" fill="#9D4F91"/>
<path d="M15.0194 19.9995C19.5688 19.9995 24.1187 19.9973 28.6692 19.9928C28.939 19.9928 29.0167 20.0488 29.0033 20.3269C28.9799 21.0135 28.9975 21.7017 28.995 22.3883C28.995 22.8235 28.8237 22.9972 28.3927 22.9972C19.4599 22.9972 10.5265 22.9972 1.59261 22.9972C1.16663 22.9972 0.998741 22.8202 0.997071 22.3816C0.997071 21.7051 1.0096 21.0277 0.990388 20.3511C0.982871 20.0813 1.038 19.992 1.33452 19.9928C5.39443 20.0045 9.4549 20.007 13.5159 20.0003L15.0194 19.9995Z" fill="#F3EAF2"/>
<path d="M14.9847 4.00003C11.755 4.00003 8.52755 4.0017 5.30234 4.00504C5.06763 4.00504 4.98661 3.95993 4.99413 3.70685C5.01417 3.02027 4.99997 2.33285 5.00081 1.64543C5.00081 1.16516 5.16034 1.00061 5.62892 1.00061H24.3688C24.8382 1.00061 24.9977 1.16766 24.9986 1.64459C24.9986 2.34204 24.9886 3.03948 25.0053 3.73692C25.0103 3.9616 24.9426 4.00587 24.7296 4.00504C21.4816 3.9978 18.2333 3.99613 14.9847 4.00003Z" fill="#F3EAF2"/>
<path d="M15.0031 28.9993C13.1087 28.9993 11.2144 28.9993 9.32334 29.006C9.07277 29.006 8.98423 28.9659 8.99676 28.6928C9.02181 28.1432 9.14877 27.9995 9.70923 27.9995H20.2602C20.8867 27.9995 21.0955 28.2568 21.0053 28.8782C20.9794 29.0586 20.865 28.9968 20.7789 28.9968C19.7699 28.9968 18.7601 28.9968 17.7503 28.9968L15.0031 28.9993Z" fill="#F3EAF2"/>
<path d="M15.0236 21.9941C14.702 21.9941 14.3796 21.9991 14.0581 21.9941C13.7164 21.9874 13.5043 21.7844 13.5135 21.4862C13.5218 21.2039 13.7331 21.0026 14.053 20.9993C14.6962 20.9926 15.3399 20.9926 15.9842 20.9993C16.3266 20.9993 16.5388 21.2022 16.5405 21.5004C16.5421 21.7986 16.3366 21.9924 15.99 21.9957C15.6676 22.0007 15.346 21.9941 15.0236 21.9941Z" fill="#9D4F91"/>
<path d="M20.4649 3.00031C19.5083 3.00031 18.5519 3.00031 17.5958 3.00031C17.1907 3.00031 16.9894 2.82741 16.9952 2.49915C17.0003 2.18426 17.2041 2.00635 17.5799 2.00635C19.5233 2.00635 21.4672 2.00635 23.4117 2.00635C23.78 2.00635 23.9964 2.20263 23.988 2.51418C23.9797 2.82574 23.7684 3.00365 23.3933 3.00448C22.4194 3.00197 21.4422 3.00031 20.4649 3.00031Z" fill="#9D4F91"/>
<path d="M6.9988 2.50412C7.00434 2.57414 6.99509 2.64455 6.97167 2.71077C6.94825 2.77698 6.91116 2.83754 6.86283 2.8885C6.8145 2.93947 6.75599 2.9797 6.6911 3.0066C6.62621 3.03349 6.5564 3.04645 6.48618 3.04462C6.41597 3.0428 6.34692 3.02623 6.28352 2.996C6.22012 2.96578 6.16378 2.92256 6.11816 2.86915C6.07253 2.81574 6.03865 2.75335 6.01869 2.686C5.99874 2.61866 5.99317 2.54787 6.00233 2.47823C6.01849 2.35546 6.07954 2.24302 6.17369 2.16259C6.26784 2.08216 6.38843 2.03943 6.51222 2.04265C6.63601 2.04587 6.75422 2.0948 6.84407 2.18001C6.93392 2.26522 6.98903 2.38068 6.9988 2.50412Z" fill="#9D4F91"/>
<path d="M8.99833 2.51074C8.99656 2.61043 8.96511 2.70732 8.90799 2.78903C8.85086 2.87074 8.77066 2.93356 8.67765 2.96945C8.58463 3.00534 8.48302 3.01266 8.38582 2.9905C8.28862 2.96833 8.20023 2.91767 8.13197 2.84501C8.06371 2.77234 8.01868 2.68096 8.00263 2.58256C7.98658 2.48416 8.00024 2.38322 8.04188 2.29262C8.08351 2.20203 8.15121 2.12591 8.23633 2.07401C8.32145 2.0221 8.42012 1.99677 8.51972 2.00124C8.65015 2.00709 8.77314 2.06361 8.86252 2.15877C8.95191 2.25393 9.00063 2.38021 8.99833 2.51074Z" fill="#9D4F91"/>
<path d="M10.9989 2.50331C10.9989 2.60303 10.9691 2.70046 10.9133 2.78316C10.8576 2.86585 10.7785 2.93004 10.6861 2.96752C10.5937 3.005 10.4922 3.01406 10.3946 2.99354C10.297 2.97303 10.2078 2.92387 10.1383 2.85235C10.0688 2.78084 10.0222 2.69022 10.0045 2.59208C9.98684 2.49395 9.99881 2.39277 10.0389 2.30148C10.0791 2.21019 10.1455 2.13295 10.2297 2.07963C10.314 2.0263 10.4123 1.99933 10.5119 2.00215C10.6424 2.00585 10.7662 2.06028 10.8572 2.15387C10.9481 2.24745 10.9989 2.37282 10.9989 2.50331Z" fill="#9D4F91"/>
</g>
<defs>
<clipPath id="clip0_904_1144">
<rect width="30" height="30" fill="white"/>
</clipPath>
</defs>
</svg>
