<svg width="36" height="30" viewBox="0 0 36 30" fill="none" xmlns="http://www.w3.org/2000/svg">
<g clip-path="url(#clip0_904_1278)">
<path d="M21.3526 26.7851C21.7673 27.5393 22.1554 28.2274 22.5227 28.926C22.6385 29.1496 22.8204 29.1091 23.0012 29.1091H28.6779C28.8078 29.1052 28.9377 29.1083 29.0672 29.1183C29.1702 29.1217 29.2677 29.1653 29.3387 29.2399C29.4098 29.3144 29.4488 29.4139 29.4472 29.5169C29.4542 29.5711 29.4503 29.6261 29.4359 29.6788C29.4214 29.7315 29.3967 29.7809 29.3631 29.824C29.3295 29.867 29.2877 29.903 29.2401 29.9299C29.1925 29.9567 29.14 29.9739 29.0857 29.9803C28.9567 29.9971 28.8262 30.0006 28.6965 29.9907H6.59414C6.49335 29.9907 6.3914 29.9907 6.29061 29.9907C5.9975 29.9757 5.8272 29.8204 5.83763 29.5273C5.84805 29.2539 6.02299 29.116 6.30103 29.1149C6.922 29.1149 7.54413 29.1149 8.1651 29.1149C9.56576 29.1149 10.9676 29.1068 12.3682 29.1149C12.4727 29.1267 12.5783 29.1044 12.6689 29.0511C12.7596 28.9978 12.8305 28.9165 12.871 28.8194C13.2186 28.1591 13.5847 27.5092 13.9832 26.7839H3.42094C1.2406 26.7839 0.000976562 25.5524 0.000976562 23.3883C0.000976562 17.0318 0.000976562 10.6754 0.000976562 4.31897C0.000976562 2.70746 0.821213 1.57211 2.25547 1.17126C2.63372 1.07403 3.02354 1.02921 3.41399 1.03803C9.87161 1.03803 16.3292 1.03996 22.7868 1.04382C23.0429 1.05149 23.2943 0.974081 23.5017 0.823698C24.2826 0.280245 25.2123 -0.00903581 26.1637 -0.00468179C27.1152 -0.000327769 28.0421 0.297448 28.8181 0.848026C29.0033 0.979939 29.2257 1.04934 29.453 1.04613C30.5629 1.07162 31.6797 0.937232 32.7838 1.11912C34.1612 1.34503 35.1309 2.3935 35.2792 3.78373C35.3012 4.01476 35.3108 4.24679 35.3082 4.47884C35.3082 10.8206 35.3082 17.1628 35.3082 23.5053C35.3082 25.4945 34.0245 26.7851 32.0342 26.7862C28.4961 26.7909 24.9579 26.7851 21.3526 26.7851Z" fill="#9D4F91"/>
<path d="M22.3316 1.93009C21.9377 2.58582 21.6307 3.21374 21.5345 3.92392C21.2796 5.80884 21.8948 7.35894 23.431 8.46302C24.9672 9.56709 26.6448 9.6563 28.3304 8.78624C28.6652 8.61362 28.7996 8.67039 29.0151 8.93106C29.8921 9.98532 30.7923 11.0164 31.6878 12.0591C31.9647 12.3823 32.296 12.4229 32.4826 12.161C32.6691 11.8992 32.5289 11.6756 32.3505 11.4659C31.4376 10.4035 30.5293 9.3377 29.6117 8.27881C29.4774 8.12241 29.4009 8.02857 29.5758 7.8154C31.0819 6.0278 31.2198 4.10812 30.023 2.06332C30.0034 2.01507 29.9872 1.96552 29.9744 1.91503C30.9498 1.96832 31.9126 1.79223 32.8521 2.03668C33.8496 2.29503 34.408 3.10484 34.4092 4.20891C34.4092 8.36956 34.4092 12.5298 34.4092 16.6897C34.4092 18.2062 34.4011 19.7227 34.4161 21.2392C34.4161 21.5393 34.3455 21.6239 34.0373 21.6239C23.1171 21.6154 12.1964 21.6154 1.27539 21.6239C0.975334 21.6239 0.89192 21.5509 0.893078 21.245C0.902346 15.5536 0.905051 9.86212 0.901189 4.17068C0.901189 2.80594 1.82801 1.92778 3.26342 1.9243C5.83535 1.91735 8.40611 1.9243 10.9769 1.9243H22.3304L22.3316 1.93009Z" fill="#FEFEFE"/>
<path d="M17.6978 22.5194C23.1143 22.5194 28.5304 22.5159 33.9461 22.509C34.3261 22.509 34.4651 22.5959 34.4095 22.9782C34.395 23.1942 34.395 23.4109 34.4095 23.6269C34.4014 24.943 33.5742 25.8166 32.2512 25.9058C32.1504 25.9127 32.0496 25.9058 31.9477 25.9058H3.35063C2.21412 25.9058 1.39968 25.425 1.04633 24.5468C0.800721 23.934 0.930476 23.291 0.901513 22.6607C0.89572 22.5449 0.962914 22.5136 1.06371 22.5148H17.6978V22.5194Z" fill="#FEFEFE"/>
<path d="M29.9283 4.66884C29.9292 5.41895 29.7074 6.15244 29.2911 6.77637C28.8747 7.4003 28.2824 7.88657 27.5894 8.17357C26.8964 8.46057 26.1337 8.53537 25.3981 8.38849C24.6626 8.24161 23.9871 7.87967 23.4575 7.34853C22.9278 6.8174 22.5677 6.14097 22.4229 5.40498C22.278 4.669 22.3549 3.90657 22.6438 3.21433C22.9327 2.5221 23.4206 1.9312 24.0457 1.51654C24.6708 1.10188 25.4049 0.882119 26.155 0.885101C27.1556 0.891504 28.1132 1.29253 28.8197 2.00103C29.5263 2.70953 29.9247 3.66826 29.9283 4.66884Z" fill="#FEFEFE"/>
<path d="M13.7124 29.1126C14.1364 28.3422 14.5234 27.6401 14.9068 26.9334C14.9845 26.7886 15.0957 26.7874 15.2289 26.7874C16.8508 26.7874 18.4635 26.7874 20.0797 26.7874C20.1564 26.7767 20.2345 26.7913 20.3022 26.8289C20.3699 26.8665 20.4236 26.9252 20.455 26.9959C20.7852 27.6192 21.1293 28.2356 21.4768 28.8496C21.5927 29.0454 21.5811 29.1195 21.3274 29.1184C18.8169 29.1114 16.3075 29.1126 13.7124 29.1126Z" fill="#FEFEFE"/>
<path d="M16.9841 11.7892C16.9841 9.42114 16.9841 7.05311 16.9841 4.68509C16.9821 4.52745 16.9977 4.37009 17.0305 4.21589C17.0514 4.13021 17.1017 4.05458 17.1726 4.0021C17.2435 3.94962 17.3305 3.92361 17.4186 3.92857C17.5135 3.91804 17.6089 3.94297 17.6866 3.99858C17.7642 4.05418 17.8185 4.13654 17.8391 4.22979C17.8708 4.38449 17.8852 4.54226 17.882 4.70015C17.882 9.44933 17.882 14.1993 17.882 18.95C17.8873 19.066 17.8838 19.1821 17.8715 19.2976C17.8356 19.5385 17.7036 19.6984 17.4464 19.7042C17.166 19.7112 17.0247 19.5443 16.9887 19.2837C16.9774 19.1542 16.9746 19.0242 16.9806 18.8944L16.9841 11.7892Z" fill="#9D4F91"/>
<path d="M9.05602 11.9733V5.0836C9.05602 4.95385 9.05602 4.82409 9.06181 4.69434C9.06157 4.63954 9.07254 4.58528 9.09403 4.53488C9.11553 4.48447 9.1471 4.439 9.18681 4.40124C9.22652 4.36348 9.27353 4.33424 9.32495 4.31531C9.37637 4.29639 9.43112 4.28817 9.48583 4.29117C9.54036 4.28707 9.59516 4.29383 9.64705 4.31105C9.69895 4.32827 9.74692 4.35561 9.78818 4.39148C9.82945 4.42736 9.86319 4.47106 9.88746 4.52006C9.91172 4.56907 9.92603 4.62239 9.92955 4.67696C9.94044 4.79248 9.94314 4.90862 9.93766 5.02452C9.93766 9.67484 9.93766 14.3255 9.93766 18.9766C9.94704 19.1062 9.94121 19.2365 9.92028 19.3647C9.90369 19.4662 9.84906 19.5576 9.76748 19.6202C9.68591 19.6829 9.58354 19.7121 9.4812 19.7019C9.37836 19.7082 9.27718 19.6737 9.1997 19.6058C9.12223 19.5378 9.07475 19.442 9.06761 19.3392C9.056 19.2098 9.05252 19.0798 9.05718 18.95L9.05602 11.9733Z" fill="#9D4F91"/>
<path d="M14.3458 12.5839V6.30702C14.3414 6.17719 14.3444 6.04722 14.3551 5.91776C14.359 5.81522 14.4031 5.71835 14.4779 5.6481C14.5527 5.57786 14.6522 5.53988 14.7548 5.54239C14.8566 5.52948 14.9596 5.55547 15.0432 5.61517C15.1267 5.67487 15.1847 5.7639 15.2054 5.86446C15.2281 5.97884 15.2347 6.09582 15.2251 6.21202C15.2251 10.4839 15.2251 14.755 15.2251 19.0253C15.2336 19.1414 15.2277 19.2582 15.2078 19.3729C15.1898 19.4741 15.1342 19.5649 15.0521 19.6268C14.97 19.6887 14.8675 19.7172 14.7652 19.7065C14.6626 19.7119 14.5619 19.6766 14.4852 19.6083C14.4084 19.54 14.3616 19.4441 14.3551 19.3416C14.3429 19.2126 14.3394 19.0829 14.3446 18.9535L14.3458 12.5839Z" fill="#9D4F91"/>
<path d="M19.6567 13.3532C19.6567 11.4764 19.6567 9.59916 19.6567 7.72158C19.6481 7.59214 19.6559 7.46211 19.6799 7.33463C19.6986 7.23342 19.7551 7.14311 19.8379 7.08201C19.9207 7.02092 20.0237 6.9936 20.1259 7.00561C20.2286 7.00244 20.3283 7.03959 20.4039 7.1091C20.4795 7.17861 20.5248 7.27496 20.5302 7.3775C20.5426 7.50686 20.5469 7.63687 20.543 7.76676C20.543 11.4918 20.543 15.2168 20.543 18.9419C20.543 19.0577 20.543 19.1736 20.5349 19.2894C20.5368 19.3441 20.5275 19.3986 20.5074 19.4495C20.4874 19.5005 20.4571 19.5467 20.4184 19.5854C20.3797 19.6241 20.3335 19.6544 20.2825 19.6744C20.2316 19.6945 20.1771 19.7038 20.1224 19.7019C19.8479 19.7123 19.6973 19.5524 19.659 19.2883C19.6485 19.1727 19.6462 19.0566 19.6521 18.9407L19.6567 13.3532Z" fill="#9D4F91"/>
<path d="M6.39637 13.6555C6.39637 11.849 6.39637 10.0437 6.39637 8.23944C6.38794 8.11039 6.39848 7.9808 6.42765 7.85481C6.45125 7.75402 6.5122 7.66592 6.5982 7.6083C6.6842 7.55068 6.78886 7.52782 6.89106 7.54433C6.98544 7.54705 7.07568 7.58367 7.14525 7.6475C7.21482 7.71133 7.25907 7.79809 7.2699 7.89189C7.28488 8.0071 7.29107 8.12329 7.28843 8.23944C7.28843 11.8216 7.28843 15.403 7.28843 18.9836C7.29142 19.0996 7.28677 19.2157 7.27453 19.3312C7.26797 19.4339 7.22179 19.5301 7.14572 19.5994C7.06965 19.6688 6.96963 19.706 6.86673 19.703C6.76429 19.7141 6.66147 19.6859 6.57894 19.6242C6.49641 19.5626 6.44029 19.4719 6.42185 19.3705C6.39836 19.243 6.39058 19.113 6.39868 18.9836C6.39714 17.208 6.39637 15.432 6.39637 13.6555Z" fill="#9D4F91"/>
<path d="M11.694 14.1757C11.694 12.5584 11.694 10.9411 11.694 9.32379C11.6877 9.19397 11.6955 9.06384 11.7172 8.93569C11.731 8.83385 11.7827 8.74095 11.8619 8.67547C11.9411 8.61 12.0421 8.57675 12.1447 8.58234C12.2473 8.57627 12.3485 8.60956 12.4274 8.67542C12.5064 8.74128 12.5574 8.83476 12.5699 8.93685C12.5894 9.0516 12.5972 9.16806 12.593 9.2844C12.593 12.5329 12.593 15.7822 12.593 19.0322C12.597 19.1488 12.5877 19.2654 12.5652 19.3798C12.5492 19.4737 12.5 19.5587 12.4267 19.6195C12.3534 19.6802 12.2607 19.7128 12.1655 19.7111C12.0632 19.7233 11.9601 19.6957 11.8775 19.634C11.7949 19.5724 11.7392 19.4814 11.7218 19.3798C11.6969 19.238 11.6875 19.0938 11.694 18.95C11.694 17.3551 11.694 15.7636 11.694 14.1757Z" fill="#9D4F91"/>
<path d="M23.1937 14.7758C23.1937 16.1908 23.1937 17.6057 23.1937 19.0207C23.2018 19.1501 23.194 19.2801 23.1705 19.4076C23.1514 19.509 23.0952 19.5996 23.013 19.6619C22.9308 19.7242 22.8284 19.7537 22.7256 19.7447C22.6226 19.7467 22.5229 19.7087 22.4473 19.6387C22.3717 19.5688 22.3261 19.4722 22.3202 19.3694C22.3095 19.2539 22.3052 19.1378 22.3074 19.0218C22.3074 16.1641 22.3074 13.3064 22.3074 10.4487C22.3048 10.3328 22.3087 10.2167 22.319 10.1012C22.3247 9.99843 22.3697 9.90183 22.4448 9.83148C22.5199 9.76113 22.6193 9.72245 22.7222 9.7235C22.825 9.71385 22.9277 9.74277 23.0103 9.80466C23.093 9.86654 23.1497 9.95695 23.1694 10.0583C23.1944 10.1853 23.2026 10.315 23.1937 10.4441C23.1952 11.8876 23.1952 13.3315 23.1937 14.7758Z" fill="#9D4F91"/>
<path d="M3.76516 14.8338C3.76516 13.4057 3.76516 11.9768 3.76516 10.5472C3.76516 10.2993 3.80339 10.0838 4.07101 9.98997C4.3815 9.88455 4.65028 10.1278 4.65028 10.5368C4.65028 11.4891 4.65028 12.4414 4.65028 13.3937C4.65028 15.2844 4.65028 17.1748 4.65028 19.0647C4.65028 19.2535 4.65839 19.4435 4.50314 19.5872C4.4398 19.6477 4.35957 19.6875 4.27309 19.7014C4.18661 19.7152 4.09795 19.7025 4.01888 19.6648C3.79992 19.5733 3.764 19.3763 3.76516 19.162C3.76516 18.0359 3.76516 16.9102 3.76516 15.7849V14.8338Z" fill="#9D4F91"/>
<path d="M25.8674 15.7362V18.9372C25.873 19.0531 25.8702 19.1693 25.8593 19.2848C25.8211 19.5443 25.6797 19.7111 25.3959 19.7042C25.1387 19.6984 25.0078 19.5385 24.9707 19.2975C24.9601 19.1971 24.957 19.096 24.9614 18.9952V12.3742C24.9577 12.2733 24.9605 12.1723 24.9696 12.0718C25.0043 11.8065 25.1596 11.642 25.426 11.649C25.5363 11.6489 25.6424 11.6916 25.7219 11.768C25.8014 11.8445 25.8482 11.9488 25.8524 12.0591C25.8641 12.1745 25.8675 12.2907 25.8628 12.4066L25.8674 15.7362Z" fill="#9D4F91"/>
<path d="M27.6367 16.1267C27.6367 15.1465 27.6367 14.1664 27.6367 13.1863C27.6367 12.8724 27.6854 12.5804 28.0712 12.5677C28.4963 12.5549 28.5346 12.8724 28.5346 13.1967C28.5346 15.1585 28.5346 17.1195 28.5346 19.0797C28.5346 19.3891 28.4963 19.6926 28.1059 19.6984C27.6946 19.7053 27.6425 19.4006 27.6425 19.0681C27.639 18.0869 27.6367 17.1068 27.6367 16.1267Z" fill="#9D4F91"/>
<path d="M31.1724 16.9654C31.1724 17.686 31.1724 18.4066 31.1724 19.1272C31.1724 19.4354 31.0913 19.688 30.7345 19.6961C30.3777 19.7042 30.2861 19.4644 30.2861 19.1469C30.2861 17.691 30.2861 16.2352 30.2861 14.7793C30.2861 14.4746 30.3487 14.2116 30.7148 14.2104C31.1006 14.2104 31.1782 14.4804 31.1782 14.8025C31.1701 15.5231 31.1736 16.2425 31.1724 16.9654Z" fill="#9D4F91"/>
<path d="M30.0313 24.6256C29.7 24.6256 29.3675 24.6314 29.0362 24.6256C28.7442 24.6198 28.5728 24.4704 28.5728 24.1715C28.5797 23.8957 28.75 23.7532 29.0211 23.7521C29.7 23.7467 30.3785 23.7467 31.0566 23.7521C31.1138 23.7514 31.1706 23.762 31.2237 23.7832C31.2768 23.8045 31.3252 23.836 31.3662 23.876C31.4071 23.9159 31.4398 23.9636 31.4623 24.0162C31.4848 24.0687 31.4968 24.1253 31.4974 24.1825C31.4981 24.2397 31.4875 24.2964 31.4663 24.3496C31.445 24.4027 31.4135 24.4511 31.3735 24.492C31.3336 24.5329 31.2859 24.5656 31.2334 24.5881C31.1808 24.6107 31.1243 24.6226 31.0671 24.6233C30.7253 24.6337 30.3777 24.6256 30.0313 24.6256Z" fill="#9D4F91"/>
</g>
<defs>
<clipPath id="clip0_904_1278">
<rect width="35.3084" height="30" fill="white"/>
</clipPath>
</defs>
</svg>
