<svg width="30" height="30" viewBox="0 0 30 30" fill="none" xmlns="http://www.w3.org/2000/svg">
<g clip-path="url(#clip0_904_1108)">
<path d="M18.9022 20.8048C18.7763 20.8011 18.6551 20.7562 18.5573 20.677C18.3903 20.5711 18.2332 20.4504 18.0879 20.3162C17.7263 19.9295 17.3488 19.8786 16.8878 20.1492C16.7433 20.2327 16.6715 20.307 16.6514 20.4624C16.608 20.8031 16.5562 21.1422 16.5053 21.4821C16.451 21.8471 16.289 21.9982 15.9298 22.0007C15.3174 22.0046 14.703 22.0046 14.0866 22.0007C13.7183 22.0007 13.5521 21.8529 13.502 21.4996C13.4519 21.1464 13.3909 20.8006 13.3525 20.449C13.3341 20.282 13.2364 20.2252 13.102 20.1433C12.651 19.8677 12.2827 19.9471 11.9327 20.3162C11.7785 20.4559 11.6122 20.5817 11.4358 20.692C11.1995 20.8632 10.9639 20.8524 10.7577 20.6503C10.2883 20.192 9.82422 19.7282 9.36544 19.2589C9.15164 19.0409 9.15331 18.7979 9.33537 18.5548C9.54667 18.2717 9.75296 17.9811 9.97511 17.7088C10.092 17.5668 10.0653 17.4583 10.0252 17.2912C9.90412 16.7901 9.60764 16.5788 9.10654 16.5872C8.89864 16.5758 8.69197 16.5479 8.48851 16.5037C8.18284 16.4577 8.01498 16.2874 8.01163 15.9867C8.00328 15.3303 8.00328 14.6741 8.01163 14.0182C8.01163 13.7167 8.17867 13.5489 8.49102 13.5038C8.84095 13.452 9.19089 13.4002 9.54166 13.3593C9.71621 13.3392 9.78469 13.2432 9.87573 13.0962C10.153 12.6394 10.0561 12.2761 9.69616 11.9228C9.55685 11.7683 9.43085 11.6024 9.31951 11.4267C9.14663 11.1878 9.1675 10.954 9.36878 10.7494C9.82812 10.2806 10.2919 9.81677 10.7602 9.35799C10.9673 9.15588 11.2028 9.14419 11.4383 9.3179C11.7315 9.53421 12.0296 9.743 12.3102 9.97434C12.4547 10.0929 12.5658 10.0579 12.7278 10.0178C13.198 9.89166 13.4402 9.63276 13.4193 9.12748C13.411 8.91284 13.4728 8.69487 13.5079 8.47939C13.5596 8.16119 13.7317 8.00919 14.0616 8.00669C14.6963 8.00168 15.3313 8.00168 15.9666 8.00669C16.289 8.00669 16.4585 8.16871 16.5086 8.49359C16.5637 8.85355 16.6197 9.21267 16.6631 9.5743C16.6815 9.7288 16.7683 9.77891 16.8945 9.85491C17.3513 10.1288 17.7296 10.0762 18.0938 9.68788C18.2387 9.55347 18.3955 9.43243 18.5623 9.32625C18.807 9.14419 19.0484 9.1517 19.2655 9.3655C19.7254 9.81816 20.182 10.2747 20.6352 10.7352C20.8481 10.9506 20.8707 11.1903 20.6895 11.4376C20.474 11.7307 20.2602 12.0222 20.0322 12.3095C19.9286 12.4398 19.9428 12.5425 19.9821 12.7012C20.1065 13.2081 20.4063 13.4303 20.9216 13.4202C21.1294 13.4296 21.336 13.4576 21.5388 13.5038C21.8378 13.5514 22.0023 13.7276 22.0048 14.0332C22.0082 14.6791 22.0082 15.3247 22.0048 15.97C22.0048 16.2757 21.8378 16.4544 21.5413 16.502C21.1814 16.5588 20.8214 16.6147 20.4598 16.6557C20.2927 16.674 20.2326 16.7601 20.1483 16.897C19.871 17.3472 19.947 17.713 20.3111 18.0704C20.4572 18.233 20.5888 18.4079 20.7045 18.5933C20.7831 18.6867 20.8221 18.8071 20.8134 18.9289C20.8047 19.0507 20.7488 19.1642 20.6577 19.2455C20.1934 19.7241 19.719 20.1918 19.2455 20.6611C19.1519 20.7486 19.0301 20.7995 18.9022 20.8048Z" fill="#9D4F91"/>
<path d="M14.5019 25.5686C13.9348 26.0405 13.4112 26.4781 12.8842 26.9116C12.7798 26.9951 12.8324 27.0427 12.9042 27.102C13.4229 27.5312 13.9399 27.9614 14.4685 28.4007C14.593 27.5279 14.5955 27.558 15.515 27.482C20.7743 27.0677 24.4721 24.4459 26.6085 19.6164C26.7112 19.3834 26.7814 19.3274 27.0261 19.4243C27.6825 19.6849 27.6992 19.6748 27.4069 20.3129C25.329 24.83 21.8405 27.5104 16.9414 28.3539C16.5303 28.4173 16.116 28.4585 15.7004 28.4775C15.5334 28.4875 15.4916 28.5393 15.4991 28.6971C15.5116 28.9569 15.5033 29.2174 15.4991 29.478C15.5036 29.5775 15.4775 29.6759 15.4243 29.7602C15.3712 29.8444 15.2935 29.9103 15.2018 29.9491C15.1173 29.9923 15.0217 30.0085 14.9277 29.9955C14.8337 29.9825 14.746 29.9409 14.6765 29.8764C13.6743 29.0462 12.6721 28.2169 11.6799 27.3759C11.421 27.1563 11.4293 26.8347 11.6874 26.6142C12.6813 25.7746 13.6804 24.9411 14.6848 24.1137C14.755 24.0501 14.8433 24.0098 14.9374 23.9984C15.0315 23.987 15.1268 24.0052 15.2101 24.0503C15.3008 24.0913 15.377 24.1588 15.4286 24.2439C15.4802 24.329 15.5047 24.4278 15.4991 24.5272C15.4991 24.7877 15.5091 25.0483 15.4991 25.308C15.4916 25.4701 15.5517 25.4951 15.6987 25.4809C19.6724 25.0901 22.5972 23.1424 24.4379 19.5897C24.5548 19.3642 24.6258 19.2932 24.8822 19.4226C25.5044 19.7283 25.5253 19.7183 25.1937 20.3221C23.3051 23.758 20.423 25.7805 16.5472 26.3896C16.105 26.4576 15.6584 26.4944 15.211 26.4998C14.6573 26.5065 14.5094 26.3603 14.5028 25.8058C14.5011 25.7432 14.5019 25.6839 14.5019 25.5686Z" fill="#9D4F91"/>
<path d="M25.5686 15.5006C26.033 16.0577 26.4522 16.5613 26.8707 17.0649C26.9366 17.1434 26.9842 17.2478 27.102 17.1033C27.5271 16.5813 27.9605 16.0644 28.3948 15.5466C28.3631 15.524 28.3489 15.504 28.3339 15.504C27.578 15.4823 27.5112 15.4146 27.4987 14.6471C27.4152 9.8165 24.2624 5.26401 19.745 3.43667C19.6785 3.40724 19.6105 3.38131 19.5412 3.359C19.38 3.3139 19.3157 3.22955 19.4026 3.06836C19.4201 3.03066 19.4351 2.99189 19.4477 2.95227C19.6824 2.31588 19.6882 2.30168 20.3179 2.59232C24.8412 4.67801 27.5226 8.17679 28.3623 13.0887C28.4324 13.4979 28.4541 13.9163 28.485 14.3314C28.4942 14.465 28.5343 14.5085 28.6679 14.5035C28.9385 14.4943 29.2091 14.5035 29.4805 14.5035C29.58 14.4989 29.6786 14.5247 29.763 14.5775C29.8475 14.6304 29.9138 14.7076 29.9533 14.7991C29.9968 14.8832 30.0135 14.9786 30.0009 15.0724C29.9884 15.1663 29.9472 15.2539 29.8831 15.3236C29.0529 16.3258 28.2236 17.328 27.3818 18.321C27.1621 18.5807 26.8406 18.5766 26.6209 18.3168C25.7799 17.3238 24.9506 16.3216 24.1154 15.3194C24.0515 15.2494 24.0108 15.1613 23.999 15.0672C23.9872 14.9732 24.0048 14.8777 24.0495 14.7941C24.0898 14.7031 24.1569 14.6266 24.2418 14.5747C24.3267 14.5228 24.4253 14.498 24.5247 14.5035C24.7852 14.5035 25.0458 14.4943 25.3064 14.5035C25.4642 14.511 25.4968 14.4584 25.4818 14.3064C25.0901 10.3326 23.1433 7.40454 19.593 5.56551C19.3425 5.43522 19.3132 5.33584 19.4318 5.09364C19.725 4.49065 19.7183 4.47562 20.3154 4.80384C23.8457 6.74059 25.8693 9.71628 26.423 13.6959C26.4674 14.0681 26.4914 14.4426 26.4948 14.8175C26.509 15.3319 26.3445 15.4956 25.8392 15.5006H25.5686Z" fill="#9D4F91"/>
<path d="M15.5117 4.4239L17.0985 3.10601C17.1695 3.04671 17.2221 3.00078 17.1186 2.91476C16.5916 2.48214 16.0679 2.04368 15.5317 1.59519C15.4265 2.47128 15.424 2.44038 14.4836 2.51388C9.22597 2.93146 5.52952 5.55527 3.39428 10.3853C3.29156 10.6183 3.2214 10.6726 2.9767 10.5757C2.31775 10.3135 2.30188 10.321 2.59169 9.69046C4.66958 5.18056 8.1564 2.50079 13.0521 1.65115C13.4424 1.58111 13.8375 1.54145 14.2339 1.53256C14.4845 1.52838 14.5204 1.429 14.5053 1.21853C14.4895 0.990533 14.5053 0.760864 14.5053 0.532028C14.4993 0.432595 14.5238 0.333697 14.5754 0.248504C14.627 0.163311 14.7034 0.0958651 14.7943 0.0551478C14.8832 0.00955341 14.9842 -0.00691501 15.083 0.00807408C15.1817 0.0230632 15.2733 0.0687499 15.3447 0.138664C16.3293 0.956292 17.3148 1.77309 18.2936 2.59823C18.5901 2.84878 18.5843 3.17115 18.2819 3.42504C17.3107 4.24267 16.3327 5.05195 15.3589 5.86373C15.196 5.99902 15.0156 6.05498 14.8093 5.95977C14.7128 5.91846 14.6317 5.84786 14.5774 5.75794C14.5232 5.66803 14.4985 5.56334 14.507 5.45867C14.507 5.20812 14.497 4.95757 14.5112 4.70702C14.5212 4.52913 14.4494 4.50575 14.294 4.52078C10.3337 4.91414 7.41895 6.85924 5.57991 10.3945C5.45547 10.6334 5.38198 10.7069 5.11639 10.5749C4.50589 10.2717 4.48584 10.2818 4.82158 9.67125C6.70126 6.24985 9.57173 4.23293 13.433 3.62047C13.8853 3.54952 14.3423 3.51184 14.8001 3.50772C15.348 3.50271 15.4933 3.64887 15.5017 4.20843C15.5025 4.26355 15.5075 4.32118 15.5117 4.4239Z" fill="#9D4F91"/>
<path d="M4.43571 14.501C3.96969 13.9406 3.5496 13.4378 3.13118 12.9334C3.06103 12.8498 3.01259 12.7622 2.89984 12.9008C2.47558 13.4228 2.04212 13.9372 1.60867 14.4584C1.64375 14.4801 1.66045 14.4993 1.67465 14.4985C2.36032 14.4467 2.48226 14.6847 2.5165 15.3253C2.79489 20.4281 5.23051 24.1109 9.82337 26.3737C10.1925 26.5549 10.1984 26.5407 10.0455 26.9082C9.8075 27.4769 9.80499 27.4828 9.22121 27.1947C5.10301 25.1569 2.61254 21.8705 1.70973 17.3739C1.60561 16.8212 1.54308 16.2615 1.52265 15.6994C1.51514 15.5366 1.46419 15.489 1.30467 15.4965C1.04577 15.5099 0.784364 15.5015 0.523793 15.4965C0.424251 15.5013 0.325631 15.4755 0.241247 15.4224C0.156864 15.3694 0.0907822 15.2918 0.0519242 15.2C0.00845794 15.1159 -0.00804691 15.0204 0.00465431 14.9266C0.0173555 14.8327 0.0586458 14.7451 0.122913 14.6755C0.947221 13.6825 1.7707 12.6878 2.60419 11.7023C2.84054 11.4234 3.17544 11.4284 3.4143 11.7124C4.24028 12.6912 5.05624 13.6775 5.87387 14.6622C5.943 14.7345 5.98743 14.8269 6.00079 14.9261C6.01414 15.0253 5.99573 15.1261 5.9482 15.2142C5.90564 15.3041 5.83699 15.3792 5.75119 15.4295C5.66538 15.4799 5.5664 15.5032 5.46714 15.4965C5.22745 15.4965 4.98692 15.5082 4.7489 15.4965C4.55931 15.4848 4.49835 15.5316 4.5209 15.7353C4.88169 19.4978 6.68648 22.3332 9.97036 24.2089C10.1783 24.3284 10.2167 24.4069 10.099 24.6265C9.75822 25.2546 9.76073 25.2754 9.15774 24.9046C5.84881 22.8685 3.97052 19.922 3.55712 16.0519C3.52622 15.7621 3.51202 15.4673 3.50701 15.1791C3.49698 14.6647 3.65566 14.5068 4.16679 14.5018L4.43571 14.501Z" fill="#9D4F91"/>
<path d="M19.6338 11.1619C19.5937 11.2187 19.5595 11.2697 19.5219 11.3198C19.3231 11.5865 19.1238 11.8526 18.9239 12.1182C18.8523 12.2021 18.8093 12.3066 18.8014 12.4166C18.7934 12.5266 18.8208 12.6362 18.8796 12.7295C19.0839 13.0912 19.2438 13.4762 19.3557 13.8762C19.3791 13.9784 19.4345 14.0705 19.5138 14.1392C19.593 14.2078 19.6921 14.2494 19.7966 14.2579C20.1265 14.303 20.4547 14.359 20.7846 14.399C20.9425 14.4183 21.0185 14.4692 21.0051 14.6496C20.9826 14.9486 21.1003 15.3486 20.9483 15.5232C20.7963 15.6977 20.3888 15.6718 20.0906 15.6902C19.6329 15.7153 19.3615 15.909 19.2713 16.3767C19.212 16.6816 19.0592 16.9613 18.9013 17.2303C18.8307 17.3344 18.7971 17.4593 18.8059 17.5848C18.8147 17.7103 18.8654 17.8293 18.9498 17.9226C19.1485 18.1732 19.3323 18.4421 19.5344 18.6926C19.6229 18.8029 19.6338 18.8714 19.5202 18.9732C19.2889 19.182 19.0909 19.5462 18.842 19.5804C18.6266 19.6105 18.3409 19.294 18.1196 19.0943C17.7689 18.777 17.4323 18.7269 17.0289 19.0033C16.7783 19.1703 16.4852 19.2539 16.1937 19.3324C15.9265 19.4017 15.7661 19.5595 15.7361 19.8518C15.7018 20.1859 15.6358 20.5091 15.5941 20.839C15.5774 20.9685 15.5273 21.0236 15.3961 21.006C15.3441 21.0027 15.292 21.0027 15.24 21.006C14.9811 21.001 14.6403 21.0937 14.4833 20.9643C14.2929 20.8064 14.3388 20.4415 14.3255 20.1675C14.3021 19.6623 14.1083 19.3491 13.5805 19.2589C13.2949 19.2104 13.036 19.0584 12.7846 18.9114C12.5332 18.7645 12.2977 18.7828 12.0672 18.9682C11.8233 19.1628 11.5619 19.3357 11.3222 19.5345C11.1953 19.6397 11.1209 19.618 11.019 19.5086C10.8153 19.2864 10.4662 19.0969 10.4261 18.8538C10.386 18.6108 10.7134 18.3527 10.9096 18.1322C11.2195 17.7806 11.2863 17.4466 11.0074 17.0415C10.8532 16.7939 10.7446 16.5206 10.6866 16.2347C10.614 15.9424 10.4528 15.7637 10.1329 15.7336C9.83311 15.7069 9.53579 15.6451 9.2368 15.6109C9.06977 15.5908 8.97623 15.5407 8.99961 15.3428C9.02551 15.1566 9.02551 14.9677 8.99961 14.7815C8.94867 14.4684 9.10985 14.4007 9.3721 14.3807C9.65104 14.3581 9.92748 14.3013 10.2073 14.2637C10.3119 14.256 10.4112 14.2149 10.4908 14.1465C10.5703 14.0781 10.6258 13.986 10.6491 13.8837C10.7663 13.4743 10.9302 13.0798 11.1376 12.7078C11.1913 12.6171 11.2151 12.5118 11.2055 12.4069C11.1959 12.3019 11.1534 12.2027 11.0842 12.1232C10.8787 11.8484 10.6766 11.5712 10.4645 11.3014C10.386 11.202 10.3768 11.1386 10.477 11.0459C10.6758 10.8629 10.8679 10.6709 11.0508 10.4713C11.146 10.3677 11.2111 10.3877 11.3072 10.4662C11.5577 10.6659 11.8258 10.8496 12.078 11.0509C12.3002 11.2271 12.524 11.2513 12.7696 11.1102C13.1022 10.9169 13.4592 10.7689 13.831 10.67C13.95 10.6482 14.0581 10.5868 14.1378 10.4959C14.2176 10.4049 14.2642 10.2897 14.2703 10.1689C14.3054 9.84906 14.3689 9.5317 14.4048 9.21183C14.424 9.04479 14.4883 8.98717 14.6612 8.99969C14.8789 9.021 15.0982 9.021 15.316 8.99969C15.5448 8.97297 15.5958 9.08321 15.6166 9.27279C15.6517 9.58264 15.7052 9.89082 15.7461 10.1998C15.7525 10.3044 15.7923 10.4042 15.8596 10.4845C15.927 10.5648 16.0183 10.6213 16.1202 10.6458C16.5296 10.7627 16.9242 10.9264 17.2961 11.1335C17.5108 11.2546 17.7137 11.2171 17.905 11.0692C18.1614 10.873 18.4278 10.6909 18.6758 10.4846C18.812 10.3727 18.893 10.3886 19.0032 10.5139C19.1619 10.6934 19.3373 10.8546 19.5085 11.0241C19.5478 11.0651 19.5878 11.111 19.6338 11.1619Z" fill="#FEFEFE"/>
<path d="M15.0052 12.0014C15.6001 12.0021 16.1813 12.1797 16.675 12.5117C17.1687 12.8436 17.5524 13.3149 17.7776 13.8655C18.0027 14.4162 18.059 15.0213 17.9392 15.604C17.8195 16.1868 17.5292 16.7207 17.1052 17.138C16.6812 17.5553 16.1427 17.837 15.5581 17.9474C14.9735 18.0578 14.3694 17.9919 13.8224 17.758C13.2754 17.5241 12.8103 17.1328 12.4863 16.6339C12.1623 16.135 11.994 15.551 12.0028 14.9562C12.0136 13.3318 13.3699 11.9972 15.0052 12.0014Z" fill="#9D4F91"/>
<path d="M15.0157 13.001C15.4108 13.0036 15.7963 13.1233 16.1234 13.3448C16.4506 13.5664 16.7048 13.8799 16.8539 14.2458C17.003 14.6117 17.0403 15.0136 16.9612 15.4007C16.8821 15.7878 16.69 16.1428 16.4093 16.4209C16.1286 16.6989 15.7718 16.8876 15.3839 16.963C14.996 17.0384 14.5945 16.9972 14.2301 16.8446C13.8656 16.692 13.5546 16.4348 13.3361 16.1055C13.1177 15.7763 13.0018 15.3897 13.0029 14.9945C13.0058 14.4634 13.2194 13.9551 13.5968 13.5813C13.9742 13.2075 14.4845 12.9988 15.0157 13.001Z" fill="#FEFEFE"/>
</g>
<defs>
<clipPath id="clip0_904_1108">
<rect width="30.0017" height="30" fill="white"/>
</clipPath>
</defs>
</svg>
