<svg width="39" height="30" viewBox="0 0 39 30" fill="none" xmlns="http://www.w3.org/2000/svg">
<g clip-path="url(#clip0_904_1164)">
<path d="M0 5.47627C0.209468 5.1756 0.496108 5.09142 0.860922 5.09442C2.9105 5.10946 4.96008 5.10043 7.00965 5.10144C7.59897 5.10144 7.79842 5.30188 7.79942 5.88318C7.79942 6.52061 7.79341 7.15803 7.79942 7.79545C7.79716 8.35179 8.016 8.88625 8.40779 9.28124C8.79959 9.67622 9.33224 9.8994 9.88859 9.90166C10.4449 9.90392 10.9794 9.68508 11.3744 9.29328C11.7694 8.90149 11.9925 8.36883 11.9948 7.81249C12.0058 7.16304 11.9948 6.50958 11.9948 5.86314C11.9948 5.30289 12.1952 5.10144 12.7665 5.10144C16.7755 5.10144 20.7894 5.09642 24.8004 5.11046C25.1321 5.11046 25.2073 5.03028 25.2013 4.70956C25.1933 4.03706 25.1331 3.36055 25.2554 2.69005C25.407 1.89117 25.848 1.17633 26.494 0.68253C27.14 0.188727 27.9456 -0.0492974 28.7562 0.0140758C30.3879 0.136349 31.7228 1.50741 31.783 3.14006C31.804 3.70231 31.803 4.26557 31.783 4.82682C31.775 5.06636 31.8501 5.11146 32.0746 5.11046C33.9117 5.10144 35.7488 5.10444 37.5869 5.10545C38.1983 5.10545 38.3887 5.29787 38.3887 5.91225V24.0949C38.3887 24.7102 38.1963 24.9037 37.5869 24.9047C35.5123 24.9047 33.4377 24.9047 31.363 24.9047C30.7958 24.9047 30.5903 24.7042 30.5883 24.146C30.5883 23.5085 30.5933 22.8711 30.5883 22.2337C30.5753 21.031 29.6572 20.1039 28.4836 20.1069C27.31 20.11 26.402 21.038 26.3909 22.2457C26.3849 22.8701 26.3909 23.4955 26.3909 24.1199C26.3909 24.7052 26.1905 24.9047 25.6042 24.9057C21.5952 24.9057 17.5836 24.903 13.5693 24.8976C13.2616 24.8976 13.1784 24.9638 13.1814 25.2795C13.1885 25.952 13.2506 26.6285 13.1303 27.299C12.9732 28.0878 12.5329 28.7919 11.8924 29.2785C11.252 29.7651 10.4557 30.0006 9.65358 29.9406C8.85149 29.8806 8.09907 29.5292 7.53819 28.9527C6.97731 28.3761 6.64673 27.6144 6.60876 26.8109C6.59473 26.2737 6.59072 25.7355 6.60876 25.1993C6.61778 24.9498 6.54061 24.8987 6.30007 24.8987C4.48802 24.9097 2.67497 24.8987 0.863929 24.9117C0.498112 24.9117 0.212475 24.8315 0.0020049 24.5298L0 5.47627Z" fill="#9D4F91"/>
<path d="M19.7992 20.587C19.7992 19.6739 19.7992 18.7619 19.7992 17.8498C19.7992 17.3147 19.5867 17.1082 19.0465 17.1062C18.4091 17.1062 17.7717 17.1062 17.1343 17.1062C15.9316 17.0942 15.0015 16.1791 15.0005 15.0085C14.9995 13.8379 15.9296 12.9138 17.1322 12.9018C17.7446 12.8958 18.357 12.9018 18.9684 12.9018C19.6108 12.9018 19.7992 12.7164 19.7992 12.085C19.7992 10.298 19.8072 8.51099 19.7922 6.724C19.7922 6.40328 19.8443 6.28803 20.2031 6.29204C21.9901 6.31409 23.7771 6.30206 25.5641 6.30206C26.2205 6.30206 26.3989 6.11965 26.3989 5.45216C26.3989 4.75059 26.3989 4.04903 26.3989 3.34746C26.409 2.13676 27.314 1.20568 28.4816 1.19866C29.6692 1.19064 30.5863 2.12172 30.5973 3.35147C30.6033 4.07609 30.5973 4.80071 30.5973 5.52532C30.5973 6.09059 30.7978 6.29605 31.36 6.29605C33.1971 6.29605 35.0342 6.30206 36.8723 6.29103C37.1239 6.29103 37.2051 6.33614 37.2051 6.60975C37.1957 12.1956 37.1957 17.781 37.2051 23.3662C37.2051 23.6668 37.1159 23.7049 36.8513 23.7029C35.2768 23.6899 33.7023 23.6869 32.1277 23.7029C31.8331 23.7029 31.788 23.6157 31.789 23.3501C31.789 22.7638 31.8421 22.1765 31.7359 21.5922C31.5882 20.7921 31.1498 20.0748 30.505 19.5786C29.8601 19.0824 29.0545 18.8422 28.2432 18.9044C27.432 18.9667 26.6724 19.3268 26.1108 19.9156C25.5491 20.5043 25.2252 21.28 25.2013 22.0933C25.1902 22.5303 25.1882 22.9683 25.2013 23.4053C25.2073 23.6167 25.1772 23.7059 24.9257 23.7059C23.3007 23.6919 21.6764 23.6919 20.0528 23.7059C19.8293 23.7059 19.7902 23.6318 19.7922 23.4303C19.8052 22.4812 19.7992 21.5311 19.7992 20.587Z" fill="#F3EAF2"/>
<path d="M1.19647 14.9744C1.19647 12.2002 1.19647 9.42503 1.18945 6.65084C1.18945 6.38324 1.23455 6.29504 1.52821 6.29805C3.11475 6.31509 4.7023 6.31108 6.28985 6.29805C6.52337 6.29805 6.60455 6.34215 6.60354 6.59872C6.60354 7.20006 6.54642 7.80141 6.65566 8.39373C6.79961 9.1986 7.23773 9.92117 7.88483 10.421C8.53193 10.9208 9.34177 11.1621 10.1569 11.0979C10.972 11.0338 11.7342 10.6689 12.2952 10.0741C12.8562 9.47924 13.1759 8.69706 13.1923 7.87958C13.2023 7.42957 13.2033 6.97757 13.1923 6.53057C13.1923 6.35016 13.2414 6.29905 13.4218 6.30005C15.0715 6.30674 16.7211 6.30674 18.3708 6.30005C18.5512 6.30005 18.6013 6.35016 18.6003 6.52956C18.5937 8.17925 18.5937 9.82927 18.6003 11.4796C18.6003 11.7121 18.4921 11.7021 18.3307 11.7061C17.7073 11.7242 17.0819 11.651 16.4616 11.7703C15.6688 11.9239 14.9601 12.3633 14.4699 13.0049C13.9798 13.6466 13.7422 14.4459 13.8024 15.2511C13.8626 16.0564 14.2164 16.8115 14.7966 17.3731C15.3767 17.9347 16.1429 18.2638 16.9497 18.2978C17.4107 18.3129 17.8747 18.3149 18.3357 18.2978C18.5562 18.2898 18.5993 18.366 18.5983 18.5705C18.5913 20.1831 18.5883 21.7957 18.5983 23.4073C18.5983 23.6628 18.5192 23.7079 18.2856 23.7079C16.4606 23.6989 14.6355 23.7019 12.8114 23.7029C12.175 23.7029 11.9926 23.8883 11.9916 24.5298C11.9916 25.2424 11.9966 25.9549 11.9916 26.6675C11.9796 27.8702 11.0635 28.8013 9.89289 28.8013C8.72228 28.8013 7.81124 27.8702 7.80122 26.6665C7.7942 25.9409 7.80122 25.2163 7.80122 24.4917C7.80122 23.9014 7.60077 23.7019 7.02048 23.7009C5.20743 23.7009 3.39538 23.6929 1.58333 23.7079C1.28266 23.7079 1.19146 23.6528 1.19346 23.3311C1.20649 20.5439 1.19647 17.7566 1.19647 14.9744Z" fill="#F3EAF2"/>
</g>
<defs>
<clipPath id="clip0_904_1164">
<rect width="38.3988" height="30" fill="white"/>
</clipPath>
</defs>
</svg>
