<svg width="100" height="100" viewBox="0 0 100 100" fill="none" xmlns="http://www.w3.org/2000/svg">
<rect width="100" height="100" rx="50" fill="white"/>
<rect x="13.5" y="13.5" width="73" height="73" rx="36.5" stroke="#ACCE75"/>
<path d="M66.4958 35.5042C66.4958 34.3997 65.6003 33.5042 64.4958 33.5042L46.4958 33.5042C45.3912 33.5042 44.4958 34.3997 44.4958 35.5042C44.4958 36.6088 45.3912 37.5042 46.4958 37.5042L62.4958 37.5042L62.4958 53.5042C62.4958 54.6088 63.3912 55.5042 64.4958 55.5042C65.6003 55.5042 66.4958 54.6088 66.4958 53.5042L66.4958 35.5042ZM36.9186 65.9098L65.91 36.9184L63.0816 34.09L34.0902 63.0814L36.9186 65.9098Z" fill="#97C253"/>
</svg>
