<svg width="32" height="30" viewBox="0 0 32 30" fill="none" xmlns="http://www.w3.org/2000/svg">
<g clip-path="url(#clip0_904_1237)">
<path d="M31.2441 22.6874C31.0686 24.1551 29.6841 25.3952 28.151 25.4228C26.8472 25.446 25.5429 25.4356 24.2373 25.4228C23.9927 25.4228 23.8704 25.4778 23.7682 25.7212C23.2533 26.9693 22.714 28.207 22.1783 29.4478C21.9948 29.8758 21.7502 30.033 21.3949 29.9633C21.3123 29.951 21.2331 29.9218 21.1622 29.8776C21.0914 29.8334 21.0304 29.775 20.9832 29.7061C20.9359 29.6373 20.9033 29.5594 20.8874 29.4774C20.8716 29.3954 20.8728 29.311 20.891 29.2295C20.9118 29.1199 20.9444 29.0128 20.9883 28.9103C21.5869 27.5105 22.1985 26.1156 22.7843 24.7103C22.9574 24.2957 23.2173 24.119 23.6667 24.1245C25.0732 24.1404 26.4797 24.1343 27.8862 24.1288C28.9179 24.1251 29.6694 23.5784 29.9207 22.6611C29.9767 22.4335 30.002 22.1995 29.996 21.9652C29.996 19.2745 29.996 16.5838 29.996 13.8931C29.996 12.8988 29.4847 12.4255 28.4935 12.3772C27.7645 12.3411 27.2472 12.6218 26.813 13.1722C25.9245 14.2998 25.0139 15.4103 24.126 16.5355C23.8979 16.8254 23.6368 16.9575 23.2662 16.9501C22.3195 16.9318 21.3705 16.9428 20.4257 16.9446C19.7242 16.9446 19.3249 17.5182 19.5616 18.1738C19.6142 18.3205 19.7334 18.2533 19.8203 18.2533C21.2267 18.2582 22.6332 18.2037 24.0367 18.2771C24.8274 18.3187 25.3508 18.1096 25.7489 17.4155C26.0443 16.8981 26.451 16.4432 26.8203 15.9699C27.1542 15.5418 27.6905 15.5418 27.937 15.9699C28.1082 16.264 28.0214 16.5343 27.8293 16.7893C27.3022 17.4883 26.7812 18.1915 26.251 18.888C26.1363 19.03 26.0764 19.2083 26.0822 19.3907C26.0914 20.0322 26.0877 20.6749 26.0853 21.3164C26.0853 21.9212 25.8407 22.1658 25.2347 22.1682C24.5008 22.1682 23.767 22.1652 23.0332 22.1682C22.2994 22.1713 21.8792 22.4807 21.6469 23.1772C20.9685 25.2087 20.2917 27.241 19.6166 29.2741C19.5758 29.41 19.5217 29.5415 19.4552 29.6667C19.384 29.788 19.2746 29.8822 19.1442 29.9346C19.0137 29.9869 18.8695 29.9945 18.7343 29.9561C18.599 29.9177 18.4804 29.8355 18.3969 29.7223C18.3134 29.6092 18.2699 29.4715 18.2731 29.331C18.2807 29.1994 18.3067 29.0695 18.3502 28.9451C19.0326 26.8937 19.7177 24.8426 20.4055 22.792C20.8335 21.5206 21.7423 20.8633 23.0846 20.8547C23.5738 20.8547 24.063 20.848 24.5522 20.8547C24.721 20.8584 24.7846 20.8162 24.776 20.6376C24.762 20.3318 24.7662 20.0261 24.776 19.7203C24.7803 19.587 24.7375 19.5332 24.6042 19.5503C24.5533 19.5534 24.5022 19.5534 24.4513 19.5503C18.5831 19.5503 12.7148 19.5481 6.84622 19.5436C6.57776 19.5436 6.49154 19.6047 6.51906 19.8732C6.53924 20.1274 6.53924 20.3828 6.51906 20.637C6.50866 20.8156 6.57532 20.8547 6.74287 20.8541C7.34339 20.8541 7.94635 20.8351 8.54442 20.8785C9.71548 20.9635 10.4878 21.6124 10.8609 22.7015C11.58 24.8051 12.2674 26.921 12.9688 29.0295C13.1039 29.4386 12.9853 29.7566 12.6593 29.9131C12.5228 29.9812 12.3661 29.997 12.2188 29.9577C12.0714 29.9184 11.9434 29.8267 11.8589 29.6997C11.7878 29.5769 11.7314 29.4461 11.6907 29.3102C11.0148 27.2881 10.3407 25.2654 9.66839 23.2421C9.4091 22.4648 9.01467 22.1762 8.20502 22.1737C7.49199 22.1737 6.77834 22.1737 6.0647 22.1737C5.46051 22.1737 5.21591 21.9291 5.21346 21.3225C5.21346 20.67 5.20857 20.0181 5.21346 19.3656C5.21841 19.2033 5.16528 19.0446 5.06364 18.918C4.52122 18.2056 3.98124 17.4907 3.45106 16.7691C3.13245 16.3349 3.25292 15.8628 3.70667 15.6947C3.9947 15.5883 4.25704 15.6824 4.49553 15.9955C5.01227 16.6768 5.52717 17.3592 6.03229 18.049C6.07745 18.1204 6.14109 18.1782 6.21646 18.2163C6.29183 18.2544 6.3761 18.2714 6.46035 18.2655C8.13184 18.2578 9.80333 18.2578 11.4748 18.2655C11.6907 18.2655 11.7708 18.2074 11.739 17.9952C11.7335 17.9138 11.7335 17.8321 11.739 17.7506C11.7335 17.2002 11.4883 16.9514 10.9349 16.9483C9.96681 16.9434 8.99877 16.9348 8.03135 16.9532C7.6571 16.9605 7.40087 16.8254 7.17522 16.5367C6.27445 15.3932 5.34066 14.2741 4.45334 13.1214C3.87667 12.3704 3.11839 12.2787 2.29161 12.4377C1.65685 12.56 1.30523 13.1104 1.30462 13.8662C1.30462 16.5761 1.30462 19.2859 1.30462 21.9958C1.30462 22.3437 1.34192 22.6874 1.50336 23.0042C1.90085 23.7845 2.55885 24.1263 3.41436 24.1276C4.80986 24.1276 6.20596 24.1416 7.60145 24.1208C8.07905 24.1141 8.34628 24.2994 8.52729 24.7366C9.11068 26.1431 9.72465 27.5368 10.3227 28.9372C10.5533 29.4765 10.3466 29.9156 9.84267 29.9767C9.53324 30.0147 9.2923 29.8502 9.13086 29.4741C8.65693 28.3733 8.14264 27.2885 7.73293 26.1645C7.51706 25.5744 7.22781 25.3781 6.59978 25.4124C5.44156 25.4735 4.276 25.4466 3.11411 25.4203C1.60365 25.3854 0.227728 24.1392 0.0565018 22.6874C-0.00465027 22.5902 0.0754589 22.4685 0.00146484 22.3743V13.3868C0.145784 12.7416 0.400177 12.1638 0.918746 11.7167C1.62444 11.1052 2.46039 11.0441 3.32997 11.0887C4.19956 11.1333 4.85022 11.5749 5.37735 12.2176C6.24143 13.27 7.08899 14.3402 7.93595 15.4103C7.99178 15.4922 8.0682 15.5579 8.15753 15.6009C8.24685 15.6438 8.34591 15.6625 8.44474 15.6549C9.28008 15.6403 10.1154 15.6464 10.952 15.6494C12.2148 15.6543 13.0244 16.4646 13.0385 17.7323C13.044 18.2618 13.044 18.2618 13.5632 18.2618C15.0308 18.2618 16.4985 18.2563 17.9661 18.2673C18.2052 18.2673 18.2872 18.2111 18.2719 17.9646C18.2187 17.2155 18.4021 16.5526 19.0253 16.0689C19.3149 15.8415 19.6639 15.7024 20.0306 15.6684C20.1603 15.6555 20.2306 15.6323 20.2269 15.4758C20.1982 14.1114 20.2801 12.7459 20.1798 11.3828C20.1003 10.2992 19.0442 9.23579 17.9539 9.1728C16.4286 9.08505 14.8995 9.08505 13.3742 9.1728C12.2441 9.23763 11.2272 10.2907 11.1232 11.4263C11.0553 12.1693 11.1042 12.9129 11.0865 13.6553C11.0792 13.9482 10.9581 14.1757 10.6896 14.2882C10.5808 14.337 10.4601 14.3535 10.3421 14.3356C10.2241 14.3177 10.1138 14.2662 10.0243 14.1873C9.89098 14.0784 9.7962 13.9341 9.79681 13.7714C9.80048 12.7759 9.67023 11.773 9.90444 10.7891C10.3044 9.10921 11.8148 7.86843 13.5405 7.83235C14.947 7.803 16.3535 7.79994 17.76 7.83235C19.7933 7.87944 21.4634 9.56418 21.5105 11.603C21.5392 12.845 21.5295 14.0888 21.5105 15.3333C21.5062 15.617 21.5937 15.669 21.8474 15.6531C22.1937 15.6338 22.5408 15.6338 22.887 15.6531C23.0919 15.6635 23.2221 15.5919 23.3475 15.4354C24.1877 14.3738 25.0396 13.3214 25.8829 12.2616C26.6259 11.3284 27.5951 10.9774 28.7668 11.0869C30.1953 11.2226 30.9982 12.0231 31.3016 13.3868V22.3762C31.2263 22.4673 31.3052 22.589 31.2441 22.6874Z" fill="#9D4F91"/>
<path d="M0 6.05405C0.0947858 5.90606 0.0856129 5.72749 0.141873 5.56911C0.580333 4.33995 1.42118 3.53641 2.71454 3.3181C4.10575 3.08389 5.23156 3.60796 5.99596 4.77902C6.72184 5.89077 6.71328 7.06978 6.03877 8.2121C5.69018 8.7929 5.16837 9.24987 4.54668 9.51882C3.92498 9.78777 3.23464 9.85517 2.57267 9.71155C1.28236 9.43576 0.20486 8.29221 0.055037 7.03921C-0.00611512 6.94259 0.0739941 6.82089 0 6.72611V6.05405Z" fill="#9D4F91"/>
<path d="M31.2439 7.03678C31.0482 8.23108 30.3651 9.06397 29.2736 9.52445C28.182 9.98492 27.0831 9.87179 26.1285 9.13919C24.7269 8.06413 24.3765 6.29867 25.2296 4.87383C25.5705 4.29509 26.081 3.83504 26.6919 3.55592C27.3029 3.2768 27.9849 3.19208 28.6455 3.31323C29.9829 3.5664 31.0176 4.65001 31.2531 6.04244C31.2573 6.06752 31.283 6.08892 31.2989 6.11216V6.72368C31.2262 6.81785 31.305 6.93955 31.2439 7.03678Z" fill="#9D4F91"/>
<path d="M0 6.72305C0.0831669 6.81662 0.0739941 6.92547 0.055037 7.03615L0.0287416 7.02759H0V6.72305Z" fill="#565656"/>
<path d="M31.2436 7.03676C31.2247 6.92547 31.2161 6.81662 31.2987 6.72305V7.02881H31.2699L31.2436 7.03676Z" fill="#565656"/>
<path d="M0 22.3731C0.0831669 22.4661 0.0739941 22.5749 0.055037 22.6862L0.0281299 22.677H0V22.3731Z" fill="#565656"/>
<path d="M31.2436 22.6874C31.2247 22.5761 31.2161 22.4673 31.2987 22.3743V22.6801H31.2699L31.2436 22.6874Z" fill="#565656"/>
<path d="M18.9048 3.26981C18.8987 5.05912 17.4066 6.54145 15.6313 6.52188C14.9864 6.51946 14.3568 6.3259 13.8219 5.96568C13.287 5.60546 12.8709 5.09474 12.6262 4.49808C12.3815 3.90143 12.3192 3.24562 12.4472 2.61356C12.5751 1.9815 12.8876 1.40157 13.3451 0.947066C13.8026 0.492565 14.3846 0.1839 15.0174 0.0600901C15.6503 -0.0637198 16.3057 0.00288363 16.9008 0.251481C17.4958 0.500078 18.0038 0.919507 18.3605 1.45675C18.7172 1.994 18.9066 2.62493 18.9048 3.26981Z" fill="#9D4F91"/>
<path d="M16.3067 11.0783C16.3067 11.7363 16.3067 11.7363 15.645 11.7363C14.9932 11.7363 14.9932 11.7363 14.9932 11.0991C14.9932 10.4362 14.9932 10.4362 15.6548 10.4362C16.3067 10.4362 16.3067 10.4362 16.3067 11.0783Z" fill="#9D4F91"/>
<path d="M16.3067 25.4295C16.3067 26.825 16.3067 28.2207 16.3067 29.6166C16.3067 30.0544 16.363 29.9933 15.9105 29.9982C15.7374 29.9982 15.5637 29.9982 15.3907 29.9982C14.9382 29.9933 14.9956 30.0544 14.9944 29.6166C14.9944 28.292 14.9944 26.9671 14.9944 25.6417C14.9944 24.174 14.9944 22.7064 14.9944 21.2387C14.9944 20.8003 14.9382 20.862 15.3907 20.8571C15.5637 20.8571 15.7374 20.8571 15.9105 20.8571C16.363 20.862 16.3055 20.8003 16.3067 21.2387C16.3084 22.6367 16.3084 24.0336 16.3067 25.4295Z" fill="#9D4F91"/>
<path d="M3.2692 4.57051C3.78344 4.57309 4.27586 4.77868 4.63926 5.14254C5.00266 5.5064 5.20763 5.99907 5.20956 6.51331C5.20956 7.58898 4.31612 8.48791 3.25269 8.47568C2.73816 8.46779 2.24692 8.25985 1.88311 7.89592C1.51929 7.53199 1.3115 7.04069 1.30377 6.52615C1.29521 5.46027 2.19659 4.56623 3.2692 4.57051Z" fill="#FEFEFE"/>
<path d="M28.0311 4.57051C29.1067 4.56623 30.0057 5.46027 29.9965 6.52738C29.9888 7.04181 29.7811 7.53302 29.4174 7.89693C29.0537 8.26084 28.5626 8.46886 28.0482 8.47691C26.9835 8.48914 26.0877 7.5902 26.0913 6.51392C26.0929 5.99963 26.2977 5.5068 26.661 5.14279C27.0243 4.77879 27.5168 4.57309 28.0311 4.57051Z" fill="#FEFEFE"/>
<path d="M15.6503 5.2071C15.135 5.20713 14.6405 5.0039 14.2741 4.64153C13.9077 4.27916 13.6991 3.78691 13.6934 3.27163C13.6849 2.20331 14.585 1.29887 15.6503 1.30315C16.7156 1.30743 17.6151 2.21187 17.6017 3.27836C17.5943 3.79151 17.3856 4.28123 17.0206 4.642C16.6556 5.00276 16.1635 5.20571 15.6503 5.2071Z" fill="#FEFEFE"/>
</g>
<defs>
<clipPath id="clip0_904_1237">
<rect width="31.2995" height="30" fill="white"/>
</clipPath>
</defs>
</svg>
