<svg width="26" height="30" viewBox="0 0 26 30" fill="none" xmlns="http://www.w3.org/2000/svg">
<g clip-path="url(#clip0_904_1211)">
<path d="M2.57761 30C2.46382 29.8921 2.3082 29.9163 2.17312 29.8789C0.906088 29.5317 0.216045 28.4768 0.052343 27.2773C0.0197688 26.9961 0.00627941 26.7131 0.0119679 26.4301C0.00903154 23.3161 0.00903154 20.2019 0.0119679 17.0874C0.0119679 16.6014 0.171266 16.3496 0.516288 16.2799C0.861309 16.2102 1.15127 16.3973 1.24083 16.7438C1.26924 16.8774 1.28059 17.0141 1.2746 17.1505C1.2746 20.3233 1.2746 23.496 1.2746 26.6687C1.2746 27.1767 1.34801 27.6561 1.6578 28.0811C1.78165 28.2512 1.93875 28.3943 2.11958 28.5018C2.3004 28.6093 2.50119 28.679 2.70974 28.7065C2.90394 28.7376 3.10035 28.7528 3.29701 28.7521C9.45014 28.7521 15.6033 28.7521 21.7564 28.7521C22.7746 28.7521 23.4925 28.2455 23.7443 27.3573C23.8014 27.1301 23.8276 26.8963 23.8221 26.6621C23.828 25.569 23.8221 24.4753 23.8464 23.3822C23.8794 21.9669 23.0579 21.4148 21.8438 21.2849C21.61 21.2636 21.3752 21.2548 21.1405 21.2585C16.5921 21.2585 12.0434 21.2585 7.49453 21.2585H7.16419L8.51785 22.6004C8.68229 22.7634 8.80195 22.9461 8.77405 23.1877C8.76364 23.3041 8.7204 23.4151 8.64937 23.5079C8.57834 23.6007 8.48243 23.6714 8.37279 23.7119C8.26315 23.7523 8.14429 23.7608 8.03001 23.7364C7.91573 23.7119 7.81074 23.6555 7.72724 23.5738C6.87937 22.7355 6.03149 21.8979 5.1983 21.0449C4.95312 20.7938 4.95752 20.4525 5.20491 20.1992C6.03149 19.3535 6.86811 18.5179 7.71476 17.6923C7.77098 17.6336 7.83837 17.5867 7.91296 17.5545C7.98755 17.5222 8.06784 17.5052 8.14911 17.5045C8.23037 17.5037 8.31096 17.5193 8.38614 17.5501C8.46132 17.581 8.52956 17.6266 8.58686 17.6842C8.82984 17.9213 8.83938 18.2972 8.58098 18.5761C8.28221 18.8984 7.96288 19.2016 7.65089 19.5113C7.50408 19.6582 7.35726 19.794 7.15025 19.9966H7.52536C12.0547 19.9966 16.5838 19.9966 21.1126 19.9966C21.9495 19.9966 22.7783 20.07 23.5285 20.4825C24.6296 21.0911 25.1178 22.0807 25.0877 23.2948C25.0576 24.4855 25.0774 25.6762 25.0591 26.8662C25.0582 27.5747 24.8176 28.2621 24.3764 28.8166C23.9352 29.371 23.3195 29.7599 22.6292 29.92C22.5632 29.9361 22.4942 29.9383 22.4266 29.9479C22.3334 30.0059 22.2167 29.9295 22.1257 30H2.57761Z" fill="#9D4F91"/>
<path d="M22.126 30C22.2155 29.9207 22.3205 29.9266 22.427 29.9479C22.4202 29.9545 22.4158 29.9632 22.4145 29.9727C22.4131 29.9821 22.4149 29.9917 22.4196 30H22.126Z" fill="#F3EAF2"/>
<path d="M22.8659 8.13074C22.8329 7.99713 22.7419 7.94795 22.6758 7.88188C20.5323 5.74079 18.3887 3.59945 16.2452 1.45787C16.1806 1.38654 16.101 1.33034 16.0122 1.29329C15.9234 1.25623 15.8275 1.23924 15.7313 1.24352C11.6028 1.24988 7.47404 1.25159 3.34504 1.24865C2.28135 1.24865 1.5546 1.77573 1.31675 2.71023C1.27694 2.90156 1.26116 3.09711 1.26977 3.29236C1.26977 6.11419 1.26977 8.93603 1.26977 11.7579C1.26519 12.1978 1.35427 12.6337 1.53111 13.0366C1.89815 13.8691 2.56397 14.2883 3.45075 14.3514C3.97636 14.3888 4.50637 14.3712 5.03491 14.3712C8.98724 14.3712 12.9398 14.3712 16.8926 14.3712H17.2935C16.8383 13.9205 16.4316 13.5211 16.0301 13.1181C15.9309 13.0245 15.8425 12.9201 15.7666 12.8069C15.693 12.6903 15.6623 12.5517 15.6797 12.415C15.6971 12.2782 15.7616 12.1518 15.862 12.0574C15.9612 11.9621 16.0897 11.9031 16.2266 11.8898C16.3635 11.8765 16.5009 11.9096 16.6166 11.984C16.7059 12.0436 16.7888 12.1122 16.864 12.1888C17.6138 12.9336 18.3608 13.6785 19.1052 14.4233C19.5244 14.8425 19.5258 15.1574 19.1103 15.5737C18.343 16.3415 17.5753 17.1081 16.8075 17.8736C16.6049 18.0762 16.367 18.1782 16.0918 18.085C15.9836 18.0504 15.8875 17.9857 15.8148 17.8985C15.7421 17.8112 15.6958 17.705 15.6814 17.5924C15.6366 17.3333 15.768 17.1424 15.9398 16.9714L17.2406 15.6757C17.1349 15.6023 17.027 15.6324 16.9286 15.6324C12.6043 15.6324 8.27983 15.6324 3.95507 15.6324C3.06021 15.6324 2.20206 15.4907 1.46577 14.9306C0.595879 14.2699 0.184054 13.3567 0.0497161 12.3033C-0.0361723 11.6235 0.0100751 10.9379 0.00934099 10.2552C0.00493646 7.92176 0.00493646 5.5881 0.00934099 3.25419C0.0130114 1.78087 0.838862 0.611466 2.16756 0.165874C2.49254 0.0575461 2.83291 0.00251233 3.17547 0.00290654C7.49974 0.00290654 11.824 0.00290654 16.1483 0.00290654C16.2795 6.13076e-05 16.4099 0.0247175 16.531 0.0752894C16.6521 0.125861 16.7613 0.201229 16.8515 0.296542C19.4864 2.92947 22.1218 5.5602 24.7577 8.18873C24.8569 8.28174 24.9353 8.39473 24.9877 8.52026C25.0401 8.64578 25.0653 8.78098 25.0616 8.91694C25.0567 11.934 25.0555 14.9512 25.0579 17.9683C25.0579 18.5364 24.7019 18.8594 24.2467 18.709C24.1326 18.6785 24.0307 18.6134 23.9552 18.5225C23.8797 18.4316 23.8343 18.3195 23.8254 18.2017C23.815 18.085 23.8108 17.9679 23.8129 17.8508C23.8129 15.1266 23.8092 12.4024 23.818 9.67819C23.818 9.44108 23.7718 9.36841 23.52 9.37061C21.9938 9.38383 20.4677 9.37795 18.9415 9.37648C17.0079 9.37648 15.6682 8.03163 15.666 6.09511C15.666 5.55849 15.6623 5.02113 15.666 4.48452C15.6697 4.03966 15.9251 3.75043 16.298 3.75557C16.6709 3.76071 16.9051 4.03892 16.9117 4.46837C16.9213 5.09308 16.8809 5.72146 16.9367 6.34176C17.0365 7.44877 17.7662 8.11165 18.8747 8.12707C20.1982 8.14468 21.5189 8.13074 22.8659 8.13074Z" fill="#9D4F91"/>
</g>
<defs>
<clipPath id="clip0_904_1211">
<rect width="25.0919" height="30" fill="white"/>
</clipPath>
</defs>
</svg>
