<svg width="24" height="30" viewBox="0 0 24 30" fill="none" xmlns="http://www.w3.org/2000/svg">
<g clip-path="url(#clip0_904_1334)">
<path d="M12.3168 0.0529871C13.4805 0.210098 14.3264 0.811139 14.8105 1.87986C14.91 2.10091 15.0187 2.15389 15.2407 2.15389C15.7961 2.13928 16.3533 2.1475 16.9096 2.15389C17.0852 2.14507 17.261 2.1667 17.4293 2.21783C17.7106 2.3174 17.8614 2.501 17.8577 2.80609C17.854 3.11117 17.8696 3.41261 17.8522 3.71404C17.8413 3.90129 17.9061 3.93875 18.0806 3.93601C18.8524 3.92687 19.6234 3.93053 20.3943 3.93601C22.2623 3.93601 23.5621 5.23674 23.5621 7.0965C23.5621 13.7153 23.5283 20.334 23.5831 26.9519C23.5996 28.9742 21.9782 30.0146 20.5085 30.0082C17.0429 29.9936 13.5773 30.0082 10.1118 30.0082C7.75966 30.0082 5.40665 30.0082 3.05455 30.0082C2.03333 30.0082 1.16922 29.6429 0.526157 28.8262C0.149821 28.3503 -0.00181058 27.7977 1.62963e-05 27.1903C0.00641035 24.8574 1.62963e-05 22.5244 1.62963e-05 20.1915V7.05631C1.62963e-05 5.25227 1.30806 3.93601 3.11118 3.92779C3.90222 3.92779 4.69234 3.92139 5.48612 3.92779C5.66881 3.92779 5.72452 3.88851 5.71265 3.70399C5.69621 3.42996 5.70808 3.15593 5.71265 2.8819C5.71265 2.40143 5.90995 2.17033 6.38951 2.15115C7.04353 2.12923 7.69755 2.13836 8.35157 2.14019C8.48676 2.14019 8.57353 2.12466 8.64204 1.97303C9.1353 0.876906 9.972 0.221973 11.164 0.0301512C11.1777 0.0301512 11.1887 0.00366127 11.2006 -0.0100403H11.3175C11.5486 0.0584675 11.7852 0.00183595 12.0181 0.0201047C12.1149 0.0392869 12.2191 0.00457493 12.3168 0.0529871Z" fill="#9D4F91"/>
<path d="M12.0228 0.0548054C11.7871 0.0328829 11.5423 0.121487 11.314 0H12.0173C12.0347 0.0109612 12.042 0.0219215 12.0374 0.0347096C12.0328 0.0474978 12.0283 0.0548054 12.0228 0.0548054Z" fill="#9D4F91"/>
<path d="M12.0228 0.0548054C12.0182 0.0369186 12.0164 0.0184407 12.0173 0H12.3096C12.3047 0.00835502 12.3027 0.0181429 12.304 0.0277658C12.3054 0.0373887 12.3099 0.0462779 12.3169 0.0529795L12.0228 0.0548054Z" fill="#9D4F91"/>
<path d="M1.42331 17.0795V7.06362C1.42331 6.04788 2.08372 5.37011 3.09764 5.35823C3.88776 5.35001 4.6788 5.36371 5.47257 5.35275C5.66805 5.35275 5.72103 5.40756 5.71555 5.59938C5.70276 6.07711 5.70733 6.55575 5.71555 7.03439C5.72103 7.55688 6.01424 7.85648 6.53307 7.85648C10.0279 7.85648 13.5227 7.85648 17.0175 7.85648C17.5564 7.85648 17.8588 7.54044 17.8615 6.99329C17.8615 6.51465 17.867 6.036 17.8615 5.55828C17.8615 5.40573 17.9054 5.35549 18.0606 5.35641C18.9001 5.36371 19.7405 5.33996 20.579 5.36737C21.5107 5.39751 22.1501 6.0899 22.1501 7.02343C22.1501 13.722 22.1501 20.4187 22.1501 27.1136C22.1501 27.8772 21.7107 28.3924 20.9471 28.5294C20.7738 28.558 20.5984 28.572 20.4228 28.5714C14.6627 28.5714 8.90283 28.5714 3.14331 28.5714C2.88951 28.5775 2.63644 28.5417 2.39429 28.4654C1.74758 28.2474 1.42392 27.8005 1.42331 27.1245C1.4227 23.7759 1.4227 20.4275 1.42331 17.0795Z" fill="#FEFEFE"/>
<path d="M11.7668 6.43427C10.3126 6.43427 8.85844 6.4297 7.40425 6.43427C7.20695 6.43427 7.13662 6.39681 7.14027 6.18216C7.15428 5.39051 7.15428 4.59887 7.14027 3.80722C7.14027 3.588 7.21335 3.55694 7.40517 3.56242C7.90208 3.57521 8.3999 3.56699 8.89772 3.56242C9.41929 3.56242 9.65314 3.37973 9.79563 2.86912C10.1418 1.62502 11.4252 0.986529 12.5478 1.50719C12.8199 1.63037 13.0607 1.81336 13.2522 2.04253C13.4437 2.2717 13.5811 2.54113 13.654 2.83076C13.812 3.39252 14.0303 3.56151 14.6131 3.56151C15.1401 3.56151 15.6672 3.56881 16.1943 3.56151C16.3632 3.56151 16.429 3.58617 16.4263 3.77982C16.4135 4.57999 16.4135 5.38016 16.4263 6.18033C16.4263 6.39773 16.3532 6.43061 16.1595 6.4297C14.6944 6.43061 13.2311 6.43427 11.7668 6.43427Z" fill="#FEFEFE"/>
<path d="M15.1587 13.2147C13.8315 13.2147 12.5052 13.2147 11.178 13.2147C10.6811 13.2147 10.376 12.948 10.3632 12.5269C10.3504 12.1058 10.6564 11.7888 11.1232 11.7861C11.9818 11.7797 12.8404 11.7861 13.699 11.7861H19.1724C19.5734 11.7861 19.82 11.9377 19.9424 12.2474C19.9806 12.3425 19.9973 12.445 19.9914 12.5473C19.9855 12.6497 19.957 12.7495 19.9081 12.8397C19.8591 12.9298 19.7909 13.008 19.7083 13.0687C19.6256 13.1294 19.5306 13.1712 19.4299 13.1909C19.305 13.2114 19.1784 13.2199 19.0518 13.2165C17.7541 13.2165 16.4564 13.2159 15.1587 13.2147Z" fill="#9D4F91"/>
<path d="M15.1925 23.2059C16.5194 23.2059 17.8463 23.2059 19.1733 23.2059C19.514 23.2059 19.7853 23.3182 19.9314 23.6452C19.9735 23.7389 19.9943 23.8406 19.9925 23.9432C19.9906 24.0459 19.9662 24.1468 19.9208 24.2389C19.8754 24.3309 19.8103 24.4119 19.73 24.4758C19.6497 24.5398 19.5563 24.5852 19.4564 24.6089C19.3421 24.6338 19.2254 24.6454 19.1084 24.6436C16.4844 24.6436 13.8598 24.6436 11.2346 24.6436C10.692 24.6436 10.376 24.3869 10.3632 23.9503C10.3504 23.5137 10.6628 23.2059 11.1533 23.2059C12.4997 23.2059 13.8461 23.2059 15.1925 23.2059Z" fill="#9D4F91"/>
<path d="M15.1722 18.9246C13.8258 18.9246 12.4803 18.9246 11.1339 18.9246C10.6845 18.9246 10.3839 18.6506 10.3648 18.2541C10.3569 18.1615 10.368 18.0683 10.3972 17.98C10.4265 17.8918 10.4734 17.8105 10.5351 17.741C10.5968 17.6714 10.6719 17.6151 10.756 17.5755C10.8401 17.5359 10.9314 17.5138 11.0243 17.5106C11.1987 17.4987 11.375 17.5033 11.5504 17.5033C14.0873 17.5033 16.6239 17.5033 19.1602 17.5033C19.6535 17.5033 19.954 17.7417 19.9869 18.1427C20.0244 18.5994 19.7074 18.9218 19.2114 18.9228C17.8641 18.9273 16.5177 18.9246 15.1722 18.9246Z" fill="#9D4F91"/>
<path d="M3.58073 11.8052C3.5855 11.6852 3.62402 11.5688 3.69188 11.4696C3.75973 11.3704 3.85417 11.2924 3.96437 11.2444C4.09105 11.1779 4.23577 11.154 4.37709 11.1763C4.51841 11.1985 4.64882 11.2656 4.74901 11.3677C5.03766 11.6417 5.31808 11.9304 5.58389 12.23C5.71725 12.3807 5.79216 12.3579 5.9246 12.23C6.60329 11.5705 7.29019 10.9192 7.97801 10.2698C8.28401 9.98111 8.62838 9.94914 8.93164 10.1665C9.3372 10.4561 9.36552 10.9293 8.98553 11.2937C8.20454 12.0427 7.41533 12.7854 6.62978 13.5307C6.4882 13.665 6.35118 13.8048 6.20046 13.929C5.89446 14.1829 5.53731 14.1738 5.25505 13.8915C4.76454 13.4019 4.28316 12.9041 3.80086 12.4063C3.72356 12.3275 3.66394 12.2331 3.62598 12.1295C3.58802 12.0259 3.57259 11.9153 3.58073 11.8052Z" fill="#9D4F91"/>
<path d="M5.72342 19.8097C5.63098 19.8126 5.53909 19.7946 5.45461 19.7569C5.37014 19.7193 5.29528 19.663 5.23565 19.5923C4.75792 19.1045 4.27745 18.6195 3.80703 18.1235C3.50377 17.8038 3.50286 17.3471 3.78694 17.0721C4.07101 16.7972 4.49576 16.82 4.82825 17.1525C5.07579 17.401 5.33156 17.6448 5.559 17.9143C5.71611 18.1025 5.80837 18.0632 5.96183 17.9143C6.63168 17.2591 7.30884 16.6117 7.99331 15.9723C8.40436 15.5878 9.00357 15.7129 9.20179 16.208C9.25894 16.3339 9.27372 16.475 9.24391 16.6101C9.2141 16.7451 9.14131 16.8668 9.03645 16.957C8.10536 17.8479 7.17152 18.7352 6.23495 19.6188C6.16829 19.6853 6.08814 19.7368 5.9999 19.7697C5.91166 19.8027 5.81738 19.8163 5.72342 19.8097Z" fill="#9D4F91"/>
<path d="M3.58241 23.2168C3.58879 23.0983 3.62853 22.9839 3.69705 22.887C3.76557 22.79 3.86008 22.7144 3.9697 22.6688C4.09725 22.604 4.24215 22.5816 4.3833 22.6049C4.52444 22.6283 4.65444 22.6961 4.75435 22.7985C5.03477 23.0725 5.3088 23.3465 5.56822 23.6397C5.70158 23.7895 5.78196 23.7978 5.93359 23.6525C6.61045 22.9912 7.29827 22.3408 7.987 21.6914C8.32132 21.3762 8.71775 21.3744 9.02923 21.6731C9.31696 21.9517 9.35167 22.3582 9.06211 22.6386C8.11701 23.5557 7.16156 24.4621 6.19575 25.3579C5.90528 25.6319 5.53716 25.5981 5.25217 25.3141C4.76987 24.8309 4.29489 24.3403 3.81899 23.8526C3.73514 23.7706 3.67044 23.6711 3.62955 23.5612C3.58865 23.4513 3.57255 23.3337 3.58241 23.2168Z" fill="#9D4F91"/>
</g>
<defs>
<clipPath id="clip0_904_1334">
<rect width="23.5831" height="30" fill="white"/>
</clipPath>
</defs>
</svg>
