<svg width="26" height="30" viewBox="0 0 26 30" fill="none" xmlns="http://www.w3.org/2000/svg">
<g clip-path="url(#clip0_904_1302)">
<path d="M25.0868 15.0179V29.329C25.0868 29.939 25.0232 30 24.4158 30H0.650202C0.081139 30 0.00532258 29.9268 0.00532258 29.3682C0.00532258 21.1765 0.00357987 12.983 9.40348e-05 4.78779C-0.00474719 4.64895 0.0206451 4.51072 0.0745144 4.38267C0.128384 4.25462 0.209443 4.1398 0.312077 4.04618C1.57279 2.80173 2.82537 1.54945 4.06981 0.289314C4.15642 0.194379 4.26258 0.119353 4.38099 0.0694042C4.49939 0.0194558 4.62721 -0.00422607 4.75565 -9.63206e-06C11.3299 0.00696205 17.9042 0.00899476 24.4785 0.00608989C24.997 0.00608989 25.0885 0.093237 25.0885 0.609141C25.0885 5.41205 25.088 10.215 25.0868 15.0179Z" fill="#9D4F91"/>
<path d="M24.3042 15.0153C24.3042 19.6328 24.3066 24.2516 24.3112 28.8715C24.3112 29.1451 24.2633 29.2288 23.9626 29.2288C16.3461 29.2183 8.72894 29.2183 1.11122 29.2288C0.839323 29.2288 0.77832 29.1643 0.77832 28.8941C0.785873 21.0161 0.785873 13.1381 0.77832 5.26014C0.77832 4.96035 0.865467 4.90632 1.14085 4.91155C2.22756 4.92811 3.31427 4.9194 4.40098 4.91765C4.83671 4.91765 4.94128 4.81656 4.94303 4.38171C4.94303 3.28367 4.95261 2.1865 4.93693 1.08933C4.93693 0.840091 5.00229 0.787805 5.24368 0.788676C11.4909 0.795648 17.739 0.795648 23.9879 0.788676C24.2816 0.788676 24.3077 0.888023 24.3077 1.13726C24.3013 5.76006 24.3002 10.3861 24.3042 15.0153Z" fill="#FEFEFE"/>
<path d="M1.40234 4.12986L4.14308 1.40393C4.20147 1.4353 4.16139 1.52071 4.16139 1.58694C4.16139 2.35644 4.16138 3.12506 4.16748 3.89456C4.16748 4.07408 4.12478 4.13596 3.93568 4.13421C3.10169 4.12463 2.2677 4.12986 1.40234 4.12986Z" fill="#FEFEFE"/>
<path d="M12.5351 3.60348C13.7165 3.59986 14.8687 3.97053 15.8263 4.66231C16.784 5.3541 17.4979 6.33144 17.8657 7.45413C18.2335 8.57682 18.2362 9.78714 17.8735 10.9115C17.5107 12.0358 16.8012 13.0163 15.8467 13.7124C15.5852 13.9033 15.4223 14.1037 15.4789 14.4366C15.4811 14.4583 15.4811 14.4802 15.4789 14.502C15.4632 14.7965 15.3142 15.0876 15.3281 15.3577C15.3421 15.6279 15.7708 15.6488 15.9382 15.8928C16.2179 16.3024 16.3016 16.7294 16.1203 17.1861C16.0405 17.4141 15.893 17.6124 15.6976 17.7546C15.5022 17.8967 15.2682 17.976 15.0266 17.9817C14.7486 17.9948 14.7286 18.0985 14.7251 18.3233C14.7085 19.4946 13.98 20.3277 12.8663 20.4654C11.7055 20.6109 10.712 19.9869 10.4262 18.9307C10.3668 18.6989 10.3436 18.4594 10.3573 18.2205C10.3634 18.0619 10.3312 18.0017 10.1499 17.9904C9.49546 17.9486 9.01703 17.5547 8.89764 16.9969C8.7643 16.3773 9.02226 15.8553 9.64622 15.5312C9.77694 15.4632 9.78653 15.4118 9.7447 15.2889C9.63768 15.0145 9.59188 14.7201 9.61049 14.4261C9.64535 14.1046 9.5155 13.912 9.26191 13.7246C7.73685 12.5969 6.95602 11.0658 6.95167 9.17734C6.94731 6.10893 9.46844 3.61307 12.5351 3.60348Z" fill="#9D4F91"/>
<path d="M12.5334 21.8588C15.3901 21.8588 18.2464 21.8588 21.1025 21.8588C21.2106 21.8588 21.3918 21.7865 21.418 21.9242C21.4598 22.1421 21.4293 22.3747 21.418 22.6013C21.418 22.6144 21.3439 22.6327 21.3029 22.6362C21.2384 22.6423 21.1731 22.6362 21.1077 22.6362C15.3956 22.6362 9.68289 22.6362 3.9696 22.6362C3.86416 22.6362 3.68638 22.7059 3.66285 22.563C3.62625 22.3442 3.6001 22.1046 3.68551 21.8919C3.71949 21.8048 3.86677 21.858 3.96176 21.858C6.54651 21.858 9.13184 21.858 11.7178 21.858L12.5334 21.8588Z" fill="#9D4F91"/>
<path d="M12.5132 24.827C9.68797 24.827 6.86299 24.827 4.0383 24.827C3.91193 24.827 3.70976 24.922 3.66793 24.7399C3.62087 24.5351 3.65398 24.3094 3.66793 24.0933C3.66793 24.0418 3.75507 24.0462 3.80997 24.0462H4.0383C9.71092 24.0462 15.383 24.0476 21.0544 24.0506C21.1799 24.0506 21.383 23.9573 21.423 24.1281C21.4646 24.3409 21.4607 24.5601 21.4117 24.7712C21.3873 24.8871 21.22 24.827 21.1189 24.827C18.3692 24.827 15.62 24.827 12.8714 24.827H12.5132Z" fill="#9D4F91"/>
<path d="M12.5457 27.0057C9.69897 27.0057 6.85395 27.0057 4.01066 27.0057C3.89389 27.0057 3.70042 27.0823 3.66905 26.9394C3.62286 26.7224 3.65859 26.4871 3.66905 26.2606C3.66905 26.2475 3.74487 26.2309 3.78583 26.2283C3.86164 26.2231 3.93833 26.2283 4.01415 26.2283C9.7042 26.2283 15.394 26.2283 21.0834 26.2283C21.2002 26.2283 21.3945 26.1508 21.425 26.2937C21.4647 26.5178 21.4629 26.7473 21.4198 26.9708C21.4076 27.0457 21.2455 27.0057 21.147 27.0057C18.7691 27.0057 16.3912 27.0057 14.0133 27.0057H12.5457Z" fill="#9D4F91"/>
<path d="M12.9375 12.5072C12.9375 11.6357 12.9436 10.7686 12.9332 9.89977C12.9332 9.69411 12.975 9.61045 13.1946 9.62962C13.4316 9.65053 13.673 9.62352 13.9109 9.63747C14.1035 9.64967 14.1724 9.59825 14.1724 9.38823C14.1724 8.85228 14.1802 8.85228 13.6495 8.85228C12.8347 8.85228 12.0199 8.85925 11.2094 8.84705C10.9872 8.84705 10.8861 8.89498 10.921 9.13027C10.9336 9.22747 10.9336 9.32589 10.921 9.42308C10.8992 9.60435 10.9855 9.64357 11.1475 9.63747C11.409 9.62701 11.6704 9.63747 11.9319 9.63224C12.0809 9.63224 12.1637 9.64008 12.1628 9.83529C12.1541 11.627 12.1541 13.4193 12.1628 15.2122C12.1628 15.3725 12.114 15.4135 11.9606 15.4091C11.5807 15.3996 11.1998 15.3961 10.8199 15.4091C10.6543 15.4152 10.5881 15.3359 10.5419 15.2035C10.4547 14.9464 10.3719 14.6806 10.3981 14.4087C10.4521 13.8274 10.1994 13.4414 9.73665 13.0954C8.15408 11.9094 7.47086 10.2998 7.81944 8.35816C8.16803 6.41655 9.35582 5.13376 11.2539 4.57515C13.4953 3.91982 15.863 5.01088 16.8783 7.10239C17.3748 8.12174 17.4938 9.2841 17.2143 10.383C16.9348 11.4818 16.2747 12.446 15.3515 13.1041C14.8922 13.4318 14.6482 13.824 14.6996 14.3913C14.7065 14.4891 14.7015 14.5874 14.6848 14.6841C14.5855 15.3534 14.5288 15.4083 13.8543 15.3987C13.5554 15.3943 13.1571 15.532 12.9828 15.3394C12.8356 15.1721 12.9367 14.7817 12.9358 14.4906C12.9358 13.8327 12.9375 13.1695 12.9375 12.5072Z" fill="#FEFEFE"/>
<path d="M12.5125 17.2122C11.7752 17.2122 11.038 17.2122 10.3007 17.2122C9.88157 17.2122 9.65586 17.0248 9.66022 16.6893C9.66458 16.3538 9.88592 16.1874 10.2851 16.1865C11.7927 16.1865 13.3 16.1865 14.8071 16.1865C15.2079 16.1865 15.4258 16.3678 15.4302 16.6893C15.4345 17.0109 15.2079 17.2122 14.7896 17.2122C14.0309 17.2134 13.2718 17.2134 12.5125 17.2122Z" fill="#FDFDFD"/>
<path d="M12.5463 17.9939C12.948 17.9939 13.3498 17.9939 13.7515 17.9939C13.877 17.9939 13.9415 18.0105 13.9537 18.1682C14.0042 18.8052 13.7149 19.3464 13.1781 19.5808C12.5951 19.8353 11.8613 19.6941 11.4657 19.2584C11.172 18.9351 11.1293 18.5447 11.1389 18.1333C11.1389 17.9773 11.2452 17.9991 11.3411 17.9991L12.5463 17.9939Z" fill="#FEFEFE"/>
</g>
<defs>
<clipPath id="clip0_904_1302">
<rect width="25.0867" height="30" fill="white"/>
</clipPath>
</defs>
</svg>
