<svg width="33" height="33" viewBox="0 0 33 33" fill="none" xmlns="http://www.w3.org/2000/svg">
<path fill-rule="evenodd" clip-rule="evenodd" d="M16.625 32.5C25.4616 32.5 32.625 25.3366 32.625 16.5C32.625 7.66344 25.4616 0.5 16.625 0.5C7.78844 0.5 0.625 7.66344 0.625 16.5C0.625 25.3366 7.78844 32.5 16.625 32.5ZM26.0591 11.3889C26.4496 10.9984 26.4496 10.3652 26.0591 9.97472C25.6686 9.58419 25.0354 9.58419 24.6449 9.97472L13.352 21.2676L8.60457 16.5202C8.21404 16.1296 7.58088 16.1296 7.19035 16.5202C6.79983 16.9107 6.79983 17.5439 7.19035 17.9344L12.6449 23.3889C13.0354 23.7795 13.6686 23.7795 14.0591 23.3889L26.0591 11.3889Z" fill="#3EC775"/>
</svg>
