<svg width="41" height="40" viewBox="0 0 41 40" fill="none" xmlns="http://www.w3.org/2000/svg">
<g clip-path="url(#clip0_2716_1659)">
<path d="M18.3413 22.3831C18.3318 22.7167 18.1888 22.9265 17.9219 23.0504C17.6168 23.1839 17.3404 23.1076 17.1116 22.8693C16.5205 22.2496 15.9295 21.6109 15.3385 20.9913C14.3947 19.9808 14.3947 19.9617 15.348 18.9417C15.9104 18.3507 16.4633 17.7501 17.0258 17.1591C17.388 16.7778 17.8075 16.7301 18.1221 17.0256C18.4367 17.3211 18.4271 17.7406 18.0744 18.1219C17.5692 18.6653 17.0639 19.2086 16.5491 19.7425C16.368 19.9236 16.3776 20.0285 16.5491 20.2096C17.0735 20.7339 17.5692 21.2868 18.0839 21.8207C18.246 21.9922 18.3509 22.1734 18.3413 22.3831Z" fill="#97C253"/>
<path d="M21.7254 16.1486C21.039 18.8273 20.3527 21.4965 19.6663 24.1753C19.571 24.5661 19.3613 24.8044 18.999 24.8235C18.4366 24.8235 18.1411 24.3945 18.284 23.8511C18.713 22.1257 19.1611 20.4002 19.5996 18.6748C19.8474 17.712 20.0953 16.7491 20.3527 15.7958C20.4957 15.2525 20.8293 15.0237 21.2774 15.1476C21.6873 15.262 21.8589 15.6243 21.7254 16.1486Z" fill="#97C253"/>
<path d="M22.9934 17.159C23.6893 17.893 24.3852 18.6366 25.0715 19.3706C25.2336 19.5327 25.3575 19.7138 25.3671 19.9522C25.3766 20.1905 25.2622 20.3716 25.1001 20.5432C24.3852 21.2963 23.6797 22.0589 22.9648 22.812C22.6216 23.1743 22.2117 23.1933 21.9066 22.9073C21.6016 22.6214 21.6016 22.1924 21.9257 21.8397C22.4405 21.2772 22.9552 20.7243 23.4891 20.1809C23.6511 20.0189 23.6416 19.914 23.4795 19.752C22.9648 19.2277 22.4595 18.6747 21.9543 18.1314C21.6016 17.7501 21.5825 17.3306 21.9066 17.0351C22.2212 16.7396 22.6311 16.7777 22.9934 17.159Z" fill="#97C253"/>
<path d="M33.2507 17.3022L31.4775 17.102C31.2773 17.0734 31.1344 17.0448 31.0581 16.7874C30.8293 15.9485 30.4957 15.1382 30.0476 14.3756C29.9523 14.2135 29.9618 14.0991 30.0857 13.9466C30.5242 13.4032 30.9628 12.8503 31.3822 12.2974C31.8398 11.6778 31.8112 11.0677 31.2773 10.5243C30.6768 9.90466 30.0667 9.29455 29.447 8.69398C28.8751 8.1506 28.284 8.122 27.6453 8.60818C27.121 9.00856 26.6062 9.39941 26.101 9.81886C25.9008 9.98092 25.7578 10.0191 25.5195 9.88559C24.814 9.46614 24.0514 9.15156 23.2602 8.94183C22.9647 8.86557 22.8789 8.72258 22.8503 8.42706C22.8026 7.78835 22.7073 7.15918 22.6119 6.52048C22.5071 5.71972 22.04 5.32887 21.2297 5.31934H18.9037C17.8932 5.31934 17.4451 5.72925 17.3403 6.73974C17.2735 7.33078 17.1973 7.92181 17.1401 8.51285C17.1115 8.75118 17.0257 8.86557 16.7778 8.9323C15.958 9.16109 15.1763 9.48521 14.4423 9.91419C14.2325 10.0381 14.1086 9.99998 13.937 9.85699C13.4222 9.43754 12.8884 9.03716 12.3641 8.61772C12.1067 8.42706 11.8303 8.30313 11.5157 8.28406C11.1344 8.2936 10.8198 8.44612 10.5528 8.71304C9.94274 9.32315 9.3231 9.92372 8.72253 10.5434C8.19822 11.0963 8.16009 11.6968 8.6272 12.3069C9.03712 12.8599 9.4661 13.3937 9.89508 13.9275C10.0285 14.0991 10.0571 14.2231 9.93321 14.4328C9.51376 15.1668 9.18964 15.9485 8.96085 16.7683C8.89412 17.0162 8.78926 17.0925 8.54141 17.1211C7.8741 17.1878 7.21634 17.2736 6.54903 17.3689C5.77687 17.4738 5.36695 17.9409 5.35742 18.7226V21.0867C5.35742 22.0782 5.7578 22.5262 6.74922 22.6406C7.34026 22.7073 7.92177 22.7836 8.52234 22.8408C8.76066 22.8598 8.90366 22.9361 8.97992 23.2126C9.19918 24.0324 9.53283 24.8141 9.95227 25.5481C10.0571 25.7292 10.0571 25.8532 9.92368 26.0152C9.48516 26.5395 9.06572 27.0829 8.6558 27.6263C8.17916 28.265 8.20776 28.8656 8.76066 29.428C9.3517 30.0381 9.95227 30.6387 10.5528 31.2297C11.1248 31.7826 11.7254 31.8303 12.3546 31.3537C12.8884 30.9437 13.4222 30.5338 13.937 30.1144C14.1181 29.9714 14.2516 29.9142 14.4804 30.0476C15.2144 30.4766 15.9961 30.8007 16.816 31.02C17.0733 31.0867 17.1305 31.2107 17.1591 31.449C17.2259 32.1163 17.3117 32.7741 17.407 33.4414C17.5119 34.2135 17.979 34.6139 18.7702 34.6234H21.1344C22.1258 34.6234 22.5643 34.2135 22.6787 33.2221C22.7454 32.6311 22.8217 32.04 22.8789 31.449C22.8979 31.1916 23.0028 31.0677 23.2602 31.0009C24.0705 30.7817 24.8331 30.4576 25.5576 30.0381C25.7769 29.9142 25.9103 29.9428 26.0915 30.0953C26.6158 30.5148 27.1401 30.9247 27.6739 31.3346C28.3031 31.8112 28.9132 31.7731 29.4756 31.2202C30.0857 30.6196 30.6863 30.0191 31.2773 29.4185C31.8303 28.8465 31.8589 28.2459 31.3822 27.6168C30.9628 27.0734 30.5433 26.53 30.1143 25.9962C29.9809 25.8436 29.9618 25.7197 30.0762 25.5291C30.5052 24.7855 30.8293 23.9847 31.0676 23.1554C31.1248 22.9266 31.2297 22.8503 31.4585 22.8217C32.1162 22.755 32.7835 22.6692 33.4508 22.5739C34.2516 22.469 34.652 22.0019 34.6615 21.2011V18.8751C34.6615 17.8551 34.2707 17.4166 33.2507 17.3022ZM33.2316 19.9809V20.162C33.2316 21.2202 33.2316 21.2107 32.1544 21.3155C31.7159 21.3537 31.2678 21.4204 30.8293 21.4776C30.305 21.5538 29.9523 21.8589 29.8093 22.3546C29.5328 23.346 29.1515 24.2898 28.6367 25.1859C28.3603 25.6721 28.4365 26.1582 28.7797 26.6063C29.1896 27.1306 29.5996 27.6644 30.019 28.1792C30.1811 28.3794 30.2097 28.4938 29.9999 28.6844C29.5614 29.0848 29.142 29.5138 28.7416 29.9523C28.5509 30.162 28.4365 30.1239 28.2364 29.9714C27.7311 29.5519 27.2068 29.1611 26.692 28.7512C26.1963 28.3603 25.672 28.3317 25.1191 28.6463C24.3088 29.123 23.4508 29.4852 22.5452 29.7235C21.9351 29.8856 21.5824 30.2764 21.5157 30.9151C21.4489 31.5824 21.3345 32.2497 21.2773 32.9075C21.2487 33.1554 21.163 33.203 20.9532 33.1935C20.3431 33.184 19.733 33.1744 19.1229 33.203C18.8274 33.2126 18.7797 33.0886 18.7607 32.8408C18.6844 32.1735 18.5891 31.5157 18.5128 30.8484C18.4365 30.286 18.1315 29.9142 17.5976 29.7617C16.6158 29.4947 15.6911 29.1134 14.8045 28.6082C14.3183 28.3317 13.8322 28.3985 13.3936 28.7321C12.8503 29.1516 12.3069 29.5615 11.7731 30C11.5824 30.162 11.4775 30.1525 11.3059 29.9714C10.8865 29.5329 10.448 29.1039 10.0095 28.6844C9.84741 28.5319 9.82835 28.4271 9.98087 28.2459C10.4003 27.7312 10.8102 27.1973 11.2201 26.673C11.611 26.1678 11.6587 25.6435 11.3345 25.0905C10.8579 24.2707 10.4956 23.3937 10.2478 22.469C10.0953 21.8875 9.69489 21.5443 9.07525 21.4776C8.39841 21.4109 7.72158 21.306 7.03521 21.2297C6.84455 21.2107 6.77782 21.1535 6.78736 20.9628C6.79689 20.3241 6.79689 19.6854 6.77782 19.0467C6.77782 18.8084 6.87315 18.7416 7.08287 18.7226C7.77878 18.6463 8.47468 18.5605 9.17058 18.4652C9.70442 18.3889 10.0667 18.0839 10.2097 17.5596C10.4861 16.5872 10.8674 15.653 11.3727 14.776C11.6587 14.2707 11.5824 13.775 11.2297 13.3174C10.8198 12.7931 10.4099 12.2593 9.98087 11.7445C9.83788 11.5634 9.80928 11.449 9.99994 11.2679C10.448 10.8579 10.877 10.4194 11.2964 9.98092C11.468 9.79026 11.5824 9.80933 11.7635 9.96185C12.2592 10.3718 12.774 10.7435 13.2697 11.1439C13.8131 11.592 14.366 11.611 14.957 11.2583C15.7387 10.7912 16.5776 10.4576 17.4547 10.2288C18.0838 10.0572 18.4365 9.6568 18.5033 8.99903C18.57 8.35079 18.6844 7.70256 18.7416 7.05432C18.7607 6.7874 18.856 6.73974 19.0943 6.73974C19.6854 6.7588 20.2859 6.7588 20.877 6.73974C21.1439 6.7302 21.2392 6.80647 21.2583 7.08292C21.325 7.75976 21.4203 8.43659 21.5157 9.12296C21.5824 9.6854 21.9065 10.0476 22.4499 10.1906C23.4127 10.448 24.3279 10.8293 25.1954 11.3251C25.7006 11.6206 26.1963 11.5443 26.6539 11.1916C27.1877 10.7721 27.7406 10.3622 28.265 9.92372C28.4461 9.78073 28.5414 9.79026 28.7035 9.95232C29.1229 10.4004 29.5519 10.8293 29.9904 11.2488C30.1715 11.4109 30.1906 11.5252 30.0285 11.7159C29.5996 12.2307 29.1992 12.7645 28.7893 13.2984C28.4079 13.7845 28.3603 14.2993 28.6749 14.8332C29.1515 15.653 29.5233 16.53 29.7616 17.4547C29.9237 18.0648 30.3241 18.3985 30.9723 18.4652C31.6301 18.5319 32.2974 18.6368 32.9647 18.7035C33.1649 18.7321 33.2411 18.7893 33.2316 18.999C33.2221 19.3327 33.2316 19.6568 33.2316 19.9809ZM20.0762 11.9161C15.6339 11.897 11.9828 15.4147 11.9542 19.7426C11.916 24.3756 15.4528 28.0171 19.9904 28.0362C24.4995 28.0553 28.0457 24.4518 28.0648 19.8284C28.0838 15.51 24.4804 11.9447 20.0762 11.9161ZM19.9141 26.6063C16.1868 26.5491 13.3174 23.5272 13.3746 19.7426C13.4413 16.1582 16.4537 13.2793 20.0857 13.346C23.794 13.4128 26.7111 16.3966 26.6444 20.0572C26.5872 23.7273 23.5652 26.6635 19.9141 26.6063Z" fill="#97C253"/>
<path d="M32.8503 4.59473C32.7932 3.42219 32.7455 2.29731 32.6883 1.17243C32.6692 0.886438 32.7455 0.638583 32.9838 0.466991C33.2031 0.314465 33.4509 0.276333 33.6988 0.409794C33.9752 0.552787 34.0992 0.791109 34.1182 1.09616C34.1754 2.37357 34.2421 3.65098 34.2993 4.92838C34.3184 5.35736 34.3565 5.78634 34.3661 6.22486C34.3756 6.72057 34.1182 7.01609 33.6702 7.00655C31.9161 6.94936 30.1621 6.87309 28.408 6.79683C27.9409 6.77776 27.6835 6.52038 27.6645 6.12953C27.6454 5.63382 27.9886 5.3383 28.551 5.3669C29.5424 5.41456 30.5434 5.46222 31.6873 5.51942C31.3728 5.27157 31.1726 5.10951 30.9533 4.94745C28.0362 2.79302 24.7569 1.6586 21.1535 1.46794C17.0067 1.23916 13.1363 2.16385 9.69497 4.50894C5.30984 7.49273 2.62156 11.6395 1.69687 16.8826C1.19163 19.7139 1.38229 22.507 2.20212 25.262C2.30698 25.6243 2.35464 25.9675 2.01146 26.2344C1.59201 26.568 1.05817 26.3774 0.867513 25.8054C0.476664 24.5852 0.219276 23.3364 0.0953489 22.059C-0.409894 16.6443 0.981908 11.773 4.35655 7.5118C7.59773 3.41265 11.8399 0.972234 17.0162 0.228669C22.1354 -0.505363 26.8923 0.486057 31.2107 3.37452C31.7731 3.7463 32.2879 4.16575 32.8503 4.59473Z" fill="#97C253"/>
<path d="M7.15933 35.3192C7.21653 36.5204 7.27373 37.6357 7.32139 38.7415C7.34046 39.2658 7.07354 39.5995 6.64456 39.6186C6.22511 39.6376 5.91052 39.304 5.89146 38.7987C5.82473 37.1019 5.758 35.405 5.7008 33.7082C5.68174 33.1171 5.91052 32.8883 6.49203 32.9074C8.14122 32.9741 9.79041 33.0599 11.4396 33.1362C11.4968 33.1362 11.554 33.1457 11.6207 33.1553C12.126 33.2125 12.3834 33.4984 12.3452 33.9274C12.3071 34.3469 11.9925 34.5947 11.4873 34.5757C10.7914 34.5471 10.0859 34.4994 9.39003 34.4708C9.07544 34.4613 8.77039 34.4708 8.40814 34.4708C9.00871 35.0237 9.66648 35.4718 10.3433 35.8817C13.5082 37.7978 16.9591 38.6367 20.6388 38.5032C24.4997 38.3602 28.0459 37.2353 31.125 34.8712C35.2242 31.7253 37.6836 27.5785 38.4081 22.4308C38.7799 19.8283 38.5511 17.2735 37.8362 14.7473C37.6741 14.1753 37.8362 13.794 38.2937 13.67C38.7132 13.5556 39.0564 13.794 39.2089 14.3564C41.1917 21.4489 39.6188 27.7501 34.881 33.2697C31.9544 36.6824 28.227 38.8655 23.7752 39.6567C17.8648 40.6958 12.4787 39.4088 7.68364 35.7482C7.53112 35.6147 7.38812 35.5004 7.15933 35.3192Z" fill="#97C253"/>
<path d="M18.3413 22.3831C18.3318 22.7167 18.1888 22.9265 17.9219 23.0504C17.6168 23.1839 17.3404 23.1076 17.1116 22.8693C16.5205 22.2496 15.9295 21.6109 15.3385 20.9913C14.3947 19.9808 14.3947 19.9617 15.348 18.9417C15.9104 18.3507 16.4633 17.7501 17.0258 17.1591C17.388 16.7778 17.8075 16.7301 18.1221 17.0256C18.4367 17.3211 18.4271 17.7406 18.0744 18.1219C17.5692 18.6653 17.0639 19.2086 16.5491 19.7425C16.368 19.9236 16.3776 20.0285 16.5491 20.2096C17.0735 20.7339 17.5692 21.2868 18.0839 21.8207C18.246 21.9922 18.3509 22.1734 18.3413 22.3831Z" fill="#97C253"/>
<path d="M21.7254 16.1486C21.039 18.8273 20.3527 21.4965 19.6663 24.1753C19.571 24.5661 19.3613 24.8044 18.999 24.8235C18.4366 24.8235 18.1411 24.3945 18.284 23.8511C18.713 22.1257 19.1611 20.4002 19.5996 18.6748C19.8474 17.712 20.0953 16.7491 20.3527 15.7958C20.4957 15.2525 20.8293 15.0237 21.2774 15.1476C21.6873 15.262 21.8589 15.6243 21.7254 16.1486Z" fill="#97C253"/>
<path d="M25.1001 20.5432C24.3852 21.2963 23.6797 22.0589 22.9648 22.812C22.6216 23.1743 22.2117 23.1933 21.9066 22.9073C21.6016 22.6214 21.6016 22.1924 21.9257 21.8397C22.4405 21.2772 22.9552 20.7243 23.4891 20.1809C23.6511 20.0189 23.6416 19.914 23.4795 19.752C22.9648 19.2277 22.4595 18.6747 21.9543 18.1314C21.6016 17.7501 21.5825 17.3306 21.9066 17.0351C22.2212 16.7396 22.6311 16.7777 22.9934 17.159C23.6893 17.893 24.3852 18.6366 25.0715 19.3706C25.2336 19.5327 25.3575 19.7138 25.3671 19.9522C25.3766 20.1905 25.2622 20.3716 25.1001 20.5432Z" fill="#97C253"/>
<path d="M20.0762 11.9161C15.6339 11.897 11.9828 15.4147 11.9542 19.7426C11.916 24.3756 15.4527 28.0171 19.9904 28.0362C24.4994 28.0553 28.0457 24.4518 28.0647 19.8284C28.0838 15.51 24.4804 11.9447 20.0762 11.9161ZM19.9141 26.6063C16.1868 26.5491 13.3174 23.5272 13.3746 19.7426C13.4413 16.1582 16.4537 13.2793 20.0857 13.346C23.794 13.4128 26.7111 16.3966 26.6443 20.0572C26.5871 23.7273 23.5652 26.6635 19.9141 26.6063Z" fill="#97C253"/>
<path d="M18.3413 22.3831C18.3318 22.7167 18.1888 22.9265 17.9219 23.0504C17.6168 23.1839 17.3404 23.1076 17.1116 22.8693C16.5205 22.2496 15.9295 21.6109 15.3385 20.9913C14.3947 19.9808 14.3947 19.9617 15.348 18.9417C15.9104 18.3507 16.4633 17.7501 17.0258 17.1591C17.388 16.7778 17.8075 16.7301 18.1221 17.0256C18.4367 17.3211 18.4271 17.7406 18.0744 18.1219C17.5692 18.6653 17.0639 19.2086 16.5491 19.7425C16.368 19.9236 16.3776 20.0285 16.5491 20.2096C17.0735 20.7339 17.5692 21.2868 18.0839 21.8207C18.246 21.9922 18.3509 22.1734 18.3413 22.3831Z" fill="#97C253"/>
<path d="M21.7254 16.1486C21.039 18.8273 20.3527 21.4965 19.6663 24.1753C19.571 24.5661 19.3613 24.8044 18.999 24.8235C18.4366 24.8235 18.1411 24.3945 18.284 23.8511C18.713 22.1257 19.1611 20.4002 19.5996 18.6748C19.8474 17.712 20.0953 16.7491 20.3527 15.7958C20.4957 15.2525 20.8293 15.0237 21.2774 15.1476C21.6873 15.262 21.8589 15.6243 21.7254 16.1486Z" fill="#97C253"/>
<path d="M25.3671 19.9522C25.3766 20.1905 25.2622 20.3716 25.1001 20.5432C24.3852 21.2963 23.6797 22.0589 22.9648 22.812C22.6216 23.1743 22.2117 23.1933 21.9066 22.9073C21.6016 22.6214 21.6016 22.1924 21.9257 21.8397C22.4405 21.2772 22.9552 20.7243 23.4891 20.1809C23.6511 20.0189 23.6416 19.914 23.4795 19.752C22.9648 19.2277 22.4595 18.6747 21.9543 18.1314C21.6016 17.7501 21.5825 17.3306 21.9066 17.0351C22.2212 16.7396 22.6311 16.7777 22.9934 17.159C23.6893 17.893 24.3852 18.6366 25.0715 19.3706C25.2336 19.5327 25.3575 19.7138 25.3671 19.9522Z" fill="#97C253"/>
<path d="M20.0762 11.9161C15.6339 11.897 11.9828 15.4147 11.9542 19.7426C11.916 24.3756 15.4527 28.0171 19.9904 28.0362C24.4994 28.0553 28.0457 24.4518 28.0647 19.8284C28.0838 15.51 24.4804 11.9447 20.0762 11.9161ZM19.9141 26.6063C16.1868 26.5491 13.3174 23.5272 13.3746 19.7426C13.4413 16.1582 16.4537 13.2793 20.0857 13.346C23.794 13.4128 26.7111 16.3966 26.6443 20.0572C26.5871 23.7273 23.5652 26.6635 19.9141 26.6063Z" fill="#97C253"/>
<path d="M18.3413 22.3831C18.3318 22.7167 18.1888 22.9265 17.9219 23.0504C17.6168 23.1839 17.3404 23.1076 17.1116 22.8693C16.5205 22.2496 15.9295 21.6109 15.3385 20.9913C14.3947 19.9808 14.3947 19.9617 15.348 18.9417C15.9104 18.3507 16.4633 17.7501 17.0258 17.1591C17.388 16.7778 17.8075 16.7301 18.1221 17.0256C18.4367 17.3211 18.4271 17.7406 18.0744 18.1219C17.5692 18.6653 17.0639 19.2086 16.5491 19.7425C16.368 19.9236 16.3776 20.0285 16.5491 20.2096C17.0735 20.7339 17.5692 21.2868 18.0839 21.8207C18.246 21.9922 18.3509 22.1734 18.3413 22.3831Z" fill="#97C253"/>
<path d="M21.7254 16.1486C21.039 18.8273 20.3527 21.4965 19.6663 24.1753C19.571 24.5661 19.3613 24.8044 18.999 24.8235C18.4366 24.8235 18.1411 24.3945 18.284 23.8511C18.713 22.1257 19.1611 20.4002 19.5996 18.6748C19.8474 17.712 20.0953 16.7491 20.3527 15.7958C20.4957 15.2525 20.8293 15.0237 21.2774 15.1476C21.6873 15.262 21.8589 15.6243 21.7254 16.1486Z" fill="#97C253"/>
<path d="M25.3671 19.9522C25.3766 20.1905 25.2622 20.3716 25.1001 20.5432C24.3852 21.2963 23.6797 22.0589 22.9648 22.812C22.6216 23.1743 22.2117 23.1933 21.9066 22.9073C21.6016 22.6214 21.6016 22.1924 21.9257 21.8397C22.4405 21.2772 22.9552 20.7243 23.4891 20.1809C23.6511 20.0189 23.6416 19.914 23.4795 19.752C22.9648 19.2277 22.4595 18.6747 21.9543 18.1314C21.6016 17.7501 21.5825 17.3306 21.9066 17.0351C22.2212 16.7396 22.6311 16.7777 22.9934 17.159C23.6893 17.893 24.3852 18.6366 25.0715 19.3706C25.2336 19.5327 25.3575 19.7138 25.3671 19.9522Z" fill="#97C253"/>
<path d="M21.7254 16.1486C21.039 18.8273 20.3527 21.4965 19.6663 24.1753C19.571 24.5661 19.3613 24.8044 18.999 24.8235C18.4366 24.8235 18.1411 24.3945 18.284 23.8511C18.713 22.1257 19.1611 20.4002 19.5996 18.6748C19.8474 17.712 20.0953 16.7491 20.3527 15.7958C20.4957 15.2525 20.8293 15.0237 21.2774 15.1476C21.6873 15.262 21.8589 15.6243 21.7254 16.1486Z" fill="#97C253"/>
<path d="M18.0839 21.8207C18.246 21.9922 18.3509 22.1734 18.3413 22.3831C18.3318 22.7167 18.1888 22.9265 17.9219 23.0504C17.6168 23.1839 17.3404 23.1076 17.1116 22.8693C16.5205 22.2496 15.9295 21.6109 15.3385 20.9913C14.3947 19.9808 14.3947 19.9617 15.348 18.9417C15.9104 18.3507 16.4633 17.7501 17.0258 17.1591C17.388 16.7778 17.8075 16.7301 18.1221 17.0256C18.4367 17.3211 18.4271 17.7406 18.0744 18.1219C17.5692 18.6653 17.0639 19.2086 16.5491 19.7425C16.368 19.9236 16.3776 20.0285 16.5491 20.2096C17.0735 20.7339 17.5692 21.2868 18.0839 21.8207Z" fill="#97C253"/>
<path d="M25.3671 19.9522C25.3766 20.1905 25.2622 20.3716 25.1001 20.5432C24.3852 21.2963 23.6797 22.0589 22.9648 22.812C22.6216 23.1743 22.2117 23.1933 21.9066 22.9073C21.6016 22.6214 21.6016 22.1924 21.9257 21.8397C22.4405 21.2772 22.9552 20.7243 23.4891 20.1809C23.6511 20.0189 23.6416 19.914 23.4795 19.752C22.9648 19.2277 22.4595 18.6747 21.9543 18.1314C21.6016 17.7501 21.5825 17.3306 21.9066 17.0351C22.2212 16.7396 22.6311 16.7777 22.9934 17.159C23.6893 17.893 24.3852 18.6366 25.0715 19.3706C25.2336 19.5327 25.3575 19.7138 25.3671 19.9522Z" fill="#97C253"/>
</g>
<defs>
<clipPath id="clip0_2716_1659">
<rect width="40.0572" height="40" fill="white"/>
</clipPath>
</defs>
</svg>
