<svg width="40" height="41" viewBox="0 0 40 41" fill="none" xmlns="http://www.w3.org/2000/svg">
<g clip-path="url(#clip0_2697_1610)">
<path d="M39.5342 16.9968C39.7457 16.6519 39.9332 16.3008 39.9978 15.8955V5.19464C39.9312 4.94772 39.9364 4.69038 39.8186 4.44971C39.3883 3.5683 38.2027 2.77232 36.9692 3.18594C36.6941 3.27762 36.5524 3.21407 36.4034 2.96506C35.7939 1.94613 34.7531 1.5398 33.5935 1.85965C33.3675 1.92217 33.2258 1.89404 33.1164 1.67837C32.7611 0.977202 32.1912 0.58338 31.4056 0.507324H30.6243C30.1169 0.55004 29.6532 0.717779 29.3157 1.10535C29.0886 1.36686 28.8948 1.38457 28.577 1.2585C27.5799 0.861556 26.362 1.14286 25.7317 2.08157C25.5567 2.34203 25.3566 2.4358 25.0545 2.43476C23.2323 2.42642 21.4101 2.4233 19.5889 2.43476C19.1419 2.43788 18.744 2.32745 18.3668 2.09824C17.7448 1.719 17.1145 1.35331 16.4956 0.968867C16.1279 0.7407 15.7486 0.559417 15.3152 0.507324H4.69244C4.44552 0.574003 4.18818 0.568794 3.94751 0.686524C3.0661 1.11681 2.27012 2.30244 2.68374 3.536C2.77542 3.81105 2.71187 3.95274 2.46287 4.10173C1.44393 4.71122 1.03761 5.75203 1.35746 6.91162C1.41997 7.1377 1.39184 7.27939 1.17617 7.38879C0.475004 7.74406 0.0811825 8.31396 0.00512695 9.09952V9.88091C0.0478431 10.3883 0.215582 10.8509 0.603153 11.1895C0.862575 11.4156 0.892789 11.6114 0.755264 11.9282C0.33227 12.8992 0.683375 14.1369 1.54916 14.7526C1.82317 14.9485 1.93465 15.1694 1.93256 15.5017C1.92318 17.3479 1.92631 19.1951 1.93048 21.0423C1.93152 21.407 1.82838 21.732 1.64084 22.0383C1.25327 22.6707 0.883412 23.3136 0.491674 23.9439C0.264549 24.3085 0.0561779 24.6763 0.00512695 25.1129V35.8919C0.0718058 36.1128 0.0790988 36.3441 0.184326 36.5587C0.61878 37.4453 1.80337 38.233 3.03485 37.8235C3.27968 37.7422 3.43075 37.7631 3.58078 38.009C4.23194 39.0821 5.19461 39.4551 6.44797 39.1362C6.64384 39.0873 6.77407 39.1123 6.86575 39.2967C7.20956 39.9822 7.75446 40.3938 8.51918 40.5H9.37871C9.84859 40.4396 10.3247 40.3448 10.63 39.9604C10.9092 39.6082 11.1561 39.6624 11.5333 39.7874C12.5199 40.1135 13.5763 39.8687 14.2223 38.9904C14.4515 38.6789 14.7005 38.5695 15.0725 38.5716C16.8551 38.5851 18.6377 38.5872 20.4193 38.5716C20.8693 38.5674 21.2611 38.6789 21.6372 38.9102C22.2581 39.2904 22.8864 39.6582 23.5084 40.0374C23.8543 40.2479 24.2054 40.4365 24.6096 40.5H35.3105C35.5574 40.4344 35.8148 40.4396 36.0555 40.3219C36.9369 39.8905 37.7328 38.7049 37.3192 37.4724C37.2275 37.1973 37.2911 37.0557 37.5401 36.9067C38.559 36.2972 38.9654 35.2564 38.6455 34.0968C38.583 33.8697 38.6111 33.729 38.8268 33.6196C39.528 33.2643 39.9218 32.6944 39.9978 31.9078V31.1275C39.9562 30.5889 39.753 30.1179 39.3456 29.7627C39.13 29.5741 39.1102 29.4095 39.2196 29.1532C39.6676 28.1009 39.3571 26.9319 38.4423 26.2631C38.1683 26.063 38.0673 25.8432 38.0694 25.5119C38.0808 23.7032 38.0839 21.8956 38.0683 20.0869C38.0641 19.6369 38.1756 19.2451 38.4069 18.869C38.7882 18.2481 39.155 17.6188 39.5342 16.9968ZM1.35225 9.66004C1.2689 9.25267 1.51894 8.79008 1.9211 8.60463C2.12739 8.50983 2.34826 8.50045 2.57018 8.50045C3.83291 8.50149 5.0946 8.50149 6.35733 8.50045C6.48756 8.50045 6.61883 8.50462 6.74698 8.48899C7.08454 8.44731 7.33459 8.19206 7.33459 7.867C7.33355 7.53361 7.17414 7.29294 6.83866 7.2075C6.70322 7.17312 6.55632 7.16896 6.41463 7.16791C5.58114 7.16479 4.7487 7.16791 3.91521 7.16687C3.13799 7.16479 2.67541 6.80014 2.66915 6.18857C2.66394 5.57804 3.16195 5.18214 3.94022 5.18109C5.18941 5.17901 6.43859 5.18005 7.68882 5.18005C7.77946 5.18005 7.87114 5.18422 7.96178 5.17901C8.3879 5.15088 8.67442 4.87375 8.67025 4.49868C8.66504 4.1184 8.38374 3.85377 7.94512 3.8496C7.03453 3.84231 6.12291 3.84648 5.21233 3.84752C5.00187 3.84856 4.79454 3.83397 4.60076 3.75062C4.21527 3.58497 3.95168 3.1328 4.0069 2.74315C4.07149 2.27952 4.47157 1.89612 4.95603 1.84611C5.12377 1.82944 5.29463 1.83882 5.46341 1.83882C8.53481 1.83882 11.6072 1.84194 14.6786 1.83257C15.0058 1.83257 15.284 1.91071 15.559 2.07949C16.2998 2.53582 17.0562 2.96715 17.7938 3.42869C18.2626 3.72145 18.7585 3.85273 19.3076 3.8496C21.1954 3.84231 23.0822 3.85377 24.9701 3.84022C25.2556 3.83814 25.3379 3.89961 25.3347 4.19862C25.3191 5.92915 25.3275 7.66071 25.3275 9.39124V9.75589C24.9513 9.44958 24.6336 9.19016 24.3158 8.93074C23.5177 8.28166 22.528 8.18685 21.7028 8.67965C20.8787 9.1714 20.5432 10.0184 20.7568 11.0697C20.762 11.0926 20.7495 11.1197 20.7402 11.1749C20.0838 11.1749 19.4222 11.1895 18.7617 11.1707C18.0532 11.152 17.4875 11.4051 16.9863 11.9063C14.9162 13.9785 12.8304 16.0341 10.7508 18.0959C10.5841 18.2616 10.4237 18.4346 10.1757 18.4741C9.80691 18.5314 9.49852 18.4231 9.30474 18.0959C9.10366 17.7573 9.14846 17.4208 9.39434 17.1176C9.97569 16.3998 10.5633 15.6872 11.1478 14.9725C11.3353 14.7422 11.401 14.4932 11.2624 14.2129C11.1228 13.9327 10.8852 13.8358 10.5883 13.8452C10.4977 13.8473 10.407 13.8452 10.3153 13.8452C7.99825 13.8452 5.6822 13.8452 3.36511 13.8441C3.20884 13.8441 3.05152 13.8441 2.89836 13.8181C2.34409 13.7233 1.98465 13.2826 2.01904 12.7564C2.05238 12.2345 2.47016 11.8448 3.04318 11.8396C4.24132 11.8302 5.43841 11.8417 6.6355 11.8333C7.0512 11.8302 7.34917 11.5291 7.33876 11.1572C7.32938 10.7967 7.04287 10.5269 6.64488 10.5071C6.52819 10.5019 6.41046 10.506 6.29273 10.506C4.99145 10.505 3.69017 10.5112 2.38889 10.5008C1.86901 10.4966 1.44914 10.1382 1.35225 9.66004ZM27.9977 21.9664C27.9998 22.1738 27.954 22.329 27.7977 22.4832C25.8703 24.3846 23.948 26.2922 22.03 28.203C21.8216 28.4103 21.5924 28.5031 21.3007 28.501C20.363 28.4916 19.4264 28.4916 18.4887 28.502C18.2866 28.5041 18.1522 28.4301 18.0157 28.2916C16.1216 26.3756 14.2254 24.4607 12.322 22.553C12.1042 22.3342 12.0011 22.1008 12.0042 21.7935C12.0146 20.8558 12.0125 19.9182 12.0052 18.9815C12.0031 18.7971 12.0604 18.6679 12.1917 18.5377C14.1275 16.6259 16.0601 14.711 17.9876 12.7908C18.1876 12.5929 18.4054 12.5033 18.6825 12.5085C19.1513 12.5178 19.6202 12.5106 20.3109 12.5106C21.3528 12.1667 22.1644 12.8127 22.976 13.6868C24.4815 15.3079 26.0745 16.8478 27.6404 18.4106C27.8894 18.6586 28.0061 18.9201 27.9998 19.2722C27.9842 20.1703 27.9904 21.0684 27.9977 21.9664ZM13.3794 29.6085C13.3346 29.7533 13.344 29.9179 13.344 30.0731C13.3419 32.4163 13.343 34.7594 13.3419 37.1025C13.3419 37.2328 13.3471 37.364 13.3336 37.4922C13.2721 38.0923 12.8366 38.5049 12.2897 38.4882C11.7343 38.4715 11.3405 38.0413 11.3364 37.4193C11.3291 36.3524 11.3343 35.2845 11.3343 34.2176C11.3343 34.1135 11.3364 34.0093 11.3332 33.9051C11.3207 33.4592 11.0373 33.1549 10.6508 33.1674C10.2768 33.1789 10.008 33.4738 10.0059 33.903C10.0007 35.2439 10.0038 36.5847 10.0038 37.9256C10.0028 38.1079 10.0049 38.2871 9.93819 38.4642C9.77253 38.9018 9.34641 39.1998 8.91821 39.1654C8.45458 39.1269 8.07118 38.7778 8.02638 38.2809C7.98471 37.8162 8.00138 37.3453 7.99929 36.8775C7.99617 35.9002 8.00242 34.924 7.99721 33.9478C7.99408 33.4581 7.72424 33.156 7.32208 33.1664C6.93556 33.1768 6.67093 33.4748 6.66676 33.9384C6.65842 34.85 6.66676 35.7617 6.66363 36.6723C6.66051 37.3797 6.27398 37.8329 5.68116 37.835C5.10501 37.8371 4.68202 37.3578 4.67994 36.6775C4.67473 35.3887 4.67785 34.0999 4.67785 32.8111C4.67785 32.7069 4.6841 32.6017 4.67369 32.4986C4.6341 32.0995 4.35175 31.8276 3.99023 31.836C3.62141 31.8443 3.35365 32.1152 3.34949 32.5267C3.33907 33.4508 3.34428 34.375 3.34532 35.3001C3.34532 35.5773 3.31719 35.845 3.14737 36.0784C2.91399 36.4014 2.51392 36.5629 2.15864 36.4764C1.7294 36.3732 1.40538 36.0201 1.34704 35.5793C1.32933 35.4512 1.33662 35.3199 1.33662 35.1897C1.33558 32.0652 1.33975 28.9406 1.33141 25.8171C1.33037 25.49 1.40955 25.2097 1.57833 24.9357C2.03571 24.195 2.46912 23.4396 2.9317 22.703C3.22551 22.2342 3.35053 21.7362 3.3474 21.1871C3.34011 19.3128 3.34949 17.4385 3.33907 15.5642C3.33698 15.2819 3.37762 15.1662 3.70684 15.1694C5.52905 15.1881 7.35126 15.1787 9.25369 15.1787C8.94321 15.559 8.68275 15.8789 8.42124 16.1977C7.73987 17.0291 7.63568 17.9688 8.13473 18.7961C8.62649 19.6108 9.49436 19.9619 10.53 19.766C10.5664 19.7598 10.6039 19.7608 10.6727 19.7556C10.6727 20.4141 10.6883 21.0632 10.6685 21.7112C10.6456 22.4332 10.8957 23.0125 11.4093 23.524C13.4826 25.5931 15.5371 27.68 17.6 29.7595C17.7552 29.9158 17.924 30.0669 17.9678 30.2971C18.0365 30.6618 17.9438 30.9775 17.6219 31.1817C17.2916 31.3921 16.9499 31.3734 16.6425 31.1264C15.9132 30.5388 15.1964 29.9346 14.464 29.3511C14.0525 29.0229 13.517 29.1542 13.3794 29.6085ZM38.6611 31.5922C38.6142 32.062 38.2673 32.4194 37.7714 32.484C37.5661 32.5111 37.3567 32.5059 37.1484 32.5059C35.9252 32.508 34.701 32.5048 33.4779 32.508C32.9695 32.51 32.6767 32.7476 32.6642 33.1508C32.6517 33.5623 32.9684 33.8374 33.481 33.8405C34.3791 33.8457 35.2772 33.8384 36.1753 33.8426C36.8796 33.8457 37.3348 34.2374 37.3328 34.8292C37.3317 35.4043 36.8514 35.8242 36.1701 35.8263C34.8688 35.8315 33.5665 35.8273 32.2652 35.8284C32.1485 35.8284 32.0297 35.8221 31.9151 35.8419C31.563 35.9013 31.3233 36.1857 31.3327 36.5181C31.3431 36.8733 31.6026 37.1484 31.988 37.1536C32.8861 37.1671 33.7842 37.1598 34.6823 37.1609C35.5126 37.1619 35.9981 37.5287 36.0013 38.1569C36.0044 38.7685 35.4845 39.1696 34.6864 39.1696C31.5494 39.1696 28.4134 39.1675 25.2764 39.1738C24.993 39.1738 24.7471 39.1112 24.5044 38.9612C23.7303 38.4851 22.9426 38.0319 22.1685 37.5547C21.7226 37.2797 21.2475 37.1567 20.7266 37.1588C18.8127 37.1651 16.8999 37.1588 14.986 37.1651C14.7714 37.1661 14.6672 37.1463 14.6693 36.8806C14.6818 35.0324 14.6755 33.1841 14.6755 31.2504C15.0443 31.5515 15.3538 31.8026 15.6621 32.0547C16.4831 32.7267 17.4646 32.8278 18.3033 32.3246C19.1315 31.8276 19.4691 30.9639 19.2388 29.8335H19.7691C20.264 29.8335 20.7589 29.821 21.2528 29.8366C21.9445 29.8564 22.5061 29.6105 22.9968 29.1198C25.0774 27.0413 27.1715 24.9753 29.2605 22.9052C29.4272 22.7395 29.5897 22.5676 29.8387 22.5332C30.2085 22.4811 30.5128 22.5926 30.7045 22.9218C30.9024 23.2646 30.8493 23.599 30.6045 23.9001C30.0231 24.6169 29.4345 25.3296 28.85 26.0453C28.6729 26.262 28.6093 26.5006 28.7312 26.7694C28.8604 27.0528 29.0886 27.1664 29.3886 27.1632C29.4928 27.1611 29.597 27.1632 29.7012 27.1632H36.6118C36.7545 27.1632 36.8994 27.1591 37.04 27.1768C37.6193 27.2518 38.0068 27.6862 37.985 28.2249C37.962 28.7687 37.5432 29.1636 36.9462 29.1688C35.8533 29.1782 34.7604 29.1719 33.6665 29.1719C33.5623 29.1719 33.4581 29.1678 33.3539 29.173C32.9559 29.1917 32.6715 29.4626 32.6642 29.8241C32.6569 30.195 32.9538 30.4961 33.3695 30.4993C34.7229 30.5065 36.0763 30.5013 37.4307 30.5034C37.5984 30.5034 37.7651 30.4982 37.9308 30.5566C38.3882 30.7149 38.7038 31.1556 38.6611 31.5922ZM37.04 18.3554C36.7733 18.7909 36.6545 19.2545 36.6556 19.7619C36.6618 21.6497 36.6462 23.5376 36.6681 25.4244C36.6733 25.7849 36.5639 25.8411 36.2378 25.838C34.5593 25.8213 32.8799 25.8297 31.2004 25.8297H30.7461C31.067 25.4379 31.3306 25.117 31.5921 24.794C32.236 23.9991 32.335 23.0708 31.8661 22.2561C31.4119 21.4684 30.5534 21.084 29.5595 21.2569C29.3303 21.2965 29.3282 21.208 29.3292 21.0423C29.3334 20.4307 29.3219 19.8181 29.3334 19.2066C29.3448 18.5439 29.1094 18.0022 28.6406 17.5323C26.5537 15.4403 24.4783 13.3367 22.3988 11.2384C22.2436 11.0811 22.0758 10.9301 22.0341 10.6998C21.9664 10.332 22.0654 10.0195 22.3915 9.82152C22.7239 9.6194 23.0687 9.64024 23.374 9.88403C23.9939 10.38 24.6044 10.8873 25.2181 11.3895C25.3191 11.4718 25.4212 11.552 25.5212 11.6354C25.7484 11.825 25.9932 11.9021 26.2776 11.7677C26.5589 11.6333 26.6662 11.402 26.66 11.103C26.6579 10.9988 26.66 10.8946 26.66 10.7904C26.66 8.4869 26.66 6.18336 26.661 3.87877C26.661 3.74958 26.6558 3.61831 26.6704 3.48912C26.7371 2.89422 27.1851 2.49206 27.7373 2.52123C28.2749 2.54936 28.6614 2.9734 28.6666 3.57247C28.6749 4.56223 28.6687 5.55095 28.6687 6.54072C28.6687 6.73554 28.6645 6.93141 28.6708 7.12624C28.6833 7.54611 28.9646 7.84408 29.3365 7.842C29.7064 7.83991 29.995 7.5409 29.9971 7.11999C30.0033 5.76662 29.9991 4.4122 29.9991 3.05883C29.9991 2.87651 30.0012 2.69731 30.071 2.52123C30.2419 2.08782 30.6826 1.7961 31.1056 1.84507C31.5588 1.89716 31.9057 2.23681 31.9787 2.71085C32.0005 2.8515 32.0026 2.99528 32.0037 3.13801C32.0047 4.43929 32.0016 5.74161 32.0058 7.04289C32.0078 7.54194 32.262 7.83991 32.6642 7.84095C33.0653 7.842 33.3331 7.53673 33.3362 7.04602C33.3435 6.13543 33.3352 5.22381 33.3404 4.31323C33.3435 3.63185 33.7259 3.18698 34.3051 3.17344C34.8823 3.15989 35.3199 3.64019 35.323 4.31427C35.3293 5.61555 35.3251 6.91787 35.3251 8.21915C35.3251 8.32333 35.3189 8.42856 35.3303 8.5317C35.3762 8.9224 35.6762 9.19328 36.0336 9.1714C36.3888 9.15057 36.6472 8.88906 36.6524 8.49732C36.6649 7.63883 36.6576 6.7793 36.6587 5.91977C36.6587 5.78954 36.6524 5.65931 36.6608 5.53012C36.7014 4.92375 37.1296 4.49347 37.6745 4.50597C38.2038 4.51847 38.6518 4.9821 38.6622 5.56658C38.6757 6.38652 38.6663 7.20646 38.6663 8.0264C38.6674 10.4352 38.6643 12.8429 38.6705 15.2506C38.6716 15.5215 38.609 15.7559 38.4673 15.9862C37.986 16.7728 37.5224 17.5698 37.04 18.3554Z" fill="white"/>
</g>
<defs>
<clipPath id="clip0_2697_1610">
<rect width="40.0052" height="40" fill="white" transform="translate(0 0.5)"/>
</clipPath>
</defs>
</svg>
