<svg width="44" height="40" viewBox="0 0 44 40" fill="none" xmlns="http://www.w3.org/2000/svg">
<path d="M39.4414 29.6498C38.3841 29.3079 37.2995 29.3446 36.2409 29.6084C33.914 30.1927 31.6037 30.8445 29.2804 31.4524C28.242 31.7233 27.2273 32.0995 26.0917 32.2071C26.12 32.1461 26.1521 32.0868 26.1877 32.0297C27.3873 30.3902 26.925 28.5024 25.1031 27.5987C24.8387 27.4674 24.5791 27.329 24.3196 27.1906C22.5059 26.2219 20.8393 25.0248 19.1655 23.8444C17.8083 22.8862 16.3384 22.6414 14.7476 22.975C12.6827 23.4091 10.6699 24.0395 8.62986 24.5683C8.28847 24.657 7.88781 24.8959 7.61873 24.7942C7.33069 24.6842 7.39232 24.1791 7.28327 23.8479C6.9644 22.8803 6.08367 22.367 5.09624 22.6095C4.36724 22.7881 3.63941 22.9797 2.91277 23.1713C1.78785 23.4682 1.25324 24.3731 1.54485 25.5003C1.76296 26.3555 1.98581 27.2096 2.20747 28.0636C3.00326 31.1248 3.79904 34.186 4.59483 37.2472C4.85324 38.2361 5.70197 38.8405 6.65028 38.6513C7.52864 38.4691 8.40108 38.2373 9.25811 37.9688C10.1424 37.692 10.6106 36.7954 10.4067 35.8952C10.3321 35.5652 10.2443 35.2376 10.1614 34.9099C10.1365 34.8141 10.0571 34.6651 10.1946 34.6473C10.747 34.5775 11.2294 34.1742 11.8707 34.5515C14.5568 36.146 17.2737 37.6908 19.9882 39.2356C21.33 39.9997 22.7726 40.2138 24.2627 39.775C29.3203 38.2862 34.3747 36.7828 39.426 35.2648C40.6648 34.8933 41.4673 33.7117 41.472 32.3656C41.4696 31.1094 40.6908 30.0531 39.4414 29.6498ZM8.50895 36.7185C7.88189 36.877 7.24297 37.0225 6.62657 37.2058C6.20932 37.3241 6.03388 37.1727 5.92957 36.7824C5.13931 33.707 4.34313 30.6315 3.54103 27.5561C3.35927 26.8583 3.17948 26.1604 3.00168 25.4625C2.79898 24.6664 2.80372 24.6558 3.61333 24.4464C4.2404 24.2832 4.86984 24.1259 5.46134 23.9733C5.87148 23.9413 5.92127 24.2252 5.98883 24.4819C6.50329 26.4596 7.01695 28.4381 7.52983 30.4174C8.00872 32.269 8.48643 34.1202 8.96295 35.9709C9.08979 36.4843 9.03171 36.5813 8.50895 36.7185ZM38.9033 33.9459C34.0195 35.402 29.1322 36.845 24.2544 38.3165C22.8805 38.7305 21.6204 38.5685 20.3888 37.8505C17.7419 36.3057 15.07 34.8046 12.4349 33.2374C11.8494 32.8896 11.3313 32.8092 10.6912 33.0114C9.73582 33.3131 9.72989 33.2823 9.48096 32.3195C8.98785 30.4115 8.4888 28.5048 7.99687 26.5968C7.95182 26.4194 7.82143 26.2337 8.17112 26.1438C10.4233 25.5654 12.6578 24.8995 14.9278 24.3695C15.248 24.3102 15.5714 24.2688 15.8962 24.2453C16.822 24.2453 17.5143 24.4488 18.1485 24.877C19.7594 25.9676 21.3253 27.1244 23.0216 28.0884C23.5597 28.3924 24.1157 28.6645 24.6586 28.9602C25.2015 29.2559 25.5358 29.9183 25.416 30.4813C25.3642 30.7651 25.2199 31.0239 25.0056 31.2175C24.7912 31.4111 24.5188 31.5286 24.2306 31.5518C23.8744 31.5586 23.523 31.4691 23.2136 31.2928C21.8812 30.5961 20.6058 29.7988 19.3078 29.0453C19.1406 28.9519 18.9782 28.8336 18.7767 28.8336C18.6275 28.8214 18.4785 28.8601 18.3541 28.9432C18.2297 29.0263 18.1371 29.149 18.0916 29.2914C18.0284 29.4358 18.0197 29.5982 18.0669 29.7486C18.1142 29.899 18.2143 30.0273 18.3488 30.1099C18.6428 30.3051 18.9498 30.4825 19.2568 30.6564C20.6674 31.4524 22.0448 32.3065 23.5147 32.9961C24.9051 33.6525 26.3276 33.7495 27.82 33.3284C30.6649 32.5288 33.5323 31.7694 36.3962 31.0183C37.2141 30.8042 38.0557 30.738 38.895 30.9639C39.6358 31.165 40.0436 31.6654 40.0484 32.3431C40.0519 33.1072 39.6038 33.7365 38.9033 33.9459ZM4.74063 25.2661C4.54738 25.2686 4.363 25.3475 4.22791 25.4854C4.09281 25.6233 4.01802 25.809 4.01992 26.0019C4.02241 26.1946 4.10073 26.3787 4.238 26.5143C4.37527 26.65 4.56048 26.7264 4.75367 26.727C4.85289 26.7287 4.95141 26.7101 5.04318 26.6724C5.13495 26.6347 5.21802 26.5787 5.2873 26.5078C5.35658 26.4369 5.41059 26.3526 5.44603 26.2601C5.48146 26.1676 5.49756 26.0689 5.49335 25.9699C5.48685 25.7771 5.40395 25.5947 5.26284 25.4627C5.12172 25.3308 4.93392 25.2601 4.74063 25.2661Z" fill="#6A4A94"/>
<path d="M30.5309 6.89947C29.0844 6.89385 27.6687 7.31665 26.4632 8.11432C25.2576 8.912 24.3164 10.0487 23.7586 11.3805C23.2008 12.7123 23.0516 14.1792 23.3298 15.5957C23.6081 17.0122 24.3012 18.3144 25.3216 19.3375C26.3419 20.3607 27.6435 21.0587 29.0616 21.3432C30.4798 21.6277 31.9506 21.486 33.2879 20.9359C34.6253 20.3858 35.769 19.4521 36.5742 18.253C37.3795 17.054 37.81 15.6434 37.8115 14.2C37.8146 12.269 37.0497 10.4156 35.6847 9.04682C34.3196 7.67804 32.466 6.90573 30.5309 6.89947ZM34.087 18.8545C32.0719 20.4561 28.9673 20.4526 26.9309 18.8486C26.7317 18.6925 26.7056 18.56 26.7697 18.3317C27.0096 17.5262 27.5041 16.8197 28.1794 16.3175C28.8547 15.8154 29.6746 15.5446 30.5168 15.5456C31.3589 15.5465 32.1782 15.8191 32.8524 16.3227C33.5266 16.8263 34.0195 17.5339 34.2577 18.34C34.3276 18.5872 34.2696 18.7067 34.0846 18.8545H34.087ZM28.901 12.4932C28.9049 12.1768 29.0024 11.8686 29.1811 11.6072C29.3599 11.3459 29.6119 11.143 29.9057 11.0239C30.1995 10.9049 30.522 10.875 30.8327 10.9381C31.1435 11.0011 31.4286 11.1543 31.6525 11.3783C31.8764 11.6024 32.0291 11.8874 32.0913 12.1977C32.1536 12.5079 32.1227 12.8296 32.0026 13.1224C31.8824 13.4152 31.6784 13.6662 31.4159 13.8438C31.1535 14.0214 30.8444 14.1177 30.5273 14.1208C30.3128 14.1222 30.1002 14.081 29.9018 13.9997C29.7034 13.9184 29.5232 13.7985 29.3716 13.6471C29.2201 13.4956 29.1002 13.3156 29.019 13.1175C28.9378 12.9194 28.8969 12.7072 28.8986 12.4932H28.901ZM35.4206 17.3428C34.7093 16.0417 34.7093 16.0417 32.7546 14.5631C33.9815 13.1343 33.665 11.3009 32.5946 10.3049C32.0483 9.78708 31.3277 9.49175 30.5743 9.47687C29.821 9.46199 29.0893 9.72863 28.5228 10.2245C27.2367 11.3529 27.1383 12.9971 28.262 14.5773C26.484 15.6786 26.3157 16.076 25.5843 17.3499C23.9484 15.1546 24.4463 11.6522 26.663 9.75841C27.789 8.78084 29.2462 8.26843 30.7377 8.32557C32.2292 8.38271 33.6427 9.00511 34.6904 10.066C36.9959 12.3808 36.6723 15.7318 35.4194 17.3393L35.4206 17.3428Z" fill="#6A4A94"/>
<path d="M43.9897 12.5575C44.0026 12.387 43.9574 12.2171 43.8614 12.0754C43.7655 11.9338 43.6244 11.8285 43.4611 11.7768C42.9952 11.5958 42.5305 11.4054 42.0576 11.2434C41.9608 11.2156 41.8732 11.1624 41.8039 11.0894C41.7347 11.0164 41.6864 10.9262 41.664 10.8282C41.5016 10.3255 41.3748 9.78372 41.0879 9.35552C40.6221 8.65764 40.7074 8.04493 41.0962 7.37662C41.2832 7.0865 41.4113 6.76259 41.4732 6.42324C41.457 6.19113 41.3517 5.97421 41.1792 5.81762C40.5905 5.23645 40.0049 4.65291 39.4225 4.067C38.4149 3.05448 38.5405 3.04857 37.2461 3.68495C36.6226 3.99249 36.0607 4.14625 35.468 3.67548C35.3307 3.58999 35.1845 3.51978 35.0318 3.46612C34.5577 3.23783 33.9105 3.26267 33.5904 2.87469C33.2703 2.48672 33.1577 1.88819 32.9799 1.37484C32.8211 0.915891 32.5164 0.734918 32.0399 0.745563C31.2268 0.762123 30.4136 0.751478 29.6004 0.745563C28.2349 0.745563 28.2787 0.666311 27.8484 1.96745C27.6208 2.65823 27.3126 3.1775 26.5267 3.26858C26.4113 3.2918 26.2999 3.33164 26.196 3.38687C25.6863 3.60687 25.1754 4.01141 24.6704 4.00195C24.1417 3.99249 23.6166 3.59268 23.095 3.35375C22.7454 3.19406 22.4383 3.23546 22.1633 3.50633L19.808 5.85784C19.6862 5.96761 19.6043 6.11458 19.5751 6.27574C19.546 6.43691 19.5712 6.60317 19.6468 6.74853C19.7053 6.91502 19.7775 7.07643 19.8625 7.23113C20.3473 7.98224 20.4422 8.72625 19.8625 9.47854C19.8324 9.5291 19.8066 9.58212 19.7855 9.63704C19.533 10.1279 19.5757 10.8045 19.1406 11.1369C18.7056 11.4693 18.12 11.5722 17.5996 11.7674C17.4279 11.8173 17.2784 11.9243 17.1758 12.0705C17.0732 12.2168 17.0236 12.3936 17.0354 12.5717C17.0354 13.6497 17.0354 14.7264 17.0354 15.8021C17.0354 16.2267 17.2345 16.4893 17.6281 16.63C18.0856 16.7956 18.5325 16.9849 18.9913 17.1458C19.0821 17.1703 19.1644 17.2194 19.229 17.2877C19.2936 17.3559 19.3381 17.4407 19.3575 17.5326C19.5685 18.2837 19.8698 19.0065 20.2549 19.6854C20.3096 19.7695 20.3397 19.8673 20.3417 19.9676C20.3438 20.0679 20.3179 20.1667 20.2667 20.2531C20.0557 20.6896 19.8744 21.1403 19.674 21.5815C19.5069 21.9446 19.5472 22.2616 19.8364 22.5478C20.6125 23.3175 21.3865 24.0891 22.1586 24.8627C22.271 24.992 22.4242 25.0792 22.593 25.1097C22.7618 25.1403 22.936 25.1124 23.0868 25.0306C23.5277 24.8272 23.977 24.6415 24.4144 24.4309C24.5082 24.3751 24.6156 24.3463 24.7248 24.3475C24.834 24.3488 24.9407 24.3801 25.0331 24.438C25.6987 24.8181 26.4101 25.1119 27.1502 25.3122C27.2497 25.3337 27.3414 25.3819 27.4156 25.4515C27.4897 25.5211 27.5434 25.6095 27.571 25.7072C27.7311 26.165 27.9267 26.6109 28.0879 27.0675C28.2242 27.4496 28.4743 27.6329 28.8844 27.6294C29.9789 27.6223 31.073 27.6223 32.1668 27.6294C32.3374 27.6435 32.5077 27.5984 32.6487 27.5016C32.7898 27.4048 32.893 27.2623 32.9408 27.0983C33.1091 26.6429 33.2964 26.1958 33.4565 25.7368C33.484 25.6319 33.54 25.5366 33.6181 25.4613C33.6963 25.386 33.7938 25.3336 33.8998 25.3098C34.6392 25.1064 35.3503 24.812 36.0169 24.4333C36.1026 24.3787 36.2017 24.3485 36.3034 24.3458C36.4051 24.343 36.5056 24.368 36.5942 24.4179C37.0304 24.6308 37.482 24.8118 37.923 25.0176C38.2881 25.1891 38.6022 25.143 38.8891 24.8544C39.6595 24.0792 40.4332 23.3076 41.21 22.5396C41.3393 22.4272 41.4265 22.2744 41.4573 22.1061C41.4881 21.9378 41.4607 21.7641 41.3795 21.6134C41.165 21.1403 40.9647 20.6671 40.7465 20.2046C40.7062 20.1287 40.6869 20.0434 40.6906 19.9575C40.6944 19.8716 40.721 19.7883 40.7679 19.7161C41.1559 19.0222 41.4615 18.2854 41.6782 17.5207C41.6964 17.4359 41.7371 17.3575 41.7962 17.2938C41.8552 17.2301 41.9304 17.1835 42.0137 17.1588C42.4985 16.9837 42.9786 16.7957 43.4599 16.6099C43.6236 16.559 43.7652 16.4545 43.862 16.3132C43.9588 16.172 44.0051 16.0023 43.9933 15.8316C43.9822 14.741 43.981 13.6497 43.9897 12.5575ZM41.7375 15.7512C41.7102 15.7631 41.6821 15.773 41.6534 15.7808C40.8414 15.9499 40.4146 16.4337 40.2558 17.2617C40.1135 18.0128 39.7425 18.7 39.3419 19.3542C39.2359 19.5037 39.173 19.6793 39.16 19.862C39.1471 20.0447 39.1845 20.2274 39.2684 20.3903C39.4865 20.8635 39.9381 21.3745 39.8243 21.8275C39.7153 22.2592 39.1558 22.5786 38.7907 22.9429C38.1612 23.5746 38.16 23.5734 37.335 23.2067C37.1608 23.1286 36.9794 23.0707 36.8099 22.976C36.408 22.7477 36.0418 22.7797 35.647 23.0222C34.8555 23.5078 33.9899 23.8614 33.0842 24.069C32.9017 24.0993 32.7317 24.1813 32.5944 24.3052C32.4572 24.4291 32.3586 24.5898 32.3102 24.7681C32.2841 24.852 32.2497 24.9337 32.2154 25.0153C32.0518 25.4068 32.0328 25.9615 31.7045 26.152C31.3986 26.3318 30.9008 26.1898 30.4883 26.1898C30.09 26.1898 29.598 26.3318 29.3218 26.1496C29.0457 25.9675 28.9449 25.4707 28.8477 25.0922C28.6806 24.444 28.2965 24.1199 27.6433 23.9815C26.8242 23.786 26.0442 23.4533 25.3366 22.9973C25.1849 22.893 25.0074 22.8321 24.8235 22.8215C24.6396 22.8109 24.4562 22.8508 24.2935 22.937C23.9082 23.1215 23.5076 23.2729 23.1271 23.4646C22.9303 23.5639 22.8153 23.5296 22.6695 23.3794C22.2191 22.9126 21.7591 22.4544 21.2897 22.0049C21.2265 21.9575 21.1838 21.8878 21.1701 21.81C21.1565 21.7323 21.1729 21.6523 21.2162 21.5862C21.4189 21.1615 21.6027 20.7274 21.7994 20.3004C21.8666 20.1691 21.8974 20.0222 21.8887 19.8749C21.8799 19.7277 21.8319 19.5855 21.7496 19.463C21.2192 18.5955 20.8262 17.6515 20.5844 16.6644C20.5526 16.5132 20.4809 16.3733 20.3767 16.2591C20.2725 16.1449 20.1396 16.0606 19.9917 16.015C19.6041 15.8742 19.2272 15.7027 18.8348 15.5797C18.5539 15.4922 18.4341 15.368 18.4507 15.0533C18.4815 14.4501 18.4685 13.8444 18.4507 13.24C18.4366 13.1545 18.4559 13.0668 18.5046 12.995C18.5533 12.9233 18.6278 12.8729 18.7127 12.8544C19.1442 12.7065 19.5674 12.5327 19.9953 12.3742C20.1433 12.327 20.2762 12.2415 20.3803 12.1264C20.4845 12.0113 20.5561 11.8706 20.588 11.7189C20.8223 10.7463 21.207 9.81604 21.7283 8.96164C21.8188 8.82724 21.8709 8.67079 21.879 8.50909C21.8872 8.34739 21.851 8.18652 21.7745 8.04374C21.5505 7.56469 21.1012 7.02176 21.1973 6.60895C21.3063 6.14172 21.9085 5.78095 22.2985 5.38706C22.8651 4.81456 22.8971 4.76488 23.6083 5.16114C24.4096 5.60589 25.1031 5.65202 25.8925 5.10673C26.4923 4.69155 27.2214 4.47864 27.9444 4.32014C28.1266 4.28806 28.296 4.20533 28.4331 4.08145C28.5703 3.95757 28.6696 3.79759 28.7197 3.61989C28.8453 3.24374 29.0172 2.88297 29.1381 2.50564C29.2175 2.26079 29.329 2.15079 29.6123 2.1638C30.2322 2.18627 30.8534 2.17799 31.4745 2.1638C31.5608 2.15012 31.6491 2.17013 31.7211 2.21968C31.7931 2.26924 31.8431 2.34453 31.8609 2.42994C32.0079 2.8605 32.1964 3.27686 32.3505 3.70505C32.3929 3.84646 32.4724 3.97399 32.5808 4.07444C32.6891 4.17489 32.8224 4.24461 32.9669 4.27637C33.9698 4.52451 34.9291 4.92335 35.8118 5.45922C35.93 5.53538 36.0661 5.57947 36.2066 5.58715C36.3472 5.59482 36.4873 5.56581 36.6131 5.50298C37.0422 5.309 37.4832 5.13867 37.9052 4.9293C38.1031 4.83113 38.2181 4.86779 38.3627 5.01683C38.8144 5.48287 39.2731 5.94419 39.7425 6.3913C39.8067 6.43782 39.8501 6.50747 39.8636 6.58543C39.8771 6.6634 39.8596 6.74355 39.8148 6.80885C39.6109 7.23231 39.4331 7.66878 39.2328 8.09461C39.1658 8.22608 39.1352 8.37302 39.1441 8.52026C39.1531 8.66749 39.2013 8.80966 39.2838 8.93207C39.8145 9.79941 40.2064 10.744 40.4455 11.7319C40.4743 11.8772 40.5413 12.0122 40.6396 12.1232C40.7379 12.2342 40.864 12.3171 41.005 12.3635C41.0464 12.3777 41.0903 12.3883 41.1306 12.4049C41.6048 12.5989 42.2615 12.6699 42.4973 13.0224C42.7332 13.3748 42.5661 14.0183 42.5673 14.534C42.5673 15.4295 42.5673 15.4295 41.7375 15.7465V15.7512Z" fill="#6A4A94"/>
<path d="M17.7726 7.99167C17.7904 7.49488 17.6043 7.16368 17.11 7.04539C16.5351 6.90463 16.2518 6.55806 16.0147 6.00449C15.7421 5.37876 15.6923 4.87014 16.042 4.29054C16.2589 3.93568 16.1724 3.59266 15.8642 3.29694C15.4161 2.86757 14.9728 2.43465 14.5508 1.98043C14.2106 1.61612 13.8395 1.50729 13.4093 1.77107C12.8877 2.09753 12.4337 2.03485 11.8683 1.80301C11.253 1.55343 10.8571 1.25298 10.7078 0.600047C10.6106 0.176587 10.287 -0.0091193 9.84244 0.000343499C9.23672 0.0133548 8.63099 0.000343499 8.02526 0.000343499C7.41953 0.000343499 7.21683 0.10325 7.04376 0.68048C6.8707 1.25771 6.5459 1.52977 5.99944 1.76989C5.37475 2.04313 4.86148 2.08807 4.28657 1.73558C3.92147 1.51203 3.58482 1.6173 3.29085 1.91538C2.86886 2.3483 2.43501 2.77058 2.00827 3.19877C1.53412 3.67191 1.47722 3.8245 1.78779 4.40054C2.06161 4.90917 2.02486 5.32317 1.81505 5.86491C1.56612 6.51903 1.23185 6.92948 0.552622 7.08325C0.389794 7.11407 0.243879 7.20324 0.142355 7.33396C0.0408322 7.46468 -0.00929219 7.62792 0.00142155 7.79296C0.00142155 8.51607 0.00142155 9.2384 0.00142155 9.95994C0.00142155 10.2687 0.130627 10.5514 0.428157 10.6141C1.28874 10.7879 1.69651 11.3522 1.89092 12.1423C1.9106 12.2135 1.94402 12.2802 1.9893 12.3386C2.12207 12.5149 2.08532 12.6781 1.99997 12.8662C1.84824 13.1986 1.65384 13.5168 1.60524 13.8633C1.62749 14.0943 1.7368 14.3082 1.91107 14.4619C2.29987 14.8451 2.68512 15.2331 3.07155 15.6187C3.69862 16.2444 3.78278 16.2764 4.56987 15.9002C4.96461 15.711 5.32141 15.5927 5.7031 15.9002C5.77223 15.954 5.85371 15.9898 5.94017 16.0043C6.58739 16.106 6.90744 16.5165 7.05443 17.1221C7.17297 17.5952 7.50369 17.7738 7.98021 17.762C8.5729 17.7466 9.16559 17.762 9.75236 17.762C10.3391 17.762 10.5525 17.6627 10.7267 17.076C10.901 16.4893 11.2436 16.2338 11.7841 15.9937C12.4088 15.7157 12.9221 15.6778 13.4993 16.0291C13.8609 16.2491 14.1987 16.1474 14.4927 15.8387C14.923 15.3928 15.3568 14.9492 15.812 14.5281C16.183 14.1851 16.2636 13.8054 16.0064 13.3843C15.697 12.878 15.6235 12.3895 15.9981 11.888C16.0234 11.8528 16.0404 11.8123 16.0479 11.7697C16.1427 11.1783 16.5221 10.866 17.0827 10.7406C17.097 10.7406 17.11 10.7288 17.1242 10.7252C17.6209 10.5951 17.7952 10.2604 17.7786 9.76713C17.7556 9.17334 17.7537 8.58152 17.7726 7.99167ZM16.2968 9.46906C16.2791 9.56841 16.01 9.64885 15.8452 9.69025C15.3177 9.82391 15.0083 10.1362 14.9099 10.6767C14.8442 11.0572 14.6997 11.4198 14.4856 11.7413C14.1181 12.2736 14.0861 12.7822 14.4275 13.3382C14.5034 13.4564 14.6646 13.6339 14.5223 13.7794C14.2604 14.0561 14.0363 14.4051 13.6843 14.5458C13.5396 14.6038 13.2765 14.4181 13.0916 14.3093C12.7004 14.0798 12.3424 14.1236 11.9714 14.3578C11.5761 14.6176 11.1367 14.8032 10.6746 14.9054C10.1506 15.0143 9.81637 15.2851 9.71442 15.8044C9.62315 16.2775 9.34696 16.4218 8.90007 16.3473C8.7822 16.3295 8.66232 16.3295 8.54445 16.3473C8.3299 16.3781 8.21966 16.2834 8.16039 16.0871C8.11772 15.9475 8.04185 15.8162 8.00511 15.6755C7.89487 15.2603 7.62934 15.0367 7.21209 14.9433C6.7595 14.855 6.32761 14.6824 5.93899 14.4347C5.43639 14.094 4.96816 14.0893 4.45726 14.3956C4.32213 14.4772 4.13366 14.6511 3.98311 14.5222C3.68871 14.2813 3.42727 14.003 3.2055 13.6942C3.14505 13.6055 3.30152 13.3393 3.39753 13.1808C3.65713 12.7408 3.64172 12.3351 3.35723 11.9034C3.08589 11.4661 2.8907 10.9862 2.77995 10.4839C2.74719 10.3255 2.67286 10.1787 2.56456 10.0583C2.45626 9.938 2.31787 9.84853 2.16355 9.79907C1.39187 9.50336 1.4061 9.49153 1.39898 8.61622C1.39898 8.36191 1.44877 8.20104 1.71667 8.14308C2.36744 8.00114 2.78351 7.64865 2.89138 6.94722C2.96206 6.56921 3.11457 6.21115 3.33826 5.89803C3.63461 5.46038 3.68677 5.031 3.38805 4.58625C3.13082 4.20183 3.17705 3.87654 3.57416 3.63997C3.78752 3.51104 3.85983 3.04855 4.219 3.27447C4.92075 3.70976 5.56085 3.65416 6.22348 3.19404C6.45829 3.03511 6.72548 2.93008 7.00583 2.8865C7.63171 2.78714 7.96954 2.424 8.09875 1.83494C8.17462 1.48718 8.37257 1.39374 8.72463 1.40794C9.48209 1.43987 9.49276 1.40793 9.76302 2.12947C9.81744 2.30532 9.91935 2.46281 10.0576 2.58467C10.1958 2.70653 10.365 2.78803 10.5466 2.82025C10.9685 2.89451 11.3714 3.05172 11.7319 3.28275C12.2879 3.67191 12.8095 3.66954 13.3737 3.33716C13.4922 3.26619 13.6428 3.10059 13.8028 3.25909C14.0671 3.52878 14.3742 3.76299 14.578 4.08709C14.4797 4.30946 14.4014 4.51646 14.2995 4.71163C14.2066 4.87131 14.1611 5.05402 14.1682 5.23851C14.1753 5.423 14.2348 5.60167 14.3398 5.75372C14.6067 6.1613 14.7986 6.61314 14.9064 7.08798C15.0166 7.62499 15.3177 7.93253 15.844 8.07566C16.0206 8.12416 16.3111 8.12179 16.3312 8.3761C16.3665 8.74039 16.3549 9.10769 16.2968 9.46906ZM8.86332 4.32484C8.2646 4.32608 7.67199 4.44509 7.11939 4.67505C6.56679 4.905 6.06504 5.24141 5.64283 5.66502C5.22062 6.08863 4.88624 6.59114 4.65881 7.14381C4.43138 7.69648 4.31536 8.28846 4.31739 8.88591C4.31864 10.0924 4.79901 11.2492 5.65329 12.103C6.50756 12.9568 7.66611 13.4379 8.87517 13.4411C10.0916 13.4364 11.2566 12.9509 12.115 12.0909C12.9735 11.231 13.4555 10.0666 13.4555 8.85279C13.443 7.64634 12.9534 6.49366 12.0934 5.64563C11.2333 4.79761 10.0724 4.3229 8.86332 4.32484ZM8.87992 12.0252C8.4655 12.0254 8.05515 11.9437 7.6725 11.7849C7.28985 11.6261 6.94247 11.3934 6.65037 11.1C6.35827 10.8067 6.12722 10.4585 5.97055 10.0757C5.81387 9.69286 5.73466 9.28287 5.73747 8.86935C5.73682 8.45581 5.81846 8.04626 5.97765 7.66445C6.13684 7.28264 6.37042 6.93616 6.66483 6.64513C6.95925 6.35409 7.30865 6.12428 7.69275 5.96903C8.07686 5.81378 8.48804 5.73617 8.90244 5.74071C9.73149 5.74841 10.5244 6.08031 11.1109 6.66509C11.6974 7.24988 12.0306 8.04089 12.039 8.86817C12.0349 9.7034 11.7009 10.5033 11.1095 11.0944C10.5181 11.6854 9.71693 12.0199 8.87992 12.0252Z" fill="#6A4A94"/>
<path d="M5.49062 25.9695C5.49484 26.0684 5.47874 26.1672 5.4433 26.2596C5.40787 26.3521 5.35386 26.4364 5.28458 26.5073C5.2153 26.5782 5.13223 26.6343 5.04046 26.6719C4.94869 26.7096 4.85017 26.7282 4.75095 26.7265C4.55817 26.7253 4.37357 26.6486 4.23681 26.513C4.10005 26.3775 4.02205 26.1938 4.01957 26.0014C4.01767 25.8086 4.09246 25.6228 4.22756 25.4849C4.36265 25.347 4.54703 25.2682 4.74028 25.2657C4.93316 25.2602 5.12035 25.3312 5.26095 25.4631C5.40155 25.595 5.48412 25.777 5.49062 25.9695Z" fill="#FEFEFE"/>
<path d="M30.5309 6.89947C29.0844 6.89385 27.6687 7.31665 26.4632 8.11432C25.2576 8.912 24.3164 10.0487 23.7586 11.3805C23.2008 12.7123 23.0516 14.1792 23.3298 15.5957C23.6081 17.0122 24.3012 18.3144 25.3216 19.3375C26.3419 20.3607 27.6435 21.0587 29.0616 21.3432C30.4798 21.6277 31.9506 21.486 33.2879 20.9359C34.6253 20.3858 35.769 19.4521 36.5742 18.253C37.3795 17.054 37.81 15.6434 37.8115 14.2C37.8146 12.269 37.0497 10.4156 35.6847 9.04682C34.3196 7.67804 32.466 6.90573 30.5309 6.89947ZM34.087 18.8545C32.0719 20.4561 28.9673 20.4526 26.9309 18.8486C26.7317 18.6925 26.7056 18.56 26.7697 18.3317C27.0096 17.5262 27.5041 16.8197 28.1794 16.3175C28.8547 15.8154 29.6746 15.5446 30.5168 15.5456C31.3589 15.5465 32.1782 15.8191 32.8524 16.3227C33.5266 16.8263 34.0195 17.5339 34.2577 18.34C34.3276 18.5872 34.2696 18.7067 34.0846 18.8545H34.087ZM28.901 12.4932C28.9049 12.1768 29.0024 11.8686 29.1811 11.6072C29.3599 11.3459 29.6119 11.143 29.9057 11.0239C30.1995 10.9049 30.522 10.875 30.8327 10.9381C31.1435 11.0011 31.4286 11.1543 31.6525 11.3783C31.8764 11.6024 32.0291 11.8874 32.0913 12.1977C32.1536 12.5079 32.1227 12.8296 32.0026 13.1224C31.8824 13.4152 31.6784 13.6662 31.4159 13.8438C31.1535 14.0214 30.8444 14.1177 30.5273 14.1208C30.3128 14.1222 30.1002 14.081 29.9018 13.9997C29.7034 13.9184 29.5232 13.7985 29.3716 13.6471C29.2201 13.4956 29.1002 13.3156 29.019 13.1175C28.9378 12.9194 28.8969 12.7072 28.8986 12.4932H28.901ZM35.4206 17.3428C34.7093 16.0417 34.7093 16.0417 32.7546 14.5631C33.9815 13.1343 33.665 11.3009 32.5946 10.3049C32.0483 9.78708 31.3277 9.49175 30.5743 9.47687C29.821 9.46199 29.0893 9.72863 28.5228 10.2245C27.2367 11.3529 27.1383 12.9971 28.262 14.5773C26.484 15.6786 26.3157 16.076 25.5843 17.3499C23.9484 15.1546 24.4463 11.6522 26.663 9.75841C27.789 8.78084 29.2462 8.26843 30.7377 8.32557C32.2292 8.38271 33.6427 9.00511 34.6904 10.066C36.9959 12.3808 36.6723 15.7318 35.4194 17.3393L35.4206 17.3428Z" fill="#FEFEFE"/>
<path d="M8.86334 4.32447C8.26461 4.32571 7.67201 4.44471 7.11941 4.67467C6.56681 4.90463 6.06506 5.24104 5.64285 5.66465C5.22064 6.08826 4.88626 6.59077 4.65883 7.14344C4.4314 7.69611 4.31538 8.28809 4.31741 8.88554C4.31866 10.092 4.79903 11.2488 5.6533 12.1026C6.50758 12.9564 7.66613 13.4376 8.8752 13.4407C10.0916 13.436 11.2566 12.9505 12.115 12.0906C12.9735 11.2306 13.4555 10.0662 13.4555 8.85242C13.443 7.64597 12.9534 6.49328 12.0934 5.64526C11.2333 4.79724 10.0724 4.32253 8.86334 4.32447ZM8.87994 12.0248C8.46552 12.025 8.05516 11.9433 7.67252 11.7845C7.28987 11.6258 6.94249 11.393 6.65039 11.0996C6.35829 10.8063 6.12724 10.4582 5.97057 10.0753C5.81389 9.69249 5.73468 9.2825 5.73749 8.86898C5.73684 8.45544 5.81848 8.04589 5.97767 7.66408C6.13686 7.28227 6.37044 6.93579 6.66485 6.64476C6.95927 6.35372 7.30867 6.12391 7.69277 5.96866C8.07688 5.8134 8.48806 5.7358 8.90246 5.74034C9.73151 5.74804 10.5245 6.07994 11.1109 6.66472C11.6974 7.24951 12.0306 8.04051 12.039 8.86779C12.0349 9.70303 11.701 10.503 11.1095 11.094C10.5181 11.6851 9.71695 12.0195 8.87994 12.0248Z" fill="#FEFEFE"/>
<path d="M5.49062 25.9695C5.49484 26.0684 5.47874 26.1672 5.4433 26.2596C5.40787 26.3521 5.35386 26.4364 5.28458 26.5073C5.2153 26.5782 5.13223 26.6343 5.04046 26.6719C4.94869 26.7096 4.85017 26.7282 4.75095 26.7265C4.55817 26.7253 4.37357 26.6486 4.23681 26.513C4.10005 26.3775 4.02205 26.1938 4.01957 26.0014C4.01767 25.8086 4.09246 25.6228 4.22756 25.4849C4.36265 25.347 4.54703 25.2682 4.74028 25.2657C4.93316 25.2602 5.12035 25.3312 5.26095 25.4631C5.40155 25.595 5.48412 25.777 5.49062 25.9695Z" fill="#6A4A94"/>
<path d="M30.5309 6.89947C29.0844 6.89385 27.6687 7.31665 26.4632 8.11432C25.2576 8.912 24.3164 10.0487 23.7586 11.3805C23.2008 12.7123 23.0516 14.1792 23.3298 15.5957C23.6081 17.0122 24.3012 18.3144 25.3216 19.3375C26.3419 20.3607 27.6435 21.0587 29.0616 21.3432C30.4798 21.6277 31.9506 21.486 33.2879 20.9359C34.6253 20.3858 35.769 19.4521 36.5742 18.253C37.3795 17.054 37.81 15.6434 37.8115 14.2C37.8146 12.269 37.0497 10.4156 35.6847 9.04682C34.3196 7.67804 32.466 6.90573 30.5309 6.89947ZM34.087 18.8545C32.0719 20.4561 28.9673 20.4526 26.9309 18.8486C26.7317 18.6925 26.7056 18.56 26.7697 18.3317C27.0096 17.5262 27.5041 16.8197 28.1794 16.3175C28.8547 15.8154 29.6746 15.5446 30.5168 15.5456C31.3589 15.5465 32.1782 15.8191 32.8524 16.3227C33.5266 16.8263 34.0195 17.5339 34.2577 18.34C34.3276 18.5872 34.2696 18.7067 34.0846 18.8545H34.087ZM28.901 12.4932C28.9049 12.1768 29.0024 11.8686 29.1811 11.6072C29.3599 11.3459 29.6119 11.143 29.9057 11.0239C30.1995 10.9049 30.522 10.875 30.8327 10.9381C31.1435 11.0011 31.4286 11.1543 31.6525 11.3783C31.8764 11.6024 32.0291 11.8874 32.0913 12.1977C32.1536 12.5079 32.1227 12.8296 32.0026 13.1224C31.8824 13.4152 31.6784 13.6662 31.4159 13.8438C31.1535 14.0214 30.8444 14.1177 30.5273 14.1208C30.3128 14.1222 30.1002 14.081 29.9018 13.9997C29.7034 13.9184 29.5232 13.7985 29.3716 13.6471C29.2201 13.4956 29.1002 13.3156 29.019 13.1175C28.9378 12.9194 28.8969 12.7072 28.8986 12.4932H28.901ZM35.4206 17.3428C34.7093 16.0417 34.7093 16.0417 32.7546 14.5631C33.9815 13.1343 33.665 11.3009 32.5946 10.3049C32.0483 9.78708 31.3277 9.49175 30.5743 9.47687C29.821 9.46199 29.0893 9.72863 28.5228 10.2245C27.2367 11.3529 27.1383 12.9971 28.262 14.5773C26.484 15.6786 26.3157 16.076 25.5843 17.3499C23.9484 15.1546 24.4463 11.6522 26.663 9.75841C27.789 8.78084 29.2462 8.26843 30.7377 8.32557C32.2292 8.38271 33.6427 9.00511 34.6904 10.066C36.9959 12.3808 36.6723 15.7318 35.4194 17.3393L35.4206 17.3428Z" fill="#6A4A94"/>
<path d="M8.86334 4.32447C8.26461 4.32571 7.67201 4.44471 7.11941 4.67467C6.56681 4.90463 6.06506 5.24104 5.64285 5.66465C5.22064 6.08826 4.88626 6.59077 4.65883 7.14344C4.4314 7.69611 4.31538 8.28809 4.31741 8.88554C4.31866 10.092 4.79903 11.2488 5.6533 12.1026C6.50758 12.9564 7.66613 13.4376 8.8752 13.4407C10.0916 13.436 11.2566 12.9505 12.115 12.0906C12.9735 11.2306 13.4555 10.0662 13.4555 8.85242C13.443 7.64597 12.9534 6.49328 12.0934 5.64526C11.2333 4.79724 10.0724 4.32253 8.86334 4.32447ZM8.87994 12.0248C8.46552 12.025 8.05516 11.9433 7.67252 11.7845C7.28987 11.6258 6.94249 11.393 6.65039 11.0996C6.35829 10.8063 6.12724 10.4582 5.97057 10.0753C5.81389 9.69249 5.73468 9.2825 5.73749 8.86898C5.73684 8.45544 5.81848 8.04589 5.97767 7.66408C6.13686 7.28227 6.37044 6.93579 6.66485 6.64476C6.95927 6.35372 7.30867 6.12391 7.69277 5.96866C8.07688 5.8134 8.48806 5.7358 8.90246 5.74034C9.73151 5.74804 10.5245 6.07994 11.1109 6.66472C11.6974 7.24951 12.0306 8.04051 12.039 8.86779C12.0349 9.70303 11.701 10.503 11.1095 11.094C10.5181 11.6851 9.71695 12.0195 8.87994 12.0248Z" fill="#6A4A94"/>
</svg>
