<svg width="39" height="40" viewBox="0 0 39 40" fill="none" xmlns="http://www.w3.org/2000/svg">
<g clip-path="url(#clip0_2716_1643)">
<path d="M38.2507 36.308C38.2356 35.6369 37.9983 35.3545 37.3596 35.2805C37.0709 35.2482 36.9573 35.1211 36.9744 34.8356C36.9804 34.7189 36.9744 34.6022 36.9744 34.4844V5.50719C36.9744 5.37694 36.9794 5.24668 36.9744 5.11643C36.9663 4.858 37.081 4.75692 37.3294 4.72357C38.0184 4.63187 38.2346 4.36824 38.2507 3.64506C38.2628 2.96877 38.2618 2.29039 38.2507 1.61514C38.2377 0.833604 37.955 0.53558 37.1936 0.508486C36.5791 0.486603 35.9625 0.50015 35.347 0.508486C34.5574 0.508486 34.2285 0.821107 34.1712 1.51824C34.1531 1.74644 34.0284 1.83085 33.8212 1.83085C33.7206 1.83085 33.62 1.83085 33.5194 1.83085C29.8382 1.83085 26.1566 1.83085 22.4747 1.83085C22.3621 1.83085 22.2494 1.83085 22.1358 1.83085C21.9165 1.83085 21.821 1.71622 21.8179 1.49218C21.8242 1.23201 21.8147 0.971698 21.7898 0.712736C21.7425 0.363651 21.6037 0.0937575 21.2436 0.00622559H17.0193C16.6592 0.0937575 16.5164 0.36365 16.4731 0.711693C16.4523 0.91937 16.4436 1.12816 16.447 1.33692C16.4379 1.79438 16.4087 1.83398 15.9762 1.83502C12.1689 1.83502 8.362 1.83675 4.55537 1.84022C4.25363 1.84022 4.1108 1.73602 4.06654 1.40673C3.9901 0.828394 3.7467 0.573094 3.21665 0.535581C2.42724 0.473056 1.63438 0.473056 0.84497 0.535581C0.306866 0.581431 0.0483714 0.869036 0.0242322 1.42236C-0.0109709 2.22891 -0.0129825 3.03649 0.0242322 3.84303C0.0493772 4.37448 0.310889 4.63604 0.819825 4.7194C1.2835 4.79651 1.28349 4.79651 1.28953 5.27481C1.28953 5.36651 1.28953 5.45716 1.28953 5.54886V34.4479C1.28953 34.5782 1.28349 34.7095 1.28953 34.8387C1.30361 35.1232 1.19398 35.2555 0.904309 35.2837C0.265625 35.3577 0.0292627 35.64 0.0131698 36.3101C-0.00292298 36.9801 0.00311183 37.6647 0.0131698 38.341C0.0212163 39.159 0.314912 39.4727 1.10849 39.4967C1.71197 39.5144 2.31545 39.5029 2.91893 39.4967C3.70949 39.4967 4.03738 39.1841 4.09471 38.4869C4.11281 38.2598 4.23753 38.1743 4.44473 38.1743C4.54531 38.1743 4.64589 38.1743 4.74647 38.1743C8.4277 38.1743 12.1093 38.1743 15.7912 38.1743C15.9038 38.1743 16.0165 38.1743 16.1301 38.1743C16.3494 38.1743 16.445 38.2889 16.448 38.513C16.4418 38.7731 16.4512 39.0335 16.4761 39.2924C16.5234 39.6415 16.6622 39.9114 17.0223 39.9989H21.2466C21.6067 39.9114 21.7496 39.6415 21.7928 39.2924C21.8137 39.0847 21.8224 38.876 21.8189 38.6672C21.828 38.2097 21.8572 38.1701 22.2897 38.1691C26.097 38.1691 29.9039 38.1674 33.7105 38.1639C34.0183 38.1639 34.1541 38.2681 34.1994 38.5984C34.2808 39.1976 34.5464 39.4477 35.1247 39.479C35.8523 39.5206 36.5816 39.5206 37.3093 39.479C37.952 39.4404 38.2346 39.1194 38.2507 38.4536C38.2668 37.7398 38.2658 37.0228 38.2507 36.308ZM34.0686 3.27512C34.3019 3.27512 34.3231 3.36683 34.3251 3.56795C34.3321 4.44639 34.4629 4.58185 35.3098 4.58914C35.5109 4.58914 35.5894 4.62666 35.5884 4.86007C35.5803 7.56939 35.5884 10.2787 35.5823 12.9818C35.5759 13.0411 35.5658 13.0999 35.5522 13.1579C33.5858 8.53954 30.3823 5.29566 25.9709 3.28034C28.6705 3.28138 31.37 3.2845 34.0686 3.27617V3.27512ZM17.8581 1.55575C17.8581 1.36505 17.9174 1.30982 18.0945 1.31607C18.4455 1.32753 18.7985 1.31607 19.1475 1.31607C19.4734 1.31607 19.8003 1.33275 20.1252 1.31607C20.3676 1.2994 20.4158 1.39318 20.4108 1.62869C20.3954 2.30393 20.3954 2.97919 20.4108 3.65443C20.4108 3.87743 20.3485 3.94099 20.1352 3.93682C19.4714 3.92432 18.8066 3.9264 18.1427 3.93682C17.9416 3.93682 17.8521 3.90556 17.8571 3.66589C17.8722 2.9573 17.8682 2.256 17.8581 1.55575ZM3.05069 4.58914C3.75475 4.60686 3.96396 4.39637 3.93882 3.66902C3.92675 3.33244 4.02532 3.27304 4.33008 3.27512C6.99444 3.28867 9.66082 3.28241 12.3222 3.28241C7.89664 5.28627 4.68914 8.52495 2.68457 13.0954V12.7744C2.68457 10.1693 2.69061 7.56419 2.67653 4.95908C2.67452 4.64229 2.76906 4.57768 3.05069 4.5881V4.58914ZM1.41325 2.60926C1.41325 1.96527 1.41324 1.96528 2.03483 1.96528C2.68458 1.96528 2.68457 1.96527 2.68457 2.62593C2.68457 3.28659 2.68458 3.28346 2.03684 3.28346C1.41325 3.28346 1.41325 3.28346 1.41325 2.64781V2.60926ZM2.07607 38.0388C1.41325 38.0388 1.41325 38.0388 1.41325 37.3605C1.41325 36.7206 1.41324 36.7206 2.03382 36.7206C2.68458 36.7206 2.68457 36.7206 2.68457 37.4126C2.68457 38.0368 2.68458 38.0368 2.07607 38.0368V38.0388ZM12.0556 36.7206C9.4677 36.7206 6.87877 36.7206 4.29085 36.7279C4.01626 36.7279 3.93178 36.6717 3.93882 36.3716C3.95893 35.589 3.77184 35.4129 3.01146 35.4066C2.8455 35.4066 2.67653 35.465 2.67754 35.1565C2.6886 32.4107 2.68457 29.6639 2.68457 26.9181C4.69618 31.476 7.90066 34.7189 12.3292 36.7206H12.0556ZM17.0233 34.8074C16.7397 34.871 16.6119 35.1326 16.6018 35.4327C16.5868 35.6797 16.5868 35.9275 16.6018 36.1746C16.629 36.4674 16.5264 36.5227 16.2629 36.4706C14.9282 36.2101 13.6237 35.8453 12.3876 35.2555C7.62106 32.9849 4.40349 29.2763 3.17641 23.9754C1.74415 17.7877 3.34639 12.3909 7.73973 7.94557C10.1094 5.54886 13.0011 4.14107 16.2599 3.53668C16.5154 3.48979 16.632 3.52105 16.6018 3.82533C16.5827 4.07224 16.5827 4.32035 16.6018 4.56727C16.629 5.00492 16.8573 5.2373 17.2768 5.23938C18.5079 5.24702 19.739 5.24702 20.9701 5.23938C21.4116 5.23938 21.6399 5.00596 21.6651 4.54642C21.6837 4.29948 21.6837 4.05142 21.6651 3.80448C21.6359 3.51375 21.7606 3.49186 21.9899 3.52938C23.8678 3.87951 25.6591 4.49327 27.3116 5.4853C31.6235 8.0727 34.3231 11.8866 35.3178 16.9572C36.572 23.3439 33.6794 30.3475 28.3335 33.8384C27.8709 32.5222 27.4172 31.2332 26.9626 29.9411C26.6146 28.9543 26.2827 27.9612 25.9126 26.9827C25.3443 25.4853 25.643 24.1556 26.5864 22.9396C27.0753 22.3081 27.0551 22.0747 26.4356 21.5651C22.985 18.7245 19.5341 15.8842 16.0829 13.0443C16.0075 12.9883 15.9439 12.917 15.8958 12.8348C15.8478 12.7526 15.8163 12.6612 15.8032 12.566C15.5448 10.9123 16.288 9.89942 17.9768 9.61077C19.1184 9.41591 20.2559 9.54199 21.3965 9.64516C22.4566 9.74102 23.5087 9.69726 24.5145 9.2919C25.6873 8.81881 26.3501 7.79657 26.3038 6.58988C26.2938 6.34292 26.2455 6.21578 25.98 6.32311C25.8739 6.36355 25.7634 6.39016 25.6511 6.40231C25.2799 6.45128 25.0033 6.51277 24.9802 7.04421C24.9581 7.5569 24.5437 7.86534 24.086 8.05291C23.1808 8.42387 22.2424 8.40721 21.301 8.31863C19.9602 8.19254 18.6215 8.07375 17.2938 8.43117C15.1485 9.00846 14.1316 10.6987 14.5993 12.9401C14.714 13.4913 14.5259 13.9936 14.4283 14.5032C13.6237 18.7082 12.8093 22.9111 11.9852 27.1119C11.8494 27.8091 12.0174 28.0581 12.7134 28.1696C13.5643 28.3051 14.3328 28.6198 14.9694 29.2356C15.3531 29.6137 15.6445 30.0809 15.8193 30.5986C16.2699 31.8769 16.7222 33.1558 17.1762 34.4354C17.2365 34.6188 17.3049 34.7418 17.0223 34.8054L17.0233 34.8074ZM17.6328 31.9575C17.4387 31.3822 17.2305 30.8112 17.0293 30.2381C16.457 28.5593 15.2893 27.5444 13.676 27.0567C13.3541 26.9588 13.3169 26.8587 13.3803 26.5357C14.0572 23.0969 14.715 19.6582 15.3788 16.2194C15.4029 16.0985 15.4401 15.9798 15.4713 15.861H15.5588L16.9297 19.7249C17.1581 20.3699 17.3773 21.0191 17.6177 21.66C17.7042 21.8913 17.6982 22.034 17.501 22.2247C17.1578 22.5542 16.923 22.987 16.8299 23.4621C16.7368 23.9371 16.79 24.4305 16.982 24.8726C17.3622 25.7677 18.2634 26.3523 19.1727 26.296C19.6465 26.2762 20.1026 26.1043 20.4779 25.8041C20.8533 25.5039 21.1293 25.0902 21.2678 24.6204C21.7133 23.1615 20.6995 21.6308 19.229 21.5672C18.9957 21.5578 18.8921 21.4932 18.8096 21.2546C18.1769 19.4237 17.5242 17.5991 16.8764 15.7734C16.8342 15.6536 16.7859 15.5369 16.7396 15.4171C16.9006 15.3233 16.9911 15.4671 17.0917 15.5494C19.7953 17.7724 22.4989 19.9955 25.2025 22.2185C25.3433 22.3342 25.3785 22.4061 25.2678 22.5811C24.2761 24.1442 24.0719 25.7979 24.7649 27.5506C24.955 28.03 25.1059 28.526 25.2829 29.0095C25.3433 29.1741 25.3634 29.2804 25.1562 29.3576C22.7423 30.2607 20.332 31.1728 17.9255 32.094C17.7625 32.1617 17.6911 32.1252 17.6328 31.9554V31.9575ZM18.0653 23.916C18.0644 23.7766 18.0902 23.6384 18.1414 23.5095C18.1926 23.3806 18.268 23.2635 18.3633 23.1652C18.4587 23.0668 18.5719 22.9891 18.6966 22.9366C18.8212 22.8841 18.9547 22.8578 19.0892 22.8593C19.3611 22.8602 19.6216 22.9728 19.8134 23.1725C20.0052 23.3722 20.1126 23.6426 20.1121 23.9243C20.1069 24.2055 19.9965 24.4737 19.8042 24.6721C19.6118 24.8706 19.3526 24.984 19.0812 24.9882C18.8091 24.9849 18.5493 24.87 18.3589 24.6686C18.1685 24.4672 18.0629 24.1958 18.0653 23.9139V23.916ZM20.1493 38.687C19.7983 38.6745 19.4453 38.687 19.0962 38.687C18.7704 38.687 18.4445 38.6776 18.1186 38.687C17.9325 38.6943 17.8541 38.6495 17.8571 38.4327C17.8705 37.7318 17.8705 37.0305 17.8571 36.3288C17.8571 36.1142 17.9305 36.0704 18.1176 36.0725C18.7948 36.0815 19.4717 36.0815 20.1483 36.0725C20.3354 36.0725 20.4128 36.1152 20.4088 36.3288C20.3967 37.0305 20.3967 37.7318 20.4088 38.4327C20.4138 38.6526 20.3354 38.6912 20.1493 38.6849V38.687ZM21.9417 36.4779C21.7244 36.5174 21.651 36.457 21.6651 36.2267C21.6832 35.9537 21.6832 35.6797 21.6651 35.4066C21.6339 34.9898 21.4025 34.7731 21.0022 34.7637C20.6381 34.7554 20.273 34.7637 19.9089 34.7637H19.6374C18.4998 34.7637 18.4877 34.7428 18.1991 33.5695C18.1347 33.309 18.3188 33.3465 18.4143 33.309C19.6575 32.8296 20.9047 32.3597 22.1519 31.8876C23.2814 31.4614 24.4139 31.0436 25.5374 30.6028C25.7617 30.5153 25.8391 30.5653 25.9105 30.7831C26.3129 31.9564 26.7212 33.1277 27.1457 34.2927C27.2231 34.5011 27.1748 34.5865 27.0008 34.6824C25.4166 35.5535 23.709 36.1588 21.9417 36.4758V36.4779ZM35.2937 35.415C34.4599 35.4066 34.3341 35.5463 34.3261 36.4476C34.3261 36.6706 34.2667 36.7259 34.0555 36.7259C31.3811 36.7175 28.7057 36.7259 26.0312 36.7196C25.9768 36.714 25.9228 36.7053 25.8693 36.6936C30.323 34.7032 33.5788 31.5115 35.525 26.9223C35.6316 26.9806 35.5844 27.0807 35.5844 27.1557C35.5844 29.7973 35.5843 32.4378 35.5904 35.0753C35.5884 35.3056 35.5652 35.416 35.2937 35.4129V35.415ZM36.211 38.0388C35.5833 38.0388 35.5833 38.0388 35.5833 37.3949V37.3553C35.5833 36.7207 35.5833 36.7206 36.215 36.7206C36.8466 36.7206 36.8547 36.7206 36.8547 37.3782C36.8547 38.0357 36.8547 38.0368 36.211 38.0368V38.0388ZM36.2421 3.28346C35.5833 3.28346 35.5833 3.28346 35.5833 2.59988C35.5833 1.96527 35.5833 1.96528 36.1868 1.96528C36.8577 1.96528 36.8577 1.96527 36.8577 2.67386C36.8547 3.28138 36.8547 3.28138 36.2421 3.28138V3.28346Z" fill="#45BDE8"/>
</g>
<defs>
<clipPath id="clip0_2716_1643">
<rect width="38.2617" height="40" fill="white"/>
</clipPath>
</defs>
</svg>
