<svg width="37" height="40" viewBox="0 0 37 40" fill="none" xmlns="http://www.w3.org/2000/svg">
<g clip-path="url(#clip0_2716_1701)">
<path d="M34.1059 29.888C32.8284 29.5629 31.4967 30.2683 31.0319 31.5375C30.9506 31.7595 30.8756 31.8637 30.6109 31.8627C26.6001 31.8522 22.5903 31.8522 18.5805 31.8616C18.2971 31.8627 18.2377 31.7741 18.2377 31.5084C18.2377 30.4163 17.9282 30.0318 16.8924 29.7827C11.9135 28.5875 8.65813 24.1223 9.05932 19.0403C9.40215 14.7012 12.5721 11.0061 16.8007 10.013C17.9678 9.74001 18.2533 9.39822 18.2356 8.21237C18.2314 7.89455 18.2991 7.80076 18.6336 7.8018C22.6049 7.81431 26.5761 7.81222 30.5474 7.80493C30.8089 7.80389 30.9402 7.85495 31.0392 8.13422C31.5071 9.44824 32.943 10.1443 34.2664 9.73272C35.5982 9.31798 36.3745 7.93935 36.0369 6.5899C35.7618 5.48846 34.7937 4.6642 33.7048 4.60585C32.4689 4.53916 31.4404 5.19981 31.0236 6.33356C30.9611 6.5055 30.9288 6.64305 30.6755 6.64201C26.6261 6.63158 22.5767 6.63158 18.5274 6.64096C18.2595 6.642 18.2377 6.53155 18.2397 6.31793C18.2491 5.47179 18.2554 4.62565 18.2377 3.7795C18.2314 3.50649 18.3064 3.43146 18.5805 3.43354C20.2342 3.44709 21.888 3.44396 23.5417 3.43667C23.7584 3.43563 23.872 3.47106 23.9575 3.71385C24.3878 4.94034 25.6143 5.66144 26.8491 5.4499C28.1184 5.23316 29.0624 4.1265 29.0635 2.85417C29.0635 1.57974 28.1267 0.478299 26.8523 0.255301C25.6206 0.0395978 24.3857 0.76382 23.9585 1.98718C23.8751 2.22373 23.772 2.27166 23.549 2.27062C21.9734 2.26228 20.3978 2.26541 18.8223 2.26541C18.2439 2.26541 18.2158 2.26437 18.2502 1.70166C18.3012 0.872193 17.9844 0.298025 17.1977 0H16.5735C16.5131 0.021883 16.4558 0.0562705 16.3932 0.0646069C14.8562 0.282395 13.3723 0.701297 11.9291 1.26713C10.8287 1.69958 10.4025 2.78226 10.9079 3.85453C11.2226 4.52352 11.5561 5.18418 11.876 5.85109C12.099 6.31793 12.0208 6.60553 11.5779 6.87126C10.3535 7.60486 9.25001 8.48643 8.26632 9.52014C7.90994 9.89528 7.62025 9.90882 7.21072 9.58787C6.62614 9.13145 6.05093 8.66358 5.46321 8.21133C4.53892 7.49961 3.39475 7.6778 2.74243 8.63336C1.57742 10.3402 0.698976 12.1857 0.0956307 14.1614C-0.247203 15.2879 0.351974 16.3059 1.49614 16.5644C2.20473 16.7248 2.91541 16.8812 3.624 17.0437C4.15544 17.1656 4.31384 17.398 4.24923 17.9347C4.07833 19.3498 4.06583 20.7638 4.28049 22.1768C4.35031 22.6364 4.15961 22.9156 3.68965 23.0282C2.9821 23.197 2.27247 23.3564 1.56387 23.5159C0.369689 23.7847 -0.218025 24.7997 0.142523 25.9657C0.744826 27.9154 1.62848 29.7285 2.77682 31.4146C3.45415 32.4097 4.60665 32.5921 5.55179 31.8491C6.11449 31.4073 6.66886 30.954 7.22844 30.509C7.70987 30.1266 7.93912 30.1391 8.37782 30.5528C8.60498 30.7675 8.83215 30.9832 9.0739 31.1801C9.35838 31.4115 9.69809 31.3896 9.91379 31.152C10.1493 30.8915 10.1212 30.5611 9.83356 30.2892C9.61681 30.0828 9.38756 29.8901 9.17186 29.6827C8.35802 28.8991 7.4306 28.847 6.54486 29.5472C5.9634 30.0068 5.39131 30.4788 4.80672 30.9363C4.42325 31.2364 4.04499 31.1791 3.77093 30.78C2.67365 29.1856 1.83793 27.4631 1.26481 25.6145C1.10537 25.1029 1.28461 24.8038 1.8223 24.6725C2.56737 24.4912 3.31556 24.3276 4.05853 24.1421C5.0266 23.8993 5.60076 23.0313 5.45071 22.0518C5.24438 20.7034 5.25376 19.355 5.42883 18.0055C5.55596 17.025 5.01201 16.184 4.05541 15.9433C3.30097 15.7526 2.5361 15.6015 1.77854 15.4192C1.24084 15.29 1.08036 14.9919 1.23876 14.4657C1.79 12.6369 2.61009 10.9363 3.6761 9.35341C3.99184 8.88449 4.34197 8.8303 4.79109 9.17939C5.36526 9.62643 5.93318 10.0839 6.50734 10.532C7.3712 11.2041 8.34135 11.1447 9.09579 10.3548C10.019 9.38988 11.0486 8.56354 12.1928 7.87475C13.1462 7.30058 13.4192 6.35753 12.942 5.35716C12.6356 4.71213 12.3188 4.07232 12.0104 3.42938C11.7436 2.87188 11.8687 2.56031 12.4428 2.33523C13.7777 1.80899 15.1511 1.4349 16.5714 1.22857C17.0602 1.15771 17.0643 1.15355 17.0643 1.62559C17.0654 3.86495 17.057 6.10431 17.0727 8.34367C17.0747 8.674 16.958 8.77195 16.6506 8.8501C12.4387 9.91091 9.58659 12.5098 8.33926 16.6519C7.09818 20.7732 8.06208 24.4996 10.9538 27.683C12.4897 29.3722 14.43 30.4215 16.6548 30.9373C16.8976 30.9936 17.0747 31.0394 17.0727 31.3698C17.0581 33.7394 17.0622 36.109 17.0674 38.4786C17.0685 38.7506 16.9872 38.8485 16.6986 38.8037C15.2689 38.5807 13.8757 38.2254 12.5283 37.6971C11.9687 37.4772 11.8437 37.1771 12.0927 36.6311C12.4585 35.8276 12.8378 35.0305 13.2004 34.2271C13.512 33.5341 13.3484 32.789 12.7773 32.3701C12.3803 32.0784 11.9604 31.8147 11.5415 31.5542C11.2278 31.3604 10.8985 31.4281 10.7172 31.697C10.5286 31.9773 10.6047 32.3222 10.9173 32.5421C11.1945 32.7369 11.481 32.9162 11.7634 33.1017C12.2657 33.4341 12.2688 33.4403 12.025 33.9676C11.6707 34.7335 11.3039 35.4932 10.9642 36.2643C10.5192 37.2698 10.9517 38.3286 11.9677 38.7423C12.5804 38.9913 13.2108 39.1914 13.8444 39.3842C14.7395 39.6572 15.6649 39.7906 16.5735 40H17.1977C18.0074 39.6978 18.32 39.0986 18.246 38.2619C18.2314 38.0941 18.2637 37.9211 18.2397 37.7554C18.197 37.448 18.3294 37.3938 18.6107 37.3959C20.2259 37.4084 21.84 37.4116 23.4541 37.3938C23.7657 37.3897 23.8897 37.4824 24.0002 37.7742C24.4785 39.0392 25.8561 39.7082 27.1461 39.3352C28.4487 38.958 29.2458 37.6825 29.0103 36.3508C28.804 35.1878 27.861 34.3094 26.7022 34.2021C25.4736 34.0885 24.4035 34.7502 23.97 35.9006C23.8991 36.0892 23.8605 36.2351 23.5875 36.232C21.9078 36.2153 20.228 36.2195 18.5482 36.2288C18.3096 36.2299 18.2356 36.1621 18.2387 35.9214C18.2523 35.0753 18.2595 34.2281 18.2356 33.383C18.2272 33.0735 18.3335 33.0256 18.6118 33.0266C22.6091 33.035 26.6063 33.035 30.6036 33.0256C30.8568 33.0256 30.9496 33.1079 31.0319 33.3382C31.4008 34.3688 32.3709 35.0544 33.4432 35.0711C34.7531 35.092 35.9097 34.1156 36.0942 32.8328C36.288 31.4761 35.446 30.2287 34.1059 29.888ZM33.4849 5.77606C34.3029 5.77294 34.9427 6.41588 34.9385 7.23389C34.9333 8.02689 34.2914 8.66879 33.4984 8.67191C32.6909 8.67504 32.0354 8.01646 32.0417 7.20784C32.0479 6.41275 32.6867 5.77815 33.4849 5.77606ZM26.4344 1.40364C27.2222 1.40676 27.8756 2.05075 27.886 2.83749C27.8974 3.63362 27.2295 4.30157 26.425 4.29948C25.6279 4.2974 24.9912 3.66488 24.9849 2.86667C24.9776 2.05075 25.6216 1.40155 26.4344 1.40364ZM26.3917 35.365C27.2066 35.3462 27.8714 35.9808 27.886 36.7905C27.8995 37.5804 27.2232 38.266 26.4282 38.265C25.6404 38.265 24.9933 37.62 24.9849 36.827C24.9755 36.0246 25.5935 35.3827 26.3917 35.365ZM33.488 33.8957C32.6877 33.8936 32.0312 33.2215 32.0417 32.417C32.0521 31.6063 32.7117 30.979 33.5339 30.9978C34.33 31.0144 34.9469 31.6584 34.9385 32.4639C34.9292 33.2507 34.2727 33.8988 33.488 33.8957Z" fill="#A62D82"/>
<path d="M23.5458 26.3919C21.8139 26.3919 20.0831 26.395 18.3512 26.3908C15.1188 26.3846 12.5533 24.2765 11.9249 21.1181C11.2236 17.5918 13.8767 14.0061 17.4686 13.6685C19.1557 13.5101 20.8511 13.631 22.5423 13.6143C22.9091 13.6101 23.1405 13.8696 23.1405 14.201C23.1405 14.548 22.9029 14.7793 22.5017 14.7814C21.0699 14.7887 19.6371 14.7793 18.2053 14.7866C15.7846 14.8002 13.6516 16.4977 13.1389 18.811C12.4084 22.1049 14.803 25.1716 18.1907 25.206C21.7577 25.2425 25.3256 25.2331 28.8926 25.2081C31.5769 25.1894 33.81 23.1584 34.0663 20.5679C34.3362 17.8429 32.571 15.4494 29.869 14.8856C29.5251 14.8137 29.1739 14.7845 28.8217 14.7845C27.5723 14.7856 26.3218 14.7866 25.0724 14.7835C24.5931 14.7824 24.3117 14.5511 24.3232 14.1843C24.3336 13.829 24.6087 13.6028 25.063 13.6091C26.5594 13.6299 28.061 13.5132 29.5511 13.6602C32.843 13.9863 35.3011 16.7686 35.2626 20.0708C35.2219 23.5773 32.4063 26.3606 28.8592 26.3877C27.0877 26.4033 25.3162 26.3919 23.5458 26.3919Z" fill="#A62D82"/>
<path d="M25.0497 21.9727C24.6496 21.5121 24.2432 21.0567 23.8149 20.5711C23.9024 20.5284 23.9472 20.5034 23.9941 20.4836C24.9538 20.0886 25.4259 19.2779 25.2498 18.3276C25.083 17.4314 24.2702 16.7979 23.2699 16.7874C22.8531 16.7843 22.4373 16.7822 22.0215 16.7885C21.5693 16.7947 21.3536 17.0021 21.3515 17.4616C21.3452 19.0997 21.3463 20.7378 21.3515 22.3759C21.3525 22.8011 21.5839 23.0522 21.9402 23.0533C22.3008 23.0543 22.5186 22.8094 22.5238 22.3801C22.53 21.9185 22.5259 21.4568 22.5259 20.89C23.1157 21.56 23.6346 22.1519 24.1567 22.7417C24.4682 23.0939 24.8267 23.1543 25.0987 22.9032C25.3665 22.6573 25.3529 22.3217 25.0497 21.9727ZM22.7947 19.4426C22.5873 19.4634 22.5123 19.3863 22.53 19.181C22.5436 19.0268 22.5321 18.8694 22.5321 18.7142C22.5279 17.9066 22.5279 17.9066 23.348 17.9649C23.768 17.9952 24.0868 18.288 24.1066 18.661C24.1254 19.0237 23.867 19.3373 23.4533 19.4103C23.2386 19.4478 23.0135 19.4207 22.7947 19.4426Z" fill="#A62D82"/>
<path d="M29.443 16.7874C29.0397 16.7842 28.6364 16.7853 28.2321 16.7874C27.6788 16.7905 27.4954 16.9749 27.4944 17.5418C27.4912 18.3359 27.4933 19.1289 27.4933 19.9229C27.4933 20.7565 27.4881 21.5891 27.4964 22.4228C27.4996 22.8094 27.7101 23.0355 28.0435 23.0522C28.3916 23.0688 28.6437 22.8354 28.6656 22.4478C28.6812 22.1633 28.6698 21.8757 28.6698 21.5891C28.6698 20.8586 28.6698 20.8586 29.4138 20.8451C29.4534 20.8441 29.492 20.8441 29.5316 20.842C30.6913 20.7784 31.5771 19.8802 31.5583 18.7839C31.5396 17.6575 30.6299 16.7968 29.443 16.7874ZM29.7066 19.6259C29.4242 19.7009 29.1366 19.653 28.8521 19.6686C28.7135 19.677 28.6719 19.6103 28.6739 19.4831C28.6781 19.2622 28.675 19.0413 28.675 18.8204C28.6739 18.8204 28.6739 18.8204 28.6729 18.8204V18.7808C28.6708 17.8836 28.6708 17.8836 29.5722 17.967C29.9953 18.0055 30.3308 18.3286 30.3735 18.7391C30.4142 19.133 30.1255 19.5144 29.7066 19.6259Z" fill="#A62D82"/>
<path d="M16.0182 19.9249C16.0182 19.1183 16.0151 18.3118 16.0192 17.5052C16.0224 17.0061 16.2287 16.8039 16.7351 16.7998C17.3593 16.7956 17.9835 16.7956 18.6077 16.7998C19.0578 16.8029 19.3173 17.03 19.3121 17.3989C19.3069 17.7678 19.0537 17.97 18.5879 17.9731C18.2107 17.9752 17.8334 17.9835 17.4562 17.97C17.2603 17.9627 17.1738 18.0075 17.1874 18.2242C17.2061 18.5087 17.2072 18.7974 17.1874 19.0818C17.1717 19.3038 17.2666 19.3392 17.4562 19.334C17.8074 19.3226 18.1586 19.3215 18.5097 19.333C18.9182 19.3465 19.1506 19.5633 19.1548 19.9113C19.1589 20.2594 18.9307 20.4886 18.5254 20.5063C18.1617 20.523 17.797 20.5199 17.4333 20.5084C17.2509 20.5021 17.1947 20.549 17.1863 20.7439C17.1363 21.8651 17.1301 21.8641 18.2263 21.8651C18.4086 21.8651 18.592 21.8547 18.7723 21.8724C19.1037 21.9037 19.2944 22.0975 19.309 22.4299C19.3236 22.7676 19.1287 23.0083 18.813 23.0229C18.0471 23.0562 17.278 23.0593 16.5121 23.0208C16.1745 23.0041 16.0057 22.7342 16.0171 22.3841C16.0171 22.3716 16.0171 22.358 16.0171 22.3455C16.0182 21.5379 16.0182 20.7314 16.0182 19.9249Z" fill="#A62D82"/>
</g>
<defs>
<clipPath id="clip0_2716_1701">
<rect width="36.1225" height="40" fill="white"/>
</clipPath>
</defs>
</svg>
