<svg width="40" height="40" viewBox="0 0 40 40" fill="none" xmlns="http://www.w3.org/2000/svg">
<g clip-path="url(#clip0_2716_1650)">
<path d="M39.5345 16.4968C39.7459 16.1519 39.9335 15.8008 39.9981 15.3955V4.69464C39.9314 4.44772 39.9366 4.19038 39.8189 3.94971C39.3886 3.0683 38.203 2.27232 36.9694 2.68594C36.6944 2.77762 36.5527 2.71407 36.4037 2.46506C35.7942 1.44613 34.7534 1.0398 33.5938 1.35965C33.3677 1.42217 33.226 1.39404 33.1166 1.17837C32.7613 0.477202 32.1914 0.0833798 31.4059 0.00732422H30.6245C30.1171 0.0500403 29.6535 0.217779 29.3159 0.60535C29.0888 0.866856 28.895 0.884568 28.5772 0.758503C27.5802 0.361556 26.3623 0.642857 25.7319 1.58157C25.5569 1.84203 25.3569 1.9358 25.0547 1.93476C23.2325 1.92642 21.4103 1.9233 19.5891 1.93476C19.1422 1.93788 18.7442 1.82745 18.3671 1.59824C17.7451 1.219 17.1147 0.853312 16.4959 0.468867C16.1281 0.2407 15.7489 0.0594171 15.3155 0.00732422H4.69268C4.44576 0.074003 4.18843 0.0687938 3.94776 0.186524C3.06635 0.61681 2.27037 1.80244 2.68398 3.036C2.77567 3.31105 2.71211 3.45274 2.46311 3.60173C1.44418 4.21122 1.03785 5.25203 1.3577 6.41162C1.42021 6.6377 1.39208 6.77939 1.17642 6.88879C0.475248 7.24406 0.0814266 7.81396 0.00537109 8.59952V9.38091C0.0480872 9.88829 0.215826 10.3509 0.603397 10.6895C0.862819 10.9156 0.893033 11.1114 0.755508 11.4282C0.332514 12.3992 0.68362 13.6369 1.5494 14.2526C1.82341 14.4485 1.93489 14.6694 1.93281 15.0017C1.92343 16.8479 1.92655 18.6951 1.93072 20.5423C1.93176 20.907 1.82862 21.232 1.64109 21.5383C1.25352 22.1707 0.883656 22.8136 0.491918 23.4439C0.264793 23.8085 0.0564221 24.1763 0.00537109 24.6129V35.3919C0.0720499 35.6128 0.0793429 35.8441 0.18457 36.0587C0.619025 36.9453 1.80362 37.733 3.03509 37.3235C3.27993 37.2422 3.431 37.2631 3.58102 37.509C4.23218 38.5821 5.19486 38.9551 6.44821 38.6362C6.64408 38.5873 6.77431 38.6123 6.866 38.7967C7.20981 39.4822 7.7547 39.8938 8.51942 40H9.37895C9.84883 39.9396 10.325 39.8448 10.6302 39.4604C10.9094 39.1082 11.1564 39.1624 11.5335 39.2874C12.5202 39.6135 13.5766 39.3687 14.2225 38.4904C14.4518 38.1789 14.7008 38.0695 15.0727 38.0716C16.8553 38.0851 18.6379 38.0872 20.4195 38.0716C20.8696 38.0674 21.2613 38.1789 21.6374 38.4102C22.2584 38.7904 22.8866 39.1582 23.5086 39.5374C23.8545 39.7479 24.2056 39.9365 24.6099 40H35.3108C35.5577 39.9344 35.815 39.9396 36.0557 39.8219C36.9371 39.3905 37.7331 38.2049 37.3195 36.9724C37.2278 36.6973 37.2913 36.5557 37.5403 36.4067C38.5593 35.7972 38.9656 34.7564 38.6457 33.5968C38.5832 33.3697 38.6114 33.229 38.827 33.1196C39.5282 32.7643 39.922 32.1944 39.9981 31.4078V30.6275C39.9564 30.0889 39.7532 29.6179 39.3459 29.2627C39.1302 29.0741 39.1104 28.9095 39.2198 28.6532C39.6678 27.6009 39.3573 26.4319 38.4426 25.7631C38.1686 25.563 38.0675 25.3432 38.0696 25.0119C38.0811 23.2032 38.0842 21.3956 38.0686 19.5869C38.0644 19.1369 38.1759 18.7451 38.4072 18.369C38.7885 17.7481 39.1552 17.1188 39.5345 16.4968ZM1.35249 9.16004C1.26914 8.75267 1.51919 8.29008 1.92135 8.10463C2.12763 8.00983 2.34851 8.00045 2.57042 8.00045C3.83315 8.00149 5.09484 8.00149 6.35757 8.00045C6.4878 8.00045 6.61908 8.00462 6.74722 7.98899C7.08479 7.94731 7.33483 7.69206 7.33483 7.367C7.33379 7.03361 7.17439 6.79294 6.83891 6.7075C6.70347 6.67312 6.55657 6.66896 6.41487 6.66791C5.58139 6.66479 4.74894 6.66791 3.91546 6.66687C3.13823 6.66479 2.67565 6.30014 2.6694 5.68857C2.66419 5.07804 3.1622 4.68214 3.94046 4.68109C5.18965 4.67901 6.43884 4.68005 7.68906 4.68005C7.7797 4.68005 7.87139 4.68422 7.96203 4.67901C8.38815 4.65088 8.67466 4.37375 8.67049 3.99868C8.66528 3.6184 8.38398 3.35377 7.94536 3.3496C7.03478 3.34231 6.12315 3.34648 5.21257 3.34752C5.00212 3.34856 4.79479 3.33397 4.601 3.25062C4.21551 3.08497 3.95192 2.6328 4.00714 2.24315C4.07174 1.77952 4.47181 1.39612 4.95627 1.34611C5.12401 1.32944 5.29488 1.33882 5.46366 1.33882C8.53505 1.33882 11.6075 1.34194 14.6789 1.33257C15.006 1.33257 15.2842 1.41071 15.5592 1.57949C16.3 2.03582 17.0564 2.46715 17.794 2.92869C18.2629 3.22145 18.7588 3.35273 19.3078 3.3496C21.1957 3.34231 23.0825 3.35377 24.9703 3.34022C25.2558 3.33814 25.3381 3.39961 25.335 3.69862C25.3194 5.42915 25.3277 7.16071 25.3277 8.89124V9.25589C24.9516 8.94958 24.6338 8.69016 24.3161 8.43074C23.518 7.78166 22.5282 7.68685 21.7031 8.17965C20.879 8.6714 20.5435 9.51843 20.7571 10.5697C20.7623 10.5926 20.7498 10.6197 20.7404 10.6749C20.084 10.6749 19.4225 10.6895 18.7619 10.6707C18.0535 10.652 17.4877 10.9051 16.9866 11.4063C14.9164 13.4785 12.8306 15.5341 10.7511 17.5959C10.5844 17.7616 10.4239 17.9346 10.176 17.9741C9.80716 18.0314 9.49877 17.9231 9.30498 17.5959C9.1039 17.2573 9.1487 16.9208 9.39458 16.6176C9.97594 15.8998 10.5635 15.1872 11.148 14.4725C11.3356 14.2422 11.4012 13.9932 11.2626 13.7129C11.123 13.4327 10.8855 13.3358 10.5885 13.3452C10.4979 13.3473 10.4073 13.3452 10.3156 13.3452C7.99849 13.3452 5.68245 13.3452 3.36536 13.3441C3.20908 13.3441 3.05176 13.3441 2.89861 13.3181C2.34434 13.2233 1.9849 12.7826 2.01928 12.2564C2.05262 11.7345 2.4704 11.3448 3.04342 11.3396C4.24156 11.3302 5.43865 11.3417 6.63575 11.3333C7.05145 11.3302 7.34942 11.0291 7.339 10.6572C7.32962 10.2967 7.04311 10.0269 6.64512 10.0071C6.52843 10.0019 6.41071 10.006 6.29298 10.006C4.9917 10.005 3.69042 10.0112 2.38914 10.0008C1.86925 9.99665 1.44938 9.63825 1.35249 9.16004ZM27.998 21.4664C28.0001 21.6738 27.9542 21.829 27.7979 21.9832C25.8705 23.8846 23.9483 25.7922 22.0302 27.703C21.8218 27.9103 21.5926 28.0031 21.3009 28.001C20.3632 27.9916 19.4266 27.9916 18.4889 28.002C18.2868 28.0041 18.1524 27.9301 18.0159 27.7916C16.1218 25.8756 14.2257 23.9607 12.3222 22.053C12.1045 21.8342 12.0013 21.6008 12.0044 21.2935C12.0149 20.3558 12.0128 19.4182 12.0055 18.4815C12.0034 18.2971 12.0607 18.1679 12.192 18.0377C14.1277 16.1259 16.0604 14.211 17.9878 12.2908C18.1879 12.0929 18.4056 12.0033 18.6827 12.0085C19.1516 12.0178 19.6204 12.0106 20.3112 12.0106C21.353 11.6667 22.1646 12.3127 22.9762 13.1868C24.4817 14.8079 26.0747 16.3478 27.6406 17.9106C27.8896 18.1586 28.0063 18.4201 28.0001 18.7722C27.9844 19.6703 27.9907 20.5684 27.998 21.4664ZM13.3797 29.1085C13.3349 29.2533 13.3443 29.4179 13.3443 29.5731C13.3422 31.9163 13.3432 34.2594 13.3422 36.6025C13.3422 36.7328 13.3474 36.864 13.3338 36.9922C13.2724 37.5923 12.8369 38.0049 12.2899 37.9882C11.7346 37.9715 11.3408 37.5413 11.3366 36.9193C11.3293 35.8524 11.3345 34.7845 11.3345 33.7176C11.3345 33.6135 11.3366 33.5093 11.3335 33.4051C11.321 32.9592 11.0376 32.6549 10.6511 32.6674C10.277 32.6789 10.0082 32.9738 10.0062 33.403C10.0009 34.7439 10.0041 36.0847 10.0041 37.4256C10.003 37.6079 10.0051 37.7871 9.93843 37.9642C9.77278 38.4018 9.34666 38.6998 8.91845 38.6654C8.45483 38.6269 8.07142 38.2778 8.02662 37.7809C7.98495 37.3162 8.00162 36.8453 7.99954 36.3775C7.99641 35.4002 8.00266 34.424 7.99745 33.4478C7.99433 32.9581 7.72449 32.656 7.32233 32.6664C6.9358 32.6768 6.67117 32.9748 6.667 33.4384C6.65867 34.35 6.667 35.2617 6.66388 36.1723C6.66075 36.8797 6.27422 37.3329 5.68141 37.335C5.10526 37.3371 4.68227 36.8578 4.68018 36.1775C4.67497 34.8887 4.6781 33.5999 4.6781 32.3111C4.6781 32.2069 4.68435 32.1017 4.67393 31.9986C4.63434 31.5995 4.352 31.3276 3.99047 31.336C3.62166 31.3443 3.3539 31.6152 3.34973 32.0267C3.33931 32.9508 3.34452 33.875 3.34556 34.8001C3.34556 35.0773 3.31743 35.345 3.14761 35.5784C2.91423 35.9014 2.51416 36.0629 2.15889 35.9764C1.72964 35.8732 1.40563 35.5201 1.34728 35.0793C1.32957 34.9512 1.33686 34.8199 1.33686 34.6897C1.33582 31.5652 1.33999 28.4406 1.33165 25.3171C1.33061 24.99 1.40979 24.7097 1.57857 24.4357C2.03595 23.695 2.46936 22.9396 2.93195 22.203C3.22575 21.7342 3.35077 21.2362 3.34765 20.6871C3.34035 18.8128 3.34973 16.9385 3.33931 15.0642C3.33723 14.7819 3.37786 14.6662 3.70709 14.6694C5.52929 14.6881 7.3515 14.6787 9.25393 14.6787C8.94346 15.059 8.68299 15.3789 8.42149 15.6977C7.74011 16.5291 7.63593 17.4688 8.13498 18.2961C8.62673 19.1108 9.4946 19.4619 10.5302 19.266C10.5667 19.2598 10.6042 19.2608 10.6729 19.2556C10.6729 19.9141 10.6886 20.5632 10.6688 21.2112C10.6459 21.9332 10.8959 22.5125 11.4095 23.024C13.4828 25.0931 15.5374 27.18 17.6002 29.2595C17.7555 29.4158 17.9243 29.5669 17.968 29.7971C18.0368 30.1618 17.9441 30.4775 17.6221 30.6817C17.2919 30.8921 16.9501 30.8734 16.6428 30.6264C15.9135 30.0388 15.1967 29.4346 14.4643 28.8511C14.0527 28.5229 13.5172 28.6542 13.3797 29.1085ZM38.6614 31.0922C38.6145 31.562 38.2676 31.9194 37.7716 31.984C37.5664 32.0111 37.357 32.0059 37.1486 32.0059C35.9255 32.008 34.7013 32.0048 33.4781 32.008C32.9697 32.01 32.677 32.2476 32.6644 32.6508C32.6519 33.0623 32.9687 33.3374 33.4813 33.3405C34.3793 33.3457 35.2774 33.3384 36.1755 33.3426C36.8798 33.3457 37.3351 33.7374 37.333 34.3292C37.332 34.9043 36.8517 35.3242 36.1703 35.3263C34.869 35.3315 33.5667 35.3273 32.2654 35.3284C32.1487 35.3284 32.03 35.3221 31.9154 35.3419C31.5632 35.4013 31.3236 35.6857 31.333 36.0181C31.3434 36.3733 31.6028 36.6484 31.9883 36.6536C32.8864 36.6671 33.7844 36.6598 34.6825 36.6609C35.5129 36.6619 35.9984 37.0287 36.0015 37.6569C36.0046 38.2685 35.4848 38.6696 34.6867 38.6696C31.5497 38.6696 28.4137 38.6675 25.2766 38.6738C24.9933 38.6738 24.7474 38.6112 24.5046 38.4612C23.7305 37.9851 22.9429 37.5319 22.1688 37.0547C21.7229 36.7797 21.2478 36.6567 20.7269 36.6588C18.813 36.6651 16.9001 36.6588 14.9862 36.6651C14.7716 36.6661 14.6674 36.6463 14.6695 36.3806C14.682 34.5324 14.6758 32.6841 14.6758 30.7504C15.0446 31.0515 15.354 31.3026 15.6624 31.5547C16.4834 32.2267 17.4648 32.3278 18.3035 31.8246C19.1318 31.3276 19.4693 30.4639 19.2391 29.3335H19.7694C20.2643 29.3335 20.7592 29.321 21.253 29.3366C21.9448 29.3564 22.5063 29.1105 22.9971 28.6198C25.0776 26.5413 27.1718 24.4753 29.2607 22.4052C29.4274 22.2395 29.5899 22.0676 29.8389 22.0332C30.2088 21.9811 30.513 22.0926 30.7047 22.4218C30.9027 22.7646 30.8495 23.099 30.6047 23.4001C30.0233 24.1169 29.4347 24.8296 28.8502 25.5453C28.6731 25.762 28.6095 26.0006 28.7314 26.2694C28.8606 26.5528 29.0888 26.6664 29.3889 26.6632C29.493 26.6611 29.5972 26.6632 29.7014 26.6632H36.612C36.7548 26.6632 36.8996 26.6591 37.0402 26.6768C37.6195 26.7518 38.0071 27.1862 37.9852 27.7249C37.9623 28.2687 37.5435 28.6636 36.9465 28.6688C35.8536 28.6782 34.7607 28.6719 33.6667 28.6719C33.5625 28.6719 33.4583 28.6678 33.3542 28.673C32.9562 28.6917 32.6717 28.9626 32.6644 29.3241C32.6572 29.695 32.9541 29.9961 33.3698 29.9993C34.7232 30.0065 36.0765 30.0013 37.4309 30.0034C37.5987 30.0034 37.7654 29.9982 37.931 30.0566C38.3884 30.2149 38.7041 30.6556 38.6614 31.0922ZM37.0402 17.8554C36.7735 18.2909 36.6548 18.7545 36.6558 19.2619C36.6621 21.1497 36.6464 23.0376 36.6683 24.9244C36.6735 25.2849 36.5641 25.3411 36.238 25.338C34.5596 25.3213 32.8801 25.3297 31.2006 25.3297H30.7464C31.0673 24.9379 31.3309 24.617 31.5924 24.294C32.2362 23.4991 32.3352 22.5708 31.8664 21.7561C31.4121 20.9684 30.5536 20.584 29.5597 20.7569C29.3305 20.7965 29.3284 20.708 29.3295 20.5423C29.3336 19.9307 29.3222 19.3181 29.3336 18.7066C29.3451 18.0439 29.1096 17.5022 28.6408 17.0323C26.554 14.9403 24.4786 12.8367 22.399 10.7384C22.2438 10.5811 22.0761 10.4301 22.0344 10.1998C21.9667 9.83203 22.0656 9.51948 22.3917 9.32152C22.7241 9.1194 23.069 9.14024 23.3742 9.38403C23.9941 9.87996 24.6046 10.3873 25.2183 10.8895C25.3194 10.9718 25.4215 11.052 25.5215 11.1354C25.7486 11.325 25.9934 11.4021 26.2779 11.2677C26.5592 11.1333 26.6665 10.902 26.6602 10.603C26.6581 10.4988 26.6602 10.3946 26.6602 10.2904C26.6602 7.9869 26.6602 5.68336 26.6613 3.37877C26.6613 3.24958 26.6561 3.11831 26.6706 2.98912C26.7373 2.39422 27.1853 1.99206 27.7375 2.02123C28.2751 2.04936 28.6616 2.4734 28.6668 3.07247C28.6752 4.06223 28.6689 5.05095 28.6689 6.04072C28.6689 6.23554 28.6648 6.43141 28.671 6.62624C28.6835 7.04611 28.9648 7.34408 29.3368 7.342C29.7066 7.33991 29.9952 7.0409 29.9973 6.61999C30.0035 5.26662 29.9994 3.9122 29.9994 2.55883C29.9994 2.37651 30.0015 2.19731 30.0713 2.02123C30.2421 1.58782 30.6828 1.2961 31.1058 1.34507C31.559 1.39716 31.906 1.73681 31.9789 2.21085C32.0008 2.3515 32.0029 2.49528 32.0039 2.63801C32.005 3.93929 32.0018 5.24161 32.006 6.54289C32.0081 7.04194 32.2623 7.33991 32.6644 7.34095C33.0656 7.342 33.3333 7.03673 33.3364 6.54602C33.3437 5.63543 33.3354 4.72381 33.3406 3.81323C33.3437 3.13185 33.7261 2.68698 34.3054 2.67344C34.8826 2.65989 35.3201 3.14019 35.3233 3.81427C35.3295 5.11555 35.3254 6.41787 35.3254 7.71915C35.3254 7.82333 35.3191 7.92856 35.3306 8.0317C35.3764 8.4224 35.6765 8.69328 36.0338 8.6714C36.3891 8.65057 36.6475 8.38906 36.6527 7.99732C36.6652 7.13883 36.6579 6.2793 36.6589 5.41977C36.6589 5.28954 36.6527 5.15931 36.661 5.03012C36.7016 4.42375 37.1298 3.99347 37.6747 4.00597C38.204 4.01847 38.652 4.4821 38.6624 5.06658C38.676 5.88652 38.6666 6.70646 38.6666 7.5264C38.6676 9.93518 38.6645 12.3429 38.6708 14.7506C38.6718 15.0215 38.6093 15.2559 38.4676 15.4862C37.9863 16.2728 37.5226 17.0698 37.0402 17.8554Z" fill="#FDC688"/>
<path d="M4.6915 0.00738156C4.20912 0.154283 3.73925 0.323064 3.37981 0.7023C2.7026 1.41701 2.48589 2.23904 2.83179 3.17358C2.91201 3.39029 2.92972 3.48197 2.67864 3.59866C1.54822 4.12376 1.07001 5.32919 1.48884 6.5044C1.52738 6.61379 1.70137 6.75132 1.46175 6.84717C0.658476 7.16806 0.240691 7.80776 0.0052317 8.59957C0.0052317 5.83553 0.00835727 3.07044 2.24151e-05 0.305353C-0.00101944 0.0761441 0.0333618 -0.00303701 0.291742 8.85612e-05C1.75868 0.0157164 3.22457 0.00738156 4.6915 0.00738156Z" fill="#FEFEFE"/>
<path d="M39.9969 4.69462C39.8708 4.37477 39.7958 4.03617 39.5989 3.74236C38.9728 2.8099 37.858 2.44108 36.7922 2.84949C36.589 2.92763 36.5202 2.91617 36.4233 2.71301C35.8587 1.53363 34.6907 1.06583 33.4603 1.50966C33.3426 1.55238 33.2332 1.65761 33.153 1.45861C32.8341 0.659509 32.1944 0.242766 31.4058 0.00730689C34.1708 0.00730689 36.9349 0.0104325 39.7 0.00209761C39.9292 0.00105575 40.0084 0.035437 40.0052 0.293817C39.9886 1.76075 39.9969 3.22769 39.9969 4.69462Z" fill="#FEFEFE"/>
</g>
<defs>
<clipPath id="clip0_2716_1650">
<rect width="40.0052" height="40" fill="white"/>
</clipPath>
</defs>
</svg>
