<svg width="34" height="32" viewBox="0 0 34 32" fill="none" xmlns="http://www.w3.org/2000/svg">
<path d="M32.7492 14.6451L26.0814 20.3986L28.1129 29.003C28.2249 29.4701 28.1961 29.9599 28.0299 30.4106C27.8638 30.8613 27.5677 31.2526 27.1793 31.5352C26.7908 31.8177 26.3273 31.9788 25.8474 31.998C25.3674 32.0173 24.8925 31.8939 24.4826 31.6434L17 27.0382L9.51284 31.6434C9.10303 31.8925 8.6287 32.0147 8.14956 31.9947C7.67043 31.9747 7.20791 31.8135 6.82026 31.5311C6.43261 31.2488 6.13715 30.8582 5.97109 30.4083C5.80503 29.9584 5.7758 29.4694 5.88707 29.003L7.92592 20.3986L1.25818 14.6451C0.8956 14.3317 0.633376 13.9185 0.504255 13.457C0.375134 12.9955 0.38484 12.5062 0.53216 12.0501C0.679479 11.5941 0.957884 11.1916 1.3326 10.8928C1.70733 10.5941 2.16176 10.4124 2.63914 10.3703L11.3813 9.66505L14.7537 1.50374C14.9362 1.05895 15.2469 0.678493 15.6462 0.410731C16.0455 0.142969 16.5155 0 16.9963 0C17.477 0 17.947 0.142969 18.3463 0.410731C18.7456 0.678493 19.0563 1.05895 19.2388 1.50374L22.6098 9.66505L31.3519 10.3703C31.8302 10.4108 32.286 10.5915 32.6621 10.8898C33.0382 11.1882 33.3178 11.5909 33.4661 12.0474C33.6143 12.504 33.6245 12.9942 33.4954 13.4565C33.3663 13.9189 33.1036 14.3329 32.7403 14.6466L32.7492 14.6451Z" fill="white"/>
</svg>
