<svg width="30" height="30" viewBox="0 0 30 30" fill="none" xmlns="http://www.w3.org/2000/svg">
<g clip-path="url(#clip0_2328_1447)">
<path d="M0.000592433 18.8227C0.000592433 15.9134 0.000592433 13.0035 0.000592433 10.093C0.000592433 8.91981 0.723444 7.98239 1.83954 7.75884C2.57382 7.61199 3.32033 7.69602 4.06031 7.71805C4.33607 7.72621 4.4299 7.96934 4.43071 8.2296C4.43071 8.71911 4.4405 9.20863 4.42663 9.69407C4.42011 9.90048 4.48864 9.9478 4.68608 9.94698C7.7276 9.941 10.7694 9.941 13.8115 9.94698C14.1468 9.94698 14.0415 9.75036 14.0293 9.59208C13.8874 7.82248 14.0008 6.07735 14.5417 4.37629C15.0092 2.90774 15.7181 1.56646 17.0276 0.682072C18.3958 -0.241482 18.5663 -0.234956 19.9337 0.710626C21.1942 1.58197 21.8828 2.89061 22.3486 4.31836C22.9197 6.06593 23.0291 7.86327 22.8789 9.68183C22.8594 9.91842 22.9279 9.94535 23.131 9.94453C24.8308 9.93746 26.5297 9.93746 28.2277 9.94453C29.0379 9.94453 29.5592 10.3084 29.7093 10.9815C29.7404 11.1617 29.7519 11.3447 29.7436 11.5273C29.7436 17.1331 29.7322 22.7389 29.7567 28.3438C29.7607 29.3579 29.1725 29.9592 28.1559 29.9551C22.9475 29.9315 17.739 29.9437 12.5306 29.9437C9.34056 29.9437 6.15 29.9437 2.9589 29.9437C2.62603 29.9437 2.30132 30.0473 1.9611 29.9739C0.794424 29.7234 0.00303991 28.7501 0.00303991 27.5214C-0.00131134 24.6219 -0.0021271 21.7223 0.000592433 18.8227Z" fill="#9D4F91"/>
<path d="M9.81679 29.0135H8.41922C6.41547 29.0135 4.41171 29.0135 2.40796 29.0135C1.62473 29.0135 1.07811 28.5142 0.998154 27.7424C0.92391 27.0302 1.45422 26.2608 2.1526 26.1719C2.67312 26.1058 3.20832 26.1425 3.737 26.145C4.31707 26.145 4.44353 26.0079 4.43701 25.4311C4.42558 24.3705 4.43701 23.3156 4.43701 22.2574C4.43701 18.5757 4.43483 14.8937 4.43048 11.2115C4.43048 10.9463 4.48922 10.8778 4.7609 10.8794C7.80134 10.8898 10.8423 10.8898 13.8839 10.8794C14.1286 10.8794 14.189 10.9504 14.2485 11.1829C14.3513 11.5786 14.2657 11.7777 13.8994 12.0143C11.7047 13.4355 11.4289 16.7242 13.3234 18.5061C13.5151 18.6864 13.7109 18.8553 13.9948 18.7035C14.2787 18.5518 14.2396 18.3144 14.2143 18.0435C14.1082 16.9013 14.5113 15.963 15.3875 15.1782C15.7141 15.9743 16.0879 16.7501 16.5068 17.5018C16.5737 17.6192 16.4979 17.6935 16.4571 17.7792C16.2123 18.2817 15.9676 18.7827 15.731 19.286C15.505 19.7576 15.6942 20.0611 16.2205 20.0717C16.8487 20.084 16.8479 20.084 16.719 20.6901C16.6472 21.0279 16.5705 21.3649 16.515 21.7051C16.4913 21.8454 16.4424 21.8813 16.3029 21.8862C15.2341 21.9229 14.4501 22.4157 13.9736 23.3784C13.9222 23.482 13.8773 23.522 13.7476 23.504C12.368 23.3164 11.4346 23.8524 10.9264 25.117C10.8904 25.21 10.8216 25.2866 10.733 25.3324C9.39254 26.1009 9.00256 27.5401 9.76539 28.8846C9.77273 28.9067 9.78334 28.9385 9.81679 29.0135Z" fill="#FEFEFE"/>
<path d="M26.1129 29.0137C26.6025 28.3324 26.7999 27.6267 26.6343 26.8484C26.4197 25.8359 25.8094 25.171 24.8206 24.8707C24.6191 24.8103 24.5082 24.7377 24.4404 24.5223C24.1222 23.5082 23.2281 22.9722 22.1103 23.106C22.044 23.1207 21.9748 23.1161 21.9109 23.0928C21.847 23.0696 21.7911 23.0286 21.7497 22.9747C21.4358 22.6241 21.0263 22.3729 20.5716 22.2518C20.5037 22.241 20.4415 22.2074 20.3952 22.1565C20.349 22.1057 20.3214 22.0406 20.3171 21.972C20.2083 21.403 20.09 20.8368 19.9622 20.2733C19.9214 20.0971 19.9679 20.0604 20.1319 20.0677C20.3554 20.0783 20.5798 20.0783 20.8033 20.0677C21.2292 20.049 21.425 19.7414 21.2447 19.3539C20.9959 18.8219 20.7323 18.2932 20.4745 17.7678C20.4256 17.6675 20.3848 17.581 20.4541 17.4586C20.8646 16.7236 21.2276 15.963 21.5409 15.1816C22.3951 15.9778 22.7924 16.9169 22.6529 18.0583C22.6211 18.3185 22.6529 18.525 22.9025 18.6481C23.1302 18.7615 23.3105 18.6669 23.4794 18.5111C25.4578 16.6909 25.1886 13.3924 22.9458 11.9279C22.825 11.8463 22.6105 11.8284 22.6121 11.6595C22.6272 11.4166 22.668 11.1759 22.7337 10.9415C22.754 10.8526 22.8528 10.886 22.918 10.886C24.739 10.886 26.5598 10.886 28.3802 10.886C28.6707 10.886 28.8004 11.0256 28.8183 11.3176C28.8232 11.3886 28.8183 11.4604 28.8183 11.5314V28.3455C28.8183 28.9272 28.7319 29.0137 28.1493 29.0137H26.1129Z" fill="#FEFEFE"/>
<path d="M17.827 29.0136C15.8135 29.0136 13.7967 28.9516 11.7897 29.0406C10.84 29.0822 9.90911 27.9432 10.4949 26.819C10.6722 26.471 10.9798 26.2071 11.3507 26.0847C11.4566 26.0518 11.551 25.9898 11.6232 25.9056C11.6954 25.8215 11.7423 25.7187 11.7587 25.6091C11.9985 24.5721 12.9825 24.1095 13.9558 24.5599C14.3213 24.7279 14.5881 24.5982 14.6852 24.2041C14.9364 23.1925 15.6454 22.7103 16.6685 22.8563C17.083 22.9159 17.2478 22.8041 17.3318 22.388C17.4689 21.7117 17.6051 21.0353 17.7267 20.3557C17.7658 20.1387 17.8482 20.0473 18.08 20.0694C18.3614 20.0955 18.7098 19.9878 18.9121 20.1208C19.1145 20.2537 19.0753 20.6356 19.1324 20.9097C19.2523 21.4653 19.3772 22.0201 19.4816 22.5781C19.5387 22.8784 19.6921 23.0505 19.9972 23.0889C20.2658 23.1147 20.5244 23.2045 20.7511 23.3509C20.9778 23.4972 21.1661 23.6958 21.3002 23.93C21.4633 24.2017 21.664 24.2564 21.9455 24.1372C22.7614 23.7889 23.5275 24.2368 23.6254 25.1244C23.6751 25.574 23.773 25.6735 24.2014 25.7094C25.1094 25.7861 25.7515 26.4665 25.7515 27.3534C25.7515 28.2402 25.0849 28.95 24.1703 29.003C23.7755 29.0259 23.3773 29.0136 22.9808 29.0136H17.827Z" fill="#FEFEFE"/>
<path d="M18.4512 15.7021C17.9119 15.7021 17.3735 15.6972 16.8342 15.7021C16.7755 15.7102 16.7158 15.6974 16.6654 15.6661C16.6151 15.6349 16.5772 15.587 16.5584 15.5308C15.7817 13.7873 15.2441 11.9777 15.0213 10.0776C14.8214 8.37408 14.8802 6.68933 15.3289 5.02824C15.4325 4.64724 15.4684 4.17648 15.7466 3.93989C15.9971 3.72695 16.4483 3.87951 16.8072 3.87706C18.1697 3.86972 19.533 3.88114 20.8955 3.86727C21.1338 3.86727 21.2284 3.95375 21.3035 4.16017C21.9333 5.849 22.0802 7.59983 21.9602 9.38167C21.8574 10.8614 21.5555 12.3205 21.0628 13.7196C20.8531 14.3184 20.6475 14.9214 20.3791 15.4998C20.3106 15.6475 20.2314 15.7095 20.0601 15.7054C19.529 15.694 18.9897 15.7021 18.4512 15.7021Z" fill="#FEFEFE"/>
<path d="M0.929688 25.7477V25.383C0.929688 20.3377 0.929688 15.2924 0.929688 10.2471C0.929688 9.18651 1.48529 8.62601 2.54427 8.63254C2.85512 8.63254 3.27202 8.49711 3.44743 8.69291C3.6 8.86424 3.49231 9.27299 3.49231 9.57731C3.49231 14.6732 3.49448 19.7693 3.49883 24.8657C3.49883 25.1235 3.45396 25.2426 3.17249 25.1921C3.04082 25.1822 2.90867 25.1806 2.7768 25.1872C2.12655 25.1684 1.50487 25.2777 0.929688 25.7477Z" fill="#FEFEFE"/>
<path d="M20.7043 2.93631H16.2604C16.2506 2.79109 16.3656 2.70542 16.4358 2.60426C16.8771 1.94116 17.4894 1.40955 18.2078 1.06555C18.288 1.02393 18.3769 1.0022 18.4673 1.0022C18.5576 1.0022 18.6465 1.02393 18.7267 1.06555C19.5744 1.46695 20.1846 2.11393 20.7043 2.93631Z" fill="#FEFEFE"/>
<path d="M13.3041 16.8605C12.6098 15.56 13.132 13.5832 14.3713 12.8008C14.4896 12.7265 14.5622 12.6735 14.616 12.8823C14.7196 13.2943 14.8526 13.6982 14.9864 14.1061C15.0231 14.2163 15.0337 14.2832 14.9285 14.3623C14.1294 14.9561 13.5719 15.8187 13.3588 16.7911C13.3506 16.8123 13.3237 16.8319 13.3041 16.8605Z" fill="#FEFEFE"/>
<path d="M23.5364 16.7937C23.3313 15.8562 22.8134 15.0164 22.0678 14.4122C21.9283 14.2988 21.9046 14.2017 21.9609 14.0287C22.1127 13.5939 22.2359 13.1492 22.3689 12.7046C23.7199 13.4462 24.3188 15.5201 23.5364 16.7937Z" fill="#FEFEFE"/>
<path d="M16.8545 19.1164C17.0071 18.7974 17.1547 18.5004 17.2918 18.1986C17.3448 18.0819 17.4321 18.0737 17.5366 18.0737C18.1561 18.0737 18.7756 18.0737 19.3951 18.0737C19.4995 18.0737 19.5884 18.0737 19.6398 18.1945C19.7769 18.4972 19.9254 18.7941 20.0796 19.1156L16.8545 19.1164Z" fill="#FEFEFE"/>
<path d="M17.1309 16.637H19.7906C19.6453 17.1265 19.6453 17.1265 19.1526 17.1265C18.7144 17.1265 18.2747 17.0955 17.8407 17.1363C17.4499 17.1754 17.2271 17.0424 17.1309 16.637Z" fill="#FCFCFC"/>
<path d="M8.55843 8.21162C8.55843 8.31768 8.51519 8.39111 8.40015 8.37479C8.25248 8.35848 8.2533 8.24426 8.24759 8.13004C8.23861 7.97421 8.34875 8.02234 8.42871 8.01255C8.60249 7.99542 8.55109 8.12269 8.55843 8.21162Z" fill="#F9F9F9"/>
<path d="M18.4634 5.20021C18.9762 5.19876 19.4779 5.3494 19.9051 5.6331C20.3323 5.91679 20.6658 6.32079 20.8634 6.794C21.0609 7.26722 21.1138 7.7884 21.0151 8.29163C20.9165 8.79487 20.6709 9.25756 20.3093 9.62119C19.9477 9.98483 19.4864 10.2331 18.9838 10.3345C18.4811 10.436 17.9596 10.3861 17.4853 10.1912C17.011 9.99634 16.6051 9.66516 16.319 9.23959C16.0329 8.81402 15.8794 8.31316 15.8779 7.80035C15.8769 7.45983 15.9429 7.12244 16.0723 6.80744C16.2016 6.49245 16.3918 6.20604 16.6319 5.96457C16.872 5.7231 17.1574 5.53132 17.4716 5.40016C17.7859 5.26901 18.1229 5.20106 18.4634 5.20021Z" fill="#9D4F91"/>
<path d="M18.4763 9.43785C18.1485 9.43946 17.8276 9.34362 17.5544 9.16249C17.2812 8.98136 17.068 8.72311 16.9418 8.42055C16.8157 8.11799 16.7823 7.78476 16.8459 7.46318C16.9095 7.14161 17.0673 6.84619 17.2991 6.61445C17.531 6.38272 17.8265 6.22511 18.1481 6.16165C18.4697 6.0982 18.8029 6.13175 19.1054 6.25805C19.4079 6.38436 19.666 6.59771 19.847 6.87102C20.028 7.14434 20.1237 7.46527 20.1219 7.79308C20.1189 8.22851 19.9446 8.64526 19.6366 8.95309C19.3286 9.26092 18.9118 9.43507 18.4763 9.43785Z" fill="#FEFEFE"/>
</g>
<defs>
<clipPath id="clip0_2328_1447">
<rect width="29.7593" height="30" fill="white"/>
</clipPath>
</defs>
</svg>
