<svg width="28" height="30" viewBox="0 0 28 30" fill="none" xmlns="http://www.w3.org/2000/svg">
<path d="M14.1592 29.9478C12.5034 29.7579 11.1324 28.2616 11.0137 26.5242C10.8988 24.8513 12.1037 23.2126 13.7509 22.7996C14.6857 22.5528 15.6802 22.6858 16.5173 23.1697C17.3544 23.6535 17.9661 24.4488 18.2189 25.382C18.2683 25.5567 18.3319 25.627 18.5303 25.6156C20.3608 25.5149 21.8422 24.7456 22.9746 23.3075C23.0038 23.2622 23.0298 23.2149 23.0524 23.166C22.7828 23.166 22.5455 23.166 22.3071 23.166C21.821 23.1565 21.5476 22.8812 21.5476 22.398C21.5476 19.3914 21.5476 16.3849 21.5476 13.3784C21.5417 13.1822 21.581 12.9873 21.6625 12.8088C21.7142 12.6814 21.8051 12.5737 21.922 12.5014C22.0389 12.429 22.1758 12.3957 22.3128 12.4062C22.5436 12.4119 22.8445 12.5125 22.9879 12.3616C23.1312 12.2106 23.0278 11.9144 23.0306 11.6818C23.0458 10.4618 23.0534 9.24081 22.6717 8.05972C21.5324 4.54685 19.1759 2.33659 15.5425 1.65585C10.8058 0.767186 6.28558 3.73889 5.11494 8.38823C4.83771 9.49051 4.84341 10.6099 4.85005 11.7321C4.8548 12.4071 4.85005 12.4071 5.52699 12.4109C5.98082 12.4109 6.24951 12.6455 6.31312 13.1002C6.32724 13.2263 6.33231 13.3532 6.32831 13.48C6.32831 16.4378 6.32831 19.3952 6.32831 22.3524C6.32831 22.9068 6.07956 23.1632 5.52889 23.1632C4.59181 23.1632 3.65378 23.186 2.71859 23.1452C1.31059 23.0825 0.0962782 21.8919 0.0488069 20.4811C-0.0110069 18.7256 -0.0233497 16.9682 0.0545032 15.2117C0.119064 13.7544 1.35427 12.3464 3.01386 12.4185C3.32528 12.4318 3.37559 12.3302 3.37465 12.0464C3.368 10.8966 3.31863 9.74401 3.55314 8.60375C4.22913 5.32158 6.02165 2.82934 8.96486 1.26184C14.4506 -1.65385 21.0824 0.667496 23.6193 6.32892C24.2219 7.69819 24.5283 9.17939 24.5184 10.6754C24.5184 11.1833 24.5184 11.6903 24.5184 12.1945C24.5184 12.298 24.4899 12.4043 24.6655 12.4119C25.7051 12.4575 26.3887 13.0594 26.9043 13.8949C27.2972 14.5399 27.4977 15.2836 27.4825 16.0387C27.4758 17.4733 27.4825 18.9079 27.4825 20.3434C27.4825 21.9043 26.6736 22.8423 25.1269 23.0626C25.0466 23.0671 24.9688 23.0919 24.9007 23.1347C24.8326 23.1776 24.7765 23.237 24.7377 23.3075C23.9924 24.5285 23.0287 25.5301 21.7527 26.2033C20.7596 26.7313 19.6583 27.0236 18.5341 27.0577C18.3528 27.0634 18.2759 27.0976 18.2284 27.2941C18.0533 27.9934 17.6683 28.6224 17.1251 29.0964C16.582 29.5704 15.9068 29.8669 15.1903 29.9459C15.1504 29.9506 15.1133 29.9525 15.0953 29.9981H14.4592C14.368 29.9288 14.2522 30.0048 14.1592 29.9478Z" fill="#9D4F91"/>
<path d="M14.1592 29.9478C14.2096 29.9308 14.2634 29.9266 14.3158 29.9358C14.3682 29.9449 14.4175 29.967 14.4592 30H14.1658C14.1695 29.9915 14.1709 29.9821 14.1697 29.973C14.1685 29.9638 14.1649 29.9551 14.1592 29.9478Z" fill="#F3EAF2"/>
<path d="M4.85124 17.7894C4.85124 19.0075 4.85124 20.2266 4.85599 21.4457C4.85599 21.6355 4.81516 21.6935 4.61863 21.6887C4.05372 21.6745 3.48787 21.6887 2.92296 21.6811C2.54789 21.6771 2.18955 21.5253 1.92575 21.2587C1.66194 20.992 1.51399 20.6321 1.51401 20.257C1.50705 18.6676 1.50705 17.0783 1.51401 15.489C1.52066 14.5111 2.16057 13.8892 3.12803 13.8892C3.42995 13.8892 3.73282 13.8892 4.03474 13.8892C4.29583 13.8892 4.64996 13.7999 4.79428 13.9329C4.96327 14.0876 4.8446 14.4455 4.84649 14.7152C4.85504 15.7415 4.85124 16.765 4.85124 17.7894Z" fill="#F3EAF2"/>
<path d="M23.0314 17.7572C23.0314 16.5571 23.038 15.358 23.0266 14.1589C23.0266 13.9414 23.0751 13.874 23.2982 13.8854C23.6969 13.9054 24.0976 13.8987 24.4973 13.8854C24.6582 13.8799 24.8183 13.9102 24.966 13.9741C25.1138 14.038 25.2455 14.1338 25.3518 14.2548C25.7518 14.6641 25.9801 15.211 25.9898 15.7833C26.0088 17.3822 26.0031 18.9819 25.9945 20.5808C25.9945 21.197 25.5739 21.6024 24.8429 21.6612C24.2903 21.7058 23.7321 21.6736 23.1766 21.6831C22.9706 21.6831 23.0323 21.5406 23.0314 21.44C23.0314 20.2596 23.0314 19.0797 23.0314 17.9005V17.7572Z" fill="#F3EAF2"/>
<path d="M16.8698 26.3732C16.8684 26.9387 16.6441 27.4808 16.2457 27.8821C15.8472 28.2834 15.3067 28.5115 14.7412 28.517C13.5563 28.5322 12.5139 27.5097 12.4968 26.3163C12.4806 25.139 13.4718 24.144 14.6691 24.1383C15.9109 24.1326 16.8584 25.0943 16.8698 26.3732Z" fill="#F3EAF2"/>
</svg>
