<svg width="32" height="32" viewBox="0 0 32 32" fill="none" xmlns="http://www.w3.org/2000/svg">
<path d="M26.667 2.66669H5.33366C3.86699 2.66669 2.68033 3.86669 2.68033 5.33335L2.66699 29.3334L8.00033 24H26.667C28.1337 24 29.3337 22.8 29.3337 21.3334V5.33335C29.3337 3.86669 28.1337 2.66669 26.667 2.66669ZM9.33366 12H22.667C23.4003 12 24.0003 12.6 24.0003 13.3334C24.0003 14.0667 23.4003 14.6667 22.667 14.6667H9.33366C8.60033 14.6667 8.00033 14.0667 8.00033 13.3334C8.00033 12.6 8.60033 12 9.33366 12ZM17.3337 18.6667H9.33366C8.60033 18.6667 8.00033 18.0667 8.00033 17.3334C8.00033 16.6 8.60033 16 9.33366 16H17.3337C18.067 16 18.667 16.6 18.667 17.3334C18.667 18.0667 18.067 18.6667 17.3337 18.6667ZM22.667 10.6667H9.33366C8.60033 10.6667 8.00033 10.0667 8.00033 9.33335C8.00033 8.60002 8.60033 8.00002 9.33366 8.00002H22.667C23.4003 8.00002 24.0003 8.60002 24.0003 9.33335C24.0003 10.0667 23.4003 10.6667 22.667 10.6667Z" fill="white"/>
</svg>
