<svg width="34" height="32" viewBox="0 0 34 32" fill="none" xmlns="http://www.w3.org/2000/svg">
<path d="M33.9233 14.4C33.9233 13.5513 33.5991 12.7374 33.0221 12.1373C32.4451 11.5371 31.6624 11.2 30.8464 11.2H21.1233L22.6002 3.888C22.631 3.728 22.6464 3.552 22.6464 3.376C22.6464 2.72 22.3848 2.112 21.9695 1.68L20.3387 0L10.2156 10.528C9.64638 11.12 9.30792 11.92 9.30792 12.8V28.8C9.30792 29.6487 9.63209 30.4626 10.2091 31.0627C10.7862 31.6629 11.5688 32 12.3848 32H26.231C27.5079 32 28.6002 31.2 29.0618 30.048L33.7079 18.768C33.8464 18.4 33.9233 18.016 33.9233 17.6V14.4ZM0.0771484 32H6.23099V12.8H0.0771484V32Z" fill="white"/>
</svg>
