<svg width="28" height="30" viewBox="0 0 28 30" fill="none" xmlns="http://www.w3.org/2000/svg">
<g clip-path="url(#clip0_904_1190)">
<path d="M-1.25221e-05 18.3584C-1.25221e-05 15.2222 -1.25221e-05 12.0861 -1.25221e-05 8.94997C-1.25221e-05 7.91847 0.412247 7.42838 1.43263 7.25646C3.18089 6.96309 4.9394 6.96651 6.69108 7.17948C6.94254 7.21027 6.97932 7.13757 7.0332 6.92289C7.73456 3.98832 9.53584 2.10065 12.4832 1.42496C16.1251 0.589318 19.8834 3.07571 20.6292 6.73985C20.7207 7.19231 20.7216 7.19744 21.1604 7.15211C22.8795 6.9625 24.6161 6.99959 26.3256 7.26245C27.2151 7.40443 27.6864 7.9467 27.6872 8.86188C27.6872 12.2004 27.6872 15.5387 27.6872 18.8767C27.6872 21.8623 27.6872 24.8482 27.6872 27.8344C27.6959 27.9938 27.6817 28.1536 27.6453 28.3091C27.4931 28.8171 27.127 28.9813 26.5001 28.895C25.4874 28.7555 24.4721 28.6307 23.4483 28.5887C20.3726 28.4573 17.2994 28.902 14.3872 29.8999C14.0285 30.0309 13.6355 30.0333 13.2753 29.9068C10.4527 28.9659 7.5558 28.4904 4.57248 28.5845C3.49641 28.619 2.42351 28.7201 1.35993 28.8873C1.1403 28.9333 0.91452 28.9422 0.691934 28.9138C0.511323 28.8877 0.345022 28.8008 0.220581 28.6673C0.0961397 28.5339 0.0210272 28.3619 0.00768626 28.1799C-0.00428808 28.0533 -0.0017222 27.9233 -0.0017222 27.7967L-1.25221e-05 18.3584Z" fill="#9D4F91"/>
<path d="M6.32263 3.127C6.22629 3.13074 6.13028 3.11382 6.04103 3.07738C5.95177 3.04094 5.87135 2.98583 5.80516 2.91574C5.24664 2.3615 4.68556 1.80982 4.13645 1.24617C3.83453 0.935696 3.8388 0.501199 4.12106 0.219802C4.40331 -0.0615955 4.83353 -0.0701484 5.14743 0.236053C5.71279 0.784306 6.26703 1.34282 6.81785 1.90476C6.91835 2.00418 6.98716 2.13112 7.01562 2.26959C7.04407 2.40806 7.0309 2.55186 6.97775 2.68285C6.9246 2.81384 6.83386 2.92617 6.71697 3.00566C6.60008 3.08516 6.46227 3.12827 6.32091 3.12957L6.32263 3.127Z" fill="#9D4F91"/>
<path d="M21.4469 3.12873C21.086 3.12873 20.8662 2.99787 20.7319 2.73957C20.5976 2.48126 20.5993 2.19987 20.7969 1.99288C21.3905 1.36936 21.9943 0.757814 22.6221 0.165084C22.883 -0.0829557 23.297 -0.0367693 23.551 0.206139C23.805 0.449047 23.8709 0.890387 23.6168 1.1581C23.0335 1.77734 22.4194 2.37093 21.8207 2.96794C21.7214 3.06764 21.5876 3.12524 21.4469 3.12873Z" fill="#9D4F91"/>
<path d="M26.2536 18.089C26.2536 21.0962 26.2553 24.1035 26.2588 27.1108C26.2588 27.3494 26.2314 27.4272 25.9551 27.3879C23.8096 27.0815 21.6333 27.0562 19.4813 27.3126C17.9051 27.4942 16.3488 27.8194 14.8318 28.2843C14.5932 28.3578 14.5504 28.3176 14.5513 28.0781C14.5587 25.7973 14.5587 23.5165 14.5513 21.2356C14.5513 21.0321 14.6077 20.9525 14.8079 20.8858C16.1251 20.453 16.9615 19.2864 16.9804 17.8922C16.9804 17.8495 16.9804 17.8067 16.9804 17.7639C16.9444 17.2063 16.9898 16.7111 17.4431 16.2629C17.8639 15.8455 18.011 15.2442 18.0221 14.6429C18.0315 14.1066 18.2454 13.6884 18.6285 13.3215C19.8961 12.1069 20.5889 10.611 20.7489 8.86786C20.7634 8.71647 20.7976 8.64719 20.9653 8.62752C22.6289 8.42283 24.3129 8.44816 25.9697 8.70279C26.1809 8.73614 26.2596 8.80286 26.2588 9.04063C26.2502 12.053 26.2536 15.0706 26.2536 18.089Z" fill="#F3EAF2"/>
<path d="M13.1096 28.3433C9.33937 27.1427 5.34347 26.8257 1.43115 27.417V27.0201C1.4437 21.0272 1.45482 15.0344 1.46451 9.04149C1.46451 8.7849 1.51925 8.68056 1.7938 8.64292C3.4342 8.42684 5.09543 8.42023 6.7375 8.62325C6.8675 8.63864 6.91882 8.68141 6.92994 8.81569C7.08219 10.6469 7.83571 12.1865 9.17427 13.4446C9.31734 13.5738 9.43248 13.7309 9.51264 13.9063C9.5928 14.0816 9.63628 14.2714 9.64042 14.4642C9.66351 15.3332 9.95688 16.0893 10.5915 16.6931C10.7027 16.7983 10.6882 16.9198 10.6907 17.0463C10.7019 17.5151 10.6446 17.9872 10.7395 18.4508C10.9961 19.6824 11.7342 20.495 12.9188 20.8961C13.0848 20.9525 13.1318 21.0184 13.1309 21.1826C13.1269 23.529 13.1255 25.8751 13.1267 28.221C13.1232 28.262 13.1175 28.3028 13.1096 28.3433Z" fill="#F3EAF2"/>
<path d="M14.5581 14.1297C14.5581 13.5969 14.5581 13.064 14.5581 12.5303C14.5581 11.9649 14.2861 11.6297 13.8354 11.6356C13.3846 11.6416 13.1315 11.9692 13.1315 12.5166C13.1315 13.6285 13.1221 14.7336 13.1375 15.8429C13.1375 16.091 13.0656 16.1414 12.833 16.138C11.7912 16.1217 11.1275 15.494 11.0898 14.4642C11.0582 13.5969 10.6947 12.8904 10.0712 12.3002C9.17158 11.4551 8.57625 10.3367 8.37765 9.11847C7.86446 6.23779 10.0173 3.23137 12.9211 2.79944C16.0746 2.33073 18.8535 4.33472 19.3171 7.4797C19.5856 9.29809 19.0305 10.9009 17.7151 12.1959C17.0197 12.8801 16.6126 13.6499 16.5852 14.6412C16.5587 15.5701 15.6444 16.256 14.7104 16.1371C14.5179 16.1123 14.5598 15.9969 14.5598 15.8891C14.5581 15.3024 14.5581 14.7165 14.5581 14.1297Z" fill="#F3EAF2"/>
<path d="M15.5527 17.823C15.5365 18.8493 14.777 19.6345 13.819 19.6148C12.8226 19.5943 12.0836 18.7655 12.1152 17.722C12.1204 17.5424 12.1674 17.5245 12.3351 17.5382C13.3033 17.6168 14.274 17.5852 15.2431 17.5578C15.5587 17.5493 15.5579 17.5245 15.5527 17.823Z" fill="#F3EAF2"/>
<path d="M20.4486 23.6134C19.66 23.6134 18.8705 23.6203 18.0819 23.6134C17.6389 23.6074 17.3498 23.3089 17.3541 22.895C17.3583 22.481 17.656 22.1919 18.099 22.191C19.6671 22.1859 21.2352 22.1859 22.8032 22.191C23.2061 22.191 23.4815 22.4297 23.5448 22.8017C23.5672 22.9613 23.5356 23.1237 23.455 23.2632C23.3744 23.4027 23.2494 23.5112 23.1 23.5715C22.9678 23.6135 22.8286 23.6295 22.6903 23.6186H20.4486V23.6134Z" fill="#9D4F91"/>
<path d="M21.2655 19.3958C20.6368 19.3958 20.0073 19.3958 19.3786 19.3958C18.8406 19.3958 18.5105 19.1119 18.5182 18.6705C18.5259 18.2292 18.8483 17.9658 19.3684 17.9649C20.6582 17.9649 21.9483 17.9649 23.2387 17.9649C23.7433 17.9649 24.0777 18.2617 24.07 18.6919C24.0623 19.1221 23.7416 19.3907 23.2489 19.3941C22.5878 19.4001 21.9266 19.3958 21.2655 19.3958Z" fill="#9D4F91"/>
<path d="M22.2048 15.1715C21.8216 15.1715 21.435 15.18 21.0544 15.1715C20.6208 15.1595 20.3129 14.8524 20.3154 14.4556C20.318 14.0587 20.6293 13.7499 21.0621 13.7457C21.8182 13.7383 22.574 13.7383 23.3296 13.7457C23.4257 13.7427 23.5214 13.7591 23.6111 13.7938C23.7008 13.8285 23.7826 13.8809 23.8517 13.9478C23.9208 14.0147 23.9757 14.0948 24.0133 14.1834C24.0508 14.2719 24.0702 14.3671 24.0703 14.4633C24.0697 14.5566 24.0507 14.649 24.0144 14.735C23.9781 14.8211 23.9252 14.8991 23.8587 14.9646C23.7922 15.0302 23.7134 15.0819 23.6269 15.117C23.5403 15.1521 23.4477 15.1697 23.3544 15.1689C22.9712 15.1817 22.5846 15.1689 22.2048 15.1689V15.1715Z" fill="#9D4F91"/>
<path d="M6.98886 23.6203C6.15693 23.6203 5.325 23.6203 4.49307 23.6203C3.94909 23.6203 3.61809 23.3491 3.61381 22.9112C3.60953 22.4733 3.94653 22.1902 4.48281 22.1893C6.17803 22.1893 7.87354 22.1893 9.56934 22.1893C9.96192 22.1893 10.2536 22.4186 10.3186 22.7555C10.3503 22.9135 10.3285 23.0775 10.2566 23.2217C10.1847 23.3659 10.0669 23.482 9.92172 23.5518C9.77119 23.6254 9.61124 23.6177 9.45216 23.6186L6.98886 23.6203Z" fill="#9D4F91"/>
<path d="M6.39258 19.3958C5.74169 19.3958 5.09165 19.3958 4.44076 19.3958C3.93442 19.3958 3.60341 19.0956 3.61453 18.668C3.62565 18.2403 3.9481 17.9675 4.43819 17.9666C5.73883 17.9666 7.03947 17.9666 8.34012 17.9666C8.84475 17.9666 9.1749 18.2634 9.16549 18.6962C9.15608 19.129 8.83791 19.3924 8.34354 19.3958C7.6935 19.3993 7.04261 19.3958 6.39258 19.3958Z" fill="#9D4F91"/>
<path d="M5.49187 14.8901C5.13007 14.8901 4.76827 14.8953 4.40562 14.8901C3.94889 14.8824 3.62729 14.5891 3.61788 14.1819C3.60847 13.7748 3.92408 13.4583 4.38082 13.4498C5.12608 13.4361 5.87105 13.4361 6.61574 13.4498C7.07077 13.4583 7.38552 13.7851 7.37184 14.1879C7.35815 14.5908 7.03827 14.8824 6.57811 14.8893C6.21375 14.8944 5.8511 14.8901 5.49187 14.8901Z" fill="#9D4F91"/>
<path d="M13.9654 4.52801C14.9011 4.599 15.7752 5.07284 16.3987 5.98204C16.6553 6.35495 16.5766 6.7886 16.2328 7.02295C15.889 7.25731 15.4887 7.1752 15.2295 6.80913C15.0604 6.55633 14.834 6.34708 14.5687 6.19844C14.3034 6.0498 14.0067 5.96598 13.7028 5.95382C13.1776 5.91704 12.8671 5.61169 12.8937 5.19857C12.9219 4.76151 13.2503 4.51689 13.9654 4.52801Z" fill="#9D4F91"/>
</g>
<defs>
<clipPath id="clip0_904_1190">
<rect width="27.6855" height="30" fill="white"/>
</clipPath>
</defs>
</svg>
