<svg width="25" height="30" viewBox="0 0 25 30" fill="none" xmlns="http://www.w3.org/2000/svg">
<g clip-path="url(#clip0_904_1353)">
<path d="M0.00264744 15.9008C0.00264744 11.5057 0.00264744 7.11084 0.00264744 2.71626C0.00264744 1.02988 1.03586 0 2.7281 0H22.2832C23.9687 0 24.9994 1.03489 25.0003 2.72629C25.0003 3.27839 25.0003 3.82966 25.0003 4.38177C25.0003 4.82613 24.8224 4.99903 24.3705 4.99986C23.3398 4.99986 22.3091 5.00571 21.28 4.99568C21.0779 4.99568 20.9969 5.01991 20.9977 5.25545C21.0072 7.75455 21.0072 10.2539 20.9977 12.7536C20.9977 12.9507 21.0378 13.0117 21.2483 13.0041C21.8939 12.9908 22.4444 13.2372 22.9013 13.6891C23.3582 14.1409 23.8201 14.5987 24.2711 15.0589C25.2484 16.0528 25.2534 17.4394 24.2711 18.43C23.2538 19.459 22.2297 20.4819 21.199 21.4987C21.1313 21.5597 21.0778 21.6349 21.0424 21.7189C21.007 21.803 20.9906 21.8938 20.9944 21.9849C21.0011 24.4221 21.0025 26.8591 20.9986 29.2959C20.9986 29.8471 20.8482 29.9967 20.2944 29.9967H0.707606C0.151324 29.9967 0.000976562 29.848 0.000976562 29.3001C0.00209024 24.8348 0.00264744 20.3683 0.00264744 15.9008Z" fill="#9D4F91"/>
<path d="M20.0004 22.7015C20.0004 24.7896 20.0004 26.8018 20.0004 28.8106C20.0004 28.9576 19.9645 29.0236 19.8116 29.001C19.7596 28.9973 19.7074 28.9973 19.6554 29.001C13.5513 29.001 7.44728 29.0032 1.3432 29.0077C1.06423 29.0077 0.990723 28.9442 0.990723 28.6586C0.999632 20.0136 1.00214 11.3681 0.99824 2.7221C0.99824 1.57863 1.58292 1.00146 2.7314 1.00146H20.5082C19.9745 1.6822 19.9954 2.44062 19.997 3.20321C20.0046 6.46072 19.997 9.72324 20.0046 12.9841C20.0118 13.0987 19.9911 13.2133 19.9444 13.3181C19.8977 13.423 19.8264 13.515 19.7364 13.5863C19.1568 14.1092 18.6172 14.6763 18.0659 15.2284C16.2089 17.0833 14.3524 18.9389 12.4964 20.7954C11.8632 21.4181 11.4116 22.2015 11.1901 23.0615C10.8626 24.2968 10.5219 25.5272 10.1878 26.7617C10.1418 26.9363 10.0792 27.0123 9.87955 27.0073C8.12968 26.9972 6.37981 27.0022 4.62995 27.0006C4.23153 27.0006 4.00684 26.821 4.00183 26.5086C3.99682 26.1962 4.22652 26.0075 4.64582 26.0016C4.90642 26.0016 5.16702 26.0016 5.42762 26.0016C5.811 25.9941 5.99643 25.8087 5.9981 25.4169C6.00228 24.6986 6.00979 23.9794 5.99309 23.2611C5.98808 23.0339 6.05824 22.9846 6.27039 22.9947C6.65545 23.013 7.04134 23.0039 7.42639 22.9947C7.81145 22.9855 7.99688 22.8026 7.99855 22.41C8.00189 21.1293 8.00189 19.8485 7.99855 18.5678C7.99855 18.1819 7.80894 17.9981 7.42055 17.994C7.01378 17.9898 6.60784 17.9848 6.2019 17.994C6.03485 17.999 5.99392 17.9439 5.99727 17.7843C6.00645 17.2531 6.00729 16.721 5.99727 16.1906C5.99727 16.0236 6.04989 15.9827 6.20775 15.9868C6.61369 15.9969 7.02046 15.9935 7.42639 15.9868C7.81145 15.9818 7.99604 15.7964 8.00022 15.408C8.00439 15.0021 8.0094 14.5953 8.00022 14.1894C7.9952 14.0223 8.05117 13.9822 8.2107 13.9847C8.74193 13.9939 9.27315 13.9956 9.80438 13.9847C9.97143 13.9847 10.0115 14.0382 10.0082 14.1961C9.99816 14.602 10.0007 15.0079 10.0082 15.4147C10.0132 15.7998 10.1986 15.9868 10.587 15.9877C11.8677 15.991 13.1485 15.991 14.4292 15.9877C14.8159 15.9877 15.0039 15.7981 15.0047 15.4105C15.008 14.1298 15.008 12.8491 15.0047 11.5683C15.0047 11.1799 14.8159 10.992 14.43 10.9912C13.1493 10.9878 11.8686 10.9878 10.5878 10.9912C10.1986 10.9912 10.014 11.1774 10.009 11.5633C10.004 11.9701 10.0015 12.376 10.009 12.782C10.009 12.9382 9.97811 12.9983 9.80688 12.9941C9.27566 12.9824 8.74443 12.9841 8.21321 12.9941C8.05534 12.9941 7.99687 12.9607 8.00189 12.7903C8.01525 12.3844 8.0094 11.9784 8.00189 11.5717C7.99771 11.1824 7.81479 10.997 7.42974 10.992C7.0238 10.987 6.61703 10.9845 6.21109 10.992C6.05573 10.992 5.99476 10.9628 5.99894 10.7899C6.01063 10.2586 6.0123 9.72742 5.99894 9.19619C5.99309 8.99991 6.07494 8.98237 6.23448 8.98571C6.63039 8.99573 7.0263 8.99239 7.42222 8.98571C7.81813 8.97902 8.00105 8.79777 8.00189 8.41272C8.00578 7.13199 8.00578 5.85126 8.00189 4.57053C8.00189 4.18046 7.81562 3.99002 7.43141 3.98585C6.15067 3.98195 4.86994 3.98195 3.58921 3.98585C3.18578 3.98585 3.00453 4.17294 3.00453 4.58473C3.00453 5.85599 3.00453 7.12698 3.00453 8.39768C3.00453 8.80111 3.19247 8.98237 3.60174 8.98237C3.99765 8.98237 4.39357 8.98738 4.78948 8.98237C4.93315 8.98237 5.01333 8.99239 5.00915 9.17782C4.99495 9.71906 4.99746 10.2637 5.00915 10.8024C5.00915 10.9611 4.95403 10.9912 4.81203 10.9878C4.4061 10.9795 3.99933 10.982 3.59339 10.9878C3.18745 10.9937 3.00871 11.1732 3.00871 11.5834C3.00871 12.8546 3.00871 14.1256 3.00871 15.3963C3.00871 15.8014 3.19497 15.981 3.60258 15.986C4.01018 15.991 4.41528 15.9935 4.82122 15.986C4.97491 15.986 5.01333 16.032 5.01082 16.1798C5.00331 16.721 5.00247 17.2656 5.01082 17.8044C5.01082 17.9581 4.96321 17.9965 4.81704 17.9931C4.41027 17.984 4.00434 17.9873 3.5984 17.9931C3.19247 17.999 3.00871 18.1777 3.00787 18.5862C3.00787 19.8574 3.00787 21.1281 3.00787 22.3983C3.00787 22.8059 3.19247 22.9872 3.59924 22.9913C4.00601 22.9955 4.41194 22.9988 4.81788 22.9913C4.96572 22.9913 5.01333 23.0289 5.01082 23.1809C5.00192 23.7233 5.00192 24.2651 5.01082 24.8063C5.01082 24.955 4.9724 25.0043 4.82038 24.9985C4.58165 24.9782 4.3412 24.9956 4.10791 25.0502C3.76206 25.1459 3.46159 25.3616 3.26033 25.6587C3.05906 25.9558 2.97016 26.3148 3.00954 26.6715C3.09307 27.3831 3.69279 27.9845 4.4086 27.9912C6.43995 28.0087 8.4713 28.0229 10.506 27.9812C11.0071 27.9703 11.5133 27.7481 12.0136 27.612C13.026 27.338 14.0358 27.0524 15.0481 26.7767C15.8661 26.557 16.6095 26.1204 17.1998 25.513C18.1094 24.5934 19.029 23.6754 20.0004 22.7015Z" fill="#FEFEFE"/>
<path d="M4 6.47577C4 6.05814 4.00752 5.64051 4 5.22288C4 5.05583 4.02673 4.98984 4.2155 4.99235C5.06913 5.00237 5.9236 5.0007 6.77724 4.99235C6.94429 4.99235 7.01027 5.01907 7.0086 5.20784C6.99775 6.06148 6.99942 6.91511 7.0086 7.76958C7.0086 7.93664 6.98187 8.00262 6.79311 8.00011C5.93947 7.99009 5.08584 7.98758 4.2322 8.00011C4.02339 8.00011 3.99666 7.92912 4.00167 7.74954C4.01169 7.33024 4 6.90342 4 6.47577Z" fill="#FEFEFE"/>
<path d="M5.46916 14.9996C5.04234 14.9996 4.61469 14.9937 4.18787 14.9996C4.03752 15.0038 3.99576 14.9587 3.99659 14.8083C4.00328 13.9341 4.00328 13.0596 3.99659 12.1848C3.99659 12.0344 4.03836 11.9918 4.18787 11.9935C5.06322 12.0002 5.93801 12.0002 6.81225 11.9935C6.9626 11.9935 7.00436 12.0344 7.00353 12.1848C6.99684 13.059 6.99684 13.9335 7.00353 14.8083C7.00353 14.9587 6.9626 15.0029 6.81225 14.9996C6.36455 14.9937 5.91685 14.9996 5.46916 14.9996Z" fill="#FEFEFE"/>
<path d="M12.5315 12.0002C12.9583 12.0002 13.386 12.006 13.8128 12.0002C13.9631 12.0002 14.0049 12.0411 14.0032 12.1914C13.9965 13.0657 13.9965 13.9405 14.0032 14.8158C14.0032 14.9653 13.9623 15.0079 13.8119 15.0063C12.9377 14.9996 12.0632 14.9996 11.1884 15.0063C11.038 15.0063 10.9954 14.9653 10.9971 14.815C11.0038 13.9408 11.0038 13.0662 10.9971 12.1914C10.9971 12.0411 11.038 11.9968 11.1884 12.0002C11.6361 12.006 12.0838 12.0002 12.5315 12.0002Z" fill="#FEFEFE"/>
<path d="M5.47336 21.9999C5.04654 21.9999 4.61972 21.994 4.1929 21.9999C4.04924 21.9999 3.99495 21.9698 3.99662 21.8128C4.00386 20.938 4.00386 20.0635 3.99662 19.1892C3.99662 19.0456 4.02585 18.9913 4.18288 18.993C5.05712 19.0002 5.93191 19.0002 6.80727 18.993C6.95009 18.993 7.00439 19.0222 7.00272 19.1792C6.9952 20.0537 6.99353 20.9283 7.00272 21.8036C7.00272 21.9882 6.92671 21.9999 6.78304 21.9982C6.35038 21.994 5.91103 21.9999 5.47336 21.9999Z" fill="#FEFEFE"/>
<path d="M12.7594 22.0216L15.981 25.2374C15.383 25.7285 14.6204 25.8404 13.8987 26.0576C13.7868 26.0918 13.7317 26.0183 13.6615 25.9515C13.1253 25.4136 12.5885 24.8762 12.0511 24.3395C11.9843 24.2735 11.9083 24.2167 11.9417 24.1039C12.1581 23.3814 12.2725 22.6197 12.7594 22.0216Z" fill="#FEFEFE"/>
<path d="M22.471 4.00005C22.0441 4.00005 21.6173 3.9942 21.1905 4.00005C21.0443 4.00005 20.9934 3.9658 20.9967 3.81128C21.0068 3.3427 20.9867 2.87329 21.0059 2.40554C21.0283 2.02769 21.193 1.67235 21.4668 1.41105C21.7407 1.14975 22.1033 1.00191 22.4818 0.997292C23.2645 0.989775 23.9444 1.59283 23.9903 2.36962C24.0195 2.85741 23.9903 3.34855 24.0037 3.83801C24.0037 3.99253 23.9327 3.99921 23.8141 3.99838C23.3664 3.99754 22.9187 4.00005 22.471 4.00005Z" fill="#FEFEFE"/>
<path d="M19.6904 17.4669C19.7342 17.4843 19.7769 17.5044 19.8182 17.5271C19.8422 17.5469 19.8643 17.569 19.8841 17.5931C20.0913 17.8094 20.4337 18.0107 20.4688 18.2488C20.4972 18.4734 20.1205 18.6714 19.9176 18.8752C18.516 20.2834 17.1061 21.6833 15.7087 23.0958C15.5416 23.2628 15.4498 23.277 15.2994 23.0958C15.1324 22.8886 14.8033 22.7149 14.7849 22.5052C14.7665 22.2956 15.1073 22.111 15.2961 21.9206C16.7054 20.5051 18.117 19.0918 19.5308 17.6808C19.589 17.6133 19.6423 17.5419 19.6904 17.4669Z" fill="#FEFEFE"/>
<path d="M24.0011 16.7319C24.0001 17.0798 23.8662 17.4141 23.627 17.6666C23.5376 17.7651 23.4766 17.7726 23.3764 17.6732C22.3668 16.6559 21.3537 15.6422 20.3369 14.6321C20.2249 14.5218 20.2425 14.465 20.3452 14.3606C20.5786 14.1334 20.8894 14.0033 21.215 13.9965C21.5406 13.9896 21.8566 14.1067 22.0993 14.3238C22.6464 14.8334 23.1659 15.3729 23.6863 15.9108C23.8913 16.1348 24.0038 16.4282 24.0011 16.7319Z" fill="#FEFEFE"/>
<path d="M19.0808 16.6993C18.9697 16.8163 18.9221 16.8664 18.872 16.9182C17.304 18.4868 15.7373 20.0562 14.172 21.6265C14.0359 21.7627 13.9665 21.7677 13.8304 21.6265C13.4604 21.2473 13.4529 21.2548 13.817 20.8907C15.3038 19.4039 16.7947 17.9205 18.2731 16.4254C18.4569 16.2391 18.563 16.2216 18.7275 16.4254C18.8161 16.5356 18.9539 16.6041 19.0808 16.6993Z" fill="#FEFEFE"/>
<path d="M21.7621 19.4415C21.7581 19.4856 21.7442 19.5282 21.7213 19.5661C21.6985 19.6041 21.6673 19.6363 21.6301 19.6603C20.0554 21.2367 18.4812 22.8134 16.9075 24.3904C16.7781 24.5207 16.7113 24.5065 16.5893 24.3854C16.2059 24.0037 16.2009 24.0087 16.581 23.6286C18.0535 22.1561 19.5311 20.6885 20.992 19.2018C21.2083 18.9829 21.3353 18.9704 21.5132 19.211C21.5877 19.2964 21.6711 19.3737 21.7621 19.4415Z" fill="#FEFEFE"/>
<path d="M22.7616 18.4859C22.7324 18.6046 22.6338 18.653 22.5645 18.7282C22.4952 18.8033 22.435 18.7282 22.3866 18.6797C21.3637 17.6574 20.3399 16.6353 19.3153 15.6135C19.175 15.4748 19.302 15.4239 19.3688 15.3429C19.4465 15.2476 19.5116 15.2176 19.6194 15.3245C20.6384 16.3507 21.6604 17.3745 22.6856 18.3957C22.7123 18.4208 22.7365 18.4534 22.7616 18.4859Z" fill="#FEFEFE"/>
<path d="M11.2148 26.7884L11.579 25.4412L12.5496 26.4209L11.2148 26.7884Z" fill="#FDFDFD"/>
<path d="M13.9674 7.0003C12.844 7.0003 11.7205 7.0003 10.5971 7.0003C10.3006 7.0003 10.0868 6.89339 10.0124 6.59687C9.93308 6.28031 10.1795 6.00384 10.5537 6.0005C11.1459 5.99382 11.7389 6.0005 12.3319 6.0005C14.0069 6.0005 15.6816 6.0005 17.356 6.0005C17.5498 6.0005 17.7352 6.01136 17.8689 6.16755C17.9346 6.23546 17.9782 6.32173 17.9939 6.41494C18.0095 6.50815 17.9965 6.60392 17.9566 6.68959C17.8547 6.91845 17.6709 7.00114 17.4312 7.00114C16.2769 6.99863 15.1209 7.0003 13.9674 7.0003Z" fill="#9D4F91"/>
<path d="M13.9658 8.99992H10.7517C10.689 8.99992 10.6264 8.99992 10.5646 8.99992C10.2213 8.9899 10.005 8.79862 10.0025 8.50461C9.99996 8.2106 10.2155 8.00346 10.5554 8.00346C10.9296 7.99678 11.3071 8.00346 11.6788 8.00346H17.3895C17.7762 8.00847 18.0059 8.20058 17.9984 8.5138C17.9909 8.82702 17.7695 9.00159 17.3987 9.00243C16.2544 9.00159 15.1101 8.99992 13.9658 8.99992Z" fill="#9D4F91"/>
<path d="M12.5048 4.99985C12.1824 4.99985 11.8608 5.0057 11.5392 4.99985C11.2176 4.994 11.0097 4.79605 11.0021 4.51373C10.9946 4.23141 11.211 4.00672 11.5459 4.00338C12.179 3.99781 12.8121 3.99781 13.4453 4.00338C13.7844 4.00338 14.0007 4.21053 13.9982 4.50454C13.9957 4.79855 13.7802 4.99484 13.4386 5.00068C13.1279 5.00402 12.8163 4.99985 12.5048 4.99985Z" fill="#9D4F91"/>
<path d="M16.4997 4.00006C16.8112 4.00006 17.1228 3.99588 17.4343 4.00006C17.7768 4.0059 17.9931 4.19801 17.9981 4.49119C18.0031 4.78436 17.786 4.99234 17.4493 4.99736C16.8162 5.00348 16.1831 5.00348 15.55 4.99736C15.2159 4.99736 14.997 4.7852 15.002 4.49119C15.007 4.19718 15.2217 4.0059 15.5658 4.00006C15.8766 3.99588 16.1881 4.00006 16.4997 4.00006Z" fill="#9D4F91"/>
</g>
<defs>
<clipPath id="clip0_904_1353">
<rect width="25.0051" height="30" fill="white"/>
</clipPath>
</defs>
</svg>
