<svg width="318" height="353" viewBox="0 0 318 353" fill="none" xmlns="http://www.w3.org/2000/svg">
<mask id="mask0_4933_4770" style="mask-type:alpha" maskUnits="userSpaceOnUse" x="0" y="0" width="318" height="353">
<path d="M0 0H318V353H48C21.4903 353 0 331.51 0 305V0Z" fill="#D9D9D9"/>
</mask>
<g mask="url(#mask0_4933_4770)">
<g opacity="0.06">
<path d="M219.002 -10L9.91261 193.698L31.1355 215.482C34.2436 184.867 48.1602 156.362 70.388 135.083C82.1644 122.727 96.355 112.924 112.079 106.282C127.803 99.6408 144.725 96.3024 161.794 96.4741C176.532 96.5968 191.114 99.5049 204.771 105.046L269.576 41.9122L219.002 -10Z" fill="#27AAE1"/>
<path d="M204.773 105.045L60.4879 245.609L31.1372 215.481C34.2452 184.866 48.1619 156.361 70.3897 135.082C82.166 122.726 96.3566 112.923 112.081 106.281C127.805 99.6397 144.727 96.3013 161.796 96.4731C176.533 96.5957 191.115 99.5038 204.773 105.045Z" fill="url(#paint0_linear_4933_4770)"/>
<path d="M286.584 241.104C281.442 271.985 265.729 300.118 242.132 320.69C218.535 341.261 188.521 352.993 157.227 353.876C142.394 353.957 127.68 351.228 113.862 345.833L45.6585 412.277L96.3075 464.267L305.474 260.494L286.584 241.104Z" fill="#8DC63F"/>
<path d="M287.764 226.708C288.335 210.262 285.479 193.875 279.375 178.592C273.272 163.308 264.055 149.461 252.312 137.931C239.039 123.698 222.92 112.417 205.002 104.822L123.05 184.661C133.937 173.706 148.706 167.488 164.151 167.355C171.47 166.954 178.789 168.134 185.611 170.816C192.433 173.498 198.596 177.619 203.682 182.898C208.697 188.188 212.475 194.525 214.746 201.452C217.016 208.379 217.722 215.723 216.812 222.955C215.724 238.816 208.728 253.69 197.205 264.642L255.135 208.206L286.894 240.805C287.479 236.129 287.77 231.421 287.764 226.708Z" fill="#EC008C"/>
<path d="M247.56 315.71C235.839 327.893 221.772 337.575 206.207 344.173C190.642 350.771 173.901 354.149 156.995 354.102C142.162 354.183 127.448 351.454 113.63 346.058L254.825 208.504L286.584 241.104C282.562 269.728 268.777 296.083 247.56 315.71Z" fill="url(#paint1_linear_4933_4770)"/>
<path d="M196.822 264.864L113.789 345.756C96.5793 338.831 81.0977 328.214 68.4359 314.656C40.2391 285.713 27.5304 254.278 30.31 220.353C30.4863 218.525 30.5854 216.772 30.9142 214.946L60.265 245.073L122.598 184.348C110.484 195.54 103.018 210.875 101.677 227.314C100.826 234.61 101.612 242.004 103.979 248.957C106.346 255.911 110.234 262.25 115.36 267.512C120.486 272.773 126.721 276.825 133.61 279.373C140.5 281.921 147.871 282.9 155.186 282.239C170.759 281.903 185.63 275.697 196.822 264.864Z" fill="#EE2A7B"/>
<path opacity="0.11" d="M196.822 264.864L113.789 345.756C96.5793 338.831 81.0977 328.214 68.4359 314.656C40.2391 285.713 27.5304 254.278 30.31 220.353C30.4863 218.525 30.5854 216.772 30.9142 214.946L60.265 245.073L122.598 184.348C110.484 195.54 103.018 210.875 101.677 227.314C100.826 234.61 101.612 242.004 103.979 248.957C106.346 255.911 110.234 262.25 115.36 267.512C120.486 272.773 126.721 276.825 133.61 279.373C140.5 281.921 147.871 282.9 155.186 282.239C170.759 281.903 185.63 275.697 196.822 264.864Z" fill="#EC008C"/>
</g>
</g>
<defs>
<linearGradient id="paint0_linear_4933_4770" x1="82.2073" y1="123.569" x2="132.63" y2="175.327" gradientUnits="userSpaceOnUse">
<stop stop-color="#70499B"/>
<stop offset="0.57" stop-color="#A62D82"/>
<stop offset="1" stop-color="#CB1A71"/>
</linearGradient>
<linearGradient id="paint1_linear_4933_4770" x1="184.382" y1="277.131" x2="234.429" y2="328.502" gradientUnits="userSpaceOnUse">
<stop stop-color="#70499B"/>
<stop offset="0.57" stop-color="#A62D82"/>
<stop offset="1" stop-color="#CB1A71"/>
</linearGradient>
</defs>
</svg>
