<svg width="600" height="1013" viewBox="0 0 600 1013" fill="none" xmlns="http://www.w3.org/2000/svg">
<g opacity="0.06">
<path d="M641 0L194.496 434.99L239.817 481.511C246.454 416.132 276.173 355.261 323.639 309.82C348.788 283.435 379.091 262.501 412.67 248.318C446.248 234.135 482.384 227.005 518.835 227.372C550.306 227.634 581.445 233.844 610.611 245.676L748.998 110.857L641 0Z" fill="#27AAE1"/>
<path d="M610.614 245.674L302.498 545.845L239.82 481.508C246.458 416.13 276.176 355.259 323.643 309.818C348.791 283.432 379.095 262.498 412.673 248.315C446.251 234.132 482.387 227.003 518.838 227.37C550.31 227.632 581.449 233.842 610.614 245.674Z" fill="url(#paint0_linear_4933_4754)"/>
<path d="M785.319 536.224C774.339 602.17 740.783 662.248 690.392 706.178C640.002 750.108 575.909 775.159 509.081 777.046C477.405 777.22 445.983 771.392 416.476 759.87L270.83 901.76L378.989 1012.78L825.658 577.631L785.319 536.224Z" fill="#8DC63F"/>
<path d="M787.84 505.483C789.06 470.362 782.96 435.37 769.926 402.732C756.893 370.094 737.211 340.524 712.133 315.901C683.789 285.507 649.367 261.417 611.104 245.198L436.098 415.692C459.348 392.298 490.887 379.019 523.869 378.736C539.498 377.878 555.128 380.399 569.696 386.127C584.263 391.854 597.425 400.654 608.286 411.926C618.994 423.225 627.064 436.757 631.912 451.549C636.761 466.341 638.268 482.024 636.325 497.468C634.001 531.338 619.06 563.102 594.454 586.489L718.162 465.971L785.983 535.587C787.232 525.601 787.852 515.547 787.84 505.483Z" fill="#EC008C"/>
<path d="M701.984 695.544C676.954 721.56 646.915 742.236 613.676 756.326C580.438 770.416 544.689 777.629 508.586 777.528C476.911 777.702 445.488 771.874 415.981 760.352L717.499 466.609L785.319 536.224C776.731 597.35 747.293 653.63 701.984 695.544Z" fill="url(#paint1_linear_4933_4754)"/>
<path d="M593.636 586.963L416.321 759.706C379.57 744.917 346.509 722.246 319.471 693.292C259.257 631.485 232.118 564.358 238.054 491.911C238.43 488.007 238.642 484.264 239.344 480.365L302.022 544.701L435.132 415.024C409.264 438.924 393.319 471.672 390.457 506.777C388.638 522.356 390.317 538.146 395.372 552.995C400.426 567.845 408.729 581.381 419.675 592.617C430.621 603.853 443.936 612.506 458.648 617.947C473.361 623.388 489.101 625.479 504.723 624.067C537.979 623.349 569.736 610.096 593.636 586.963Z" fill="#EE2A7B"/>
<path opacity="0.11" d="M593.636 586.963L416.321 759.706C379.57 744.917 346.509 722.246 319.471 693.292C259.257 631.485 232.118 564.358 238.054 491.911C238.43 488.007 238.642 484.264 239.344 480.365L302.022 544.701L435.132 415.024C409.264 438.924 393.319 471.672 390.457 506.777C388.638 522.356 390.317 538.146 395.372 552.995C400.426 567.845 408.729 581.381 419.675 592.617C430.621 603.853 443.936 612.506 458.648 617.947C473.361 623.388 489.101 625.479 504.723 624.067C537.979 623.349 569.736 610.096 593.636 586.963Z" fill="#EC008C"/>
</g>
<defs>
<linearGradient id="paint0_linear_4933_4754" x1="348.879" y1="285.232" x2="456.556" y2="395.759" gradientUnits="userSpaceOnUse">
<stop stop-color="#70499B"/>
<stop offset="0.57" stop-color="#A62D82"/>
<stop offset="1" stop-color="#CB1A71"/>
</linearGradient>
<linearGradient id="paint1_linear_4933_4754" x1="567.07" y1="613.159" x2="673.944" y2="722.861" gradientUnits="userSpaceOnUse">
<stop stop-color="#70499B"/>
<stop offset="0.57" stop-color="#A62D82"/>
<stop offset="1" stop-color="#CB1A71"/>
</linearGradient>
</defs>
</svg>
