<svg width="36" height="36" viewBox="0 0 36 36" fill="none" xmlns="http://www.w3.org/2000/svg">
<path d="M34.56 0H1.44C0.6435 0 0 0.6435 0 1.44V34.56C0 35.3565 0.6435 36 1.44 36H34.56C35.3565 36 36 35.3565 36 34.56V1.44C36 0.6435 35.3565 0 34.56 0ZM11.52 28.44C11.52 28.638 11.358 28.8 11.16 28.8H7.56C7.362 28.8 7.2 28.638 7.2 28.44V7.56C7.2 7.362 7.362 7.2 7.56 7.2H11.16C11.358 7.2 11.52 7.362 11.52 7.56V28.44ZM20.16 15.84C20.16 16.038 19.998 16.2 19.8 16.2H16.2C16.002 16.2 15.84 16.038 15.84 15.84V7.56C15.84 7.362 16.002 7.2 16.2 7.2H19.8C19.998 7.2 20.16 7.362 20.16 7.56V15.84ZM28.8 19.08C28.8 19.278 28.638 19.44 28.44 19.44H24.84C24.642 19.44 24.48 19.278 24.48 19.08V7.56C24.48 7.362 24.642 7.2 24.84 7.2H28.44C28.638 7.2 28.8 7.362 28.8 7.56V19.08Z" fill="#EC008C"/>
</svg>
