<svg width="26" height="36" viewBox="0 0 26 36" fill="none" xmlns="http://www.w3.org/2000/svg">
<path d="M22.0004 0H4.00039C3.04561 0 2.12994 0.379284 1.45481 1.05442C0.779675 1.72955 0.400391 2.64522 0.400391 3.6V34.2C0.400391 34.6774 0.590033 35.1352 0.927599 35.4728C1.26516 35.8104 1.723 36 2.20039 36H23.8004C24.2778 36 24.7356 35.8104 25.0732 35.4728C25.4108 35.1352 25.6004 34.6774 25.6004 34.2V3.6C25.6004 2.64522 25.2211 1.72955 24.546 1.05442C23.8708 0.379284 22.9552 0 22.0004 0ZM11.2004 25.2H5.80039V21.6H11.2004V25.2ZM11.2004 18H5.80039V14.4H11.2004V18ZM11.2004 10.8H5.80039V7.2H11.2004V10.8ZM20.2004 25.2H14.8004V21.6H20.2004V25.2ZM20.2004 18H14.8004V14.4H20.2004V18ZM20.2004 10.8H14.8004V7.2H20.2004V10.8Z" fill="#EC008C"/>
</svg>
